<?xml version="1.0" encoding="utf-8" standalone="no"?>
<!DOCTYPE svg PUBLIC "-//W3C//DTD SVG 1.1//EN"
  "http://www.w3.org/Graphics/SVG/1.1/DTD/svg11.dtd">
<!-- Created with matplotlib (http://matplotlib.org/) -->
<svg height="432pt" version="1.1" viewBox="0 0 576 432" width="576pt" xmlns="http://www.w3.org/2000/svg" xmlns:xlink="http://www.w3.org/1999/xlink">
 <defs>
  <style type="text/css">
*{stroke-linecap:butt;stroke-linejoin:round;stroke-miterlimit:100000;}
  </style>
 </defs>
 <g id="figure_1">
  <g id="patch_1">
   <path d="M 0 432 
L 576 432 
L 576 0 
L 0 0 
z
" style="fill:#ffffff;"/>
  </g>
  <g id="axes_1">
   <g id="patch_2">
    <path d="M 72 388.8 
L 518.4 388.8 
L 518.4 43.2 
L 72 43.2 
z
" style="fill:#ffffff;"/>
   </g>
   <g id="line2d_1">
    <path clip-path="url(#p2eff86b95a)" d="M 72 388.8 
L 79.44 388.8 
L 86.88 388.8 
L 94.32 388.8 
L 101.76 388.8 
L 109.2 388.8 
L 116.64 388.8 
L 124.08 388.8 
L 131.52 388.8 
L 138.96 388.8 
L 146.4 388.8 
L 153.84 388.8 
L 161.28 388.8 
L 168.72 388.8 
L 176.16 388.8 
L 183.6 388.8 
L 191.04 388.8 
L 198.48 388.8 
L 205.92 388.8 
L 213.36 388.8 
L 220.8 388.8 
L 228.24 388.8 
L 235.68 388.8 
L 243.12 388.8 
L 250.56 388.8 
L 258 388.8 
L 265.44 388.8 
L 272.88 388.8 
L 280.32 388.8 
L 287.76 388.8 
L 295.2 388.8 
L 302.64 388.8 
L 310.08 388.8 
L 317.52 388.8 
L 324.96 388.8 
L 332.4 388.8 
L 339.84 388.8 
L 347.28 388.8 
L 354.72 388.8 
L 362.16 388.8 
L 369.6 358.01201 
L 377.04 329.103385 
L 384.48 307.638401 
L 391.92 289.056459 
L 399.36 272.150387 
L 406.8 256.391961 
L 414.24 241.495102 
L 421.68 227.28473 
L 429.12 213.6442 
L 436.56 200.490971 
L 444 187.763895 
L 451.44 175.415949 
L 458.88 163.409933 
L 466.32 151.715659 
L 473.76 140.308145 
L 481.2 129.166332 
L 488.64 118.272236 
L 496.08 107.610271 
L 503.52 97.166801 
L 510.96 86.929763 
L 518.4 76.888396 
" style="fill:none;stroke:#ff1e1e;stroke-linecap:square;"/>
   </g>
   <g id="line2d_2">
    <path clip-path="url(#p2eff86b95a)" d="M 72 388.8 
L 79.44 388.8 
L 86.88 388.8 
L 94.32 388.8 
L 101.76 388.8 
L 109.2 388.8 
L 116.64 388.8 
L 124.08 388.8 
L 131.52 388.8 
L 138.96 388.8 
L 146.4 388.8 
L 153.84 388.8 
L 161.28 388.8 
L 168.72 388.8 
L 176.16 388.8 
L 183.6 388.8 
L 191.04 388.8 
L 198.48 388.8 
L 205.92 388.8 
L 213.36 388.8 
L 220.8 388.8 
L 228.24 388.8 
L 235.68 388.8 
L 243.12 388.8 
L 250.56 388.8 
L 258 388.8 
L 265.44 388.8 
L 272.88 388.8 
L 280.32 388.8 
L 287.76 388.8 
L 295.2 388.8 
L 302.64 388.8 
L 310.08 388.8 
L 317.52 388.8 
L 324.96 388.563614 
L 332.4 388.435289 
L 339.84 387.213496 
L 347.28 382.511088 
L 354.72 373.921402 
L 362.16 359.715803 
L 369.6 342.818427 
L 377.04 323.599512 
L 384.48 305.915648 
L 391.92 288.168141 
L 399.36 272.208915 
L 406.8 257.170805 
L 414.24 242.343159 
L 421.68 228.563966 
L 429.12 215.117311 
L 436.56 202.040523 
L 444 189.35449 
L 451.44 176.97113 
L 458.88 165.173805 
L 466.32 153.348155 
L 473.76 141.999004 
L 481.2 130.757972 
L 488.64 119.923795 
L 496.08 109.435021 
L 503.52 98.779129 
L 510.96 88.471685 
L 518.4 78.706307 
" style="fill:none;stroke:#581845;stroke-linecap:square;"/>
   </g>
   <g id="line2d_3">
    <path clip-path="url(#p2eff86b95a)" d="M 72 388.8 
L 79.44 388.8 
L 86.88 388.8 
L 94.32 388.8 
L 101.76 388.8 
L 109.2 388.8 
L 116.64 388.8 
L 124.08 388.8 
L 131.52 388.8 
L 138.96 388.8 
L 146.4 388.8 
L 153.84 388.8 
L 161.28 388.8 
L 168.72 388.8 
L 176.16 388.8 
L 183.6 388.8 
L 191.04 388.8 
L 198.48 388.8 
L 205.92 388.8 
L 213.36 388.8 
L 220.8 388.8 
L 228.24 388.8 
L 235.68 388.8 
L 243.12 388.8 
L 250.56 388.8 
L 258 388.609428 
L 265.44 388.58718 
L 272.88 388.465568 
L 280.32 388.261458 
L 287.76 387.876951 
L 295.2 387.313182 
L 302.64 385.930618 
L 310.08 383.305865 
L 317.52 380.082977 
L 324.96 375.623673 
L 332.4 369.079174 
L 339.84 362.244824 
L 347.28 353.856992 
L 354.72 343.118593 
L 362.16 331.076317 
L 369.6 318.54016 
L 377.04 306.004583 
L 384.48 292.639815 
L 391.92 278.899312 
L 399.36 265.676329 
L 406.8 252.771789 
L 414.24 239.606907 
L 421.68 227.222385 
L 429.12 214.239783 
L 436.56 202.376153 
L 444 190.285191 
L 451.44 177.814872 
L 458.88 166.408927 
L 466.32 155.609304 
L 473.76 144.434112 
L 481.2 133.661567 
L 488.64 122.543675 
L 496.08 112.493213 
L 503.52 102.124373 
L 510.96 92.187435 
L 518.4 82.074452 
" style="fill:none;stroke:#26b7d8;stroke-linecap:square;"/>
   </g>
   <g id="line2d_4">
    <path clip-path="url(#p2eff86b95a)" d="M 72 388.8 
L 79.44 388.8 
L 86.88 388.8 
L 94.32 388.8 
L 101.76 388.8 
L 109.2 388.8 
L 116.64 388.8 
L 124.08 388.8 
L 131.52 388.8 
L 138.96 388.8 
L 146.4 388.8 
L 153.84 388.8 
L 161.28 388.8 
L 168.72 388.8 
L 176.16 388.8 
L 183.6 388.8 
L 191.04 388.8 
L 198.48 388.8 
L 205.92 388.8 
L 213.36 388.439759 
L 220.8 388.612223 
L 228.24 388.236657 
L 235.68 387.96455 
L 243.12 387.531374 
L 250.56 386.72687 
L 258 385.707039 
L 265.44 384.666517 
L 272.88 383.006264 
L 280.32 380.746451 
L 287.76 378.023039 
L 295.2 374.861741 
L 302.64 371.138825 
L 310.08 366.11742 
L 317.52 360.547687 
L 324.96 354.371929 
L 332.4 346.464553 
L 339.84 339.392954 
L 347.28 330.369661 
L 354.72 320.530157 
L 362.16 310.964424 
L 369.6 300.779364 
L 377.04 289.54153 
L 384.48 279.163715 
L 391.92 268.002542 
L 399.36 256.337852 
L 406.8 245.436928 
L 414.24 234.116252 
L 421.68 223.14152 
L 429.12 212.4263 
L 436.56 202.172299 
L 444 190.391573 
L 451.44 178.841141 
L 458.88 168.903805 
L 466.32 158.59218 
L 473.76 148.454675 
L 481.2 137.339192 
L 488.64 126.855791 
L 496.08 116.544863 
L 503.52 106.176433 
L 510.96 95.951872 
L 518.4 86.681637 
" style="fill:none;stroke:#8414a4;stroke-linecap:square;"/>
   </g>
   <g id="line2d_5">
    <path clip-path="url(#p2eff86b95a)" d="M 72 388.8 
L 79.44 388.8 
L 86.88 388.8 
L 94.32 386.907124 
L 101.76 386.907612 
L 109.2 386.907777 
L 116.64 386.907852 
L 124.08 388.462797 
L 131.52 388.414631 
L 138.96 388.318292 
L 146.4 388.318294 
L 153.84 388.249279 
L 161.28 388.251273 
L 168.72 388.079797 
L 176.16 387.778592 
L 183.6 387.619259 
L 191.04 386.953152 
L 198.48 386.482352 
L 205.92 386.047236 
L 213.36 385.007278 
L 220.8 383.934618 
L 228.24 382.698394 
L 235.68 381.332716 
L 243.12 379.483916 
L 250.56 377.017 
L 258 374.375914 
L 265.44 370.806029 
L 272.88 367.903502 
L 280.32 363.213919 
L 287.76 359.285953 
L 295.2 353.92414 
L 302.64 347.454282 
L 310.08 341.428708 
L 317.52 334.912872 
L 324.96 328.569619 
L 332.4 321.188389 
L 339.84 313.0865 
L 347.28 305.36824 
L 354.72 296.807987 
L 362.16 288.161721 
L 369.6 279.15055 
L 377.04 269.844364 
L 384.48 261.287978 
L 391.92 251.465308 
L 399.36 242.365342 
L 406.8 232.657241 
L 414.24 222.343875 
L 421.68 213.095089 
L 429.12 203.12643 
L 436.56 193.125086 
L 444 182.499799 
L 451.44 172.745724 
L 458.88 162.289527 
L 466.32 153.244371 
L 473.76 143.590103 
L 481.2 134.557096 
L 488.64 125.454498 
L 496.08 116.007566 
L 503.52 106.76056 
L 510.96 97.743947 
L 518.4 88.26646 
" style="fill:none;stroke:#ffd23a;stroke-linecap:square;"/>
   </g>
   <g id="line2d_6">
    <path clip-path="url(#p2eff86b95a)" d="M 72 388.393822 
L 79.44 388.300088 
L 86.88 388.206355 
L 94.32 388.143866 
L 101.76 387.926636 
L 109.2 387.73948 
L 116.64 387.489942 
L 124.08 387.240404 
L 131.52 386.732841 
L 138.96 386.527229 
L 146.4 385.936904 
L 153.84 385.435123 
L 161.28 384.816383 
L 168.72 383.813131 
L 176.16 383.163972 
L 183.6 382.160712 
L 191.04 380.803382 
L 198.48 379.190833 
L 205.92 377.879714 
L 213.36 376.261851 
L 220.8 373.806182 
L 228.24 371.321607 
L 235.68 368.894815 
L 243.12 365.788285 
L 250.56 362.423961 
L 258 359.340174 
L 265.44 355.04577 
L 272.88 350.203304 
L 280.32 345.706686 
L 287.76 341.008374 
L 295.2 336.166512 
L 302.64 329.567335 
L 310.08 323.719989 
L 317.52 316.975958 
L 324.96 310.951984 
L 332.4 303.775059 
L 339.84 295.917842 
L 347.28 288.080888 
L 354.72 280.969859 
L 362.16 273.795905 
L 369.6 265.844212 
L 377.04 257.805697 
L 384.48 248.757238 
L 391.92 240.292849 
L 399.36 231.535042 
L 406.8 221.45206 
L 414.24 212.867622 
L 421.68 204.542072 
L 429.12 195.986246 
L 436.56 186.796458 
L 444 177.635462 
L 451.44 169.167347 
L 458.88 160.268194 
L 466.32 151.400226 
L 473.76 143.278748 
L 481.2 134.69605 
L 488.64 125.738976 
L 496.08 117.215039 
L 503.52 108.064461 
L 510.96 99.538984 
L 518.4 90.754697 
" style="fill:none;stroke:#ff9300;stroke-linecap:square;"/>
   </g>
   <g id="line2d_7">
    <path clip-path="url(#p2eff86b95a)" d="M 72 387.151637 
L 79.44 386.522155 
L 86.88 386.162491 
L 94.32 385.707201 
L 101.76 385.201701 
L 109.2 384.488 
L 116.64 383.655343 
L 124.08 382.941637 
L 131.52 382.119252 
L 138.96 381.28816 
L 146.4 380.109289 
L 153.84 378.424264 
L 161.28 377.297137 
L 168.72 375.780559 
L 176.16 373.629999 
L 183.6 371.682868 
L 191.04 369.737218 
L 198.48 367.181064 
L 205.92 364.61231 
L 213.36 362.072352 
L 220.8 358.913092 
L 228.24 355.105257 
L 235.68 352.415662 
L 243.12 348.479628 
L 250.56 344.687664 
L 258 340.221631 
L 265.44 335.640428 
L 272.88 330.338913 
L 280.32 325.700134 
L 287.76 320.657919 
L 295.2 314.953007 
L 302.64 309.046347 
L 310.08 303.197049 
L 317.52 296.601277 
L 324.96 290.176381 
L 332.4 283.000099 
L 339.84 276.80787 
L 347.28 270.125601 
L 354.72 262.66549 
L 362.16 255.205302 
L 369.6 247.917897 
L 377.04 240.31361 
L 384.48 232.507658 
L 391.92 224.759361 
L 399.36 216.204496 
L 406.8 208.369702 
L 414.24 200.419708 
L 421.68 193.333841 
L 429.12 185.297444 
L 436.56 177.405085 
L 444 169.253495 
L 451.44 160.81387 
L 458.88 152.086211 
L 466.32 144.10747 
L 473.76 135.898289 
L 481.2 127.890757 
L 488.64 119.364445 
L 496.08 111.905267 
L 503.52 103.868903 
L 510.96 95.775265 
L 518.4 87.451236 
" style="fill:none;stroke:#f50fe6;stroke-linecap:square;"/>
   </g>
   <g id="line2d_8">
    <path clip-path="url(#p2eff86b95a)" d="M 72 383.52988 
L 79.44 382.714618 
L 86.88 381.857885 
L 94.32 381.189922 
L 101.76 380.173342 
L 109.2 378.779146 
L 116.64 377.41399 
L 124.08 375.990741 
L 131.52 374.632763 
L 138.96 372.840778 
L 146.4 371.279497 
L 153.84 369.139947 
L 161.28 367.169712 
L 168.72 364.948883 
L 176.16 362.465435 
L 183.6 359.725212 
L 191.04 357.134126 
L 198.48 354.191774 
L 205.92 351.24996 
L 213.36 348.308209 
L 220.8 344.270531 
L 228.24 340.492421 
L 235.68 336.105259 
L 243.12 331.868302 
L 250.56 327.400257 
L 258 322.874037 
L 265.44 318.232807 
L 272.88 312.986238 
L 280.32 307.047555 
L 287.76 302.377372 
L 295.2 296.784879 
L 302.64 290.471776 
L 310.08 284.67758 
L 317.52 278.768073 
L 324.96 272.800898 
L 332.4 266.57427 
L 339.84 260.232231 
L 347.28 253.611298 
L 354.72 247.812144 
L 362.16 240.436441 
L 369.6 233.576457 
L 377.04 226.8316 
L 384.48 220.235238 
L 391.92 213.062118 
L 399.36 205.717225 
L 406.8 198.142209 
L 414.24 190.106018 
L 421.68 183.106682 
L 429.12 175.848055 
L 436.56 168.99263 
L 444 160.754546 
L 451.44 153.466994 
L 458.88 145.689737 
L 466.32 138.891843 
L 473.76 130.797768 
L 481.2 124.201499 
L 488.64 116.453306 
L 496.08 108.76235 
L 503.52 100.985145 
L 510.96 93.035117 
L 518.4 86.006827 
" style="fill:none;stroke:#1000a0;stroke-linecap:square;"/>
   </g>
   <g id="line2d_9">
    <path clip-path="url(#p2eff86b95a)" d="M 72 377.748725 
L 79.44 376.536725 
L 86.88 375.411336 
L 94.32 374.487939 
L 101.76 372.987446 
L 109.2 370.9964 
L 116.64 369.207348 
L 124.08 367.129756 
L 131.52 364.792468 
L 138.96 362.628308 
L 146.4 359.971608 
L 153.84 357.780486 
L 161.28 355.071287 
L 168.72 352.219205 
L 176.16 349.252295 
L 183.6 346.198974 
L 191.04 342.857625 
L 198.48 339.314647 
L 205.92 335.858078 
L 213.36 331.767836 
L 220.8 328.282516 
L 228.24 324.566799 
L 235.68 320.793525 
L 243.12 316.933837 
L 250.56 312.354049 
L 258 307.774246 
L 265.44 302.935191 
L 272.88 296.540708 
L 280.32 291.672826 
L 287.76 287.438621 
L 295.2 282.081043 
L 302.64 276.29138 
L 310.08 270.703316 
L 317.52 265.115152 
L 324.96 258.807053 
L 332.4 253.074906 
L 339.84 246.68015 
L 347.28 241.012691 
L 354.72 234.641982 
L 362.16 228.159129 
L 369.6 221.363867 
L 377.04 214.36482 
L 384.48 207.422989 
L 391.92 200.625196 
L 399.36 194.144287 
L 406.8 186.972127 
L 414.24 180.376061 
L 421.68 173.17512 
L 429.12 166.636699 
L 436.56 160.155959 
L 444 153.156793 
L 451.44 145.61028 
L 458.88 138.524408 
L 466.32 131.899788 
L 473.76 124.63974 
L 481.2 117.454612 
L 488.64 110.110013 
L 496.08 103.586513 
L 503.52 96.043711 
L 510.96 88.817944 
L 518.4 81.325727 
" style="fill:none;stroke:#595866;stroke-linecap:square;"/>
   </g>
   <g id="line2d_10">
    <path clip-path="url(#p2eff86b95a)" d="M 72 369.089696 
L 79.44 367.242795 
L 86.88 365.79992 
L 94.32 363.808714 
L 101.76 361.759884 
L 109.2 359.335944 
L 116.64 356.969875 
L 124.08 354.545955 
L 131.52 351.371687 
L 138.96 348.832044 
L 146.4 346.409918 
L 153.84 343.699374 
L 161.28 340.508533 
L 168.72 337.683092 
L 176.16 334.856472 
L 183.6 331.398249 
L 191.04 328.198122 
L 198.48 324.190719 
L 205.92 321.1347 
L 213.36 316.896603 
L 220.8 312.629692 
L 228.24 308.56459 
L 235.68 304.153519 
L 243.12 299.800095 
L 250.56 294.639414 
L 258 289.882367 
L 265.44 285.038825 
L 272.88 281.002537 
L 280.32 276.092663 
L 287.76 270.762376 
L 295.2 265.691439 
L 302.64 259.842557 
L 310.08 254.829222 
L 317.52 249.066837 
L 324.96 242.929898 
L 332.4 236.9946 
L 339.84 231.232146 
L 347.28 225.815443 
L 354.72 220.571679 
L 362.16 214.780544 
L 369.6 208.758944 
L 377.04 202.708545 
L 384.48 197.061517 
L 391.92 190.262053 
L 399.36 184.211692 
L 406.8 177.469851 
L 414.24 171.073802 
L 421.68 164.850596 
L 429.12 158.195227 
L 436.56 151.626294 
L 444 144.481134 
L 451.44 138.085054 
L 458.88 131.573722 
L 466.32 124.370916 
L 473.76 117.974805 
L 481.2 111.232937 
L 488.64 104.692704 
L 496.08 98.209943 
L 503.52 91.476135 
L 510.96 84.759863 
L 518.4 77.799619 
" style="fill:none;stroke:#147f2a;stroke-linecap:square;"/>
   </g>
   <g id="line2d_11">
    <path clip-path="url(#p2eff86b95a)" d="M 72 358.710885 
L 79.44 356.866395 
L 86.88 354.861171 
L 94.32 352.469884 
L 101.76 350.165049 
L 109.2 347.831423 
L 116.64 345.382575 
L 124.08 342.472788 
L 131.52 340.170008 
L 138.96 336.857498 
L 146.4 333.516408 
L 153.84 330.347682 
L 161.28 327.150069 
L 168.72 323.491481 
L 176.16 320.265022 
L 183.6 316.4624 
L 191.04 313.120733 
L 198.48 309.404589 
L 205.92 305.16989 
L 213.36 301.424901 
L 220.8 297.363041 
L 228.24 293.157176 
L 235.68 289.527476 
L 243.12 284.947073 
L 250.56 280.597141 
L 258 275.81513 
L 265.44 271.580483 
L 272.88 266.222302 
L 280.32 261.267413 
L 287.76 256.139691 
L 295.2 250.95436 
L 302.64 245.855444 
L 310.08 240.814135 
L 317.52 235.859246 
L 324.96 231.048398 
L 332.4 224.278631 
L 339.84 218.949272 
L 347.28 213.735159 
L 354.72 207.973699 
L 362.16 202.442693 
L 369.6 197.113327 
L 377.04 191.034952 
L 384.48 185.532732 
L 391.92 179.339138 
L 399.36 173.404814 
L 406.8 167.96023 
L 414.24 161.881878 
L 421.68 155.774734 
L 429.12 149.321929 
L 436.56 143.503772 
L 444 137.103016 
L 451.44 130.910307 
L 458.88 124.602256 
L 466.32 118.496399 
L 473.76 112.102147 
L 481.2 106.697273 
L 488.64 100.009206 
L 496.08 93.12136 
L 503.52 86.352697 
L 510.96 80.164343 
L 518.4 73.800096 
" style="fill:none;stroke:#00f6aa;stroke-linecap:square;"/>
   </g>
   <g id="patch_3">
    <path d="M 72 388.8 
L 518.4 388.8 
" style="fill:none;stroke:#000000;stroke-linecap:square;stroke-linejoin:miter;"/>
   </g>
   <g id="patch_4">
    <path d="M 518.4 388.8 
L 518.4 43.2 
" style="fill:none;stroke:#000000;stroke-linecap:square;stroke-linejoin:miter;"/>
   </g>
   <g id="patch_5">
    <path d="M 72 43.2 
L 518.4 43.2 
" style="fill:none;stroke:#000000;stroke-linecap:square;stroke-linejoin:miter;"/>
   </g>
   <g id="patch_6">
    <path d="M 72 388.8 
L 72 43.2 
" style="fill:none;stroke:#000000;stroke-linecap:square;stroke-linejoin:miter;"/>
   </g>
   <g id="matplotlib.axis_1">
    <g id="xtick_1">
     <g id="line2d_12">
      <defs>
       <path d="M 0 0 
L 0 -4 
" id="m290cbb8014" style="stroke:#000000;stroke-width:0.5;"/>
      </defs>
      <g>
       <use style="stroke:#000000;stroke-width:0.5;" x="72.0" xlink:href="#m290cbb8014" y="388.8"/>
      </g>
     </g>
     <g id="line2d_13">
      <defs>
       <path d="M 0 0 
L 0 4 
" id="m4cad2fe1ab" style="stroke:#000000;stroke-width:0.5;"/>
      </defs>
      <g>
       <use style="stroke:#000000;stroke-width:0.5;" x="72.0" xlink:href="#m4cad2fe1ab" y="43.2"/>
      </g>
     </g>
     <g id="text_1">
      <!-- −400 -->
      <defs>
       <path d="M 10.59375 35.5 
L 73.1875 35.5 
L 73.1875 27.203125 
L 10.59375 27.203125 
z
" id="BitstreamVeraSans-Roman-2212"/>
       <path d="M 37.796875 64.3125 
L 12.890625 25.390625 
L 37.796875 25.390625 
z
M 35.203125 72.90625 
L 47.609375 72.90625 
L 47.609375 25.390625 
L 58.015625 25.390625 
L 58.015625 17.1875 
L 47.609375 17.1875 
L 47.609375 0 
L 37.796875 0 
L 37.796875 17.1875 
L 4.890625 17.1875 
L 4.890625 26.703125 
z
" id="BitstreamVeraSans-Roman-34"/>
       <path d="M 31.78125 66.40625 
Q 24.171875 66.40625 20.328125 58.90625 
Q 16.5 51.421875 16.5 36.375 
Q 16.5 21.390625 20.328125 13.890625 
Q 24.171875 6.390625 31.78125 6.390625 
Q 39.453125 6.390625 43.28125 13.890625 
Q 47.125 21.390625 47.125 36.375 
Q 47.125 51.421875 43.28125 58.90625 
Q 39.453125 66.40625 31.78125 66.40625 
M 31.78125 74.21875 
Q 44.046875 74.21875 50.515625 64.515625 
Q 56.984375 54.828125 56.984375 36.375 
Q 56.984375 17.96875 50.515625 8.265625 
Q 44.046875 -1.421875 31.78125 -1.421875 
Q 19.53125 -1.421875 13.0625 8.265625 
Q 6.59375 17.96875 6.59375 36.375 
Q 6.59375 54.828125 13.0625 64.515625 
Q 19.53125 74.21875 31.78125 74.21875 
" id="BitstreamVeraSans-Roman-30"/>
      </defs>
      <g transform="translate(55.5196875 401.918125)scale(0.12 -0.12)">
       <use xlink:href="#BitstreamVeraSans-Roman-2212"/>
       <use x="83.7890625" xlink:href="#BitstreamVeraSans-Roman-34"/>
       <use x="147.412109375" xlink:href="#BitstreamVeraSans-Roman-30"/>
       <use x="211.03515625" xlink:href="#BitstreamVeraSans-Roman-30"/>
      </g>
     </g>
    </g>
    <g id="xtick_2">
     <g id="line2d_14">
      <g>
       <use style="stroke:#000000;stroke-width:0.5;" x="146.4" xlink:href="#m290cbb8014" y="388.8"/>
      </g>
     </g>
     <g id="line2d_15">
      <g>
       <use style="stroke:#000000;stroke-width:0.5;" x="146.4" xlink:href="#m4cad2fe1ab" y="43.2"/>
      </g>
     </g>
     <g id="text_2">
      <!-- −300 -->
      <defs>
       <path d="M 40.578125 39.3125 
Q 47.65625 37.796875 51.625 33 
Q 55.609375 28.21875 55.609375 21.1875 
Q 55.609375 10.40625 48.1875 4.484375 
Q 40.765625 -1.421875 27.09375 -1.421875 
Q 22.515625 -1.421875 17.65625 -0.515625 
Q 12.796875 0.390625 7.625 2.203125 
L 7.625 11.71875 
Q 11.71875 9.328125 16.59375 8.109375 
Q 21.484375 6.890625 26.8125 6.890625 
Q 36.078125 6.890625 40.9375 10.546875 
Q 45.796875 14.203125 45.796875 21.1875 
Q 45.796875 27.640625 41.28125 31.265625 
Q 36.765625 34.90625 28.71875 34.90625 
L 20.21875 34.90625 
L 20.21875 43.015625 
L 29.109375 43.015625 
Q 36.375 43.015625 40.234375 45.921875 
Q 44.09375 48.828125 44.09375 54.296875 
Q 44.09375 59.90625 40.109375 62.90625 
Q 36.140625 65.921875 28.71875 65.921875 
Q 24.65625 65.921875 20.015625 65.03125 
Q 15.375 64.15625 9.8125 62.3125 
L 9.8125 71.09375 
Q 15.4375 72.65625 20.34375 73.4375 
Q 25.25 74.21875 29.59375 74.21875 
Q 40.828125 74.21875 47.359375 69.109375 
Q 53.90625 64.015625 53.90625 55.328125 
Q 53.90625 49.265625 50.4375 45.09375 
Q 46.96875 40.921875 40.578125 39.3125 
" id="BitstreamVeraSans-Roman-33"/>
      </defs>
      <g transform="translate(129.9196875 401.918125)scale(0.12 -0.12)">
       <use xlink:href="#BitstreamVeraSans-Roman-2212"/>
       <use x="83.7890625" xlink:href="#BitstreamVeraSans-Roman-33"/>
       <use x="147.412109375" xlink:href="#BitstreamVeraSans-Roman-30"/>
       <use x="211.03515625" xlink:href="#BitstreamVeraSans-Roman-30"/>
      </g>
     </g>
    </g>
    <g id="xtick_3">
     <g id="line2d_16">
      <g>
       <use style="stroke:#000000;stroke-width:0.5;" x="220.8" xlink:href="#m290cbb8014" y="388.8"/>
      </g>
     </g>
     <g id="line2d_17">
      <g>
       <use style="stroke:#000000;stroke-width:0.5;" x="220.8" xlink:href="#m4cad2fe1ab" y="43.2"/>
      </g>
     </g>
     <g id="text_3">
      <!-- −200 -->
      <defs>
       <path d="M 19.1875 8.296875 
L 53.609375 8.296875 
L 53.609375 0 
L 7.328125 0 
L 7.328125 8.296875 
Q 12.9375 14.109375 22.625 23.890625 
Q 32.328125 33.6875 34.8125 36.53125 
Q 39.546875 41.84375 41.421875 45.53125 
Q 43.3125 49.21875 43.3125 52.78125 
Q 43.3125 58.59375 39.234375 62.25 
Q 35.15625 65.921875 28.609375 65.921875 
Q 23.96875 65.921875 18.8125 64.3125 
Q 13.671875 62.703125 7.8125 59.421875 
L 7.8125 69.390625 
Q 13.765625 71.78125 18.9375 73 
Q 24.125 74.21875 28.421875 74.21875 
Q 39.75 74.21875 46.484375 68.546875 
Q 53.21875 62.890625 53.21875 53.421875 
Q 53.21875 48.921875 51.53125 44.890625 
Q 49.859375 40.875 45.40625 35.40625 
Q 44.1875 33.984375 37.640625 27.21875 
Q 31.109375 20.453125 19.1875 8.296875 
" id="BitstreamVeraSans-Roman-32"/>
      </defs>
      <g transform="translate(204.3196875 401.918125)scale(0.12 -0.12)">
       <use xlink:href="#BitstreamVeraSans-Roman-2212"/>
       <use x="83.7890625" xlink:href="#BitstreamVeraSans-Roman-32"/>
       <use x="147.412109375" xlink:href="#BitstreamVeraSans-Roman-30"/>
       <use x="211.03515625" xlink:href="#BitstreamVeraSans-Roman-30"/>
      </g>
     </g>
    </g>
    <g id="xtick_4">
     <g id="line2d_18">
      <g>
       <use style="stroke:#000000;stroke-width:0.5;" x="295.2" xlink:href="#m290cbb8014" y="388.8"/>
      </g>
     </g>
     <g id="line2d_19">
      <g>
       <use style="stroke:#000000;stroke-width:0.5;" x="295.2" xlink:href="#m4cad2fe1ab" y="43.2"/>
      </g>
     </g>
     <g id="text_4">
      <!-- −100 -->
      <defs>
       <path d="M 12.40625 8.296875 
L 28.515625 8.296875 
L 28.515625 63.921875 
L 10.984375 60.40625 
L 10.984375 69.390625 
L 28.421875 72.90625 
L 38.28125 72.90625 
L 38.28125 8.296875 
L 54.390625 8.296875 
L 54.390625 0 
L 12.40625 0 
z
" id="BitstreamVeraSans-Roman-31"/>
      </defs>
      <g transform="translate(278.7196875 401.918125)scale(0.12 -0.12)">
       <use xlink:href="#BitstreamVeraSans-Roman-2212"/>
       <use x="83.7890625" xlink:href="#BitstreamVeraSans-Roman-31"/>
       <use x="147.412109375" xlink:href="#BitstreamVeraSans-Roman-30"/>
       <use x="211.03515625" xlink:href="#BitstreamVeraSans-Roman-30"/>
      </g>
     </g>
    </g>
    <g id="xtick_5">
     <g id="line2d_20">
      <g>
       <use style="stroke:#000000;stroke-width:0.5;" x="369.6" xlink:href="#m290cbb8014" y="388.8"/>
      </g>
     </g>
     <g id="line2d_21">
      <g>
       <use style="stroke:#000000;stroke-width:0.5;" x="369.6" xlink:href="#m4cad2fe1ab" y="43.2"/>
      </g>
     </g>
     <g id="text_5">
      <!-- 0 -->
      <g transform="translate(365.7825 401.918125)scale(0.12 -0.12)">
       <use xlink:href="#BitstreamVeraSans-Roman-30"/>
      </g>
     </g>
    </g>
    <g id="xtick_6">
     <g id="line2d_22">
      <g>
       <use style="stroke:#000000;stroke-width:0.5;" x="444.0" xlink:href="#m290cbb8014" y="388.8"/>
      </g>
     </g>
     <g id="line2d_23">
      <g>
       <use style="stroke:#000000;stroke-width:0.5;" x="444.0" xlink:href="#m4cad2fe1ab" y="43.2"/>
      </g>
     </g>
     <g id="text_6">
      <!-- 100 -->
      <g transform="translate(432.5475 401.918125)scale(0.12 -0.12)">
       <use xlink:href="#BitstreamVeraSans-Roman-31"/>
       <use x="63.623046875" xlink:href="#BitstreamVeraSans-Roman-30"/>
       <use x="127.24609375" xlink:href="#BitstreamVeraSans-Roman-30"/>
      </g>
     </g>
    </g>
    <g id="xtick_7">
     <g id="line2d_24">
      <g>
       <use style="stroke:#000000;stroke-width:0.5;" x="518.4" xlink:href="#m290cbb8014" y="388.8"/>
      </g>
     </g>
     <g id="line2d_25">
      <g>
       <use style="stroke:#000000;stroke-width:0.5;" x="518.4" xlink:href="#m4cad2fe1ab" y="43.2"/>
      </g>
     </g>
     <g id="text_7">
      <!-- 200 -->
      <g transform="translate(506.9475 401.918125)scale(0.12 -0.12)">
       <use xlink:href="#BitstreamVeraSans-Roman-32"/>
       <use x="63.623046875" xlink:href="#BitstreamVeraSans-Roman-30"/>
       <use x="127.24609375" xlink:href="#BitstreamVeraSans-Roman-30"/>
      </g>
     </g>
    </g>
    <g id="text_8">
     <!-- Input current DC current (in pA) -->
     <defs>
      <path d="M 64.40625 67.28125 
L 64.40625 56.890625 
Q 59.421875 61.53125 53.78125 63.8125 
Q 48.140625 66.109375 41.796875 66.109375 
Q 29.296875 66.109375 22.65625 58.46875 
Q 16.015625 50.828125 16.015625 36.375 
Q 16.015625 21.96875 22.65625 14.328125 
Q 29.296875 6.6875 41.796875 6.6875 
Q 48.140625 6.6875 53.78125 8.984375 
Q 59.421875 11.28125 64.40625 15.921875 
L 64.40625 5.609375 
Q 59.234375 2.09375 53.4375 0.328125 
Q 47.65625 -1.421875 41.21875 -1.421875 
Q 24.65625 -1.421875 15.125 8.703125 
Q 5.609375 18.84375 5.609375 36.375 
Q 5.609375 53.953125 15.125 64.078125 
Q 24.65625 74.21875 41.21875 74.21875 
Q 47.75 74.21875 53.53125 72.484375 
Q 59.328125 70.75 64.40625 67.28125 
" id="BitstreamVeraSans-Roman-43"/>
      <path d="M 8.015625 75.875 
L 15.828125 75.875 
Q 23.140625 64.359375 26.78125 53.3125 
Q 30.421875 42.28125 30.421875 31.390625 
Q 30.421875 20.453125 26.78125 9.375 
Q 23.140625 -1.703125 15.828125 -13.1875 
L 8.015625 -13.1875 
Q 14.5 -2 17.703125 9.0625 
Q 20.90625 20.125 20.90625 31.390625 
Q 20.90625 42.671875 17.703125 53.65625 
Q 14.5 64.65625 8.015625 75.875 
" id="BitstreamVeraSans-Roman-29"/>
      <path d="M 9.8125 72.90625 
L 19.671875 72.90625 
L 19.671875 0 
L 9.8125 0 
z
" id="BitstreamVeraSans-Roman-49"/>
      <path d="M 56.203125 29.59375 
L 56.203125 25.203125 
L 14.890625 25.203125 
Q 15.484375 15.921875 20.484375 11.0625 
Q 25.484375 6.203125 34.421875 6.203125 
Q 39.59375 6.203125 44.453125 7.46875 
Q 49.3125 8.734375 54.109375 11.28125 
L 54.109375 2.78125 
Q 49.265625 0.734375 44.1875 -0.34375 
Q 39.109375 -1.421875 33.890625 -1.421875 
Q 20.796875 -1.421875 13.15625 6.1875 
Q 5.515625 13.8125 5.515625 26.8125 
Q 5.515625 40.234375 12.765625 48.109375 
Q 20.015625 56 32.328125 56 
Q 43.359375 56 49.78125 48.890625 
Q 56.203125 41.796875 56.203125 29.59375 
M 47.21875 32.234375 
Q 47.125 39.59375 43.09375 43.984375 
Q 39.0625 48.390625 32.421875 48.390625 
Q 24.90625 48.390625 20.390625 44.140625 
Q 15.875 39.890625 15.1875 32.171875 
z
" id="BitstreamVeraSans-Roman-65"/>
      <path d="M 9.421875 54.6875 
L 18.40625 54.6875 
L 18.40625 0 
L 9.421875 0 
z
M 9.421875 75.984375 
L 18.40625 75.984375 
L 18.40625 64.59375 
L 9.421875 64.59375 
z
" id="BitstreamVeraSans-Roman-69"/>
      <path id="BitstreamVeraSans-Roman-20"/>
      <path d="M 18.3125 70.21875 
L 18.3125 54.6875 
L 36.8125 54.6875 
L 36.8125 47.703125 
L 18.3125 47.703125 
L 18.3125 18.015625 
Q 18.3125 11.328125 20.140625 9.421875 
Q 21.96875 7.515625 27.59375 7.515625 
L 36.8125 7.515625 
L 36.8125 0 
L 27.59375 0 
Q 17.1875 0 13.234375 3.875 
Q 9.28125 7.765625 9.28125 18.015625 
L 9.28125 47.703125 
L 2.6875 47.703125 
L 2.6875 54.6875 
L 9.28125 54.6875 
L 9.28125 70.21875 
z
" id="BitstreamVeraSans-Roman-74"/>
      <path d="M 8.5 21.578125 
L 8.5 54.6875 
L 17.484375 54.6875 
L 17.484375 21.921875 
Q 17.484375 14.15625 20.5 10.265625 
Q 23.53125 6.390625 29.59375 6.390625 
Q 36.859375 6.390625 41.078125 11.03125 
Q 45.3125 15.671875 45.3125 23.6875 
L 45.3125 54.6875 
L 54.296875 54.6875 
L 54.296875 0 
L 45.3125 0 
L 45.3125 8.40625 
Q 42.046875 3.421875 37.71875 1 
Q 33.40625 -1.421875 27.6875 -1.421875 
Q 18.265625 -1.421875 13.375 4.4375 
Q 8.5 10.296875 8.5 21.578125 
" id="BitstreamVeraSans-Roman-75"/>
      <path d="M 31 75.875 
Q 24.46875 64.65625 21.28125 53.65625 
Q 18.109375 42.671875 18.109375 31.390625 
Q 18.109375 20.125 21.3125 9.0625 
Q 24.515625 -2 31 -13.1875 
L 23.1875 -13.1875 
Q 15.875 -1.703125 12.234375 9.375 
Q 8.59375 20.453125 8.59375 31.390625 
Q 8.59375 42.28125 12.203125 53.3125 
Q 15.828125 64.359375 23.1875 75.875 
z
" id="BitstreamVeraSans-Roman-28"/>
      <path d="M 19.671875 64.796875 
L 19.671875 8.109375 
L 31.59375 8.109375 
Q 46.6875 8.109375 53.6875 14.9375 
Q 60.6875 21.78125 60.6875 36.53125 
Q 60.6875 51.171875 53.6875 57.984375 
Q 46.6875 64.796875 31.59375 64.796875 
z
M 9.8125 72.90625 
L 30.078125 72.90625 
Q 51.265625 72.90625 61.171875 64.09375 
Q 71.09375 55.28125 71.09375 36.53125 
Q 71.09375 17.671875 61.125 8.828125 
Q 51.171875 0 30.078125 0 
L 9.8125 0 
z
" id="BitstreamVeraSans-Roman-44"/>
      <path d="M 41.109375 46.296875 
Q 39.59375 47.171875 37.8125 47.578125 
Q 36.03125 48 33.890625 48 
Q 26.265625 48 22.1875 43.046875 
Q 18.109375 38.09375 18.109375 28.8125 
L 18.109375 0 
L 9.078125 0 
L 9.078125 54.6875 
L 18.109375 54.6875 
L 18.109375 46.1875 
Q 20.953125 51.171875 25.484375 53.578125 
Q 30.03125 56 36.53125 56 
Q 37.453125 56 38.578125 55.875 
Q 39.703125 55.765625 41.0625 55.515625 
z
" id="BitstreamVeraSans-Roman-72"/>
      <path d="M 18.109375 8.203125 
L 18.109375 -20.796875 
L 9.078125 -20.796875 
L 9.078125 54.6875 
L 18.109375 54.6875 
L 18.109375 46.390625 
Q 20.953125 51.265625 25.265625 53.625 
Q 29.59375 56 35.59375 56 
Q 45.5625 56 51.78125 48.09375 
Q 58.015625 40.1875 58.015625 27.296875 
Q 58.015625 14.40625 51.78125 6.484375 
Q 45.5625 -1.421875 35.59375 -1.421875 
Q 29.59375 -1.421875 25.265625 0.953125 
Q 20.953125 3.328125 18.109375 8.203125 
M 48.6875 27.296875 
Q 48.6875 37.203125 44.609375 42.84375 
Q 40.53125 48.484375 33.40625 48.484375 
Q 26.265625 48.484375 22.1875 42.84375 
Q 18.109375 37.203125 18.109375 27.296875 
Q 18.109375 17.390625 22.1875 11.75 
Q 26.265625 6.109375 33.40625 6.109375 
Q 40.53125 6.109375 44.609375 11.75 
Q 48.6875 17.390625 48.6875 27.296875 
" id="BitstreamVeraSans-Roman-70"/>
      <path d="M 54.890625 33.015625 
L 54.890625 0 
L 45.90625 0 
L 45.90625 32.71875 
Q 45.90625 40.484375 42.875 44.328125 
Q 39.84375 48.1875 33.796875 48.1875 
Q 26.515625 48.1875 22.3125 43.546875 
Q 18.109375 38.921875 18.109375 30.90625 
L 18.109375 0 
L 9.078125 0 
L 9.078125 54.6875 
L 18.109375 54.6875 
L 18.109375 46.1875 
Q 21.34375 51.125 25.703125 53.5625 
Q 30.078125 56 35.796875 56 
Q 45.21875 56 50.046875 50.171875 
Q 54.890625 44.34375 54.890625 33.015625 
" id="BitstreamVeraSans-Roman-6e"/>
      <path d="M 48.78125 52.59375 
L 48.78125 44.1875 
Q 44.96875 46.296875 41.140625 47.34375 
Q 37.3125 48.390625 33.40625 48.390625 
Q 24.65625 48.390625 19.8125 42.84375 
Q 14.984375 37.3125 14.984375 27.296875 
Q 14.984375 17.28125 19.8125 11.734375 
Q 24.65625 6.203125 33.40625 6.203125 
Q 37.3125 6.203125 41.140625 7.25 
Q 44.96875 8.296875 48.78125 10.40625 
L 48.78125 2.09375 
Q 45.015625 0.34375 40.984375 -0.53125 
Q 36.96875 -1.421875 32.421875 -1.421875 
Q 20.0625 -1.421875 12.78125 6.34375 
Q 5.515625 14.109375 5.515625 27.296875 
Q 5.515625 40.671875 12.859375 48.328125 
Q 20.21875 56 33.015625 56 
Q 37.15625 56 41.109375 55.140625 
Q 45.0625 54.296875 48.78125 52.59375 
" id="BitstreamVeraSans-Roman-63"/>
      <path d="M 34.1875 63.1875 
L 20.796875 26.90625 
L 47.609375 26.90625 
z
M 28.609375 72.90625 
L 39.796875 72.90625 
L 67.578125 0 
L 57.328125 0 
L 50.6875 18.703125 
L 17.828125 18.703125 
L 11.1875 0 
L 0.78125 0 
z
" id="BitstreamVeraSans-Roman-41"/>
     </defs>
     <g transform="translate(199.498125 418.531875)scale(0.12 -0.12)">
      <use xlink:href="#BitstreamVeraSans-Roman-49"/>
      <use x="29.4921875" xlink:href="#BitstreamVeraSans-Roman-6e"/>
      <use x="92.87109375" xlink:href="#BitstreamVeraSans-Roman-70"/>
      <use x="156.34765625" xlink:href="#BitstreamVeraSans-Roman-75"/>
      <use x="219.7265625" xlink:href="#BitstreamVeraSans-Roman-74"/>
      <use x="258.935546875" xlink:href="#BitstreamVeraSans-Roman-20"/>
      <use x="290.72265625" xlink:href="#BitstreamVeraSans-Roman-63"/>
      <use x="345.703125" xlink:href="#BitstreamVeraSans-Roman-75"/>
      <use x="409.08203125" xlink:href="#BitstreamVeraSans-Roman-72"/>
      <use x="450.1796875" xlink:href="#BitstreamVeraSans-Roman-72"/>
      <use x="491.26171875" xlink:href="#BitstreamVeraSans-Roman-65"/>
      <use x="552.78515625" xlink:href="#BitstreamVeraSans-Roman-6e"/>
      <use x="616.1640625" xlink:href="#BitstreamVeraSans-Roman-74"/>
      <use x="655.373046875" xlink:href="#BitstreamVeraSans-Roman-20"/>
      <use x="687.16015625" xlink:href="#BitstreamVeraSans-Roman-44"/>
      <use x="764.162109375" xlink:href="#BitstreamVeraSans-Roman-43"/>
      <use x="833.986328125" xlink:href="#BitstreamVeraSans-Roman-20"/>
      <use x="865.7734375" xlink:href="#BitstreamVeraSans-Roman-63"/>
      <use x="920.75390625" xlink:href="#BitstreamVeraSans-Roman-75"/>
      <use x="984.1328125" xlink:href="#BitstreamVeraSans-Roman-72"/>
      <use x="1025.23046875" xlink:href="#BitstreamVeraSans-Roman-72"/>
      <use x="1066.3125" xlink:href="#BitstreamVeraSans-Roman-65"/>
      <use x="1127.8359375" xlink:href="#BitstreamVeraSans-Roman-6e"/>
      <use x="1191.21484375" xlink:href="#BitstreamVeraSans-Roman-74"/>
      <use x="1230.423828125" xlink:href="#BitstreamVeraSans-Roman-20"/>
      <use x="1262.2109375" xlink:href="#BitstreamVeraSans-Roman-28"/>
      <use x="1301.224609375" xlink:href="#BitstreamVeraSans-Roman-69"/>
      <use x="1329.0078125" xlink:href="#BitstreamVeraSans-Roman-6e"/>
      <use x="1392.38671875" xlink:href="#BitstreamVeraSans-Roman-20"/>
      <use x="1424.173828125" xlink:href="#BitstreamVeraSans-Roman-70"/>
      <use x="1487.650390625" xlink:href="#BitstreamVeraSans-Roman-41"/>
      <use x="1556.05859375" xlink:href="#BitstreamVeraSans-Roman-29"/>
     </g>
    </g>
   </g>
   <g id="matplotlib.axis_2">
    <g id="ytick_1">
     <g id="line2d_26">
      <defs>
       <path d="M 0 0 
L 4 0 
" id="mbfa1627bd9" style="stroke:#000000;stroke-width:0.5;"/>
      </defs>
      <g>
       <use style="stroke:#000000;stroke-width:0.5;" x="72.0" xlink:href="#mbfa1627bd9" y="388.8"/>
      </g>
     </g>
     <g id="line2d_27">
      <defs>
       <path d="M 0 0 
L -4 0 
" id="m9dc661e821" style="stroke:#000000;stroke-width:0.5;"/>
      </defs>
      <g>
       <use style="stroke:#000000;stroke-width:0.5;" x="518.4" xlink:href="#m9dc661e821" y="388.8"/>
      </g>
     </g>
     <g id="text_9">
      <!-- 0 -->
      <g transform="translate(60.365 392.11125)scale(0.12 -0.12)">
       <use xlink:href="#BitstreamVeraSans-Roman-30"/>
      </g>
     </g>
    </g>
    <g id="ytick_2">
     <g id="line2d_28">
      <g>
       <use style="stroke:#000000;stroke-width:0.5;" x="72.0" xlink:href="#mbfa1627bd9" y="331.2"/>
      </g>
     </g>
     <g id="line2d_29">
      <g>
       <use style="stroke:#000000;stroke-width:0.5;" x="518.4" xlink:href="#m9dc661e821" y="331.2"/>
      </g>
     </g>
     <g id="text_10">
      <!-- 5 -->
      <defs>
       <path d="M 10.796875 72.90625 
L 49.515625 72.90625 
L 49.515625 64.59375 
L 19.828125 64.59375 
L 19.828125 46.734375 
Q 21.96875 47.46875 24.109375 47.828125 
Q 26.265625 48.1875 28.421875 48.1875 
Q 40.625 48.1875 47.75 41.5 
Q 54.890625 34.8125 54.890625 23.390625 
Q 54.890625 11.625 47.5625 5.09375 
Q 40.234375 -1.421875 26.90625 -1.421875 
Q 22.3125 -1.421875 17.546875 -0.640625 
Q 12.796875 0.140625 7.71875 1.703125 
L 7.71875 11.625 
Q 12.109375 9.234375 16.796875 8.0625 
Q 21.484375 6.890625 26.703125 6.890625 
Q 35.15625 6.890625 40.078125 11.328125 
Q 45.015625 15.765625 45.015625 23.390625 
Q 45.015625 31 40.078125 35.4375 
Q 35.15625 39.890625 26.703125 39.890625 
Q 22.75 39.890625 18.8125 39.015625 
Q 14.890625 38.140625 10.796875 36.28125 
z
" id="BitstreamVeraSans-Roman-35"/>
      </defs>
      <g transform="translate(60.365 334.51125)scale(0.12 -0.12)">
       <use xlink:href="#BitstreamVeraSans-Roman-35"/>
      </g>
     </g>
    </g>
    <g id="ytick_3">
     <g id="line2d_30">
      <g>
       <use style="stroke:#000000;stroke-width:0.5;" x="72.0" xlink:href="#mbfa1627bd9" y="273.6"/>
      </g>
     </g>
     <g id="line2d_31">
      <g>
       <use style="stroke:#000000;stroke-width:0.5;" x="518.4" xlink:href="#m9dc661e821" y="273.6"/>
      </g>
     </g>
     <g id="text_11">
      <!-- 10 -->
      <g transform="translate(52.73 276.91125)scale(0.12 -0.12)">
       <use xlink:href="#BitstreamVeraSans-Roman-31"/>
       <use x="63.623046875" xlink:href="#BitstreamVeraSans-Roman-30"/>
      </g>
     </g>
    </g>
    <g id="ytick_4">
     <g id="line2d_32">
      <g>
       <use style="stroke:#000000;stroke-width:0.5;" x="72.0" xlink:href="#mbfa1627bd9" y="216.0"/>
      </g>
     </g>
     <g id="line2d_33">
      <g>
       <use style="stroke:#000000;stroke-width:0.5;" x="518.4" xlink:href="#m9dc661e821" y="216.0"/>
      </g>
     </g>
     <g id="text_12">
      <!-- 15 -->
      <g transform="translate(52.73 219.31125)scale(0.12 -0.12)">
       <use xlink:href="#BitstreamVeraSans-Roman-31"/>
       <use x="63.623046875" xlink:href="#BitstreamVeraSans-Roman-35"/>
      </g>
     </g>
    </g>
    <g id="ytick_5">
     <g id="line2d_34">
      <g>
       <use style="stroke:#000000;stroke-width:0.5;" x="72.0" xlink:href="#mbfa1627bd9" y="158.4"/>
      </g>
     </g>
     <g id="line2d_35">
      <g>
       <use style="stroke:#000000;stroke-width:0.5;" x="518.4" xlink:href="#m9dc661e821" y="158.4"/>
      </g>
     </g>
     <g id="text_13">
      <!-- 20 -->
      <g transform="translate(52.73 161.71125)scale(0.12 -0.12)">
       <use xlink:href="#BitstreamVeraSans-Roman-32"/>
       <use x="63.623046875" xlink:href="#BitstreamVeraSans-Roman-30"/>
      </g>
     </g>
    </g>
    <g id="ytick_6">
     <g id="line2d_36">
      <g>
       <use style="stroke:#000000;stroke-width:0.5;" x="72.0" xlink:href="#mbfa1627bd9" y="100.8"/>
      </g>
     </g>
     <g id="line2d_37">
      <g>
       <use style="stroke:#000000;stroke-width:0.5;" x="518.4" xlink:href="#m9dc661e821" y="100.8"/>
      </g>
     </g>
     <g id="text_14">
      <!-- 25 -->
      <g transform="translate(52.73 104.11125)scale(0.12 -0.12)">
       <use xlink:href="#BitstreamVeraSans-Roman-32"/>
       <use x="63.623046875" xlink:href="#BitstreamVeraSans-Roman-35"/>
      </g>
     </g>
    </g>
    <g id="ytick_7">
     <g id="line2d_38">
      <g>
       <use style="stroke:#000000;stroke-width:0.5;" x="72.0" xlink:href="#mbfa1627bd9" y="43.2"/>
      </g>
     </g>
     <g id="line2d_39">
      <g>
       <use style="stroke:#000000;stroke-width:0.5;" x="518.4" xlink:href="#m9dc661e821" y="43.2"/>
      </g>
     </g>
     <g id="text_15">
      <!-- 30 -->
      <g transform="translate(52.73 46.51125)scale(0.12 -0.12)">
       <use xlink:href="#BitstreamVeraSans-Roman-33"/>
       <use x="63.623046875" xlink:href="#BitstreamVeraSans-Roman-30"/>
      </g>
     </g>
    </g>
    <g id="text_16">
     <!-- Frequency (in Hz) -->
     <defs>
      <path d="M 9.8125 72.90625 
L 51.703125 72.90625 
L 51.703125 64.59375 
L 19.671875 64.59375 
L 19.671875 43.109375 
L 48.578125 43.109375 
L 48.578125 34.8125 
L 19.671875 34.8125 
L 19.671875 0 
L 9.8125 0 
z
" id="BitstreamVeraSans-Roman-46"/>
      <path d="M 14.796875 27.296875 
Q 14.796875 17.390625 18.875 11.75 
Q 22.953125 6.109375 30.078125 6.109375 
Q 37.203125 6.109375 41.296875 11.75 
Q 45.40625 17.390625 45.40625 27.296875 
Q 45.40625 37.203125 41.296875 42.84375 
Q 37.203125 48.484375 30.078125 48.484375 
Q 22.953125 48.484375 18.875 42.84375 
Q 14.796875 37.203125 14.796875 27.296875 
M 45.40625 8.203125 
Q 42.578125 3.328125 38.25 0.953125 
Q 33.9375 -1.421875 27.875 -1.421875 
Q 17.96875 -1.421875 11.734375 6.484375 
Q 5.515625 14.40625 5.515625 27.296875 
Q 5.515625 40.1875 11.734375 48.09375 
Q 17.96875 56 27.875 56 
Q 33.9375 56 38.25 53.625 
Q 42.578125 51.265625 45.40625 46.390625 
L 45.40625 54.6875 
L 54.390625 54.6875 
L 54.390625 -20.796875 
L 45.40625 -20.796875 
z
" id="BitstreamVeraSans-Roman-71"/>
      <path d="M 9.8125 72.90625 
L 19.671875 72.90625 
L 19.671875 43.015625 
L 55.515625 43.015625 
L 55.515625 72.90625 
L 65.375 72.90625 
L 65.375 0 
L 55.515625 0 
L 55.515625 34.71875 
L 19.671875 34.71875 
L 19.671875 0 
L 9.8125 0 
z
" id="BitstreamVeraSans-Roman-48"/>
      <path d="M 32.171875 -5.078125 
Q 28.375 -14.84375 24.75 -17.8125 
Q 21.140625 -20.796875 15.09375 -20.796875 
L 7.90625 -20.796875 
L 7.90625 -13.28125 
L 13.1875 -13.28125 
Q 16.890625 -13.28125 18.9375 -11.515625 
Q 21 -9.765625 23.484375 -3.21875 
L 25.09375 0.875 
L 2.984375 54.6875 
L 12.5 54.6875 
L 29.59375 11.921875 
L 46.6875 54.6875 
L 56.203125 54.6875 
z
" id="BitstreamVeraSans-Roman-79"/>
      <path d="M 5.515625 54.6875 
L 48.1875 54.6875 
L 48.1875 46.484375 
L 14.40625 7.171875 
L 48.1875 7.171875 
L 48.1875 0 
L 4.296875 0 
L 4.296875 8.203125 
L 38.09375 47.515625 
L 5.515625 47.515625 
z
" id="BitstreamVeraSans-Roman-7a"/>
     </defs>
     <g transform="translate(45.234375 269.1834375)rotate(-90.0)scale(0.12 -0.12)">
      <use xlink:href="#BitstreamVeraSans-Roman-46"/>
      <use x="57.41015625" xlink:href="#BitstreamVeraSans-Roman-72"/>
      <use x="98.4921875" xlink:href="#BitstreamVeraSans-Roman-65"/>
      <use x="160.015625" xlink:href="#BitstreamVeraSans-Roman-71"/>
      <use x="223.4921875" xlink:href="#BitstreamVeraSans-Roman-75"/>
      <use x="286.87109375" xlink:href="#BitstreamVeraSans-Roman-65"/>
      <use x="348.39453125" xlink:href="#BitstreamVeraSans-Roman-6e"/>
      <use x="411.7734375" xlink:href="#BitstreamVeraSans-Roman-63"/>
      <use x="466.75390625" xlink:href="#BitstreamVeraSans-Roman-79"/>
      <use x="525.93359375" xlink:href="#BitstreamVeraSans-Roman-20"/>
      <use x="557.720703125" xlink:href="#BitstreamVeraSans-Roman-28"/>
      <use x="596.734375" xlink:href="#BitstreamVeraSans-Roman-69"/>
      <use x="624.517578125" xlink:href="#BitstreamVeraSans-Roman-6e"/>
      <use x="687.896484375" xlink:href="#BitstreamVeraSans-Roman-20"/>
      <use x="719.68359375" xlink:href="#BitstreamVeraSans-Roman-48"/>
      <use x="794.87890625" xlink:href="#BitstreamVeraSans-Roman-7a"/>
      <use x="847.369140625" xlink:href="#BitstreamVeraSans-Roman-29"/>
     </g>
    </g>
   </g>
   <g id="text_17">
    <!-- FI Curve -->
    <defs>
     <path d="M 2.984375 54.6875 
L 12.5 54.6875 
L 29.59375 8.796875 
L 46.6875 54.6875 
L 56.203125 54.6875 
L 35.6875 0 
L 23.484375 0 
z
" id="BitstreamVeraSans-Roman-76"/>
    </defs>
    <g transform="translate(265.404375 38.2)scale(0.144 -0.144)">
     <use xlink:href="#BitstreamVeraSans-Roman-46"/>
     <use x="57.51953125" xlink:href="#BitstreamVeraSans-Roman-49"/>
     <use x="87.01171875" xlink:href="#BitstreamVeraSans-Roman-20"/>
     <use x="118.798828125" xlink:href="#BitstreamVeraSans-Roman-43"/>
     <use x="188.623046875" xlink:href="#BitstreamVeraSans-Roman-75"/>
     <use x="252.001953125" xlink:href="#BitstreamVeraSans-Roman-72"/>
     <use x="293.115234375" xlink:href="#BitstreamVeraSans-Roman-76"/>
     <use x="352.294921875" xlink:href="#BitstreamVeraSans-Roman-65"/>
    </g>
   </g>
   <g id="legend_1">
    <g id="patch_7">
     <path d="M 82.08 287.2215 
L 211.90275 287.2215 
Q 214.78275 287.2215 214.78275 284.3415 
L 214.78275 53.28 
Q 214.78275 50.4 211.90275 50.4 
L 82.08 50.4 
Q 79.2 50.4 79.2 53.28 
L 79.2 284.3415 
Q 79.2 287.2215 82.08 287.2215 
z
" style="fill:#ffffff;stroke:#000000;stroke-linejoin:miter;"/>
    </g>
    <g id="line2d_40">
     <path d="M 89.28 62.06175 
L 109.44 62.06175 
" style="fill:none;stroke:#ff1e1e;stroke-linecap:square;"/>
    </g>
    <g id="line2d_41"/>
    <g id="text_18">
     <!-- Std: 0.0 -->
     <defs>
      <path d="M 53.515625 70.515625 
L 53.515625 60.890625 
Q 47.90625 63.578125 42.921875 64.890625 
Q 37.9375 66.21875 33.296875 66.21875 
Q 25.25 66.21875 20.875 63.09375 
Q 16.5 59.96875 16.5 54.203125 
Q 16.5 49.359375 19.40625 46.890625 
Q 22.3125 44.4375 30.421875 42.921875 
L 36.375 41.703125 
Q 47.40625 39.59375 52.65625 34.296875 
Q 57.90625 29 57.90625 20.125 
Q 57.90625 9.515625 50.796875 4.046875 
Q 43.703125 -1.421875 29.984375 -1.421875 
Q 24.8125 -1.421875 18.96875 -0.25 
Q 13.140625 0.921875 6.890625 3.21875 
L 6.890625 13.375 
Q 12.890625 10.015625 18.65625 8.296875 
Q 24.421875 6.59375 29.984375 6.59375 
Q 38.421875 6.59375 43.015625 9.90625 
Q 47.609375 13.234375 47.609375 19.390625 
Q 47.609375 24.75 44.3125 27.78125 
Q 41.015625 30.8125 33.5 32.328125 
L 27.484375 33.5 
Q 16.453125 35.6875 11.515625 40.375 
Q 6.59375 45.0625 6.59375 53.421875 
Q 6.59375 63.09375 13.40625 68.65625 
Q 20.21875 74.21875 32.171875 74.21875 
Q 37.3125 74.21875 42.625 73.28125 
Q 47.953125 72.359375 53.515625 70.515625 
" id="BitstreamVeraSans-Roman-53"/>
      <path d="M 10.6875 12.40625 
L 21 12.40625 
L 21 0 
L 10.6875 0 
z
" id="BitstreamVeraSans-Roman-2e"/>
      <path d="M 11.71875 12.40625 
L 22.015625 12.40625 
L 22.015625 0 
L 11.71875 0 
z
M 11.71875 51.703125 
L 22.015625 51.703125 
L 22.015625 39.3125 
L 11.71875 39.3125 
z
" id="BitstreamVeraSans-Roman-3a"/>
      <path d="M 45.40625 46.390625 
L 45.40625 75.984375 
L 54.390625 75.984375 
L 54.390625 0 
L 45.40625 0 
L 45.40625 8.203125 
Q 42.578125 3.328125 38.25 0.953125 
Q 33.9375 -1.421875 27.875 -1.421875 
Q 17.96875 -1.421875 11.734375 6.484375 
Q 5.515625 14.40625 5.515625 27.296875 
Q 5.515625 40.1875 11.734375 48.09375 
Q 17.96875 56 27.875 56 
Q 33.9375 56 38.25 53.625 
Q 42.578125 51.265625 45.40625 46.390625 
M 14.796875 27.296875 
Q 14.796875 17.390625 18.875 11.75 
Q 22.953125 6.109375 30.078125 6.109375 
Q 37.203125 6.109375 41.296875 11.75 
Q 45.40625 17.390625 45.40625 27.296875 
Q 45.40625 37.203125 41.296875 42.84375 
Q 37.203125 48.484375 30.078125 48.484375 
Q 22.953125 48.484375 18.875 42.84375 
Q 14.796875 37.203125 14.796875 27.296875 
" id="BitstreamVeraSans-Roman-64"/>
     </defs>
     <g transform="translate(125.28 67.10175)scale(0.144 -0.144)">
      <use xlink:href="#BitstreamVeraSans-Roman-53"/>
      <use x="63.4765625" xlink:href="#BitstreamVeraSans-Roman-74"/>
      <use x="102.685546875" xlink:href="#BitstreamVeraSans-Roman-64"/>
      <use x="166.162109375" xlink:href="#BitstreamVeraSans-Roman-3a"/>
      <use x="199.853515625" xlink:href="#BitstreamVeraSans-Roman-20"/>
      <use x="231.640625" xlink:href="#BitstreamVeraSans-Roman-30"/>
      <use x="295.263671875" xlink:href="#BitstreamVeraSans-Roman-2e"/>
      <use x="327.05078125" xlink:href="#BitstreamVeraSans-Roman-30"/>
     </g>
    </g>
    <g id="line2d_42">
     <path d="M 89.28 83.19825 
L 109.44 83.19825 
" style="fill:none;stroke:#581845;stroke-linecap:square;"/>
    </g>
    <g id="line2d_43"/>
    <g id="text_19">
     <!-- Std: 100.0 -->
     <g transform="translate(125.28 88.23825)scale(0.144 -0.144)">
      <use xlink:href="#BitstreamVeraSans-Roman-53"/>
      <use x="63.4765625" xlink:href="#BitstreamVeraSans-Roman-74"/>
      <use x="102.685546875" xlink:href="#BitstreamVeraSans-Roman-64"/>
      <use x="166.162109375" xlink:href="#BitstreamVeraSans-Roman-3a"/>
      <use x="199.853515625" xlink:href="#BitstreamVeraSans-Roman-20"/>
      <use x="231.640625" xlink:href="#BitstreamVeraSans-Roman-31"/>
      <use x="295.263671875" xlink:href="#BitstreamVeraSans-Roman-30"/>
      <use x="358.88671875" xlink:href="#BitstreamVeraSans-Roman-30"/>
      <use x="422.509765625" xlink:href="#BitstreamVeraSans-Roman-2e"/>
      <use x="454.296875" xlink:href="#BitstreamVeraSans-Roman-30"/>
     </g>
    </g>
    <g id="line2d_44">
     <path d="M 89.28 104.33475 
L 109.44 104.33475 
" style="fill:none;stroke:#26b7d8;stroke-linecap:square;"/>
    </g>
    <g id="line2d_45"/>
    <g id="text_20">
     <!-- Std: 200.0 -->
     <g transform="translate(125.28 109.37475)scale(0.144 -0.144)">
      <use xlink:href="#BitstreamVeraSans-Roman-53"/>
      <use x="63.4765625" xlink:href="#BitstreamVeraSans-Roman-74"/>
      <use x="102.685546875" xlink:href="#BitstreamVeraSans-Roman-64"/>
      <use x="166.162109375" xlink:href="#BitstreamVeraSans-Roman-3a"/>
      <use x="199.853515625" xlink:href="#BitstreamVeraSans-Roman-20"/>
      <use x="231.640625" xlink:href="#BitstreamVeraSans-Roman-32"/>
      <use x="295.263671875" xlink:href="#BitstreamVeraSans-Roman-30"/>
      <use x="358.88671875" xlink:href="#BitstreamVeraSans-Roman-30"/>
      <use x="422.509765625" xlink:href="#BitstreamVeraSans-Roman-2e"/>
      <use x="454.296875" xlink:href="#BitstreamVeraSans-Roman-30"/>
     </g>
    </g>
    <g id="line2d_46">
     <path d="M 89.28 125.47125 
L 109.44 125.47125 
" style="fill:none;stroke:#8414a4;stroke-linecap:square;"/>
    </g>
    <g id="line2d_47"/>
    <g id="text_21">
     <!-- Std: 300.0 -->
     <g transform="translate(125.28 130.51125)scale(0.144 -0.144)">
      <use xlink:href="#BitstreamVeraSans-Roman-53"/>
      <use x="63.4765625" xlink:href="#BitstreamVeraSans-Roman-74"/>
      <use x="102.685546875" xlink:href="#BitstreamVeraSans-Roman-64"/>
      <use x="166.162109375" xlink:href="#BitstreamVeraSans-Roman-3a"/>
      <use x="199.853515625" xlink:href="#BitstreamVeraSans-Roman-20"/>
      <use x="231.640625" xlink:href="#BitstreamVeraSans-Roman-33"/>
      <use x="295.263671875" xlink:href="#BitstreamVeraSans-Roman-30"/>
      <use x="358.88671875" xlink:href="#BitstreamVeraSans-Roman-30"/>
      <use x="422.509765625" xlink:href="#BitstreamVeraSans-Roman-2e"/>
      <use x="454.296875" xlink:href="#BitstreamVeraSans-Roman-30"/>
     </g>
    </g>
    <g id="line2d_48">
     <path d="M 89.28 146.60775 
L 109.44 146.60775 
" style="fill:none;stroke:#ffd23a;stroke-linecap:square;"/>
    </g>
    <g id="line2d_49"/>
    <g id="text_22">
     <!-- Std: 400.0 -->
     <g transform="translate(125.28 151.64775)scale(0.144 -0.144)">
      <use xlink:href="#BitstreamVeraSans-Roman-53"/>
      <use x="63.4765625" xlink:href="#BitstreamVeraSans-Roman-74"/>
      <use x="102.685546875" xlink:href="#BitstreamVeraSans-Roman-64"/>
      <use x="166.162109375" xlink:href="#BitstreamVeraSans-Roman-3a"/>
      <use x="199.853515625" xlink:href="#BitstreamVeraSans-Roman-20"/>
      <use x="231.640625" xlink:href="#BitstreamVeraSans-Roman-34"/>
      <use x="295.263671875" xlink:href="#BitstreamVeraSans-Roman-30"/>
      <use x="358.88671875" xlink:href="#BitstreamVeraSans-Roman-30"/>
      <use x="422.509765625" xlink:href="#BitstreamVeraSans-Roman-2e"/>
      <use x="454.296875" xlink:href="#BitstreamVeraSans-Roman-30"/>
     </g>
    </g>
    <g id="line2d_50">
     <path d="M 89.28 167.74425 
L 109.44 167.74425 
" style="fill:none;stroke:#ff9300;stroke-linecap:square;"/>
    </g>
    <g id="line2d_51"/>
    <g id="text_23">
     <!-- Std: 500.0 -->
     <g transform="translate(125.28 172.78425)scale(0.144 -0.144)">
      <use xlink:href="#BitstreamVeraSans-Roman-53"/>
      <use x="63.4765625" xlink:href="#BitstreamVeraSans-Roman-74"/>
      <use x="102.685546875" xlink:href="#BitstreamVeraSans-Roman-64"/>
      <use x="166.162109375" xlink:href="#BitstreamVeraSans-Roman-3a"/>
      <use x="199.853515625" xlink:href="#BitstreamVeraSans-Roman-20"/>
      <use x="231.640625" xlink:href="#BitstreamVeraSans-Roman-35"/>
      <use x="295.263671875" xlink:href="#BitstreamVeraSans-Roman-30"/>
      <use x="358.88671875" xlink:href="#BitstreamVeraSans-Roman-30"/>
      <use x="422.509765625" xlink:href="#BitstreamVeraSans-Roman-2e"/>
      <use x="454.296875" xlink:href="#BitstreamVeraSans-Roman-30"/>
     </g>
    </g>
    <g id="line2d_52">
     <path d="M 89.28 188.88075 
L 109.44 188.88075 
" style="fill:none;stroke:#f50fe6;stroke-linecap:square;"/>
    </g>
    <g id="line2d_53"/>
    <g id="text_24">
     <!-- Std: 600.0 -->
     <defs>
      <path d="M 33.015625 40.375 
Q 26.375 40.375 22.484375 35.828125 
Q 18.609375 31.296875 18.609375 23.390625 
Q 18.609375 15.53125 22.484375 10.953125 
Q 26.375 6.390625 33.015625 6.390625 
Q 39.65625 6.390625 43.53125 10.953125 
Q 47.40625 15.53125 47.40625 23.390625 
Q 47.40625 31.296875 43.53125 35.828125 
Q 39.65625 40.375 33.015625 40.375 
M 52.59375 71.296875 
L 52.59375 62.3125 
Q 48.875 64.0625 45.09375 64.984375 
Q 41.3125 65.921875 37.59375 65.921875 
Q 27.828125 65.921875 22.671875 59.328125 
Q 17.53125 52.734375 16.796875 39.40625 
Q 19.671875 43.65625 24.015625 45.921875 
Q 28.375 48.1875 33.59375 48.1875 
Q 44.578125 48.1875 50.953125 41.515625 
Q 57.328125 34.859375 57.328125 23.390625 
Q 57.328125 12.15625 50.6875 5.359375 
Q 44.046875 -1.421875 33.015625 -1.421875 
Q 20.359375 -1.421875 13.671875 8.265625 
Q 6.984375 17.96875 6.984375 36.375 
Q 6.984375 53.65625 15.1875 63.9375 
Q 23.390625 74.21875 37.203125 74.21875 
Q 40.921875 74.21875 44.703125 73.484375 
Q 48.484375 72.75 52.59375 71.296875 
" id="BitstreamVeraSans-Roman-36"/>
     </defs>
     <g transform="translate(125.28 193.92075)scale(0.144 -0.144)">
      <use xlink:href="#BitstreamVeraSans-Roman-53"/>
      <use x="63.4765625" xlink:href="#BitstreamVeraSans-Roman-74"/>
      <use x="102.685546875" xlink:href="#BitstreamVeraSans-Roman-64"/>
      <use x="166.162109375" xlink:href="#BitstreamVeraSans-Roman-3a"/>
      <use x="199.853515625" xlink:href="#BitstreamVeraSans-Roman-20"/>
      <use x="231.640625" xlink:href="#BitstreamVeraSans-Roman-36"/>
      <use x="295.263671875" xlink:href="#BitstreamVeraSans-Roman-30"/>
      <use x="358.88671875" xlink:href="#BitstreamVeraSans-Roman-30"/>
      <use x="422.509765625" xlink:href="#BitstreamVeraSans-Roman-2e"/>
      <use x="454.296875" xlink:href="#BitstreamVeraSans-Roman-30"/>
     </g>
    </g>
    <g id="line2d_54">
     <path d="M 89.28 210.01725 
L 109.44 210.01725 
" style="fill:none;stroke:#1000a0;stroke-linecap:square;"/>
    </g>
    <g id="line2d_55"/>
    <g id="text_25">
     <!-- Std: 700.0 -->
     <defs>
      <path d="M 8.203125 72.90625 
L 55.078125 72.90625 
L 55.078125 68.703125 
L 28.609375 0 
L 18.3125 0 
L 43.21875 64.59375 
L 8.203125 64.59375 
z
" id="BitstreamVeraSans-Roman-37"/>
     </defs>
     <g transform="translate(125.28 215.05725)scale(0.144 -0.144)">
      <use xlink:href="#BitstreamVeraSans-Roman-53"/>
      <use x="63.4765625" xlink:href="#BitstreamVeraSans-Roman-74"/>
      <use x="102.685546875" xlink:href="#BitstreamVeraSans-Roman-64"/>
      <use x="166.162109375" xlink:href="#BitstreamVeraSans-Roman-3a"/>
      <use x="199.853515625" xlink:href="#BitstreamVeraSans-Roman-20"/>
      <use x="231.640625" xlink:href="#BitstreamVeraSans-Roman-37"/>
      <use x="295.263671875" xlink:href="#BitstreamVeraSans-Roman-30"/>
      <use x="358.88671875" xlink:href="#BitstreamVeraSans-Roman-30"/>
      <use x="422.509765625" xlink:href="#BitstreamVeraSans-Roman-2e"/>
      <use x="454.296875" xlink:href="#BitstreamVeraSans-Roman-30"/>
     </g>
    </g>
    <g id="line2d_56">
     <path d="M 89.28 231.15375 
L 109.44 231.15375 
" style="fill:none;stroke:#595866;stroke-linecap:square;"/>
    </g>
    <g id="line2d_57"/>
    <g id="text_26">
     <!-- Std: 800.0 -->
     <defs>
      <path d="M 31.78125 34.625 
Q 24.75 34.625 20.71875 30.859375 
Q 16.703125 27.09375 16.703125 20.515625 
Q 16.703125 13.921875 20.71875 10.15625 
Q 24.75 6.390625 31.78125 6.390625 
Q 38.8125 6.390625 42.859375 10.171875 
Q 46.921875 13.96875 46.921875 20.515625 
Q 46.921875 27.09375 42.890625 30.859375 
Q 38.875 34.625 31.78125 34.625 
M 21.921875 38.8125 
Q 15.578125 40.375 12.03125 44.71875 
Q 8.5 49.078125 8.5 55.328125 
Q 8.5 64.0625 14.71875 69.140625 
Q 20.953125 74.21875 31.78125 74.21875 
Q 42.671875 74.21875 48.875 69.140625 
Q 55.078125 64.0625 55.078125 55.328125 
Q 55.078125 49.078125 51.53125 44.71875 
Q 48 40.375 41.703125 38.8125 
Q 48.828125 37.15625 52.796875 32.3125 
Q 56.78125 27.484375 56.78125 20.515625 
Q 56.78125 9.90625 50.3125 4.234375 
Q 43.84375 -1.421875 31.78125 -1.421875 
Q 19.734375 -1.421875 13.25 4.234375 
Q 6.78125 9.90625 6.78125 20.515625 
Q 6.78125 27.484375 10.78125 32.3125 
Q 14.796875 37.15625 21.921875 38.8125 
M 18.3125 54.390625 
Q 18.3125 48.734375 21.84375 45.5625 
Q 25.390625 42.390625 31.78125 42.390625 
Q 38.140625 42.390625 41.71875 45.5625 
Q 45.3125 48.734375 45.3125 54.390625 
Q 45.3125 60.0625 41.71875 63.234375 
Q 38.140625 66.40625 31.78125 66.40625 
Q 25.390625 66.40625 21.84375 63.234375 
Q 18.3125 60.0625 18.3125 54.390625 
" id="BitstreamVeraSans-Roman-38"/>
     </defs>
     <g transform="translate(125.28 236.19375)scale(0.144 -0.144)">
      <use xlink:href="#BitstreamVeraSans-Roman-53"/>
      <use x="63.4765625" xlink:href="#BitstreamVeraSans-Roman-74"/>
      <use x="102.685546875" xlink:href="#BitstreamVeraSans-Roman-64"/>
      <use x="166.162109375" xlink:href="#BitstreamVeraSans-Roman-3a"/>
      <use x="199.853515625" xlink:href="#BitstreamVeraSans-Roman-20"/>
      <use x="231.640625" xlink:href="#BitstreamVeraSans-Roman-38"/>
      <use x="295.263671875" xlink:href="#BitstreamVeraSans-Roman-30"/>
      <use x="358.88671875" xlink:href="#BitstreamVeraSans-Roman-30"/>
      <use x="422.509765625" xlink:href="#BitstreamVeraSans-Roman-2e"/>
      <use x="454.296875" xlink:href="#BitstreamVeraSans-Roman-30"/>
     </g>
    </g>
    <g id="line2d_58">
     <path d="M 89.28 252.29025 
L 109.44 252.29025 
" style="fill:none;stroke:#147f2a;stroke-linecap:square;"/>
    </g>
    <g id="line2d_59"/>
    <g id="text_27">
     <!-- Std: 900.0 -->
     <defs>
      <path d="M 10.984375 1.515625 
L 10.984375 10.5 
Q 14.703125 8.734375 18.5 7.8125 
Q 22.3125 6.890625 25.984375 6.890625 
Q 35.75 6.890625 40.890625 13.453125 
Q 46.046875 20.015625 46.78125 33.40625 
Q 43.953125 29.203125 39.59375 26.953125 
Q 35.25 24.703125 29.984375 24.703125 
Q 19.046875 24.703125 12.671875 31.3125 
Q 6.296875 37.9375 6.296875 49.421875 
Q 6.296875 60.640625 12.9375 67.421875 
Q 19.578125 74.21875 30.609375 74.21875 
Q 43.265625 74.21875 49.921875 64.515625 
Q 56.59375 54.828125 56.59375 36.375 
Q 56.59375 19.140625 48.40625 8.859375 
Q 40.234375 -1.421875 26.421875 -1.421875 
Q 22.703125 -1.421875 18.890625 -0.6875 
Q 15.09375 0.046875 10.984375 1.515625 
M 30.609375 32.421875 
Q 37.25 32.421875 41.125 36.953125 
Q 45.015625 41.5 45.015625 49.421875 
Q 45.015625 57.28125 41.125 61.84375 
Q 37.25 66.40625 30.609375 66.40625 
Q 23.96875 66.40625 20.09375 61.84375 
Q 16.21875 57.28125 16.21875 49.421875 
Q 16.21875 41.5 20.09375 36.953125 
Q 23.96875 32.421875 30.609375 32.421875 
" id="BitstreamVeraSans-Roman-39"/>
     </defs>
     <g transform="translate(125.28 257.33025)scale(0.144 -0.144)">
      <use xlink:href="#BitstreamVeraSans-Roman-53"/>
      <use x="63.4765625" xlink:href="#BitstreamVeraSans-Roman-74"/>
      <use x="102.685546875" xlink:href="#BitstreamVeraSans-Roman-64"/>
      <use x="166.162109375" xlink:href="#BitstreamVeraSans-Roman-3a"/>
      <use x="199.853515625" xlink:href="#BitstreamVeraSans-Roman-20"/>
      <use x="231.640625" xlink:href="#BitstreamVeraSans-Roman-39"/>
      <use x="295.263671875" xlink:href="#BitstreamVeraSans-Roman-30"/>
      <use x="358.88671875" xlink:href="#BitstreamVeraSans-Roman-30"/>
      <use x="422.509765625" xlink:href="#BitstreamVeraSans-Roman-2e"/>
      <use x="454.296875" xlink:href="#BitstreamVeraSans-Roman-30"/>
     </g>
    </g>
    <g id="line2d_60">
     <path d="M 89.28 273.42675 
L 109.44 273.42675 
" style="fill:none;stroke:#00f6aa;stroke-linecap:square;"/>
    </g>
    <g id="line2d_61"/>
    <g id="text_28">
     <!-- Std: 1000.0 -->
     <g transform="translate(125.28 278.46675)scale(0.144 -0.144)">
      <use xlink:href="#BitstreamVeraSans-Roman-53"/>
      <use x="63.4765625" xlink:href="#BitstreamVeraSans-Roman-74"/>
      <use x="102.685546875" xlink:href="#BitstreamVeraSans-Roman-64"/>
      <use x="166.162109375" xlink:href="#BitstreamVeraSans-Roman-3a"/>
      <use x="199.853515625" xlink:href="#BitstreamVeraSans-Roman-20"/>
      <use x="231.640625" xlink:href="#BitstreamVeraSans-Roman-31"/>
      <use x="295.263671875" xlink:href="#BitstreamVeraSans-Roman-30"/>
      <use x="358.88671875" xlink:href="#BitstreamVeraSans-Roman-30"/>
      <use x="422.509765625" xlink:href="#BitstreamVeraSans-Roman-30"/>
      <use x="486.1328125" xlink:href="#BitstreamVeraSans-Roman-2e"/>
      <use x="517.919921875" xlink:href="#BitstreamVeraSans-Roman-30"/>
     </g>
    </g>
   </g>
  </g>
 </g>
 <defs>
  <clipPath id="p2eff86b95a">
   <rect height="345.6" width="446.4" x="72.0" y="43.2"/>
  </clipPath>
 </defs>
</svg>
