<?xml version="1.0" encoding="utf-8" standalone="no"?>
<!DOCTYPE svg PUBLIC "-//W3C//DTD SVG 1.1//EN"
  "http://www.w3.org/Graphics/SVG/1.1/DTD/svg11.dtd">
<!-- Created with matplotlib (http://matplotlib.org/) -->
<svg height="747pt" version="1.1" viewBox="0 0 1512 747" width="1512pt" xmlns="http://www.w3.org/2000/svg" xmlns:xlink="http://www.w3.org/1999/xlink">
 <defs>
  <style type="text/css">
*{stroke-linecap:butt;stroke-linejoin:round;stroke-miterlimit:100000;}
  </style>
 </defs>
 <g id="figure_1">
  <g id="patch_1">
   <path d="M 0 747 
L 1512 747 
L 1512 0 
L 0 0 
z
" style="fill:#ffffff;"/>
  </g>
  <g id="axes_1">
   <g id="patch_2">
    <path d="M 189 672.3 
L 1360.8 672.3 
L 1360.8 74.7 
L 189 74.7 
z
" style="fill:#ffffff;"/>
   </g>
   <g id="line2d_1">
    <path clip-path="url(#p4d31dda0ef)" d="M 189 672.3 
L 208.53 672.3 
L 228.06 672.3 
L 247.59 672.3 
L 267.12 672.3 
L 286.65 672.3 
L 306.18 672.3 
L 325.71 672.3 
L 345.24 672.3 
L 364.77 672.3 
L 384.3 672.3 
L 403.83 672.3 
L 423.36 672.3 
L 442.89 672.3 
L 462.42 672.3 
L 481.95 672.3 
L 501.48 672.3 
L 521.01 672.3 
L 540.54 672.3 
L 560.07 672.3 
L 579.6 672.3 
L 599.13 672.3 
L 618.66 672.3 
L 638.19 672.3 
L 657.72 672.3 
L 677.25 672.3 
L 696.78 672.3 
L 716.31 672.3 
L 735.84 672.3 
L 755.37 672.3 
L 774.9 672.3 
L 794.43 672.3 
L 813.96 672.3 
L 833.49 672.3 
L 853.02 672.3 
L 872.55 672.3 
L 892.08 672.3 
L 911.61 672.3 
L 931.14 672.3 
L 950.67 672.3 
L 970.2 604.110639 
L 989.73 557.555481 
L 1009.26 518.997702 
L 1028.79 484.319977 
L 1048.32 452.172165 
L 1067.85 421.907397 
L 1087.38 393.151693 
L 1106.91 365.662262 
L 1126.44 339.268367 
L 1145.97 313.842959 
L 1165.5 289.287337 
L 1185.03 265.522207 
L 1204.56 242.482219 
L 1224.09 220.112378 
L 1243.62 198.365589 
L 1263.15 177.200971 
L 1282.68 156.582595 
L 1302.21 136.47858 
L 1321.74 116.860391 
L 1341.27 97.7023 
L 1360.8 78.980961 
" style="fill:none;stroke:#ff1e1e;stroke-linecap:square;"/>
   </g>
   <g id="line2d_2">
    <path clip-path="url(#p4d31dda0ef)" d="M 189 672.3 
L 208.53 672.3 
L 228.06 672.3 
L 247.59 672.3 
L 267.12 672.3 
L 286.65 672.3 
L 306.18 672.3 
L 325.71 672.3 
L 345.24 672.3 
L 364.77 672.3 
L 384.3 672.3 
L 403.83 672.3 
L 423.36 672.3 
L 442.89 672.3 
L 462.42 672.3 
L 481.95 672.3 
L 501.48 672.3 
L 521.01 672.3 
L 540.54 672.3 
L 560.07 672.3 
L 579.6 672.3 
L 599.13 672.3 
L 618.66 672.3 
L 638.19 672.3 
L 657.72 672.3 
L 677.25 672.3 
L 696.78 672.3 
L 716.31 672.3 
L 735.84 672.3 
L 755.37 672.3 
L 774.9 672.3 
L 794.43 672.3 
L 813.96 672.3 
L 833.49 672.3 
L 853.02 671.909678 
L 872.55 671.175102 
L 892.08 668.155531 
L 911.61 659.742024 
L 931.14 642.228001 
L 950.67 615.1444 
L 970.2 582.735158 
L 989.73 550.476693 
L 1009.26 518.690302 
L 1028.79 485.714769 
L 1048.32 455.307352 
L 1067.85 426.088525 
L 1087.38 398.230338 
L 1106.91 371.006983 
L 1126.44 345.450338 
L 1145.97 319.342942 
L 1165.5 295.470783 
L 1185.03 272.296157 
L 1204.56 249.107477 
L 1224.09 226.567995 
L 1243.62 204.73637 
L 1263.15 183.079586 
L 1282.68 162.925889 
L 1302.21 142.34384 
L 1321.74 123.122578 
L 1341.27 104.21692 
L 1360.8 84.603861 
" style="fill:none;stroke:#581845;stroke-linecap:square;"/>
   </g>
   <g id="line2d_3">
    <path clip-path="url(#p4d31dda0ef)" d="M 189 672.3 
L 208.53 672.3 
L 228.06 672.3 
L 247.59 672.3 
L 267.12 672.3 
L 286.65 672.3 
L 306.18 672.3 
L 325.71 672.3 
L 345.24 672.3 
L 364.77 672.3 
L 384.3 672.3 
L 403.83 672.3 
L 423.36 672.3 
L 442.89 672.3 
L 462.42 672.3 
L 481.95 672.3 
L 501.48 672.3 
L 521.01 672.3 
L 540.54 672.3 
L 560.07 672.3 
L 579.6 672.3 
L 599.13 672.3 
L 618.66 672.3 
L 638.19 671.300193 
L 657.72 671.299997 
L 677.25 671.60743 
L 696.78 671.968263 
L 716.31 671.696926 
L 735.84 670.883577 
L 755.37 669.979812 
L 774.9 668.737851 
L 794.43 666.248521 
L 813.96 662.729222 
L 833.49 656.484977 
L 853.02 648.791149 
L 872.55 637.549742 
L 892.08 624.557616 
L 911.61 607.261862 
L 931.14 588.248645 
L 950.67 567.251538 
L 970.2 544.107458 
L 989.73 519.325477 
L 1009.26 495.771608 
L 1028.79 471.258289 
L 1048.32 446.236184 
L 1067.85 423.052741 
L 1087.38 397.093145 
L 1106.91 372.690138 
L 1126.44 349.677301 
L 1145.97 325.550365 
L 1165.5 302.732598 
L 1185.03 281.345508 
L 1204.56 258.868062 
L 1224.09 236.595382 
L 1243.62 216.072331 
L 1263.15 196.034697 
L 1282.68 173.537874 
L 1302.21 155.311473 
L 1321.74 134.453439 
L 1341.27 115.924327 
L 1360.8 98.508081 
" style="fill:none;stroke:#26b7d8;stroke-linecap:square;"/>
   </g>
   <g id="line2d_4">
    <path clip-path="url(#p4d31dda0ef)" d="M 189 672.3 
L 208.53 672.3 
L 228.06 672.3 
L 247.59 672.3 
L 267.12 672.3 
L 286.65 672.3 
L 306.18 672.3 
L 325.71 672.3 
L 345.24 672.3 
L 364.77 672.3 
L 384.3 672.3 
L 403.83 672.3 
L 423.36 672.3 
L 442.89 669.71665 
L 462.42 669.716157 
L 481.95 671.46303 
L 501.48 671.46306 
L 521.01 671.794051 
L 540.54 671.681345 
L 560.07 671.372014 
L 579.6 671.151063 
L 599.13 670.709159 
L 618.66 669.709035 
L 638.19 668.697304 
L 657.72 667.539383 
L 677.25 665.566536 
L 696.78 662.993257 
L 716.31 660.123449 
L 735.84 655.793633 
L 755.37 650.321451 
L 774.9 643.938477 
L 794.43 636.764379 
L 813.96 629.186776 
L 833.49 618.914269 
L 853.02 608.322684 
L 872.55 596.535446 
L 892.08 581.801691 
L 911.61 565.615374 
L 931.14 548.960231 
L 950.67 532.049139 
L 970.2 512.70723 
L 989.73 492.824638 
L 1009.26 473.167763 
L 1028.79 453.143645 
L 1048.32 432.30929 
L 1067.85 411.995407 
L 1087.38 389.670104 
L 1106.91 370.546805 
L 1126.44 350.951883 
L 1145.97 330.797161 
L 1165.5 309.477383 
L 1185.03 289.30682 
L 1204.56 267.450857 
L 1224.09 248.143557 
L 1243.62 228.763827 
L 1263.15 210.66979 
L 1282.68 190.690646 
L 1302.21 170.881835 
L 1321.74 152.657544 
L 1341.27 133.791375 
L 1360.8 115.8888 
" style="fill:none;stroke:#8414a4;stroke-linecap:square;"/>
   </g>
   <g id="line2d_5">
    <path clip-path="url(#p4d31dda0ef)" d="M 189 672.3 
L 208.53 672.173084 
L 228.06 672.173084 
L 247.59 672.173084 
L 267.12 672.173084 
L 286.65 672.109627 
L 306.18 672.064815 
L 325.71 672.028066 
L 345.24 671.912922 
L 364.77 671.605258 
L 384.3 671.466306 
L 403.83 671.287407 
L 423.36 670.965222 
L 442.89 670.499974 
L 462.42 670.11802 
L 481.95 669.271939 
L 501.48 668.203216 
L 521.01 667.490742 
L 540.54 666.243934 
L 560.07 664.106523 
L 579.6 662.357146 
L 599.13 660.269458 
L 618.66 657.629673 
L 638.19 653.518545 
L 657.72 648.914312 
L 677.25 644.35408 
L 696.78 638.980616 
L 716.31 633.198644 
L 735.84 626.16534 
L 755.37 618.658128 
L 774.9 608.565088 
L 794.43 598.190204 
L 813.96 587.639031 
L 833.49 577.173758 
L 853.02 565.683437 
L 872.55 553.210554 
L 892.08 539.840698 
L 911.61 526.428181 
L 931.14 510.623639 
L 950.67 494.434688 
L 970.2 478.020094 
L 989.73 460.758476 
L 1009.26 442.265104 
L 1028.79 425.141627 
L 1048.32 407.592149 
L 1067.85 391.073359 
L 1087.38 371.733954 
L 1106.91 353.973945 
L 1126.44 336.652411 
L 1145.97 318.597402 
L 1165.5 301.094915 
L 1185.03 283.634514 
L 1204.56 264.850637 
L 1224.09 245.425257 
L 1243.62 226.999253 
L 1263.15 209.818609 
L 1282.68 192.583069 
L 1302.21 175.760619 
L 1321.74 158.477632 
L 1341.27 142.041798 
L 1360.8 124.614463 
" style="fill:none;stroke:#ffd23a;stroke-linecap:square;"/>
   </g>
   <g id="line2d_6">
    <path clip-path="url(#p4d31dda0ef)" d="M 189 671.923135 
L 208.53 671.860325 
L 228.06 671.661374 
L 247.59 671.317522 
L 267.12 670.973658 
L 286.65 670.629793 
L 306.18 670.315317 
L 325.71 669.864241 
L 345.24 669.372227 
L 364.77 668.568888 
L 384.3 667.603161 
L 403.83 666.747758 
L 423.36 665.435627 
L 442.89 663.934055 
L 462.42 662.046384 
L 481.95 659.815494 
L 501.48 657.713292 
L 521.01 655.053366 
L 540.54 651.449602 
L 560.07 648.017481 
L 579.6 643.003411 
L 599.13 639.02035 
L 618.66 634.651671 
L 638.19 628.354632 
L 657.72 622.321655 
L 677.25 615.261421 
L 696.78 607.69665 
L 716.31 598.75402 
L 735.84 590.151396 
L 755.37 580.649888 
L 774.9 571.891584 
L 794.43 560.696688 
L 813.96 550.740989 
L 833.49 539.11912 
L 853.02 527.796421 
L 872.55 514.166369 
L 892.08 502.20697 
L 911.61 489.311437 
L 931.14 475.218984 
L 950.67 461.596282 
L 970.2 446.874103 
L 989.73 431.339579 
L 1009.26 416.908933 
L 1028.79 401.154521 
L 1048.32 386.168453 
L 1067.85 370.451408 
L 1087.38 355.166826 
L 1106.91 338.006522 
L 1126.44 322.765114 
L 1145.97 306.756051 
L 1165.5 291.985327 
L 1185.03 274.866714 
L 1204.56 258.346022 
L 1224.09 242.893311 
L 1243.62 226.358073 
L 1263.15 209.947853 
L 1282.68 194.066543 
L 1302.21 176.138372 
L 1321.74 160.385527 
L 1341.27 144.292574 
L 1360.8 127.689638 
" style="fill:none;stroke:#ff9300;stroke-linecap:square;"/>
   </g>
   <g id="line2d_7">
    <path clip-path="url(#p4d31dda0ef)" d="M 189 668.787011 
L 208.53 668.093072 
L 228.06 667.529248 
L 247.59 666.618455 
L 267.12 665.664287 
L 286.65 664.363156 
L 306.18 663.270766 
L 325.71 661.801714 
L 345.24 659.859675 
L 364.77 657.276819 
L 384.3 654.950847 
L 403.83 652.884346 
L 423.36 649.440294 
L 442.89 646.903044 
L 462.42 643.734219 
L 481.95 640.051047 
L 501.48 636.607545 
L 521.01 631.942797 
L 540.54 626.208049 
L 560.07 620.687339 
L 579.6 615.466336 
L 599.13 609.43265 
L 618.66 602.896478 
L 638.19 596.607048 
L 657.72 590.029241 
L 677.25 582.981585 
L 696.78 574.764624 
L 716.31 566.607339 
L 735.84 557.571511 
L 755.37 548.519843 
L 774.9 539.638739 
L 794.43 528.878678 
L 813.96 518.715021 
L 833.49 507.314422 
L 853.02 496.383659 
L 872.55 486.392415 
L 892.08 474.949552 
L 911.61 462.866234 
L 931.14 451.039113 
L 950.67 438.187281 
L 970.2 425.976001 
L 989.73 410.049956 
L 1009.26 397.155446 
L 1028.79 384.04747 
L 1048.32 369.65866 
L 1067.85 356.231923 
L 1087.38 341.981964 
L 1106.91 328.209816 
L 1126.44 312.330454 
L 1145.97 297.903024 
L 1165.5 282.533919 
L 1185.03 267.677237 
L 1204.56 252.735234 
L 1224.09 238.007194 
L 1243.62 223.833652 
L 1263.15 208.165671 
L 1282.68 193.095664 
L 1302.21 179.050153 
L 1321.74 162.655817 
L 1341.27 149.636054 
L 1360.8 135.633325 
" style="fill:none;stroke:#f50fe6;stroke-linecap:square;"/>
   </g>
   <g id="line2d_8">
    <path clip-path="url(#p4d31dda0ef)" d="M 189 661.729546 
L 208.53 660.439263 
L 228.06 658.512396 
L 247.59 656.67111 
L 267.12 654.401592 
L 286.65 652.132045 
L 306.18 650.119533 
L 325.71 647.207849 
L 345.24 644.039245 
L 364.77 640.913478 
L 384.3 637.598675 
L 403.83 633.961787 
L 423.36 630.068174 
L 442.89 625.746638 
L 462.42 621.68186 
L 481.95 616.893722 
L 501.48 610.841284 
L 521.01 606.096809 
L 540.54 600.925328 
L 560.07 594.642627 
L 579.6 588.274435 
L 599.13 582.333589 
L 618.66 574.725945 
L 638.19 567.075607 
L 657.72 559.681707 
L 677.25 551.304779 
L 696.78 542.834273 
L 716.31 534.331326 
L 735.84 524.077651 
L 755.37 514.763516 
L 774.9 506.30398 
L 794.43 494.896059 
L 813.96 485.434598 
L 833.49 474.936993 
L 853.02 463.239258 
L 872.55 452.263484 
L 892.08 440.305305 
L 911.61 428.219049 
L 931.14 416.303792 
L 950.67 403.278211 
L 970.2 390.935865 
L 989.73 377.613168 
L 1009.26 365.18062 
L 1028.79 352.703231 
L 1048.32 340.248162 
L 1067.85 327.693231 
L 1087.38 314.748683 
L 1106.91 302.409274 
L 1126.44 288.833858 
L 1145.97 276.23965 
L 1165.5 262.109647 
L 1185.03 249.007564 
L 1204.56 235.816357 
L 1224.09 222.584039 
L 1243.62 209.520558 
L 1263.15 194.751794 
L 1282.68 181.176283 
L 1302.21 167.944404 
L 1321.74 154.793457 
L 1341.27 140.738755 
L 1360.8 127.503809 
" style="fill:none;stroke:#1000a0;stroke-linecap:square;"/>
   </g>
   <g id="line2d_9">
    <path clip-path="url(#p4d31dda0ef)" d="M 189 650.788736 
L 208.53 648.551549 
L 228.06 646.400396 
L 247.59 644.24925 
L 267.12 641.921928 
L 286.65 638.622674 
L 306.18 634.209439 
L 325.71 630.372951 
L 345.24 626.904198 
L 364.77 623.329951 
L 384.3 619.352539 
L 403.83 614.905776 
L 423.36 610.212123 
L 442.89 604.439723 
L 462.42 599.137534 
L 481.95 594.091894 
L 501.48 587.677924 
L 521.01 581.606052 
L 540.54 576.09009 
L 560.07 568.99206 
L 579.6 562.963836 
L 599.13 554.754202 
L 618.66 547.785018 
L 638.19 539.452087 
L 657.72 531.759118 
L 677.25 524.659402 
L 696.78 516.525056 
L 716.31 507.384418 
L 735.84 497.987831 
L 755.37 488.547312 
L 774.9 479.704426 
L 794.43 470.648903 
L 813.96 461.379985 
L 833.49 451.641267 
L 853.02 441.902583 
L 872.55 431.395062 
L 892.08 421.271998 
L 911.61 409.653969 
L 931.14 399.146481 
L 950.67 387.656567 
L 970.2 376.892788 
L 989.73 364.292228 
L 1009.26 352.290923 
L 1028.79 340.20422 
L 1048.32 329.270319 
L 1067.85 317.530776 
L 1087.38 305.37523 
L 1106.91 293.132968 
L 1126.44 281.517632 
L 1145.97 268.498845 
L 1165.5 254.240976 
L 1185.03 243.44083 
L 1204.56 230.079284 
L 1224.09 217.656969 
L 1243.62 205.789601 
L 1263.15 192.855031 
L 1282.68 181.841404 
L 1302.21 170.272782 
L 1321.74 156.655028 
L 1341.27 143.378784 
L 1360.8 129.547498 
" style="fill:none;stroke:#595866;stroke-linecap:square;"/>
   </g>
   <g id="line2d_10">
    <path clip-path="url(#p4d31dda0ef)" d="M 189 635.628072 
L 208.53 633.69342 
L 228.06 630.824487 
L 247.59 626.701565 
L 267.12 622.585928 
L 286.65 618.731719 
L 306.18 614.492346 
L 325.71 609.661378 
L 345.24 605.980265 
L 364.77 601.966522 
L 384.3 597.217819 
L 403.83 592.698581 
L 423.36 587.272035 
L 442.89 581.972511 
L 462.42 576.118315 
L 481.95 570.221688 
L 501.48 562.957786 
L 521.01 556.54846 
L 540.54 550.780038 
L 560.07 543.943257 
L 579.6 536.380892 
L 599.13 529.202701 
L 618.66 521.468937 
L 638.19 513.991516 
L 657.72 506.343204 
L 677.25 497.455764 
L 696.78 490.645317 
L 716.31 480.701005 
L 735.84 472.469882 
L 755.37 463.736442 
L 774.9 453.931984 
L 794.43 443.891533 
L 813.96 435.602831 
L 833.49 426.203332 
L 853.02 415.607626 
L 872.55 406.550032 
L 892.08 396.253302 
L 911.61 386.298253 
L 931.14 376.255658 
L 950.67 364.112592 
L 970.2 353.962765 
L 989.73 341.924706 
L 1009.26 332.020981 
L 1028.79 321.391005 
L 1048.32 310.419817 
L 1067.85 300.729474 
L 1087.38 288.477556 
L 1106.91 276.610522 
L 1126.44 266.450469 
L 1145.97 255.13753 
L 1165.5 242.800427 
L 1185.03 231.829191 
L 1204.56 220.389808 
L 1224.09 207.26464 
L 1243.62 194.825209 
L 1263.15 183.459739 
L 1282.68 171.440604 
L 1302.21 160.470167 
L 1321.74 148.561285 
L 1341.27 136.823372 
L 1360.8 125.083353 
" style="fill:none;stroke:#147f2a;stroke-linecap:square;"/>
   </g>
   <g id="line2d_11">
    <path clip-path="url(#p4d31dda0ef)" d="M 189 620.462322 
L 208.53 616.875001 
L 228.06 612.60501 
L 247.59 608.420414 
L 267.12 604.278521 
L 286.65 599.49614 
L 306.18 594.884473 
L 325.71 589.80831 
L 345.24 584.852133 
L 364.77 579.429151 
L 384.3 573.493839 
L 403.83 568.156282 
L 423.36 562.776058 
L 442.89 556.413799 
L 462.42 549.966144 
L 481.95 543.689333 
L 501.48 536.772188 
L 521.01 530.196846 
L 540.54 524.236695 
L 560.07 515.867867 
L 579.6 509.079091 
L 599.13 501.436503 
L 618.66 493.580272 
L 638.19 485.55306 
L 657.72 477.655085 
L 677.25 469.970358 
L 696.78 461.687712 
L 716.31 452.3378 
L 735.84 443.585736 
L 755.37 435.21779 
L 774.9 426.124047 
L 794.43 417.499958 
L 813.96 407.210839 
L 833.49 398.885576 
L 853.02 388.297303 
L 872.55 378.862974 
L 892.08 369.854527 
L 911.61 359.010319 
L 931.14 347.909957 
L 950.67 337.79156 
L 970.2 327.587708 
L 989.73 316.529896 
L 1009.26 306.795536 
L 1028.79 296.548442 
L 1048.32 285.18961 
L 1067.85 276.315144 
L 1087.38 265.513113 
L 1106.91 254.883083 
L 1126.44 244.722834 
L 1145.97 233.110604 
L 1165.5 222.949913 
L 1185.03 212.874494 
L 1204.56 202.286295 
L 1224.09 189.776959 
L 1243.62 179.360073 
L 1263.15 169.497852 
L 1282.68 157.842496 
L 1302.21 147.254425 
L 1321.74 135.727187 
L 1341.27 123.47407 
L 1360.8 112.715407 
" style="fill:none;stroke:#00f6aa;stroke-linecap:square;"/>
   </g>
   <g id="patch_3">
    <path d="M 189 672.3 
L 1360.8 672.3 
" style="fill:none;stroke:#000000;stroke-linecap:square;stroke-linejoin:miter;"/>
   </g>
   <g id="patch_4">
    <path d="M 1360.8 672.3 
L 1360.8 74.7 
" style="fill:none;stroke:#000000;stroke-linecap:square;stroke-linejoin:miter;"/>
   </g>
   <g id="patch_5">
    <path d="M 189 74.7 
L 1360.8 74.7 
" style="fill:none;stroke:#000000;stroke-linecap:square;stroke-linejoin:miter;"/>
   </g>
   <g id="patch_6">
    <path d="M 189 672.3 
L 189 74.7 
" style="fill:none;stroke:#000000;stroke-linecap:square;stroke-linejoin:miter;"/>
   </g>
   <g id="matplotlib.axis_1">
    <g id="xtick_1">
     <g id="line2d_12">
      <defs>
       <path d="M 0 0 
L 0 -4 
" id="m8ca549b7c9" style="stroke:#000000;stroke-width:0.5;"/>
      </defs>
      <g>
       <use style="stroke:#000000;stroke-width:0.5;" x="189.0" xlink:href="#m8ca549b7c9" y="672.3"/>
      </g>
     </g>
     <g id="line2d_13">
      <defs>
       <path d="M 0 0 
L 0 4 
" id="m5805da60bb" style="stroke:#000000;stroke-width:0.5;"/>
      </defs>
      <g>
       <use style="stroke:#000000;stroke-width:0.5;" x="189.0" xlink:href="#m5805da60bb" y="74.7"/>
      </g>
     </g>
     <g id="text_1">
      <!-- −400 -->
      <defs>
       <path d="M 10.59375 35.5 
L 73.1875 35.5 
L 73.1875 27.203125 
L 10.59375 27.203125 
z
" id="BitstreamVeraSans-Roman-2212"/>
       <path d="M 37.796875 64.3125 
L 12.890625 25.390625 
L 37.796875 25.390625 
z
M 35.203125 72.90625 
L 47.609375 72.90625 
L 47.609375 25.390625 
L 58.015625 25.390625 
L 58.015625 17.1875 
L 47.609375 17.1875 
L 47.609375 0 
L 37.796875 0 
L 37.796875 17.1875 
L 4.890625 17.1875 
L 4.890625 26.703125 
z
" id="BitstreamVeraSans-Roman-34"/>
       <path d="M 31.78125 66.40625 
Q 24.171875 66.40625 20.328125 58.90625 
Q 16.5 51.421875 16.5 36.375 
Q 16.5 21.390625 20.328125 13.890625 
Q 24.171875 6.390625 31.78125 6.390625 
Q 39.453125 6.390625 43.28125 13.890625 
Q 47.125 21.390625 47.125 36.375 
Q 47.125 51.421875 43.28125 58.90625 
Q 39.453125 66.40625 31.78125 66.40625 
M 31.78125 74.21875 
Q 44.046875 74.21875 50.515625 64.515625 
Q 56.984375 54.828125 56.984375 36.375 
Q 56.984375 17.96875 50.515625 8.265625 
Q 44.046875 -1.421875 31.78125 -1.421875 
Q 19.53125 -1.421875 13.0625 8.265625 
Q 6.59375 17.96875 6.59375 36.375 
Q 6.59375 54.828125 13.0625 64.515625 
Q 19.53125 74.21875 31.78125 74.21875 
" id="BitstreamVeraSans-Roman-30"/>
      </defs>
      <g transform="translate(172.5196875 685.418125)scale(0.12 -0.12)">
       <use xlink:href="#BitstreamVeraSans-Roman-2212"/>
       <use x="83.7890625" xlink:href="#BitstreamVeraSans-Roman-34"/>
       <use x="147.412109375" xlink:href="#BitstreamVeraSans-Roman-30"/>
       <use x="211.03515625" xlink:href="#BitstreamVeraSans-Roman-30"/>
      </g>
     </g>
    </g>
    <g id="xtick_2">
     <g id="line2d_14">
      <g>
       <use style="stroke:#000000;stroke-width:0.5;" x="384.3" xlink:href="#m8ca549b7c9" y="672.3"/>
      </g>
     </g>
     <g id="line2d_15">
      <g>
       <use style="stroke:#000000;stroke-width:0.5;" x="384.3" xlink:href="#m5805da60bb" y="74.7"/>
      </g>
     </g>
     <g id="text_2">
      <!-- −300 -->
      <defs>
       <path d="M 40.578125 39.3125 
Q 47.65625 37.796875 51.625 33 
Q 55.609375 28.21875 55.609375 21.1875 
Q 55.609375 10.40625 48.1875 4.484375 
Q 40.765625 -1.421875 27.09375 -1.421875 
Q 22.515625 -1.421875 17.65625 -0.515625 
Q 12.796875 0.390625 7.625 2.203125 
L 7.625 11.71875 
Q 11.71875 9.328125 16.59375 8.109375 
Q 21.484375 6.890625 26.8125 6.890625 
Q 36.078125 6.890625 40.9375 10.546875 
Q 45.796875 14.203125 45.796875 21.1875 
Q 45.796875 27.640625 41.28125 31.265625 
Q 36.765625 34.90625 28.71875 34.90625 
L 20.21875 34.90625 
L 20.21875 43.015625 
L 29.109375 43.015625 
Q 36.375 43.015625 40.234375 45.921875 
Q 44.09375 48.828125 44.09375 54.296875 
Q 44.09375 59.90625 40.109375 62.90625 
Q 36.140625 65.921875 28.71875 65.921875 
Q 24.65625 65.921875 20.015625 65.03125 
Q 15.375 64.15625 9.8125 62.3125 
L 9.8125 71.09375 
Q 15.4375 72.65625 20.34375 73.4375 
Q 25.25 74.21875 29.59375 74.21875 
Q 40.828125 74.21875 47.359375 69.109375 
Q 53.90625 64.015625 53.90625 55.328125 
Q 53.90625 49.265625 50.4375 45.09375 
Q 46.96875 40.921875 40.578125 39.3125 
" id="BitstreamVeraSans-Roman-33"/>
      </defs>
      <g transform="translate(367.8196875 685.418125)scale(0.12 -0.12)">
       <use xlink:href="#BitstreamVeraSans-Roman-2212"/>
       <use x="83.7890625" xlink:href="#BitstreamVeraSans-Roman-33"/>
       <use x="147.412109375" xlink:href="#BitstreamVeraSans-Roman-30"/>
       <use x="211.03515625" xlink:href="#BitstreamVeraSans-Roman-30"/>
      </g>
     </g>
    </g>
    <g id="xtick_3">
     <g id="line2d_16">
      <g>
       <use style="stroke:#000000;stroke-width:0.5;" x="579.6" xlink:href="#m8ca549b7c9" y="672.3"/>
      </g>
     </g>
     <g id="line2d_17">
      <g>
       <use style="stroke:#000000;stroke-width:0.5;" x="579.6" xlink:href="#m5805da60bb" y="74.7"/>
      </g>
     </g>
     <g id="text_3">
      <!-- −200 -->
      <defs>
       <path d="M 19.1875 8.296875 
L 53.609375 8.296875 
L 53.609375 0 
L 7.328125 0 
L 7.328125 8.296875 
Q 12.9375 14.109375 22.625 23.890625 
Q 32.328125 33.6875 34.8125 36.53125 
Q 39.546875 41.84375 41.421875 45.53125 
Q 43.3125 49.21875 43.3125 52.78125 
Q 43.3125 58.59375 39.234375 62.25 
Q 35.15625 65.921875 28.609375 65.921875 
Q 23.96875 65.921875 18.8125 64.3125 
Q 13.671875 62.703125 7.8125 59.421875 
L 7.8125 69.390625 
Q 13.765625 71.78125 18.9375 73 
Q 24.125 74.21875 28.421875 74.21875 
Q 39.75 74.21875 46.484375 68.546875 
Q 53.21875 62.890625 53.21875 53.421875 
Q 53.21875 48.921875 51.53125 44.890625 
Q 49.859375 40.875 45.40625 35.40625 
Q 44.1875 33.984375 37.640625 27.21875 
Q 31.109375 20.453125 19.1875 8.296875 
" id="BitstreamVeraSans-Roman-32"/>
      </defs>
      <g transform="translate(563.1196875 685.418125)scale(0.12 -0.12)">
       <use xlink:href="#BitstreamVeraSans-Roman-2212"/>
       <use x="83.7890625" xlink:href="#BitstreamVeraSans-Roman-32"/>
       <use x="147.412109375" xlink:href="#BitstreamVeraSans-Roman-30"/>
       <use x="211.03515625" xlink:href="#BitstreamVeraSans-Roman-30"/>
      </g>
     </g>
    </g>
    <g id="xtick_4">
     <g id="line2d_18">
      <g>
       <use style="stroke:#000000;stroke-width:0.5;" x="774.9" xlink:href="#m8ca549b7c9" y="672.3"/>
      </g>
     </g>
     <g id="line2d_19">
      <g>
       <use style="stroke:#000000;stroke-width:0.5;" x="774.9" xlink:href="#m5805da60bb" y="74.7"/>
      </g>
     </g>
     <g id="text_4">
      <!-- −100 -->
      <defs>
       <path d="M 12.40625 8.296875 
L 28.515625 8.296875 
L 28.515625 63.921875 
L 10.984375 60.40625 
L 10.984375 69.390625 
L 28.421875 72.90625 
L 38.28125 72.90625 
L 38.28125 8.296875 
L 54.390625 8.296875 
L 54.390625 0 
L 12.40625 0 
z
" id="BitstreamVeraSans-Roman-31"/>
      </defs>
      <g transform="translate(758.4196875 685.418125)scale(0.12 -0.12)">
       <use xlink:href="#BitstreamVeraSans-Roman-2212"/>
       <use x="83.7890625" xlink:href="#BitstreamVeraSans-Roman-31"/>
       <use x="147.412109375" xlink:href="#BitstreamVeraSans-Roman-30"/>
       <use x="211.03515625" xlink:href="#BitstreamVeraSans-Roman-30"/>
      </g>
     </g>
    </g>
    <g id="xtick_5">
     <g id="line2d_20">
      <g>
       <use style="stroke:#000000;stroke-width:0.5;" x="970.2" xlink:href="#m8ca549b7c9" y="672.3"/>
      </g>
     </g>
     <g id="line2d_21">
      <g>
       <use style="stroke:#000000;stroke-width:0.5;" x="970.2" xlink:href="#m5805da60bb" y="74.7"/>
      </g>
     </g>
     <g id="text_5">
      <!-- 0 -->
      <g transform="translate(966.3825 685.418125)scale(0.12 -0.12)">
       <use xlink:href="#BitstreamVeraSans-Roman-30"/>
      </g>
     </g>
    </g>
    <g id="xtick_6">
     <g id="line2d_22">
      <g>
       <use style="stroke:#000000;stroke-width:0.5;" x="1165.5" xlink:href="#m8ca549b7c9" y="672.3"/>
      </g>
     </g>
     <g id="line2d_23">
      <g>
       <use style="stroke:#000000;stroke-width:0.5;" x="1165.5" xlink:href="#m5805da60bb" y="74.7"/>
      </g>
     </g>
     <g id="text_6">
      <!-- 100 -->
      <g transform="translate(1154.0475 685.418125)scale(0.12 -0.12)">
       <use xlink:href="#BitstreamVeraSans-Roman-31"/>
       <use x="63.623046875" xlink:href="#BitstreamVeraSans-Roman-30"/>
       <use x="127.24609375" xlink:href="#BitstreamVeraSans-Roman-30"/>
      </g>
     </g>
    </g>
    <g id="xtick_7">
     <g id="line2d_24">
      <g>
       <use style="stroke:#000000;stroke-width:0.5;" x="1360.8" xlink:href="#m8ca549b7c9" y="672.3"/>
      </g>
     </g>
     <g id="line2d_25">
      <g>
       <use style="stroke:#000000;stroke-width:0.5;" x="1360.8" xlink:href="#m5805da60bb" y="74.7"/>
      </g>
     </g>
     <g id="text_7">
      <!-- 200 -->
      <g transform="translate(1349.3475 685.418125)scale(0.12 -0.12)">
       <use xlink:href="#BitstreamVeraSans-Roman-32"/>
       <use x="63.623046875" xlink:href="#BitstreamVeraSans-Roman-30"/>
       <use x="127.24609375" xlink:href="#BitstreamVeraSans-Roman-30"/>
      </g>
     </g>
    </g>
    <g id="text_8">
     <!-- Input current DC current (in pA) -->
     <defs>
      <path d="M 64.40625 67.28125 
L 64.40625 56.890625 
Q 59.421875 61.53125 53.78125 63.8125 
Q 48.140625 66.109375 41.796875 66.109375 
Q 29.296875 66.109375 22.65625 58.46875 
Q 16.015625 50.828125 16.015625 36.375 
Q 16.015625 21.96875 22.65625 14.328125 
Q 29.296875 6.6875 41.796875 6.6875 
Q 48.140625 6.6875 53.78125 8.984375 
Q 59.421875 11.28125 64.40625 15.921875 
L 64.40625 5.609375 
Q 59.234375 2.09375 53.4375 0.328125 
Q 47.65625 -1.421875 41.21875 -1.421875 
Q 24.65625 -1.421875 15.125 8.703125 
Q 5.609375 18.84375 5.609375 36.375 
Q 5.609375 53.953125 15.125 64.078125 
Q 24.65625 74.21875 41.21875 74.21875 
Q 47.75 74.21875 53.53125 72.484375 
Q 59.328125 70.75 64.40625 67.28125 
" id="BitstreamVeraSans-Roman-43"/>
      <path d="M 8.015625 75.875 
L 15.828125 75.875 
Q 23.140625 64.359375 26.78125 53.3125 
Q 30.421875 42.28125 30.421875 31.390625 
Q 30.421875 20.453125 26.78125 9.375 
Q 23.140625 -1.703125 15.828125 -13.1875 
L 8.015625 -13.1875 
Q 14.5 -2 17.703125 9.0625 
Q 20.90625 20.125 20.90625 31.390625 
Q 20.90625 42.671875 17.703125 53.65625 
Q 14.5 64.65625 8.015625 75.875 
" id="BitstreamVeraSans-Roman-29"/>
      <path d="M 9.8125 72.90625 
L 19.671875 72.90625 
L 19.671875 0 
L 9.8125 0 
z
" id="BitstreamVeraSans-Roman-49"/>
      <path d="M 56.203125 29.59375 
L 56.203125 25.203125 
L 14.890625 25.203125 
Q 15.484375 15.921875 20.484375 11.0625 
Q 25.484375 6.203125 34.421875 6.203125 
Q 39.59375 6.203125 44.453125 7.46875 
Q 49.3125 8.734375 54.109375 11.28125 
L 54.109375 2.78125 
Q 49.265625 0.734375 44.1875 -0.34375 
Q 39.109375 -1.421875 33.890625 -1.421875 
Q 20.796875 -1.421875 13.15625 6.1875 
Q 5.515625 13.8125 5.515625 26.8125 
Q 5.515625 40.234375 12.765625 48.109375 
Q 20.015625 56 32.328125 56 
Q 43.359375 56 49.78125 48.890625 
Q 56.203125 41.796875 56.203125 29.59375 
M 47.21875 32.234375 
Q 47.125 39.59375 43.09375 43.984375 
Q 39.0625 48.390625 32.421875 48.390625 
Q 24.90625 48.390625 20.390625 44.140625 
Q 15.875 39.890625 15.1875 32.171875 
z
" id="BitstreamVeraSans-Roman-65"/>
      <path d="M 9.421875 54.6875 
L 18.40625 54.6875 
L 18.40625 0 
L 9.421875 0 
z
M 9.421875 75.984375 
L 18.40625 75.984375 
L 18.40625 64.59375 
L 9.421875 64.59375 
z
" id="BitstreamVeraSans-Roman-69"/>
      <path id="BitstreamVeraSans-Roman-20"/>
      <path d="M 18.3125 70.21875 
L 18.3125 54.6875 
L 36.8125 54.6875 
L 36.8125 47.703125 
L 18.3125 47.703125 
L 18.3125 18.015625 
Q 18.3125 11.328125 20.140625 9.421875 
Q 21.96875 7.515625 27.59375 7.515625 
L 36.8125 7.515625 
L 36.8125 0 
L 27.59375 0 
Q 17.1875 0 13.234375 3.875 
Q 9.28125 7.765625 9.28125 18.015625 
L 9.28125 47.703125 
L 2.6875 47.703125 
L 2.6875 54.6875 
L 9.28125 54.6875 
L 9.28125 70.21875 
z
" id="BitstreamVeraSans-Roman-74"/>
      <path d="M 8.5 21.578125 
L 8.5 54.6875 
L 17.484375 54.6875 
L 17.484375 21.921875 
Q 17.484375 14.15625 20.5 10.265625 
Q 23.53125 6.390625 29.59375 6.390625 
Q 36.859375 6.390625 41.078125 11.03125 
Q 45.3125 15.671875 45.3125 23.6875 
L 45.3125 54.6875 
L 54.296875 54.6875 
L 54.296875 0 
L 45.3125 0 
L 45.3125 8.40625 
Q 42.046875 3.421875 37.71875 1 
Q 33.40625 -1.421875 27.6875 -1.421875 
Q 18.265625 -1.421875 13.375 4.4375 
Q 8.5 10.296875 8.5 21.578125 
" id="BitstreamVeraSans-Roman-75"/>
      <path d="M 31 75.875 
Q 24.46875 64.65625 21.28125 53.65625 
Q 18.109375 42.671875 18.109375 31.390625 
Q 18.109375 20.125 21.3125 9.0625 
Q 24.515625 -2 31 -13.1875 
L 23.1875 -13.1875 
Q 15.875 -1.703125 12.234375 9.375 
Q 8.59375 20.453125 8.59375 31.390625 
Q 8.59375 42.28125 12.203125 53.3125 
Q 15.828125 64.359375 23.1875 75.875 
z
" id="BitstreamVeraSans-Roman-28"/>
      <path d="M 19.671875 64.796875 
L 19.671875 8.109375 
L 31.59375 8.109375 
Q 46.6875 8.109375 53.6875 14.9375 
Q 60.6875 21.78125 60.6875 36.53125 
Q 60.6875 51.171875 53.6875 57.984375 
Q 46.6875 64.796875 31.59375 64.796875 
z
M 9.8125 72.90625 
L 30.078125 72.90625 
Q 51.265625 72.90625 61.171875 64.09375 
Q 71.09375 55.28125 71.09375 36.53125 
Q 71.09375 17.671875 61.125 8.828125 
Q 51.171875 0 30.078125 0 
L 9.8125 0 
z
" id="BitstreamVeraSans-Roman-44"/>
      <path d="M 41.109375 46.296875 
Q 39.59375 47.171875 37.8125 47.578125 
Q 36.03125 48 33.890625 48 
Q 26.265625 48 22.1875 43.046875 
Q 18.109375 38.09375 18.109375 28.8125 
L 18.109375 0 
L 9.078125 0 
L 9.078125 54.6875 
L 18.109375 54.6875 
L 18.109375 46.1875 
Q 20.953125 51.171875 25.484375 53.578125 
Q 30.03125 56 36.53125 56 
Q 37.453125 56 38.578125 55.875 
Q 39.703125 55.765625 41.0625 55.515625 
z
" id="BitstreamVeraSans-Roman-72"/>
      <path d="M 18.109375 8.203125 
L 18.109375 -20.796875 
L 9.078125 -20.796875 
L 9.078125 54.6875 
L 18.109375 54.6875 
L 18.109375 46.390625 
Q 20.953125 51.265625 25.265625 53.625 
Q 29.59375 56 35.59375 56 
Q 45.5625 56 51.78125 48.09375 
Q 58.015625 40.1875 58.015625 27.296875 
Q 58.015625 14.40625 51.78125 6.484375 
Q 45.5625 -1.421875 35.59375 -1.421875 
Q 29.59375 -1.421875 25.265625 0.953125 
Q 20.953125 3.328125 18.109375 8.203125 
M 48.6875 27.296875 
Q 48.6875 37.203125 44.609375 42.84375 
Q 40.53125 48.484375 33.40625 48.484375 
Q 26.265625 48.484375 22.1875 42.84375 
Q 18.109375 37.203125 18.109375 27.296875 
Q 18.109375 17.390625 22.1875 11.75 
Q 26.265625 6.109375 33.40625 6.109375 
Q 40.53125 6.109375 44.609375 11.75 
Q 48.6875 17.390625 48.6875 27.296875 
" id="BitstreamVeraSans-Roman-70"/>
      <path d="M 54.890625 33.015625 
L 54.890625 0 
L 45.90625 0 
L 45.90625 32.71875 
Q 45.90625 40.484375 42.875 44.328125 
Q 39.84375 48.1875 33.796875 48.1875 
Q 26.515625 48.1875 22.3125 43.546875 
Q 18.109375 38.921875 18.109375 30.90625 
L 18.109375 0 
L 9.078125 0 
L 9.078125 54.6875 
L 18.109375 54.6875 
L 18.109375 46.1875 
Q 21.34375 51.125 25.703125 53.5625 
Q 30.078125 56 35.796875 56 
Q 45.21875 56 50.046875 50.171875 
Q 54.890625 44.34375 54.890625 33.015625 
" id="BitstreamVeraSans-Roman-6e"/>
      <path d="M 48.78125 52.59375 
L 48.78125 44.1875 
Q 44.96875 46.296875 41.140625 47.34375 
Q 37.3125 48.390625 33.40625 48.390625 
Q 24.65625 48.390625 19.8125 42.84375 
Q 14.984375 37.3125 14.984375 27.296875 
Q 14.984375 17.28125 19.8125 11.734375 
Q 24.65625 6.203125 33.40625 6.203125 
Q 37.3125 6.203125 41.140625 7.25 
Q 44.96875 8.296875 48.78125 10.40625 
L 48.78125 2.09375 
Q 45.015625 0.34375 40.984375 -0.53125 
Q 36.96875 -1.421875 32.421875 -1.421875 
Q 20.0625 -1.421875 12.78125 6.34375 
Q 5.515625 14.109375 5.515625 27.296875 
Q 5.515625 40.671875 12.859375 48.328125 
Q 20.21875 56 33.015625 56 
Q 37.15625 56 41.109375 55.140625 
Q 45.0625 54.296875 48.78125 52.59375 
" id="BitstreamVeraSans-Roman-63"/>
      <path d="M 34.1875 63.1875 
L 20.796875 26.90625 
L 47.609375 26.90625 
z
M 28.609375 72.90625 
L 39.796875 72.90625 
L 67.578125 0 
L 57.328125 0 
L 50.6875 18.703125 
L 17.828125 18.703125 
L 11.1875 0 
L 0.78125 0 
z
" id="BitstreamVeraSans-Roman-41"/>
     </defs>
     <g transform="translate(679.198125 702.031875)scale(0.12 -0.12)">
      <use xlink:href="#BitstreamVeraSans-Roman-49"/>
      <use x="29.4921875" xlink:href="#BitstreamVeraSans-Roman-6e"/>
      <use x="92.87109375" xlink:href="#BitstreamVeraSans-Roman-70"/>
      <use x="156.34765625" xlink:href="#BitstreamVeraSans-Roman-75"/>
      <use x="219.7265625" xlink:href="#BitstreamVeraSans-Roman-74"/>
      <use x="258.935546875" xlink:href="#BitstreamVeraSans-Roman-20"/>
      <use x="290.72265625" xlink:href="#BitstreamVeraSans-Roman-63"/>
      <use x="345.703125" xlink:href="#BitstreamVeraSans-Roman-75"/>
      <use x="409.08203125" xlink:href="#BitstreamVeraSans-Roman-72"/>
      <use x="450.1796875" xlink:href="#BitstreamVeraSans-Roman-72"/>
      <use x="491.26171875" xlink:href="#BitstreamVeraSans-Roman-65"/>
      <use x="552.78515625" xlink:href="#BitstreamVeraSans-Roman-6e"/>
      <use x="616.1640625" xlink:href="#BitstreamVeraSans-Roman-74"/>
      <use x="655.373046875" xlink:href="#BitstreamVeraSans-Roman-20"/>
      <use x="687.16015625" xlink:href="#BitstreamVeraSans-Roman-44"/>
      <use x="764.162109375" xlink:href="#BitstreamVeraSans-Roman-43"/>
      <use x="833.986328125" xlink:href="#BitstreamVeraSans-Roman-20"/>
      <use x="865.7734375" xlink:href="#BitstreamVeraSans-Roman-63"/>
      <use x="920.75390625" xlink:href="#BitstreamVeraSans-Roman-75"/>
      <use x="984.1328125" xlink:href="#BitstreamVeraSans-Roman-72"/>
      <use x="1025.23046875" xlink:href="#BitstreamVeraSans-Roman-72"/>
      <use x="1066.3125" xlink:href="#BitstreamVeraSans-Roman-65"/>
      <use x="1127.8359375" xlink:href="#BitstreamVeraSans-Roman-6e"/>
      <use x="1191.21484375" xlink:href="#BitstreamVeraSans-Roman-74"/>
      <use x="1230.423828125" xlink:href="#BitstreamVeraSans-Roman-20"/>
      <use x="1262.2109375" xlink:href="#BitstreamVeraSans-Roman-28"/>
      <use x="1301.224609375" xlink:href="#BitstreamVeraSans-Roman-69"/>
      <use x="1329.0078125" xlink:href="#BitstreamVeraSans-Roman-6e"/>
      <use x="1392.38671875" xlink:href="#BitstreamVeraSans-Roman-20"/>
      <use x="1424.173828125" xlink:href="#BitstreamVeraSans-Roman-70"/>
      <use x="1487.650390625" xlink:href="#BitstreamVeraSans-Roman-41"/>
      <use x="1556.05859375" xlink:href="#BitstreamVeraSans-Roman-29"/>
     </g>
    </g>
   </g>
   <g id="matplotlib.axis_2">
    <g id="ytick_1">
     <g id="line2d_26">
      <defs>
       <path d="M 0 0 
L 4 0 
" id="m77090575ce" style="stroke:#000000;stroke-width:0.5;"/>
      </defs>
      <g>
       <use style="stroke:#000000;stroke-width:0.5;" x="189.0" xlink:href="#m77090575ce" y="672.3"/>
      </g>
     </g>
     <g id="line2d_27">
      <defs>
       <path d="M 0 0 
L -4 0 
" id="mbaf25ccfd3" style="stroke:#000000;stroke-width:0.5;"/>
      </defs>
      <g>
       <use style="stroke:#000000;stroke-width:0.5;" x="1360.8" xlink:href="#mbaf25ccfd3" y="672.3"/>
      </g>
     </g>
     <g id="text_9">
      <!-- 0 -->
      <g transform="translate(177.365 675.61125)scale(0.12 -0.12)">
       <use xlink:href="#BitstreamVeraSans-Roman-30"/>
      </g>
     </g>
    </g>
    <g id="ytick_2">
     <g id="line2d_28">
      <g>
       <use style="stroke:#000000;stroke-width:0.5;" x="189.0" xlink:href="#m77090575ce" y="586.928571429"/>
      </g>
     </g>
     <g id="line2d_29">
      <g>
       <use style="stroke:#000000;stroke-width:0.5;" x="1360.8" xlink:href="#mbaf25ccfd3" y="586.928571429"/>
      </g>
     </g>
     <g id="text_10">
      <!-- 5 -->
      <defs>
       <path d="M 10.796875 72.90625 
L 49.515625 72.90625 
L 49.515625 64.59375 
L 19.828125 64.59375 
L 19.828125 46.734375 
Q 21.96875 47.46875 24.109375 47.828125 
Q 26.265625 48.1875 28.421875 48.1875 
Q 40.625 48.1875 47.75 41.5 
Q 54.890625 34.8125 54.890625 23.390625 
Q 54.890625 11.625 47.5625 5.09375 
Q 40.234375 -1.421875 26.90625 -1.421875 
Q 22.3125 -1.421875 17.546875 -0.640625 
Q 12.796875 0.140625 7.71875 1.703125 
L 7.71875 11.625 
Q 12.109375 9.234375 16.796875 8.0625 
Q 21.484375 6.890625 26.703125 6.890625 
Q 35.15625 6.890625 40.078125 11.328125 
Q 45.015625 15.765625 45.015625 23.390625 
Q 45.015625 31 40.078125 35.4375 
Q 35.15625 39.890625 26.703125 39.890625 
Q 22.75 39.890625 18.8125 39.015625 
Q 14.890625 38.140625 10.796875 36.28125 
z
" id="BitstreamVeraSans-Roman-35"/>
      </defs>
      <g transform="translate(177.365 590.239821429)scale(0.12 -0.12)">
       <use xlink:href="#BitstreamVeraSans-Roman-35"/>
      </g>
     </g>
    </g>
    <g id="ytick_3">
     <g id="line2d_30">
      <g>
       <use style="stroke:#000000;stroke-width:0.5;" x="189.0" xlink:href="#m77090575ce" y="501.557142857"/>
      </g>
     </g>
     <g id="line2d_31">
      <g>
       <use style="stroke:#000000;stroke-width:0.5;" x="1360.8" xlink:href="#mbaf25ccfd3" y="501.557142857"/>
      </g>
     </g>
     <g id="text_11">
      <!-- 10 -->
      <g transform="translate(169.73 504.868392857)scale(0.12 -0.12)">
       <use xlink:href="#BitstreamVeraSans-Roman-31"/>
       <use x="63.623046875" xlink:href="#BitstreamVeraSans-Roman-30"/>
      </g>
     </g>
    </g>
    <g id="ytick_4">
     <g id="line2d_32">
      <g>
       <use style="stroke:#000000;stroke-width:0.5;" x="189.0" xlink:href="#m77090575ce" y="416.185714286"/>
      </g>
     </g>
     <g id="line2d_33">
      <g>
       <use style="stroke:#000000;stroke-width:0.5;" x="1360.8" xlink:href="#mbaf25ccfd3" y="416.185714286"/>
      </g>
     </g>
     <g id="text_12">
      <!-- 15 -->
      <g transform="translate(169.73 419.496964286)scale(0.12 -0.12)">
       <use xlink:href="#BitstreamVeraSans-Roman-31"/>
       <use x="63.623046875" xlink:href="#BitstreamVeraSans-Roman-35"/>
      </g>
     </g>
    </g>
    <g id="ytick_5">
     <g id="line2d_34">
      <g>
       <use style="stroke:#000000;stroke-width:0.5;" x="189.0" xlink:href="#m77090575ce" y="330.814285714"/>
      </g>
     </g>
     <g id="line2d_35">
      <g>
       <use style="stroke:#000000;stroke-width:0.5;" x="1360.8" xlink:href="#mbaf25ccfd3" y="330.814285714"/>
      </g>
     </g>
     <g id="text_13">
      <!-- 20 -->
      <g transform="translate(169.73 334.125535714)scale(0.12 -0.12)">
       <use xlink:href="#BitstreamVeraSans-Roman-32"/>
       <use x="63.623046875" xlink:href="#BitstreamVeraSans-Roman-30"/>
      </g>
     </g>
    </g>
    <g id="ytick_6">
     <g id="line2d_36">
      <g>
       <use style="stroke:#000000;stroke-width:0.5;" x="189.0" xlink:href="#m77090575ce" y="245.442857143"/>
      </g>
     </g>
     <g id="line2d_37">
      <g>
       <use style="stroke:#000000;stroke-width:0.5;" x="1360.8" xlink:href="#mbaf25ccfd3" y="245.442857143"/>
      </g>
     </g>
     <g id="text_14">
      <!-- 25 -->
      <g transform="translate(169.73 248.754107143)scale(0.12 -0.12)">
       <use xlink:href="#BitstreamVeraSans-Roman-32"/>
       <use x="63.623046875" xlink:href="#BitstreamVeraSans-Roman-35"/>
      </g>
     </g>
    </g>
    <g id="ytick_7">
     <g id="line2d_38">
      <g>
       <use style="stroke:#000000;stroke-width:0.5;" x="189.0" xlink:href="#m77090575ce" y="160.071428571"/>
      </g>
     </g>
     <g id="line2d_39">
      <g>
       <use style="stroke:#000000;stroke-width:0.5;" x="1360.8" xlink:href="#mbaf25ccfd3" y="160.071428571"/>
      </g>
     </g>
     <g id="text_15">
      <!-- 30 -->
      <g transform="translate(169.73 163.382678571)scale(0.12 -0.12)">
       <use xlink:href="#BitstreamVeraSans-Roman-33"/>
       <use x="63.623046875" xlink:href="#BitstreamVeraSans-Roman-30"/>
      </g>
     </g>
    </g>
    <g id="ytick_8">
     <g id="line2d_40">
      <g>
       <use style="stroke:#000000;stroke-width:0.5;" x="189.0" xlink:href="#m77090575ce" y="74.7"/>
      </g>
     </g>
     <g id="line2d_41">
      <g>
       <use style="stroke:#000000;stroke-width:0.5;" x="1360.8" xlink:href="#mbaf25ccfd3" y="74.7"/>
      </g>
     </g>
     <g id="text_16">
      <!-- 35 -->
      <g transform="translate(169.73 78.01125)scale(0.12 -0.12)">
       <use xlink:href="#BitstreamVeraSans-Roman-33"/>
       <use x="63.623046875" xlink:href="#BitstreamVeraSans-Roman-35"/>
      </g>
     </g>
    </g>
    <g id="text_17">
     <!-- Frequency (in Hz) -->
     <defs>
      <path d="M 9.8125 72.90625 
L 51.703125 72.90625 
L 51.703125 64.59375 
L 19.671875 64.59375 
L 19.671875 43.109375 
L 48.578125 43.109375 
L 48.578125 34.8125 
L 19.671875 34.8125 
L 19.671875 0 
L 9.8125 0 
z
" id="BitstreamVeraSans-Roman-46"/>
      <path d="M 14.796875 27.296875 
Q 14.796875 17.390625 18.875 11.75 
Q 22.953125 6.109375 30.078125 6.109375 
Q 37.203125 6.109375 41.296875 11.75 
Q 45.40625 17.390625 45.40625 27.296875 
Q 45.40625 37.203125 41.296875 42.84375 
Q 37.203125 48.484375 30.078125 48.484375 
Q 22.953125 48.484375 18.875 42.84375 
Q 14.796875 37.203125 14.796875 27.296875 
M 45.40625 8.203125 
Q 42.578125 3.328125 38.25 0.953125 
Q 33.9375 -1.421875 27.875 -1.421875 
Q 17.96875 -1.421875 11.734375 6.484375 
Q 5.515625 14.40625 5.515625 27.296875 
Q 5.515625 40.1875 11.734375 48.09375 
Q 17.96875 56 27.875 56 
Q 33.9375 56 38.25 53.625 
Q 42.578125 51.265625 45.40625 46.390625 
L 45.40625 54.6875 
L 54.390625 54.6875 
L 54.390625 -20.796875 
L 45.40625 -20.796875 
z
" id="BitstreamVeraSans-Roman-71"/>
      <path d="M 9.8125 72.90625 
L 19.671875 72.90625 
L 19.671875 43.015625 
L 55.515625 43.015625 
L 55.515625 72.90625 
L 65.375 72.90625 
L 65.375 0 
L 55.515625 0 
L 55.515625 34.71875 
L 19.671875 34.71875 
L 19.671875 0 
L 9.8125 0 
z
" id="BitstreamVeraSans-Roman-48"/>
      <path d="M 32.171875 -5.078125 
Q 28.375 -14.84375 24.75 -17.8125 
Q 21.140625 -20.796875 15.09375 -20.796875 
L 7.90625 -20.796875 
L 7.90625 -13.28125 
L 13.1875 -13.28125 
Q 16.890625 -13.28125 18.9375 -11.515625 
Q 21 -9.765625 23.484375 -3.21875 
L 25.09375 0.875 
L 2.984375 54.6875 
L 12.5 54.6875 
L 29.59375 11.921875 
L 46.6875 54.6875 
L 56.203125 54.6875 
z
" id="BitstreamVeraSans-Roman-79"/>
      <path d="M 5.515625 54.6875 
L 48.1875 54.6875 
L 48.1875 46.484375 
L 14.40625 7.171875 
L 48.1875 7.171875 
L 48.1875 0 
L 4.296875 0 
L 4.296875 8.203125 
L 38.09375 47.515625 
L 5.515625 47.515625 
z
" id="BitstreamVeraSans-Roman-7a"/>
     </defs>
     <g transform="translate(162.234375 426.6834375)rotate(-90.0)scale(0.12 -0.12)">
      <use xlink:href="#BitstreamVeraSans-Roman-46"/>
      <use x="57.41015625" xlink:href="#BitstreamVeraSans-Roman-72"/>
      <use x="98.4921875" xlink:href="#BitstreamVeraSans-Roman-65"/>
      <use x="160.015625" xlink:href="#BitstreamVeraSans-Roman-71"/>
      <use x="223.4921875" xlink:href="#BitstreamVeraSans-Roman-75"/>
      <use x="286.87109375" xlink:href="#BitstreamVeraSans-Roman-65"/>
      <use x="348.39453125" xlink:href="#BitstreamVeraSans-Roman-6e"/>
      <use x="411.7734375" xlink:href="#BitstreamVeraSans-Roman-63"/>
      <use x="466.75390625" xlink:href="#BitstreamVeraSans-Roman-79"/>
      <use x="525.93359375" xlink:href="#BitstreamVeraSans-Roman-20"/>
      <use x="557.720703125" xlink:href="#BitstreamVeraSans-Roman-28"/>
      <use x="596.734375" xlink:href="#BitstreamVeraSans-Roman-69"/>
      <use x="624.517578125" xlink:href="#BitstreamVeraSans-Roman-6e"/>
      <use x="687.896484375" xlink:href="#BitstreamVeraSans-Roman-20"/>
      <use x="719.68359375" xlink:href="#BitstreamVeraSans-Roman-48"/>
      <use x="794.87890625" xlink:href="#BitstreamVeraSans-Roman-7a"/>
      <use x="847.369140625" xlink:href="#BitstreamVeraSans-Roman-29"/>
     </g>
    </g>
   </g>
   <g id="text_18">
    <!-- FI Curve -->
    <defs>
     <path d="M 2.984375 54.6875 
L 12.5 54.6875 
L 29.59375 8.796875 
L 46.6875 54.6875 
L 56.203125 54.6875 
L 35.6875 0 
L 23.484375 0 
z
" id="BitstreamVeraSans-Roman-76"/>
    </defs>
    <g transform="translate(745.104375 69.7)scale(0.144 -0.144)">
     <use xlink:href="#BitstreamVeraSans-Roman-46"/>
     <use x="57.51953125" xlink:href="#BitstreamVeraSans-Roman-49"/>
     <use x="87.01171875" xlink:href="#BitstreamVeraSans-Roman-20"/>
     <use x="118.798828125" xlink:href="#BitstreamVeraSans-Roman-43"/>
     <use x="188.623046875" xlink:href="#BitstreamVeraSans-Roman-75"/>
     <use x="252.001953125" xlink:href="#BitstreamVeraSans-Roman-72"/>
     <use x="293.115234375" xlink:href="#BitstreamVeraSans-Roman-76"/>
     <use x="352.294921875" xlink:href="#BitstreamVeraSans-Roman-65"/>
    </g>
   </g>
   <g id="legend_1">
    <g id="patch_7">
     <path d="M 199.08 318.7215 
L 328.90275 318.7215 
Q 331.78275 318.7215 331.78275 315.8415 
L 331.78275 84.78 
Q 331.78275 81.9 328.90275 81.9 
L 199.08 81.9 
Q 196.2 81.9 196.2 84.78 
L 196.2 315.8415 
Q 196.2 318.7215 199.08 318.7215 
z
" style="fill:#ffffff;stroke:#000000;stroke-linejoin:miter;"/>
    </g>
    <g id="line2d_42">
     <path d="M 206.28 93.56175 
L 226.44 93.56175 
" style="fill:none;stroke:#ff1e1e;stroke-linecap:square;"/>
    </g>
    <g id="line2d_43"/>
    <g id="text_19">
     <!-- Std: 0.0 -->
     <defs>
      <path d="M 53.515625 70.515625 
L 53.515625 60.890625 
Q 47.90625 63.578125 42.921875 64.890625 
Q 37.9375 66.21875 33.296875 66.21875 
Q 25.25 66.21875 20.875 63.09375 
Q 16.5 59.96875 16.5 54.203125 
Q 16.5 49.359375 19.40625 46.890625 
Q 22.3125 44.4375 30.421875 42.921875 
L 36.375 41.703125 
Q 47.40625 39.59375 52.65625 34.296875 
Q 57.90625 29 57.90625 20.125 
Q 57.90625 9.515625 50.796875 4.046875 
Q 43.703125 -1.421875 29.984375 -1.421875 
Q 24.8125 -1.421875 18.96875 -0.25 
Q 13.140625 0.921875 6.890625 3.21875 
L 6.890625 13.375 
Q 12.890625 10.015625 18.65625 8.296875 
Q 24.421875 6.59375 29.984375 6.59375 
Q 38.421875 6.59375 43.015625 9.90625 
Q 47.609375 13.234375 47.609375 19.390625 
Q 47.609375 24.75 44.3125 27.78125 
Q 41.015625 30.8125 33.5 32.328125 
L 27.484375 33.5 
Q 16.453125 35.6875 11.515625 40.375 
Q 6.59375 45.0625 6.59375 53.421875 
Q 6.59375 63.09375 13.40625 68.65625 
Q 20.21875 74.21875 32.171875 74.21875 
Q 37.3125 74.21875 42.625 73.28125 
Q 47.953125 72.359375 53.515625 70.515625 
" id="BitstreamVeraSans-Roman-53"/>
      <path d="M 10.6875 12.40625 
L 21 12.40625 
L 21 0 
L 10.6875 0 
z
" id="BitstreamVeraSans-Roman-2e"/>
      <path d="M 11.71875 12.40625 
L 22.015625 12.40625 
L 22.015625 0 
L 11.71875 0 
z
M 11.71875 51.703125 
L 22.015625 51.703125 
L 22.015625 39.3125 
L 11.71875 39.3125 
z
" id="BitstreamVeraSans-Roman-3a"/>
      <path d="M 45.40625 46.390625 
L 45.40625 75.984375 
L 54.390625 75.984375 
L 54.390625 0 
L 45.40625 0 
L 45.40625 8.203125 
Q 42.578125 3.328125 38.25 0.953125 
Q 33.9375 -1.421875 27.875 -1.421875 
Q 17.96875 -1.421875 11.734375 6.484375 
Q 5.515625 14.40625 5.515625 27.296875 
Q 5.515625 40.1875 11.734375 48.09375 
Q 17.96875 56 27.875 56 
Q 33.9375 56 38.25 53.625 
Q 42.578125 51.265625 45.40625 46.390625 
M 14.796875 27.296875 
Q 14.796875 17.390625 18.875 11.75 
Q 22.953125 6.109375 30.078125 6.109375 
Q 37.203125 6.109375 41.296875 11.75 
Q 45.40625 17.390625 45.40625 27.296875 
Q 45.40625 37.203125 41.296875 42.84375 
Q 37.203125 48.484375 30.078125 48.484375 
Q 22.953125 48.484375 18.875 42.84375 
Q 14.796875 37.203125 14.796875 27.296875 
" id="BitstreamVeraSans-Roman-64"/>
     </defs>
     <g transform="translate(242.28 98.60175)scale(0.144 -0.144)">
      <use xlink:href="#BitstreamVeraSans-Roman-53"/>
      <use x="63.4765625" xlink:href="#BitstreamVeraSans-Roman-74"/>
      <use x="102.685546875" xlink:href="#BitstreamVeraSans-Roman-64"/>
      <use x="166.162109375" xlink:href="#BitstreamVeraSans-Roman-3a"/>
      <use x="199.853515625" xlink:href="#BitstreamVeraSans-Roman-20"/>
      <use x="231.640625" xlink:href="#BitstreamVeraSans-Roman-30"/>
      <use x="295.263671875" xlink:href="#BitstreamVeraSans-Roman-2e"/>
      <use x="327.05078125" xlink:href="#BitstreamVeraSans-Roman-30"/>
     </g>
    </g>
    <g id="line2d_44">
     <path d="M 206.28 114.69825 
L 226.44 114.69825 
" style="fill:none;stroke:#581845;stroke-linecap:square;"/>
    </g>
    <g id="line2d_45"/>
    <g id="text_20">
     <!-- Std: 100.0 -->
     <g transform="translate(242.28 119.73825)scale(0.144 -0.144)">
      <use xlink:href="#BitstreamVeraSans-Roman-53"/>
      <use x="63.4765625" xlink:href="#BitstreamVeraSans-Roman-74"/>
      <use x="102.685546875" xlink:href="#BitstreamVeraSans-Roman-64"/>
      <use x="166.162109375" xlink:href="#BitstreamVeraSans-Roman-3a"/>
      <use x="199.853515625" xlink:href="#BitstreamVeraSans-Roman-20"/>
      <use x="231.640625" xlink:href="#BitstreamVeraSans-Roman-31"/>
      <use x="295.263671875" xlink:href="#BitstreamVeraSans-Roman-30"/>
      <use x="358.88671875" xlink:href="#BitstreamVeraSans-Roman-30"/>
      <use x="422.509765625" xlink:href="#BitstreamVeraSans-Roman-2e"/>
      <use x="454.296875" xlink:href="#BitstreamVeraSans-Roman-30"/>
     </g>
    </g>
    <g id="line2d_46">
     <path d="M 206.28 135.83475 
L 226.44 135.83475 
" style="fill:none;stroke:#26b7d8;stroke-linecap:square;"/>
    </g>
    <g id="line2d_47"/>
    <g id="text_21">
     <!-- Std: 200.0 -->
     <g transform="translate(242.28 140.87475)scale(0.144 -0.144)">
      <use xlink:href="#BitstreamVeraSans-Roman-53"/>
      <use x="63.4765625" xlink:href="#BitstreamVeraSans-Roman-74"/>
      <use x="102.685546875" xlink:href="#BitstreamVeraSans-Roman-64"/>
      <use x="166.162109375" xlink:href="#BitstreamVeraSans-Roman-3a"/>
      <use x="199.853515625" xlink:href="#BitstreamVeraSans-Roman-20"/>
      <use x="231.640625" xlink:href="#BitstreamVeraSans-Roman-32"/>
      <use x="295.263671875" xlink:href="#BitstreamVeraSans-Roman-30"/>
      <use x="358.88671875" xlink:href="#BitstreamVeraSans-Roman-30"/>
      <use x="422.509765625" xlink:href="#BitstreamVeraSans-Roman-2e"/>
      <use x="454.296875" xlink:href="#BitstreamVeraSans-Roman-30"/>
     </g>
    </g>
    <g id="line2d_48">
     <path d="M 206.28 156.97125 
L 226.44 156.97125 
" style="fill:none;stroke:#8414a4;stroke-linecap:square;"/>
    </g>
    <g id="line2d_49"/>
    <g id="text_22">
     <!-- Std: 300.0 -->
     <g transform="translate(242.28 162.01125)scale(0.144 -0.144)">
      <use xlink:href="#BitstreamVeraSans-Roman-53"/>
      <use x="63.4765625" xlink:href="#BitstreamVeraSans-Roman-74"/>
      <use x="102.685546875" xlink:href="#BitstreamVeraSans-Roman-64"/>
      <use x="166.162109375" xlink:href="#BitstreamVeraSans-Roman-3a"/>
      <use x="199.853515625" xlink:href="#BitstreamVeraSans-Roman-20"/>
      <use x="231.640625" xlink:href="#BitstreamVeraSans-Roman-33"/>
      <use x="295.263671875" xlink:href="#BitstreamVeraSans-Roman-30"/>
      <use x="358.88671875" xlink:href="#BitstreamVeraSans-Roman-30"/>
      <use x="422.509765625" xlink:href="#BitstreamVeraSans-Roman-2e"/>
      <use x="454.296875" xlink:href="#BitstreamVeraSans-Roman-30"/>
     </g>
    </g>
    <g id="line2d_50">
     <path d="M 206.28 178.10775 
L 226.44 178.10775 
" style="fill:none;stroke:#ffd23a;stroke-linecap:square;"/>
    </g>
    <g id="line2d_51"/>
    <g id="text_23">
     <!-- Std: 400.0 -->
     <g transform="translate(242.28 183.14775)scale(0.144 -0.144)">
      <use xlink:href="#BitstreamVeraSans-Roman-53"/>
      <use x="63.4765625" xlink:href="#BitstreamVeraSans-Roman-74"/>
      <use x="102.685546875" xlink:href="#BitstreamVeraSans-Roman-64"/>
      <use x="166.162109375" xlink:href="#BitstreamVeraSans-Roman-3a"/>
      <use x="199.853515625" xlink:href="#BitstreamVeraSans-Roman-20"/>
      <use x="231.640625" xlink:href="#BitstreamVeraSans-Roman-34"/>
      <use x="295.263671875" xlink:href="#BitstreamVeraSans-Roman-30"/>
      <use x="358.88671875" xlink:href="#BitstreamVeraSans-Roman-30"/>
      <use x="422.509765625" xlink:href="#BitstreamVeraSans-Roman-2e"/>
      <use x="454.296875" xlink:href="#BitstreamVeraSans-Roman-30"/>
     </g>
    </g>
    <g id="line2d_52">
     <path d="M 206.28 199.24425 
L 226.44 199.24425 
" style="fill:none;stroke:#ff9300;stroke-linecap:square;"/>
    </g>
    <g id="line2d_53"/>
    <g id="text_24">
     <!-- Std: 500.0 -->
     <g transform="translate(242.28 204.28425)scale(0.144 -0.144)">
      <use xlink:href="#BitstreamVeraSans-Roman-53"/>
      <use x="63.4765625" xlink:href="#BitstreamVeraSans-Roman-74"/>
      <use x="102.685546875" xlink:href="#BitstreamVeraSans-Roman-64"/>
      <use x="166.162109375" xlink:href="#BitstreamVeraSans-Roman-3a"/>
      <use x="199.853515625" xlink:href="#BitstreamVeraSans-Roman-20"/>
      <use x="231.640625" xlink:href="#BitstreamVeraSans-Roman-35"/>
      <use x="295.263671875" xlink:href="#BitstreamVeraSans-Roman-30"/>
      <use x="358.88671875" xlink:href="#BitstreamVeraSans-Roman-30"/>
      <use x="422.509765625" xlink:href="#BitstreamVeraSans-Roman-2e"/>
      <use x="454.296875" xlink:href="#BitstreamVeraSans-Roman-30"/>
     </g>
    </g>
    <g id="line2d_54">
     <path d="M 206.28 220.38075 
L 226.44 220.38075 
" style="fill:none;stroke:#f50fe6;stroke-linecap:square;"/>
    </g>
    <g id="line2d_55"/>
    <g id="text_25">
     <!-- Std: 600.0 -->
     <defs>
      <path d="M 33.015625 40.375 
Q 26.375 40.375 22.484375 35.828125 
Q 18.609375 31.296875 18.609375 23.390625 
Q 18.609375 15.53125 22.484375 10.953125 
Q 26.375 6.390625 33.015625 6.390625 
Q 39.65625 6.390625 43.53125 10.953125 
Q 47.40625 15.53125 47.40625 23.390625 
Q 47.40625 31.296875 43.53125 35.828125 
Q 39.65625 40.375 33.015625 40.375 
M 52.59375 71.296875 
L 52.59375 62.3125 
Q 48.875 64.0625 45.09375 64.984375 
Q 41.3125 65.921875 37.59375 65.921875 
Q 27.828125 65.921875 22.671875 59.328125 
Q 17.53125 52.734375 16.796875 39.40625 
Q 19.671875 43.65625 24.015625 45.921875 
Q 28.375 48.1875 33.59375 48.1875 
Q 44.578125 48.1875 50.953125 41.515625 
Q 57.328125 34.859375 57.328125 23.390625 
Q 57.328125 12.15625 50.6875 5.359375 
Q 44.046875 -1.421875 33.015625 -1.421875 
Q 20.359375 -1.421875 13.671875 8.265625 
Q 6.984375 17.96875 6.984375 36.375 
Q 6.984375 53.65625 15.1875 63.9375 
Q 23.390625 74.21875 37.203125 74.21875 
Q 40.921875 74.21875 44.703125 73.484375 
Q 48.484375 72.75 52.59375 71.296875 
" id="BitstreamVeraSans-Roman-36"/>
     </defs>
     <g transform="translate(242.28 225.42075)scale(0.144 -0.144)">
      <use xlink:href="#BitstreamVeraSans-Roman-53"/>
      <use x="63.4765625" xlink:href="#BitstreamVeraSans-Roman-74"/>
      <use x="102.685546875" xlink:href="#BitstreamVeraSans-Roman-64"/>
      <use x="166.162109375" xlink:href="#BitstreamVeraSans-Roman-3a"/>
      <use x="199.853515625" xlink:href="#BitstreamVeraSans-Roman-20"/>
      <use x="231.640625" xlink:href="#BitstreamVeraSans-Roman-36"/>
      <use x="295.263671875" xlink:href="#BitstreamVeraSans-Roman-30"/>
      <use x="358.88671875" xlink:href="#BitstreamVeraSans-Roman-30"/>
      <use x="422.509765625" xlink:href="#BitstreamVeraSans-Roman-2e"/>
      <use x="454.296875" xlink:href="#BitstreamVeraSans-Roman-30"/>
     </g>
    </g>
    <g id="line2d_56">
     <path d="M 206.28 241.51725 
L 226.44 241.51725 
" style="fill:none;stroke:#1000a0;stroke-linecap:square;"/>
    </g>
    <g id="line2d_57"/>
    <g id="text_26">
     <!-- Std: 700.0 -->
     <defs>
      <path d="M 8.203125 72.90625 
L 55.078125 72.90625 
L 55.078125 68.703125 
L 28.609375 0 
L 18.3125 0 
L 43.21875 64.59375 
L 8.203125 64.59375 
z
" id="BitstreamVeraSans-Roman-37"/>
     </defs>
     <g transform="translate(242.28 246.55725)scale(0.144 -0.144)">
      <use xlink:href="#BitstreamVeraSans-Roman-53"/>
      <use x="63.4765625" xlink:href="#BitstreamVeraSans-Roman-74"/>
      <use x="102.685546875" xlink:href="#BitstreamVeraSans-Roman-64"/>
      <use x="166.162109375" xlink:href="#BitstreamVeraSans-Roman-3a"/>
      <use x="199.853515625" xlink:href="#BitstreamVeraSans-Roman-20"/>
      <use x="231.640625" xlink:href="#BitstreamVeraSans-Roman-37"/>
      <use x="295.263671875" xlink:href="#BitstreamVeraSans-Roman-30"/>
      <use x="358.88671875" xlink:href="#BitstreamVeraSans-Roman-30"/>
      <use x="422.509765625" xlink:href="#BitstreamVeraSans-Roman-2e"/>
      <use x="454.296875" xlink:href="#BitstreamVeraSans-Roman-30"/>
     </g>
    </g>
    <g id="line2d_58">
     <path d="M 206.28 262.65375 
L 226.44 262.65375 
" style="fill:none;stroke:#595866;stroke-linecap:square;"/>
    </g>
    <g id="line2d_59"/>
    <g id="text_27">
     <!-- Std: 800.0 -->
     <defs>
      <path d="M 31.78125 34.625 
Q 24.75 34.625 20.71875 30.859375 
Q 16.703125 27.09375 16.703125 20.515625 
Q 16.703125 13.921875 20.71875 10.15625 
Q 24.75 6.390625 31.78125 6.390625 
Q 38.8125 6.390625 42.859375 10.171875 
Q 46.921875 13.96875 46.921875 20.515625 
Q 46.921875 27.09375 42.890625 30.859375 
Q 38.875 34.625 31.78125 34.625 
M 21.921875 38.8125 
Q 15.578125 40.375 12.03125 44.71875 
Q 8.5 49.078125 8.5 55.328125 
Q 8.5 64.0625 14.71875 69.140625 
Q 20.953125 74.21875 31.78125 74.21875 
Q 42.671875 74.21875 48.875 69.140625 
Q 55.078125 64.0625 55.078125 55.328125 
Q 55.078125 49.078125 51.53125 44.71875 
Q 48 40.375 41.703125 38.8125 
Q 48.828125 37.15625 52.796875 32.3125 
Q 56.78125 27.484375 56.78125 20.515625 
Q 56.78125 9.90625 50.3125 4.234375 
Q 43.84375 -1.421875 31.78125 -1.421875 
Q 19.734375 -1.421875 13.25 4.234375 
Q 6.78125 9.90625 6.78125 20.515625 
Q 6.78125 27.484375 10.78125 32.3125 
Q 14.796875 37.15625 21.921875 38.8125 
M 18.3125 54.390625 
Q 18.3125 48.734375 21.84375 45.5625 
Q 25.390625 42.390625 31.78125 42.390625 
Q 38.140625 42.390625 41.71875 45.5625 
Q 45.3125 48.734375 45.3125 54.390625 
Q 45.3125 60.0625 41.71875 63.234375 
Q 38.140625 66.40625 31.78125 66.40625 
Q 25.390625 66.40625 21.84375 63.234375 
Q 18.3125 60.0625 18.3125 54.390625 
" id="BitstreamVeraSans-Roman-38"/>
     </defs>
     <g transform="translate(242.28 267.69375)scale(0.144 -0.144)">
      <use xlink:href="#BitstreamVeraSans-Roman-53"/>
      <use x="63.4765625" xlink:href="#BitstreamVeraSans-Roman-74"/>
      <use x="102.685546875" xlink:href="#BitstreamVeraSans-Roman-64"/>
      <use x="166.162109375" xlink:href="#BitstreamVeraSans-Roman-3a"/>
      <use x="199.853515625" xlink:href="#BitstreamVeraSans-Roman-20"/>
      <use x="231.640625" xlink:href="#BitstreamVeraSans-Roman-38"/>
      <use x="295.263671875" xlink:href="#BitstreamVeraSans-Roman-30"/>
      <use x="358.88671875" xlink:href="#BitstreamVeraSans-Roman-30"/>
      <use x="422.509765625" xlink:href="#BitstreamVeraSans-Roman-2e"/>
      <use x="454.296875" xlink:href="#BitstreamVeraSans-Roman-30"/>
     </g>
    </g>
    <g id="line2d_60">
     <path d="M 206.28 283.79025 
L 226.44 283.79025 
" style="fill:none;stroke:#147f2a;stroke-linecap:square;"/>
    </g>
    <g id="line2d_61"/>
    <g id="text_28">
     <!-- Std: 900.0 -->
     <defs>
      <path d="M 10.984375 1.515625 
L 10.984375 10.5 
Q 14.703125 8.734375 18.5 7.8125 
Q 22.3125 6.890625 25.984375 6.890625 
Q 35.75 6.890625 40.890625 13.453125 
Q 46.046875 20.015625 46.78125 33.40625 
Q 43.953125 29.203125 39.59375 26.953125 
Q 35.25 24.703125 29.984375 24.703125 
Q 19.046875 24.703125 12.671875 31.3125 
Q 6.296875 37.9375 6.296875 49.421875 
Q 6.296875 60.640625 12.9375 67.421875 
Q 19.578125 74.21875 30.609375 74.21875 
Q 43.265625 74.21875 49.921875 64.515625 
Q 56.59375 54.828125 56.59375 36.375 
Q 56.59375 19.140625 48.40625 8.859375 
Q 40.234375 -1.421875 26.421875 -1.421875 
Q 22.703125 -1.421875 18.890625 -0.6875 
Q 15.09375 0.046875 10.984375 1.515625 
M 30.609375 32.421875 
Q 37.25 32.421875 41.125 36.953125 
Q 45.015625 41.5 45.015625 49.421875 
Q 45.015625 57.28125 41.125 61.84375 
Q 37.25 66.40625 30.609375 66.40625 
Q 23.96875 66.40625 20.09375 61.84375 
Q 16.21875 57.28125 16.21875 49.421875 
Q 16.21875 41.5 20.09375 36.953125 
Q 23.96875 32.421875 30.609375 32.421875 
" id="BitstreamVeraSans-Roman-39"/>
     </defs>
     <g transform="translate(242.28 288.83025)scale(0.144 -0.144)">
      <use xlink:href="#BitstreamVeraSans-Roman-53"/>
      <use x="63.4765625" xlink:href="#BitstreamVeraSans-Roman-74"/>
      <use x="102.685546875" xlink:href="#BitstreamVeraSans-Roman-64"/>
      <use x="166.162109375" xlink:href="#BitstreamVeraSans-Roman-3a"/>
      <use x="199.853515625" xlink:href="#BitstreamVeraSans-Roman-20"/>
      <use x="231.640625" xlink:href="#BitstreamVeraSans-Roman-39"/>
      <use x="295.263671875" xlink:href="#BitstreamVeraSans-Roman-30"/>
      <use x="358.88671875" xlink:href="#BitstreamVeraSans-Roman-30"/>
      <use x="422.509765625" xlink:href="#BitstreamVeraSans-Roman-2e"/>
      <use x="454.296875" xlink:href="#BitstreamVeraSans-Roman-30"/>
     </g>
    </g>
    <g id="line2d_62">
     <path d="M 206.28 304.92675 
L 226.44 304.92675 
" style="fill:none;stroke:#00f6aa;stroke-linecap:square;"/>
    </g>
    <g id="line2d_63"/>
    <g id="text_29">
     <!-- Std: 1000.0 -->
     <g transform="translate(242.28 309.96675)scale(0.144 -0.144)">
      <use xlink:href="#BitstreamVeraSans-Roman-53"/>
      <use x="63.4765625" xlink:href="#BitstreamVeraSans-Roman-74"/>
      <use x="102.685546875" xlink:href="#BitstreamVeraSans-Roman-64"/>
      <use x="166.162109375" xlink:href="#BitstreamVeraSans-Roman-3a"/>
      <use x="199.853515625" xlink:href="#BitstreamVeraSans-Roman-20"/>
      <use x="231.640625" xlink:href="#BitstreamVeraSans-Roman-31"/>
      <use x="295.263671875" xlink:href="#BitstreamVeraSans-Roman-30"/>
      <use x="358.88671875" xlink:href="#BitstreamVeraSans-Roman-30"/>
      <use x="422.509765625" xlink:href="#BitstreamVeraSans-Roman-30"/>
      <use x="486.1328125" xlink:href="#BitstreamVeraSans-Roman-2e"/>
      <use x="517.919921875" xlink:href="#BitstreamVeraSans-Roman-30"/>
     </g>
    </g>
   </g>
  </g>
 </g>
 <defs>
  <clipPath id="p4d31dda0ef">
   <rect height="597.6" width="1171.8" x="189.0" y="74.7"/>
  </clipPath>
 </defs>
</svg>
