<?xml version="1.0" encoding="utf-8" standalone="no"?>
<!DOCTYPE svg PUBLIC "-//W3C//DTD SVG 1.1//EN"
  "http://www.w3.org/Graphics/SVG/1.1/DTD/svg11.dtd">
<!-- Created with matplotlib (http://matplotlib.org/) -->
<svg height="612pt" version="1.1" viewBox="0 0 921 612" width="921pt" xmlns="http://www.w3.org/2000/svg" xmlns:xlink="http://www.w3.org/1999/xlink">
 <defs>
  <style type="text/css">
*{stroke-linecap:butt;stroke-linejoin:round;stroke-miterlimit:100000;}
  </style>
 </defs>
 <g id="figure_1">
  <g id="patch_1">
   <path d="M 0 612.9 
L 921.6 612.9 
L 921.6 0 
L 0 0 
z
" style="fill:#ffffff;"/>
  </g>
  <g id="axes_1">
   <g id="patch_2">
    <path d="M 115.2 551.61 
L 829.44 551.61 
L 829.44 61.29 
L 115.2 61.29 
z
" style="fill:#ffffff;"/>
   </g>
   <g id="line2d_1">
    <path clip-path="url(#p65e6d711f6)" d="M 115.2 118.999293 
L 132.313668 120.096731 
L 146.992943 120.529073 
L 159.844933 121.214104 
L 171.274613 122.922481 
L 181.565657 121.981631 
L 199.506137 123.777673 
L 207.42977 125.008726 
L 214.789171 125.902191 
L 221.659384 125.962718 
L 228.101408 126.808309 
L 234.165501 128.118075 
L 239.893559 128.559272 
L 245.320877 128.725643 
L 250.477466 129.194003 
L 255.389057 130.843695 
L 260.077878 130.945476 
L 264.563263 132.381273 
L 268.862134 132.81882 
L 272.989385 132.553938 
L 276.958194 132.990405 
L 284.466099 135.033816 
L 288.025041 135.655842 
L 291.465549 137.075634 
L 294.795252 138.63238 
L 298.021064 137.907614 
L 301.149274 138.931366 
L 307.135328 139.334441 
L 312.793709 140.33119 
L 315.510863 141.599641 
L 318.158437 142.227099 
L 320.739907 143.741625 
L 323.258492 142.03829 
L 325.717185 143.405655 
L 328.118768 144.456062 
L 332.760802 145.5901 
L 335.005936 146.379476 
L 337.203354 147.525891 
L 339.355042 147.351744 
L 341.462865 147.877398 
L 353.28 150.007359 
L 370.393668 158.101678 
L 385.072943 165.495459 
L 397.924933 172.951838 
L 409.354613 175.134538 
L 419.645657 181.770165 
L 429.004519 185.235994 
L 437.586137 189.205855 
L 445.50977 191.244476 
L 452.869171 194.791296 
L 459.739384 194.301969 
L 466.181408 198.828438 
L 472.245501 199.631337 
L 477.973559 200.184384 
L 483.400877 199.363419 
L 488.557466 200.261555 
L 493.469057 203.014444 
L 498.157878 201.926851 
L 502.643263 204.087003 
L 506.942134 203.09081 
L 511.069385 201.443062 
L 515.038194 206.09113 
L 518.860278 208.595067 
L 522.546099 207.652169 
L 526.105041 204.978052 
L 529.545549 206.654869 
L 532.875252 211.223439 
L 536.101064 205.727887 
L 539.229274 212.503316 
L 542.265615 208.782552 
L 545.215328 212.827941 
L 548.083221 212.573228 
L 550.873709 215.73974 
L 553.590863 216.761443 
L 556.238437 216.453835 
L 558.819907 213.69509 
L 561.338492 216.618179 
L 563.797185 222.501552 
L 566.198768 220.813782 
L 568.545834 226.813717 
L 570.840802 224.535475 
L 573.085936 228.18115 
L 575.283354 220.878209 
L 577.435042 231.98687 
L 579.542865 222.386899 
L 591.36 227.966952 
L 608.473668 246.721437 
L 623.152943 254.279874 
L 636.004933 267.007708 
L 647.434613 284.703207 
L 657.725657 289.159807 
L 667.084519 309.352485 
L 675.666137 326.533226 
L 683.58977 343.238461 
L 690.949171 347.409031 
L 697.819384 354.481127 
L 704.261408 386.096114 
L 710.325501 400.749627 
L 716.053559 402.650308 
L 721.480877 419.472382 
L 726.637466 424.29273 
L 731.549057 455.547345 
L 736.237878 465.765252 
L 740.723263 483.947297 
L 745.022134 470.490455 
L 749.149385 498.289693 
L 753.118194 467.664266 
L 756.940278 514.945807 
L 760.626099 521.052687 
L 764.185041 514.319464 
L 767.625549 233.523418 
L 770.955252 226.481264 
L 774.181064 218.98762 
L 777.309274 217.407675 
L 780.345615 224.486611 
L 783.295328 248.659224 
L 786.163221 238.120064 
L 788.953709 249.175343 
L 791.670863 245.974118 
L 794.318437 271.106451 
L 796.899907 283.409041 
L 799.418492 274.213771 
L 801.877185 317.409726 
L 804.278768 309.968241 
L 806.625834 321.239283 
L 808.920802 336.010138 
L 811.165936 364.335351 
L 813.363354 377.933908 
L 815.515042 393.73342 
L 817.622865 343.256918 
L 819.688575 409.886585 
L 821.713822 292.990823 
L 823.700162 463.266795 
L 825.64906 479.886561 
L 827.561903 418.75873 
L 827.561903 418.75873 
" style="fill:none;stroke:#ff1e1e;stroke-linecap:square;"/>
   </g>
   <g id="line2d_2">
    <path clip-path="url(#p65e6d711f6)" d="M 115.2 118.470373 
L 132.313668 120.135294 
L 159.844933 121.709122 
L 171.274613 119.664305 
L 181.565657 122.396462 
L 190.924519 123.767791 
L 199.506137 124.015599 
L 207.42977 124.651951 
L 214.789171 126.043415 
L 221.659384 126.998353 
L 228.101408 125.665848 
L 234.165501 128.510308 
L 239.893559 127.436244 
L 245.320877 127.603922 
L 250.477466 129.651261 
L 255.389057 131.112558 
L 260.077878 130.431296 
L 264.563263 132.50891 
L 268.862134 132.885404 
L 272.989385 132.60571 
L 276.958194 134.419392 
L 280.780278 132.729916 
L 284.466099 134.52436 
L 288.025041 134.873197 
L 291.465549 134.641061 
L 294.795252 136.131463 
L 298.021064 136.034844 
L 301.149274 137.358163 
L 304.185615 137.13029 
L 307.135328 137.647874 
L 310.003221 139.612904 
L 315.510863 139.186125 
L 318.158437 140.030854 
L 320.739907 139.638858 
L 323.258492 140.647651 
L 325.717185 142.342061 
L 328.118768 142.515743 
L 330.465834 143.902994 
L 332.760802 144.777584 
L 335.005936 143.560739 
L 337.203354 143.158302 
L 339.355042 143.052789 
L 341.462865 144.801258 
L 353.28 145.613279 
L 385.072943 156.054956 
L 397.924933 156.442216 
L 409.354613 159.308489 
L 419.645657 164.334248 
L 429.004519 166.148724 
L 437.586137 165.079268 
L 445.50977 171.272 
L 452.869171 170.417531 
L 459.739384 173.241028 
L 466.181408 176.055303 
L 472.245501 182.586694 
L 477.973559 182.798992 
L 483.400877 186.003031 
L 493.469057 191.568781 
L 498.157878 191.499264 
L 502.643263 196.347141 
L 506.942134 197.378644 
L 511.069385 191.26865 
L 515.038194 200.724717 
L 518.860278 197.615223 
L 522.546099 196.217174 
L 526.105041 196.609688 
L 529.545549 201.714649 
L 532.875252 195.611624 
L 536.101064 203.186569 
L 539.229274 206.109022 
L 542.265615 202.844271 
L 545.215328 201.362288 
L 548.083221 206.312995 
L 550.873709 201.64826 
L 553.590863 203.834267 
L 556.238437 202.248475 
L 558.819907 207.118344 
L 561.338492 205.356223 
L 563.797185 210.951058 
L 566.198768 208.548469 
L 568.545834 216.675737 
L 570.840802 213.969841 
L 573.085936 213.950141 
L 575.283354 217.31245 
L 577.435042 213.921647 
L 579.542865 220.314361 
L 591.36 223.353892 
L 608.473668 235.601493 
L 623.152943 244.620036 
L 636.004933 261.795407 
L 647.434613 269.144566 
L 657.725657 279.015908 
L 667.084519 296.463714 
L 675.666137 325.058301 
L 683.58977 309.026088 
L 690.949171 331.290164 
L 697.819384 343.373276 
L 704.261408 359.755065 
L 710.325501 366.828418 
L 716.053559 391.231894 
L 721.480877 391.250706 
L 726.637466 431.583254 
L 731.549057 427.64298 
L 736.237878 461.70106 
L 740.723263 452.596802 
L 745.022134 476.372293 
L 749.149385 495.391535 
L 753.118194 501.70363 
L 756.940278 508.015697 
L 760.626099 519.252796 
L 764.185041 522.929242 
L 767.625549 513.866326 
L 770.955252 539.898191 
L 774.181064 216.727738 
L 777.309274 547.772234 
L 780.345615 212.615003 
L 783.295328 215.529304 
L 786.163221 249.747574 
L 788.953709 227.029443 
L 791.670863 243.327386 
L 794.318437 263.313576 
L 796.899907 297.513758 
L 799.418492 279.226787 
L 801.877185 279.991956 
L 804.278768 364.263827 
L 806.625834 313.111288 
L 808.920802 362.80051 
L 811.165936 310.397844 
L 813.363354 306.347967 
L 815.515042 415.519004 
L 817.622865 350.689356 
L 819.688575 380.980998 
L 821.713822 344.46179 
L 823.700162 400.79249 
L 825.64906 426.000352 
L 827.561903 467.052206 
L 827.561903 467.052206 
" style="fill:none;stroke:#581845;stroke-linecap:square;"/>
   </g>
   <g id="line2d_3">
    <path clip-path="url(#p65e6d711f6)" d="M 115.2 119.572547 
L 132.313668 120.593659 
L 146.992943 120.50281 
L 159.844933 124.216164 
L 171.274613 123.466907 
L 181.565657 119.523214 
L 190.924519 123.63966 
L 199.506137 124.902213 
L 207.42977 128.112934 
L 214.789171 125.040244 
L 221.659384 126.022541 
L 228.101408 125.866342 
L 234.165501 126.287964 
L 239.893559 126.559665 
L 245.320877 128.538562 
L 250.477466 126.733002 
L 255.389057 130.288853 
L 260.077878 130.488106 
L 264.563263 129.636495 
L 268.862134 130.899268 
L 272.989385 131.631708 
L 276.958194 133.2911 
L 280.780278 132.234464 
L 284.466099 133.312768 
L 288.025041 134.082446 
L 291.465549 133.761601 
L 294.795252 135.78855 
L 298.021064 134.183849 
L 301.149274 136.051301 
L 304.185615 137.12557 
L 307.135328 137.28026 
L 310.003221 138.076365 
L 312.793709 136.462334 
L 315.510863 137.510768 
L 318.158437 137.602357 
L 320.739907 140.163127 
L 323.258492 140.132635 
L 325.717185 137.797464 
L 328.118768 138.811481 
L 330.465834 139.032144 
L 332.760802 141.572004 
L 335.005936 142.025671 
L 337.203354 142.032284 
L 339.355042 142.218045 
L 341.462865 143.501433 
L 353.28 144.973286 
L 370.393668 146.633354 
L 385.072943 150.680543 
L 397.924933 155.465219 
L 409.354613 151.170875 
L 419.645657 154.312712 
L 429.004519 154.92459 
L 437.586137 157.055362 
L 445.50977 161.172326 
L 452.869171 164.496632 
L 466.181408 162.322966 
L 477.973559 168.074668 
L 483.400877 172.049881 
L 488.557466 172.997392 
L 493.469057 178.375782 
L 498.157878 174.761821 
L 502.643263 183.142286 
L 506.942134 179.585849 
L 511.069385 179.014533 
L 515.038194 188.903575 
L 518.860278 194.051757 
L 522.546099 191.456159 
L 526.105041 192.847769 
L 529.545549 194.034142 
L 536.101064 199.508211 
L 539.229274 201.849324 
L 542.265615 197.629898 
L 545.215328 198.805707 
L 548.083221 195.3215 
L 550.873709 202.174391 
L 553.590863 196.53809 
L 556.238437 205.911061 
L 558.819907 202.203919 
L 561.338492 203.955357 
L 563.797185 207.326663 
L 566.198768 203.287416 
L 568.545834 202.222212 
L 570.840802 205.969817 
L 573.085936 216.664302 
L 575.283354 206.959636 
L 577.435042 214.36958 
L 579.542865 203.603112 
L 591.36 203.245524 
L 608.473668 223.866545 
L 623.152943 228.049716 
L 636.004933 248.493374 
L 647.434613 255.720188 
L 657.725657 271.851305 
L 667.084519 286.744708 
L 675.666137 300.060643 
L 683.58977 297.616446 
L 690.949171 291.401115 
L 697.819384 348.554974 
L 704.261408 355.435513 
L 710.325501 366.861747 
L 716.053559 389.450612 
L 721.480877 415.193336 
L 726.637466 424.157635 
L 731.549057 425.650972 
L 736.237878 461.336263 
L 740.723263 462.796582 
L 745.022134 490.189356 
L 749.149385 492.430562 
L 753.118194 490.202969 
L 756.940278 512.590473 
L 760.626099 495.530038 
L 764.185041 521.498666 
L 767.625549 528.465971 
L 770.955252 533.767872 
L 774.181064 544.547179 
L 777.309274 528.030116 
L 780.345615 237.128151 
L 783.295328 232.049589 
L 786.163221 238.050768 
L 788.953709 262.05064 
L 791.670863 254.36685 
L 794.318437 258.529074 
L 796.899907 247.035804 
L 799.418492 272.664952 
L 801.877185 231.901761 
L 806.625834 323.29091 
L 808.920802 549.755122 
L 811.165936 283.18392 
L 813.363354 301.649245 
L 815.515042 340.523581 
L 817.622865 319.000003 
L 819.688575 357.226071 
L 821.713822 422.041043 
L 823.700162 449.886739 
L 825.64906 359.502886 
L 827.561903 390.771237 
L 827.561903 390.771237 
" style="fill:none;stroke:#26b7d8;stroke-linecap:square;"/>
   </g>
   <g id="line2d_4">
    <path clip-path="url(#p65e6d711f6)" d="M 115.2 119.533934 
L 132.313668 119.098609 
L 146.992943 122.661452 
L 159.844933 122.931048 
L 171.274613 121.956342 
L 181.565657 123.379034 
L 190.924519 126.97202 
L 207.42977 124.022443 
L 214.789171 125.454721 
L 221.659384 127.29018 
L 228.101408 129.262945 
L 234.165501 126.787639 
L 239.893559 125.970158 
L 245.320877 128.742279 
L 250.477466 130.11509 
L 255.389057 131.169657 
L 260.077878 130.28008 
L 264.563263 132.342435 
L 268.862134 130.7868 
L 272.989385 133.438925 
L 276.958194 133.145701 
L 280.780278 135.251152 
L 288.025041 133.966768 
L 291.465549 135.016558 
L 294.795252 132.576188 
L 298.021064 133.17755 
L 301.149274 134.58624 
L 304.185615 136.441609 
L 307.135328 135.273908 
L 310.003221 136.348173 
L 312.793709 137.888135 
L 315.510863 142.048861 
L 318.158437 138.208689 
L 320.739907 136.757471 
L 323.258492 141.12403 
L 328.118768 141.551673 
L 330.465834 140.924857 
L 332.760802 140.491365 
L 335.005936 141.709146 
L 337.203354 140.766965 
L 339.355042 141.101224 
L 341.462865 140.602969 
L 353.28 143.91153 
L 370.393668 144.408171 
L 385.072943 147.849739 
L 397.924933 149.293335 
L 409.354613 150.961424 
L 419.645657 151.851126 
L 429.004519 153.381006 
L 445.50977 153.379594 
L 452.869171 158.282092 
L 459.739384 155.720348 
L 466.181408 157.325797 
L 477.973559 159.636209 
L 483.400877 166.700746 
L 488.557466 168.125666 
L 493.469057 164.706239 
L 498.157878 165.608708 
L 502.643263 171.031246 
L 506.942134 173.400086 
L 511.069385 175.199396 
L 515.038194 174.304546 
L 518.860278 179.121407 
L 522.546099 185.174125 
L 526.105041 185.353037 
L 529.545549 190.109607 
L 532.875252 180.748987 
L 536.101064 188.537534 
L 539.229274 191.653654 
L 542.265615 189.887685 
L 545.215328 191.593527 
L 548.083221 200.196174 
L 550.873709 192.992966 
L 553.590863 202.524285 
L 556.238437 195.153578 
L 558.819907 202.195012 
L 561.338492 203.517164 
L 563.797185 209.375019 
L 566.198768 200.959753 
L 568.545834 202.179136 
L 570.840802 206.407408 
L 573.085936 208.002057 
L 575.283354 199.666919 
L 577.435042 205.089909 
L 579.542865 207.237051 
L 591.36 202.191925 
L 608.473668 226.26076 
L 623.152943 236.647897 
L 636.004933 240.606797 
L 647.434613 248.104206 
L 657.725657 294.565661 
L 667.084519 274.875042 
L 675.666137 285.730427 
L 683.58977 305.072722 
L 690.949171 337.913486 
L 697.819384 314.563026 
L 704.261408 348.685777 
L 710.325501 351.55985 
L 716.053559 341.121035 
L 721.480877 406.823939 
L 726.637466 427.520409 
L 731.549057 409.981336 
L 736.237878 426.800422 
L 740.723263 452.920704 
L 745.022134 460.375665 
L 749.149385 458.841302 
L 753.118194 479.916009 
L 760.626099 514.012385 
L 764.185041 522.32884 
L 767.625549 498.144271 
L 770.955252 516.265345 
L 774.181064 531.375111 
L 777.309274 522.081804 
L 780.345615 550.786303 
L 783.295328 216.685653 
L 786.163221 540.244065 
L 788.953709 210.992863 
L 791.670863 209.757378 
L 794.318437 239.372699 
L 796.899907 269.750311 
L 799.418492 243.02024 
L 801.877185 268.398692 
L 804.278768 370.832609 
L 806.625834 223.042491 
L 808.920802 264.308999 
L 811.165936 396.968462 
L 813.363354 297.986733 
L 815.515042 352.458352 
L 817.622865 345.608546 
L 819.688575 321.341471 
L 821.713822 389.998155 
L 823.700162 495.384136 
L 825.64906 439.317688 
L 827.561903 283.234334 
L 827.561903 283.234334 
" style="fill:none;stroke:#8414a4;stroke-linecap:square;"/>
   </g>
   <g id="line2d_5">
    <path clip-path="url(#p65e6d711f6)" d="M 115.2 123.493075 
L 132.313668 121.436924 
L 146.992943 120.28856 
L 159.844933 123.059373 
L 171.274613 124.628707 
L 181.565657 121.880162 
L 190.924519 118.376824 
L 199.506137 123.481228 
L 207.42977 125.008745 
L 214.789171 125.922795 
L 221.659384 125.006767 
L 228.101408 128.047457 
L 234.165501 125.091343 
L 239.893559 128.97446 
L 245.320877 129.36562 
L 250.477466 133.191868 
L 255.389057 127.047279 
L 260.077878 132.000217 
L 264.563263 132.454219 
L 268.862134 130.663605 
L 272.989385 134.833583 
L 276.958194 132.26839 
L 280.780278 134.824857 
L 284.466099 133.473427 
L 288.025041 130.332893 
L 291.465549 135.725608 
L 294.795252 133.567428 
L 298.021064 133.847712 
L 301.149274 136.081184 
L 304.185615 138.745956 
L 307.135328 135.418658 
L 310.003221 133.855885 
L 315.510863 139.020028 
L 318.158437 139.399328 
L 320.739907 135.383113 
L 323.258492 137.718214 
L 325.717185 137.42715 
L 328.118768 138.740925 
L 330.465834 140.657884 
L 332.760802 140.059993 
L 335.005936 143.503489 
L 337.203354 143.204683 
L 339.355042 143.165872 
L 341.462865 140.066358 
L 353.28 142.730551 
L 370.393668 145.604436 
L 385.072943 144.207873 
L 397.924933 148.06022 
L 409.354613 145.096383 
L 419.645657 151.769129 
L 429.004519 149.860194 
L 437.586137 147.576154 
L 445.50977 151.351857 
L 452.869171 152.799667 
L 459.739384 158.168766 
L 466.181408 156.661329 
L 472.245501 148.378971 
L 477.973559 157.483484 
L 483.400877 153.442298 
L 488.557466 161.760823 
L 493.469057 162.54362 
L 498.157878 164.013217 
L 502.643263 163.419348 
L 506.942134 170.450971 
L 511.069385 168.465688 
L 515.038194 171.954649 
L 518.860278 169.093931 
L 522.546099 171.173978 
L 526.105041 180.047198 
L 529.545549 177.060963 
L 532.875252 176.132694 
L 536.101064 180.609251 
L 539.229274 184.745572 
L 542.265615 190.02182 
L 545.215328 183.451388 
L 548.083221 194.594248 
L 550.873709 187.313745 
L 553.590863 189.68526 
L 556.238437 195.133573 
L 558.819907 192.932762 
L 561.338492 188.498138 
L 563.797185 202.565109 
L 566.198768 200.055178 
L 568.545834 189.738845 
L 570.840802 203.620514 
L 573.085936 205.000038 
L 575.283354 214.368724 
L 577.435042 203.296493 
L 579.542865 212.917696 
L 591.36 209.266383 
L 608.473668 216.54306 
L 623.152943 228.291144 
L 636.004933 243.247707 
L 647.434613 251.578188 
L 657.725657 255.027747 
L 667.084519 269.539371 
L 675.666137 287.090897 
L 683.58977 318.374322 
L 690.949171 290.89355 
L 697.819384 292.237295 
L 704.261408 368.940616 
L 710.325501 366.076887 
L 716.053559 361.138548 
L 721.480877 365.83241 
L 726.637466 416.104208 
L 731.549057 363.185458 
L 736.237878 437.722324 
L 740.723263 466.398549 
L 745.022134 471.311526 
L 749.149385 438.921581 
L 753.118194 447.591838 
L 756.940278 530.591292 
L 760.626099 475.398612 
L 764.185041 487.97206 
L 767.625549 522.642532 
L 770.955252 534.651087 
L 774.181064 215.022225 
L 777.309274 222.341356 
L 780.345615 546.394634 
L 783.295328 257.007721 
L 786.163221 228.71065 
L 788.953709 251.082707 
L 791.670863 240.468125 
L 794.318437 542.899657 
L 796.899907 271.883037 
L 799.418492 264.903308 
L 801.877185 263.008314 
L 804.278768 539.668884 
L 806.625834 366.515576 
L 808.920802 244.99843 
L 811.165936 301.140686 
L 813.363354 311.842466 
L 815.515042 377.144546 
L 817.622865 255.132689 
L 819.688575 243.70275 
L 821.713822 275.041496 
L 823.700162 267.051511 
L 825.64906 411.507195 
L 827.561903 414.021114 
L 827.561903 414.021114 
" style="fill:none;stroke:#ffd23a;stroke-linecap:square;"/>
   </g>
   <g id="line2d_6">
    <path clip-path="url(#p65e6d711f6)" d="M 115.2 115.99145 
L 132.313668 122.680775 
L 146.992943 121.144388 
L 159.844933 121.9787 
L 171.274613 121.732496 
L 181.565657 123.119975 
L 190.924519 120.090818 
L 199.506137 125.11727 
L 207.42977 123.867513 
L 214.789171 124.583518 
L 221.659384 128.284941 
L 228.101408 123.462871 
L 234.165501 125.245361 
L 239.893559 123.792247 
L 245.320877 128.517965 
L 250.477466 126.129279 
L 255.389057 131.416684 
L 260.077878 131.219584 
L 264.563263 125.320441 
L 268.862134 131.328521 
L 272.989385 132.199433 
L 276.958194 132.394245 
L 280.780278 135.964104 
L 284.466099 132.672302 
L 288.025041 131.039448 
L 291.465549 136.735678 
L 294.795252 140.042385 
L 301.149274 135.932603 
L 304.185615 137.203396 
L 307.135328 133.034107 
L 310.003221 133.967367 
L 312.793709 141.89116 
L 315.510863 136.142904 
L 318.158437 139.511249 
L 320.739907 137.730404 
L 323.258492 140.07456 
L 325.717185 134.918421 
L 328.118768 140.744177 
L 330.465834 140.702671 
L 332.760802 139.277795 
L 335.005936 137.384373 
L 337.203354 137.086824 
L 339.355042 140.676254 
L 341.462865 137.216688 
L 353.28 146.002355 
L 370.393668 145.451635 
L 385.072943 145.935222 
L 397.924933 148.628816 
L 409.354613 146.01014 
L 419.645657 147.070221 
L 429.004519 149.809962 
L 437.586137 153.617249 
L 445.50977 151.802205 
L 452.869171 151.458579 
L 459.739384 148.754993 
L 466.181408 152.647715 
L 472.245501 153.283754 
L 477.973559 153.397492 
L 483.400877 154.605878 
L 488.557466 153.097185 
L 493.469057 159.672287 
L 498.157878 157.910996 
L 502.643263 153.254725 
L 506.942134 158.515651 
L 511.069385 160.342631 
L 515.038194 162.426943 
L 518.860278 167.587498 
L 522.546099 174.969663 
L 526.105041 169.947235 
L 529.545549 166.99685 
L 532.875252 173.980849 
L 536.101064 170.434821 
L 539.229274 183.924464 
L 542.265615 178.396439 
L 545.215328 175.278435 
L 548.083221 181.274256 
L 550.873709 182.646723 
L 556.238437 188.454542 
L 558.819907 188.810379 
L 561.338492 188.717859 
L 563.797185 199.191091 
L 566.198768 188.639111 
L 568.545834 199.676003 
L 570.840802 196.979858 
L 573.085936 198.015436 
L 575.283354 199.247246 
L 577.435042 201.698015 
L 579.542865 199.679944 
L 591.36 207.903669 
L 608.473668 204.956484 
L 623.152943 224.770608 
L 636.004933 236.372819 
L 647.434613 247.496374 
L 657.725657 253.755759 
L 667.084519 278.007405 
L 675.666137 268.554769 
L 683.58977 284.433113 
L 690.949171 301.371556 
L 704.261408 342.09976 
L 710.325501 341.789404 
L 716.053559 328.112132 
L 721.480877 365.201107 
L 726.637466 399.211135 
L 731.549057 348.329635 
L 736.237878 435.130499 
L 740.723263 443.530457 
L 745.022134 439.255534 
L 749.149385 461.510248 
L 753.118194 444.92952 
L 756.940278 459.506163 
L 760.626099 478.655202 
L 764.185041 479.021953 
L 767.625549 498.949298 
L 770.955252 503.152237 
L 774.181064 523.460936 
L 777.309274 505.500931 
L 780.345615 533.395727 
L 783.295328 229.886275 
L 786.163221 245.448545 
L 788.953709 242.571534 
L 791.670863 234.958804 
L 794.318437 542.551932 
L 796.899907 274.482453 
L 799.418492 239.937408 
L 801.877185 530.156382 
L 804.278768 360.073111 
L 806.625834 274.911105 
L 808.920802 271.577871 
L 811.165936 274.538072 
L 813.363354 290.778421 
L 815.515042 293.629813 
L 817.622865 278.393478 
L 819.688575 448.573358 
L 821.713822 321.487202 
L 823.700162 275.253474 
L 825.64906 365.32061 
L 827.561903 351.363118 
L 827.561903 351.363118 
" style="fill:none;stroke:#ff9300;stroke-linecap:square;"/>
   </g>
   <g id="line2d_7">
    <path clip-path="url(#p65e6d711f6)" d="M 115.2 123.089855 
L 132.313668 119.160649 
L 146.992943 118.484414 
L 159.844933 122.002637 
L 171.274613 116.207929 
L 181.565657 119.884925 
L 190.924519 127.001022 
L 207.42977 119.688244 
L 214.789171 126.484521 
L 221.659384 126.539066 
L 228.101408 127.186518 
L 234.165501 129.096326 
L 239.893559 126.21234 
L 245.320877 127.853312 
L 250.477466 128.410491 
L 255.389057 135.168341 
L 260.077878 131.586352 
L 264.563263 131.252056 
L 268.862134 134.933592 
L 272.989385 128.209068 
L 276.958194 126.621287 
L 280.780278 133.084921 
L 284.466099 132.578772 
L 288.025041 135.149167 
L 291.465549 131.44898 
L 294.795252 132.26809 
L 298.021064 133.699862 
L 301.149274 130.297674 
L 304.185615 135.071876 
L 307.135328 133.811419 
L 310.003221 138.356362 
L 312.793709 135.8298 
L 315.510863 136.078175 
L 318.158437 137.472395 
L 320.739907 140.146204 
L 323.258492 142.426647 
L 325.717185 137.29844 
L 328.118768 135.018393 
L 330.465834 143.142855 
L 332.760802 143.364899 
L 335.005936 138.990371 
L 337.203354 138.042567 
L 339.355042 139.431468 
L 341.462865 138.501255 
L 353.28 144.601482 
L 370.393668 140.493963 
L 385.072943 144.346088 
L 397.924933 142.571216 
L 409.354613 148.642967 
L 419.645657 150.405442 
L 429.004519 147.704386 
L 437.586137 154.043755 
L 445.50977 145.118778 
L 452.869171 145.708092 
L 459.739384 150.76829 
L 466.181408 143.618533 
L 472.245501 147.377982 
L 477.973559 150.672193 
L 483.400877 154.747101 
L 488.557466 153.083492 
L 493.469057 153.250295 
L 498.157878 156.793751 
L 502.643263 152.076751 
L 506.942134 158.543259 
L 511.069385 158.25796 
L 515.038194 165.999234 
L 518.860278 159.48554 
L 522.546099 170.391879 
L 526.105041 166.155537 
L 529.545549 165.385531 
L 532.875252 171.594492 
L 536.101064 167.413595 
L 539.229274 176.890344 
L 542.265615 178.554453 
L 545.215328 171.733929 
L 548.083221 177.212235 
L 550.873709 174.557643 
L 553.590863 182.23622 
L 556.238437 186.565994 
L 558.819907 194.566267 
L 561.338492 184.762162 
L 563.797185 189.303282 
L 566.198768 192.979321 
L 568.545834 194.704536 
L 570.840802 184.378836 
L 573.085936 180.729787 
L 577.435042 203.592878 
L 579.542865 202.797939 
L 591.36 210.278269 
L 608.473668 219.329219 
L 623.152943 216.701005 
L 636.004933 238.99705 
L 647.434613 237.446704 
L 657.725657 253.3834 
L 667.084519 271.046938 
L 675.666137 259.051665 
L 683.58977 273.515963 
L 690.949171 285.738887 
L 697.819384 310.57934 
L 704.261408 344.848695 
L 710.325501 328.407526 
L 716.053559 327.102894 
L 721.480877 370.722345 
L 726.637466 369.076287 
L 731.549057 470.059616 
L 736.237878 463.123861 
L 740.723263 378.018353 
L 745.022134 481.15065 
L 749.149385 436.427854 
L 753.118194 464.127955 
L 756.940278 474.186443 
L 760.626099 460.191324 
L 764.185041 523.286962 
L 767.625549 541.430012 
L 770.955252 544.370135 
L 774.181064 521.229911 
L 777.309274 550.225458 
L 780.345615 520.021107 
L 783.295328 532.290189 
L 786.163221 541.906598 
L 788.953709 247.013148 
L 791.670863 214.639931 
L 794.318437 238.086275 
L 796.899907 242.651642 
L 799.418492 228.009566 
L 801.877185 209.324232 
L 804.278768 533.413557 
L 806.625834 270.893951 
L 808.920802 282.534695 
L 811.165936 265.640249 
L 813.363354 467.189595 
L 815.515042 277.833486 
L 817.622865 344.795801 
L 819.688575 292.455739 
L 821.713822 331.055488 
L 823.700162 383.533802 
L 825.64906 438.611623 
L 827.561903 316.017431 
L 827.561903 316.017431 
" style="fill:none;stroke:#f50fe6;stroke-linecap:square;"/>
   </g>
   <g id="line2d_8">
    <path clip-path="url(#p65e6d711f6)" d="M 115.2 120.395423 
L 132.313668 119.551007 
L 146.992943 125.21649 
L 159.844933 120.338675 
L 181.565657 117.530929 
L 190.924519 134.649289 
L 199.506137 122.500531 
L 207.42977 127.056641 
L 214.789171 124.71679 
L 221.659384 129.415304 
L 228.101408 123.958093 
L 234.165501 125.140092 
L 239.893559 126.798187 
L 245.320877 132.823419 
L 250.477466 128.105924 
L 255.389057 132.331397 
L 260.077878 133.014747 
L 264.563263 128.305827 
L 268.862134 136.336828 
L 272.989385 128.627361 
L 276.958194 136.832435 
L 280.780278 130.086278 
L 284.466099 130.236309 
L 288.025041 124.217579 
L 291.465549 137.207181 
L 294.795252 140.875055 
L 298.021064 142.478566 
L 301.149274 137.52796 
L 304.185615 138.222858 
L 307.135328 129.239668 
L 310.003221 141.235301 
L 312.793709 144.547482 
L 315.510863 129.139637 
L 318.158437 140.292601 
L 320.739907 138.303188 
L 323.258492 142.784163 
L 325.717185 140.202802 
L 328.118768 136.964107 
L 330.465834 143.546384 
L 332.760802 140.610204 
L 335.005936 138.186481 
L 337.203354 136.923104 
L 339.355042 145.311303 
L 341.462865 143.992136 
L 353.28 139.996805 
L 370.393668 138.327743 
L 385.072943 142.256056 
L 397.924933 141.72159 
L 409.354613 149.418358 
L 419.645657 141.08447 
L 429.004519 159.246193 
L 437.586137 147.252327 
L 445.50977 152.430171 
L 452.869171 147.725123 
L 459.739384 150.602457 
L 466.181408 144.264336 
L 472.245501 152.420569 
L 477.973559 146.079272 
L 483.400877 145.840305 
L 488.557466 149.10704 
L 493.469057 152.777088 
L 498.157878 145.968773 
L 502.643263 151.673521 
L 506.942134 157.472145 
L 511.069385 157.386616 
L 515.038194 155.564456 
L 518.860278 161.670188 
L 522.546099 165.587349 
L 526.105041 161.176924 
L 529.545549 157.557485 
L 532.875252 156.112494 
L 536.101064 166.697669 
L 539.229274 171.782559 
L 542.265615 164.585522 
L 545.215328 173.028204 
L 548.083221 172.344452 
L 550.873709 175.520886 
L 553.590863 180.859557 
L 556.238437 176.375729 
L 558.819907 174.595337 
L 561.338492 183.025012 
L 563.797185 182.619313 
L 566.198768 192.85581 
L 568.545834 174.636298 
L 570.840802 194.774551 
L 573.085936 183.729217 
L 575.283354 182.09074 
L 577.435042 202.249454 
L 579.542865 202.838016 
L 591.36 203.847439 
L 608.473668 205.100977 
L 623.152943 200.847236 
L 636.004933 234.765305 
L 647.434613 242.485691 
L 657.725657 246.83108 
L 667.084519 289.401761 
L 675.666137 270.882656 
L 683.58977 262.232171 
L 690.949171 302.27226 
L 697.819384 295.10611 
L 704.261408 326.012167 
L 710.325501 337.814529 
L 716.053559 379.859224 
L 721.480877 406.357135 
L 726.637466 417.799491 
L 731.549057 373.732358 
L 736.237878 360.776313 
L 740.723263 449.205511 
L 745.022134 428.139521 
L 749.149385 465.708403 
L 753.118194 434.665875 
L 756.940278 442.121138 
L 760.626099 435.814001 
L 764.185041 456.66901 
L 767.625549 482.807822 
L 770.955252 423.855173 
L 774.181064 521.796437 
L 777.309274 481.002279 
L 780.345615 527.805847 
L 783.295328 541.193483 
L 786.163221 489.145063 
L 788.953709 533.29201 
L 791.670863 225.374048 
L 794.318437 530.325514 
L 796.899907 542.323341 
L 799.418492 532.034361 
L 801.877185 264.226629 
L 804.278768 536.695424 
L 806.625834 256.556181 
L 808.920802 259.844473 
L 811.165936 244.738528 
L 813.363354 234.938278 
L 815.515042 268.361513 
L 817.622865 250.296395 
L 819.688575 288.134075 
L 821.713822 219.648658 
L 823.700162 295.893782 
L 825.64906 342.773375 
L 827.561903 315.587658 
L 827.561903 315.587658 
" style="fill:none;stroke:#1000a0;stroke-linecap:square;"/>
   </g>
   <g id="line2d_9">
    <path clip-path="url(#p65e6d711f6)" d="M 115.2 114.552607 
L 132.313668 117.914631 
L 146.992943 121.761675 
L 159.844933 119.602241 
L 171.274613 124.403888 
L 181.565657 121.56113 
L 190.924519 120.879764 
L 199.506137 119.474473 
L 207.42977 126.752223 
L 214.789171 126.58708 
L 221.659384 128.816213 
L 228.101408 123.092237 
L 234.165501 129.594201 
L 239.893559 123.881753 
L 245.320877 124.322308 
L 250.477466 128.103266 
L 255.389057 123.744176 
L 260.077878 137.023685 
L 264.563263 129.530312 
L 268.862134 131.498575 
L 272.989385 135.78206 
L 276.958194 132.265106 
L 280.780278 132.039429 
L 284.466099 131.464181 
L 288.025041 133.298829 
L 291.465549 138.376868 
L 294.795252 133.547915 
L 298.021064 134.934173 
L 301.149274 135.06625 
L 304.185615 139.089613 
L 307.135328 139.574693 
L 310.003221 132.106042 
L 312.793709 133.923157 
L 315.510863 139.077864 
L 318.158437 134.591756 
L 320.739907 136.704613 
L 323.258492 133.375092 
L 325.717185 138.668873 
L 328.118768 138.138563 
L 330.465834 134.936666 
L 332.760802 131.008868 
L 335.005936 136.202781 
L 337.203354 143.225798 
L 339.355042 136.50599 
L 341.462865 137.774404 
L 353.28 140.673915 
L 370.393668 139.840474 
L 385.072943 142.513836 
L 397.924933 145.609222 
L 409.354613 154.567696 
L 419.645657 144.499117 
L 429.004519 152.433091 
L 437.586137 141.798133 
L 445.50977 152.223574 
L 452.869171 148.492331 
L 459.739384 150.771444 
L 466.181408 147.916565 
L 472.245501 150.791409 
L 477.973559 151.460032 
L 483.400877 148.653035 
L 488.557466 154.394627 
L 493.469057 149.79266 
L 498.157878 152.723787 
L 502.643263 154.338857 
L 506.942134 150.606013 
L 511.069385 156.356419 
L 515.038194 157.252504 
L 518.860278 156.38078 
L 522.546099 155.419826 
L 526.105041 156.606688 
L 529.545549 155.768301 
L 532.875252 154.81235 
L 536.101064 167.773928 
L 539.229274 164.012965 
L 542.265615 150.916278 
L 545.215328 161.862873 
L 548.083221 170.88936 
L 550.873709 174.517218 
L 553.590863 165.718408 
L 556.238437 167.909581 
L 558.819907 177.208732 
L 561.338492 174.034529 
L 563.797185 183.643279 
L 566.198768 177.457063 
L 568.545834 173.876588 
L 570.840802 182.115103 
L 573.085936 179.779494 
L 575.283354 170.076559 
L 577.435042 195.021679 
L 579.542865 188.386579 
L 591.36 210.612757 
L 608.473668 212.894942 
L 623.152943 223.989476 
L 636.004933 206.077634 
L 647.434613 216.396042 
L 657.725657 219.857648 
L 667.084519 280.466003 
L 675.666137 254.242675 
L 683.58977 284.73234 
L 690.949171 242.313731 
L 697.819384 269.38812 
L 704.261408 283.385187 
L 710.325501 229.901543 
L 716.053559 314.862826 
L 721.480877 391.210171 
L 726.637466 465.756805 
L 731.549057 414.406244 
L 736.237878 481.866571 
L 740.723263 409.397327 
L 745.022134 455.291754 
L 749.149385 453.895004 
L 753.118194 417.388547 
L 756.940278 481.757167 
L 760.626099 459.6619 
L 764.185041 495.888485 
L 767.625549 497.662188 
L 770.955252 452.842143 
L 774.181064 510.403863 
L 777.309274 481.059448 
L 780.345615 524.469927 
L 783.295328 546.074699 
L 786.163221 232.711761 
L 788.953709 540.18479 
L 791.670863 527.041101 
L 794.318437 530.591991 
L 796.899907 256.897219 
L 799.418492 229.638946 
L 801.877185 545.611244 
L 804.278768 340.795356 
L 806.625834 547.76581 
L 808.920802 229.800759 
L 811.165936 213.089609 
L 813.363354 270.780442 
L 815.515042 510.836594 
L 817.622865 551.331224 
L 819.688575 273.796156 
L 821.713822 296.943564 
L 823.700162 278.757886 
L 827.561903 512.772504 
L 827.561903 512.772504 
" style="fill:none;stroke:#595866;stroke-linecap:square;"/>
   </g>
   <g id="line2d_10">
    <path clip-path="url(#p65e6d711f6)" d="M 115.2 123.511344 
L 132.313668 113.648657 
L 146.992943 123.197877 
L 159.844933 120.655561 
L 171.274613 127.441 
L 181.565657 132.444709 
L 190.924519 113.474686 
L 199.506137 121.240726 
L 207.42977 123.761926 
L 214.789171 124.493949 
L 221.659384 131.205524 
L 228.101408 126.071524 
L 234.165501 128.707358 
L 239.893559 126.090527 
L 245.320877 129.842784 
L 250.477466 127.702443 
L 255.389057 128.924689 
L 260.077878 132.597553 
L 264.563263 131.574729 
L 268.862134 119.649838 
L 272.989385 128.171164 
L 276.958194 127.612261 
L 280.780278 139.716585 
L 284.466099 134.134835 
L 288.025041 140.971071 
L 291.465549 130.251104 
L 294.795252 137.782583 
L 298.021064 130.374214 
L 301.149274 136.18856 
L 304.185615 134.429694 
L 307.135328 139.227894 
L 310.003221 138.12823 
L 312.793709 143.581374 
L 315.510863 140.173266 
L 318.158437 132.68837 
L 320.739907 132.454522 
L 323.258492 135.640557 
L 325.717185 143.36333 
L 328.118768 134.869164 
L 330.465834 139.499318 
L 332.760802 143.122545 
L 335.005936 147.154107 
L 337.203354 144.035006 
L 339.355042 133.588208 
L 341.462865 145.506141 
L 353.28 132.675121 
L 370.393668 136.00287 
L 385.072943 141.81869 
L 397.924933 146.711588 
L 409.354613 137.694096 
L 419.645657 136.298957 
L 429.004519 145.206101 
L 437.586137 152.969166 
L 445.50977 142.740469 
L 452.869171 147.729575 
L 459.739384 140.804258 
L 466.181408 142.828823 
L 472.245501 144.421172 
L 477.973559 151.45272 
L 483.400877 159.400068 
L 488.557466 140.336667 
L 493.469057 150.860562 
L 498.157878 151.561768 
L 502.643263 155.790966 
L 506.942134 158.236336 
L 511.069385 143.218849 
L 515.038194 150.064706 
L 518.860278 155.488313 
L 522.546099 151.307823 
L 526.105041 160.577778 
L 529.545549 161.775333 
L 532.875252 146.562653 
L 536.101064 156.039375 
L 539.229274 155.607064 
L 542.265615 146.841083 
L 545.215328 160.534861 
L 548.083221 168.035557 
L 550.873709 162.977575 
L 553.590863 169.043481 
L 556.238437 168.827575 
L 558.819907 165.131605 
L 561.338492 185.072546 
L 563.797185 170.967886 
L 566.198768 174.39009 
L 568.545834 179.431647 
L 570.840802 173.636368 
L 573.085936 170.533132 
L 575.283354 185.462377 
L 577.435042 180.125752 
L 579.542865 189.290529 
L 591.36 204.910493 
L 608.473668 205.586537 
L 623.152943 212.727529 
L 636.004933 215.599138 
L 647.434613 228.128866 
L 657.725657 224.419003 
L 667.084519 258.62114 
L 675.666137 241.855933 
L 683.58977 269.552942 
L 690.949171 317.457009 
L 697.819384 243.861047 
L 704.261408 282.700058 
L 710.325501 340.26894 
L 716.053559 317.960226 
L 721.480877 286.912821 
L 726.637466 245.648891 
L 731.549057 422.09345 
L 736.237878 366.714091 
L 740.723263 428.065003 
L 745.022134 422.31719 
L 749.149385 454.209805 
L 753.118194 361.347903 
L 756.940278 390.083589 
L 760.626099 503.940867 
L 764.185041 466.067139 
L 767.625549 234.0269 
L 770.955252 477.73848 
L 774.181064 517.803731 
L 777.309274 489.488046 
L 780.345615 520.423392 
L 783.295328 289.52976 
L 786.163221 541.462282 
L 788.953709 473.984425 
L 791.670863 535.247262 
L 794.318437 215.941375 
L 796.899907 213.714813 
L 799.418492 209.802257 
L 801.877185 253.635845 
L 804.278768 531.430958 
L 806.625834 234.834737 
L 808.920802 290.498177 
L 811.165936 279.110472 
L 813.363354 540.643396 
L 815.515042 271.978947 
L 817.622865 531.732909 
L 819.688575 237.157354 
L 821.713822 305.143169 
L 823.700162 365.355424 
L 825.64906 540.100658 
L 827.561903 540.733634 
L 827.561903 540.733634 
" style="fill:none;stroke:#147f2a;stroke-linecap:square;"/>
   </g>
   <g id="patch_3">
    <path d="M 829.44 551.61 
L 829.44 61.29 
" style="fill:none;stroke:#000000;stroke-linecap:square;stroke-linejoin:miter;"/>
   </g>
   <g id="patch_4">
    <path d="M 115.2 551.61 
L 115.2 61.29 
" style="fill:none;stroke:#000000;stroke-linecap:square;stroke-linejoin:miter;"/>
   </g>
   <g id="patch_5">
    <path d="M 115.2 61.29 
L 829.44 61.29 
" style="fill:none;stroke:#000000;stroke-linecap:square;stroke-linejoin:miter;"/>
   </g>
   <g id="patch_6">
    <path d="M 115.2 551.61 
L 829.44 551.61 
" style="fill:none;stroke:#000000;stroke-linecap:square;stroke-linejoin:miter;"/>
   </g>
   <g id="matplotlib.axis_1">
    <g id="xtick_1">
     <g id="line2d_11">
      <defs>
       <path d="M 0 0 
L 0 -4 
" id="m6767de6711" style="stroke:#000000;stroke-width:0.5;"/>
      </defs>
      <g>
       <use style="stroke:#000000;stroke-width:0.5;" x="115.2" xlink:href="#m6767de6711" y="551.61"/>
      </g>
     </g>
     <g id="line2d_12">
      <defs>
       <path d="M 0 0 
L 0 4 
" id="m96ace5af24" style="stroke:#000000;stroke-width:0.5;"/>
      </defs>
      <g>
       <use style="stroke:#000000;stroke-width:0.5;" x="115.2" xlink:href="#m96ace5af24" y="61.29"/>
      </g>
     </g>
     <g id="text_1">
      <!-- $\mathdefault{10^{-3}}$ -->
      <defs>
       <path d="M 12.40625 8.296875 
L 28.515625 8.296875 
L 28.515625 63.921875 
L 10.984375 60.40625 
L 10.984375 69.390625 
L 28.421875 72.90625 
L 38.28125 72.90625 
L 38.28125 8.296875 
L 54.390625 8.296875 
L 54.390625 0 
L 12.40625 0 
z
" id="BitstreamVeraSans-Roman-31"/>
       <path d="M 4.890625 31.390625 
L 31.203125 31.390625 
L 31.203125 23.390625 
L 4.890625 23.390625 
z
" id="BitstreamVeraSans-Roman-2d"/>
       <path d="M 40.578125 39.3125 
Q 47.65625 37.796875 51.625 33 
Q 55.609375 28.21875 55.609375 21.1875 
Q 55.609375 10.40625 48.1875 4.484375 
Q 40.765625 -1.421875 27.09375 -1.421875 
Q 22.515625 -1.421875 17.65625 -0.515625 
Q 12.796875 0.390625 7.625 2.203125 
L 7.625 11.71875 
Q 11.71875 9.328125 16.59375 8.109375 
Q 21.484375 6.890625 26.8125 6.890625 
Q 36.078125 6.890625 40.9375 10.546875 
Q 45.796875 14.203125 45.796875 21.1875 
Q 45.796875 27.640625 41.28125 31.265625 
Q 36.765625 34.90625 28.71875 34.90625 
L 20.21875 34.90625 
L 20.21875 43.015625 
L 29.109375 43.015625 
Q 36.375 43.015625 40.234375 45.921875 
Q 44.09375 48.828125 44.09375 54.296875 
Q 44.09375 59.90625 40.109375 62.90625 
Q 36.140625 65.921875 28.71875 65.921875 
Q 24.65625 65.921875 20.015625 65.03125 
Q 15.375 64.15625 9.8125 62.3125 
L 9.8125 71.09375 
Q 15.4375 72.65625 20.34375 73.4375 
Q 25.25 74.21875 29.59375 74.21875 
Q 40.828125 74.21875 47.359375 69.109375 
Q 53.90625 64.015625 53.90625 55.328125 
Q 53.90625 49.265625 50.4375 45.09375 
Q 46.96875 40.921875 40.578125 39.3125 
" id="BitstreamVeraSans-Roman-33"/>
       <path d="M 31.78125 66.40625 
Q 24.171875 66.40625 20.328125 58.90625 
Q 16.5 51.421875 16.5 36.375 
Q 16.5 21.390625 20.328125 13.890625 
Q 24.171875 6.390625 31.78125 6.390625 
Q 39.453125 6.390625 43.28125 13.890625 
Q 47.125 21.390625 47.125 36.375 
Q 47.125 51.421875 43.28125 58.90625 
Q 39.453125 66.40625 31.78125 66.40625 
M 31.78125 74.21875 
Q 44.046875 74.21875 50.515625 64.515625 
Q 56.984375 54.828125 56.984375 36.375 
Q 56.984375 17.96875 50.515625 8.265625 
Q 44.046875 -1.421875 31.78125 -1.421875 
Q 19.53125 -1.421875 13.0625 8.265625 
Q 6.59375 17.96875 6.59375 36.375 
Q 6.59375 54.828125 13.0625 64.515625 
Q 19.53125 74.21875 31.78125 74.21875 
" id="BitstreamVeraSans-Roman-30"/>
      </defs>
      <g transform="translate(102.54 565.354375)scale(0.12 -0.12)">
       <use transform="translate(0.0 0.796875)" xlink:href="#BitstreamVeraSans-Roman-31"/>
       <use transform="translate(63.623046875 0.796875)" xlink:href="#BitstreamVeraSans-Roman-30"/>
       <use transform="translate(132.75859375 48.046875)scale(0.7)" xlink:href="#BitstreamVeraSans-Roman-2d"/>
       <use transform="translate(158.0173828125 48.046875)scale(0.7)" xlink:href="#BitstreamVeraSans-Roman-33"/>
      </g>
     </g>
    </g>
    <g id="xtick_2">
     <g id="line2d_13">
      <g>
       <use style="stroke:#000000;stroke-width:0.5;" x="353.28" xlink:href="#m6767de6711" y="551.61"/>
      </g>
     </g>
     <g id="line2d_14">
      <g>
       <use style="stroke:#000000;stroke-width:0.5;" x="353.28" xlink:href="#m96ace5af24" y="61.29"/>
      </g>
     </g>
     <g id="text_2">
      <!-- $\mathdefault{10^{-2}}$ -->
      <defs>
       <path d="M 19.1875 8.296875 
L 53.609375 8.296875 
L 53.609375 0 
L 7.328125 0 
L 7.328125 8.296875 
Q 12.9375 14.109375 22.625 23.890625 
Q 32.328125 33.6875 34.8125 36.53125 
Q 39.546875 41.84375 41.421875 45.53125 
Q 43.3125 49.21875 43.3125 52.78125 
Q 43.3125 58.59375 39.234375 62.25 
Q 35.15625 65.921875 28.609375 65.921875 
Q 23.96875 65.921875 18.8125 64.3125 
Q 13.671875 62.703125 7.8125 59.421875 
L 7.8125 69.390625 
Q 13.765625 71.78125 18.9375 73 
Q 24.125 74.21875 28.421875 74.21875 
Q 39.75 74.21875 46.484375 68.546875 
Q 53.21875 62.890625 53.21875 53.421875 
Q 53.21875 48.921875 51.53125 44.890625 
Q 49.859375 40.875 45.40625 35.40625 
Q 44.1875 33.984375 37.640625 27.21875 
Q 31.109375 20.453125 19.1875 8.296875 
" id="BitstreamVeraSans-Roman-32"/>
      </defs>
      <g transform="translate(340.62 565.354375)scale(0.12 -0.12)">
       <use transform="translate(0.0 0.796875)" xlink:href="#BitstreamVeraSans-Roman-31"/>
       <use transform="translate(63.623046875 0.796875)" xlink:href="#BitstreamVeraSans-Roman-30"/>
       <use transform="translate(132.75859375 48.046875)scale(0.7)" xlink:href="#BitstreamVeraSans-Roman-2d"/>
       <use transform="translate(158.0173828125 48.046875)scale(0.7)" xlink:href="#BitstreamVeraSans-Roman-32"/>
      </g>
     </g>
    </g>
    <g id="xtick_3">
     <g id="line2d_15">
      <g>
       <use style="stroke:#000000;stroke-width:0.5;" x="591.36" xlink:href="#m6767de6711" y="551.61"/>
      </g>
     </g>
     <g id="line2d_16">
      <g>
       <use style="stroke:#000000;stroke-width:0.5;" x="591.36" xlink:href="#m96ace5af24" y="61.29"/>
      </g>
     </g>
     <g id="text_3">
      <!-- $\mathdefault{10^{-1}}$ -->
      <g transform="translate(578.7 565.234375)scale(0.12 -0.12)">
       <use transform="translate(0.0 0.7156250000000028)" xlink:href="#BitstreamVeraSans-Roman-31"/>
       <use transform="translate(63.623046875 0.7156250000000028)" xlink:href="#BitstreamVeraSans-Roman-30"/>
       <use transform="translate(132.75859375 47.965625)scale(0.7)" xlink:href="#BitstreamVeraSans-Roman-2d"/>
       <use transform="translate(158.0173828125 47.965625)scale(0.7)" xlink:href="#BitstreamVeraSans-Roman-31"/>
      </g>
     </g>
    </g>
    <g id="xtick_4">
     <g id="line2d_17">
      <g>
       <use style="stroke:#000000;stroke-width:0.5;" x="829.44" xlink:href="#m6767de6711" y="551.61"/>
      </g>
     </g>
     <g id="line2d_18">
      <g>
       <use style="stroke:#000000;stroke-width:0.5;" x="829.44" xlink:href="#m96ace5af24" y="61.29"/>
      </g>
     </g>
     <g id="text_4">
      <!-- $\mathdefault{10^{0}}$ -->
      <g transform="translate(818.28 565.354375)scale(0.12 -0.12)">
       <use transform="translate(0.0 0.796875)" xlink:href="#BitstreamVeraSans-Roman-31"/>
       <use transform="translate(63.623046875 0.796875)" xlink:href="#BitstreamVeraSans-Roman-30"/>
       <use transform="translate(132.75859375 48.046875)scale(0.7)" xlink:href="#BitstreamVeraSans-Roman-30"/>
      </g>
     </g>
    </g>
    <g id="xtick_5">
     <g id="line2d_19">
      <defs>
       <path d="M 0 0 
L 0 -2 
" id="m58289b5905" style="stroke:#000000;stroke-width:0.5;"/>
      </defs>
      <g>
       <use style="stroke:#000000;stroke-width:0.5;" x="186.869221368" xlink:href="#m58289b5905" y="551.61"/>
      </g>
     </g>
     <g id="line2d_20">
      <defs>
       <path d="M 0 0 
L 0 2 
" id="m36c7045a41" style="stroke:#000000;stroke-width:0.5;"/>
      </defs>
      <g>
       <use style="stroke:#000000;stroke-width:0.5;" x="186.869221368" xlink:href="#m36c7045a41" y="61.29"/>
      </g>
     </g>
    </g>
    <g id="xtick_6">
     <g id="line2d_21">
      <g>
       <use style="stroke:#000000;stroke-width:0.5;" x="228.793028324" xlink:href="#m58289b5905" y="551.61"/>
      </g>
     </g>
     <g id="line2d_22">
      <g>
       <use style="stroke:#000000;stroke-width:0.5;" x="228.793028324" xlink:href="#m36c7045a41" y="61.29"/>
      </g>
     </g>
    </g>
    <g id="xtick_7">
     <g id="line2d_23">
      <g>
       <use style="stroke:#000000;stroke-width:0.5;" x="258.538442735" xlink:href="#m58289b5905" y="551.61"/>
      </g>
     </g>
     <g id="line2d_24">
      <g>
       <use style="stroke:#000000;stroke-width:0.5;" x="258.538442735" xlink:href="#m36c7045a41" y="61.29"/>
      </g>
     </g>
    </g>
    <g id="xtick_8">
     <g id="line2d_25">
      <g>
       <use style="stroke:#000000;stroke-width:0.5;" x="281.610778632" xlink:href="#m58289b5905" y="551.61"/>
      </g>
     </g>
     <g id="line2d_26">
      <g>
       <use style="stroke:#000000;stroke-width:0.5;" x="281.610778632" xlink:href="#m36c7045a41" y="61.29"/>
      </g>
     </g>
    </g>
    <g id="xtick_9">
     <g id="line2d_27">
      <g>
       <use style="stroke:#000000;stroke-width:0.5;" x="300.462249691" xlink:href="#m58289b5905" y="551.61"/>
      </g>
     </g>
     <g id="line2d_28">
      <g>
       <use style="stroke:#000000;stroke-width:0.5;" x="300.462249691" xlink:href="#m36c7045a41" y="61.29"/>
      </g>
     </g>
    </g>
    <g id="xtick_10">
     <g id="line2d_29">
      <g>
       <use style="stroke:#000000;stroke-width:0.5;" x="316.400941367" xlink:href="#m58289b5905" y="551.61"/>
      </g>
     </g>
     <g id="line2d_30">
      <g>
       <use style="stroke:#000000;stroke-width:0.5;" x="316.400941367" xlink:href="#m36c7045a41" y="61.29"/>
      </g>
     </g>
    </g>
    <g id="xtick_11">
     <g id="line2d_31">
      <g>
       <use style="stroke:#000000;stroke-width:0.5;" x="330.207664103" xlink:href="#m58289b5905" y="551.61"/>
      </g>
     </g>
     <g id="line2d_32">
      <g>
       <use style="stroke:#000000;stroke-width:0.5;" x="330.207664103" xlink:href="#m36c7045a41" y="61.29"/>
      </g>
     </g>
    </g>
    <g id="xtick_12">
     <g id="line2d_33">
      <g>
       <use style="stroke:#000000;stroke-width:0.5;" x="342.386056647" xlink:href="#m58289b5905" y="551.61"/>
      </g>
     </g>
     <g id="line2d_34">
      <g>
       <use style="stroke:#000000;stroke-width:0.5;" x="342.386056647" xlink:href="#m36c7045a41" y="61.29"/>
      </g>
     </g>
    </g>
    <g id="xtick_13">
     <g id="line2d_35">
      <g>
       <use style="stroke:#000000;stroke-width:0.5;" x="424.949221368" xlink:href="#m58289b5905" y="551.61"/>
      </g>
     </g>
     <g id="line2d_36">
      <g>
       <use style="stroke:#000000;stroke-width:0.5;" x="424.949221368" xlink:href="#m36c7045a41" y="61.29"/>
      </g>
     </g>
    </g>
    <g id="xtick_14">
     <g id="line2d_37">
      <g>
       <use style="stroke:#000000;stroke-width:0.5;" x="466.873028324" xlink:href="#m58289b5905" y="551.61"/>
      </g>
     </g>
     <g id="line2d_38">
      <g>
       <use style="stroke:#000000;stroke-width:0.5;" x="466.873028324" xlink:href="#m36c7045a41" y="61.29"/>
      </g>
     </g>
    </g>
    <g id="xtick_15">
     <g id="line2d_39">
      <g>
       <use style="stroke:#000000;stroke-width:0.5;" x="496.618442735" xlink:href="#m58289b5905" y="551.61"/>
      </g>
     </g>
     <g id="line2d_40">
      <g>
       <use style="stroke:#000000;stroke-width:0.5;" x="496.618442735" xlink:href="#m36c7045a41" y="61.29"/>
      </g>
     </g>
    </g>
    <g id="xtick_16">
     <g id="line2d_41">
      <g>
       <use style="stroke:#000000;stroke-width:0.5;" x="519.690778632" xlink:href="#m58289b5905" y="551.61"/>
      </g>
     </g>
     <g id="line2d_42">
      <g>
       <use style="stroke:#000000;stroke-width:0.5;" x="519.690778632" xlink:href="#m36c7045a41" y="61.29"/>
      </g>
     </g>
    </g>
    <g id="xtick_17">
     <g id="line2d_43">
      <g>
       <use style="stroke:#000000;stroke-width:0.5;" x="538.542249691" xlink:href="#m58289b5905" y="551.61"/>
      </g>
     </g>
     <g id="line2d_44">
      <g>
       <use style="stroke:#000000;stroke-width:0.5;" x="538.542249691" xlink:href="#m36c7045a41" y="61.29"/>
      </g>
     </g>
    </g>
    <g id="xtick_18">
     <g id="line2d_45">
      <g>
       <use style="stroke:#000000;stroke-width:0.5;" x="554.480941367" xlink:href="#m58289b5905" y="551.61"/>
      </g>
     </g>
     <g id="line2d_46">
      <g>
       <use style="stroke:#000000;stroke-width:0.5;" x="554.480941367" xlink:href="#m36c7045a41" y="61.29"/>
      </g>
     </g>
    </g>
    <g id="xtick_19">
     <g id="line2d_47">
      <g>
       <use style="stroke:#000000;stroke-width:0.5;" x="568.287664103" xlink:href="#m58289b5905" y="551.61"/>
      </g>
     </g>
     <g id="line2d_48">
      <g>
       <use style="stroke:#000000;stroke-width:0.5;" x="568.287664103" xlink:href="#m36c7045a41" y="61.29"/>
      </g>
     </g>
    </g>
    <g id="xtick_20">
     <g id="line2d_49">
      <g>
       <use style="stroke:#000000;stroke-width:0.5;" x="580.466056647" xlink:href="#m58289b5905" y="551.61"/>
      </g>
     </g>
     <g id="line2d_50">
      <g>
       <use style="stroke:#000000;stroke-width:0.5;" x="580.466056647" xlink:href="#m36c7045a41" y="61.29"/>
      </g>
     </g>
    </g>
    <g id="xtick_21">
     <g id="line2d_51">
      <g>
       <use style="stroke:#000000;stroke-width:0.5;" x="663.029221368" xlink:href="#m58289b5905" y="551.61"/>
      </g>
     </g>
     <g id="line2d_52">
      <g>
       <use style="stroke:#000000;stroke-width:0.5;" x="663.029221368" xlink:href="#m36c7045a41" y="61.29"/>
      </g>
     </g>
    </g>
    <g id="xtick_22">
     <g id="line2d_53">
      <g>
       <use style="stroke:#000000;stroke-width:0.5;" x="704.953028324" xlink:href="#m58289b5905" y="551.61"/>
      </g>
     </g>
     <g id="line2d_54">
      <g>
       <use style="stroke:#000000;stroke-width:0.5;" x="704.953028324" xlink:href="#m36c7045a41" y="61.29"/>
      </g>
     </g>
    </g>
    <g id="xtick_23">
     <g id="line2d_55">
      <g>
       <use style="stroke:#000000;stroke-width:0.5;" x="734.698442735" xlink:href="#m58289b5905" y="551.61"/>
      </g>
     </g>
     <g id="line2d_56">
      <g>
       <use style="stroke:#000000;stroke-width:0.5;" x="734.698442735" xlink:href="#m36c7045a41" y="61.29"/>
      </g>
     </g>
    </g>
    <g id="xtick_24">
     <g id="line2d_57">
      <g>
       <use style="stroke:#000000;stroke-width:0.5;" x="757.770778632" xlink:href="#m58289b5905" y="551.61"/>
      </g>
     </g>
     <g id="line2d_58">
      <g>
       <use style="stroke:#000000;stroke-width:0.5;" x="757.770778632" xlink:href="#m36c7045a41" y="61.29"/>
      </g>
     </g>
    </g>
    <g id="xtick_25">
     <g id="line2d_59">
      <g>
       <use style="stroke:#000000;stroke-width:0.5;" x="776.622249691" xlink:href="#m58289b5905" y="551.61"/>
      </g>
     </g>
     <g id="line2d_60">
      <g>
       <use style="stroke:#000000;stroke-width:0.5;" x="776.622249691" xlink:href="#m36c7045a41" y="61.29"/>
      </g>
     </g>
    </g>
    <g id="xtick_26">
     <g id="line2d_61">
      <g>
       <use style="stroke:#000000;stroke-width:0.5;" x="792.560941367" xlink:href="#m58289b5905" y="551.61"/>
      </g>
     </g>
     <g id="line2d_62">
      <g>
       <use style="stroke:#000000;stroke-width:0.5;" x="792.560941367" xlink:href="#m36c7045a41" y="61.29"/>
      </g>
     </g>
    </g>
    <g id="xtick_27">
     <g id="line2d_63">
      <g>
       <use style="stroke:#000000;stroke-width:0.5;" x="806.367664103" xlink:href="#m58289b5905" y="551.61"/>
      </g>
     </g>
     <g id="line2d_64">
      <g>
       <use style="stroke:#000000;stroke-width:0.5;" x="806.367664103" xlink:href="#m36c7045a41" y="61.29"/>
      </g>
     </g>
    </g>
    <g id="xtick_28">
     <g id="line2d_65">
      <g>
       <use style="stroke:#000000;stroke-width:0.5;" x="818.546056647" xlink:href="#m58289b5905" y="551.61"/>
      </g>
     </g>
     <g id="line2d_66">
      <g>
       <use style="stroke:#000000;stroke-width:0.5;" x="818.546056647" xlink:href="#m36c7045a41" y="61.29"/>
      </g>
     </g>
    </g>
    <g id="text_5">
     <!-- Frequency [kHz] -->
     <defs>
      <path d="M 9.078125 75.984375 
L 18.109375 75.984375 
L 18.109375 31.109375 
L 44.921875 54.6875 
L 56.390625 54.6875 
L 27.390625 29.109375 
L 57.625 0 
L 45.90625 0 
L 18.109375 26.703125 
L 18.109375 0 
L 9.078125 0 
z
" id="BitstreamVeraSans-Roman-6b"/>
      <path d="M 56.203125 29.59375 
L 56.203125 25.203125 
L 14.890625 25.203125 
Q 15.484375 15.921875 20.484375 11.0625 
Q 25.484375 6.203125 34.421875 6.203125 
Q 39.59375 6.203125 44.453125 7.46875 
Q 49.3125 8.734375 54.109375 11.28125 
L 54.109375 2.78125 
Q 49.265625 0.734375 44.1875 -0.34375 
Q 39.109375 -1.421875 33.890625 -1.421875 
Q 20.796875 -1.421875 13.15625 6.1875 
Q 5.515625 13.8125 5.515625 26.8125 
Q 5.515625 40.234375 12.765625 48.109375 
Q 20.015625 56 32.328125 56 
Q 43.359375 56 49.78125 48.890625 
Q 56.203125 41.796875 56.203125 29.59375 
M 47.21875 32.234375 
Q 47.125 39.59375 43.09375 43.984375 
Q 39.0625 48.390625 32.421875 48.390625 
Q 24.90625 48.390625 20.390625 44.140625 
Q 15.875 39.890625 15.1875 32.171875 
z
" id="BitstreamVeraSans-Roman-65"/>
      <path d="M 9.8125 72.90625 
L 51.703125 72.90625 
L 51.703125 64.59375 
L 19.671875 64.59375 
L 19.671875 43.109375 
L 48.578125 43.109375 
L 48.578125 34.8125 
L 19.671875 34.8125 
L 19.671875 0 
L 9.8125 0 
z
" id="BitstreamVeraSans-Roman-46"/>
      <path d="M 48.78125 52.59375 
L 48.78125 44.1875 
Q 44.96875 46.296875 41.140625 47.34375 
Q 37.3125 48.390625 33.40625 48.390625 
Q 24.65625 48.390625 19.8125 42.84375 
Q 14.984375 37.3125 14.984375 27.296875 
Q 14.984375 17.28125 19.8125 11.734375 
Q 24.65625 6.203125 33.40625 6.203125 
Q 37.3125 6.203125 41.140625 7.25 
Q 44.96875 8.296875 48.78125 10.40625 
L 48.78125 2.09375 
Q 45.015625 0.34375 40.984375 -0.53125 
Q 36.96875 -1.421875 32.421875 -1.421875 
Q 20.0625 -1.421875 12.78125 6.34375 
Q 5.515625 14.109375 5.515625 27.296875 
Q 5.515625 40.671875 12.859375 48.328125 
Q 20.21875 56 33.015625 56 
Q 37.15625 56 41.109375 55.140625 
Q 45.0625 54.296875 48.78125 52.59375 
" id="BitstreamVeraSans-Roman-63"/>
      <path d="M 9.8125 72.90625 
L 19.671875 72.90625 
L 19.671875 43.015625 
L 55.515625 43.015625 
L 55.515625 72.90625 
L 65.375 72.90625 
L 65.375 0 
L 55.515625 0 
L 55.515625 34.71875 
L 19.671875 34.71875 
L 19.671875 0 
L 9.8125 0 
z
" id="BitstreamVeraSans-Roman-48"/>
      <path d="M 14.796875 27.296875 
Q 14.796875 17.390625 18.875 11.75 
Q 22.953125 6.109375 30.078125 6.109375 
Q 37.203125 6.109375 41.296875 11.75 
Q 45.40625 17.390625 45.40625 27.296875 
Q 45.40625 37.203125 41.296875 42.84375 
Q 37.203125 48.484375 30.078125 48.484375 
Q 22.953125 48.484375 18.875 42.84375 
Q 14.796875 37.203125 14.796875 27.296875 
M 45.40625 8.203125 
Q 42.578125 3.328125 38.25 0.953125 
Q 33.9375 -1.421875 27.875 -1.421875 
Q 17.96875 -1.421875 11.734375 6.484375 
Q 5.515625 14.40625 5.515625 27.296875 
Q 5.515625 40.1875 11.734375 48.09375 
Q 17.96875 56 27.875 56 
Q 33.9375 56 38.25 53.625 
Q 42.578125 51.265625 45.40625 46.390625 
L 45.40625 54.6875 
L 54.390625 54.6875 
L 54.390625 -20.796875 
L 45.40625 -20.796875 
z
" id="BitstreamVeraSans-Roman-71"/>
      <path d="M 54.890625 33.015625 
L 54.890625 0 
L 45.90625 0 
L 45.90625 32.71875 
Q 45.90625 40.484375 42.875 44.328125 
Q 39.84375 48.1875 33.796875 48.1875 
Q 26.515625 48.1875 22.3125 43.546875 
Q 18.109375 38.921875 18.109375 30.90625 
L 18.109375 0 
L 9.078125 0 
L 9.078125 54.6875 
L 18.109375 54.6875 
L 18.109375 46.1875 
Q 21.34375 51.125 25.703125 53.5625 
Q 30.078125 56 35.796875 56 
Q 45.21875 56 50.046875 50.171875 
Q 54.890625 44.34375 54.890625 33.015625 
" id="BitstreamVeraSans-Roman-6e"/>
      <path d="M 41.109375 46.296875 
Q 39.59375 47.171875 37.8125 47.578125 
Q 36.03125 48 33.890625 48 
Q 26.265625 48 22.1875 43.046875 
Q 18.109375 38.09375 18.109375 28.8125 
L 18.109375 0 
L 9.078125 0 
L 9.078125 54.6875 
L 18.109375 54.6875 
L 18.109375 46.1875 
Q 20.953125 51.171875 25.484375 53.578125 
Q 30.03125 56 36.53125 56 
Q 37.453125 56 38.578125 55.875 
Q 39.703125 55.765625 41.0625 55.515625 
z
" id="BitstreamVeraSans-Roman-72"/>
      <path d="M 32.171875 -5.078125 
Q 28.375 -14.84375 24.75 -17.8125 
Q 21.140625 -20.796875 15.09375 -20.796875 
L 7.90625 -20.796875 
L 7.90625 -13.28125 
L 13.1875 -13.28125 
Q 16.890625 -13.28125 18.9375 -11.515625 
Q 21 -9.765625 23.484375 -3.21875 
L 25.09375 0.875 
L 2.984375 54.6875 
L 12.5 54.6875 
L 29.59375 11.921875 
L 46.6875 54.6875 
L 56.203125 54.6875 
z
" id="BitstreamVeraSans-Roman-79"/>
      <path d="M 8.59375 75.984375 
L 29.296875 75.984375 
L 29.296875 69 
L 17.578125 69 
L 17.578125 -6.203125 
L 29.296875 -6.203125 
L 29.296875 -13.1875 
L 8.59375 -13.1875 
z
" id="BitstreamVeraSans-Roman-5b"/>
      <path d="M 30.421875 75.984375 
L 30.421875 -13.1875 
L 9.71875 -13.1875 
L 9.71875 -6.203125 
L 21.390625 -6.203125 
L 21.390625 69 
L 9.71875 69 
L 9.71875 75.984375 
z
" id="BitstreamVeraSans-Roman-5d"/>
      <path d="M 5.515625 54.6875 
L 48.1875 54.6875 
L 48.1875 46.484375 
L 14.40625 7.171875 
L 48.1875 7.171875 
L 48.1875 0 
L 4.296875 0 
L 4.296875 8.203125 
L 38.09375 47.515625 
L 5.515625 47.515625 
z
" id="BitstreamVeraSans-Roman-7a"/>
      <path id="BitstreamVeraSans-Roman-20"/>
      <path d="M 8.5 21.578125 
L 8.5 54.6875 
L 17.484375 54.6875 
L 17.484375 21.921875 
Q 17.484375 14.15625 20.5 10.265625 
Q 23.53125 6.390625 29.59375 6.390625 
Q 36.859375 6.390625 41.078125 11.03125 
Q 45.3125 15.671875 45.3125 23.6875 
L 45.3125 54.6875 
L 54.296875 54.6875 
L 54.296875 0 
L 45.3125 0 
L 45.3125 8.40625 
Q 42.046875 3.421875 37.71875 1 
Q 33.40625 -1.421875 27.6875 -1.421875 
Q 18.265625 -1.421875 13.375 4.4375 
Q 8.5 10.296875 8.5 21.578125 
" id="BitstreamVeraSans-Roman-75"/>
     </defs>
     <g transform="translate(423.0384375 581.968125)scale(0.12 -0.12)">
      <use xlink:href="#BitstreamVeraSans-Roman-46"/>
      <use x="57.41015625" xlink:href="#BitstreamVeraSans-Roman-72"/>
      <use x="98.4921875" xlink:href="#BitstreamVeraSans-Roman-65"/>
      <use x="160.015625" xlink:href="#BitstreamVeraSans-Roman-71"/>
      <use x="223.4921875" xlink:href="#BitstreamVeraSans-Roman-75"/>
      <use x="286.87109375" xlink:href="#BitstreamVeraSans-Roman-65"/>
      <use x="348.39453125" xlink:href="#BitstreamVeraSans-Roman-6e"/>
      <use x="411.7734375" xlink:href="#BitstreamVeraSans-Roman-63"/>
      <use x="466.75390625" xlink:href="#BitstreamVeraSans-Roman-79"/>
      <use x="525.93359375" xlink:href="#BitstreamVeraSans-Roman-20"/>
      <use x="557.720703125" xlink:href="#BitstreamVeraSans-Roman-5b"/>
      <use x="596.734375" xlink:href="#BitstreamVeraSans-Roman-6b"/>
      <use x="654.64453125" xlink:href="#BitstreamVeraSans-Roman-48"/>
      <use x="729.83984375" xlink:href="#BitstreamVeraSans-Roman-7a"/>
      <use x="782.330078125" xlink:href="#BitstreamVeraSans-Roman-5d"/>
     </g>
    </g>
   </g>
   <g id="matplotlib.axis_2">
    <g id="ytick_1">
     <g id="line2d_67">
      <defs>
       <path d="M 0 0 
L 4 0 
" id="m2f6d7d6850" style="stroke:#000000;stroke-width:0.5;"/>
      </defs>
      <g>
       <use style="stroke:#000000;stroke-width:0.5;" x="115.2" xlink:href="#m2f6d7d6850" y="551.61"/>
      </g>
     </g>
     <g id="line2d_68">
      <defs>
       <path d="M 0 0 
L -4 0 
" id="m3a5ef4e67d" style="stroke:#000000;stroke-width:0.5;"/>
      </defs>
      <g>
       <use style="stroke:#000000;stroke-width:0.5;" x="829.44" xlink:href="#m3a5ef4e67d" y="551.61"/>
      </g>
     </g>
     <g id="text_6">
      <!-- 8 -->
      <defs>
       <path d="M 10.59375 35.5 
L 73.1875 35.5 
L 73.1875 27.203125 
L 10.59375 27.203125 
z
" id="BitstreamVeraSans-Roman-2212"/>
       <path d="M 31.78125 34.625 
Q 24.75 34.625 20.71875 30.859375 
Q 16.703125 27.09375 16.703125 20.515625 
Q 16.703125 13.921875 20.71875 10.15625 
Q 24.75 6.390625 31.78125 6.390625 
Q 38.8125 6.390625 42.859375 10.171875 
Q 46.921875 13.96875 46.921875 20.515625 
Q 46.921875 27.09375 42.890625 30.859375 
Q 38.875 34.625 31.78125 34.625 
M 21.921875 38.8125 
Q 15.578125 40.375 12.03125 44.71875 
Q 8.5 49.078125 8.5 55.328125 
Q 8.5 64.0625 14.71875 69.140625 
Q 20.953125 74.21875 31.78125 74.21875 
Q 42.671875 74.21875 48.875 69.140625 
Q 55.078125 64.0625 55.078125 55.328125 
Q 55.078125 49.078125 51.53125 44.71875 
Q 48 40.375 41.703125 38.8125 
Q 48.828125 37.15625 52.796875 32.3125 
Q 56.78125 27.484375 56.78125 20.515625 
Q 56.78125 9.90625 50.3125 4.234375 
Q 43.84375 -1.421875 31.78125 -1.421875 
Q 19.734375 -1.421875 13.25 4.234375 
Q 6.78125 9.90625 6.78125 20.515625 
Q 6.78125 27.484375 10.78125 32.3125 
Q 14.796875 37.15625 21.921875 38.8125 
M 18.3125 54.390625 
Q 18.3125 48.734375 21.84375 45.5625 
Q 25.390625 42.390625 31.78125 42.390625 
Q 38.140625 42.390625 41.71875 45.5625 
Q 45.3125 48.734375 45.3125 54.390625 
Q 45.3125 60.0625 41.71875 63.234375 
Q 38.140625 66.40625 31.78125 66.40625 
Q 25.390625 66.40625 21.84375 63.234375 
Q 18.3125 60.0625 18.3125 54.390625 
" id="BitstreamVeraSans-Roman-38"/>
      </defs>
      <g transform="translate(93.509375 554.92125)scale(0.12 -0.12)">
       <use xlink:href="#BitstreamVeraSans-Roman-2212"/>
       <use x="83.7890625" xlink:href="#BitstreamVeraSans-Roman-38"/>
      </g>
     </g>
    </g>
    <g id="ytick_2">
     <g id="line2d_69">
      <g>
       <use style="stroke:#000000;stroke-width:0.5;" x="115.2" xlink:href="#m2f6d7d6850" y="497.13"/>
      </g>
     </g>
     <g id="line2d_70">
      <g>
       <use style="stroke:#000000;stroke-width:0.5;" x="829.44" xlink:href="#m3a5ef4e67d" y="497.13"/>
      </g>
     </g>
     <g id="text_7">
      <!-- 7 -->
      <defs>
       <path d="M 8.203125 72.90625 
L 55.078125 72.90625 
L 55.078125 68.703125 
L 28.609375 0 
L 18.3125 0 
L 43.21875 64.59375 
L 8.203125 64.59375 
z
" id="BitstreamVeraSans-Roman-37"/>
      </defs>
      <g transform="translate(93.509375 500.44125)scale(0.12 -0.12)">
       <use xlink:href="#BitstreamVeraSans-Roman-2212"/>
       <use x="83.7890625" xlink:href="#BitstreamVeraSans-Roman-37"/>
      </g>
     </g>
    </g>
    <g id="ytick_3">
     <g id="line2d_71">
      <g>
       <use style="stroke:#000000;stroke-width:0.5;" x="115.2" xlink:href="#m2f6d7d6850" y="442.65"/>
      </g>
     </g>
     <g id="line2d_72">
      <g>
       <use style="stroke:#000000;stroke-width:0.5;" x="829.44" xlink:href="#m3a5ef4e67d" y="442.65"/>
      </g>
     </g>
     <g id="text_8">
      <!-- 6 -->
      <defs>
       <path d="M 33.015625 40.375 
Q 26.375 40.375 22.484375 35.828125 
Q 18.609375 31.296875 18.609375 23.390625 
Q 18.609375 15.53125 22.484375 10.953125 
Q 26.375 6.390625 33.015625 6.390625 
Q 39.65625 6.390625 43.53125 10.953125 
Q 47.40625 15.53125 47.40625 23.390625 
Q 47.40625 31.296875 43.53125 35.828125 
Q 39.65625 40.375 33.015625 40.375 
M 52.59375 71.296875 
L 52.59375 62.3125 
Q 48.875 64.0625 45.09375 64.984375 
Q 41.3125 65.921875 37.59375 65.921875 
Q 27.828125 65.921875 22.671875 59.328125 
Q 17.53125 52.734375 16.796875 39.40625 
Q 19.671875 43.65625 24.015625 45.921875 
Q 28.375 48.1875 33.59375 48.1875 
Q 44.578125 48.1875 50.953125 41.515625 
Q 57.328125 34.859375 57.328125 23.390625 
Q 57.328125 12.15625 50.6875 5.359375 
Q 44.046875 -1.421875 33.015625 -1.421875 
Q 20.359375 -1.421875 13.671875 8.265625 
Q 6.984375 17.96875 6.984375 36.375 
Q 6.984375 53.65625 15.1875 63.9375 
Q 23.390625 74.21875 37.203125 74.21875 
Q 40.921875 74.21875 44.703125 73.484375 
Q 48.484375 72.75 52.59375 71.296875 
" id="BitstreamVeraSans-Roman-36"/>
      </defs>
      <g transform="translate(93.509375 445.96125)scale(0.12 -0.12)">
       <use xlink:href="#BitstreamVeraSans-Roman-2212"/>
       <use x="83.7890625" xlink:href="#BitstreamVeraSans-Roman-36"/>
      </g>
     </g>
    </g>
    <g id="ytick_4">
     <g id="line2d_73">
      <g>
       <use style="stroke:#000000;stroke-width:0.5;" x="115.2" xlink:href="#m2f6d7d6850" y="388.17"/>
      </g>
     </g>
     <g id="line2d_74">
      <g>
       <use style="stroke:#000000;stroke-width:0.5;" x="829.44" xlink:href="#m3a5ef4e67d" y="388.17"/>
      </g>
     </g>
     <g id="text_9">
      <!-- 5 -->
      <defs>
       <path d="M 10.796875 72.90625 
L 49.515625 72.90625 
L 49.515625 64.59375 
L 19.828125 64.59375 
L 19.828125 46.734375 
Q 21.96875 47.46875 24.109375 47.828125 
Q 26.265625 48.1875 28.421875 48.1875 
Q 40.625 48.1875 47.75 41.5 
Q 54.890625 34.8125 54.890625 23.390625 
Q 54.890625 11.625 47.5625 5.09375 
Q 40.234375 -1.421875 26.90625 -1.421875 
Q 22.3125 -1.421875 17.546875 -0.640625 
Q 12.796875 0.140625 7.71875 1.703125 
L 7.71875 11.625 
Q 12.109375 9.234375 16.796875 8.0625 
Q 21.484375 6.890625 26.703125 6.890625 
Q 35.15625 6.890625 40.078125 11.328125 
Q 45.015625 15.765625 45.015625 23.390625 
Q 45.015625 31 40.078125 35.4375 
Q 35.15625 39.890625 26.703125 39.890625 
Q 22.75 39.890625 18.8125 39.015625 
Q 14.890625 38.140625 10.796875 36.28125 
z
" id="BitstreamVeraSans-Roman-35"/>
      </defs>
      <g transform="translate(93.509375 391.48125)scale(0.12 -0.12)">
       <use xlink:href="#BitstreamVeraSans-Roman-2212"/>
       <use x="83.7890625" xlink:href="#BitstreamVeraSans-Roman-35"/>
      </g>
     </g>
    </g>
    <g id="ytick_5">
     <g id="line2d_75">
      <g>
       <use style="stroke:#000000;stroke-width:0.5;" x="115.2" xlink:href="#m2f6d7d6850" y="333.69"/>
      </g>
     </g>
     <g id="line2d_76">
      <g>
       <use style="stroke:#000000;stroke-width:0.5;" x="829.44" xlink:href="#m3a5ef4e67d" y="333.69"/>
      </g>
     </g>
     <g id="text_10">
      <!-- 4 -->
      <defs>
       <path d="M 37.796875 64.3125 
L 12.890625 25.390625 
L 37.796875 25.390625 
z
M 35.203125 72.90625 
L 47.609375 72.90625 
L 47.609375 25.390625 
L 58.015625 25.390625 
L 58.015625 17.1875 
L 47.609375 17.1875 
L 47.609375 0 
L 37.796875 0 
L 37.796875 17.1875 
L 4.890625 17.1875 
L 4.890625 26.703125 
z
" id="BitstreamVeraSans-Roman-34"/>
      </defs>
      <g transform="translate(93.509375 337.00125)scale(0.12 -0.12)">
       <use xlink:href="#BitstreamVeraSans-Roman-2212"/>
       <use x="83.7890625" xlink:href="#BitstreamVeraSans-Roman-34"/>
      </g>
     </g>
    </g>
    <g id="ytick_6">
     <g id="line2d_77">
      <g>
       <use style="stroke:#000000;stroke-width:0.5;" x="115.2" xlink:href="#m2f6d7d6850" y="279.21"/>
      </g>
     </g>
     <g id="line2d_78">
      <g>
       <use style="stroke:#000000;stroke-width:0.5;" x="829.44" xlink:href="#m3a5ef4e67d" y="279.21"/>
      </g>
     </g>
     <g id="text_11">
      <!-- 3 -->
      <g transform="translate(93.509375 282.52125)scale(0.12 -0.12)">
       <use xlink:href="#BitstreamVeraSans-Roman-2212"/>
       <use x="83.7890625" xlink:href="#BitstreamVeraSans-Roman-33"/>
      </g>
     </g>
    </g>
    <g id="ytick_7">
     <g id="line2d_79">
      <g>
       <use style="stroke:#000000;stroke-width:0.5;" x="115.2" xlink:href="#m2f6d7d6850" y="224.73"/>
      </g>
     </g>
     <g id="line2d_80">
      <g>
       <use style="stroke:#000000;stroke-width:0.5;" x="829.44" xlink:href="#m3a5ef4e67d" y="224.73"/>
      </g>
     </g>
     <g id="text_12">
      <!-- 2 -->
      <g transform="translate(93.509375 228.04125)scale(0.12 -0.12)">
       <use xlink:href="#BitstreamVeraSans-Roman-2212"/>
       <use x="83.7890625" xlink:href="#BitstreamVeraSans-Roman-32"/>
      </g>
     </g>
    </g>
    <g id="ytick_8">
     <g id="line2d_81">
      <g>
       <use style="stroke:#000000;stroke-width:0.5;" x="115.2" xlink:href="#m2f6d7d6850" y="170.25"/>
      </g>
     </g>
     <g id="line2d_82">
      <g>
       <use style="stroke:#000000;stroke-width:0.5;" x="829.44" xlink:href="#m3a5ef4e67d" y="170.25"/>
      </g>
     </g>
     <g id="text_13">
      <!-- 1 -->
      <g transform="translate(93.509375 173.56125)scale(0.12 -0.12)">
       <use xlink:href="#BitstreamVeraSans-Roman-2212"/>
       <use x="83.7890625" xlink:href="#BitstreamVeraSans-Roman-31"/>
      </g>
     </g>
    </g>
    <g id="ytick_9">
     <g id="line2d_83">
      <g>
       <use style="stroke:#000000;stroke-width:0.5;" x="115.2" xlink:href="#m2f6d7d6850" y="115.77"/>
      </g>
     </g>
     <g id="line2d_84">
      <g>
       <use style="stroke:#000000;stroke-width:0.5;" x="829.44" xlink:href="#m3a5ef4e67d" y="115.77"/>
      </g>
     </g>
     <g id="text_14">
      <!-- 0 -->
      <g transform="translate(103.565 119.08125)scale(0.12 -0.12)">
       <use xlink:href="#BitstreamVeraSans-Roman-30"/>
      </g>
     </g>
    </g>
    <g id="ytick_10">
     <g id="line2d_85">
      <g>
       <use style="stroke:#000000;stroke-width:0.5;" x="115.2" xlink:href="#m2f6d7d6850" y="61.29"/>
      </g>
     </g>
     <g id="line2d_86">
      <g>
       <use style="stroke:#000000;stroke-width:0.5;" x="829.44" xlink:href="#m3a5ef4e67d" y="61.29"/>
      </g>
     </g>
     <g id="text_15">
      <!-- 1 -->
      <g transform="translate(103.565 64.60125)scale(0.12 -0.12)">
       <use xlink:href="#BitstreamVeraSans-Roman-31"/>
      </g>
     </g>
    </g>
    <g id="text_16">
     <!-- Phase [rad] -->
     <defs>
      <path d="M 44.28125 53.078125 
L 44.28125 44.578125 
Q 40.484375 46.53125 36.375 47.5 
Q 32.28125 48.484375 27.875 48.484375 
Q 21.1875 48.484375 17.84375 46.4375 
Q 14.5 44.390625 14.5 40.28125 
Q 14.5 37.15625 16.890625 35.375 
Q 19.28125 33.59375 26.515625 31.984375 
L 29.59375 31.296875 
Q 39.15625 29.25 43.1875 25.515625 
Q 47.21875 21.78125 47.21875 15.09375 
Q 47.21875 7.46875 41.1875 3.015625 
Q 35.15625 -1.421875 24.609375 -1.421875 
Q 20.21875 -1.421875 15.453125 -0.5625 
Q 10.6875 0.296875 5.421875 2 
L 5.421875 11.28125 
Q 10.40625 8.6875 15.234375 7.390625 
Q 20.0625 6.109375 24.8125 6.109375 
Q 31.15625 6.109375 34.5625 8.28125 
Q 37.984375 10.453125 37.984375 14.40625 
Q 37.984375 18.0625 35.515625 20.015625 
Q 33.0625 21.96875 24.703125 23.78125 
L 21.578125 24.515625 
Q 13.234375 26.265625 9.515625 29.90625 
Q 5.8125 33.546875 5.8125 39.890625 
Q 5.8125 47.609375 11.28125 51.796875 
Q 16.75 56 26.8125 56 
Q 31.78125 56 36.171875 55.265625 
Q 40.578125 54.546875 44.28125 53.078125 
" id="BitstreamVeraSans-Roman-73"/>
      <path d="M 45.40625 46.390625 
L 45.40625 75.984375 
L 54.390625 75.984375 
L 54.390625 0 
L 45.40625 0 
L 45.40625 8.203125 
Q 42.578125 3.328125 38.25 0.953125 
Q 33.9375 -1.421875 27.875 -1.421875 
Q 17.96875 -1.421875 11.734375 6.484375 
Q 5.515625 14.40625 5.515625 27.296875 
Q 5.515625 40.1875 11.734375 48.09375 
Q 17.96875 56 27.875 56 
Q 33.9375 56 38.25 53.625 
Q 42.578125 51.265625 45.40625 46.390625 
M 14.796875 27.296875 
Q 14.796875 17.390625 18.875 11.75 
Q 22.953125 6.109375 30.078125 6.109375 
Q 37.203125 6.109375 41.296875 11.75 
Q 45.40625 17.390625 45.40625 27.296875 
Q 45.40625 37.203125 41.296875 42.84375 
Q 37.203125 48.484375 30.078125 48.484375 
Q 22.953125 48.484375 18.875 42.84375 
Q 14.796875 37.203125 14.796875 27.296875 
" id="BitstreamVeraSans-Roman-64"/>
      <path d="M 54.890625 33.015625 
L 54.890625 0 
L 45.90625 0 
L 45.90625 32.71875 
Q 45.90625 40.484375 42.875 44.328125 
Q 39.84375 48.1875 33.796875 48.1875 
Q 26.515625 48.1875 22.3125 43.546875 
Q 18.109375 38.921875 18.109375 30.90625 
L 18.109375 0 
L 9.078125 0 
L 9.078125 75.984375 
L 18.109375 75.984375 
L 18.109375 46.1875 
Q 21.34375 51.125 25.703125 53.5625 
Q 30.078125 56 35.796875 56 
Q 45.21875 56 50.046875 50.171875 
Q 54.890625 44.34375 54.890625 33.015625 
" id="BitstreamVeraSans-Roman-68"/>
      <path d="M 34.28125 27.484375 
Q 23.390625 27.484375 19.1875 25 
Q 14.984375 22.515625 14.984375 16.5 
Q 14.984375 11.71875 18.140625 8.90625 
Q 21.296875 6.109375 26.703125 6.109375 
Q 34.1875 6.109375 38.703125 11.40625 
Q 43.21875 16.703125 43.21875 25.484375 
L 43.21875 27.484375 
z
M 52.203125 31.203125 
L 52.203125 0 
L 43.21875 0 
L 43.21875 8.296875 
Q 40.140625 3.328125 35.546875 0.953125 
Q 30.953125 -1.421875 24.3125 -1.421875 
Q 15.921875 -1.421875 10.953125 3.296875 
Q 6 8.015625 6 15.921875 
Q 6 25.140625 12.171875 29.828125 
Q 18.359375 34.515625 30.609375 34.515625 
L 43.21875 34.515625 
L 43.21875 35.40625 
Q 43.21875 41.609375 39.140625 45 
Q 35.0625 48.390625 27.6875 48.390625 
Q 23 48.390625 18.546875 47.265625 
Q 14.109375 46.140625 10.015625 43.890625 
L 10.015625 52.203125 
Q 14.9375 54.109375 19.578125 55.046875 
Q 24.21875 56 28.609375 56 
Q 40.484375 56 46.34375 49.84375 
Q 52.203125 43.703125 52.203125 31.203125 
" id="BitstreamVeraSans-Roman-61"/>
      <path d="M 19.671875 64.796875 
L 19.671875 37.40625 
L 32.078125 37.40625 
Q 38.96875 37.40625 42.71875 40.96875 
Q 46.484375 44.53125 46.484375 51.125 
Q 46.484375 57.671875 42.71875 61.234375 
Q 38.96875 64.796875 32.078125 64.796875 
z
M 9.8125 72.90625 
L 32.078125 72.90625 
Q 44.34375 72.90625 50.609375 67.359375 
Q 56.890625 61.8125 56.890625 51.125 
Q 56.890625 40.328125 50.609375 34.8125 
Q 44.34375 29.296875 32.078125 29.296875 
L 19.671875 29.296875 
L 19.671875 0 
L 9.8125 0 
z
" id="BitstreamVeraSans-Roman-50"/>
     </defs>
     <g transform="translate(86.01375 340.9059375)rotate(-90.0)scale(0.12 -0.12)">
      <use xlink:href="#BitstreamVeraSans-Roman-50"/>
      <use x="60.302734375" xlink:href="#BitstreamVeraSans-Roman-68"/>
      <use x="123.681640625" xlink:href="#BitstreamVeraSans-Roman-61"/>
      <use x="184.9609375" xlink:href="#BitstreamVeraSans-Roman-73"/>
      <use x="237.060546875" xlink:href="#BitstreamVeraSans-Roman-65"/>
      <use x="298.583984375" xlink:href="#BitstreamVeraSans-Roman-20"/>
      <use x="330.37109375" xlink:href="#BitstreamVeraSans-Roman-5b"/>
      <use x="369.384765625" xlink:href="#BitstreamVeraSans-Roman-72"/>
      <use x="410.498046875" xlink:href="#BitstreamVeraSans-Roman-61"/>
      <use x="471.77734375" xlink:href="#BitstreamVeraSans-Roman-64"/>
      <use x="535.25390625" xlink:href="#BitstreamVeraSans-Roman-5d"/>
     </g>
    </g>
   </g>
   <g id="text_17">
    <!-- Phase Curve for 5 Hz MFR and 10.0 MOhm -->
    <defs>
     <path d="M 37.109375 75.984375 
L 37.109375 68.5 
L 28.515625 68.5 
Q 23.6875 68.5 21.796875 66.546875 
Q 19.921875 64.59375 19.921875 59.515625 
L 19.921875 54.6875 
L 34.71875 54.6875 
L 34.71875 47.703125 
L 19.921875 47.703125 
L 19.921875 0 
L 10.890625 0 
L 10.890625 47.703125 
L 2.296875 47.703125 
L 2.296875 54.6875 
L 10.890625 54.6875 
L 10.890625 58.5 
Q 10.890625 67.625 15.140625 71.796875 
Q 19.390625 75.984375 28.609375 75.984375 
z
" id="BitstreamVeraSans-Roman-66"/>
     <path d="M 10.6875 12.40625 
L 21 12.40625 
L 21 0 
L 10.6875 0 
z
" id="BitstreamVeraSans-Roman-2e"/>
     <path d="M 39.40625 66.21875 
Q 28.65625 66.21875 22.328125 58.203125 
Q 16.015625 50.203125 16.015625 36.375 
Q 16.015625 22.609375 22.328125 14.59375 
Q 28.65625 6.59375 39.40625 6.59375 
Q 50.140625 6.59375 56.421875 14.59375 
Q 62.703125 22.609375 62.703125 36.375 
Q 62.703125 50.203125 56.421875 58.203125 
Q 50.140625 66.21875 39.40625 66.21875 
M 39.40625 74.21875 
Q 54.734375 74.21875 63.90625 63.9375 
Q 73.09375 53.65625 73.09375 36.375 
Q 73.09375 19.140625 63.90625 8.859375 
Q 54.734375 -1.421875 39.40625 -1.421875 
Q 24.03125 -1.421875 14.8125 8.828125 
Q 5.609375 19.09375 5.609375 36.375 
Q 5.609375 53.65625 14.8125 63.9375 
Q 24.03125 74.21875 39.40625 74.21875 
" id="BitstreamVeraSans-Roman-4f"/>
     <path d="M 52 44.1875 
Q 55.375 50.25 60.0625 53.125 
Q 64.75 56 71.09375 56 
Q 79.640625 56 84.28125 50.015625 
Q 88.921875 44.046875 88.921875 33.015625 
L 88.921875 0 
L 79.890625 0 
L 79.890625 32.71875 
Q 79.890625 40.578125 77.09375 44.375 
Q 74.3125 48.1875 68.609375 48.1875 
Q 61.625 48.1875 57.5625 43.546875 
Q 53.515625 38.921875 53.515625 30.90625 
L 53.515625 0 
L 44.484375 0 
L 44.484375 32.71875 
Q 44.484375 40.625 41.703125 44.40625 
Q 38.921875 48.1875 33.109375 48.1875 
Q 26.21875 48.1875 22.15625 43.53125 
Q 18.109375 38.875 18.109375 30.90625 
L 18.109375 0 
L 9.078125 0 
L 9.078125 54.6875 
L 18.109375 54.6875 
L 18.109375 46.1875 
Q 21.1875 51.21875 25.484375 53.609375 
Q 29.78125 56 35.6875 56 
Q 41.65625 56 45.828125 52.96875 
Q 50 49.953125 52 44.1875 
" id="BitstreamVeraSans-Roman-6d"/>
     <path d="M 9.8125 72.90625 
L 24.515625 72.90625 
L 43.109375 23.296875 
L 61.8125 72.90625 
L 76.515625 72.90625 
L 76.515625 0 
L 66.890625 0 
L 66.890625 64.015625 
L 48.09375 14.015625 
L 38.1875 14.015625 
L 19.390625 64.015625 
L 19.390625 0 
L 9.8125 0 
z
" id="BitstreamVeraSans-Roman-4d"/>
     <path d="M 2.984375 54.6875 
L 12.5 54.6875 
L 29.59375 8.796875 
L 46.6875 54.6875 
L 56.203125 54.6875 
L 35.6875 0 
L 23.484375 0 
z
" id="BitstreamVeraSans-Roman-76"/>
     <path d="M 64.40625 67.28125 
L 64.40625 56.890625 
Q 59.421875 61.53125 53.78125 63.8125 
Q 48.140625 66.109375 41.796875 66.109375 
Q 29.296875 66.109375 22.65625 58.46875 
Q 16.015625 50.828125 16.015625 36.375 
Q 16.015625 21.96875 22.65625 14.328125 
Q 29.296875 6.6875 41.796875 6.6875 
Q 48.140625 6.6875 53.78125 8.984375 
Q 59.421875 11.28125 64.40625 15.921875 
L 64.40625 5.609375 
Q 59.234375 2.09375 53.4375 0.328125 
Q 47.65625 -1.421875 41.21875 -1.421875 
Q 24.65625 -1.421875 15.125 8.703125 
Q 5.609375 18.84375 5.609375 36.375 
Q 5.609375 53.953125 15.125 64.078125 
Q 24.65625 74.21875 41.21875 74.21875 
Q 47.75 74.21875 53.53125 72.484375 
Q 59.328125 70.75 64.40625 67.28125 
" id="BitstreamVeraSans-Roman-43"/>
     <path d="M 30.609375 48.390625 
Q 23.390625 48.390625 19.1875 42.75 
Q 14.984375 37.109375 14.984375 27.296875 
Q 14.984375 17.484375 19.15625 11.84375 
Q 23.34375 6.203125 30.609375 6.203125 
Q 37.796875 6.203125 41.984375 11.859375 
Q 46.1875 17.53125 46.1875 27.296875 
Q 46.1875 37.015625 41.984375 42.703125 
Q 37.796875 48.390625 30.609375 48.390625 
M 30.609375 56 
Q 42.328125 56 49.015625 48.375 
Q 55.71875 40.765625 55.71875 27.296875 
Q 55.71875 13.875 49.015625 6.21875 
Q 42.328125 -1.421875 30.609375 -1.421875 
Q 18.84375 -1.421875 12.171875 6.21875 
Q 5.515625 13.875 5.515625 27.296875 
Q 5.515625 40.765625 12.171875 48.375 
Q 18.84375 56 30.609375 56 
" id="BitstreamVeraSans-Roman-6f"/>
     <path d="M 44.390625 34.1875 
Q 47.5625 33.109375 50.5625 29.59375 
Q 53.5625 26.078125 56.59375 19.921875 
L 66.609375 0 
L 56 0 
L 46.6875 18.703125 
Q 43.0625 26.03125 39.671875 28.421875 
Q 36.28125 30.8125 30.421875 30.8125 
L 19.671875 30.8125 
L 19.671875 0 
L 9.8125 0 
L 9.8125 72.90625 
L 32.078125 72.90625 
Q 44.578125 72.90625 50.734375 67.671875 
Q 56.890625 62.453125 56.890625 51.90625 
Q 56.890625 45.015625 53.6875 40.46875 
Q 50.484375 35.9375 44.390625 34.1875 
M 19.671875 64.796875 
L 19.671875 38.921875 
L 32.078125 38.921875 
Q 39.203125 38.921875 42.84375 42.21875 
Q 46.484375 45.515625 46.484375 51.90625 
Q 46.484375 58.296875 42.84375 61.546875 
Q 39.203125 64.796875 32.078125 64.796875 
z
" id="BitstreamVeraSans-Roman-52"/>
    </defs>
    <g transform="translate(319.20975 56.29)scale(0.144 -0.144)">
     <use xlink:href="#BitstreamVeraSans-Roman-50"/>
     <use x="60.302734375" xlink:href="#BitstreamVeraSans-Roman-68"/>
     <use x="123.681640625" xlink:href="#BitstreamVeraSans-Roman-61"/>
     <use x="184.9609375" xlink:href="#BitstreamVeraSans-Roman-73"/>
     <use x="237.060546875" xlink:href="#BitstreamVeraSans-Roman-65"/>
     <use x="298.583984375" xlink:href="#BitstreamVeraSans-Roman-20"/>
     <use x="330.37109375" xlink:href="#BitstreamVeraSans-Roman-43"/>
     <use x="400.1953125" xlink:href="#BitstreamVeraSans-Roman-75"/>
     <use x="463.57421875" xlink:href="#BitstreamVeraSans-Roman-72"/>
     <use x="504.6875" xlink:href="#BitstreamVeraSans-Roman-76"/>
     <use x="563.8671875" xlink:href="#BitstreamVeraSans-Roman-65"/>
     <use x="625.390625" xlink:href="#BitstreamVeraSans-Roman-20"/>
     <use x="657.177734375" xlink:href="#BitstreamVeraSans-Roman-66"/>
     <use x="692.3828125" xlink:href="#BitstreamVeraSans-Roman-6f"/>
     <use x="753.564453125" xlink:href="#BitstreamVeraSans-Roman-72"/>
     <use x="794.677734375" xlink:href="#BitstreamVeraSans-Roman-20"/>
     <use x="826.46484375" xlink:href="#BitstreamVeraSans-Roman-35"/>
     <use x="890.087890625" xlink:href="#BitstreamVeraSans-Roman-20"/>
     <use x="921.875" xlink:href="#BitstreamVeraSans-Roman-48"/>
     <use x="997.0703125" xlink:href="#BitstreamVeraSans-Roman-7a"/>
     <use x="1049.560546875" xlink:href="#BitstreamVeraSans-Roman-20"/>
     <use x="1081.34765625" xlink:href="#BitstreamVeraSans-Roman-4d"/>
     <use x="1167.626953125" xlink:href="#BitstreamVeraSans-Roman-46"/>
     <use x="1225.146484375" xlink:href="#BitstreamVeraSans-Roman-52"/>
     <use x="1294.62890625" xlink:href="#BitstreamVeraSans-Roman-20"/>
     <use x="1326.416015625" xlink:href="#BitstreamVeraSans-Roman-61"/>
     <use x="1387.6953125" xlink:href="#BitstreamVeraSans-Roman-6e"/>
     <use x="1451.07421875" xlink:href="#BitstreamVeraSans-Roman-64"/>
     <use x="1514.55078125" xlink:href="#BitstreamVeraSans-Roman-20"/>
     <use x="1546.337890625" xlink:href="#BitstreamVeraSans-Roman-31"/>
     <use x="1609.9609375" xlink:href="#BitstreamVeraSans-Roman-30"/>
     <use x="1673.583984375" xlink:href="#BitstreamVeraSans-Roman-2e"/>
     <use x="1705.37109375" xlink:href="#BitstreamVeraSans-Roman-30"/>
     <use x="1768.994140625" xlink:href="#BitstreamVeraSans-Roman-20"/>
     <use x="1800.78125" xlink:href="#BitstreamVeraSans-Roman-4d"/>
     <use x="1887.060546875" xlink:href="#BitstreamVeraSans-Roman-4f"/>
     <use x="1965.771484375" xlink:href="#BitstreamVeraSans-Roman-68"/>
     <use x="2029.150390625" xlink:href="#BitstreamVeraSans-Roman-6d"/>
    </g>
   </g>
   <g id="legend_1">
    <g id="patch_7">
     <path d="M 122.4 544.41 
L 257.98275 544.41 
L 257.98275 328.725 
L 122.4 328.725 
z
" style="fill:#ffffff;stroke:#000000;stroke-linejoin:miter;"/>
    </g>
    <g id="line2d_87">
     <path d="M 132.48 340.38675 
L 152.64 340.38675 
" style="fill:none;stroke:#ff1e1e;stroke-linecap:square;"/>
    </g>
    <g id="line2d_88"/>
    <g id="text_18">
     <!-- Std: 100.0 -->
     <defs>
      <path d="M 18.3125 70.21875 
L 18.3125 54.6875 
L 36.8125 54.6875 
L 36.8125 47.703125 
L 18.3125 47.703125 
L 18.3125 18.015625 
Q 18.3125 11.328125 20.140625 9.421875 
Q 21.96875 7.515625 27.59375 7.515625 
L 36.8125 7.515625 
L 36.8125 0 
L 27.59375 0 
Q 17.1875 0 13.234375 3.875 
Q 9.28125 7.765625 9.28125 18.015625 
L 9.28125 47.703125 
L 2.6875 47.703125 
L 2.6875 54.6875 
L 9.28125 54.6875 
L 9.28125 70.21875 
z
" id="BitstreamVeraSans-Roman-74"/>
      <path d="M 11.71875 12.40625 
L 22.015625 12.40625 
L 22.015625 0 
L 11.71875 0 
z
M 11.71875 51.703125 
L 22.015625 51.703125 
L 22.015625 39.3125 
L 11.71875 39.3125 
z
" id="BitstreamVeraSans-Roman-3a"/>
      <path d="M 53.515625 70.515625 
L 53.515625 60.890625 
Q 47.90625 63.578125 42.921875 64.890625 
Q 37.9375 66.21875 33.296875 66.21875 
Q 25.25 66.21875 20.875 63.09375 
Q 16.5 59.96875 16.5 54.203125 
Q 16.5 49.359375 19.40625 46.890625 
Q 22.3125 44.4375 30.421875 42.921875 
L 36.375 41.703125 
Q 47.40625 39.59375 52.65625 34.296875 
Q 57.90625 29 57.90625 20.125 
Q 57.90625 9.515625 50.796875 4.046875 
Q 43.703125 -1.421875 29.984375 -1.421875 
Q 24.8125 -1.421875 18.96875 -0.25 
Q 13.140625 0.921875 6.890625 3.21875 
L 6.890625 13.375 
Q 12.890625 10.015625 18.65625 8.296875 
Q 24.421875 6.59375 29.984375 6.59375 
Q 38.421875 6.59375 43.015625 9.90625 
Q 47.609375 13.234375 47.609375 19.390625 
Q 47.609375 24.75 44.3125 27.78125 
Q 41.015625 30.8125 33.5 32.328125 
L 27.484375 33.5 
Q 16.453125 35.6875 11.515625 40.375 
Q 6.59375 45.0625 6.59375 53.421875 
Q 6.59375 63.09375 13.40625 68.65625 
Q 20.21875 74.21875 32.171875 74.21875 
Q 37.3125 74.21875 42.625 73.28125 
Q 47.953125 72.359375 53.515625 70.515625 
" id="BitstreamVeraSans-Roman-53"/>
     </defs>
     <g transform="translate(168.48 345.42675)scale(0.144 -0.144)">
      <use xlink:href="#BitstreamVeraSans-Roman-53"/>
      <use x="63.4765625" xlink:href="#BitstreamVeraSans-Roman-74"/>
      <use x="102.685546875" xlink:href="#BitstreamVeraSans-Roman-64"/>
      <use x="166.162109375" xlink:href="#BitstreamVeraSans-Roman-3a"/>
      <use x="199.853515625" xlink:href="#BitstreamVeraSans-Roman-20"/>
      <use x="231.640625" xlink:href="#BitstreamVeraSans-Roman-31"/>
      <use x="295.263671875" xlink:href="#BitstreamVeraSans-Roman-30"/>
      <use x="358.88671875" xlink:href="#BitstreamVeraSans-Roman-30"/>
      <use x="422.509765625" xlink:href="#BitstreamVeraSans-Roman-2e"/>
      <use x="454.296875" xlink:href="#BitstreamVeraSans-Roman-30"/>
     </g>
    </g>
    <g id="line2d_89">
     <path d="M 132.48 361.52325 
L 152.64 361.52325 
" style="fill:none;stroke:#581845;stroke-linecap:square;"/>
    </g>
    <g id="line2d_90"/>
    <g id="text_19">
     <!-- Std: 200.0 -->
     <g transform="translate(168.48 366.56325)scale(0.144 -0.144)">
      <use xlink:href="#BitstreamVeraSans-Roman-53"/>
      <use x="63.4765625" xlink:href="#BitstreamVeraSans-Roman-74"/>
      <use x="102.685546875" xlink:href="#BitstreamVeraSans-Roman-64"/>
      <use x="166.162109375" xlink:href="#BitstreamVeraSans-Roman-3a"/>
      <use x="199.853515625" xlink:href="#BitstreamVeraSans-Roman-20"/>
      <use x="231.640625" xlink:href="#BitstreamVeraSans-Roman-32"/>
      <use x="295.263671875" xlink:href="#BitstreamVeraSans-Roman-30"/>
      <use x="358.88671875" xlink:href="#BitstreamVeraSans-Roman-30"/>
      <use x="422.509765625" xlink:href="#BitstreamVeraSans-Roman-2e"/>
      <use x="454.296875" xlink:href="#BitstreamVeraSans-Roman-30"/>
     </g>
    </g>
    <g id="line2d_91">
     <path d="M 132.48 382.65975 
L 152.64 382.65975 
" style="fill:none;stroke:#26b7d8;stroke-linecap:square;"/>
    </g>
    <g id="line2d_92"/>
    <g id="text_20">
     <!-- Std: 300.0 -->
     <g transform="translate(168.48 387.69975)scale(0.144 -0.144)">
      <use xlink:href="#BitstreamVeraSans-Roman-53"/>
      <use x="63.4765625" xlink:href="#BitstreamVeraSans-Roman-74"/>
      <use x="102.685546875" xlink:href="#BitstreamVeraSans-Roman-64"/>
      <use x="166.162109375" xlink:href="#BitstreamVeraSans-Roman-3a"/>
      <use x="199.853515625" xlink:href="#BitstreamVeraSans-Roman-20"/>
      <use x="231.640625" xlink:href="#BitstreamVeraSans-Roman-33"/>
      <use x="295.263671875" xlink:href="#BitstreamVeraSans-Roman-30"/>
      <use x="358.88671875" xlink:href="#BitstreamVeraSans-Roman-30"/>
      <use x="422.509765625" xlink:href="#BitstreamVeraSans-Roman-2e"/>
      <use x="454.296875" xlink:href="#BitstreamVeraSans-Roman-30"/>
     </g>
    </g>
    <g id="line2d_93">
     <path d="M 132.48 403.79625 
L 152.64 403.79625 
" style="fill:none;stroke:#8414a4;stroke-linecap:square;"/>
    </g>
    <g id="line2d_94"/>
    <g id="text_21">
     <!-- Std: 400.0 -->
     <g transform="translate(168.48 408.83625)scale(0.144 -0.144)">
      <use xlink:href="#BitstreamVeraSans-Roman-53"/>
      <use x="63.4765625" xlink:href="#BitstreamVeraSans-Roman-74"/>
      <use x="102.685546875" xlink:href="#BitstreamVeraSans-Roman-64"/>
      <use x="166.162109375" xlink:href="#BitstreamVeraSans-Roman-3a"/>
      <use x="199.853515625" xlink:href="#BitstreamVeraSans-Roman-20"/>
      <use x="231.640625" xlink:href="#BitstreamVeraSans-Roman-34"/>
      <use x="295.263671875" xlink:href="#BitstreamVeraSans-Roman-30"/>
      <use x="358.88671875" xlink:href="#BitstreamVeraSans-Roman-30"/>
      <use x="422.509765625" xlink:href="#BitstreamVeraSans-Roman-2e"/>
      <use x="454.296875" xlink:href="#BitstreamVeraSans-Roman-30"/>
     </g>
    </g>
    <g id="line2d_95">
     <path d="M 132.48 424.93275 
L 152.64 424.93275 
" style="fill:none;stroke:#ffd23a;stroke-linecap:square;"/>
    </g>
    <g id="line2d_96"/>
    <g id="text_22">
     <!-- Std: 500.0 -->
     <g transform="translate(168.48 429.97275)scale(0.144 -0.144)">
      <use xlink:href="#BitstreamVeraSans-Roman-53"/>
      <use x="63.4765625" xlink:href="#BitstreamVeraSans-Roman-74"/>
      <use x="102.685546875" xlink:href="#BitstreamVeraSans-Roman-64"/>
      <use x="166.162109375" xlink:href="#BitstreamVeraSans-Roman-3a"/>
      <use x="199.853515625" xlink:href="#BitstreamVeraSans-Roman-20"/>
      <use x="231.640625" xlink:href="#BitstreamVeraSans-Roman-35"/>
      <use x="295.263671875" xlink:href="#BitstreamVeraSans-Roman-30"/>
      <use x="358.88671875" xlink:href="#BitstreamVeraSans-Roman-30"/>
      <use x="422.509765625" xlink:href="#BitstreamVeraSans-Roman-2e"/>
      <use x="454.296875" xlink:href="#BitstreamVeraSans-Roman-30"/>
     </g>
    </g>
    <g id="line2d_97">
     <path d="M 132.48 446.06925 
L 152.64 446.06925 
" style="fill:none;stroke:#ff9300;stroke-linecap:square;"/>
    </g>
    <g id="line2d_98"/>
    <g id="text_23">
     <!-- Std: 600.0 -->
     <g transform="translate(168.48 451.10925)scale(0.144 -0.144)">
      <use xlink:href="#BitstreamVeraSans-Roman-53"/>
      <use x="63.4765625" xlink:href="#BitstreamVeraSans-Roman-74"/>
      <use x="102.685546875" xlink:href="#BitstreamVeraSans-Roman-64"/>
      <use x="166.162109375" xlink:href="#BitstreamVeraSans-Roman-3a"/>
      <use x="199.853515625" xlink:href="#BitstreamVeraSans-Roman-20"/>
      <use x="231.640625" xlink:href="#BitstreamVeraSans-Roman-36"/>
      <use x="295.263671875" xlink:href="#BitstreamVeraSans-Roman-30"/>
      <use x="358.88671875" xlink:href="#BitstreamVeraSans-Roman-30"/>
      <use x="422.509765625" xlink:href="#BitstreamVeraSans-Roman-2e"/>
      <use x="454.296875" xlink:href="#BitstreamVeraSans-Roman-30"/>
     </g>
    </g>
    <g id="line2d_99">
     <path d="M 132.48 467.20575 
L 152.64 467.20575 
" style="fill:none;stroke:#f50fe6;stroke-linecap:square;"/>
    </g>
    <g id="line2d_100"/>
    <g id="text_24">
     <!-- Std: 700.0 -->
     <g transform="translate(168.48 472.24575)scale(0.144 -0.144)">
      <use xlink:href="#BitstreamVeraSans-Roman-53"/>
      <use x="63.4765625" xlink:href="#BitstreamVeraSans-Roman-74"/>
      <use x="102.685546875" xlink:href="#BitstreamVeraSans-Roman-64"/>
      <use x="166.162109375" xlink:href="#BitstreamVeraSans-Roman-3a"/>
      <use x="199.853515625" xlink:href="#BitstreamVeraSans-Roman-20"/>
      <use x="231.640625" xlink:href="#BitstreamVeraSans-Roman-37"/>
      <use x="295.263671875" xlink:href="#BitstreamVeraSans-Roman-30"/>
      <use x="358.88671875" xlink:href="#BitstreamVeraSans-Roman-30"/>
      <use x="422.509765625" xlink:href="#BitstreamVeraSans-Roman-2e"/>
      <use x="454.296875" xlink:href="#BitstreamVeraSans-Roman-30"/>
     </g>
    </g>
    <g id="line2d_101">
     <path d="M 132.48 488.34225 
L 152.64 488.34225 
" style="fill:none;stroke:#1000a0;stroke-linecap:square;"/>
    </g>
    <g id="line2d_102"/>
    <g id="text_25">
     <!-- Std: 800.0 -->
     <g transform="translate(168.48 493.38225)scale(0.144 -0.144)">
      <use xlink:href="#BitstreamVeraSans-Roman-53"/>
      <use x="63.4765625" xlink:href="#BitstreamVeraSans-Roman-74"/>
      <use x="102.685546875" xlink:href="#BitstreamVeraSans-Roman-64"/>
      <use x="166.162109375" xlink:href="#BitstreamVeraSans-Roman-3a"/>
      <use x="199.853515625" xlink:href="#BitstreamVeraSans-Roman-20"/>
      <use x="231.640625" xlink:href="#BitstreamVeraSans-Roman-38"/>
      <use x="295.263671875" xlink:href="#BitstreamVeraSans-Roman-30"/>
      <use x="358.88671875" xlink:href="#BitstreamVeraSans-Roman-30"/>
      <use x="422.509765625" xlink:href="#BitstreamVeraSans-Roman-2e"/>
      <use x="454.296875" xlink:href="#BitstreamVeraSans-Roman-30"/>
     </g>
    </g>
    <g id="line2d_103">
     <path d="M 132.48 509.47875 
L 152.64 509.47875 
" style="fill:none;stroke:#595866;stroke-linecap:square;"/>
    </g>
    <g id="line2d_104"/>
    <g id="text_26">
     <!-- Std: 900.0 -->
     <defs>
      <path d="M 10.984375 1.515625 
L 10.984375 10.5 
Q 14.703125 8.734375 18.5 7.8125 
Q 22.3125 6.890625 25.984375 6.890625 
Q 35.75 6.890625 40.890625 13.453125 
Q 46.046875 20.015625 46.78125 33.40625 
Q 43.953125 29.203125 39.59375 26.953125 
Q 35.25 24.703125 29.984375 24.703125 
Q 19.046875 24.703125 12.671875 31.3125 
Q 6.296875 37.9375 6.296875 49.421875 
Q 6.296875 60.640625 12.9375 67.421875 
Q 19.578125 74.21875 30.609375 74.21875 
Q 43.265625 74.21875 49.921875 64.515625 
Q 56.59375 54.828125 56.59375 36.375 
Q 56.59375 19.140625 48.40625 8.859375 
Q 40.234375 -1.421875 26.421875 -1.421875 
Q 22.703125 -1.421875 18.890625 -0.6875 
Q 15.09375 0.046875 10.984375 1.515625 
M 30.609375 32.421875 
Q 37.25 32.421875 41.125 36.953125 
Q 45.015625 41.5 45.015625 49.421875 
Q 45.015625 57.28125 41.125 61.84375 
Q 37.25 66.40625 30.609375 66.40625 
Q 23.96875 66.40625 20.09375 61.84375 
Q 16.21875 57.28125 16.21875 49.421875 
Q 16.21875 41.5 20.09375 36.953125 
Q 23.96875 32.421875 30.609375 32.421875 
" id="BitstreamVeraSans-Roman-39"/>
     </defs>
     <g transform="translate(168.48 514.51875)scale(0.144 -0.144)">
      <use xlink:href="#BitstreamVeraSans-Roman-53"/>
      <use x="63.4765625" xlink:href="#BitstreamVeraSans-Roman-74"/>
      <use x="102.685546875" xlink:href="#BitstreamVeraSans-Roman-64"/>
      <use x="166.162109375" xlink:href="#BitstreamVeraSans-Roman-3a"/>
      <use x="199.853515625" xlink:href="#BitstreamVeraSans-Roman-20"/>
      <use x="231.640625" xlink:href="#BitstreamVeraSans-Roman-39"/>
      <use x="295.263671875" xlink:href="#BitstreamVeraSans-Roman-30"/>
      <use x="358.88671875" xlink:href="#BitstreamVeraSans-Roman-30"/>
      <use x="422.509765625" xlink:href="#BitstreamVeraSans-Roman-2e"/>
      <use x="454.296875" xlink:href="#BitstreamVeraSans-Roman-30"/>
     </g>
    </g>
    <g id="line2d_105">
     <path d="M 132.48 530.61525 
L 152.64 530.61525 
" style="fill:none;stroke:#147f2a;stroke-linecap:square;"/>
    </g>
    <g id="line2d_106"/>
    <g id="text_27">
     <!-- Std: 1000.0 -->
     <g transform="translate(168.48 535.65525)scale(0.144 -0.144)">
      <use xlink:href="#BitstreamVeraSans-Roman-53"/>
      <use x="63.4765625" xlink:href="#BitstreamVeraSans-Roman-74"/>
      <use x="102.685546875" xlink:href="#BitstreamVeraSans-Roman-64"/>
      <use x="166.162109375" xlink:href="#BitstreamVeraSans-Roman-3a"/>
      <use x="199.853515625" xlink:href="#BitstreamVeraSans-Roman-20"/>
      <use x="231.640625" xlink:href="#BitstreamVeraSans-Roman-31"/>
      <use x="295.263671875" xlink:href="#BitstreamVeraSans-Roman-30"/>
      <use x="358.88671875" xlink:href="#BitstreamVeraSans-Roman-30"/>
      <use x="422.509765625" xlink:href="#BitstreamVeraSans-Roman-30"/>
      <use x="486.1328125" xlink:href="#BitstreamVeraSans-Roman-2e"/>
      <use x="517.919921875" xlink:href="#BitstreamVeraSans-Roman-30"/>
     </g>
    </g>
   </g>
  </g>
 </g>
 <defs>
  <clipPath id="p65e6d711f6">
   <rect height="490.32" width="714.24" x="115.2" y="61.29"/>
  </clipPath>
 </defs>
</svg>
