<?xml version="1.0" encoding="utf-8" standalone="no"?>
<!DOCTYPE svg PUBLIC "-//W3C//DTD SVG 1.1//EN"
  "http://www.w3.org/Graphics/SVG/1.1/DTD/svg11.dtd">
<!-- Created with matplotlib (http://matplotlib.org/) -->
<svg height="612pt" version="1.1" viewBox="0 0 921 612" width="921pt" xmlns="http://www.w3.org/2000/svg" xmlns:xlink="http://www.w3.org/1999/xlink">
 <defs>
  <style type="text/css">
*{stroke-linecap:butt;stroke-linejoin:round;stroke-miterlimit:100000;}
  </style>
 </defs>
 <g id="figure_1">
  <g id="patch_1">
   <path d="M 0 612.9 
L 921.6 612.9 
L 921.6 0 
L 0 0 
z
" style="fill:#ffffff;"/>
  </g>
  <g id="axes_1">
   <g id="patch_2">
    <path d="M 115.2 551.61 
L 829.44 551.61 
L 829.44 61.29 
L 115.2 61.29 
z
" style="fill:#ffffff;"/>
   </g>
   <g id="line2d_1">
    <path clip-path="url(#p29a7e1b9e1)" d="M 115.2 119.416286 
L 132.313668 119.943119 
L 146.992943 120.621539 
L 159.844933 120.353236 
L 171.274613 122.152607 
L 181.565657 122.405053 
L 190.924519 123.59213 
L 199.506137 124.531773 
L 207.42977 124.790937 
L 214.789171 125.477222 
L 221.659384 125.656091 
L 228.101408 127.664233 
L 234.165501 127.59124 
L 239.893559 128.200543 
L 245.320877 129.191197 
L 250.477466 129.694537 
L 255.389057 130.620666 
L 264.563263 130.395305 
L 268.862134 132.457447 
L 272.989385 133.987374 
L 276.958194 133.405363 
L 280.780278 134.500418 
L 284.466099 135.433646 
L 288.025041 135.641893 
L 291.465549 137.156238 
L 294.795252 137.917681 
L 298.021064 138.130971 
L 301.149274 137.080459 
L 304.185615 138.618688 
L 307.135328 138.924825 
L 310.003221 138.656178 
L 312.793709 140.108426 
L 315.510863 139.22082 
L 318.158437 141.378808 
L 320.739907 141.414306 
L 323.258492 142.740872 
L 325.717185 142.957568 
L 330.465834 145.007014 
L 332.760802 144.73546 
L 335.005936 146.694723 
L 337.203354 147.751612 
L 339.355042 147.388532 
L 341.462865 149.887273 
L 353.28 155.055625 
L 370.393668 165.992154 
L 385.072943 175.592325 
L 397.924933 184.371692 
L 409.354613 189.534541 
L 419.645657 195.214909 
L 429.004519 199.976539 
L 437.586137 203.792225 
L 445.50977 207.957614 
L 452.869171 202.847585 
L 459.739384 210.796091 
L 466.181408 206.033464 
L 472.245501 206.424541 
L 477.973559 206.079864 
L 483.400877 207.590681 
L 488.557466 210.638592 
L 493.469057 209.816949 
L 498.157878 213.404271 
L 502.643263 211.275986 
L 506.942134 215.290003 
L 511.069385 212.935804 
L 515.038194 219.590894 
L 518.860278 215.407301 
L 522.546099 218.303725 
L 526.105041 220.929152 
L 529.545549 221.513551 
L 532.875252 213.812345 
L 536.101064 219.50744 
L 539.229274 213.81103 
L 542.265615 224.562091 
L 545.215328 211.045771 
L 548.083221 218.781176 
L 550.873709 234.054022 
L 553.590863 211.202279 
L 556.238437 216.127927 
L 558.819907 217.649796 
L 561.338492 221.978601 
L 563.797185 227.539741 
L 566.198768 217.611961 
L 568.545834 225.851267 
L 570.840802 225.563069 
L 573.085936 221.476367 
L 575.283354 227.426605 
L 577.435042 217.802501 
L 579.542865 222.663467 
L 591.36 224.564023 
L 608.473668 243.275823 
L 623.152943 205.302813 
L 636.004933 234.340303 
L 647.434613 236.972776 
L 657.725657 247.904904 
L 667.084519 212.284963 
L 675.666137 227.939112 
L 683.58977 226.734771 
L 690.949171 227.201949 
L 697.819384 318.193301 
L 704.261408 241.543573 
L 710.325501 266.367899 
L 716.053559 239.527743 
L 721.480877 265.663339 
L 726.637466 281.500652 
L 731.549057 219.960748 
L 736.237878 268.452712 
L 740.723263 319.764184 
L 745.022134 257.302083 
L 749.149385 547.108825 
L 753.118194 305.711747 
L 756.940278 276.891606 
L 760.626099 250.639687 
L 764.185041 297.394522 
L 767.625549 257.094128 
L 770.955252 270.981515 
L 774.181064 237.516364 
L 777.309274 215.892201 
L 780.345615 319.011003 
L 783.295328 303.016243 
L 786.163221 305.267157 
L 788.953709 398.197494 
L 791.670863 346.725503 
L 794.318437 275.867159 
L 796.899907 259.256947 
L 799.418492 344.511691 
L 801.877185 377.967087 
L 804.278768 355.505417 
L 806.625834 498.216546 
L 808.920802 305.244226 
L 811.165936 233.626285 
L 813.363354 351.182449 
L 815.515042 381.310941 
L 817.622865 491.489516 
L 819.688575 421.106584 
L 821.713822 247.842607 
L 823.700162 366.151097 
L 825.64906 385.860233 
L 827.561903 415.443253 
L 827.561903 415.443253 
" style="fill:none;stroke:#ff1e1e;stroke-linecap:square;"/>
   </g>
   <g id="line2d_2">
    <path clip-path="url(#p29a7e1b9e1)" d="M 115.2 120.22382 
L 132.313668 119.465768 
L 146.992943 120.031825 
L 159.844933 122.209591 
L 171.274613 122.08688 
L 181.565657 123.122537 
L 190.924519 124.643334 
L 199.506137 124.374046 
L 207.42977 124.822017 
L 214.789171 125.35716 
L 221.659384 128.324218 
L 228.101408 127.894128 
L 234.165501 127.784945 
L 239.893559 127.05058 
L 245.320877 129.760464 
L 250.477466 128.896958 
L 255.389057 129.082572 
L 260.077878 131.279107 
L 264.563263 131.715496 
L 268.862134 132.312681 
L 272.989385 132.375673 
L 276.958194 133.83099 
L 280.780278 134.031691 
L 284.466099 134.471234 
L 288.025041 136.645841 
L 291.465549 135.676788 
L 294.795252 135.979382 
L 298.021064 137.041515 
L 301.149274 137.943878 
L 304.185615 139.412936 
L 307.135328 137.304097 
L 310.003221 139.435639 
L 312.793709 139.024234 
L 315.510863 141.215092 
L 318.158437 141.21043 
L 320.739907 141.897063 
L 323.258492 141.955269 
L 325.717185 143.299195 
L 328.118768 141.50462 
L 330.465834 143.516786 
L 332.760802 142.957292 
L 337.203354 145.058907 
L 339.355042 143.736065 
L 341.462865 145.198077 
L 353.28 150.271608 
L 370.393668 154.879746 
L 385.072943 158.139427 
L 397.924933 161.943569 
L 409.354613 168.610035 
L 419.645657 171.526307 
L 429.004519 178.888 
L 437.586137 179.52183 
L 445.50977 184.742688 
L 452.869171 185.127231 
L 459.739384 189.505165 
L 466.181408 190.816721 
L 472.245501 195.482337 
L 477.973559 196.552987 
L 483.400877 198.168638 
L 488.557466 198.683475 
L 493.469057 197.484901 
L 498.157878 199.734139 
L 502.643263 201.284481 
L 506.942134 206.429313 
L 511.069385 205.505532 
L 515.038194 206.156884 
L 518.860278 202.577259 
L 522.546099 206.314384 
L 526.105041 207.803139 
L 529.545549 206.457906 
L 532.875252 201.346727 
L 536.101064 205.004678 
L 539.229274 206.627889 
L 542.265615 208.661883 
L 545.215328 203.52353 
L 548.083221 211.422916 
L 550.873709 209.988843 
L 553.590863 212.167057 
L 556.238437 216.978126 
L 558.819907 215.280794 
L 561.338492 214.840054 
L 563.797185 208.765333 
L 566.198768 220.909378 
L 568.545834 204.934424 
L 570.840802 215.45854 
L 573.085936 215.099455 
L 575.283354 218.146668 
L 577.435042 213.422777 
L 579.542865 217.493625 
L 591.36 216.26202 
L 608.473668 232.077189 
L 623.152943 221.965863 
L 636.004933 187.698126 
L 647.434613 230.991236 
L 657.725657 212.700342 
L 667.084519 202.765044 
L 675.666137 231.089706 
L 683.58977 261.419513 
L 690.949171 224.077892 
L 697.819384 225.896594 
L 704.261408 251.227671 
L 710.325501 252.691918 
L 716.053559 263.790459 
L 721.480877 234.552155 
L 726.637466 205.050736 
L 731.549057 321.013632 
L 736.237878 231.113417 
L 740.723263 315.607013 
L 745.022134 278.922591 
L 749.149385 247.096259 
L 753.118194 367.013534 
L 756.940278 511.465596 
L 760.626099 280.3572 
L 764.185041 328.409633 
L 767.625549 280.505429 
L 770.955252 254.585763 
L 774.181064 329.389073 
L 777.309274 368.44899 
L 780.345615 421.191519 
L 783.295328 238.475494 
L 786.163221 502.320941 
L 788.953709 301.352944 
L 791.670863 300.123709 
L 794.318437 270.35925 
L 796.899907 256.916149 
L 799.418492 490.381244 
L 801.877185 398.600375 
L 804.278768 492.874668 
L 806.625834 266.356559 
L 808.920802 322.59701 
L 811.165936 465.586648 
L 813.363354 290.024012 
L 815.515042 446.715251 
L 817.622865 282.47836 
L 819.688575 357.301067 
L 821.713822 382.883647 
L 823.700162 350.31221 
L 825.64906 540.240905 
L 827.561903 398.7944 
L 827.561903 398.7944 
" style="fill:none;stroke:#581845;stroke-linecap:square;"/>
   </g>
   <g id="line2d_3">
    <path clip-path="url(#p29a7e1b9e1)" d="M 115.2 118.989874 
L 132.313668 120.673676 
L 146.992943 119.711981 
L 159.844933 123.090986 
L 171.274613 122.937836 
L 181.565657 121.758184 
L 190.924519 121.521839 
L 199.506137 125.864483 
L 207.42977 125.751297 
L 214.789171 123.796345 
L 228.101408 124.980137 
L 234.165501 128.152204 
L 239.893559 128.476691 
L 245.320877 128.066957 
L 250.477466 129.559941 
L 255.389057 129.977382 
L 260.077878 129.136129 
L 264.563263 130.768175 
L 268.862134 129.727804 
L 272.989385 130.683601 
L 276.958194 132.385367 
L 280.780278 134.384323 
L 288.025041 133.075939 
L 291.465549 136.50144 
L 294.795252 137.876255 
L 298.021064 136.841694 
L 301.149274 134.975492 
L 304.185615 138.33591 
L 307.135328 138.195928 
L 310.003221 137.609898 
L 312.793709 136.508067 
L 315.510863 138.196341 
L 318.158437 138.209263 
L 320.739907 138.579719 
L 323.258492 138.010393 
L 325.717185 139.755012 
L 328.118768 140.947515 
L 330.465834 141.192619 
L 332.760802 142.236171 
L 335.005936 143.958069 
L 337.203354 141.216098 
L 339.355042 141.424133 
L 341.462865 140.094703 
L 353.28 143.932081 
L 370.393668 149.371092 
L 385.072943 154.424874 
L 397.924933 153.736645 
L 409.354613 156.749138 
L 419.645657 162.226297 
L 429.004519 160.53466 
L 437.586137 163.806798 
L 445.50977 163.261086 
L 452.869171 174.168288 
L 459.739384 171.671579 
L 466.181408 178.025161 
L 472.245501 178.617531 
L 477.973559 181.574767 
L 483.400877 184.713456 
L 488.557466 190.311357 
L 493.469057 188.874716 
L 498.157878 193.04539 
L 502.643263 188.600909 
L 506.942134 195.364552 
L 511.069385 192.395544 
L 515.038194 198.239269 
L 518.860278 195.521066 
L 522.546099 198.990526 
L 526.105041 191.128165 
L 529.545549 204.103057 
L 532.875252 202.104258 
L 536.101064 203.413063 
L 539.229274 198.842126 
L 542.265615 205.542288 
L 545.215328 196.788471 
L 548.083221 198.750104 
L 550.873709 202.348791 
L 553.590863 201.355148 
L 556.238437 212.684575 
L 558.819907 198.221942 
L 561.338492 201.176827 
L 563.797185 205.253879 
L 566.198768 197.578974 
L 568.545834 208.053614 
L 570.840802 200.125525 
L 573.085936 195.998164 
L 575.283354 202.036655 
L 577.435042 206.826381 
L 579.542865 208.368236 
L 591.36 219.622068 
L 608.473668 207.102225 
L 623.152943 242.545672 
L 636.004933 230.872688 
L 647.434613 237.205682 
L 657.725657 212.934398 
L 667.084519 217.412197 
L 675.666137 233.852243 
L 683.58977 236.264155 
L 690.949171 227.96989 
L 697.819384 262.580249 
L 704.261408 210.140117 
L 710.325501 228.527141 
L 716.053559 261.124078 
L 721.480877 207.353285 
L 726.637466 266.093372 
L 731.549057 246.692402 
L 736.237878 273.421137 
L 740.723263 268.967905 
L 745.022134 254.447917 
L 749.149385 312.632866 
L 753.118194 214.496935 
L 756.940278 445.884886 
L 760.626099 262.290104 
L 764.185041 275.47197 
L 767.625549 246.097105 
L 770.955252 253.146388 
L 774.181064 227.449166 
L 777.309274 274.340797 
L 780.345615 364.213161 
L 783.295328 338.717006 
L 786.163221 330.372464 
L 788.953709 299.893856 
L 791.670863 264.833884 
L 794.318437 250.557777 
L 796.899907 294.775896 
L 799.418492 266.600085 
L 801.877185 331.754211 
L 804.278768 379.783761 
L 806.625834 350.213306 
L 808.920802 304.4211 
L 811.165936 403.056848 
L 813.363354 246.57855 
L 815.515042 383.847411 
L 817.622865 379.159638 
L 819.688575 226.194105 
L 821.713822 271.384586 
L 823.700162 285.325333 
L 825.64906 278.721849 
L 827.561903 360.215717 
L 827.561903 360.215717 
" style="fill:none;stroke:#26b7d8;stroke-linecap:square;"/>
   </g>
   <g id="line2d_4">
    <path clip-path="url(#p29a7e1b9e1)" d="M 115.2 117.425858 
L 132.313668 120.617558 
L 146.992943 120.87018 
L 159.844933 122.709619 
L 171.274613 124.040477 
L 181.565657 123.377308 
L 190.924519 125.216483 
L 199.506137 124.684771 
L 207.42977 124.028542 
L 214.789171 125.30448 
L 221.659384 125.539564 
L 228.101408 124.165843 
L 234.165501 127.827106 
L 239.893559 128.123616 
L 245.320877 129.397197 
L 250.477466 130.231794 
L 255.389057 128.533861 
L 260.077878 130.077343 
L 264.563263 130.054163 
L 268.862134 131.765296 
L 272.989385 133.613192 
L 276.958194 132.016602 
L 280.780278 131.098255 
L 284.466099 131.302912 
L 288.025041 133.478201 
L 291.465549 131.680915 
L 294.795252 136.873858 
L 298.021064 133.798083 
L 301.149274 133.154113 
L 304.185615 136.041955 
L 307.135328 136.545994 
L 310.003221 137.635391 
L 312.793709 137.213154 
L 315.510863 137.743135 
L 318.158437 135.676596 
L 320.739907 139.991224 
L 323.258492 139.053904 
L 325.717185 141.090059 
L 328.118768 137.76958 
L 330.465834 138.71147 
L 332.760802 140.959365 
L 335.005936 141.506443 
L 337.203354 140.300807 
L 341.462865 139.48089 
L 353.28 143.625623 
L 370.393668 145.364482 
L 385.072943 150.047428 
L 397.924933 150.960731 
L 409.354613 153.753591 
L 419.645657 152.385574 
L 429.004519 154.315685 
L 437.586137 158.89322 
L 445.50977 160.437501 
L 452.869171 159.437089 
L 459.739384 162.450786 
L 466.181408 162.337387 
L 472.245501 164.605147 
L 477.973559 170.356861 
L 483.400877 173.932266 
L 488.557466 172.776163 
L 493.469057 175.775838 
L 498.157878 178.891819 
L 502.643263 179.922202 
L 506.942134 182.573021 
L 511.069385 189.061607 
L 515.038194 188.511136 
L 518.860278 185.886889 
L 522.546099 186.55168 
L 526.105041 181.273742 
L 529.545549 192.641178 
L 532.875252 189.227748 
L 536.101064 204.967035 
L 539.229274 200.131919 
L 542.265615 193.778933 
L 545.215328 193.868039 
L 548.083221 191.465654 
L 550.873709 198.560541 
L 553.590863 188.593108 
L 556.238437 194.297689 
L 558.819907 202.524329 
L 561.338492 192.10021 
L 563.797185 199.995105 
L 566.198768 205.672459 
L 568.545834 206.003103 
L 570.840802 204.621985 
L 573.085936 205.014937 
L 575.283354 204.893288 
L 577.435042 203.384098 
L 579.542865 209.18495 
L 591.36 207.188502 
L 608.473668 215.639835 
L 623.152943 222.50003 
L 636.004933 216.068205 
L 647.434613 212.840769 
L 657.725657 198.018996 
L 667.084519 214.590983 
L 675.666137 208.856266 
L 683.58977 220.463777 
L 690.949171 186.462437 
L 697.819384 256.352712 
L 704.261408 227.745591 
L 710.325501 280.802689 
L 716.053559 135.054396 
L 721.480877 235.03117 
L 726.637466 246.543926 
L 731.549057 262.023053 
L 736.237878 237.474258 
L 740.723263 254.041733 
L 745.022134 345.189984 
L 749.149385 236.623278 
L 753.118194 250.367789 
L 756.940278 277.682753 
L 760.626099 314.722674 
L 764.185041 298.72173 
L 767.625549 262.455745 
L 770.955252 337.252432 
L 774.181064 459.95132 
L 777.309274 284.576042 
L 780.345615 292.308724 
L 783.295328 412.186468 
L 786.163221 291.684865 
L 788.953709 316.550769 
L 791.670863 337.28318 
L 794.318437 523.866762 
L 796.899907 247.856546 
L 799.418492 364.451544 
L 801.877185 294.34325 
L 804.278768 441.021274 
L 806.625834 367.797645 
L 808.920802 345.036266 
L 811.165936 265.781021 
L 813.363354 297.071484 
L 815.515042 225.343249 
L 817.622865 484.143598 
L 819.688575 313.966836 
L 821.713822 277.969893 
L 823.700162 304.605242 
L 825.64906 258.902685 
L 827.561903 416.581853 
L 827.561903 416.581853 
" style="fill:none;stroke:#8414a4;stroke-linecap:square;"/>
   </g>
   <g id="line2d_5">
    <path clip-path="url(#p29a7e1b9e1)" d="M 115.2 119.006608 
L 132.313668 122.718269 
L 146.992943 120.217323 
L 159.844933 120.585154 
L 171.274613 122.69221 
L 181.565657 122.728796 
L 190.924519 123.385683 
L 199.506137 126.024945 
L 207.42977 121.295892 
L 214.789171 124.966949 
L 221.659384 124.215652 
L 228.101408 126.640768 
L 234.165501 125.92392 
L 239.893559 128.352432 
L 245.320877 129.582173 
L 250.477466 128.216259 
L 255.389057 128.471335 
L 264.563263 132.353976 
L 268.862134 129.542227 
L 272.989385 128.761439 
L 276.958194 130.490533 
L 280.780278 133.57158 
L 284.466099 130.810403 
L 288.025041 132.899431 
L 291.465549 134.264401 
L 294.795252 139.489426 
L 298.021064 132.623406 
L 301.149274 132.409511 
L 304.185615 137.451386 
L 307.135328 136.146347 
L 310.003221 135.838396 
L 312.793709 137.790405 
L 315.510863 133.395299 
L 318.158437 136.152164 
L 320.739907 137.753796 
L 323.258492 139.492734 
L 325.717185 135.617354 
L 328.118768 140.046827 
L 330.465834 139.950515 
L 332.760802 140.637766 
L 335.005936 140.164983 
L 337.203354 139.456832 
L 339.355042 143.279235 
L 341.462865 136.855184 
L 353.28 138.926585 
L 370.393668 146.730026 
L 385.072943 148.081464 
L 397.924933 149.798061 
L 409.354613 149.185317 
L 419.645657 151.163621 
L 429.004519 151.41782 
L 437.586137 153.131145 
L 445.50977 152.726931 
L 452.869171 160.494818 
L 459.739384 154.760958 
L 466.181408 158.599089 
L 472.245501 160.535535 
L 477.973559 171.969061 
L 483.400877 168.075444 
L 488.557466 156.838147 
L 493.469057 173.311682 
L 498.157878 171.367853 
L 502.643263 177.341573 
L 506.942134 172.721838 
L 511.069385 177.09385 
L 515.038194 175.84292 
L 518.860278 180.429678 
L 522.546099 177.186408 
L 526.105041 193.113928 
L 529.545549 189.778003 
L 532.875252 195.575893 
L 536.101064 181.461216 
L 539.229274 182.906591 
L 542.265615 189.41691 
L 545.215328 171.259482 
L 548.083221 199.153445 
L 550.873709 191.910179 
L 553.590863 195.595229 
L 556.238437 185.884029 
L 558.819907 180.363879 
L 561.338492 184.319228 
L 563.797185 196.506298 
L 566.198768 205.450354 
L 568.545834 201.408528 
L 570.840802 198.270846 
L 573.085936 192.607986 
L 575.283354 199.670187 
L 577.435042 204.59445 
L 579.542865 197.21702 
L 591.36 198.230191 
L 608.473668 205.845486 
L 623.152943 177.710726 
L 636.004933 194.516785 
L 647.434613 218.065049 
L 657.725657 221.151108 
L 667.084519 221.184288 
L 675.666137 202.791824 
L 683.58977 234.480148 
L 690.949171 243.895724 
L 697.819384 203.878274 
L 704.261408 253.824807 
L 710.325501 200.502957 
L 716.053559 245.497558 
L 721.480877 190.265942 
L 726.637466 233.579956 
L 731.549057 264.251924 
L 736.237878 224.870809 
L 740.723263 211.706305 
L 745.022134 274.52452 
L 749.149385 229.419751 
L 753.118194 296.167512 
L 756.940278 295.528526 
L 760.626099 317.762207 
L 764.185041 257.615452 
L 767.625549 360.269624 
L 770.955252 267.781731 
L 774.181064 343.16536 
L 777.309274 250.090254 
L 780.345615 287.26346 
L 783.295328 246.039963 
L 786.163221 310.73678 
L 788.953709 258.160746 
L 791.670863 327.561435 
L 794.318437 241.670544 
L 796.899907 316.446772 
L 799.418492 334.06594 
L 801.877185 436.557137 
L 804.278768 275.108598 
L 806.625834 221.494842 
L 808.920802 235.702404 
L 811.165936 291.65523 
L 813.363354 508.735399 
L 815.515042 501.531169 
L 817.622865 320.279642 
L 819.688575 324.804813 
L 821.713822 504.742041 
L 823.700162 446.024878 
L 825.64906 475.402705 
L 827.561903 301.939368 
L 827.561903 301.939368 
" style="fill:none;stroke:#ffd23a;stroke-linecap:square;"/>
   </g>
   <g id="line2d_6">
    <path clip-path="url(#p29a7e1b9e1)" d="M 115.2 118.866122 
L 132.313668 120.76408 
L 146.992943 122.300593 
L 159.844933 119.493176 
L 171.274613 119.500765 
L 181.565657 127.387136 
L 190.924519 120.27368 
L 199.506137 127.19101 
L 207.42977 121.555815 
L 214.789171 127.643152 
L 221.659384 129.315216 
L 228.101408 125.779131 
L 234.165501 126.453951 
L 239.893559 125.667084 
L 245.320877 123.722187 
L 250.477466 134.117445 
L 255.389057 130.412331 
L 260.077878 129.576154 
L 264.563263 129.726227 
L 268.862134 129.276339 
L 272.989385 128.447422 
L 276.958194 128.110742 
L 280.780278 134.45076 
L 284.466099 130.975509 
L 288.025041 133.659066 
L 291.465549 133.028107 
L 294.795252 132.184268 
L 298.021064 133.478701 
L 301.149274 133.327941 
L 304.185615 129.112148 
L 307.135328 137.441726 
L 310.003221 136.46436 
L 312.793709 135.313903 
L 315.510863 136.590516 
L 318.158437 138.881855 
L 320.739907 143.14177 
L 323.258492 136.017692 
L 325.717185 137.383602 
L 328.118768 136.436536 
L 330.465834 138.494072 
L 332.760802 137.707883 
L 335.005936 142.681266 
L 339.355042 137.49172 
L 341.462865 136.044883 
L 353.28 143.825963 
L 370.393668 143.634039 
L 385.072943 144.961278 
L 397.924933 151.288471 
L 409.354613 151.758966 
L 419.645657 147.956108 
L 429.004519 151.554679 
L 437.586137 153.9285 
L 445.50977 152.768618 
L 452.869171 152.419914 
L 459.739384 155.213422 
L 466.181408 153.565659 
L 472.245501 162.061937 
L 477.973559 166.299311 
L 483.400877 155.527148 
L 488.557466 166.73577 
L 493.469057 165.748934 
L 498.157878 160.39376 
L 502.643263 163.118211 
L 506.942134 173.428099 
L 511.069385 168.124692 
L 515.038194 173.787666 
L 518.860278 163.307321 
L 522.546099 173.752001 
L 526.105041 175.517973 
L 529.545549 176.343363 
L 532.875252 188.528633 
L 536.101064 179.284247 
L 539.229274 188.057517 
L 542.265615 182.758333 
L 545.215328 170.582634 
L 548.083221 188.653994 
L 550.873709 177.811381 
L 553.590863 180.407924 
L 556.238437 189.032187 
L 558.819907 191.648695 
L 561.338492 187.86647 
L 563.797185 187.734607 
L 566.198768 188.09875 
L 568.545834 193.755789 
L 570.840802 195.266926 
L 573.085936 206.702503 
L 575.283354 188.276164 
L 577.435042 203.190791 
L 579.542865 193.403763 
L 591.36 197.86653 
L 608.473668 206.596385 
L 623.152943 202.6578 
L 636.004933 215.957887 
L 647.434613 199.564053 
L 657.725657 209.660289 
L 667.084519 230.691921 
L 675.666137 220.196211 
L 683.58977 245.513622 
L 690.949171 229.236276 
L 697.819384 222.049429 
L 704.261408 171.604258 
L 710.325501 269.061659 
L 716.053559 274.851286 
L 721.480877 243.943167 
L 726.637466 259.494291 
L 731.549057 231.650621 
L 736.237878 263.330128 
L 740.723263 329.935745 
L 745.022134 245.666213 
L 749.149385 258.681139 
L 753.118194 294.417063 
L 756.940278 318.31392 
L 760.626099 256.782081 
L 764.185041 529.775465 
L 767.625549 258.193619 
L 770.955252 295.378119 
L 774.181064 321.751066 
L 777.309274 258.803102 
L 780.345615 336.042195 
L 783.295328 318.311824 
L 786.163221 321.75457 
L 788.953709 251.115774 
L 791.670863 530.704463 
L 794.318437 270.350295 
L 796.899907 280.545936 
L 799.418492 309.711213 
L 801.877185 362.82619 
L 804.278768 281.0403 
L 806.625834 269.08146 
L 808.920802 402.632353 
L 811.165936 221.711635 
L 813.363354 367.80607 
L 815.515042 290.755556 
L 817.622865 350.864072 
L 819.688575 342.932956 
L 821.713822 378.592401 
L 823.700162 328.064426 
L 825.64906 216.105039 
L 827.561903 460.959172 
L 827.561903 460.959172 
" style="fill:none;stroke:#ff9300;stroke-linecap:square;"/>
   </g>
   <g id="line2d_7">
    <path clip-path="url(#p29a7e1b9e1)" d="M 115.2 123.036375 
L 132.313668 125.945107 
L 146.992943 122.058015 
L 159.844933 122.875671 
L 171.274613 128.997184 
L 181.565657 126.647058 
L 190.924519 124.292141 
L 199.506137 129.412477 
L 207.42977 125.291767 
L 214.789171 123.497866 
L 221.659384 124.423037 
L 228.101408 124.611828 
L 234.165501 125.987531 
L 239.893559 127.457272 
L 245.320877 131.023217 
L 255.389057 126.484301 
L 260.077878 132.587081 
L 264.563263 129.480256 
L 268.862134 126.939938 
L 272.989385 129.856934 
L 276.958194 128.417408 
L 280.780278 133.434527 
L 284.466099 126.144385 
L 288.025041 136.532346 
L 291.465549 141.965252 
L 294.795252 132.971145 
L 301.149274 131.80015 
L 304.185615 138.844765 
L 307.135328 132.880822 
L 310.003221 138.006352 
L 312.793709 138.881028 
L 315.510863 138.503344 
L 318.158437 141.485192 
L 320.739907 138.999842 
L 323.258492 139.46673 
L 325.717185 140.722271 
L 328.118768 140.627884 
L 330.465834 137.302395 
L 332.760802 140.947504 
L 335.005936 140.570192 
L 337.203354 125.720504 
L 339.355042 139.922709 
L 341.462865 149.943954 
L 353.28 144.123502 
L 370.393668 143.45369 
L 385.072943 146.830861 
L 397.924933 144.117921 
L 409.354613 148.315901 
L 419.645657 147.830716 
L 429.004519 147.602765 
L 437.586137 153.045271 
L 445.50977 149.120036 
L 452.869171 156.972402 
L 459.739384 152.526561 
L 466.181408 159.459137 
L 472.245501 145.549524 
L 477.973559 154.381329 
L 483.400877 154.423259 
L 488.557466 157.191856 
L 493.469057 154.66493 
L 498.157878 158.326086 
L 502.643263 159.571906 
L 506.942134 159.423174 
L 511.069385 161.314289 
L 515.038194 167.886041 
L 518.860278 162.416193 
L 522.546099 162.285702 
L 526.105041 166.864603 
L 529.545549 173.6816 
L 532.875252 173.839611 
L 536.101064 177.045333 
L 539.229274 176.289462 
L 542.265615 187.360547 
L 545.215328 176.880555 
L 548.083221 184.415587 
L 550.873709 184.071919 
L 553.590863 185.026238 
L 556.238437 190.66095 
L 558.819907 190.265393 
L 561.338492 181.889224 
L 563.797185 197.187131 
L 566.198768 203.256784 
L 568.545834 186.332403 
L 570.840802 197.72878 
L 573.085936 212.074257 
L 575.283354 192.087609 
L 577.435042 193.596017 
L 579.542865 186.14667 
L 591.36 204.996432 
L 608.473668 204.700929 
L 623.152943 198.168197 
L 636.004933 202.905742 
L 647.434613 209.168875 
L 657.725657 205.518554 
L 667.084519 212.351847 
L 675.666137 214.665113 
L 683.58977 203.155971 
L 690.949171 213.075484 
L 697.819384 228.054461 
L 704.261408 226.460811 
L 710.325501 279.156884 
L 716.053559 214.849432 
L 721.480877 232.875945 
L 726.637466 296.545112 
L 731.549057 286.164905 
L 736.237878 235.973052 
L 740.723263 293.56525 
L 745.022134 237.811743 
L 749.149385 544.042655 
L 753.118194 269.673057 
L 756.940278 259.127091 
L 760.626099 238.550803 
L 764.185041 329.793217 
L 767.625549 257.147499 
L 770.955252 316.319994 
L 774.181064 232.720156 
L 777.309274 281.617527 
L 780.345615 384.846346 
L 783.295328 312.227297 
L 786.163221 221.428565 
L 788.953709 314.280083 
L 791.670863 223.475861 
L 794.318437 533.481499 
L 796.899907 333.572514 
L 799.418492 340.943909 
L 801.877185 276.054577 
L 804.278768 340.279416 
L 806.625834 467.611024 
L 808.920802 288.712257 
L 811.165936 344.601749 
L 813.363354 252.849059 
L 815.515042 239.880346 
L 817.622865 243.405716 
L 819.688575 390.15259 
L 821.713822 389.108043 
L 823.700162 495.068451 
L 825.64906 415.548577 
L 827.561903 311.382799 
L 827.561903 311.382799 
" style="fill:none;stroke:#f50fe6;stroke-linecap:square;"/>
   </g>
   <g id="line2d_8">
    <path clip-path="url(#p29a7e1b9e1)" d="M 115.2 118.279321 
L 132.313668 120.535192 
L 146.992943 123.248324 
L 159.844933 122.569018 
L 171.274613 123.508888 
L 181.565657 120.669629 
L 190.924519 122.00972 
L 199.506137 120.44965 
L 207.42977 124.916237 
L 214.789171 122.240952 
L 221.659384 123.29793 
L 228.101408 127.697032 
L 234.165501 125.826155 
L 239.893559 128.043163 
L 245.320877 131.341454 
L 250.477466 133.054937 
L 255.389057 120.861958 
L 260.077878 122.571866 
L 264.563263 129.512064 
L 268.862134 124.532731 
L 272.989385 125.049306 
L 276.958194 132.04404 
L 280.780278 130.410932 
L 284.466099 136.740988 
L 288.025041 136.919789 
L 291.465549 132.125613 
L 294.795252 135.146708 
L 298.021064 132.64255 
L 301.149274 134.883156 
L 304.185615 140.543249 
L 307.135328 132.637256 
L 310.003221 144.389161 
L 312.793709 138.641751 
L 315.510863 134.591446 
L 318.158437 134.439787 
L 320.739907 132.045909 
L 323.258492 136.161228 
L 325.717185 134.235449 
L 328.118768 135.404052 
L 330.465834 140.902682 
L 332.760802 138.769005 
L 335.005936 129.807163 
L 337.203354 137.904835 
L 339.355042 140.76571 
L 341.462865 138.152947 
L 353.28 144.177214 
L 370.393668 138.991337 
L 385.072943 145.103731 
L 397.924933 149.788266 
L 409.354613 138.942148 
L 419.645657 150.618167 
L 437.586137 149.418813 
L 445.50977 145.525319 
L 452.869171 147.061671 
L 459.739384 154.99803 
L 466.181408 152.745937 
L 472.245501 154.951982 
L 477.973559 152.741728 
L 483.400877 149.450584 
L 488.557466 145.957774 
L 493.469057 159.602286 
L 498.157878 155.980102 
L 502.643263 156.902345 
L 506.942134 151.230597 
L 511.069385 159.128206 
L 515.038194 156.53923 
L 518.860278 162.442945 
L 522.546099 172.21095 
L 526.105041 164.389804 
L 529.545549 158.189629 
L 532.875252 168.755423 
L 536.101064 176.526838 
L 539.229274 166.642363 
L 542.265615 163.423749 
L 545.215328 179.98128 
L 548.083221 169.290447 
L 550.873709 187.103097 
L 553.590863 176.245661 
L 556.238437 166.948887 
L 558.819907 180.169026 
L 561.338492 200.200071 
L 563.797185 185.217878 
L 566.198768 183.147042 
L 568.545834 196.75575 
L 570.840802 180.79074 
L 573.085936 191.436172 
L 575.283354 172.774231 
L 577.435042 186.194129 
L 579.542865 187.138535 
L 591.36 160.333068 
L 608.473668 199.396029 
L 623.152943 212.612241 
L 636.004933 173.480474 
L 647.434613 200.783571 
L 657.725657 217.863502 
L 667.084519 187.617635 
L 675.666137 213.30631 
L 683.58977 248.191302 
L 690.949171 258.277114 
L 697.819384 232.625415 
L 704.261408 228.698801 
L 710.325501 222.281708 
L 716.053559 281.145013 
L 721.480877 208.732485 
L 726.637466 265.463525 
L 731.549057 225.073894 
L 736.237878 180.55773 
L 740.723263 303.432949 
L 745.022134 222.226368 
L 749.149385 548.766398 
L 753.118194 260.29269 
L 756.940278 266.755257 
L 760.626099 529.659806 
L 764.185041 228.176262 
L 767.625549 550.047767 
L 770.955252 376.296887 
L 774.181064 293.49383 
L 777.309274 442.877818 
L 780.345615 531.321038 
L 783.295328 282.743631 
L 786.163221 381.901089 
L 788.953709 358.731247 
L 791.670863 346.773348 
L 794.318437 215.102296 
L 796.899907 272.456074 
L 799.418492 356.551877 
L 801.877185 301.463297 
L 804.278768 513.496407 
L 806.625834 397.240026 
L 808.920802 364.78774 
L 811.165936 416.399223 
L 813.363354 328.205249 
L 815.515042 445.65031 
L 817.622865 375.377715 
L 819.688575 240.653441 
L 821.713822 480.226743 
L 823.700162 462.145644 
L 825.64906 495.587925 
L 827.561903 348.755146 
L 827.561903 348.755146 
" style="fill:none;stroke:#1000a0;stroke-linecap:square;"/>
   </g>
   <g id="line2d_9">
    <path clip-path="url(#p29a7e1b9e1)" d="M 115.2 118.785901 
L 132.313668 120.159737 
L 146.992943 122.033791 
L 159.844933 120.870891 
L 171.274613 118.257927 
L 181.565657 123.050771 
L 190.924519 123.749121 
L 199.506137 126.601792 
L 207.42977 123.088741 
L 214.789171 122.918982 
L 221.659384 127.971882 
L 228.101408 130.942204 
L 234.165501 129.107329 
L 239.893559 122.458775 
L 245.320877 124.216228 
L 250.477466 133.697346 
L 255.389057 125.441939 
L 260.077878 131.654564 
L 264.563263 129.414884 
L 268.862134 129.311201 
L 272.989385 132.13717 
L 276.958194 127.163909 
L 280.780278 132.570901 
L 284.466099 127.310332 
L 288.025041 130.716402 
L 291.465549 130.678098 
L 294.795252 138.722862 
L 298.021064 135.54641 
L 301.149274 137.120795 
L 304.185615 136.677911 
L 307.135328 127.31761 
L 310.003221 136.14665 
L 312.793709 135.599973 
L 315.510863 131.776225 
L 318.158437 134.927315 
L 320.739907 139.069109 
L 323.258492 140.939272 
L 325.717185 135.978891 
L 328.118768 137.342778 
L 330.465834 133.339263 
L 332.760802 137.206825 
L 335.005936 145.145581 
L 337.203354 133.168534 
L 339.355042 136.316624 
L 341.462865 137.287442 
L 353.28 148.611574 
L 370.393668 143.013369 
L 385.072943 146.540994 
L 397.924933 144.324469 
L 409.354613 147.377711 
L 419.645657 134.914931 
L 429.004519 140.256344 
L 437.586137 140.120532 
L 445.50977 143.394254 
L 452.869171 142.620855 
L 459.739384 146.98603 
L 466.181408 152.185109 
L 472.245501 150.858662 
L 477.973559 148.792827 
L 483.400877 147.933409 
L 488.557466 152.195512 
L 493.469057 153.750262 
L 498.157878 156.864865 
L 502.643263 155.782056 
L 506.942134 157.610966 
L 511.069385 152.201564 
L 515.038194 161.374066 
L 518.860278 152.872369 
L 522.546099 165.185375 
L 526.105041 164.567343 
L 529.545549 165.970439 
L 532.875252 164.256254 
L 536.101064 172.615259 
L 539.229274 163.268668 
L 542.265615 165.487747 
L 545.215328 167.226533 
L 548.083221 173.178116 
L 550.873709 160.510626 
L 553.590863 168.524814 
L 556.238437 184.962365 
L 558.819907 175.186429 
L 563.797185 188.615688 
L 566.198768 180.446919 
L 568.545834 178.691425 
L 570.840802 189.167026 
L 573.085936 180.556568 
L 575.283354 184.756589 
L 577.435042 215.738031 
L 579.542865 176.19101 
L 591.36 189.122116 
L 608.473668 190.239428 
L 623.152943 179.777473 
L 636.004933 211.206132 
L 647.434613 202.079915 
L 657.725657 182.649847 
L 667.084519 224.071143 
L 675.666137 217.278542 
L 683.58977 213.031997 
L 690.949171 224.406932 
L 697.819384 255.266768 
L 704.261408 239.464828 
L 710.325501 246.960828 
L 716.053559 258.593358 
L 721.480877 217.726033 
L 726.637466 261.197914 
L 731.549057 243.519828 
L 736.237878 252.589951 
L 740.723263 273.243675 
L 745.022134 159.834963 
L 749.149385 224.93606 
L 753.118194 236.877306 
L 756.940278 257.867671 
L 760.626099 335.095282 
L 764.185041 211.960402 
L 767.625549 527.376363 
L 770.955252 293.416272 
L 774.181064 533.582746 
L 777.309274 374.002318 
L 780.345615 291.953003 
L 783.295328 306.248751 
L 786.163221 335.980103 
L 788.953709 260.576092 
L 791.670863 316.236361 
L 794.318437 286.073297 
L 796.899907 246.606526 
L 799.418492 513.494492 
L 801.877185 512.980947 
L 804.278768 446.061906 
L 806.625834 371.684603 
L 808.920802 259.831311 
L 811.165936 439.768196 
L 813.363354 355.11729 
L 815.515042 408.794317 
L 817.622865 315.253158 
L 819.688575 338.923973 
L 821.713822 293.491771 
L 823.700162 340.549514 
L 825.64906 258.062912 
L 827.561903 312.782764 
L 827.561903 312.782764 
" style="fill:none;stroke:#595866;stroke-linecap:square;"/>
   </g>
   <g id="line2d_10">
    <path clip-path="url(#p29a7e1b9e1)" d="M 115.2 119.527581 
L 132.313668 119.372009 
L 146.992943 112.19841 
L 159.844933 114.661942 
L 171.274613 120.495857 
L 181.565657 131.464768 
L 190.924519 121.59846 
L 199.506137 120.675074 
L 207.42977 131.145591 
L 214.789171 122.392411 
L 221.659384 125.949476 
L 228.101408 126.230572 
L 234.165501 133.782873 
L 239.893559 122.505097 
L 245.320877 126.654433 
L 250.477466 136.533704 
L 255.389057 122.543817 
L 260.077878 127.129214 
L 264.563263 129.940424 
L 268.862134 124.84688 
L 272.989385 133.091861 
L 276.958194 126.651408 
L 280.780278 131.479372 
L 284.466099 126.997508 
L 288.025041 127.939961 
L 291.465549 142.199749 
L 294.795252 126.519844 
L 298.021064 133.960923 
L 301.149274 131.856875 
L 304.185615 138.161738 
L 307.135328 138.002668 
L 310.003221 135.36635 
L 312.793709 134.220642 
L 315.510863 132.307109 
L 318.158437 140.176431 
L 320.739907 136.395224 
L 323.258492 134.967206 
L 325.717185 134.844821 
L 328.118768 143.335571 
L 330.465834 140.037058 
L 332.760802 147.401307 
L 335.005936 140.035277 
L 337.203354 141.033745 
L 339.355042 138.937921 
L 341.462865 144.561638 
L 353.28 140.516777 
L 370.393668 141.742263 
L 385.072943 142.389754 
L 397.924933 137.176836 
L 409.354613 150.950397 
L 429.004519 141.46144 
L 437.586137 149.026301 
L 445.50977 143.888482 
L 452.869171 140.442761 
L 459.739384 144.136393 
L 466.181408 141.058208 
L 472.245501 152.469676 
L 477.973559 150.025486 
L 488.557466 155.041912 
L 493.469057 147.917634 
L 498.157878 150.848478 
L 502.643263 149.514793 
L 506.942134 145.428753 
L 511.069385 160.901936 
L 515.038194 148.232979 
L 518.860278 157.819639 
L 522.546099 152.531911 
L 526.105041 163.562321 
L 529.545549 155.143989 
L 532.875252 160.760685 
L 536.101064 158.273901 
L 539.229274 156.988588 
L 542.265615 160.178153 
L 545.215328 170.274927 
L 548.083221 178.573563 
L 550.873709 162.759675 
L 553.590863 180.68615 
L 556.238437 176.219987 
L 558.819907 182.196765 
L 561.338492 169.688697 
L 563.797185 158.189675 
L 566.198768 165.17228 
L 568.545834 161.897158 
L 570.840802 182.455673 
L 573.085936 172.287724 
L 575.283354 190.963058 
L 577.435042 193.213789 
L 579.542865 186.977051 
L 591.36 200.694251 
L 608.473668 201.732145 
L 623.152943 203.020629 
L 636.004933 205.249163 
L 647.434613 223.620153 
L 657.725657 180.786693 
L 667.084519 201.528077 
L 675.666137 222.844135 
L 683.58977 195.737874 
L 690.949171 213.206126 
L 697.819384 213.787337 
L 704.261408 241.490037 
L 710.325501 213.968937 
L 716.053559 238.320988 
L 721.480877 238.246956 
L 726.637466 294.726577 
L 731.549057 251.500874 
L 736.237878 287.97153 
L 740.723263 211.797019 
L 745.022134 231.475952 
L 749.149385 242.969283 
L 753.118194 295.380927 
L 756.940278 551.002687 
L 760.626099 338.772108 
L 764.185041 289.154205 
L 767.625549 494.092828 
L 770.955252 295.992808 
L 774.181064 510.393732 
L 777.309274 307.098358 
L 780.345615 298.997085 
L 783.295328 331.450027 
L 786.163221 508.488437 
L 788.953709 266.082482 
L 791.670863 520.185169 
L 794.318437 312.352532 
L 796.899907 402.257189 
L 799.418492 287.129751 
L 801.877185 325.846956 
L 804.278768 307.733218 
L 806.625834 371.562669 
L 808.920802 336.179462 
L 811.165936 363.168862 
L 813.363354 372.667318 
L 815.515042 362.461103 
L 817.622865 318.357585 
L 819.688575 345.957759 
L 821.713822 255.459181 
L 823.700162 366.276393 
L 825.64906 426.743247 
L 827.561903 233.438405 
L 827.561903 233.438405 
" style="fill:none;stroke:#147f2a;stroke-linecap:square;"/>
   </g>
   <g id="patch_3">
    <path d="M 829.44 551.61 
L 829.44 61.29 
" style="fill:none;stroke:#000000;stroke-linecap:square;stroke-linejoin:miter;"/>
   </g>
   <g id="patch_4">
    <path d="M 115.2 551.61 
L 115.2 61.29 
" style="fill:none;stroke:#000000;stroke-linecap:square;stroke-linejoin:miter;"/>
   </g>
   <g id="patch_5">
    <path d="M 115.2 61.29 
L 829.44 61.29 
" style="fill:none;stroke:#000000;stroke-linecap:square;stroke-linejoin:miter;"/>
   </g>
   <g id="patch_6">
    <path d="M 115.2 551.61 
L 829.44 551.61 
" style="fill:none;stroke:#000000;stroke-linecap:square;stroke-linejoin:miter;"/>
   </g>
   <g id="matplotlib.axis_1">
    <g id="xtick_1">
     <g id="line2d_11">
      <defs>
       <path d="M 0 0 
L 0 -4 
" id="mf010922171" style="stroke:#000000;stroke-width:0.5;"/>
      </defs>
      <g>
       <use style="stroke:#000000;stroke-width:0.5;" x="115.2" xlink:href="#mf010922171" y="551.61"/>
      </g>
     </g>
     <g id="line2d_12">
      <defs>
       <path d="M 0 0 
L 0 4 
" id="m917fd7ece2" style="stroke:#000000;stroke-width:0.5;"/>
      </defs>
      <g>
       <use style="stroke:#000000;stroke-width:0.5;" x="115.2" xlink:href="#m917fd7ece2" y="61.29"/>
      </g>
     </g>
     <g id="text_1">
      <!-- $\mathdefault{10^{-3}}$ -->
      <defs>
       <path d="M 12.40625 8.296875 
L 28.515625 8.296875 
L 28.515625 63.921875 
L 10.984375 60.40625 
L 10.984375 69.390625 
L 28.421875 72.90625 
L 38.28125 72.90625 
L 38.28125 8.296875 
L 54.390625 8.296875 
L 54.390625 0 
L 12.40625 0 
z
" id="BitstreamVeraSans-Roman-31"/>
       <path d="M 4.890625 31.390625 
L 31.203125 31.390625 
L 31.203125 23.390625 
L 4.890625 23.390625 
z
" id="BitstreamVeraSans-Roman-2d"/>
       <path d="M 40.578125 39.3125 
Q 47.65625 37.796875 51.625 33 
Q 55.609375 28.21875 55.609375 21.1875 
Q 55.609375 10.40625 48.1875 4.484375 
Q 40.765625 -1.421875 27.09375 -1.421875 
Q 22.515625 -1.421875 17.65625 -0.515625 
Q 12.796875 0.390625 7.625 2.203125 
L 7.625 11.71875 
Q 11.71875 9.328125 16.59375 8.109375 
Q 21.484375 6.890625 26.8125 6.890625 
Q 36.078125 6.890625 40.9375 10.546875 
Q 45.796875 14.203125 45.796875 21.1875 
Q 45.796875 27.640625 41.28125 31.265625 
Q 36.765625 34.90625 28.71875 34.90625 
L 20.21875 34.90625 
L 20.21875 43.015625 
L 29.109375 43.015625 
Q 36.375 43.015625 40.234375 45.921875 
Q 44.09375 48.828125 44.09375 54.296875 
Q 44.09375 59.90625 40.109375 62.90625 
Q 36.140625 65.921875 28.71875 65.921875 
Q 24.65625 65.921875 20.015625 65.03125 
Q 15.375 64.15625 9.8125 62.3125 
L 9.8125 71.09375 
Q 15.4375 72.65625 20.34375 73.4375 
Q 25.25 74.21875 29.59375 74.21875 
Q 40.828125 74.21875 47.359375 69.109375 
Q 53.90625 64.015625 53.90625 55.328125 
Q 53.90625 49.265625 50.4375 45.09375 
Q 46.96875 40.921875 40.578125 39.3125 
" id="BitstreamVeraSans-Roman-33"/>
       <path d="M 31.78125 66.40625 
Q 24.171875 66.40625 20.328125 58.90625 
Q 16.5 51.421875 16.5 36.375 
Q 16.5 21.390625 20.328125 13.890625 
Q 24.171875 6.390625 31.78125 6.390625 
Q 39.453125 6.390625 43.28125 13.890625 
Q 47.125 21.390625 47.125 36.375 
Q 47.125 51.421875 43.28125 58.90625 
Q 39.453125 66.40625 31.78125 66.40625 
M 31.78125 74.21875 
Q 44.046875 74.21875 50.515625 64.515625 
Q 56.984375 54.828125 56.984375 36.375 
Q 56.984375 17.96875 50.515625 8.265625 
Q 44.046875 -1.421875 31.78125 -1.421875 
Q 19.53125 -1.421875 13.0625 8.265625 
Q 6.59375 17.96875 6.59375 36.375 
Q 6.59375 54.828125 13.0625 64.515625 
Q 19.53125 74.21875 31.78125 74.21875 
" id="BitstreamVeraSans-Roman-30"/>
      </defs>
      <g transform="translate(102.54 565.354375)scale(0.12 -0.12)">
       <use transform="translate(0.0 0.796875)" xlink:href="#BitstreamVeraSans-Roman-31"/>
       <use transform="translate(63.623046875 0.796875)" xlink:href="#BitstreamVeraSans-Roman-30"/>
       <use transform="translate(132.75859375 48.046875)scale(0.7)" xlink:href="#BitstreamVeraSans-Roman-2d"/>
       <use transform="translate(158.0173828125 48.046875)scale(0.7)" xlink:href="#BitstreamVeraSans-Roman-33"/>
      </g>
     </g>
    </g>
    <g id="xtick_2">
     <g id="line2d_13">
      <g>
       <use style="stroke:#000000;stroke-width:0.5;" x="353.28" xlink:href="#mf010922171" y="551.61"/>
      </g>
     </g>
     <g id="line2d_14">
      <g>
       <use style="stroke:#000000;stroke-width:0.5;" x="353.28" xlink:href="#m917fd7ece2" y="61.29"/>
      </g>
     </g>
     <g id="text_2">
      <!-- $\mathdefault{10^{-2}}$ -->
      <defs>
       <path d="M 19.1875 8.296875 
L 53.609375 8.296875 
L 53.609375 0 
L 7.328125 0 
L 7.328125 8.296875 
Q 12.9375 14.109375 22.625 23.890625 
Q 32.328125 33.6875 34.8125 36.53125 
Q 39.546875 41.84375 41.421875 45.53125 
Q 43.3125 49.21875 43.3125 52.78125 
Q 43.3125 58.59375 39.234375 62.25 
Q 35.15625 65.921875 28.609375 65.921875 
Q 23.96875 65.921875 18.8125 64.3125 
Q 13.671875 62.703125 7.8125 59.421875 
L 7.8125 69.390625 
Q 13.765625 71.78125 18.9375 73 
Q 24.125 74.21875 28.421875 74.21875 
Q 39.75 74.21875 46.484375 68.546875 
Q 53.21875 62.890625 53.21875 53.421875 
Q 53.21875 48.921875 51.53125 44.890625 
Q 49.859375 40.875 45.40625 35.40625 
Q 44.1875 33.984375 37.640625 27.21875 
Q 31.109375 20.453125 19.1875 8.296875 
" id="BitstreamVeraSans-Roman-32"/>
      </defs>
      <g transform="translate(340.62 565.354375)scale(0.12 -0.12)">
       <use transform="translate(0.0 0.796875)" xlink:href="#BitstreamVeraSans-Roman-31"/>
       <use transform="translate(63.623046875 0.796875)" xlink:href="#BitstreamVeraSans-Roman-30"/>
       <use transform="translate(132.75859375 48.046875)scale(0.7)" xlink:href="#BitstreamVeraSans-Roman-2d"/>
       <use transform="translate(158.0173828125 48.046875)scale(0.7)" xlink:href="#BitstreamVeraSans-Roman-32"/>
      </g>
     </g>
    </g>
    <g id="xtick_3">
     <g id="line2d_15">
      <g>
       <use style="stroke:#000000;stroke-width:0.5;" x="591.36" xlink:href="#mf010922171" y="551.61"/>
      </g>
     </g>
     <g id="line2d_16">
      <g>
       <use style="stroke:#000000;stroke-width:0.5;" x="591.36" xlink:href="#m917fd7ece2" y="61.29"/>
      </g>
     </g>
     <g id="text_3">
      <!-- $\mathdefault{10^{-1}}$ -->
      <g transform="translate(578.7 565.234375)scale(0.12 -0.12)">
       <use transform="translate(0.0 0.7156250000000028)" xlink:href="#BitstreamVeraSans-Roman-31"/>
       <use transform="translate(63.623046875 0.7156250000000028)" xlink:href="#BitstreamVeraSans-Roman-30"/>
       <use transform="translate(132.75859375 47.965625)scale(0.7)" xlink:href="#BitstreamVeraSans-Roman-2d"/>
       <use transform="translate(158.0173828125 47.965625)scale(0.7)" xlink:href="#BitstreamVeraSans-Roman-31"/>
      </g>
     </g>
    </g>
    <g id="xtick_4">
     <g id="line2d_17">
      <g>
       <use style="stroke:#000000;stroke-width:0.5;" x="829.44" xlink:href="#mf010922171" y="551.61"/>
      </g>
     </g>
     <g id="line2d_18">
      <g>
       <use style="stroke:#000000;stroke-width:0.5;" x="829.44" xlink:href="#m917fd7ece2" y="61.29"/>
      </g>
     </g>
     <g id="text_4">
      <!-- $\mathdefault{10^{0}}$ -->
      <g transform="translate(818.28 565.354375)scale(0.12 -0.12)">
       <use transform="translate(0.0 0.796875)" xlink:href="#BitstreamVeraSans-Roman-31"/>
       <use transform="translate(63.623046875 0.796875)" xlink:href="#BitstreamVeraSans-Roman-30"/>
       <use transform="translate(132.75859375 48.046875)scale(0.7)" xlink:href="#BitstreamVeraSans-Roman-30"/>
      </g>
     </g>
    </g>
    <g id="xtick_5">
     <g id="line2d_19">
      <defs>
       <path d="M 0 0 
L 0 -2 
" id="m75e2b7db03" style="stroke:#000000;stroke-width:0.5;"/>
      </defs>
      <g>
       <use style="stroke:#000000;stroke-width:0.5;" x="186.869221368" xlink:href="#m75e2b7db03" y="551.61"/>
      </g>
     </g>
     <g id="line2d_20">
      <defs>
       <path d="M 0 0 
L 0 2 
" id="m57bf9d37b2" style="stroke:#000000;stroke-width:0.5;"/>
      </defs>
      <g>
       <use style="stroke:#000000;stroke-width:0.5;" x="186.869221368" xlink:href="#m57bf9d37b2" y="61.29"/>
      </g>
     </g>
    </g>
    <g id="xtick_6">
     <g id="line2d_21">
      <g>
       <use style="stroke:#000000;stroke-width:0.5;" x="228.793028324" xlink:href="#m75e2b7db03" y="551.61"/>
      </g>
     </g>
     <g id="line2d_22">
      <g>
       <use style="stroke:#000000;stroke-width:0.5;" x="228.793028324" xlink:href="#m57bf9d37b2" y="61.29"/>
      </g>
     </g>
    </g>
    <g id="xtick_7">
     <g id="line2d_23">
      <g>
       <use style="stroke:#000000;stroke-width:0.5;" x="258.538442735" xlink:href="#m75e2b7db03" y="551.61"/>
      </g>
     </g>
     <g id="line2d_24">
      <g>
       <use style="stroke:#000000;stroke-width:0.5;" x="258.538442735" xlink:href="#m57bf9d37b2" y="61.29"/>
      </g>
     </g>
    </g>
    <g id="xtick_8">
     <g id="line2d_25">
      <g>
       <use style="stroke:#000000;stroke-width:0.5;" x="281.610778632" xlink:href="#m75e2b7db03" y="551.61"/>
      </g>
     </g>
     <g id="line2d_26">
      <g>
       <use style="stroke:#000000;stroke-width:0.5;" x="281.610778632" xlink:href="#m57bf9d37b2" y="61.29"/>
      </g>
     </g>
    </g>
    <g id="xtick_9">
     <g id="line2d_27">
      <g>
       <use style="stroke:#000000;stroke-width:0.5;" x="300.462249691" xlink:href="#m75e2b7db03" y="551.61"/>
      </g>
     </g>
     <g id="line2d_28">
      <g>
       <use style="stroke:#000000;stroke-width:0.5;" x="300.462249691" xlink:href="#m57bf9d37b2" y="61.29"/>
      </g>
     </g>
    </g>
    <g id="xtick_10">
     <g id="line2d_29">
      <g>
       <use style="stroke:#000000;stroke-width:0.5;" x="316.400941367" xlink:href="#m75e2b7db03" y="551.61"/>
      </g>
     </g>
     <g id="line2d_30">
      <g>
       <use style="stroke:#000000;stroke-width:0.5;" x="316.400941367" xlink:href="#m57bf9d37b2" y="61.29"/>
      </g>
     </g>
    </g>
    <g id="xtick_11">
     <g id="line2d_31">
      <g>
       <use style="stroke:#000000;stroke-width:0.5;" x="330.207664103" xlink:href="#m75e2b7db03" y="551.61"/>
      </g>
     </g>
     <g id="line2d_32">
      <g>
       <use style="stroke:#000000;stroke-width:0.5;" x="330.207664103" xlink:href="#m57bf9d37b2" y="61.29"/>
      </g>
     </g>
    </g>
    <g id="xtick_12">
     <g id="line2d_33">
      <g>
       <use style="stroke:#000000;stroke-width:0.5;" x="342.386056647" xlink:href="#m75e2b7db03" y="551.61"/>
      </g>
     </g>
     <g id="line2d_34">
      <g>
       <use style="stroke:#000000;stroke-width:0.5;" x="342.386056647" xlink:href="#m57bf9d37b2" y="61.29"/>
      </g>
     </g>
    </g>
    <g id="xtick_13">
     <g id="line2d_35">
      <g>
       <use style="stroke:#000000;stroke-width:0.5;" x="424.949221368" xlink:href="#m75e2b7db03" y="551.61"/>
      </g>
     </g>
     <g id="line2d_36">
      <g>
       <use style="stroke:#000000;stroke-width:0.5;" x="424.949221368" xlink:href="#m57bf9d37b2" y="61.29"/>
      </g>
     </g>
    </g>
    <g id="xtick_14">
     <g id="line2d_37">
      <g>
       <use style="stroke:#000000;stroke-width:0.5;" x="466.873028324" xlink:href="#m75e2b7db03" y="551.61"/>
      </g>
     </g>
     <g id="line2d_38">
      <g>
       <use style="stroke:#000000;stroke-width:0.5;" x="466.873028324" xlink:href="#m57bf9d37b2" y="61.29"/>
      </g>
     </g>
    </g>
    <g id="xtick_15">
     <g id="line2d_39">
      <g>
       <use style="stroke:#000000;stroke-width:0.5;" x="496.618442735" xlink:href="#m75e2b7db03" y="551.61"/>
      </g>
     </g>
     <g id="line2d_40">
      <g>
       <use style="stroke:#000000;stroke-width:0.5;" x="496.618442735" xlink:href="#m57bf9d37b2" y="61.29"/>
      </g>
     </g>
    </g>
    <g id="xtick_16">
     <g id="line2d_41">
      <g>
       <use style="stroke:#000000;stroke-width:0.5;" x="519.690778632" xlink:href="#m75e2b7db03" y="551.61"/>
      </g>
     </g>
     <g id="line2d_42">
      <g>
       <use style="stroke:#000000;stroke-width:0.5;" x="519.690778632" xlink:href="#m57bf9d37b2" y="61.29"/>
      </g>
     </g>
    </g>
    <g id="xtick_17">
     <g id="line2d_43">
      <g>
       <use style="stroke:#000000;stroke-width:0.5;" x="538.542249691" xlink:href="#m75e2b7db03" y="551.61"/>
      </g>
     </g>
     <g id="line2d_44">
      <g>
       <use style="stroke:#000000;stroke-width:0.5;" x="538.542249691" xlink:href="#m57bf9d37b2" y="61.29"/>
      </g>
     </g>
    </g>
    <g id="xtick_18">
     <g id="line2d_45">
      <g>
       <use style="stroke:#000000;stroke-width:0.5;" x="554.480941367" xlink:href="#m75e2b7db03" y="551.61"/>
      </g>
     </g>
     <g id="line2d_46">
      <g>
       <use style="stroke:#000000;stroke-width:0.5;" x="554.480941367" xlink:href="#m57bf9d37b2" y="61.29"/>
      </g>
     </g>
    </g>
    <g id="xtick_19">
     <g id="line2d_47">
      <g>
       <use style="stroke:#000000;stroke-width:0.5;" x="568.287664103" xlink:href="#m75e2b7db03" y="551.61"/>
      </g>
     </g>
     <g id="line2d_48">
      <g>
       <use style="stroke:#000000;stroke-width:0.5;" x="568.287664103" xlink:href="#m57bf9d37b2" y="61.29"/>
      </g>
     </g>
    </g>
    <g id="xtick_20">
     <g id="line2d_49">
      <g>
       <use style="stroke:#000000;stroke-width:0.5;" x="580.466056647" xlink:href="#m75e2b7db03" y="551.61"/>
      </g>
     </g>
     <g id="line2d_50">
      <g>
       <use style="stroke:#000000;stroke-width:0.5;" x="580.466056647" xlink:href="#m57bf9d37b2" y="61.29"/>
      </g>
     </g>
    </g>
    <g id="xtick_21">
     <g id="line2d_51">
      <g>
       <use style="stroke:#000000;stroke-width:0.5;" x="663.029221368" xlink:href="#m75e2b7db03" y="551.61"/>
      </g>
     </g>
     <g id="line2d_52">
      <g>
       <use style="stroke:#000000;stroke-width:0.5;" x="663.029221368" xlink:href="#m57bf9d37b2" y="61.29"/>
      </g>
     </g>
    </g>
    <g id="xtick_22">
     <g id="line2d_53">
      <g>
       <use style="stroke:#000000;stroke-width:0.5;" x="704.953028324" xlink:href="#m75e2b7db03" y="551.61"/>
      </g>
     </g>
     <g id="line2d_54">
      <g>
       <use style="stroke:#000000;stroke-width:0.5;" x="704.953028324" xlink:href="#m57bf9d37b2" y="61.29"/>
      </g>
     </g>
    </g>
    <g id="xtick_23">
     <g id="line2d_55">
      <g>
       <use style="stroke:#000000;stroke-width:0.5;" x="734.698442735" xlink:href="#m75e2b7db03" y="551.61"/>
      </g>
     </g>
     <g id="line2d_56">
      <g>
       <use style="stroke:#000000;stroke-width:0.5;" x="734.698442735" xlink:href="#m57bf9d37b2" y="61.29"/>
      </g>
     </g>
    </g>
    <g id="xtick_24">
     <g id="line2d_57">
      <g>
       <use style="stroke:#000000;stroke-width:0.5;" x="757.770778632" xlink:href="#m75e2b7db03" y="551.61"/>
      </g>
     </g>
     <g id="line2d_58">
      <g>
       <use style="stroke:#000000;stroke-width:0.5;" x="757.770778632" xlink:href="#m57bf9d37b2" y="61.29"/>
      </g>
     </g>
    </g>
    <g id="xtick_25">
     <g id="line2d_59">
      <g>
       <use style="stroke:#000000;stroke-width:0.5;" x="776.622249691" xlink:href="#m75e2b7db03" y="551.61"/>
      </g>
     </g>
     <g id="line2d_60">
      <g>
       <use style="stroke:#000000;stroke-width:0.5;" x="776.622249691" xlink:href="#m57bf9d37b2" y="61.29"/>
      </g>
     </g>
    </g>
    <g id="xtick_26">
     <g id="line2d_61">
      <g>
       <use style="stroke:#000000;stroke-width:0.5;" x="792.560941367" xlink:href="#m75e2b7db03" y="551.61"/>
      </g>
     </g>
     <g id="line2d_62">
      <g>
       <use style="stroke:#000000;stroke-width:0.5;" x="792.560941367" xlink:href="#m57bf9d37b2" y="61.29"/>
      </g>
     </g>
    </g>
    <g id="xtick_27">
     <g id="line2d_63">
      <g>
       <use style="stroke:#000000;stroke-width:0.5;" x="806.367664103" xlink:href="#m75e2b7db03" y="551.61"/>
      </g>
     </g>
     <g id="line2d_64">
      <g>
       <use style="stroke:#000000;stroke-width:0.5;" x="806.367664103" xlink:href="#m57bf9d37b2" y="61.29"/>
      </g>
     </g>
    </g>
    <g id="xtick_28">
     <g id="line2d_65">
      <g>
       <use style="stroke:#000000;stroke-width:0.5;" x="818.546056647" xlink:href="#m75e2b7db03" y="551.61"/>
      </g>
     </g>
     <g id="line2d_66">
      <g>
       <use style="stroke:#000000;stroke-width:0.5;" x="818.546056647" xlink:href="#m57bf9d37b2" y="61.29"/>
      </g>
     </g>
    </g>
    <g id="text_5">
     <!-- Frequency [kHz] -->
     <defs>
      <path d="M 9.078125 75.984375 
L 18.109375 75.984375 
L 18.109375 31.109375 
L 44.921875 54.6875 
L 56.390625 54.6875 
L 27.390625 29.109375 
L 57.625 0 
L 45.90625 0 
L 18.109375 26.703125 
L 18.109375 0 
L 9.078125 0 
z
" id="BitstreamVeraSans-Roman-6b"/>
      <path d="M 56.203125 29.59375 
L 56.203125 25.203125 
L 14.890625 25.203125 
Q 15.484375 15.921875 20.484375 11.0625 
Q 25.484375 6.203125 34.421875 6.203125 
Q 39.59375 6.203125 44.453125 7.46875 
Q 49.3125 8.734375 54.109375 11.28125 
L 54.109375 2.78125 
Q 49.265625 0.734375 44.1875 -0.34375 
Q 39.109375 -1.421875 33.890625 -1.421875 
Q 20.796875 -1.421875 13.15625 6.1875 
Q 5.515625 13.8125 5.515625 26.8125 
Q 5.515625 40.234375 12.765625 48.109375 
Q 20.015625 56 32.328125 56 
Q 43.359375 56 49.78125 48.890625 
Q 56.203125 41.796875 56.203125 29.59375 
M 47.21875 32.234375 
Q 47.125 39.59375 43.09375 43.984375 
Q 39.0625 48.390625 32.421875 48.390625 
Q 24.90625 48.390625 20.390625 44.140625 
Q 15.875 39.890625 15.1875 32.171875 
z
" id="BitstreamVeraSans-Roman-65"/>
      <path d="M 9.8125 72.90625 
L 51.703125 72.90625 
L 51.703125 64.59375 
L 19.671875 64.59375 
L 19.671875 43.109375 
L 48.578125 43.109375 
L 48.578125 34.8125 
L 19.671875 34.8125 
L 19.671875 0 
L 9.8125 0 
z
" id="BitstreamVeraSans-Roman-46"/>
      <path d="M 48.78125 52.59375 
L 48.78125 44.1875 
Q 44.96875 46.296875 41.140625 47.34375 
Q 37.3125 48.390625 33.40625 48.390625 
Q 24.65625 48.390625 19.8125 42.84375 
Q 14.984375 37.3125 14.984375 27.296875 
Q 14.984375 17.28125 19.8125 11.734375 
Q 24.65625 6.203125 33.40625 6.203125 
Q 37.3125 6.203125 41.140625 7.25 
Q 44.96875 8.296875 48.78125 10.40625 
L 48.78125 2.09375 
Q 45.015625 0.34375 40.984375 -0.53125 
Q 36.96875 -1.421875 32.421875 -1.421875 
Q 20.0625 -1.421875 12.78125 6.34375 
Q 5.515625 14.109375 5.515625 27.296875 
Q 5.515625 40.671875 12.859375 48.328125 
Q 20.21875 56 33.015625 56 
Q 37.15625 56 41.109375 55.140625 
Q 45.0625 54.296875 48.78125 52.59375 
" id="BitstreamVeraSans-Roman-63"/>
      <path d="M 9.8125 72.90625 
L 19.671875 72.90625 
L 19.671875 43.015625 
L 55.515625 43.015625 
L 55.515625 72.90625 
L 65.375 72.90625 
L 65.375 0 
L 55.515625 0 
L 55.515625 34.71875 
L 19.671875 34.71875 
L 19.671875 0 
L 9.8125 0 
z
" id="BitstreamVeraSans-Roman-48"/>
      <path d="M 14.796875 27.296875 
Q 14.796875 17.390625 18.875 11.75 
Q 22.953125 6.109375 30.078125 6.109375 
Q 37.203125 6.109375 41.296875 11.75 
Q 45.40625 17.390625 45.40625 27.296875 
Q 45.40625 37.203125 41.296875 42.84375 
Q 37.203125 48.484375 30.078125 48.484375 
Q 22.953125 48.484375 18.875 42.84375 
Q 14.796875 37.203125 14.796875 27.296875 
M 45.40625 8.203125 
Q 42.578125 3.328125 38.25 0.953125 
Q 33.9375 -1.421875 27.875 -1.421875 
Q 17.96875 -1.421875 11.734375 6.484375 
Q 5.515625 14.40625 5.515625 27.296875 
Q 5.515625 40.1875 11.734375 48.09375 
Q 17.96875 56 27.875 56 
Q 33.9375 56 38.25 53.625 
Q 42.578125 51.265625 45.40625 46.390625 
L 45.40625 54.6875 
L 54.390625 54.6875 
L 54.390625 -20.796875 
L 45.40625 -20.796875 
z
" id="BitstreamVeraSans-Roman-71"/>
      <path d="M 54.890625 33.015625 
L 54.890625 0 
L 45.90625 0 
L 45.90625 32.71875 
Q 45.90625 40.484375 42.875 44.328125 
Q 39.84375 48.1875 33.796875 48.1875 
Q 26.515625 48.1875 22.3125 43.546875 
Q 18.109375 38.921875 18.109375 30.90625 
L 18.109375 0 
L 9.078125 0 
L 9.078125 54.6875 
L 18.109375 54.6875 
L 18.109375 46.1875 
Q 21.34375 51.125 25.703125 53.5625 
Q 30.078125 56 35.796875 56 
Q 45.21875 56 50.046875 50.171875 
Q 54.890625 44.34375 54.890625 33.015625 
" id="BitstreamVeraSans-Roman-6e"/>
      <path d="M 41.109375 46.296875 
Q 39.59375 47.171875 37.8125 47.578125 
Q 36.03125 48 33.890625 48 
Q 26.265625 48 22.1875 43.046875 
Q 18.109375 38.09375 18.109375 28.8125 
L 18.109375 0 
L 9.078125 0 
L 9.078125 54.6875 
L 18.109375 54.6875 
L 18.109375 46.1875 
Q 20.953125 51.171875 25.484375 53.578125 
Q 30.03125 56 36.53125 56 
Q 37.453125 56 38.578125 55.875 
Q 39.703125 55.765625 41.0625 55.515625 
z
" id="BitstreamVeraSans-Roman-72"/>
      <path d="M 32.171875 -5.078125 
Q 28.375 -14.84375 24.75 -17.8125 
Q 21.140625 -20.796875 15.09375 -20.796875 
L 7.90625 -20.796875 
L 7.90625 -13.28125 
L 13.1875 -13.28125 
Q 16.890625 -13.28125 18.9375 -11.515625 
Q 21 -9.765625 23.484375 -3.21875 
L 25.09375 0.875 
L 2.984375 54.6875 
L 12.5 54.6875 
L 29.59375 11.921875 
L 46.6875 54.6875 
L 56.203125 54.6875 
z
" id="BitstreamVeraSans-Roman-79"/>
      <path d="M 8.59375 75.984375 
L 29.296875 75.984375 
L 29.296875 69 
L 17.578125 69 
L 17.578125 -6.203125 
L 29.296875 -6.203125 
L 29.296875 -13.1875 
L 8.59375 -13.1875 
z
" id="BitstreamVeraSans-Roman-5b"/>
      <path d="M 30.421875 75.984375 
L 30.421875 -13.1875 
L 9.71875 -13.1875 
L 9.71875 -6.203125 
L 21.390625 -6.203125 
L 21.390625 69 
L 9.71875 69 
L 9.71875 75.984375 
z
" id="BitstreamVeraSans-Roman-5d"/>
      <path d="M 5.515625 54.6875 
L 48.1875 54.6875 
L 48.1875 46.484375 
L 14.40625 7.171875 
L 48.1875 7.171875 
L 48.1875 0 
L 4.296875 0 
L 4.296875 8.203125 
L 38.09375 47.515625 
L 5.515625 47.515625 
z
" id="BitstreamVeraSans-Roman-7a"/>
      <path id="BitstreamVeraSans-Roman-20"/>
      <path d="M 8.5 21.578125 
L 8.5 54.6875 
L 17.484375 54.6875 
L 17.484375 21.921875 
Q 17.484375 14.15625 20.5 10.265625 
Q 23.53125 6.390625 29.59375 6.390625 
Q 36.859375 6.390625 41.078125 11.03125 
Q 45.3125 15.671875 45.3125 23.6875 
L 45.3125 54.6875 
L 54.296875 54.6875 
L 54.296875 0 
L 45.3125 0 
L 45.3125 8.40625 
Q 42.046875 3.421875 37.71875 1 
Q 33.40625 -1.421875 27.6875 -1.421875 
Q 18.265625 -1.421875 13.375 4.4375 
Q 8.5 10.296875 8.5 21.578125 
" id="BitstreamVeraSans-Roman-75"/>
     </defs>
     <g transform="translate(423.0384375 581.968125)scale(0.12 -0.12)">
      <use xlink:href="#BitstreamVeraSans-Roman-46"/>
      <use x="57.41015625" xlink:href="#BitstreamVeraSans-Roman-72"/>
      <use x="98.4921875" xlink:href="#BitstreamVeraSans-Roman-65"/>
      <use x="160.015625" xlink:href="#BitstreamVeraSans-Roman-71"/>
      <use x="223.4921875" xlink:href="#BitstreamVeraSans-Roman-75"/>
      <use x="286.87109375" xlink:href="#BitstreamVeraSans-Roman-65"/>
      <use x="348.39453125" xlink:href="#BitstreamVeraSans-Roman-6e"/>
      <use x="411.7734375" xlink:href="#BitstreamVeraSans-Roman-63"/>
      <use x="466.75390625" xlink:href="#BitstreamVeraSans-Roman-79"/>
      <use x="525.93359375" xlink:href="#BitstreamVeraSans-Roman-20"/>
      <use x="557.720703125" xlink:href="#BitstreamVeraSans-Roman-5b"/>
      <use x="596.734375" xlink:href="#BitstreamVeraSans-Roman-6b"/>
      <use x="654.64453125" xlink:href="#BitstreamVeraSans-Roman-48"/>
      <use x="729.83984375" xlink:href="#BitstreamVeraSans-Roman-7a"/>
      <use x="782.330078125" xlink:href="#BitstreamVeraSans-Roman-5d"/>
     </g>
    </g>
   </g>
   <g id="matplotlib.axis_2">
    <g id="ytick_1">
     <g id="line2d_67">
      <defs>
       <path d="M 0 0 
L 4 0 
" id="mdb40b73395" style="stroke:#000000;stroke-width:0.5;"/>
      </defs>
      <g>
       <use style="stroke:#000000;stroke-width:0.5;" x="115.2" xlink:href="#mdb40b73395" y="551.61"/>
      </g>
     </g>
     <g id="line2d_68">
      <defs>
       <path d="M 0 0 
L -4 0 
" id="me019cce545" style="stroke:#000000;stroke-width:0.5;"/>
      </defs>
      <g>
       <use style="stroke:#000000;stroke-width:0.5;" x="829.44" xlink:href="#me019cce545" y="551.61"/>
      </g>
     </g>
     <g id="text_6">
      <!-- 8 -->
      <defs>
       <path d="M 10.59375 35.5 
L 73.1875 35.5 
L 73.1875 27.203125 
L 10.59375 27.203125 
z
" id="BitstreamVeraSans-Roman-2212"/>
       <path d="M 31.78125 34.625 
Q 24.75 34.625 20.71875 30.859375 
Q 16.703125 27.09375 16.703125 20.515625 
Q 16.703125 13.921875 20.71875 10.15625 
Q 24.75 6.390625 31.78125 6.390625 
Q 38.8125 6.390625 42.859375 10.171875 
Q 46.921875 13.96875 46.921875 20.515625 
Q 46.921875 27.09375 42.890625 30.859375 
Q 38.875 34.625 31.78125 34.625 
M 21.921875 38.8125 
Q 15.578125 40.375 12.03125 44.71875 
Q 8.5 49.078125 8.5 55.328125 
Q 8.5 64.0625 14.71875 69.140625 
Q 20.953125 74.21875 31.78125 74.21875 
Q 42.671875 74.21875 48.875 69.140625 
Q 55.078125 64.0625 55.078125 55.328125 
Q 55.078125 49.078125 51.53125 44.71875 
Q 48 40.375 41.703125 38.8125 
Q 48.828125 37.15625 52.796875 32.3125 
Q 56.78125 27.484375 56.78125 20.515625 
Q 56.78125 9.90625 50.3125 4.234375 
Q 43.84375 -1.421875 31.78125 -1.421875 
Q 19.734375 -1.421875 13.25 4.234375 
Q 6.78125 9.90625 6.78125 20.515625 
Q 6.78125 27.484375 10.78125 32.3125 
Q 14.796875 37.15625 21.921875 38.8125 
M 18.3125 54.390625 
Q 18.3125 48.734375 21.84375 45.5625 
Q 25.390625 42.390625 31.78125 42.390625 
Q 38.140625 42.390625 41.71875 45.5625 
Q 45.3125 48.734375 45.3125 54.390625 
Q 45.3125 60.0625 41.71875 63.234375 
Q 38.140625 66.40625 31.78125 66.40625 
Q 25.390625 66.40625 21.84375 63.234375 
Q 18.3125 60.0625 18.3125 54.390625 
" id="BitstreamVeraSans-Roman-38"/>
      </defs>
      <g transform="translate(93.509375 554.92125)scale(0.12 -0.12)">
       <use xlink:href="#BitstreamVeraSans-Roman-2212"/>
       <use x="83.7890625" xlink:href="#BitstreamVeraSans-Roman-38"/>
      </g>
     </g>
    </g>
    <g id="ytick_2">
     <g id="line2d_69">
      <g>
       <use style="stroke:#000000;stroke-width:0.5;" x="115.2" xlink:href="#mdb40b73395" y="497.13"/>
      </g>
     </g>
     <g id="line2d_70">
      <g>
       <use style="stroke:#000000;stroke-width:0.5;" x="829.44" xlink:href="#me019cce545" y="497.13"/>
      </g>
     </g>
     <g id="text_7">
      <!-- 7 -->
      <defs>
       <path d="M 8.203125 72.90625 
L 55.078125 72.90625 
L 55.078125 68.703125 
L 28.609375 0 
L 18.3125 0 
L 43.21875 64.59375 
L 8.203125 64.59375 
z
" id="BitstreamVeraSans-Roman-37"/>
      </defs>
      <g transform="translate(93.509375 500.44125)scale(0.12 -0.12)">
       <use xlink:href="#BitstreamVeraSans-Roman-2212"/>
       <use x="83.7890625" xlink:href="#BitstreamVeraSans-Roman-37"/>
      </g>
     </g>
    </g>
    <g id="ytick_3">
     <g id="line2d_71">
      <g>
       <use style="stroke:#000000;stroke-width:0.5;" x="115.2" xlink:href="#mdb40b73395" y="442.65"/>
      </g>
     </g>
     <g id="line2d_72">
      <g>
       <use style="stroke:#000000;stroke-width:0.5;" x="829.44" xlink:href="#me019cce545" y="442.65"/>
      </g>
     </g>
     <g id="text_8">
      <!-- 6 -->
      <defs>
       <path d="M 33.015625 40.375 
Q 26.375 40.375 22.484375 35.828125 
Q 18.609375 31.296875 18.609375 23.390625 
Q 18.609375 15.53125 22.484375 10.953125 
Q 26.375 6.390625 33.015625 6.390625 
Q 39.65625 6.390625 43.53125 10.953125 
Q 47.40625 15.53125 47.40625 23.390625 
Q 47.40625 31.296875 43.53125 35.828125 
Q 39.65625 40.375 33.015625 40.375 
M 52.59375 71.296875 
L 52.59375 62.3125 
Q 48.875 64.0625 45.09375 64.984375 
Q 41.3125 65.921875 37.59375 65.921875 
Q 27.828125 65.921875 22.671875 59.328125 
Q 17.53125 52.734375 16.796875 39.40625 
Q 19.671875 43.65625 24.015625 45.921875 
Q 28.375 48.1875 33.59375 48.1875 
Q 44.578125 48.1875 50.953125 41.515625 
Q 57.328125 34.859375 57.328125 23.390625 
Q 57.328125 12.15625 50.6875 5.359375 
Q 44.046875 -1.421875 33.015625 -1.421875 
Q 20.359375 -1.421875 13.671875 8.265625 
Q 6.984375 17.96875 6.984375 36.375 
Q 6.984375 53.65625 15.1875 63.9375 
Q 23.390625 74.21875 37.203125 74.21875 
Q 40.921875 74.21875 44.703125 73.484375 
Q 48.484375 72.75 52.59375 71.296875 
" id="BitstreamVeraSans-Roman-36"/>
      </defs>
      <g transform="translate(93.509375 445.96125)scale(0.12 -0.12)">
       <use xlink:href="#BitstreamVeraSans-Roman-2212"/>
       <use x="83.7890625" xlink:href="#BitstreamVeraSans-Roman-36"/>
      </g>
     </g>
    </g>
    <g id="ytick_4">
     <g id="line2d_73">
      <g>
       <use style="stroke:#000000;stroke-width:0.5;" x="115.2" xlink:href="#mdb40b73395" y="388.17"/>
      </g>
     </g>
     <g id="line2d_74">
      <g>
       <use style="stroke:#000000;stroke-width:0.5;" x="829.44" xlink:href="#me019cce545" y="388.17"/>
      </g>
     </g>
     <g id="text_9">
      <!-- 5 -->
      <defs>
       <path d="M 10.796875 72.90625 
L 49.515625 72.90625 
L 49.515625 64.59375 
L 19.828125 64.59375 
L 19.828125 46.734375 
Q 21.96875 47.46875 24.109375 47.828125 
Q 26.265625 48.1875 28.421875 48.1875 
Q 40.625 48.1875 47.75 41.5 
Q 54.890625 34.8125 54.890625 23.390625 
Q 54.890625 11.625 47.5625 5.09375 
Q 40.234375 -1.421875 26.90625 -1.421875 
Q 22.3125 -1.421875 17.546875 -0.640625 
Q 12.796875 0.140625 7.71875 1.703125 
L 7.71875 11.625 
Q 12.109375 9.234375 16.796875 8.0625 
Q 21.484375 6.890625 26.703125 6.890625 
Q 35.15625 6.890625 40.078125 11.328125 
Q 45.015625 15.765625 45.015625 23.390625 
Q 45.015625 31 40.078125 35.4375 
Q 35.15625 39.890625 26.703125 39.890625 
Q 22.75 39.890625 18.8125 39.015625 
Q 14.890625 38.140625 10.796875 36.28125 
z
" id="BitstreamVeraSans-Roman-35"/>
      </defs>
      <g transform="translate(93.509375 391.48125)scale(0.12 -0.12)">
       <use xlink:href="#BitstreamVeraSans-Roman-2212"/>
       <use x="83.7890625" xlink:href="#BitstreamVeraSans-Roman-35"/>
      </g>
     </g>
    </g>
    <g id="ytick_5">
     <g id="line2d_75">
      <g>
       <use style="stroke:#000000;stroke-width:0.5;" x="115.2" xlink:href="#mdb40b73395" y="333.69"/>
      </g>
     </g>
     <g id="line2d_76">
      <g>
       <use style="stroke:#000000;stroke-width:0.5;" x="829.44" xlink:href="#me019cce545" y="333.69"/>
      </g>
     </g>
     <g id="text_10">
      <!-- 4 -->
      <defs>
       <path d="M 37.796875 64.3125 
L 12.890625 25.390625 
L 37.796875 25.390625 
z
M 35.203125 72.90625 
L 47.609375 72.90625 
L 47.609375 25.390625 
L 58.015625 25.390625 
L 58.015625 17.1875 
L 47.609375 17.1875 
L 47.609375 0 
L 37.796875 0 
L 37.796875 17.1875 
L 4.890625 17.1875 
L 4.890625 26.703125 
z
" id="BitstreamVeraSans-Roman-34"/>
      </defs>
      <g transform="translate(93.509375 337.00125)scale(0.12 -0.12)">
       <use xlink:href="#BitstreamVeraSans-Roman-2212"/>
       <use x="83.7890625" xlink:href="#BitstreamVeraSans-Roman-34"/>
      </g>
     </g>
    </g>
    <g id="ytick_6">
     <g id="line2d_77">
      <g>
       <use style="stroke:#000000;stroke-width:0.5;" x="115.2" xlink:href="#mdb40b73395" y="279.21"/>
      </g>
     </g>
     <g id="line2d_78">
      <g>
       <use style="stroke:#000000;stroke-width:0.5;" x="829.44" xlink:href="#me019cce545" y="279.21"/>
      </g>
     </g>
     <g id="text_11">
      <!-- 3 -->
      <g transform="translate(93.509375 282.52125)scale(0.12 -0.12)">
       <use xlink:href="#BitstreamVeraSans-Roman-2212"/>
       <use x="83.7890625" xlink:href="#BitstreamVeraSans-Roman-33"/>
      </g>
     </g>
    </g>
    <g id="ytick_7">
     <g id="line2d_79">
      <g>
       <use style="stroke:#000000;stroke-width:0.5;" x="115.2" xlink:href="#mdb40b73395" y="224.73"/>
      </g>
     </g>
     <g id="line2d_80">
      <g>
       <use style="stroke:#000000;stroke-width:0.5;" x="829.44" xlink:href="#me019cce545" y="224.73"/>
      </g>
     </g>
     <g id="text_12">
      <!-- 2 -->
      <g transform="translate(93.509375 228.04125)scale(0.12 -0.12)">
       <use xlink:href="#BitstreamVeraSans-Roman-2212"/>
       <use x="83.7890625" xlink:href="#BitstreamVeraSans-Roman-32"/>
      </g>
     </g>
    </g>
    <g id="ytick_8">
     <g id="line2d_81">
      <g>
       <use style="stroke:#000000;stroke-width:0.5;" x="115.2" xlink:href="#mdb40b73395" y="170.25"/>
      </g>
     </g>
     <g id="line2d_82">
      <g>
       <use style="stroke:#000000;stroke-width:0.5;" x="829.44" xlink:href="#me019cce545" y="170.25"/>
      </g>
     </g>
     <g id="text_13">
      <!-- 1 -->
      <g transform="translate(93.509375 173.56125)scale(0.12 -0.12)">
       <use xlink:href="#BitstreamVeraSans-Roman-2212"/>
       <use x="83.7890625" xlink:href="#BitstreamVeraSans-Roman-31"/>
      </g>
     </g>
    </g>
    <g id="ytick_9">
     <g id="line2d_83">
      <g>
       <use style="stroke:#000000;stroke-width:0.5;" x="115.2" xlink:href="#mdb40b73395" y="115.77"/>
      </g>
     </g>
     <g id="line2d_84">
      <g>
       <use style="stroke:#000000;stroke-width:0.5;" x="829.44" xlink:href="#me019cce545" y="115.77"/>
      </g>
     </g>
     <g id="text_14">
      <!-- 0 -->
      <g transform="translate(103.565 119.08125)scale(0.12 -0.12)">
       <use xlink:href="#BitstreamVeraSans-Roman-30"/>
      </g>
     </g>
    </g>
    <g id="ytick_10">
     <g id="line2d_85">
      <g>
       <use style="stroke:#000000;stroke-width:0.5;" x="115.2" xlink:href="#mdb40b73395" y="61.29"/>
      </g>
     </g>
     <g id="line2d_86">
      <g>
       <use style="stroke:#000000;stroke-width:0.5;" x="829.44" xlink:href="#me019cce545" y="61.29"/>
      </g>
     </g>
     <g id="text_15">
      <!-- 1 -->
      <g transform="translate(103.565 64.60125)scale(0.12 -0.12)">
       <use xlink:href="#BitstreamVeraSans-Roman-31"/>
      </g>
     </g>
    </g>
    <g id="text_16">
     <!-- Phase [rad] -->
     <defs>
      <path d="M 44.28125 53.078125 
L 44.28125 44.578125 
Q 40.484375 46.53125 36.375 47.5 
Q 32.28125 48.484375 27.875 48.484375 
Q 21.1875 48.484375 17.84375 46.4375 
Q 14.5 44.390625 14.5 40.28125 
Q 14.5 37.15625 16.890625 35.375 
Q 19.28125 33.59375 26.515625 31.984375 
L 29.59375 31.296875 
Q 39.15625 29.25 43.1875 25.515625 
Q 47.21875 21.78125 47.21875 15.09375 
Q 47.21875 7.46875 41.1875 3.015625 
Q 35.15625 -1.421875 24.609375 -1.421875 
Q 20.21875 -1.421875 15.453125 -0.5625 
Q 10.6875 0.296875 5.421875 2 
L 5.421875 11.28125 
Q 10.40625 8.6875 15.234375 7.390625 
Q 20.0625 6.109375 24.8125 6.109375 
Q 31.15625 6.109375 34.5625 8.28125 
Q 37.984375 10.453125 37.984375 14.40625 
Q 37.984375 18.0625 35.515625 20.015625 
Q 33.0625 21.96875 24.703125 23.78125 
L 21.578125 24.515625 
Q 13.234375 26.265625 9.515625 29.90625 
Q 5.8125 33.546875 5.8125 39.890625 
Q 5.8125 47.609375 11.28125 51.796875 
Q 16.75 56 26.8125 56 
Q 31.78125 56 36.171875 55.265625 
Q 40.578125 54.546875 44.28125 53.078125 
" id="BitstreamVeraSans-Roman-73"/>
      <path d="M 45.40625 46.390625 
L 45.40625 75.984375 
L 54.390625 75.984375 
L 54.390625 0 
L 45.40625 0 
L 45.40625 8.203125 
Q 42.578125 3.328125 38.25 0.953125 
Q 33.9375 -1.421875 27.875 -1.421875 
Q 17.96875 -1.421875 11.734375 6.484375 
Q 5.515625 14.40625 5.515625 27.296875 
Q 5.515625 40.1875 11.734375 48.09375 
Q 17.96875 56 27.875 56 
Q 33.9375 56 38.25 53.625 
Q 42.578125 51.265625 45.40625 46.390625 
M 14.796875 27.296875 
Q 14.796875 17.390625 18.875 11.75 
Q 22.953125 6.109375 30.078125 6.109375 
Q 37.203125 6.109375 41.296875 11.75 
Q 45.40625 17.390625 45.40625 27.296875 
Q 45.40625 37.203125 41.296875 42.84375 
Q 37.203125 48.484375 30.078125 48.484375 
Q 22.953125 48.484375 18.875 42.84375 
Q 14.796875 37.203125 14.796875 27.296875 
" id="BitstreamVeraSans-Roman-64"/>
      <path d="M 54.890625 33.015625 
L 54.890625 0 
L 45.90625 0 
L 45.90625 32.71875 
Q 45.90625 40.484375 42.875 44.328125 
Q 39.84375 48.1875 33.796875 48.1875 
Q 26.515625 48.1875 22.3125 43.546875 
Q 18.109375 38.921875 18.109375 30.90625 
L 18.109375 0 
L 9.078125 0 
L 9.078125 75.984375 
L 18.109375 75.984375 
L 18.109375 46.1875 
Q 21.34375 51.125 25.703125 53.5625 
Q 30.078125 56 35.796875 56 
Q 45.21875 56 50.046875 50.171875 
Q 54.890625 44.34375 54.890625 33.015625 
" id="BitstreamVeraSans-Roman-68"/>
      <path d="M 34.28125 27.484375 
Q 23.390625 27.484375 19.1875 25 
Q 14.984375 22.515625 14.984375 16.5 
Q 14.984375 11.71875 18.140625 8.90625 
Q 21.296875 6.109375 26.703125 6.109375 
Q 34.1875 6.109375 38.703125 11.40625 
Q 43.21875 16.703125 43.21875 25.484375 
L 43.21875 27.484375 
z
M 52.203125 31.203125 
L 52.203125 0 
L 43.21875 0 
L 43.21875 8.296875 
Q 40.140625 3.328125 35.546875 0.953125 
Q 30.953125 -1.421875 24.3125 -1.421875 
Q 15.921875 -1.421875 10.953125 3.296875 
Q 6 8.015625 6 15.921875 
Q 6 25.140625 12.171875 29.828125 
Q 18.359375 34.515625 30.609375 34.515625 
L 43.21875 34.515625 
L 43.21875 35.40625 
Q 43.21875 41.609375 39.140625 45 
Q 35.0625 48.390625 27.6875 48.390625 
Q 23 48.390625 18.546875 47.265625 
Q 14.109375 46.140625 10.015625 43.890625 
L 10.015625 52.203125 
Q 14.9375 54.109375 19.578125 55.046875 
Q 24.21875 56 28.609375 56 
Q 40.484375 56 46.34375 49.84375 
Q 52.203125 43.703125 52.203125 31.203125 
" id="BitstreamVeraSans-Roman-61"/>
      <path d="M 19.671875 64.796875 
L 19.671875 37.40625 
L 32.078125 37.40625 
Q 38.96875 37.40625 42.71875 40.96875 
Q 46.484375 44.53125 46.484375 51.125 
Q 46.484375 57.671875 42.71875 61.234375 
Q 38.96875 64.796875 32.078125 64.796875 
z
M 9.8125 72.90625 
L 32.078125 72.90625 
Q 44.34375 72.90625 50.609375 67.359375 
Q 56.890625 61.8125 56.890625 51.125 
Q 56.890625 40.328125 50.609375 34.8125 
Q 44.34375 29.296875 32.078125 29.296875 
L 19.671875 29.296875 
L 19.671875 0 
L 9.8125 0 
z
" id="BitstreamVeraSans-Roman-50"/>
     </defs>
     <g transform="translate(86.01375 340.9059375)rotate(-90.0)scale(0.12 -0.12)">
      <use xlink:href="#BitstreamVeraSans-Roman-50"/>
      <use x="60.302734375" xlink:href="#BitstreamVeraSans-Roman-68"/>
      <use x="123.681640625" xlink:href="#BitstreamVeraSans-Roman-61"/>
      <use x="184.9609375" xlink:href="#BitstreamVeraSans-Roman-73"/>
      <use x="237.060546875" xlink:href="#BitstreamVeraSans-Roman-65"/>
      <use x="298.583984375" xlink:href="#BitstreamVeraSans-Roman-20"/>
      <use x="330.37109375" xlink:href="#BitstreamVeraSans-Roman-5b"/>
      <use x="369.384765625" xlink:href="#BitstreamVeraSans-Roman-72"/>
      <use x="410.498046875" xlink:href="#BitstreamVeraSans-Roman-61"/>
      <use x="471.77734375" xlink:href="#BitstreamVeraSans-Roman-64"/>
      <use x="535.25390625" xlink:href="#BitstreamVeraSans-Roman-5d"/>
     </g>
    </g>
   </g>
   <g id="text_17">
    <!-- Phase Curve for 5 Hz MFR and 1.0 MOhm -->
    <defs>
     <path d="M 37.109375 75.984375 
L 37.109375 68.5 
L 28.515625 68.5 
Q 23.6875 68.5 21.796875 66.546875 
Q 19.921875 64.59375 19.921875 59.515625 
L 19.921875 54.6875 
L 34.71875 54.6875 
L 34.71875 47.703125 
L 19.921875 47.703125 
L 19.921875 0 
L 10.890625 0 
L 10.890625 47.703125 
L 2.296875 47.703125 
L 2.296875 54.6875 
L 10.890625 54.6875 
L 10.890625 58.5 
Q 10.890625 67.625 15.140625 71.796875 
Q 19.390625 75.984375 28.609375 75.984375 
z
" id="BitstreamVeraSans-Roman-66"/>
     <path d="M 10.6875 12.40625 
L 21 12.40625 
L 21 0 
L 10.6875 0 
z
" id="BitstreamVeraSans-Roman-2e"/>
     <path d="M 39.40625 66.21875 
Q 28.65625 66.21875 22.328125 58.203125 
Q 16.015625 50.203125 16.015625 36.375 
Q 16.015625 22.609375 22.328125 14.59375 
Q 28.65625 6.59375 39.40625 6.59375 
Q 50.140625 6.59375 56.421875 14.59375 
Q 62.703125 22.609375 62.703125 36.375 
Q 62.703125 50.203125 56.421875 58.203125 
Q 50.140625 66.21875 39.40625 66.21875 
M 39.40625 74.21875 
Q 54.734375 74.21875 63.90625 63.9375 
Q 73.09375 53.65625 73.09375 36.375 
Q 73.09375 19.140625 63.90625 8.859375 
Q 54.734375 -1.421875 39.40625 -1.421875 
Q 24.03125 -1.421875 14.8125 8.828125 
Q 5.609375 19.09375 5.609375 36.375 
Q 5.609375 53.65625 14.8125 63.9375 
Q 24.03125 74.21875 39.40625 74.21875 
" id="BitstreamVeraSans-Roman-4f"/>
     <path d="M 52 44.1875 
Q 55.375 50.25 60.0625 53.125 
Q 64.75 56 71.09375 56 
Q 79.640625 56 84.28125 50.015625 
Q 88.921875 44.046875 88.921875 33.015625 
L 88.921875 0 
L 79.890625 0 
L 79.890625 32.71875 
Q 79.890625 40.578125 77.09375 44.375 
Q 74.3125 48.1875 68.609375 48.1875 
Q 61.625 48.1875 57.5625 43.546875 
Q 53.515625 38.921875 53.515625 30.90625 
L 53.515625 0 
L 44.484375 0 
L 44.484375 32.71875 
Q 44.484375 40.625 41.703125 44.40625 
Q 38.921875 48.1875 33.109375 48.1875 
Q 26.21875 48.1875 22.15625 43.53125 
Q 18.109375 38.875 18.109375 30.90625 
L 18.109375 0 
L 9.078125 0 
L 9.078125 54.6875 
L 18.109375 54.6875 
L 18.109375 46.1875 
Q 21.1875 51.21875 25.484375 53.609375 
Q 29.78125 56 35.6875 56 
Q 41.65625 56 45.828125 52.96875 
Q 50 49.953125 52 44.1875 
" id="BitstreamVeraSans-Roman-6d"/>
     <path d="M 9.8125 72.90625 
L 24.515625 72.90625 
L 43.109375 23.296875 
L 61.8125 72.90625 
L 76.515625 72.90625 
L 76.515625 0 
L 66.890625 0 
L 66.890625 64.015625 
L 48.09375 14.015625 
L 38.1875 14.015625 
L 19.390625 64.015625 
L 19.390625 0 
L 9.8125 0 
z
" id="BitstreamVeraSans-Roman-4d"/>
     <path d="M 2.984375 54.6875 
L 12.5 54.6875 
L 29.59375 8.796875 
L 46.6875 54.6875 
L 56.203125 54.6875 
L 35.6875 0 
L 23.484375 0 
z
" id="BitstreamVeraSans-Roman-76"/>
     <path d="M 64.40625 67.28125 
L 64.40625 56.890625 
Q 59.421875 61.53125 53.78125 63.8125 
Q 48.140625 66.109375 41.796875 66.109375 
Q 29.296875 66.109375 22.65625 58.46875 
Q 16.015625 50.828125 16.015625 36.375 
Q 16.015625 21.96875 22.65625 14.328125 
Q 29.296875 6.6875 41.796875 6.6875 
Q 48.140625 6.6875 53.78125 8.984375 
Q 59.421875 11.28125 64.40625 15.921875 
L 64.40625 5.609375 
Q 59.234375 2.09375 53.4375 0.328125 
Q 47.65625 -1.421875 41.21875 -1.421875 
Q 24.65625 -1.421875 15.125 8.703125 
Q 5.609375 18.84375 5.609375 36.375 
Q 5.609375 53.953125 15.125 64.078125 
Q 24.65625 74.21875 41.21875 74.21875 
Q 47.75 74.21875 53.53125 72.484375 
Q 59.328125 70.75 64.40625 67.28125 
" id="BitstreamVeraSans-Roman-43"/>
     <path d="M 30.609375 48.390625 
Q 23.390625 48.390625 19.1875 42.75 
Q 14.984375 37.109375 14.984375 27.296875 
Q 14.984375 17.484375 19.15625 11.84375 
Q 23.34375 6.203125 30.609375 6.203125 
Q 37.796875 6.203125 41.984375 11.859375 
Q 46.1875 17.53125 46.1875 27.296875 
Q 46.1875 37.015625 41.984375 42.703125 
Q 37.796875 48.390625 30.609375 48.390625 
M 30.609375 56 
Q 42.328125 56 49.015625 48.375 
Q 55.71875 40.765625 55.71875 27.296875 
Q 55.71875 13.875 49.015625 6.21875 
Q 42.328125 -1.421875 30.609375 -1.421875 
Q 18.84375 -1.421875 12.171875 6.21875 
Q 5.515625 13.875 5.515625 27.296875 
Q 5.515625 40.765625 12.171875 48.375 
Q 18.84375 56 30.609375 56 
" id="BitstreamVeraSans-Roman-6f"/>
     <path d="M 44.390625 34.1875 
Q 47.5625 33.109375 50.5625 29.59375 
Q 53.5625 26.078125 56.59375 19.921875 
L 66.609375 0 
L 56 0 
L 46.6875 18.703125 
Q 43.0625 26.03125 39.671875 28.421875 
Q 36.28125 30.8125 30.421875 30.8125 
L 19.671875 30.8125 
L 19.671875 0 
L 9.8125 0 
L 9.8125 72.90625 
L 32.078125 72.90625 
Q 44.578125 72.90625 50.734375 67.671875 
Q 56.890625 62.453125 56.890625 51.90625 
Q 56.890625 45.015625 53.6875 40.46875 
Q 50.484375 35.9375 44.390625 34.1875 
M 19.671875 64.796875 
L 19.671875 38.921875 
L 32.078125 38.921875 
Q 39.203125 38.921875 42.84375 42.21875 
Q 46.484375 45.515625 46.484375 51.90625 
Q 46.484375 58.296875 42.84375 61.546875 
Q 39.203125 64.796875 32.078125 64.796875 
z
" id="BitstreamVeraSans-Roman-52"/>
    </defs>
    <g transform="translate(323.79075 56.29)scale(0.144 -0.144)">
     <use xlink:href="#BitstreamVeraSans-Roman-50"/>
     <use x="60.302734375" xlink:href="#BitstreamVeraSans-Roman-68"/>
     <use x="123.681640625" xlink:href="#BitstreamVeraSans-Roman-61"/>
     <use x="184.9609375" xlink:href="#BitstreamVeraSans-Roman-73"/>
     <use x="237.060546875" xlink:href="#BitstreamVeraSans-Roman-65"/>
     <use x="298.583984375" xlink:href="#BitstreamVeraSans-Roman-20"/>
     <use x="330.37109375" xlink:href="#BitstreamVeraSans-Roman-43"/>
     <use x="400.1953125" xlink:href="#BitstreamVeraSans-Roman-75"/>
     <use x="463.57421875" xlink:href="#BitstreamVeraSans-Roman-72"/>
     <use x="504.6875" xlink:href="#BitstreamVeraSans-Roman-76"/>
     <use x="563.8671875" xlink:href="#BitstreamVeraSans-Roman-65"/>
     <use x="625.390625" xlink:href="#BitstreamVeraSans-Roman-20"/>
     <use x="657.177734375" xlink:href="#BitstreamVeraSans-Roman-66"/>
     <use x="692.3828125" xlink:href="#BitstreamVeraSans-Roman-6f"/>
     <use x="753.564453125" xlink:href="#BitstreamVeraSans-Roman-72"/>
     <use x="794.677734375" xlink:href="#BitstreamVeraSans-Roman-20"/>
     <use x="826.46484375" xlink:href="#BitstreamVeraSans-Roman-35"/>
     <use x="890.087890625" xlink:href="#BitstreamVeraSans-Roman-20"/>
     <use x="921.875" xlink:href="#BitstreamVeraSans-Roman-48"/>
     <use x="997.0703125" xlink:href="#BitstreamVeraSans-Roman-7a"/>
     <use x="1049.560546875" xlink:href="#BitstreamVeraSans-Roman-20"/>
     <use x="1081.34765625" xlink:href="#BitstreamVeraSans-Roman-4d"/>
     <use x="1167.626953125" xlink:href="#BitstreamVeraSans-Roman-46"/>
     <use x="1225.146484375" xlink:href="#BitstreamVeraSans-Roman-52"/>
     <use x="1294.62890625" xlink:href="#BitstreamVeraSans-Roman-20"/>
     <use x="1326.416015625" xlink:href="#BitstreamVeraSans-Roman-61"/>
     <use x="1387.6953125" xlink:href="#BitstreamVeraSans-Roman-6e"/>
     <use x="1451.07421875" xlink:href="#BitstreamVeraSans-Roman-64"/>
     <use x="1514.55078125" xlink:href="#BitstreamVeraSans-Roman-20"/>
     <use x="1546.337890625" xlink:href="#BitstreamVeraSans-Roman-31"/>
     <use x="1609.9609375" xlink:href="#BitstreamVeraSans-Roman-2e"/>
     <use x="1641.748046875" xlink:href="#BitstreamVeraSans-Roman-30"/>
     <use x="1705.37109375" xlink:href="#BitstreamVeraSans-Roman-20"/>
     <use x="1737.158203125" xlink:href="#BitstreamVeraSans-Roman-4d"/>
     <use x="1823.4375" xlink:href="#BitstreamVeraSans-Roman-4f"/>
     <use x="1902.1484375" xlink:href="#BitstreamVeraSans-Roman-68"/>
     <use x="1965.52734375" xlink:href="#BitstreamVeraSans-Roman-6d"/>
    </g>
   </g>
   <g id="legend_1">
    <g id="patch_7">
     <path d="M 122.4 544.41 
L 257.98275 544.41 
L 257.98275 328.725 
L 122.4 328.725 
z
" style="fill:#ffffff;stroke:#000000;stroke-linejoin:miter;"/>
    </g>
    <g id="line2d_87">
     <path d="M 132.48 340.38675 
L 152.64 340.38675 
" style="fill:none;stroke:#ff1e1e;stroke-linecap:square;"/>
    </g>
    <g id="line2d_88"/>
    <g id="text_18">
     <!-- Std: 100.0 -->
     <defs>
      <path d="M 18.3125 70.21875 
L 18.3125 54.6875 
L 36.8125 54.6875 
L 36.8125 47.703125 
L 18.3125 47.703125 
L 18.3125 18.015625 
Q 18.3125 11.328125 20.140625 9.421875 
Q 21.96875 7.515625 27.59375 7.515625 
L 36.8125 7.515625 
L 36.8125 0 
L 27.59375 0 
Q 17.1875 0 13.234375 3.875 
Q 9.28125 7.765625 9.28125 18.015625 
L 9.28125 47.703125 
L 2.6875 47.703125 
L 2.6875 54.6875 
L 9.28125 54.6875 
L 9.28125 70.21875 
z
" id="BitstreamVeraSans-Roman-74"/>
      <path d="M 11.71875 12.40625 
L 22.015625 12.40625 
L 22.015625 0 
L 11.71875 0 
z
M 11.71875 51.703125 
L 22.015625 51.703125 
L 22.015625 39.3125 
L 11.71875 39.3125 
z
" id="BitstreamVeraSans-Roman-3a"/>
      <path d="M 53.515625 70.515625 
L 53.515625 60.890625 
Q 47.90625 63.578125 42.921875 64.890625 
Q 37.9375 66.21875 33.296875 66.21875 
Q 25.25 66.21875 20.875 63.09375 
Q 16.5 59.96875 16.5 54.203125 
Q 16.5 49.359375 19.40625 46.890625 
Q 22.3125 44.4375 30.421875 42.921875 
L 36.375 41.703125 
Q 47.40625 39.59375 52.65625 34.296875 
Q 57.90625 29 57.90625 20.125 
Q 57.90625 9.515625 50.796875 4.046875 
Q 43.703125 -1.421875 29.984375 -1.421875 
Q 24.8125 -1.421875 18.96875 -0.25 
Q 13.140625 0.921875 6.890625 3.21875 
L 6.890625 13.375 
Q 12.890625 10.015625 18.65625 8.296875 
Q 24.421875 6.59375 29.984375 6.59375 
Q 38.421875 6.59375 43.015625 9.90625 
Q 47.609375 13.234375 47.609375 19.390625 
Q 47.609375 24.75 44.3125 27.78125 
Q 41.015625 30.8125 33.5 32.328125 
L 27.484375 33.5 
Q 16.453125 35.6875 11.515625 40.375 
Q 6.59375 45.0625 6.59375 53.421875 
Q 6.59375 63.09375 13.40625 68.65625 
Q 20.21875 74.21875 32.171875 74.21875 
Q 37.3125 74.21875 42.625 73.28125 
Q 47.953125 72.359375 53.515625 70.515625 
" id="BitstreamVeraSans-Roman-53"/>
     </defs>
     <g transform="translate(168.48 345.42675)scale(0.144 -0.144)">
      <use xlink:href="#BitstreamVeraSans-Roman-53"/>
      <use x="63.4765625" xlink:href="#BitstreamVeraSans-Roman-74"/>
      <use x="102.685546875" xlink:href="#BitstreamVeraSans-Roman-64"/>
      <use x="166.162109375" xlink:href="#BitstreamVeraSans-Roman-3a"/>
      <use x="199.853515625" xlink:href="#BitstreamVeraSans-Roman-20"/>
      <use x="231.640625" xlink:href="#BitstreamVeraSans-Roman-31"/>
      <use x="295.263671875" xlink:href="#BitstreamVeraSans-Roman-30"/>
      <use x="358.88671875" xlink:href="#BitstreamVeraSans-Roman-30"/>
      <use x="422.509765625" xlink:href="#BitstreamVeraSans-Roman-2e"/>
      <use x="454.296875" xlink:href="#BitstreamVeraSans-Roman-30"/>
     </g>
    </g>
    <g id="line2d_89">
     <path d="M 132.48 361.52325 
L 152.64 361.52325 
" style="fill:none;stroke:#581845;stroke-linecap:square;"/>
    </g>
    <g id="line2d_90"/>
    <g id="text_19">
     <!-- Std: 200.0 -->
     <g transform="translate(168.48 366.56325)scale(0.144 -0.144)">
      <use xlink:href="#BitstreamVeraSans-Roman-53"/>
      <use x="63.4765625" xlink:href="#BitstreamVeraSans-Roman-74"/>
      <use x="102.685546875" xlink:href="#BitstreamVeraSans-Roman-64"/>
      <use x="166.162109375" xlink:href="#BitstreamVeraSans-Roman-3a"/>
      <use x="199.853515625" xlink:href="#BitstreamVeraSans-Roman-20"/>
      <use x="231.640625" xlink:href="#BitstreamVeraSans-Roman-32"/>
      <use x="295.263671875" xlink:href="#BitstreamVeraSans-Roman-30"/>
      <use x="358.88671875" xlink:href="#BitstreamVeraSans-Roman-30"/>
      <use x="422.509765625" xlink:href="#BitstreamVeraSans-Roman-2e"/>
      <use x="454.296875" xlink:href="#BitstreamVeraSans-Roman-30"/>
     </g>
    </g>
    <g id="line2d_91">
     <path d="M 132.48 382.65975 
L 152.64 382.65975 
" style="fill:none;stroke:#26b7d8;stroke-linecap:square;"/>
    </g>
    <g id="line2d_92"/>
    <g id="text_20">
     <!-- Std: 300.0 -->
     <g transform="translate(168.48 387.69975)scale(0.144 -0.144)">
      <use xlink:href="#BitstreamVeraSans-Roman-53"/>
      <use x="63.4765625" xlink:href="#BitstreamVeraSans-Roman-74"/>
      <use x="102.685546875" xlink:href="#BitstreamVeraSans-Roman-64"/>
      <use x="166.162109375" xlink:href="#BitstreamVeraSans-Roman-3a"/>
      <use x="199.853515625" xlink:href="#BitstreamVeraSans-Roman-20"/>
      <use x="231.640625" xlink:href="#BitstreamVeraSans-Roman-33"/>
      <use x="295.263671875" xlink:href="#BitstreamVeraSans-Roman-30"/>
      <use x="358.88671875" xlink:href="#BitstreamVeraSans-Roman-30"/>
      <use x="422.509765625" xlink:href="#BitstreamVeraSans-Roman-2e"/>
      <use x="454.296875" xlink:href="#BitstreamVeraSans-Roman-30"/>
     </g>
    </g>
    <g id="line2d_93">
     <path d="M 132.48 403.79625 
L 152.64 403.79625 
" style="fill:none;stroke:#8414a4;stroke-linecap:square;"/>
    </g>
    <g id="line2d_94"/>
    <g id="text_21">
     <!-- Std: 400.0 -->
     <g transform="translate(168.48 408.83625)scale(0.144 -0.144)">
      <use xlink:href="#BitstreamVeraSans-Roman-53"/>
      <use x="63.4765625" xlink:href="#BitstreamVeraSans-Roman-74"/>
      <use x="102.685546875" xlink:href="#BitstreamVeraSans-Roman-64"/>
      <use x="166.162109375" xlink:href="#BitstreamVeraSans-Roman-3a"/>
      <use x="199.853515625" xlink:href="#BitstreamVeraSans-Roman-20"/>
      <use x="231.640625" xlink:href="#BitstreamVeraSans-Roman-34"/>
      <use x="295.263671875" xlink:href="#BitstreamVeraSans-Roman-30"/>
      <use x="358.88671875" xlink:href="#BitstreamVeraSans-Roman-30"/>
      <use x="422.509765625" xlink:href="#BitstreamVeraSans-Roman-2e"/>
      <use x="454.296875" xlink:href="#BitstreamVeraSans-Roman-30"/>
     </g>
    </g>
    <g id="line2d_95">
     <path d="M 132.48 424.93275 
L 152.64 424.93275 
" style="fill:none;stroke:#ffd23a;stroke-linecap:square;"/>
    </g>
    <g id="line2d_96"/>
    <g id="text_22">
     <!-- Std: 500.0 -->
     <g transform="translate(168.48 429.97275)scale(0.144 -0.144)">
      <use xlink:href="#BitstreamVeraSans-Roman-53"/>
      <use x="63.4765625" xlink:href="#BitstreamVeraSans-Roman-74"/>
      <use x="102.685546875" xlink:href="#BitstreamVeraSans-Roman-64"/>
      <use x="166.162109375" xlink:href="#BitstreamVeraSans-Roman-3a"/>
      <use x="199.853515625" xlink:href="#BitstreamVeraSans-Roman-20"/>
      <use x="231.640625" xlink:href="#BitstreamVeraSans-Roman-35"/>
      <use x="295.263671875" xlink:href="#BitstreamVeraSans-Roman-30"/>
      <use x="358.88671875" xlink:href="#BitstreamVeraSans-Roman-30"/>
      <use x="422.509765625" xlink:href="#BitstreamVeraSans-Roman-2e"/>
      <use x="454.296875" xlink:href="#BitstreamVeraSans-Roman-30"/>
     </g>
    </g>
    <g id="line2d_97">
     <path d="M 132.48 446.06925 
L 152.64 446.06925 
" style="fill:none;stroke:#ff9300;stroke-linecap:square;"/>
    </g>
    <g id="line2d_98"/>
    <g id="text_23">
     <!-- Std: 600.0 -->
     <g transform="translate(168.48 451.10925)scale(0.144 -0.144)">
      <use xlink:href="#BitstreamVeraSans-Roman-53"/>
      <use x="63.4765625" xlink:href="#BitstreamVeraSans-Roman-74"/>
      <use x="102.685546875" xlink:href="#BitstreamVeraSans-Roman-64"/>
      <use x="166.162109375" xlink:href="#BitstreamVeraSans-Roman-3a"/>
      <use x="199.853515625" xlink:href="#BitstreamVeraSans-Roman-20"/>
      <use x="231.640625" xlink:href="#BitstreamVeraSans-Roman-36"/>
      <use x="295.263671875" xlink:href="#BitstreamVeraSans-Roman-30"/>
      <use x="358.88671875" xlink:href="#BitstreamVeraSans-Roman-30"/>
      <use x="422.509765625" xlink:href="#BitstreamVeraSans-Roman-2e"/>
      <use x="454.296875" xlink:href="#BitstreamVeraSans-Roman-30"/>
     </g>
    </g>
    <g id="line2d_99">
     <path d="M 132.48 467.20575 
L 152.64 467.20575 
" style="fill:none;stroke:#f50fe6;stroke-linecap:square;"/>
    </g>
    <g id="line2d_100"/>
    <g id="text_24">
     <!-- Std: 700.0 -->
     <g transform="translate(168.48 472.24575)scale(0.144 -0.144)">
      <use xlink:href="#BitstreamVeraSans-Roman-53"/>
      <use x="63.4765625" xlink:href="#BitstreamVeraSans-Roman-74"/>
      <use x="102.685546875" xlink:href="#BitstreamVeraSans-Roman-64"/>
      <use x="166.162109375" xlink:href="#BitstreamVeraSans-Roman-3a"/>
      <use x="199.853515625" xlink:href="#BitstreamVeraSans-Roman-20"/>
      <use x="231.640625" xlink:href="#BitstreamVeraSans-Roman-37"/>
      <use x="295.263671875" xlink:href="#BitstreamVeraSans-Roman-30"/>
      <use x="358.88671875" xlink:href="#BitstreamVeraSans-Roman-30"/>
      <use x="422.509765625" xlink:href="#BitstreamVeraSans-Roman-2e"/>
      <use x="454.296875" xlink:href="#BitstreamVeraSans-Roman-30"/>
     </g>
    </g>
    <g id="line2d_101">
     <path d="M 132.48 488.34225 
L 152.64 488.34225 
" style="fill:none;stroke:#1000a0;stroke-linecap:square;"/>
    </g>
    <g id="line2d_102"/>
    <g id="text_25">
     <!-- Std: 800.0 -->
     <g transform="translate(168.48 493.38225)scale(0.144 -0.144)">
      <use xlink:href="#BitstreamVeraSans-Roman-53"/>
      <use x="63.4765625" xlink:href="#BitstreamVeraSans-Roman-74"/>
      <use x="102.685546875" xlink:href="#BitstreamVeraSans-Roman-64"/>
      <use x="166.162109375" xlink:href="#BitstreamVeraSans-Roman-3a"/>
      <use x="199.853515625" xlink:href="#BitstreamVeraSans-Roman-20"/>
      <use x="231.640625" xlink:href="#BitstreamVeraSans-Roman-38"/>
      <use x="295.263671875" xlink:href="#BitstreamVeraSans-Roman-30"/>
      <use x="358.88671875" xlink:href="#BitstreamVeraSans-Roman-30"/>
      <use x="422.509765625" xlink:href="#BitstreamVeraSans-Roman-2e"/>
      <use x="454.296875" xlink:href="#BitstreamVeraSans-Roman-30"/>
     </g>
    </g>
    <g id="line2d_103">
     <path d="M 132.48 509.47875 
L 152.64 509.47875 
" style="fill:none;stroke:#595866;stroke-linecap:square;"/>
    </g>
    <g id="line2d_104"/>
    <g id="text_26">
     <!-- Std: 900.0 -->
     <defs>
      <path d="M 10.984375 1.515625 
L 10.984375 10.5 
Q 14.703125 8.734375 18.5 7.8125 
Q 22.3125 6.890625 25.984375 6.890625 
Q 35.75 6.890625 40.890625 13.453125 
Q 46.046875 20.015625 46.78125 33.40625 
Q 43.953125 29.203125 39.59375 26.953125 
Q 35.25 24.703125 29.984375 24.703125 
Q 19.046875 24.703125 12.671875 31.3125 
Q 6.296875 37.9375 6.296875 49.421875 
Q 6.296875 60.640625 12.9375 67.421875 
Q 19.578125 74.21875 30.609375 74.21875 
Q 43.265625 74.21875 49.921875 64.515625 
Q 56.59375 54.828125 56.59375 36.375 
Q 56.59375 19.140625 48.40625 8.859375 
Q 40.234375 -1.421875 26.421875 -1.421875 
Q 22.703125 -1.421875 18.890625 -0.6875 
Q 15.09375 0.046875 10.984375 1.515625 
M 30.609375 32.421875 
Q 37.25 32.421875 41.125 36.953125 
Q 45.015625 41.5 45.015625 49.421875 
Q 45.015625 57.28125 41.125 61.84375 
Q 37.25 66.40625 30.609375 66.40625 
Q 23.96875 66.40625 20.09375 61.84375 
Q 16.21875 57.28125 16.21875 49.421875 
Q 16.21875 41.5 20.09375 36.953125 
Q 23.96875 32.421875 30.609375 32.421875 
" id="BitstreamVeraSans-Roman-39"/>
     </defs>
     <g transform="translate(168.48 514.51875)scale(0.144 -0.144)">
      <use xlink:href="#BitstreamVeraSans-Roman-53"/>
      <use x="63.4765625" xlink:href="#BitstreamVeraSans-Roman-74"/>
      <use x="102.685546875" xlink:href="#BitstreamVeraSans-Roman-64"/>
      <use x="166.162109375" xlink:href="#BitstreamVeraSans-Roman-3a"/>
      <use x="199.853515625" xlink:href="#BitstreamVeraSans-Roman-20"/>
      <use x="231.640625" xlink:href="#BitstreamVeraSans-Roman-39"/>
      <use x="295.263671875" xlink:href="#BitstreamVeraSans-Roman-30"/>
      <use x="358.88671875" xlink:href="#BitstreamVeraSans-Roman-30"/>
      <use x="422.509765625" xlink:href="#BitstreamVeraSans-Roman-2e"/>
      <use x="454.296875" xlink:href="#BitstreamVeraSans-Roman-30"/>
     </g>
    </g>
    <g id="line2d_105">
     <path d="M 132.48 530.61525 
L 152.64 530.61525 
" style="fill:none;stroke:#147f2a;stroke-linecap:square;"/>
    </g>
    <g id="line2d_106"/>
    <g id="text_27">
     <!-- Std: 1000.0 -->
     <g transform="translate(168.48 535.65525)scale(0.144 -0.144)">
      <use xlink:href="#BitstreamVeraSans-Roman-53"/>
      <use x="63.4765625" xlink:href="#BitstreamVeraSans-Roman-74"/>
      <use x="102.685546875" xlink:href="#BitstreamVeraSans-Roman-64"/>
      <use x="166.162109375" xlink:href="#BitstreamVeraSans-Roman-3a"/>
      <use x="199.853515625" xlink:href="#BitstreamVeraSans-Roman-20"/>
      <use x="231.640625" xlink:href="#BitstreamVeraSans-Roman-31"/>
      <use x="295.263671875" xlink:href="#BitstreamVeraSans-Roman-30"/>
      <use x="358.88671875" xlink:href="#BitstreamVeraSans-Roman-30"/>
      <use x="422.509765625" xlink:href="#BitstreamVeraSans-Roman-30"/>
      <use x="486.1328125" xlink:href="#BitstreamVeraSans-Roman-2e"/>
      <use x="517.919921875" xlink:href="#BitstreamVeraSans-Roman-30"/>
     </g>
    </g>
   </g>
  </g>
 </g>
 <defs>
  <clipPath id="p29a7e1b9e1">
   <rect height="490.32" width="714.24" x="115.2" y="61.29"/>
  </clipPath>
 </defs>
</svg>
