<?xml version="1.0" encoding="utf-8" standalone="no"?>
<!DOCTYPE svg PUBLIC "-//W3C//DTD SVG 1.1//EN"
  "http://www.w3.org/Graphics/SVG/1.1/DTD/svg11.dtd">
<!-- Created with matplotlib (http://matplotlib.org/) -->
<svg height="432pt" version="1.1" viewBox="0 0 576 432" width="576pt" xmlns="http://www.w3.org/2000/svg" xmlns:xlink="http://www.w3.org/1999/xlink">
 <defs>
  <style type="text/css">
*{stroke-linecap:butt;stroke-linejoin:round;stroke-miterlimit:100000;}
  </style>
 </defs>
 <g id="figure_1">
  <g id="patch_1">
   <path d="M 0 432 
L 576 432 
L 576 0 
L 0 0 
z
" style="fill:#ffffff;"/>
  </g>
  <g id="axes_1">
   <g id="patch_2">
    <path d="M 72 388.8 
L 518.4 388.8 
L 518.4 43.2 
L 72 43.2 
z
" style="fill:#ffffff;"/>
   </g>
   <g id="line2d_1">
    <path clip-path="url(#p2d8d3c0830)" d="M 72 73.190349 
L 82.696043 78.078908 
L 91.87059 71.418348 
L 99.903083 80.577115 
L 107.046633 78.339229 
L 113.478536 73.53174 
L 119.327824 80.541941 
L 124.691336 72.102213 
L 129.643606 77.6432 
L 134.243232 83.643154 
L 138.537115 88.677861 
L 142.56338 74.64321 
L 146.353438 78.996562 
L 149.933474 83.602452 
L 153.325548 88.642879 
L 156.548417 94.514618 
L 159.618161 71.098124 
L 165.352039 77.161872 
L 168.038834 80.249952 
L 170.618365 83.414534 
L 173.098871 86.70167 
L 175.487673 90.133826 
L 177.791312 93.776329 
L 180.015651 97.729004 
L 182.165968 102.145701 
L 184.247032 107.331821 
L 186.263165 114.139864 
L 188.218296 127.968605 
L 190.116009 84.378635 
L 191.95958 72.041155 
L 195.496068 75.7477 
L 200.462442 80.877017 
L 205.07423 85.980565 
L 209.37871 91.163675 
L 213.41429 96.467323 
L 220.8 107.768641 
L 231.496043 130.167342 
L 240.67059 163.343353 
L 248.703083 113.832943 
L 255.846633 151.23276 
L 262.278536 190.940549 
L 268.127824 99.721427 
L 273.491336 168.526677 
L 278.443606 236.859355 
L 283.043232 314.681401 
L 287.337115 192.220163 
L 291.36338 370.990941 
L 295.153438 161.859926 
L 298.733474 257.311427 
L 302.125548 335.878347 
L 305.348417 186.079547 
L 308.418161 260.621539 
L 311.348674 305.462898 
L 314.152039 243.279596 
L 316.838834 376.656119 
L 319.418365 170.983206 
L 321.898871 304.288153 
L 324.287673 332.793621 
L 326.591312 204.27396 
L 328.815651 326.961357 
L 330.965968 306.915614 
L 333.047032 249.043615 
L 335.063165 360.853509 
L 337.018296 171.303327 
L 338.916009 300.093907 
L 340.75958 349.850208 
L 342.552013 225.327771 
L 344.296068 301.55273 
L 345.994289 320.557017 
L 347.649023 236.801009 
L 349.262442 337.076832 
L 350.836558 160.338665 
L 352.373241 250.093469 
L 353.87423 356.742304 
L 355.341146 216.069661 
L 356.775501 252.209863 
L 358.17871 351.768261 
L 359.552096 223.101561 
L 360.896901 290.928381 
L 362.21429 318.273335 
L 369.6 211.803659 
L 380.296043 333.978929 
L 389.47059 210.286096 
L 397.503083 150.472096 
L 404.646633 190.00291 
L 411.078536 237.475449 
L 416.927824 323.939022 
L 422.291336 254.054713 
L 427.243606 337.682187 
L 431.843232 273.231841 
L 436.137115 170.648157 
L 440.16338 313.577266 
L 443.953438 280.823443 
L 447.533474 378.497178 
L 450.925548 290.947069 
L 454.148417 347.008846 
L 457.218161 302.284971 
L 460.148674 330.456851 
L 462.952039 314.8777 
L 465.638834 315.706989 
L 468.218365 328.078909 
L 470.698871 302.154667 
L 473.087673 344.531485 
L 475.391312 312.934114 
L 477.615651 363.963321 
L 479.765968 322.378111 
L 481.847032 374.529992 
L 483.863165 330.290551 
L 485.818296 345.426089 
L 487.716009 336.576056 
L 489.55958 290.452179 
L 491.352013 339.977044 
L 493.096068 310.77725 
L 494.794289 341.142107 
L 496.449023 318.758344 
L 498.062442 342.193361 
L 499.636558 321.20026 
L 501.173241 342.760689 
L 502.67423 321.139002 
L 504.141146 345.326464 
L 505.575501 322.95822 
L 506.97871 195.671173 
L 508.352096 325.857697 
L 509.696901 203.38478 
L 511.01429 331.47523 
L 512.305359 214.191901 
L 513.571139 337.565959 
L 514.812601 229.159367 
L 516.030663 345.178903 
L 517.226189 248.525575 
L 517.226189 248.525575 
" style="fill:none;stroke:#ff1e1e;stroke-linecap:square;"/>
   </g>
   <g id="line2d_2">
    <path clip-path="url(#p2d8d3c0830)" d="M 72 73.994922 
L 82.696043 74.926231 
L 91.87059 75.518321 
L 99.903083 76.346656 
L 107.046633 76.652715 
L 113.478536 76.659332 
L 119.327824 78.136025 
L 129.643606 78.974135 
L 134.243232 79.907076 
L 142.56338 80.769371 
L 146.353438 81.974984 
L 149.933474 82.287692 
L 153.325548 82.932514 
L 156.548417 82.943412 
L 159.618161 84.281381 
L 162.548674 84.589608 
L 165.352039 85.402389 
L 168.038834 85.190927 
L 173.098871 86.762057 
L 175.487673 87.751082 
L 177.791312 88.359205 
L 180.015651 88.452829 
L 182.165968 88.841202 
L 184.247032 89.808627 
L 186.263165 90.455149 
L 188.218296 91.23668 
L 190.116009 91.753203 
L 191.95958 91.643973 
L 193.752013 92.718739 
L 195.496068 91.983511 
L 197.194289 93.711764 
L 198.849023 93.498615 
L 200.462442 94.227112 
L 202.036558 94.488137 
L 203.573241 96.223134 
L 205.07423 95.559722 
L 206.541146 95.824708 
L 207.975501 96.772567 
L 209.37871 97.541961 
L 210.752096 98.114887 
L 212.096901 98.540515 
L 213.41429 99.207752 
L 220.8 104.353293 
L 248.703083 128.108559 
L 255.846633 134.060365 
L 262.278536 136.111663 
L 268.127824 140.958472 
L 283.043232 146.078048 
L 287.337115 146.439369 
L 291.36338 147.857758 
L 295.153438 147.110564 
L 298.733474 147.4499 
L 302.125548 146.965755 
L 305.348417 150.154373 
L 308.418161 150.037493 
L 311.348674 151.128281 
L 314.152039 153.335696 
L 316.838834 151.125062 
L 319.418365 152.096771 
L 321.898871 152.396094 
L 324.287673 150.581145 
L 326.591312 154.679841 
L 328.815651 156.461802 
L 330.965968 156.501569 
L 333.047032 155.415606 
L 335.063165 154.622431 
L 337.018296 151.194654 
L 338.916009 154.987162 
L 340.75958 155.889203 
L 342.552013 148.327991 
L 344.296068 157.10934 
L 345.994289 160.626211 
L 347.649023 157.905537 
L 349.262442 157.084116 
L 350.836558 158.349226 
L 352.373241 156.024861 
L 353.87423 160.911424 
L 355.341146 163.032068 
L 356.775501 153.187442 
L 358.17871 157.390778 
L 359.552096 158.311205 
L 360.896901 167.912093 
L 362.21429 158.772743 
L 369.6 161.955643 
L 380.296043 155.143131 
L 389.47059 179.173854 
L 397.503083 175.151565 
L 404.646633 195.802176 
L 411.078536 184.971085 
L 416.927824 184.525937 
L 422.291336 202.348017 
L 427.243606 194.038995 
L 431.843232 166.8442 
L 436.137115 214.935513 
L 440.16338 192.227247 
L 443.953438 217.948006 
L 447.533474 238.319723 
L 450.925548 221.657455 
L 454.148417 241.840851 
L 457.218161 233.006688 
L 460.148674 228.113378 
L 462.952039 269.544006 
L 465.638834 241.137388 
L 468.218365 292.180786 
L 470.698871 287.651445 
L 473.087673 266.508674 
L 475.391312 271.707787 
L 477.615651 294.032409 
L 479.765968 278.748714 
L 481.847032 288.626038 
L 483.863165 303.914228 
L 485.818296 328.141105 
L 487.716009 311.976389 
L 489.55958 320.606403 
L 491.352013 336.428847 
L 493.096068 306.300114 
L 494.794289 151.434019 
L 496.449023 359.858627 
L 498.062442 365.315965 
L 499.636558 320.826032 
L 501.173241 360.194672 
L 502.67423 375.347119 
L 504.141146 304.968291 
L 505.575501 341.539187 
L 506.97871 363.909362 
L 508.352096 350.156456 
L 509.696901 191.075026 
L 511.01429 358.715137 
L 512.305359 370.783893 
L 513.571139 370.758182 
L 514.812601 311.007949 
L 516.030663 312.877294 
L 517.226189 344.485663 
L 517.226189 344.485663 
" style="fill:none;stroke:#581845;stroke-linecap:square;"/>
   </g>
   <g id="line2d_3">
    <path clip-path="url(#p2d8d3c0830)" d="M 72 75.044427 
L 82.696043 74.621182 
L 91.87059 74.970299 
L 107.046633 76.410216 
L 113.478536 77.518515 
L 119.327824 77.486246 
L 124.691336 78.365896 
L 129.643606 78.817511 
L 134.243232 79.86433 
L 138.537115 79.348654 
L 142.56338 81.088085 
L 146.353438 82.091073 
L 149.933474 81.438779 
L 153.325548 81.798504 
L 156.548417 82.911957 
L 159.618161 83.276404 
L 162.548674 84.13396 
L 165.352039 83.927155 
L 168.038834 85.200446 
L 170.618365 86.616967 
L 173.098871 86.953547 
L 175.487673 86.792666 
L 177.791312 87.023877 
L 180.015651 88.53882 
L 182.165968 89.351642 
L 184.247032 89.475715 
L 186.263165 88.26282 
L 190.116009 89.560614 
L 191.95958 91.212262 
L 193.752013 89.434778 
L 195.496068 91.040974 
L 197.194289 92.266657 
L 198.849023 92.95504 
L 202.036558 92.766071 
L 203.573241 93.367643 
L 205.07423 92.626264 
L 206.541146 95.297849 
L 207.975501 94.377671 
L 209.37871 96.178062 
L 210.752096 95.632559 
L 212.096901 94.886122 
L 213.41429 97.183237 
L 220.8 99.758543 
L 231.496043 103.64212 
L 248.703083 111.83774 
L 255.846633 115.587773 
L 262.278536 119.420717 
L 268.127824 121.534214 
L 273.491336 122.353256 
L 278.443606 124.319695 
L 283.043232 125.302035 
L 287.337115 128.588375 
L 291.36338 136.337418 
L 295.153438 133.810649 
L 298.733474 139.279912 
L 302.125548 138.107253 
L 305.348417 137.299604 
L 308.418161 139.91499 
L 311.348674 138.709597 
L 314.152039 141.216766 
L 316.838834 141.488327 
L 319.418365 141.245206 
L 321.898871 141.440696 
L 324.287673 148.365375 
L 326.591312 142.05396 
L 328.815651 142.209376 
L 330.965968 143.098591 
L 333.047032 146.982001 
L 335.063165 146.025722 
L 337.018296 149.087367 
L 338.916009 145.024786 
L 340.75958 138.398232 
L 342.552013 145.752026 
L 344.296068 144.125117 
L 345.994289 151.855879 
L 347.649023 148.247392 
L 349.262442 149.267763 
L 350.836558 154.158209 
L 352.373241 143.400966 
L 353.87423 145.21168 
L 355.341146 149.56097 
L 356.775501 150.226349 
L 358.17871 149.178288 
L 359.552096 150.587292 
L 360.896901 144.790696 
L 362.21429 148.186823 
L 369.6 160.526794 
L 380.296043 160.704506 
L 397.503083 166.06698 
L 404.646633 169.960154 
L 411.078536 164.140821 
L 416.927824 180.236792 
L 422.291336 209.132556 
L 427.243606 202.554787 
L 431.843232 192.060526 
L 436.137115 204.878743 
L 440.16338 204.444282 
L 443.953438 233.010936 
L 447.533474 232.994394 
L 450.925548 227.717917 
L 454.148417 225.026694 
L 457.218161 255.23373 
L 460.148674 240.003343 
L 462.952039 237.001945 
L 465.638834 251.613241 
L 468.218365 255.461687 
L 470.698871 252.092364 
L 473.087673 257.728816 
L 475.391312 281.119656 
L 477.615651 291.655286 
L 479.765968 314.573501 
L 481.847032 303.713569 
L 483.863165 268.00457 
L 485.818296 340.158512 
L 487.716009 283.832991 
L 489.55958 373.65092 
L 491.352013 368.910397 
L 493.096068 347.886104 
L 494.794289 342.921145 
L 496.449023 356.347838 
L 498.062442 350.390362 
L 499.636558 331.125704 
L 501.173241 370.899548 
L 502.67423 338.707011 
L 504.141146 355.581529 
L 505.575501 327.105305 
L 506.97871 359.672402 
L 508.352096 342.323172 
L 509.696901 366.147225 
L 511.01429 332.770065 
L 512.305359 369.720565 
L 513.571139 378.339737 
L 514.812601 154.692518 
L 516.030663 156.118333 
L 517.226189 318.069142 
L 517.226189 318.069142 
" style="fill:none;stroke:#26b7d8;stroke-linecap:square;"/>
   </g>
   <g id="line2d_4">
    <path clip-path="url(#p2d8d3c0830)" d="M 72 75.21578 
L 82.696043 76.679023 
L 91.87059 76.126142 
L 99.903083 76.69262 
L 107.046633 75.614974 
L 113.478536 76.119771 
L 119.327824 78.144073 
L 124.691336 78.96671 
L 129.643606 78.969303 
L 134.243232 80.276218 
L 138.537115 81.305173 
L 142.56338 79.489522 
L 146.353438 83.170106 
L 149.933474 82.848258 
L 153.325548 80.708364 
L 156.548417 83.445213 
L 159.618161 84.306421 
L 162.548674 83.977459 
L 165.352039 84.672857 
L 168.038834 82.751741 
L 170.618365 84.397602 
L 173.098871 87.857616 
L 175.487673 85.771786 
L 177.791312 87.477693 
L 180.015651 84.792257 
L 182.165968 88.613704 
L 184.247032 87.743721 
L 186.263165 87.47836 
L 188.218296 89.989153 
L 190.116009 90.07392 
L 191.95958 87.650453 
L 193.752013 89.362911 
L 195.496068 90.457186 
L 197.194289 89.872895 
L 198.849023 91.042704 
L 200.462442 91.052947 
L 202.036558 90.894089 
L 203.573241 92.588089 
L 205.07423 91.896976 
L 206.541146 91.619726 
L 207.975501 91.087033 
L 209.37871 93.209656 
L 210.752096 93.032373 
L 212.096901 93.422996 
L 213.41429 95.235822 
L 220.8 96.115049 
L 231.496043 97.118224 
L 240.67059 100.975357 
L 248.703083 102.353591 
L 255.846633 106.192725 
L 262.278536 105.958041 
L 268.127824 109.385039 
L 273.491336 112.957925 
L 278.443606 114.781618 
L 283.043232 116.764289 
L 287.337115 116.096361 
L 291.36338 119.354546 
L 295.153438 119.31086 
L 298.733474 120.783972 
L 302.125548 126.775074 
L 305.348417 128.521296 
L 308.418161 128.38462 
L 311.348674 133.971825 
L 314.152039 134.85904 
L 316.838834 132.134988 
L 319.418365 134.645577 
L 321.898871 134.368376 
L 324.287673 137.982796 
L 326.591312 143.766806 
L 328.815651 138.615343 
L 330.965968 141.143586 
L 333.047032 139.059344 
L 335.063165 137.907414 
L 337.018296 145.040431 
L 338.916009 133.805288 
L 340.75958 140.250287 
L 342.552013 139.21345 
L 344.296068 140.876312 
L 345.994289 142.266211 
L 347.649023 144.35249 
L 349.262442 144.944289 
L 350.836558 147.569808 
L 352.373241 138.392274 
L 353.87423 144.694398 
L 355.341146 141.672351 
L 356.775501 145.387915 
L 358.17871 142.182186 
L 359.552096 148.382529 
L 360.896901 142.378163 
L 362.21429 148.144093 
L 369.6 145.223535 
L 380.296043 154.30706 
L 389.47059 175.358603 
L 397.503083 164.291194 
L 404.646633 172.199811 
L 411.078536 174.936993 
L 416.927824 177.259313 
L 422.291336 173.531678 
L 427.243606 177.53679 
L 431.843232 195.094049 
L 436.137115 201.795553 
L 440.16338 209.675449 
L 443.953438 224.963339 
L 447.533474 227.659224 
L 450.925548 206.162867 
L 454.148417 204.333155 
L 457.218161 230.222283 
L 460.148674 241.194481 
L 462.952039 263.132744 
L 465.638834 227.686604 
L 468.218365 226.235771 
L 470.698871 288.582608 
L 473.087673 309.693987 
L 475.391312 271.450817 
L 477.615651 271.336198 
L 479.765968 319.120229 
L 481.847032 285.654159 
L 483.863165 263.25915 
L 485.818296 324.470275 
L 487.716009 301.914315 
L 489.55958 360.481063 
L 491.352013 334.836164 
L 493.096068 331.513745 
L 494.794289 347.721774 
L 496.449023 333.707516 
L 498.062442 344.120267 
L 499.636558 366.017104 
L 501.173241 376.472778 
L 502.67423 325.002882 
L 505.575501 379.312419 
L 506.97871 379.463682 
L 508.352096 364.648195 
L 509.696901 372.124262 
L 511.01429 353.836671 
L 512.305359 304.522124 
L 513.571139 347.977433 
L 514.812601 322.62739 
L 516.030663 317.744283 
L 517.226189 350.355204 
L 517.226189 350.355204 
" style="fill:none;stroke:#8414a4;stroke-linecap:square;"/>
   </g>
   <g id="line2d_5">
    <path clip-path="url(#p2d8d3c0830)" d="M 72 73.916667 
L 82.696043 77.026275 
L 91.87059 72.967796 
L 99.903083 74.293722 
L 107.046633 79.594184 
L 113.478536 78.32552 
L 119.327824 78.899886 
L 124.691336 78.08478 
L 129.643606 80.589582 
L 134.243232 80.737995 
L 138.537115 77.740871 
L 142.56338 80.628588 
L 146.353438 80.496563 
L 153.325548 83.590263 
L 156.548417 81.459862 
L 159.618161 82.589214 
L 162.548674 85.449402 
L 165.352039 84.290098 
L 168.038834 83.829761 
L 170.618365 82.29059 
L 173.098871 84.709853 
L 175.487673 84.532031 
L 177.791312 87.340878 
L 180.015651 86.79398 
L 182.165968 88.584318 
L 184.247032 87.69582 
L 186.263165 88.99834 
L 188.218296 89.080824 
L 190.116009 89.518347 
L 191.95958 87.189234 
L 193.752013 89.763614 
L 195.496068 86.878563 
L 197.194289 90.631198 
L 198.849023 91.173832 
L 200.462442 92.349082 
L 202.036558 95.728866 
L 203.573241 90.712201 
L 205.07423 92.163485 
L 206.541146 91.162641 
L 207.975501 92.124786 
L 209.37871 94.169846 
L 210.752096 95.252115 
L 212.096901 92.638295 
L 213.41429 93.305651 
L 220.8 94.927164 
L 231.496043 97.881754 
L 240.67059 98.338124 
L 248.703083 102.038555 
L 255.846633 104.336124 
L 262.278536 106.20653 
L 268.127824 104.885631 
L 273.491336 102.075747 
L 278.443606 112.571648 
L 283.043232 107.431648 
L 287.337115 112.397958 
L 291.36338 110.492819 
L 295.153438 117.392212 
L 298.733474 117.794922 
L 302.125548 115.154043 
L 305.348417 116.754979 
L 308.418161 119.047333 
L 311.348674 120.234372 
L 314.152039 119.052228 
L 316.838834 126.198699 
L 319.418365 124.598128 
L 321.898871 126.130206 
L 324.287673 125.650105 
L 326.591312 124.190533 
L 328.815651 130.235137 
L 330.965968 135.049506 
L 333.047032 131.68853 
L 335.063165 134.012155 
L 338.916009 142.965307 
L 340.75958 137.701896 
L 342.552013 138.40135 
L 344.296068 135.351248 
L 345.994289 136.161798 
L 347.649023 139.484892 
L 350.836558 134.110023 
L 352.373241 136.728082 
L 353.87423 141.772942 
L 355.341146 138.635107 
L 356.775501 147.414829 
L 358.17871 147.976862 
L 359.552096 144.521737 
L 360.896901 145.980071 
L 362.21429 144.064437 
L 369.6 143.266124 
L 380.296043 144.826393 
L 389.47059 144.012403 
L 397.503083 160.713356 
L 404.646633 160.372373 
L 411.078536 180.59534 
L 416.927824 181.270048 
L 422.291336 172.697082 
L 427.243606 195.450072 
L 431.843232 172.885009 
L 436.137115 196.386975 
L 440.16338 227.964707 
L 443.953438 215.106673 
L 447.533474 200.994903 
L 450.925548 198.680918 
L 454.148417 237.00146 
L 457.218161 243.834159 
L 460.148674 231.284498 
L 462.952039 235.624316 
L 465.638834 241.567941 
L 468.218365 251.213582 
L 470.698871 273.584749 
L 473.087673 265.394513 
L 475.391312 279.160636 
L 477.615651 316.915121 
L 479.765968 267.967827 
L 481.847032 310.367206 
L 483.863165 275.575912 
L 485.818296 283.906605 
L 487.716009 324.798189 
L 489.55958 283.319942 
L 491.352013 352.893552 
L 493.096068 347.565634 
L 494.794289 266.92207 
L 496.449023 373.933668 
L 498.062442 343.433546 
L 499.636558 331.051229 
L 501.173241 352.555077 
L 502.67423 335.012634 
L 504.141146 360.641578 
L 505.575501 349.821448 
L 506.97871 373.899117 
L 508.352096 376.283193 
L 509.696901 366.057317 
L 511.01429 310.054384 
L 512.305359 315.115535 
L 513.571139 342.630405 
L 514.812601 375.60347 
L 516.030663 348.415004 
L 517.226189 152.36633 
L 517.226189 152.36633 
" style="fill:none;stroke:#ffd23a;stroke-linecap:square;"/>
   </g>
   <g id="line2d_6">
    <path clip-path="url(#p2d8d3c0830)" d="M 72 78.621787 
L 82.696043 75.077948 
L 91.87059 78.609145 
L 99.903083 75.322302 
L 107.046633 73.576342 
L 113.478536 76.174403 
L 119.327824 77.291427 
L 124.691336 75.293867 
L 129.643606 81.537924 
L 134.243232 80.243322 
L 138.537115 81.772094 
L 142.56338 79.482495 
L 146.353438 80.81163 
L 149.933474 81.285097 
L 153.325548 83.244429 
L 156.548417 81.216129 
L 159.618161 82.118091 
L 162.548674 82.374957 
L 165.352039 83.886319 
L 168.038834 86.4493 
L 170.618365 85.32 
L 173.098871 84.66668 
L 175.487673 87.783865 
L 177.791312 84.422328 
L 180.015651 85.747144 
L 182.165968 86.18516 
L 184.247032 86.868437 
L 186.263165 88.314019 
L 188.218296 86.990813 
L 193.752013 90.392018 
L 195.496068 86.41981 
L 197.194289 88.55958 
L 198.849023 91.661147 
L 200.462442 91.313456 
L 202.036558 92.051981 
L 203.573241 91.871538 
L 205.07423 91.31436 
L 206.541146 91.703349 
L 207.975501 90.485712 
L 209.37871 91.573268 
L 210.752096 95.862908 
L 213.41429 89.438412 
L 220.8 89.083747 
L 231.496043 94.615414 
L 240.67059 93.635314 
L 248.703083 99.523732 
L 255.846633 99.647818 
L 262.278536 103.263672 
L 268.127824 99.966682 
L 273.491336 99.656824 
L 278.443606 104.556875 
L 283.043232 107.307905 
L 287.337115 104.916928 
L 291.36338 110.713514 
L 295.153438 108.964622 
L 298.733474 108.518563 
L 302.125548 112.910402 
L 305.348417 109.735631 
L 308.418161 114.086701 
L 311.348674 117.271116 
L 314.152039 112.305319 
L 316.838834 117.287621 
L 319.418365 113.400407 
L 321.898871 126.301008 
L 324.287673 119.933354 
L 326.591312 131.221882 
L 328.815651 122.256588 
L 330.965968 125.942816 
L 333.047032 123.80501 
L 335.063165 127.38637 
L 337.018296 133.636862 
L 338.916009 129.139473 
L 340.75958 129.834069 
L 342.552013 131.768898 
L 344.296068 130.212032 
L 345.994289 138.1116 
L 347.649023 133.690138 
L 349.262442 146.262251 
L 350.836558 137.307152 
L 352.373241 141.193445 
L 353.87423 128.039702 
L 355.341146 143.848296 
L 356.775501 136.938551 
L 358.17871 138.149296 
L 359.552096 135.681012 
L 360.896901 136.356373 
L 362.21429 149.677768 
L 369.6 144.655215 
L 380.296043 154.581984 
L 389.47059 153.211156 
L 397.503083 156.386855 
L 404.646633 148.879886 
L 411.078536 165.493976 
L 416.927824 193.201258 
L 422.291336 171.407413 
L 427.243606 174.761945 
L 431.843232 198.579699 
L 436.137115 178.509118 
L 440.16338 176.225914 
L 443.953438 195.537573 
L 447.533474 208.980957 
L 450.925548 214.761293 
L 454.148417 228.338155 
L 457.218161 214.075398 
L 460.148674 247.719246 
L 462.952039 246.300018 
L 465.638834 265.379561 
L 468.218365 244.224088 
L 470.698871 283.72891 
L 473.087673 299.110425 
L 475.391312 287.491911 
L 477.615651 297.968023 
L 479.765968 297.026326 
L 481.847032 299.644556 
L 483.863165 288.237649 
L 485.818296 313.08427 
L 487.716009 291.402391 
L 489.55958 323.404899 
L 491.352013 299.066969 
L 493.096068 319.897994 
L 494.794289 342.160448 
L 496.449023 162.446465 
L 498.062442 368.991809 
L 499.636558 336.523811 
L 501.173241 358.646832 
L 502.67423 361.195752 
L 504.141146 344.245879 
L 505.575501 350.304656 
L 506.97871 352.187603 
L 508.352096 371.336697 
L 509.696901 359.378446 
L 511.01429 343.089476 
L 512.305359 314.629723 
L 513.571139 204.418477 
L 514.812601 337.248475 
L 516.030663 350.9481 
L 517.226189 322.512218 
L 517.226189 322.512218 
" style="fill:none;stroke:#ff9300;stroke-linecap:square;"/>
   </g>
   <g id="line2d_7">
    <path clip-path="url(#p2d8d3c0830)" d="M 72 75.786489 
L 82.696043 72.089105 
L 91.87059 75.003691 
L 107.046633 78.269203 
L 113.478536 76.937103 
L 119.327824 74.890898 
L 124.691336 80.719919 
L 129.643606 78.34671 
L 134.243232 76.919674 
L 138.537115 81.715262 
L 142.56338 82.059247 
L 146.353438 81.852429 
L 149.933474 79.216415 
L 153.325548 81.639612 
L 156.548417 83.105208 
L 159.618161 86.683888 
L 162.548674 83.990952 
L 165.352039 87.28886 
L 168.038834 85.73453 
L 170.618365 88.263551 
L 173.098871 90.463515 
L 175.487673 84.552501 
L 177.791312 87.393527 
L 180.015651 83.942532 
L 182.165968 86.575286 
L 184.247032 84.114308 
L 186.263165 84.56671 
L 188.218296 87.279007 
L 190.116009 90.662832 
L 191.95958 86.923156 
L 193.752013 88.053926 
L 195.496068 88.125394 
L 197.194289 91.840534 
L 198.849023 87.60957 
L 200.462442 91.460338 
L 202.036558 88.788599 
L 203.573241 94.05039 
L 205.07423 90.184332 
L 206.541146 91.946197 
L 207.975501 89.640138 
L 209.37871 93.340078 
L 210.752096 87.771955 
L 212.096901 94.818562 
L 213.41429 93.89722 
L 220.8 93.953415 
L 231.496043 98.930056 
L 240.67059 97.392076 
L 248.703083 95.077139 
L 255.846633 97.828709 
L 262.278536 102.141651 
L 268.127824 99.986838 
L 273.491336 99.327717 
L 278.443606 103.766882 
L 283.043232 100.136062 
L 287.337115 104.292861 
L 291.36338 100.141357 
L 295.153438 103.844202 
L 298.733474 103.12162 
L 302.125548 101.841014 
L 305.348417 111.258089 
L 308.418161 109.406217 
L 311.348674 110.570482 
L 314.152039 110.153705 
L 316.838834 110.989109 
L 319.418365 105.251963 
L 321.898871 115.688269 
L 324.287673 115.357338 
L 326.591312 125.854112 
L 328.815651 123.394402 
L 330.965968 123.18802 
L 333.047032 123.57626 
L 335.063165 130.906066 
L 337.018296 122.247115 
L 338.916009 133.763075 
L 340.75958 123.889651 
L 342.552013 119.874409 
L 344.296068 127.909791 
L 345.994289 132.585871 
L 347.649023 122.372533 
L 349.262442 140.010306 
L 350.836558 141.071632 
L 352.373241 135.451105 
L 353.87423 135.42982 
L 355.341146 135.96013 
L 356.775501 135.400357 
L 358.17871 129.829917 
L 359.552096 134.087204 
L 360.896901 139.860689 
L 362.21429 142.219927 
L 369.6 149.400292 
L 380.296043 147.954799 
L 389.47059 149.738287 
L 397.503083 162.316247 
L 404.646633 163.791986 
L 411.078536 159.356502 
L 416.927824 180.767071 
L 422.291336 184.395289 
L 427.243606 189.435718 
L 431.843232 197.12484 
L 436.137115 198.995476 
L 440.16338 210.338534 
L 443.953438 201.14736 
L 447.533474 218.132012 
L 450.925548 247.162258 
L 454.148417 160.149736 
L 457.218161 217.979598 
L 460.148674 194.764516 
L 462.952039 242.371219 
L 465.638834 241.448056 
L 468.218365 272.240211 
L 470.698871 256.059777 
L 473.087673 275.556927 
L 475.391312 263.632088 
L 477.615651 277.977073 
L 479.765968 295.819757 
L 481.847032 260.08782 
L 483.863165 293.219713 
L 485.818296 288.893225 
L 487.716009 310.612776 
L 489.55958 298.710345 
L 491.352013 348.526915 
L 493.096068 299.59569 
L 494.794289 331.106841 
L 496.449023 328.196272 
L 498.062442 346.445547 
L 499.636558 316.493214 
L 501.173241 376.00974 
L 502.67423 354.151989 
L 504.141146 341.728239 
L 505.575501 264.649665 
L 506.97871 372.289985 
L 508.352096 366.099747 
L 509.696901 353.944089 
L 511.01429 358.897581 
L 512.305359 291.087021 
L 513.571139 344.476126 
L 514.812601 374.196223 
L 516.030663 241.458619 
L 517.226189 313.402551 
L 517.226189 313.402551 
" style="fill:none;stroke:#f50fe6;stroke-linecap:square;"/>
   </g>
   <g id="line2d_8">
    <path clip-path="url(#p2d8d3c0830)" d="M 72 79.471061 
L 82.696043 75.332461 
L 91.87059 75.064973 
L 99.903083 73.944965 
L 107.046633 78.408189 
L 113.478536 76.601902 
L 124.691336 76.129402 
L 129.643606 78.541691 
L 134.243232 79.849449 
L 138.537115 80.578646 
L 142.56338 85.437351 
L 146.353438 78.86258 
L 149.933474 78.443062 
L 153.325548 79.166263 
L 156.548417 83.198383 
L 159.618161 80.134811 
L 162.548674 82.247618 
L 165.352039 83.907656 
L 168.038834 83.956452 
L 170.618365 85.192974 
L 173.098871 80.734652 
L 175.487673 84.720112 
L 177.791312 93.068986 
L 180.015651 85.380984 
L 182.165968 85.829879 
L 184.247032 82.178398 
L 186.263165 87.708352 
L 188.218296 87.430148 
L 190.116009 86.390989 
L 191.95958 86.19783 
L 193.752013 88.336914 
L 195.496068 86.629937 
L 197.194289 92.699177 
L 198.849023 88.624558 
L 200.462442 89.862029 
L 202.036558 90.4192 
L 203.573241 84.782017 
L 205.07423 91.595667 
L 206.541146 91.056704 
L 207.975501 89.381484 
L 209.37871 95.093394 
L 210.752096 92.078834 
L 212.096901 87.127018 
L 213.41429 90.662087 
L 220.8 96.760988 
L 231.496043 97.793235 
L 240.67059 100.333048 
L 248.703083 98.585798 
L 255.846633 98.107673 
L 262.278536 95.889637 
L 268.127824 99.112344 
L 273.491336 97.593245 
L 278.443606 96.824159 
L 283.043232 102.455958 
L 287.337115 104.310009 
L 291.36338 100.2037 
L 295.153438 102.662934 
L 298.733474 106.314668 
L 302.125548 108.73144 
L 305.348417 105.998529 
L 308.418161 104.729313 
L 311.348674 105.172145 
L 314.152039 102.278053 
L 316.838834 111.725144 
L 319.418365 103.133372 
L 321.898871 107.783591 
L 324.287673 117.201288 
L 326.591312 112.380919 
L 328.815651 112.936082 
L 330.965968 118.514862 
L 333.047032 115.728724 
L 335.063165 123.277602 
L 337.018296 121.444102 
L 338.916009 126.541532 
L 340.75958 123.892844 
L 342.552013 130.509649 
L 344.296068 121.144745 
L 345.994289 129.260851 
L 347.649023 135.962884 
L 349.262442 129.538736 
L 350.836558 132.825373 
L 352.373241 133.62014 
L 353.87423 130.343816 
L 355.341146 134.998172 
L 356.775501 141.895997 
L 358.17871 132.417736 
L 359.552096 134.152687 
L 360.896901 137.419587 
L 362.21429 145.878441 
L 369.6 138.131959 
L 380.296043 133.523318 
L 389.47059 144.998832 
L 397.503083 144.822629 
L 404.646633 179.804118 
L 411.078536 166.084856 
L 416.927824 169.08938 
L 422.291336 148.284684 
L 427.243606 199.986096 
L 431.843232 150.865157 
L 436.137115 187.20912 
L 440.16338 192.285508 
L 443.953438 207.373482 
L 447.533474 192.753689 
L 450.925548 203.342515 
L 454.148417 226.108646 
L 457.218161 215.973832 
L 460.148674 224.950823 
L 462.952039 220.770141 
L 465.638834 231.937575 
L 468.218365 217.97718 
L 470.698871 219.475228 
L 473.087673 256.564939 
L 475.391312 172.325576 
L 477.615651 241.981758 
L 479.765968 324.734835 
L 481.847032 195.730285 
L 483.863165 294.710655 
L 485.818296 256.06964 
L 487.716009 319.771619 
L 489.55958 314.652532 
L 491.352013 298.314566 
L 493.096068 310.632237 
L 494.794289 372.815105 
L 496.449023 290.304647 
L 498.062442 338.431025 
L 499.636558 353.152987 
L 501.173241 349.107788 
L 502.67423 358.14 
L 504.141146 352.189303 
L 505.575501 364.625408 
L 506.97871 367.337359 
L 508.352096 348.624259 
L 509.696901 218.735309 
L 511.01429 313.939558 
L 513.571139 364.55673 
L 514.812601 333.757372 
L 516.030663 330.370028 
L 517.226189 363.445999 
L 517.226189 363.445999 
" style="fill:none;stroke:#1000a0;stroke-linecap:square;"/>
   </g>
   <g id="line2d_9">
    <path clip-path="url(#p2d8d3c0830)" d="M 72 72.47414 
L 82.696043 77.186323 
L 91.87059 79.867357 
L 99.903083 76.195916 
L 107.046633 81.665066 
L 113.478536 77.202465 
L 119.327824 74.8761 
L 124.691336 78.21341 
L 129.643606 82.134695 
L 134.243232 79.781852 
L 138.537115 81.299391 
L 142.56338 80.863462 
L 149.933474 78.856551 
L 153.325548 81.883997 
L 156.548417 87.054051 
L 159.618161 88.96144 
L 162.548674 81.879367 
L 165.352039 83.634085 
L 168.038834 84.711311 
L 170.618365 79.238899 
L 173.098871 81.992347 
L 177.791312 88.839534 
L 180.015651 85.044021 
L 182.165968 89.331221 
L 184.247032 89.786858 
L 186.263165 87.054156 
L 188.218296 89.855906 
L 190.116009 82.739286 
L 191.95958 90.059996 
L 193.752013 90.619562 
L 195.496068 89.611552 
L 197.194289 89.98857 
L 198.849023 86.631139 
L 200.462442 86.512894 
L 202.036558 87.473058 
L 205.07423 95.203945 
L 206.541146 91.173432 
L 207.975501 92.909027 
L 210.752096 89.651627 
L 212.096901 90.814359 
L 213.41429 90.446841 
L 220.8 97.825605 
L 231.496043 90.948084 
L 240.67059 95.924254 
L 248.703083 95.755796 
L 255.846633 98.523184 
L 262.278536 101.65059 
L 268.127824 95.833844 
L 273.491336 103.107759 
L 278.443606 99.38698 
L 283.043232 101.033906 
L 287.337115 102.810333 
L 291.36338 101.733507 
L 295.153438 100.10186 
L 298.733474 97.574607 
L 302.125548 100.812252 
L 305.348417 109.116356 
L 308.418161 101.234158 
L 311.348674 99.523109 
L 314.152039 107.849957 
L 316.838834 96.962267 
L 319.418365 113.27773 
L 321.898871 103.48053 
L 324.287673 110.749664 
L 326.591312 112.603109 
L 328.815651 107.547635 
L 330.965968 117.085027 
L 333.047032 118.455178 
L 335.063165 114.947789 
L 337.018296 115.605569 
L 338.916009 121.006328 
L 340.75958 123.033189 
L 342.552013 123.21034 
L 344.296068 118.031847 
L 345.994289 126.936931 
L 347.649023 119.520683 
L 349.262442 130.699171 
L 350.836558 126.619961 
L 352.373241 134.218322 
L 353.87423 134.957018 
L 355.341146 121.416845 
L 356.775501 135.63064 
L 358.17871 147.436466 
L 359.552096 131.084731 
L 360.896901 127.311454 
L 362.21429 124.230504 
L 369.6 132.592198 
L 380.296043 141.275455 
L 389.47059 154.873775 
L 397.503083 143.649287 
L 404.646633 175.513808 
L 411.078536 149.46638 
L 416.927824 164.346096 
L 422.291336 169.025875 
L 427.243606 176.903213 
L 431.843232 179.522616 
L 436.137115 187.701293 
L 440.16338 200.169662 
L 443.953438 202.285298 
L 447.533474 183.915418 
L 450.925548 211.69561 
L 454.148417 214.738441 
L 457.218161 224.286779 
L 460.148674 223.934692 
L 462.952039 205.39077 
L 465.638834 231.282358 
L 468.218365 229.726717 
L 470.698871 234.102974 
L 473.087673 223.020496 
L 475.391312 270.546617 
L 477.615651 216.88192 
L 479.765968 342.694804 
L 481.847032 211.402052 
L 483.863165 217.44699 
L 485.818296 291.93025 
L 487.716009 264.878581 
L 489.55958 314.985524 
L 491.352013 327.848356 
L 493.096068 370.030553 
L 494.794289 319.598984 
L 496.449023 343.081767 
L 498.062442 339.456667 
L 499.636558 349.882416 
L 501.173241 306.946268 
L 502.67423 297.186608 
L 504.141146 368.600404 
L 505.575501 369.46118 
L 506.97871 372.060332 
L 508.352096 337.531495 
L 509.696901 352.962299 
L 511.01429 350.031855 
L 512.305359 343.759645 
L 513.571139 381.129827 
L 514.812601 358.948339 
L 516.030663 332.807455 
L 517.226189 376.924568 
L 517.226189 376.924568 
" style="fill:none;stroke:#595866;stroke-linecap:square;"/>
   </g>
   <g id="line2d_10">
    <path clip-path="url(#p2d8d3c0830)" d="M 72 76.533256 
L 82.696043 69.510892 
L 91.87059 83.206638 
L 99.903083 79.777535 
L 107.046633 72.852624 
L 113.478536 74.343174 
L 119.327824 78.12485 
L 124.691336 77.786545 
L 129.643606 80.431359 
L 134.243232 82.32634 
L 138.537115 80.705706 
L 142.56338 76.502149 
L 146.353438 81.941519 
L 149.933474 87.750431 
L 153.325548 86.16021 
L 156.548417 83.860156 
L 159.618161 87.623551 
L 162.548674 74.473211 
L 165.352039 84.576072 
L 168.038834 90.761733 
L 170.618365 82.839611 
L 173.098871 85.479125 
L 175.487673 82.990701 
L 177.791312 91.749376 
L 180.015651 92.493682 
L 182.165968 84.946247 
L 184.247032 88.461811 
L 186.263165 82.591538 
L 188.218296 84.614425 
L 190.116009 92.31816 
L 191.95958 85.320507 
L 193.752013 86.24794 
L 195.496068 83.054262 
L 197.194289 85.826578 
L 198.849023 93.602578 
L 200.462442 90.539801 
L 202.036558 92.909707 
L 203.573241 93.553318 
L 205.07423 95.283635 
L 206.541146 87.977858 
L 207.975501 91.563781 
L 209.37871 88.867936 
L 210.752096 91.976508 
L 212.096901 92.469784 
L 213.41429 95.513152 
L 220.8 95.02316 
L 231.496043 95.827164 
L 240.67059 92.94204 
L 248.703083 95.174497 
L 255.846633 98.48313 
L 262.278536 95.941261 
L 268.127824 104.070266 
L 273.491336 101.602639 
L 278.443606 101.706162 
L 283.043232 100.421879 
L 287.337115 101.28739 
L 291.36338 93.762049 
L 295.153438 92.109102 
L 298.733474 102.067233 
L 302.125548 106.989129 
L 305.348417 99.346707 
L 308.418161 105.334746 
L 311.348674 98.382984 
L 314.152039 103.444864 
L 316.838834 102.973429 
L 319.418365 104.243246 
L 321.898871 97.285909 
L 324.287673 108.916471 
L 326.591312 108.229207 
L 328.815651 113.701825 
L 330.965968 113.028336 
L 333.047032 110.311546 
L 337.018296 108.482528 
L 338.916009 104.73641 
L 340.75958 119.163653 
L 342.552013 116.243715 
L 344.296068 112.706318 
L 345.994289 116.248958 
L 347.649023 114.175936 
L 349.262442 117.924958 
L 350.836558 116.624765 
L 352.373241 108.41576 
L 353.87423 124.006945 
L 355.341146 127.699418 
L 356.775501 120.662267 
L 358.17871 133.736202 
L 359.552096 132.039094 
L 360.896901 124.91534 
L 362.21429 134.344909 
L 369.6 142.932589 
L 380.296043 147.22187 
L 389.47059 133.940334 
L 397.503083 147.504056 
L 404.646633 157.716206 
L 411.078536 148.999959 
L 416.927824 171.607229 
L 422.291336 155.276852 
L 427.243606 160.660224 
L 431.843232 187.112601 
L 436.137115 201.974694 
L 440.16338 187.204298 
L 443.953438 186.075042 
L 447.533474 177.638612 
L 450.925548 231.595483 
L 454.148417 205.018318 
L 457.218161 241.412919 
L 460.148674 186.0201 
L 462.952039 373.878732 
L 465.638834 249.466168 
L 468.218365 218.058576 
L 470.698871 246.990061 
L 473.087673 290.739653 
L 475.391312 339.431555 
L 477.615651 268.134349 
L 479.765968 268.601559 
L 481.847032 270.731683 
L 483.863165 268.115572 
L 485.818296 292.574688 
L 487.716009 328.789097 
L 489.55958 304.220634 
L 491.352013 302.684069 
L 493.096068 322.321491 
L 494.794289 316.427188 
L 496.449023 259.956382 
L 498.062442 354.676413 
L 499.636558 336.758321 
L 501.173241 340.298149 
L 502.67423 373.872541 
L 504.141146 357.953369 
L 505.575501 312.17732 
L 506.97871 344.844214 
L 508.352096 380.703039 
L 509.696901 363.692355 
L 511.01429 331.712759 
L 512.305359 368.354279 
L 513.571139 380.445795 
L 514.812601 331.84616 
L 516.030663 379.035758 
L 517.226189 319.61321 
L 517.226189 319.61321 
" style="fill:none;stroke:#147f2a;stroke-linecap:square;"/>
   </g>
   <g id="line2d_11">
    <path clip-path="url(#p2d8d3c0830)" d="M 72 80.820895 
L 82.696043 79.421699 
L 91.87059 75.592488 
L 99.903083 83.045536 
L 107.046633 77.72592 
L 113.478536 80.482294 
L 119.327824 77.202126 
L 124.691336 82.761984 
L 129.643606 84.942649 
L 134.243232 73.848815 
L 138.537115 75.214632 
L 142.56338 70.443327 
L 146.353438 81.951737 
L 149.933474 84.618569 
L 156.548417 81.384543 
L 159.618161 86.644809 
L 162.548674 75.745697 
L 165.352039 82.079183 
L 168.038834 85.060701 
L 170.618365 87.14208 
L 173.098871 85.417629 
L 175.487673 90.844063 
L 177.791312 87.529297 
L 180.015651 86.559701 
L 182.165968 94.1825 
L 184.247032 83.9741 
L 186.263165 85.065945 
L 188.218296 90.06264 
L 190.116009 86.749459 
L 191.95958 81.208874 
L 193.752013 90.927401 
L 195.496068 88.788404 
L 197.194289 82.586444 
L 198.849023 87.865455 
L 200.462442 86.918788 
L 202.036558 85.41718 
L 203.573241 91.0464 
L 205.07423 94.505127 
L 206.541146 79.107619 
L 207.975501 86.852203 
L 209.37871 96.113972 
L 210.752096 84.596752 
L 212.096901 88.532642 
L 213.41429 97.755315 
L 220.8 96.793197 
L 231.496043 96.291167 
L 240.67059 94.232949 
L 248.703083 95.725471 
L 255.846633 98.053899 
L 262.278536 85.472311 
L 268.127824 93.498196 
L 273.491336 96.130843 
L 278.443606 91.976122 
L 283.043232 92.831753 
L 287.337115 105.303072 
L 291.36338 104.593073 
L 295.153438 94.432007 
L 298.733474 96.728033 
L 302.125548 98.729643 
L 305.348417 90.340123 
L 308.418161 108.104247 
L 311.348674 95.670861 
L 314.152039 103.701193 
L 316.838834 106.335734 
L 319.418365 106.5743 
L 321.898871 101.937149 
L 324.287673 107.22054 
L 326.591312 107.849091 
L 328.815651 106.419366 
L 330.965968 90.320245 
L 333.047032 91.998674 
L 335.063165 109.016788 
L 337.018296 96.632239 
L 338.916009 112.088425 
L 340.75958 116.860337 
L 342.552013 104.158823 
L 344.296068 112.217715 
L 345.994289 117.514361 
L 347.649023 126.42856 
L 349.262442 117.771542 
L 350.836558 123.935353 
L 352.373241 117.079415 
L 353.87423 121.051938 
L 355.341146 119.576726 
L 356.775501 108.137773 
L 358.17871 132.108313 
L 359.552096 114.635749 
L 360.896901 125.960468 
L 362.21429 125.368052 
L 369.6 140.799968 
L 380.296043 156.303911 
L 389.47059 134.533641 
L 397.503083 146.19681 
L 404.646633 142.79018 
L 411.078536 146.218537 
L 416.927824 168.688666 
L 422.291336 167.491944 
L 427.243606 157.15439 
L 431.843232 182.385975 
L 436.137115 153.664178 
L 440.16338 213.296783 
L 443.953438 189.328376 
L 447.533474 198.534102 
L 450.925548 200.429407 
L 454.148417 178.822068 
L 457.218161 227.128816 
L 460.148674 368.3034 
L 462.952039 196.334447 
L 465.638834 249.009179 
L 468.218365 230.373839 
L 470.698871 210.429886 
L 473.087673 187.661523 
L 475.391312 208.873641 
L 477.615651 256.975525 
L 479.765968 271.102581 
L 481.847032 263.698176 
L 483.863165 252.812669 
L 485.818296 284.94074 
L 487.716009 192.96634 
L 489.55958 339.561169 
L 491.352013 289.356147 
L 493.096068 278.378413 
L 494.794289 341.896616 
L 496.449023 323.360122 
L 498.062442 298.173397 
L 499.636558 356.499234 
L 501.173241 344.236448 
L 502.67423 333.741936 
L 504.141146 366.152425 
L 505.575501 344.020408 
L 506.97871 367.443435 
L 508.352096 319.670994 
L 509.696901 318.81285 
L 511.01429 358.878316 
L 512.305359 378.732986 
L 514.812601 365.441101 
L 516.030663 330.666089 
L 517.226189 326.937675 
L 517.226189 326.937675 
" style="fill:none;stroke:#00f6aa;stroke-linecap:square;"/>
   </g>
   <g id="patch_3">
    <path d="M 518.4 388.8 
L 518.4 43.2 
" style="fill:none;stroke:#000000;stroke-linecap:square;stroke-linejoin:miter;"/>
   </g>
   <g id="patch_4">
    <path d="M 72 388.8 
L 518.4 388.8 
" style="fill:none;stroke:#000000;stroke-linecap:square;stroke-linejoin:miter;"/>
   </g>
   <g id="patch_5">
    <path d="M 72 388.8 
L 72 43.2 
" style="fill:none;stroke:#000000;stroke-linecap:square;stroke-linejoin:miter;"/>
   </g>
   <g id="patch_6">
    <path d="M 72 43.2 
L 518.4 43.2 
" style="fill:none;stroke:#000000;stroke-linecap:square;stroke-linejoin:miter;"/>
   </g>
   <g id="matplotlib.axis_1">
    <g id="xtick_1">
     <g id="line2d_12">
      <defs>
       <path d="M 0 0 
L 0 -4 
" id="mba44baa9d8" style="stroke:#000000;stroke-width:0.5;"/>
      </defs>
      <g>
       <use style="stroke:#000000;stroke-width:0.5;" x="72.0" xlink:href="#mba44baa9d8" y="388.8"/>
      </g>
     </g>
     <g id="line2d_13">
      <defs>
       <path d="M 0 0 
L 0 4 
" id="mcc14fd2e39" style="stroke:#000000;stroke-width:0.5;"/>
      </defs>
      <g>
       <use style="stroke:#000000;stroke-width:0.5;" x="72.0" xlink:href="#mcc14fd2e39" y="43.2"/>
      </g>
     </g>
     <g id="text_1">
      <!-- $\mathdefault{10^{-3}}$ -->
      <defs>
       <path d="M 31.78125 66.40625 
Q 24.171875 66.40625 20.328125 58.90625 
Q 16.5 51.421875 16.5 36.375 
Q 16.5 21.390625 20.328125 13.890625 
Q 24.171875 6.390625 31.78125 6.390625 
Q 39.453125 6.390625 43.28125 13.890625 
Q 47.125 21.390625 47.125 36.375 
Q 47.125 51.421875 43.28125 58.90625 
Q 39.453125 66.40625 31.78125 66.40625 
M 31.78125 74.21875 
Q 44.046875 74.21875 50.515625 64.515625 
Q 56.984375 54.828125 56.984375 36.375 
Q 56.984375 17.96875 50.515625 8.265625 
Q 44.046875 -1.421875 31.78125 -1.421875 
Q 19.53125 -1.421875 13.0625 8.265625 
Q 6.59375 17.96875 6.59375 36.375 
Q 6.59375 54.828125 13.0625 64.515625 
Q 19.53125 74.21875 31.78125 74.21875 
" id="BitstreamVeraSans-Roman-30"/>
       <path d="M 4.890625 31.390625 
L 31.203125 31.390625 
L 31.203125 23.390625 
L 4.890625 23.390625 
z
" id="BitstreamVeraSans-Roman-2d"/>
       <path d="M 12.40625 8.296875 
L 28.515625 8.296875 
L 28.515625 63.921875 
L 10.984375 60.40625 
L 10.984375 69.390625 
L 28.421875 72.90625 
L 38.28125 72.90625 
L 38.28125 8.296875 
L 54.390625 8.296875 
L 54.390625 0 
L 12.40625 0 
z
" id="BitstreamVeraSans-Roman-31"/>
       <path d="M 40.578125 39.3125 
Q 47.65625 37.796875 51.625 33 
Q 55.609375 28.21875 55.609375 21.1875 
Q 55.609375 10.40625 48.1875 4.484375 
Q 40.765625 -1.421875 27.09375 -1.421875 
Q 22.515625 -1.421875 17.65625 -0.515625 
Q 12.796875 0.390625 7.625 2.203125 
L 7.625 11.71875 
Q 11.71875 9.328125 16.59375 8.109375 
Q 21.484375 6.890625 26.8125 6.890625 
Q 36.078125 6.890625 40.9375 10.546875 
Q 45.796875 14.203125 45.796875 21.1875 
Q 45.796875 27.640625 41.28125 31.265625 
Q 36.765625 34.90625 28.71875 34.90625 
L 20.21875 34.90625 
L 20.21875 43.015625 
L 29.109375 43.015625 
Q 36.375 43.015625 40.234375 45.921875 
Q 44.09375 48.828125 44.09375 54.296875 
Q 44.09375 59.90625 40.109375 62.90625 
Q 36.140625 65.921875 28.71875 65.921875 
Q 24.65625 65.921875 20.015625 65.03125 
Q 15.375 64.15625 9.8125 62.3125 
L 9.8125 71.09375 
Q 15.4375 72.65625 20.34375 73.4375 
Q 25.25 74.21875 29.59375 74.21875 
Q 40.828125 74.21875 47.359375 69.109375 
Q 53.90625 64.015625 53.90625 55.328125 
Q 53.90625 49.265625 50.4375 45.09375 
Q 46.96875 40.921875 40.578125 39.3125 
" id="BitstreamVeraSans-Roman-33"/>
      </defs>
      <g transform="translate(59.34 402.544375)scale(0.12 -0.12)">
       <use transform="translate(0.0 0.796875)" xlink:href="#BitstreamVeraSans-Roman-31"/>
       <use transform="translate(63.623046875 0.796875)" xlink:href="#BitstreamVeraSans-Roman-30"/>
       <use transform="translate(132.75859375 48.046875)scale(0.7)" xlink:href="#BitstreamVeraSans-Roman-2d"/>
       <use transform="translate(158.0173828125 48.046875)scale(0.7)" xlink:href="#BitstreamVeraSans-Roman-33"/>
      </g>
     </g>
    </g>
    <g id="xtick_2">
     <g id="line2d_14">
      <g>
       <use style="stroke:#000000;stroke-width:0.5;" x="220.8" xlink:href="#mba44baa9d8" y="388.8"/>
      </g>
     </g>
     <g id="line2d_15">
      <g>
       <use style="stroke:#000000;stroke-width:0.5;" x="220.8" xlink:href="#mcc14fd2e39" y="43.2"/>
      </g>
     </g>
     <g id="text_2">
      <!-- $\mathdefault{10^{-2}}$ -->
      <defs>
       <path d="M 19.1875 8.296875 
L 53.609375 8.296875 
L 53.609375 0 
L 7.328125 0 
L 7.328125 8.296875 
Q 12.9375 14.109375 22.625 23.890625 
Q 32.328125 33.6875 34.8125 36.53125 
Q 39.546875 41.84375 41.421875 45.53125 
Q 43.3125 49.21875 43.3125 52.78125 
Q 43.3125 58.59375 39.234375 62.25 
Q 35.15625 65.921875 28.609375 65.921875 
Q 23.96875 65.921875 18.8125 64.3125 
Q 13.671875 62.703125 7.8125 59.421875 
L 7.8125 69.390625 
Q 13.765625 71.78125 18.9375 73 
Q 24.125 74.21875 28.421875 74.21875 
Q 39.75 74.21875 46.484375 68.546875 
Q 53.21875 62.890625 53.21875 53.421875 
Q 53.21875 48.921875 51.53125 44.890625 
Q 49.859375 40.875 45.40625 35.40625 
Q 44.1875 33.984375 37.640625 27.21875 
Q 31.109375 20.453125 19.1875 8.296875 
" id="BitstreamVeraSans-Roman-32"/>
      </defs>
      <g transform="translate(208.14 402.544375)scale(0.12 -0.12)">
       <use transform="translate(0.0 0.796875)" xlink:href="#BitstreamVeraSans-Roman-31"/>
       <use transform="translate(63.623046875 0.796875)" xlink:href="#BitstreamVeraSans-Roman-30"/>
       <use transform="translate(132.75859375 48.046875)scale(0.7)" xlink:href="#BitstreamVeraSans-Roman-2d"/>
       <use transform="translate(158.0173828125 48.046875)scale(0.7)" xlink:href="#BitstreamVeraSans-Roman-32"/>
      </g>
     </g>
    </g>
    <g id="xtick_3">
     <g id="line2d_16">
      <g>
       <use style="stroke:#000000;stroke-width:0.5;" x="369.6" xlink:href="#mba44baa9d8" y="388.8"/>
      </g>
     </g>
     <g id="line2d_17">
      <g>
       <use style="stroke:#000000;stroke-width:0.5;" x="369.6" xlink:href="#mcc14fd2e39" y="43.2"/>
      </g>
     </g>
     <g id="text_3">
      <!-- $\mathdefault{10^{-1}}$ -->
      <g transform="translate(356.94 402.424375)scale(0.12 -0.12)">
       <use transform="translate(0.0 0.7156250000000028)" xlink:href="#BitstreamVeraSans-Roman-31"/>
       <use transform="translate(63.623046875 0.7156250000000028)" xlink:href="#BitstreamVeraSans-Roman-30"/>
       <use transform="translate(132.75859375 47.965625)scale(0.7)" xlink:href="#BitstreamVeraSans-Roman-2d"/>
       <use transform="translate(158.0173828125 47.965625)scale(0.7)" xlink:href="#BitstreamVeraSans-Roman-31"/>
      </g>
     </g>
    </g>
    <g id="xtick_4">
     <g id="line2d_18">
      <g>
       <use style="stroke:#000000;stroke-width:0.5;" x="518.4" xlink:href="#mba44baa9d8" y="388.8"/>
      </g>
     </g>
     <g id="line2d_19">
      <g>
       <use style="stroke:#000000;stroke-width:0.5;" x="518.4" xlink:href="#mcc14fd2e39" y="43.2"/>
      </g>
     </g>
     <g id="text_4">
      <!-- $\mathdefault{10^{0}}$ -->
      <g transform="translate(507.24 402.544375)scale(0.12 -0.12)">
       <use transform="translate(0.0 0.796875)" xlink:href="#BitstreamVeraSans-Roman-31"/>
       <use transform="translate(63.623046875 0.796875)" xlink:href="#BitstreamVeraSans-Roman-30"/>
       <use transform="translate(132.75859375 48.046875)scale(0.7)" xlink:href="#BitstreamVeraSans-Roman-30"/>
      </g>
     </g>
    </g>
    <g id="xtick_5">
     <g id="line2d_20">
      <defs>
       <path d="M 0 0 
L 0 -2 
" id="m133cbded8b" style="stroke:#000000;stroke-width:0.5;"/>
      </defs>
      <g>
       <use style="stroke:#000000;stroke-width:0.5;" x="116.793263355" xlink:href="#m133cbded8b" y="388.8"/>
      </g>
     </g>
     <g id="line2d_21">
      <defs>
       <path d="M 0 0 
L 0 2 
" id="mfe2988b076" style="stroke:#000000;stroke-width:0.5;"/>
      </defs>
      <g>
       <use style="stroke:#000000;stroke-width:0.5;" x="116.793263355" xlink:href="#mfe2988b076" y="43.2"/>
      </g>
     </g>
    </g>
    <g id="xtick_6">
     <g id="line2d_22">
      <g>
       <use style="stroke:#000000;stroke-width:0.5;" x="142.995642702" xlink:href="#m133cbded8b" y="388.8"/>
      </g>
     </g>
     <g id="line2d_23">
      <g>
       <use style="stroke:#000000;stroke-width:0.5;" x="142.995642702" xlink:href="#mfe2988b076" y="43.2"/>
      </g>
     </g>
    </g>
    <g id="xtick_7">
     <g id="line2d_24">
      <g>
       <use style="stroke:#000000;stroke-width:0.5;" x="161.58652671" xlink:href="#m133cbded8b" y="388.8"/>
      </g>
     </g>
     <g id="line2d_25">
      <g>
       <use style="stroke:#000000;stroke-width:0.5;" x="161.58652671" xlink:href="#mfe2988b076" y="43.2"/>
      </g>
     </g>
    </g>
    <g id="xtick_8">
     <g id="line2d_26">
      <g>
       <use style="stroke:#000000;stroke-width:0.5;" x="176.006736645" xlink:href="#m133cbded8b" y="388.8"/>
      </g>
     </g>
     <g id="line2d_27">
      <g>
       <use style="stroke:#000000;stroke-width:0.5;" x="176.006736645" xlink:href="#mfe2988b076" y="43.2"/>
      </g>
     </g>
    </g>
    <g id="xtick_9">
     <g id="line2d_28">
      <g>
       <use style="stroke:#000000;stroke-width:0.5;" x="187.788906057" xlink:href="#m133cbded8b" y="388.8"/>
      </g>
     </g>
     <g id="line2d_29">
      <g>
       <use style="stroke:#000000;stroke-width:0.5;" x="187.788906057" xlink:href="#mfe2988b076" y="43.2"/>
      </g>
     </g>
    </g>
    <g id="xtick_10">
     <g id="line2d_30">
      <g>
       <use style="stroke:#000000;stroke-width:0.5;" x="197.750588354" xlink:href="#m133cbded8b" y="388.8"/>
      </g>
     </g>
     <g id="line2d_31">
      <g>
       <use style="stroke:#000000;stroke-width:0.5;" x="197.750588354" xlink:href="#mfe2988b076" y="43.2"/>
      </g>
     </g>
    </g>
    <g id="xtick_11">
     <g id="line2d_32">
      <g>
       <use style="stroke:#000000;stroke-width:0.5;" x="206.379790064" xlink:href="#m133cbded8b" y="388.8"/>
      </g>
     </g>
     <g id="line2d_33">
      <g>
       <use style="stroke:#000000;stroke-width:0.5;" x="206.379790064" xlink:href="#mfe2988b076" y="43.2"/>
      </g>
     </g>
    </g>
    <g id="xtick_12">
     <g id="line2d_34">
      <g>
       <use style="stroke:#000000;stroke-width:0.5;" x="213.991285405" xlink:href="#m133cbded8b" y="388.8"/>
      </g>
     </g>
     <g id="line2d_35">
      <g>
       <use style="stroke:#000000;stroke-width:0.5;" x="213.991285405" xlink:href="#mfe2988b076" y="43.2"/>
      </g>
     </g>
    </g>
    <g id="xtick_13">
     <g id="line2d_36">
      <g>
       <use style="stroke:#000000;stroke-width:0.5;" x="265.593263355" xlink:href="#m133cbded8b" y="388.8"/>
      </g>
     </g>
     <g id="line2d_37">
      <g>
       <use style="stroke:#000000;stroke-width:0.5;" x="265.593263355" xlink:href="#mfe2988b076" y="43.2"/>
      </g>
     </g>
    </g>
    <g id="xtick_14">
     <g id="line2d_38">
      <g>
       <use style="stroke:#000000;stroke-width:0.5;" x="291.795642702" xlink:href="#m133cbded8b" y="388.8"/>
      </g>
     </g>
     <g id="line2d_39">
      <g>
       <use style="stroke:#000000;stroke-width:0.5;" x="291.795642702" xlink:href="#mfe2988b076" y="43.2"/>
      </g>
     </g>
    </g>
    <g id="xtick_15">
     <g id="line2d_40">
      <g>
       <use style="stroke:#000000;stroke-width:0.5;" x="310.38652671" xlink:href="#m133cbded8b" y="388.8"/>
      </g>
     </g>
     <g id="line2d_41">
      <g>
       <use style="stroke:#000000;stroke-width:0.5;" x="310.38652671" xlink:href="#mfe2988b076" y="43.2"/>
      </g>
     </g>
    </g>
    <g id="xtick_16">
     <g id="line2d_42">
      <g>
       <use style="stroke:#000000;stroke-width:0.5;" x="324.806736645" xlink:href="#m133cbded8b" y="388.8"/>
      </g>
     </g>
     <g id="line2d_43">
      <g>
       <use style="stroke:#000000;stroke-width:0.5;" x="324.806736645" xlink:href="#mfe2988b076" y="43.2"/>
      </g>
     </g>
    </g>
    <g id="xtick_17">
     <g id="line2d_44">
      <g>
       <use style="stroke:#000000;stroke-width:0.5;" x="336.588906057" xlink:href="#m133cbded8b" y="388.8"/>
      </g>
     </g>
     <g id="line2d_45">
      <g>
       <use style="stroke:#000000;stroke-width:0.5;" x="336.588906057" xlink:href="#mfe2988b076" y="43.2"/>
      </g>
     </g>
    </g>
    <g id="xtick_18">
     <g id="line2d_46">
      <g>
       <use style="stroke:#000000;stroke-width:0.5;" x="346.550588354" xlink:href="#m133cbded8b" y="388.8"/>
      </g>
     </g>
     <g id="line2d_47">
      <g>
       <use style="stroke:#000000;stroke-width:0.5;" x="346.550588354" xlink:href="#mfe2988b076" y="43.2"/>
      </g>
     </g>
    </g>
    <g id="xtick_19">
     <g id="line2d_48">
      <g>
       <use style="stroke:#000000;stroke-width:0.5;" x="355.179790064" xlink:href="#m133cbded8b" y="388.8"/>
      </g>
     </g>
     <g id="line2d_49">
      <g>
       <use style="stroke:#000000;stroke-width:0.5;" x="355.179790064" xlink:href="#mfe2988b076" y="43.2"/>
      </g>
     </g>
    </g>
    <g id="xtick_20">
     <g id="line2d_50">
      <g>
       <use style="stroke:#000000;stroke-width:0.5;" x="362.791285405" xlink:href="#m133cbded8b" y="388.8"/>
      </g>
     </g>
     <g id="line2d_51">
      <g>
       <use style="stroke:#000000;stroke-width:0.5;" x="362.791285405" xlink:href="#mfe2988b076" y="43.2"/>
      </g>
     </g>
    </g>
    <g id="xtick_21">
     <g id="line2d_52">
      <g>
       <use style="stroke:#000000;stroke-width:0.5;" x="414.393263355" xlink:href="#m133cbded8b" y="388.8"/>
      </g>
     </g>
     <g id="line2d_53">
      <g>
       <use style="stroke:#000000;stroke-width:0.5;" x="414.393263355" xlink:href="#mfe2988b076" y="43.2"/>
      </g>
     </g>
    </g>
    <g id="xtick_22">
     <g id="line2d_54">
      <g>
       <use style="stroke:#000000;stroke-width:0.5;" x="440.595642702" xlink:href="#m133cbded8b" y="388.8"/>
      </g>
     </g>
     <g id="line2d_55">
      <g>
       <use style="stroke:#000000;stroke-width:0.5;" x="440.595642702" xlink:href="#mfe2988b076" y="43.2"/>
      </g>
     </g>
    </g>
    <g id="xtick_23">
     <g id="line2d_56">
      <g>
       <use style="stroke:#000000;stroke-width:0.5;" x="459.18652671" xlink:href="#m133cbded8b" y="388.8"/>
      </g>
     </g>
     <g id="line2d_57">
      <g>
       <use style="stroke:#000000;stroke-width:0.5;" x="459.18652671" xlink:href="#mfe2988b076" y="43.2"/>
      </g>
     </g>
    </g>
    <g id="xtick_24">
     <g id="line2d_58">
      <g>
       <use style="stroke:#000000;stroke-width:0.5;" x="473.606736645" xlink:href="#m133cbded8b" y="388.8"/>
      </g>
     </g>
     <g id="line2d_59">
      <g>
       <use style="stroke:#000000;stroke-width:0.5;" x="473.606736645" xlink:href="#mfe2988b076" y="43.2"/>
      </g>
     </g>
    </g>
    <g id="xtick_25">
     <g id="line2d_60">
      <g>
       <use style="stroke:#000000;stroke-width:0.5;" x="485.388906057" xlink:href="#m133cbded8b" y="388.8"/>
      </g>
     </g>
     <g id="line2d_61">
      <g>
       <use style="stroke:#000000;stroke-width:0.5;" x="485.388906057" xlink:href="#mfe2988b076" y="43.2"/>
      </g>
     </g>
    </g>
    <g id="xtick_26">
     <g id="line2d_62">
      <g>
       <use style="stroke:#000000;stroke-width:0.5;" x="495.350588354" xlink:href="#m133cbded8b" y="388.8"/>
      </g>
     </g>
     <g id="line2d_63">
      <g>
       <use style="stroke:#000000;stroke-width:0.5;" x="495.350588354" xlink:href="#mfe2988b076" y="43.2"/>
      </g>
     </g>
    </g>
    <g id="xtick_27">
     <g id="line2d_64">
      <g>
       <use style="stroke:#000000;stroke-width:0.5;" x="503.979790064" xlink:href="#m133cbded8b" y="388.8"/>
      </g>
     </g>
     <g id="line2d_65">
      <g>
       <use style="stroke:#000000;stroke-width:0.5;" x="503.979790064" xlink:href="#mfe2988b076" y="43.2"/>
      </g>
     </g>
    </g>
    <g id="xtick_28">
     <g id="line2d_66">
      <g>
       <use style="stroke:#000000;stroke-width:0.5;" x="511.591285405" xlink:href="#m133cbded8b" y="388.8"/>
      </g>
     </g>
     <g id="line2d_67">
      <g>
       <use style="stroke:#000000;stroke-width:0.5;" x="511.591285405" xlink:href="#mfe2988b076" y="43.2"/>
      </g>
     </g>
    </g>
   </g>
   <g id="matplotlib.axis_2">
    <g id="ytick_1">
     <g id="line2d_68">
      <defs>
       <path d="M 0 0 
L 4 0 
" id="mc6b51acee8" style="stroke:#000000;stroke-width:0.5;"/>
      </defs>
      <g>
       <use style="stroke:#000000;stroke-width:0.5;" x="72.0" xlink:href="#mc6b51acee8" y="388.8"/>
      </g>
     </g>
     <g id="line2d_69">
      <defs>
       <path d="M 0 0 
L -4 0 
" id="m729845145d" style="stroke:#000000;stroke-width:0.5;"/>
      </defs>
      <g>
       <use style="stroke:#000000;stroke-width:0.5;" x="518.4" xlink:href="#m729845145d" y="388.8"/>
      </g>
     </g>
     <g id="text_5">
      <!-- 8 -->
      <defs>
       <path d="M 10.59375 35.5 
L 73.1875 35.5 
L 73.1875 27.203125 
L 10.59375 27.203125 
z
" id="BitstreamVeraSans-Roman-2212"/>
       <path d="M 31.78125 34.625 
Q 24.75 34.625 20.71875 30.859375 
Q 16.703125 27.09375 16.703125 20.515625 
Q 16.703125 13.921875 20.71875 10.15625 
Q 24.75 6.390625 31.78125 6.390625 
Q 38.8125 6.390625 42.859375 10.171875 
Q 46.921875 13.96875 46.921875 20.515625 
Q 46.921875 27.09375 42.890625 30.859375 
Q 38.875 34.625 31.78125 34.625 
M 21.921875 38.8125 
Q 15.578125 40.375 12.03125 44.71875 
Q 8.5 49.078125 8.5 55.328125 
Q 8.5 64.0625 14.71875 69.140625 
Q 20.953125 74.21875 31.78125 74.21875 
Q 42.671875 74.21875 48.875 69.140625 
Q 55.078125 64.0625 55.078125 55.328125 
Q 55.078125 49.078125 51.53125 44.71875 
Q 48 40.375 41.703125 38.8125 
Q 48.828125 37.15625 52.796875 32.3125 
Q 56.78125 27.484375 56.78125 20.515625 
Q 56.78125 9.90625 50.3125 4.234375 
Q 43.84375 -1.421875 31.78125 -1.421875 
Q 19.734375 -1.421875 13.25 4.234375 
Q 6.78125 9.90625 6.78125 20.515625 
Q 6.78125 27.484375 10.78125 32.3125 
Q 14.796875 37.15625 21.921875 38.8125 
M 18.3125 54.390625 
Q 18.3125 48.734375 21.84375 45.5625 
Q 25.390625 42.390625 31.78125 42.390625 
Q 38.140625 42.390625 41.71875 45.5625 
Q 45.3125 48.734375 45.3125 54.390625 
Q 45.3125 60.0625 41.71875 63.234375 
Q 38.140625 66.40625 31.78125 66.40625 
Q 25.390625 66.40625 21.84375 63.234375 
Q 18.3125 60.0625 18.3125 54.390625 
" id="BitstreamVeraSans-Roman-38"/>
      </defs>
      <g transform="translate(50.309375 392.11125)scale(0.12 -0.12)">
       <use xlink:href="#BitstreamVeraSans-Roman-2212"/>
       <use x="83.7890625" xlink:href="#BitstreamVeraSans-Roman-38"/>
      </g>
     </g>
    </g>
    <g id="ytick_2">
     <g id="line2d_70">
      <g>
       <use style="stroke:#000000;stroke-width:0.5;" x="72.0" xlink:href="#mc6b51acee8" y="339.428571429"/>
      </g>
     </g>
     <g id="line2d_71">
      <g>
       <use style="stroke:#000000;stroke-width:0.5;" x="518.4" xlink:href="#m729845145d" y="339.428571429"/>
      </g>
     </g>
     <g id="text_6">
      <!-- 7 -->
      <defs>
       <path d="M 8.203125 72.90625 
L 55.078125 72.90625 
L 55.078125 68.703125 
L 28.609375 0 
L 18.3125 0 
L 43.21875 64.59375 
L 8.203125 64.59375 
z
" id="BitstreamVeraSans-Roman-37"/>
      </defs>
      <g transform="translate(50.309375 342.739821429)scale(0.12 -0.12)">
       <use xlink:href="#BitstreamVeraSans-Roman-2212"/>
       <use x="83.7890625" xlink:href="#BitstreamVeraSans-Roman-37"/>
      </g>
     </g>
    </g>
    <g id="ytick_3">
     <g id="line2d_72">
      <g>
       <use style="stroke:#000000;stroke-width:0.5;" x="72.0" xlink:href="#mc6b51acee8" y="290.057142857"/>
      </g>
     </g>
     <g id="line2d_73">
      <g>
       <use style="stroke:#000000;stroke-width:0.5;" x="518.4" xlink:href="#m729845145d" y="290.057142857"/>
      </g>
     </g>
     <g id="text_7">
      <!-- 6 -->
      <defs>
       <path d="M 33.015625 40.375 
Q 26.375 40.375 22.484375 35.828125 
Q 18.609375 31.296875 18.609375 23.390625 
Q 18.609375 15.53125 22.484375 10.953125 
Q 26.375 6.390625 33.015625 6.390625 
Q 39.65625 6.390625 43.53125 10.953125 
Q 47.40625 15.53125 47.40625 23.390625 
Q 47.40625 31.296875 43.53125 35.828125 
Q 39.65625 40.375 33.015625 40.375 
M 52.59375 71.296875 
L 52.59375 62.3125 
Q 48.875 64.0625 45.09375 64.984375 
Q 41.3125 65.921875 37.59375 65.921875 
Q 27.828125 65.921875 22.671875 59.328125 
Q 17.53125 52.734375 16.796875 39.40625 
Q 19.671875 43.65625 24.015625 45.921875 
Q 28.375 48.1875 33.59375 48.1875 
Q 44.578125 48.1875 50.953125 41.515625 
Q 57.328125 34.859375 57.328125 23.390625 
Q 57.328125 12.15625 50.6875 5.359375 
Q 44.046875 -1.421875 33.015625 -1.421875 
Q 20.359375 -1.421875 13.671875 8.265625 
Q 6.984375 17.96875 6.984375 36.375 
Q 6.984375 53.65625 15.1875 63.9375 
Q 23.390625 74.21875 37.203125 74.21875 
Q 40.921875 74.21875 44.703125 73.484375 
Q 48.484375 72.75 52.59375 71.296875 
" id="BitstreamVeraSans-Roman-36"/>
      </defs>
      <g transform="translate(50.309375 293.368392857)scale(0.12 -0.12)">
       <use xlink:href="#BitstreamVeraSans-Roman-2212"/>
       <use x="83.7890625" xlink:href="#BitstreamVeraSans-Roman-36"/>
      </g>
     </g>
    </g>
    <g id="ytick_4">
     <g id="line2d_74">
      <g>
       <use style="stroke:#000000;stroke-width:0.5;" x="72.0" xlink:href="#mc6b51acee8" y="240.685714286"/>
      </g>
     </g>
     <g id="line2d_75">
      <g>
       <use style="stroke:#000000;stroke-width:0.5;" x="518.4" xlink:href="#m729845145d" y="240.685714286"/>
      </g>
     </g>
     <g id="text_8">
      <!-- 5 -->
      <defs>
       <path d="M 10.796875 72.90625 
L 49.515625 72.90625 
L 49.515625 64.59375 
L 19.828125 64.59375 
L 19.828125 46.734375 
Q 21.96875 47.46875 24.109375 47.828125 
Q 26.265625 48.1875 28.421875 48.1875 
Q 40.625 48.1875 47.75 41.5 
Q 54.890625 34.8125 54.890625 23.390625 
Q 54.890625 11.625 47.5625 5.09375 
Q 40.234375 -1.421875 26.90625 -1.421875 
Q 22.3125 -1.421875 17.546875 -0.640625 
Q 12.796875 0.140625 7.71875 1.703125 
L 7.71875 11.625 
Q 12.109375 9.234375 16.796875 8.0625 
Q 21.484375 6.890625 26.703125 6.890625 
Q 35.15625 6.890625 40.078125 11.328125 
Q 45.015625 15.765625 45.015625 23.390625 
Q 45.015625 31 40.078125 35.4375 
Q 35.15625 39.890625 26.703125 39.890625 
Q 22.75 39.890625 18.8125 39.015625 
Q 14.890625 38.140625 10.796875 36.28125 
z
" id="BitstreamVeraSans-Roman-35"/>
      </defs>
      <g transform="translate(50.309375 243.996964286)scale(0.12 -0.12)">
       <use xlink:href="#BitstreamVeraSans-Roman-2212"/>
       <use x="83.7890625" xlink:href="#BitstreamVeraSans-Roman-35"/>
      </g>
     </g>
    </g>
    <g id="ytick_5">
     <g id="line2d_76">
      <g>
       <use style="stroke:#000000;stroke-width:0.5;" x="72.0" xlink:href="#mc6b51acee8" y="191.314285714"/>
      </g>
     </g>
     <g id="line2d_77">
      <g>
       <use style="stroke:#000000;stroke-width:0.5;" x="518.4" xlink:href="#m729845145d" y="191.314285714"/>
      </g>
     </g>
     <g id="text_9">
      <!-- 4 -->
      <defs>
       <path d="M 37.796875 64.3125 
L 12.890625 25.390625 
L 37.796875 25.390625 
z
M 35.203125 72.90625 
L 47.609375 72.90625 
L 47.609375 25.390625 
L 58.015625 25.390625 
L 58.015625 17.1875 
L 47.609375 17.1875 
L 47.609375 0 
L 37.796875 0 
L 37.796875 17.1875 
L 4.890625 17.1875 
L 4.890625 26.703125 
z
" id="BitstreamVeraSans-Roman-34"/>
      </defs>
      <g transform="translate(50.309375 194.625535714)scale(0.12 -0.12)">
       <use xlink:href="#BitstreamVeraSans-Roman-2212"/>
       <use x="83.7890625" xlink:href="#BitstreamVeraSans-Roman-34"/>
      </g>
     </g>
    </g>
    <g id="ytick_6">
     <g id="line2d_78">
      <g>
       <use style="stroke:#000000;stroke-width:0.5;" x="72.0" xlink:href="#mc6b51acee8" y="141.942857143"/>
      </g>
     </g>
     <g id="line2d_79">
      <g>
       <use style="stroke:#000000;stroke-width:0.5;" x="518.4" xlink:href="#m729845145d" y="141.942857143"/>
      </g>
     </g>
     <g id="text_10">
      <!-- 3 -->
      <g transform="translate(50.309375 145.254107143)scale(0.12 -0.12)">
       <use xlink:href="#BitstreamVeraSans-Roman-2212"/>
       <use x="83.7890625" xlink:href="#BitstreamVeraSans-Roman-33"/>
      </g>
     </g>
    </g>
    <g id="ytick_7">
     <g id="line2d_80">
      <g>
       <use style="stroke:#000000;stroke-width:0.5;" x="72.0" xlink:href="#mc6b51acee8" y="92.5714285714"/>
      </g>
     </g>
     <g id="line2d_81">
      <g>
       <use style="stroke:#000000;stroke-width:0.5;" x="518.4" xlink:href="#m729845145d" y="92.5714285714"/>
      </g>
     </g>
     <g id="text_11">
      <!-- 2 -->
      <g transform="translate(50.309375 95.8826785714)scale(0.12 -0.12)">
       <use xlink:href="#BitstreamVeraSans-Roman-2212"/>
       <use x="83.7890625" xlink:href="#BitstreamVeraSans-Roman-32"/>
      </g>
     </g>
    </g>
    <g id="ytick_8">
     <g id="line2d_82">
      <g>
       <use style="stroke:#000000;stroke-width:0.5;" x="72.0" xlink:href="#mc6b51acee8" y="43.2"/>
      </g>
     </g>
     <g id="line2d_83">
      <g>
       <use style="stroke:#000000;stroke-width:0.5;" x="518.4" xlink:href="#m729845145d" y="43.2"/>
      </g>
     </g>
     <g id="text_12">
      <!-- 1 -->
      <g transform="translate(50.309375 46.51125)scale(0.12 -0.12)">
       <use xlink:href="#BitstreamVeraSans-Roman-2212"/>
       <use x="83.7890625" xlink:href="#BitstreamVeraSans-Roman-31"/>
      </g>
     </g>
    </g>
   </g>
   <g id="legend_1">
    <g id="patch_7">
     <path d="M 79.2 381.6 
L 214.78275 381.6 
L 214.78275 144.7785 
L 79.2 144.7785 
z
" style="fill:#ffffff;stroke:#000000;stroke-linejoin:miter;"/>
    </g>
    <g id="line2d_84">
     <path d="M 89.28 156.44025 
L 109.44 156.44025 
" style="fill:none;stroke:#ff1e1e;stroke-linecap:square;"/>
    </g>
    <g id="line2d_85"/>
    <g id="text_13">
     <!-- Std: 0.0 -->
     <defs>
      <path d="M 53.515625 70.515625 
L 53.515625 60.890625 
Q 47.90625 63.578125 42.921875 64.890625 
Q 37.9375 66.21875 33.296875 66.21875 
Q 25.25 66.21875 20.875 63.09375 
Q 16.5 59.96875 16.5 54.203125 
Q 16.5 49.359375 19.40625 46.890625 
Q 22.3125 44.4375 30.421875 42.921875 
L 36.375 41.703125 
Q 47.40625 39.59375 52.65625 34.296875 
Q 57.90625 29 57.90625 20.125 
Q 57.90625 9.515625 50.796875 4.046875 
Q 43.703125 -1.421875 29.984375 -1.421875 
Q 24.8125 -1.421875 18.96875 -0.25 
Q 13.140625 0.921875 6.890625 3.21875 
L 6.890625 13.375 
Q 12.890625 10.015625 18.65625 8.296875 
Q 24.421875 6.59375 29.984375 6.59375 
Q 38.421875 6.59375 43.015625 9.90625 
Q 47.609375 13.234375 47.609375 19.390625 
Q 47.609375 24.75 44.3125 27.78125 
Q 41.015625 30.8125 33.5 32.328125 
L 27.484375 33.5 
Q 16.453125 35.6875 11.515625 40.375 
Q 6.59375 45.0625 6.59375 53.421875 
Q 6.59375 63.09375 13.40625 68.65625 
Q 20.21875 74.21875 32.171875 74.21875 
Q 37.3125 74.21875 42.625 73.28125 
Q 47.953125 72.359375 53.515625 70.515625 
" id="BitstreamVeraSans-Roman-53"/>
      <path id="BitstreamVeraSans-Roman-20"/>
      <path d="M 18.3125 70.21875 
L 18.3125 54.6875 
L 36.8125 54.6875 
L 36.8125 47.703125 
L 18.3125 47.703125 
L 18.3125 18.015625 
Q 18.3125 11.328125 20.140625 9.421875 
Q 21.96875 7.515625 27.59375 7.515625 
L 36.8125 7.515625 
L 36.8125 0 
L 27.59375 0 
Q 17.1875 0 13.234375 3.875 
Q 9.28125 7.765625 9.28125 18.015625 
L 9.28125 47.703125 
L 2.6875 47.703125 
L 2.6875 54.6875 
L 9.28125 54.6875 
L 9.28125 70.21875 
z
" id="BitstreamVeraSans-Roman-74"/>
      <path d="M 45.40625 46.390625 
L 45.40625 75.984375 
L 54.390625 75.984375 
L 54.390625 0 
L 45.40625 0 
L 45.40625 8.203125 
Q 42.578125 3.328125 38.25 0.953125 
Q 33.9375 -1.421875 27.875 -1.421875 
Q 17.96875 -1.421875 11.734375 6.484375 
Q 5.515625 14.40625 5.515625 27.296875 
Q 5.515625 40.1875 11.734375 48.09375 
Q 17.96875 56 27.875 56 
Q 33.9375 56 38.25 53.625 
Q 42.578125 51.265625 45.40625 46.390625 
M 14.796875 27.296875 
Q 14.796875 17.390625 18.875 11.75 
Q 22.953125 6.109375 30.078125 6.109375 
Q 37.203125 6.109375 41.296875 11.75 
Q 45.40625 17.390625 45.40625 27.296875 
Q 45.40625 37.203125 41.296875 42.84375 
Q 37.203125 48.484375 30.078125 48.484375 
Q 22.953125 48.484375 18.875 42.84375 
Q 14.796875 37.203125 14.796875 27.296875 
" id="BitstreamVeraSans-Roman-64"/>
      <path d="M 11.71875 12.40625 
L 22.015625 12.40625 
L 22.015625 0 
L 11.71875 0 
z
M 11.71875 51.703125 
L 22.015625 51.703125 
L 22.015625 39.3125 
L 11.71875 39.3125 
z
" id="BitstreamVeraSans-Roman-3a"/>
      <path d="M 10.6875 12.40625 
L 21 12.40625 
L 21 0 
L 10.6875 0 
z
" id="BitstreamVeraSans-Roman-2e"/>
     </defs>
     <g transform="translate(125.28 161.48025)scale(0.144 -0.144)">
      <use xlink:href="#BitstreamVeraSans-Roman-53"/>
      <use x="63.4765625" xlink:href="#BitstreamVeraSans-Roman-74"/>
      <use x="102.685546875" xlink:href="#BitstreamVeraSans-Roman-64"/>
      <use x="166.162109375" xlink:href="#BitstreamVeraSans-Roman-3a"/>
      <use x="199.853515625" xlink:href="#BitstreamVeraSans-Roman-20"/>
      <use x="231.640625" xlink:href="#BitstreamVeraSans-Roman-30"/>
      <use x="295.263671875" xlink:href="#BitstreamVeraSans-Roman-2e"/>
      <use x="327.05078125" xlink:href="#BitstreamVeraSans-Roman-30"/>
     </g>
    </g>
    <g id="line2d_86">
     <path d="M 89.28 177.57675 
L 109.44 177.57675 
" style="fill:none;stroke:#581845;stroke-linecap:square;"/>
    </g>
    <g id="line2d_87"/>
    <g id="text_14">
     <!-- Std: 100.0 -->
     <g transform="translate(125.28 182.61675)scale(0.144 -0.144)">
      <use xlink:href="#BitstreamVeraSans-Roman-53"/>
      <use x="63.4765625" xlink:href="#BitstreamVeraSans-Roman-74"/>
      <use x="102.685546875" xlink:href="#BitstreamVeraSans-Roman-64"/>
      <use x="166.162109375" xlink:href="#BitstreamVeraSans-Roman-3a"/>
      <use x="199.853515625" xlink:href="#BitstreamVeraSans-Roman-20"/>
      <use x="231.640625" xlink:href="#BitstreamVeraSans-Roman-31"/>
      <use x="295.263671875" xlink:href="#BitstreamVeraSans-Roman-30"/>
      <use x="358.88671875" xlink:href="#BitstreamVeraSans-Roman-30"/>
      <use x="422.509765625" xlink:href="#BitstreamVeraSans-Roman-2e"/>
      <use x="454.296875" xlink:href="#BitstreamVeraSans-Roman-30"/>
     </g>
    </g>
    <g id="line2d_88">
     <path d="M 89.28 198.71325 
L 109.44 198.71325 
" style="fill:none;stroke:#26b7d8;stroke-linecap:square;"/>
    </g>
    <g id="line2d_89"/>
    <g id="text_15">
     <!-- Std: 200.0 -->
     <g transform="translate(125.28 203.75325)scale(0.144 -0.144)">
      <use xlink:href="#BitstreamVeraSans-Roman-53"/>
      <use x="63.4765625" xlink:href="#BitstreamVeraSans-Roman-74"/>
      <use x="102.685546875" xlink:href="#BitstreamVeraSans-Roman-64"/>
      <use x="166.162109375" xlink:href="#BitstreamVeraSans-Roman-3a"/>
      <use x="199.853515625" xlink:href="#BitstreamVeraSans-Roman-20"/>
      <use x="231.640625" xlink:href="#BitstreamVeraSans-Roman-32"/>
      <use x="295.263671875" xlink:href="#BitstreamVeraSans-Roman-30"/>
      <use x="358.88671875" xlink:href="#BitstreamVeraSans-Roman-30"/>
      <use x="422.509765625" xlink:href="#BitstreamVeraSans-Roman-2e"/>
      <use x="454.296875" xlink:href="#BitstreamVeraSans-Roman-30"/>
     </g>
    </g>
    <g id="line2d_90">
     <path d="M 89.28 219.84975 
L 109.44 219.84975 
" style="fill:none;stroke:#8414a4;stroke-linecap:square;"/>
    </g>
    <g id="line2d_91"/>
    <g id="text_16">
     <!-- Std: 300.0 -->
     <g transform="translate(125.28 224.88975)scale(0.144 -0.144)">
      <use xlink:href="#BitstreamVeraSans-Roman-53"/>
      <use x="63.4765625" xlink:href="#BitstreamVeraSans-Roman-74"/>
      <use x="102.685546875" xlink:href="#BitstreamVeraSans-Roman-64"/>
      <use x="166.162109375" xlink:href="#BitstreamVeraSans-Roman-3a"/>
      <use x="199.853515625" xlink:href="#BitstreamVeraSans-Roman-20"/>
      <use x="231.640625" xlink:href="#BitstreamVeraSans-Roman-33"/>
      <use x="295.263671875" xlink:href="#BitstreamVeraSans-Roman-30"/>
      <use x="358.88671875" xlink:href="#BitstreamVeraSans-Roman-30"/>
      <use x="422.509765625" xlink:href="#BitstreamVeraSans-Roman-2e"/>
      <use x="454.296875" xlink:href="#BitstreamVeraSans-Roman-30"/>
     </g>
    </g>
    <g id="line2d_92">
     <path d="M 89.28 240.98625 
L 109.44 240.98625 
" style="fill:none;stroke:#ffd23a;stroke-linecap:square;"/>
    </g>
    <g id="line2d_93"/>
    <g id="text_17">
     <!-- Std: 400.0 -->
     <g transform="translate(125.28 246.02625)scale(0.144 -0.144)">
      <use xlink:href="#BitstreamVeraSans-Roman-53"/>
      <use x="63.4765625" xlink:href="#BitstreamVeraSans-Roman-74"/>
      <use x="102.685546875" xlink:href="#BitstreamVeraSans-Roman-64"/>
      <use x="166.162109375" xlink:href="#BitstreamVeraSans-Roman-3a"/>
      <use x="199.853515625" xlink:href="#BitstreamVeraSans-Roman-20"/>
      <use x="231.640625" xlink:href="#BitstreamVeraSans-Roman-34"/>
      <use x="295.263671875" xlink:href="#BitstreamVeraSans-Roman-30"/>
      <use x="358.88671875" xlink:href="#BitstreamVeraSans-Roman-30"/>
      <use x="422.509765625" xlink:href="#BitstreamVeraSans-Roman-2e"/>
      <use x="454.296875" xlink:href="#BitstreamVeraSans-Roman-30"/>
     </g>
    </g>
    <g id="line2d_94">
     <path d="M 89.28 262.12275 
L 109.44 262.12275 
" style="fill:none;stroke:#ff9300;stroke-linecap:square;"/>
    </g>
    <g id="line2d_95"/>
    <g id="text_18">
     <!-- Std: 500.0 -->
     <g transform="translate(125.28 267.16275)scale(0.144 -0.144)">
      <use xlink:href="#BitstreamVeraSans-Roman-53"/>
      <use x="63.4765625" xlink:href="#BitstreamVeraSans-Roman-74"/>
      <use x="102.685546875" xlink:href="#BitstreamVeraSans-Roman-64"/>
      <use x="166.162109375" xlink:href="#BitstreamVeraSans-Roman-3a"/>
      <use x="199.853515625" xlink:href="#BitstreamVeraSans-Roman-20"/>
      <use x="231.640625" xlink:href="#BitstreamVeraSans-Roman-35"/>
      <use x="295.263671875" xlink:href="#BitstreamVeraSans-Roman-30"/>
      <use x="358.88671875" xlink:href="#BitstreamVeraSans-Roman-30"/>
      <use x="422.509765625" xlink:href="#BitstreamVeraSans-Roman-2e"/>
      <use x="454.296875" xlink:href="#BitstreamVeraSans-Roman-30"/>
     </g>
    </g>
    <g id="line2d_96">
     <path d="M 89.28 283.25925 
L 109.44 283.25925 
" style="fill:none;stroke:#f50fe6;stroke-linecap:square;"/>
    </g>
    <g id="line2d_97"/>
    <g id="text_19">
     <!-- Std: 600.0 -->
     <g transform="translate(125.28 288.29925)scale(0.144 -0.144)">
      <use xlink:href="#BitstreamVeraSans-Roman-53"/>
      <use x="63.4765625" xlink:href="#BitstreamVeraSans-Roman-74"/>
      <use x="102.685546875" xlink:href="#BitstreamVeraSans-Roman-64"/>
      <use x="166.162109375" xlink:href="#BitstreamVeraSans-Roman-3a"/>
      <use x="199.853515625" xlink:href="#BitstreamVeraSans-Roman-20"/>
      <use x="231.640625" xlink:href="#BitstreamVeraSans-Roman-36"/>
      <use x="295.263671875" xlink:href="#BitstreamVeraSans-Roman-30"/>
      <use x="358.88671875" xlink:href="#BitstreamVeraSans-Roman-30"/>
      <use x="422.509765625" xlink:href="#BitstreamVeraSans-Roman-2e"/>
      <use x="454.296875" xlink:href="#BitstreamVeraSans-Roman-30"/>
     </g>
    </g>
    <g id="line2d_98">
     <path d="M 89.28 304.39575 
L 109.44 304.39575 
" style="fill:none;stroke:#1000a0;stroke-linecap:square;"/>
    </g>
    <g id="line2d_99"/>
    <g id="text_20">
     <!-- Std: 700.0 -->
     <g transform="translate(125.28 309.43575)scale(0.144 -0.144)">
      <use xlink:href="#BitstreamVeraSans-Roman-53"/>
      <use x="63.4765625" xlink:href="#BitstreamVeraSans-Roman-74"/>
      <use x="102.685546875" xlink:href="#BitstreamVeraSans-Roman-64"/>
      <use x="166.162109375" xlink:href="#BitstreamVeraSans-Roman-3a"/>
      <use x="199.853515625" xlink:href="#BitstreamVeraSans-Roman-20"/>
      <use x="231.640625" xlink:href="#BitstreamVeraSans-Roman-37"/>
      <use x="295.263671875" xlink:href="#BitstreamVeraSans-Roman-30"/>
      <use x="358.88671875" xlink:href="#BitstreamVeraSans-Roman-30"/>
      <use x="422.509765625" xlink:href="#BitstreamVeraSans-Roman-2e"/>
      <use x="454.296875" xlink:href="#BitstreamVeraSans-Roman-30"/>
     </g>
    </g>
    <g id="line2d_100">
     <path d="M 89.28 325.53225 
L 109.44 325.53225 
" style="fill:none;stroke:#595866;stroke-linecap:square;"/>
    </g>
    <g id="line2d_101"/>
    <g id="text_21">
     <!-- Std: 800.0 -->
     <g transform="translate(125.28 330.57225)scale(0.144 -0.144)">
      <use xlink:href="#BitstreamVeraSans-Roman-53"/>
      <use x="63.4765625" xlink:href="#BitstreamVeraSans-Roman-74"/>
      <use x="102.685546875" xlink:href="#BitstreamVeraSans-Roman-64"/>
      <use x="166.162109375" xlink:href="#BitstreamVeraSans-Roman-3a"/>
      <use x="199.853515625" xlink:href="#BitstreamVeraSans-Roman-20"/>
      <use x="231.640625" xlink:href="#BitstreamVeraSans-Roman-38"/>
      <use x="295.263671875" xlink:href="#BitstreamVeraSans-Roman-30"/>
      <use x="358.88671875" xlink:href="#BitstreamVeraSans-Roman-30"/>
      <use x="422.509765625" xlink:href="#BitstreamVeraSans-Roman-2e"/>
      <use x="454.296875" xlink:href="#BitstreamVeraSans-Roman-30"/>
     </g>
    </g>
    <g id="line2d_102">
     <path d="M 89.28 346.66875 
L 109.44 346.66875 
" style="fill:none;stroke:#147f2a;stroke-linecap:square;"/>
    </g>
    <g id="line2d_103"/>
    <g id="text_22">
     <!-- Std: 900.0 -->
     <defs>
      <path d="M 10.984375 1.515625 
L 10.984375 10.5 
Q 14.703125 8.734375 18.5 7.8125 
Q 22.3125 6.890625 25.984375 6.890625 
Q 35.75 6.890625 40.890625 13.453125 
Q 46.046875 20.015625 46.78125 33.40625 
Q 43.953125 29.203125 39.59375 26.953125 
Q 35.25 24.703125 29.984375 24.703125 
Q 19.046875 24.703125 12.671875 31.3125 
Q 6.296875 37.9375 6.296875 49.421875 
Q 6.296875 60.640625 12.9375 67.421875 
Q 19.578125 74.21875 30.609375 74.21875 
Q 43.265625 74.21875 49.921875 64.515625 
Q 56.59375 54.828125 56.59375 36.375 
Q 56.59375 19.140625 48.40625 8.859375 
Q 40.234375 -1.421875 26.421875 -1.421875 
Q 22.703125 -1.421875 18.890625 -0.6875 
Q 15.09375 0.046875 10.984375 1.515625 
M 30.609375 32.421875 
Q 37.25 32.421875 41.125 36.953125 
Q 45.015625 41.5 45.015625 49.421875 
Q 45.015625 57.28125 41.125 61.84375 
Q 37.25 66.40625 30.609375 66.40625 
Q 23.96875 66.40625 20.09375 61.84375 
Q 16.21875 57.28125 16.21875 49.421875 
Q 16.21875 41.5 20.09375 36.953125 
Q 23.96875 32.421875 30.609375 32.421875 
" id="BitstreamVeraSans-Roman-39"/>
     </defs>
     <g transform="translate(125.28 351.70875)scale(0.144 -0.144)">
      <use xlink:href="#BitstreamVeraSans-Roman-53"/>
      <use x="63.4765625" xlink:href="#BitstreamVeraSans-Roman-74"/>
      <use x="102.685546875" xlink:href="#BitstreamVeraSans-Roman-64"/>
      <use x="166.162109375" xlink:href="#BitstreamVeraSans-Roman-3a"/>
      <use x="199.853515625" xlink:href="#BitstreamVeraSans-Roman-20"/>
      <use x="231.640625" xlink:href="#BitstreamVeraSans-Roman-39"/>
      <use x="295.263671875" xlink:href="#BitstreamVeraSans-Roman-30"/>
      <use x="358.88671875" xlink:href="#BitstreamVeraSans-Roman-30"/>
      <use x="422.509765625" xlink:href="#BitstreamVeraSans-Roman-2e"/>
      <use x="454.296875" xlink:href="#BitstreamVeraSans-Roman-30"/>
     </g>
    </g>
    <g id="line2d_104">
     <path d="M 89.28 367.80525 
L 109.44 367.80525 
" style="fill:none;stroke:#00f6aa;stroke-linecap:square;"/>
    </g>
    <g id="line2d_105"/>
    <g id="text_23">
     <!-- Std: 1000.0 -->
     <g transform="translate(125.28 372.84525)scale(0.144 -0.144)">
      <use xlink:href="#BitstreamVeraSans-Roman-53"/>
      <use x="63.4765625" xlink:href="#BitstreamVeraSans-Roman-74"/>
      <use x="102.685546875" xlink:href="#BitstreamVeraSans-Roman-64"/>
      <use x="166.162109375" xlink:href="#BitstreamVeraSans-Roman-3a"/>
      <use x="199.853515625" xlink:href="#BitstreamVeraSans-Roman-20"/>
      <use x="231.640625" xlink:href="#BitstreamVeraSans-Roman-31"/>
      <use x="295.263671875" xlink:href="#BitstreamVeraSans-Roman-30"/>
      <use x="358.88671875" xlink:href="#BitstreamVeraSans-Roman-30"/>
      <use x="422.509765625" xlink:href="#BitstreamVeraSans-Roman-30"/>
      <use x="486.1328125" xlink:href="#BitstreamVeraSans-Roman-2e"/>
      <use x="517.919921875" xlink:href="#BitstreamVeraSans-Roman-30"/>
     </g>
    </g>
   </g>
  </g>
 </g>
 <defs>
  <clipPath id="p2d8d3c0830">
   <rect height="345.6" width="446.4" x="72.0" y="43.2"/>
  </clipPath>
 </defs>
</svg>
