<?xml version="1.0" encoding="utf-8" standalone="no"?>
<!DOCTYPE svg PUBLIC "-//W3C//DTD SVG 1.1//EN"
  "http://www.w3.org/Graphics/SVG/1.1/DTD/svg11.dtd">
<!-- Created with matplotlib (http://matplotlib.org/) -->
<svg height="612pt" version="1.1" viewBox="0 0 921 612" width="921pt" xmlns="http://www.w3.org/2000/svg" xmlns:xlink="http://www.w3.org/1999/xlink">
 <defs>
  <style type="text/css">
*{stroke-linecap:butt;stroke-linejoin:round;stroke-miterlimit:100000;}
  </style>
 </defs>
 <g id="figure_1">
  <g id="patch_1">
   <path d="M 0 612.9 
L 921.6 612.9 
L 921.6 0 
L 0 0 
z
" style="fill:#ffffff;"/>
  </g>
  <g id="axes_1">
   <g id="patch_2">
    <path d="M 115.2 551.61 
L 829.44 551.61 
L 829.44 61.29 
L 115.2 61.29 
z
" style="fill:#ffffff;"/>
   </g>
   <g id="line2d_1">
    <path clip-path="url(#p1964a711ea)" d="M 115.2 118.654357 
L 132.313668 119.682031 
L 146.992943 120.335385 
L 159.844933 121.24943 
L 171.274613 121.587158 
L 181.565657 121.59446 
L 190.924519 123.223949 
L 207.42977 124.148781 
L 214.789171 125.178255 
L 228.101408 126.129773 
L 234.165501 127.460134 
L 239.893559 127.805199 
L 245.320877 128.516741 
L 250.477466 128.528767 
L 255.389057 130.005179 
L 260.077878 130.345299 
L 264.563263 131.24218 
L 268.862134 131.008837 
L 276.958194 132.742536 
L 280.780278 133.833898 
L 284.466099 134.504945 
L 288.025041 134.608256 
L 291.465549 135.036815 
L 294.795252 136.104341 
L 298.021064 136.817761 
L 301.149274 137.680158 
L 304.185615 138.250127 
L 307.135328 138.129595 
L 310.003221 139.31557 
L 312.793709 138.504265 
L 315.510863 140.411344 
L 318.158437 140.176141 
L 320.739907 140.980017 
L 323.258492 141.26805 
L 325.717185 143.182571 
L 328.118768 142.450515 
L 330.465834 142.74292 
L 332.760802 143.788856 
L 335.005936 144.63786 
L 337.203354 145.270069 
L 339.355042 145.739738 
L 341.462865 146.476014 
L 353.28 152.153976 
L 397.924933 178.367253 
L 409.354613 184.934905 
L 419.645657 187.198455 
L 429.004519 192.546775 
L 437.586137 194.568912 
L 445.50977 196.56187 
L 452.869171 198.196085 
L 459.739384 198.594792 
L 466.181408 200.159945 
L 472.245501 199.335437 
L 477.973559 199.709885 
L 483.400877 199.175645 
L 488.557466 202.694196 
L 493.469057 202.565222 
L 498.157878 203.768876 
L 502.643263 206.204697 
L 506.942134 203.765324 
L 511.069385 204.837578 
L 515.038194 205.167873 
L 518.860278 203.165127 
L 522.546099 207.687924 
L 526.105041 209.654269 
L 529.545549 209.69815 
L 532.875252 208.49982 
L 536.101064 207.624574 
L 539.229274 203.842117 
L 542.265615 208.027044 
L 545.215328 209.022421 
L 548.083221 200.678834 
L 550.873709 210.368809 
L 553.590863 214.249578 
L 556.238437 211.24739 
L 558.819907 210.340975 
L 561.338492 211.736989 
L 563.797185 209.172116 
L 566.198768 214.564302 
L 568.545834 216.904375 
L 570.840802 206.041103 
L 573.085936 210.679368 
L 575.283354 211.695034 
L 577.435042 222.289346 
L 579.542865 212.204328 
L 591.36 215.716569 
L 608.473668 208.199151 
L 623.152943 234.716387 
L 636.004933 230.277903 
L 647.434613 253.065278 
L 657.725657 241.113471 
L 667.084519 240.622262 
L 675.666137 260.288432 
L 683.58977 251.119657 
L 690.949171 221.110956 
L 697.819384 274.178385 
L 704.261408 249.120443 
L 710.325501 277.502587 
L 716.053559 299.982211 
L 721.480877 281.59586 
L 726.637466 303.867678 
L 731.549057 294.119424 
L 736.237878 288.719792 
L 740.723263 334.437339 
L 745.022134 303.091426 
L 749.149385 359.416397 
L 753.118194 354.418395 
L 756.940278 331.087935 
L 760.626099 336.825011 
L 764.185041 361.459612 
L 767.625549 344.594479 
L 770.955252 355.493832 
L 774.181064 372.363924 
L 777.309274 399.09761 
L 780.345615 381.260296 
L 783.295328 390.783276 
L 786.163221 408.242904 
L 788.953709 374.996684 
L 791.670863 546.414185 
L 794.318437 434.097015 
L 796.899907 440.119035 
L 799.418492 391.025631 
L 801.877185 434.467832 
L 804.278768 451.188136 
L 806.625834 373.527054 
L 808.920802 502.273849 
L 811.165936 438.566888 
L 813.363354 492.764932 
L 815.515042 247.849 
L 817.622865 483.320666 
L 819.688575 470.003129 
L 821.713822 446.124371 
L 823.700162 535.964222 
L 825.64906 533.901452 
L 827.561903 499.022495 
L 827.561903 499.022495 
" style="fill:none;stroke:#ff1e1e;stroke-linecap:square;"/>
   </g>
   <g id="line2d_2">
    <path clip-path="url(#p1964a711ea)" d="M 115.2 119.812457 
L 132.313668 119.345417 
L 146.992943 119.730658 
L 171.274613 121.319567 
L 181.565657 122.542544 
L 190.924519 122.506936 
L 199.506137 123.477605 
L 207.42977 123.97595 
L 214.789171 125.131086 
L 221.659384 124.562051 
L 228.101408 126.481465 
L 234.165501 127.588235 
L 239.893559 126.868446 
L 245.320877 127.265393 
L 250.477466 128.494058 
L 255.389057 128.896215 
L 260.077878 129.842504 
L 264.563263 129.6143 
L 268.862134 131.019341 
L 272.989385 132.582433 
L 276.958194 132.95384 
L 280.780278 132.776313 
L 284.466099 133.031447 
L 288.025041 134.703144 
L 291.465549 135.600071 
L 294.795252 135.736982 
L 298.021064 134.398586 
L 304.185615 135.830666 
L 307.135328 137.653213 
L 310.003221 135.69181 
L 312.793709 137.464202 
L 315.510863 138.816709 
L 318.158437 139.576321 
L 320.739907 139.413972 
L 323.258492 139.367798 
L 325.717185 140.031616 
L 328.118768 139.213525 
L 330.465834 142.161545 
L 332.760802 141.146154 
L 335.005936 143.132836 
L 337.203354 142.530889 
L 339.355042 141.707216 
L 341.462865 144.242019 
L 353.28 147.083797 
L 370.393668 151.369217 
L 397.924933 160.412855 
L 409.354613 164.550912 
L 419.645657 168.78046 
L 429.004519 171.112645 
L 437.586137 172.016435 
L 445.50977 174.186347 
L 452.869171 175.270331 
L 459.739384 178.896716 
L 466.181408 187.44757 
L 472.245501 184.65935 
L 477.973559 190.694531 
L 483.400877 189.400533 
L 488.557466 188.509315 
L 493.469057 191.395321 
L 498.157878 190.065203 
L 502.643263 192.831795 
L 506.942134 193.131454 
L 511.069385 192.863177 
L 515.038194 193.078895 
L 518.860278 200.720087 
L 522.546099 193.755615 
L 526.105041 193.927112 
L 529.545549 194.908337 
L 532.875252 199.193571 
L 536.101064 198.138344 
L 539.229274 201.516784 
L 542.265615 197.033839 
L 545.215328 189.721621 
L 548.083221 197.836328 
L 550.873709 196.04108 
L 553.590863 204.571761 
L 556.238437 200.589896 
L 558.819907 201.715846 
L 561.338492 207.112318 
L 563.797185 195.241999 
L 566.198768 197.240071 
L 568.545834 202.039392 
L 570.840802 202.773619 
L 573.085936 201.617113 
L 575.283354 203.17191 
L 577.435042 196.775527 
L 579.542865 200.523059 
L 591.36 214.139875 
L 608.473668 214.335975 
L 623.152943 217.428013 
L 636.004933 220.253316 
L 647.434613 224.549325 
L 657.725657 218.127853 
L 667.084519 235.889309 
L 675.666137 267.774982 
L 683.58977 260.516597 
L 690.949171 248.936472 
L 697.819384 263.081018 
L 704.261408 262.601603 
L 710.325501 294.124112 
L 716.053559 294.105858 
L 721.480877 288.283413 
L 726.637466 285.313722 
L 731.549057 318.646347 
L 736.237878 301.840038 
L 740.723263 298.528079 
L 745.022134 314.651239 
L 749.149385 318.897892 
L 753.118194 315.179938 
L 756.940278 321.399605 
L 760.626099 347.210747 
L 764.185041 358.836523 
L 767.625549 384.126136 
L 770.955252 372.142503 
L 774.181064 332.738615 
L 777.309274 412.358486 
L 780.345615 350.204838 
L 783.295328 449.316428 
L 786.163221 444.085392 
L 788.953709 420.885668 
L 791.670863 415.406974 
L 794.318437 430.222956 
L 796.899907 423.649047 
L 799.418492 402.391033 
L 801.877185 469.875507 
L 804.278768 410.756794 
L 806.625834 486.778514 
L 808.920802 518.201237 
L 811.165936 482.264351 
L 813.363354 501.408744 
L 815.515042 475.119563 
L 817.622865 511.950332 
L 819.688575 471.176482 
L 821.713822 454.490407 
L 823.700162 550.009848 
L 825.64906 551.583195 
L 827.561903 528.172392 
L 827.561903 528.172392 
" style="fill:none;stroke:#581845;stroke-linecap:square;"/>
   </g>
   <g id="line2d_3">
    <path clip-path="url(#p1964a711ea)" d="M 115.2 120.00154 
L 132.313668 121.616188 
L 146.992943 121.006099 
L 159.844933 121.631192 
L 171.274613 120.44204 
L 181.565657 120.999069 
L 190.924519 123.23283 
L 199.506137 124.140587 
L 207.42977 124.143449 
L 214.789171 125.585593 
L 221.659384 126.721016 
L 228.101408 124.717495 
L 234.165501 128.778918 
L 239.893559 128.423768 
L 245.320877 126.062454 
L 250.477466 129.082491 
L 255.389057 130.03281 
L 260.077878 129.669809 
L 264.563263 130.437162 
L 268.862134 128.317264 
L 272.989385 130.133426 
L 276.958194 133.951455 
L 280.780278 131.6498 
L 284.466099 133.532221 
L 288.025041 130.568916 
L 291.465549 134.785777 
L 294.795252 133.825775 
L 298.021064 133.532956 
L 301.149274 136.303547 
L 304.185615 136.397085 
L 307.135328 133.722856 
L 310.003221 135.612506 
L 312.793709 136.820009 
L 315.510863 136.17526 
L 318.158437 137.466111 
L 320.739907 137.477414 
L 323.258492 137.302118 
L 325.717185 139.171401 
L 328.118768 138.408777 
L 330.465834 138.102838 
L 332.760802 137.515027 
L 335.005936 139.857282 
L 337.203354 139.661656 
L 339.355042 140.092697 
L 341.462865 142.0931 
L 353.28 143.063303 
L 370.393668 144.170278 
L 385.072943 148.426518 
L 397.924933 149.947361 
L 409.354613 154.183738 
L 419.645657 153.924771 
L 429.004519 157.706368 
L 437.586137 161.648948 
L 445.50977 163.661344 
L 452.869171 165.849165 
L 459.739384 165.112125 
L 466.181408 168.707442 
L 472.245501 168.659236 
L 477.973559 170.284774 
L 483.400877 176.895789 
L 488.557466 178.822696 
L 493.469057 178.671878 
L 498.157878 184.837203 
L 502.643263 185.816221 
L 506.942134 182.810305 
L 511.069385 185.58067 
L 515.038194 185.274787 
L 518.860278 189.263198 
L 522.546099 195.645693 
L 526.105041 189.961196 
L 529.545549 192.751043 
L 532.875252 190.45114 
L 536.101064 189.180017 
L 539.229274 197.051103 
L 542.265615 184.653435 
L 545.215328 191.765312 
L 548.083221 190.621191 
L 550.873709 192.456114 
L 553.590863 193.989828 
L 556.238437 196.291979 
L 558.819907 196.945013 
L 561.338492 199.8422 
L 563.797185 189.715046 
L 566.198768 196.669265 
L 568.545834 193.33452 
L 570.840802 197.434542 
L 573.085936 193.897109 
L 575.283354 200.739015 
L 577.435042 194.113364 
L 579.542865 200.475908 
L 591.36 197.253153 
L 608.473668 207.276571 
L 623.152943 230.506363 
L 636.004933 218.293785 
L 647.434613 227.020724 
L 657.725657 230.041129 
L 667.084519 232.603744 
L 675.666137 228.490402 
L 683.58977 232.909932 
L 690.949171 252.28388 
L 697.819384 259.678803 
L 704.261408 268.37405 
L 710.325501 285.243811 
L 716.053559 288.218646 
L 721.480877 264.498013 
L 726.637466 262.478977 
L 731.549057 291.046911 
L 736.237878 303.154426 
L 740.723263 327.36269 
L 745.022134 288.248859 
L 749.149385 286.647905 
L 753.118194 355.445908 
L 756.940278 378.741728 
L 760.626099 336.541452 
L 764.185041 336.414974 
L 767.625549 389.143324 
L 770.955252 352.214446 
L 774.181064 327.502175 
L 777.309274 395.046951 
L 780.345615 370.157076 
L 783.295328 434.783856 
L 786.163221 406.485422 
L 788.953709 402.819225 
L 791.670863 420.704335 
L 794.318437 405.239991 
L 796.899907 416.730172 
L 801.877185 463.725602 
L 804.278768 395.634668 
L 806.625834 426.403318 
L 808.920802 460.592137 
L 811.165936 460.425223 
L 813.363354 476.773701 
L 815.515042 468.524069 
L 817.622865 488.703918 
L 819.688575 543.12115 
L 821.713822 495.169423 
L 823.700162 523.142492 
L 825.64906 528.530865 
L 827.561903 492.54562 
L 827.561903 492.54562 
" style="fill:none;stroke:#26b7d8;stroke-linecap:square;"/>
   </g>
   <g id="line2d_4">
    <path clip-path="url(#p1964a711ea)" d="M 115.2 118.568005 
L 132.313668 121.999371 
L 146.992943 117.520952 
L 159.844933 118.984074 
L 171.274613 124.832987 
L 181.565657 123.433052 
L 190.924519 124.066848 
L 199.506137 123.167401 
L 207.42977 125.931382 
L 214.789171 126.095151 
L 221.659384 122.787908 
L 228.101408 125.974423 
L 234.165501 125.828737 
L 245.320877 129.24255 
L 250.477466 126.891712 
L 255.389057 128.137919 
L 260.077878 131.294058 
L 264.563263 130.014798 
L 268.862134 129.506829 
L 272.989385 127.808396 
L 276.958194 130.477986 
L 280.780278 130.281764 
L 284.466099 133.381249 
L 288.025041 132.777762 
L 291.465549 134.75335 
L 294.795252 133.772918 
L 298.021064 135.210212 
L 301.149274 135.301231 
L 304.185615 135.784025 
L 307.135328 133.213914 
L 310.003221 136.054671 
L 312.793709 132.871097 
L 315.510863 137.012026 
L 318.158437 137.610807 
L 320.739907 138.907663 
L 323.258492 142.637161 
L 325.717185 137.10141 
L 328.118768 138.702861 
L 330.465834 137.598459 
L 332.760802 138.660158 
L 335.005936 140.916825 
L 337.203354 142.111079 
L 339.355042 139.226801 
L 341.462865 139.96321 
L 353.28 141.752504 
L 370.393668 145.012812 
L 385.072943 145.516404 
L 397.924933 149.599727 
L 409.354613 152.135031 
L 419.645657 154.198971 
L 429.004519 152.741397 
L 437.586137 149.640767 
L 445.50977 161.222702 
L 452.869171 155.550855 
L 459.739384 161.031041 
L 466.181408 158.928772 
L 472.245501 166.542061 
L 477.973559 166.986441 
L 483.400877 164.072304 
L 488.557466 165.838892 
L 493.469057 168.368441 
L 498.157878 169.678306 
L 502.643263 168.373843 
L 506.942134 176.259775 
L 511.069385 174.493589 
L 515.038194 176.184195 
L 518.860278 175.654417 
L 522.546099 174.04382 
L 526.105041 180.713872 
L 529.545549 186.026394 
L 532.875252 182.317651 
L 536.101064 184.881706 
L 542.265615 194.761261 
L 545.215328 188.953234 
L 548.083221 189.725061 
L 550.873709 186.359358 
L 553.590863 187.253778 
L 556.238437 190.92072 
L 561.338492 184.989702 
L 563.797185 187.878656 
L 566.198768 193.445519 
L 568.545834 189.983006 
L 570.840802 199.671185 
L 573.085936 200.291373 
L 575.283354 196.478738 
L 577.435042 198.087969 
L 579.542865 195.974121 
L 591.36 195.093205 
L 608.473668 196.814918 
L 623.152943 195.916702 
L 636.004933 214.34574 
L 647.434613 213.969475 
L 657.725657 236.284957 
L 667.084519 237.029478 
L 675.666137 227.569449 
L 683.58977 252.676742 
L 690.949171 227.776821 
L 697.819384 253.710588 
L 704.261408 288.555738 
L 710.325501 274.367255 
L 716.053559 258.795309 
L 721.480877 256.24189 
L 726.637466 298.527544 
L 731.549057 306.067238 
L 736.237878 292.219035 
L 740.723263 297.007904 
L 745.022134 303.566528 
L 749.149385 314.210225 
L 753.118194 338.896187 
L 756.940278 329.858489 
L 760.626099 345.049023 
L 764.185041 386.710049 
L 767.625549 332.69807 
L 770.955252 379.484607 
L 774.181064 341.09338 
L 777.309274 350.286069 
L 780.345615 395.408796 
L 783.295328 349.638702 
L 786.163221 426.411248 
L 788.953709 495.623832 
L 791.670863 331.544106 
L 794.318437 449.628431 
L 796.899907 415.972394 
L 799.418492 402.308852 
L 801.877185 490.11812 
L 804.278768 406.680152 
L 806.625834 434.960979 
L 808.920802 493.134605 
L 811.165936 449.590305 
L 813.363354 463.934804 
L 815.515042 475.218774 
L 817.622865 379.139416 
L 819.688575 531.431615 
L 821.713822 501.069721 
L 823.700162 464.68486 
L 825.64906 494.686576 
L 827.561903 547.442965 
L 827.561903 547.442965 
" style="fill:none;stroke:#8414a4;stroke-linecap:square;"/>
   </g>
   <g id="line2d_5">
    <path clip-path="url(#p1964a711ea)" d="M 115.2 123.759974 
L 132.313668 119.849447 
L 146.992943 123.746024 
L 159.844933 120.119084 
L 171.274613 118.192466 
L 181.565657 121.059353 
L 190.924519 122.291959 
L 199.506137 120.087707 
L 207.42977 126.977851 
L 214.789171 125.549293 
L 221.659384 127.23625 
L 228.101408 124.709741 
L 234.165501 126.176405 
L 239.893559 126.698863 
L 245.320877 128.860931 
L 250.477466 126.622758 
L 255.389057 127.618049 
L 260.077878 127.901493 
L 264.563263 129.569239 
L 268.862134 132.397417 
L 272.989385 131.151266 
L 276.958194 130.430345 
L 280.780278 133.870072 
L 284.466099 130.160711 
L 288.025041 131.622608 
L 291.465549 132.105947 
L 294.795252 132.859923 
L 298.021064 134.455083 
L 301.149274 132.994962 
L 307.135328 135.524665 
L 310.003221 136.748097 
L 312.793709 132.364876 
L 315.510863 134.726053 
L 318.158437 138.148546 
L 320.739907 137.764878 
L 323.258492 138.57982 
L 325.717185 138.380706 
L 328.118768 137.765876 
L 330.465834 138.195114 
L 332.760802 136.851486 
L 335.005936 138.051574 
L 337.203354 142.785072 
L 339.355042 139.337104 
L 341.462865 135.695819 
L 353.28 135.304456 
L 370.393668 141.408497 
L 385.072943 140.326984 
L 397.924933 146.824689 
L 409.354613 146.961615 
L 419.645657 150.95161 
L 429.004519 147.313473 
L 437.586137 146.971553 
L 445.50977 152.378623 
L 452.869171 155.414308 
L 459.739384 152.775931 
L 466.181408 159.172304 
L 472.245501 157.24245 
L 477.973559 156.750235 
L 483.400877 161.596509 
L 488.557466 158.093237 
L 493.469057 162.894521 
L 498.157878 166.408435 
L 502.643263 160.928816 
L 506.942134 166.426648 
L 511.069385 162.137215 
L 515.038194 176.37267 
L 518.860278 169.346141 
L 522.546099 181.802718 
L 526.105041 171.909765 
L 529.545549 175.977416 
L 532.875252 173.618406 
L 536.101064 177.570337 
L 539.229274 184.467581 
L 542.265615 179.504837 
L 545.215328 180.271305 
L 548.083221 182.406335 
L 550.873709 180.688376 
L 553.590863 189.40533 
L 556.238437 184.52637 
L 558.819907 198.399348 
L 561.338492 188.517644 
L 563.797185 192.806061 
L 566.198768 178.29127 
L 568.545834 195.735615 
L 570.840802 188.110903 
L 573.085936 189.446927 
L 575.283354 186.723243 
L 577.435042 187.468486 
L 579.542865 202.168275 
L 591.36 196.626028 
L 608.473668 207.579942 
L 623.152943 206.067271 
L 636.004933 209.571566 
L 647.434613 201.287834 
L 657.725657 219.621021 
L 667.084519 250.195238 
L 675.666137 226.146335 
L 683.58977 229.847968 
L 690.949171 256.130197 
L 697.819384 233.98287 
L 704.261408 231.463417 
L 710.325501 252.773296 
L 716.053559 267.607697 
L 721.480877 273.986137 
L 726.637466 288.967827 
L 731.549057 273.229271 
L 736.237878 310.354323 
L 740.723263 308.788244 
L 745.022134 329.84199 
L 749.149385 306.497514 
L 753.118194 350.089987 
L 756.940278 367.063062 
L 760.626099 354.242354 
L 764.185041 365.802453 
L 767.625549 364.763316 
L 770.955252 367.652461 
L 774.181064 355.065255 
L 777.309274 382.482812 
L 780.345615 358.55746 
L 783.295328 393.871339 
L 786.163221 367.01511 
L 788.953709 390.001567 
L 791.670863 414.567566 
L 794.318437 216.258178 
L 796.899907 444.175227 
L 799.418492 408.347694 
L 801.877185 432.759832 
L 804.278768 480.583376 
L 806.625834 499.28709 
L 808.920802 492.601398 
L 811.165936 490.523618 
L 813.363354 446.762746 
L 815.515042 482.588722 
L 817.622865 500.563149 
L 819.688575 531.967695 
L 821.713822 262.573127 
L 823.700162 507.008531 
L 825.64906 491.891375 
L 827.561903 523.269581 
L 827.561903 523.269581 
" style="fill:none;stroke:#ffd23a;stroke-linecap:square;"/>
   </g>
   <g id="line2d_6">
    <path clip-path="url(#p1964a711ea)" d="M 115.2 120.631302 
L 132.313668 116.551341 
L 146.992943 119.767505 
L 171.274613 123.370908 
L 181.565657 121.900972 
L 190.924519 119.643042 
L 199.506137 126.075205 
L 207.42977 123.456435 
L 214.789171 121.881739 
L 221.659384 127.173538 
L 228.101408 127.553116 
L 234.165501 127.324898 
L 239.893559 124.41613 
L 245.320877 127.09006 
L 250.477466 128.707304 
L 255.389057 132.656279 
L 260.077878 129.684698 
L 264.563263 133.323848 
L 268.862134 131.608689 
L 272.989385 134.399393 
L 276.958194 136.826992 
L 280.780278 130.304352 
L 284.466099 133.439345 
L 288.025041 129.631269 
L 291.465549 132.536439 
L 294.795252 129.820819 
L 298.021064 130.320032 
L 301.149274 133.312976 
L 304.185615 137.046933 
L 307.135328 132.920304 
L 310.003221 134.168078 
L 312.793709 134.24694 
L 315.510863 138.346494 
L 318.158437 133.677743 
L 320.739907 137.926958 
L 323.258492 134.978769 
L 325.717185 140.785009 
L 328.118768 136.518922 
L 330.465834 138.46309 
L 332.760802 135.918419 
L 335.005936 140.001199 
L 337.203354 133.856931 
L 339.355042 141.632665 
L 341.462865 140.61599 
L 353.28 140.678 
L 370.393668 146.169585 
L 385.072943 144.472467 
L 397.924933 141.917998 
L 409.354613 144.95428 
L 419.645657 149.713491 
L 429.004519 147.335714 
L 437.586137 146.608393 
L 445.50977 151.506888 
L 452.869171 147.500379 
L 459.739384 152.087292 
L 466.181408 147.506221 
L 472.245501 151.592209 
L 477.973559 150.794859 
L 483.400877 149.381746 
L 488.557466 159.773227 
L 493.469057 157.729738 
L 498.157878 159.014472 
L 502.643263 158.55457 
L 506.942134 159.476415 
L 511.069385 153.145633 
L 515.038194 164.661808 
L 518.860278 164.296635 
L 522.546099 175.879533 
L 526.105041 173.165311 
L 529.545549 172.937574 
L 532.875252 173.365986 
L 536.101064 181.454223 
L 539.229274 171.899312 
L 542.265615 184.606854 
L 545.215328 173.711805 
L 548.083221 169.281097 
L 550.873709 178.147918 
L 553.590863 183.307841 
L 556.238437 172.037707 
L 558.819907 191.5005 
L 561.338492 192.671644 
L 563.797185 186.469548 
L 566.198768 186.44606 
L 568.545834 187.031243 
L 570.840802 186.413549 
L 573.085936 180.266723 
L 575.283354 184.964521 
L 577.435042 191.335401 
L 579.542865 193.938755 
L 591.36 201.862088 
L 608.473668 200.267027 
L 623.152943 202.235056 
L 636.004933 216.114486 
L 647.434613 217.742923 
L 657.725657 212.84849 
L 667.084519 236.474458 
L 675.666137 240.478096 
L 683.58977 246.040069 
L 690.949171 254.524801 
L 697.819384 256.588996 
L 704.261408 269.105745 
L 710.325501 258.96354 
L 716.053559 277.705633 
L 721.480877 309.739702 
L 726.637466 213.723802 
L 731.549057 277.537447 
L 736.237878 251.920249 
L 740.723263 304.452924 
L 745.022134 303.434239 
L 749.149385 337.412527 
L 753.118194 319.557867 
L 756.940278 341.07243 
L 760.626099 327.913703 
L 764.185041 343.742994 
L 767.625549 363.431901 
L 770.955252 324.002701 
L 774.181064 360.562824 
L 777.309274 355.788665 
L 780.345615 379.755586 
L 783.295328 366.621584 
L 786.163221 421.592786 
L 788.953709 367.598538 
L 791.670863 402.370218 
L 794.318437 399.158486 
L 796.899907 419.296054 
L 799.418492 386.244487 
L 801.877185 464.236551 
L 804.278768 427.799898 
L 806.625834 502.065236 
L 808.920802 329.03657 
L 811.165936 447.814673 
L 813.363354 440.983917 
L 815.515042 427.570486 
L 817.622865 483.119343 
L 819.688575 358.209458 
L 821.713822 499.033019 
L 823.700162 449.918154 
L 825.64906 303.445895 
L 827.561903 382.834025 
L 827.561903 382.834025 
" style="fill:none;stroke:#ff9300;stroke-linecap:square;"/>
   </g>
   <g id="line2d_7">
    <path clip-path="url(#p1964a711ea)" d="M 115.2 124.697124 
L 132.313668 120.130294 
L 146.992943 119.835129 
L 159.844933 118.599231 
L 171.274613 123.524275 
L 181.565657 121.531087 
L 199.506137 121.009697 
L 207.42977 123.67159 
L 214.789171 125.114665 
L 221.659384 125.919313 
L 228.101408 131.28076 
L 234.165501 124.025682 
L 239.893559 123.562756 
L 245.320877 124.360789 
L 250.477466 128.81012 
L 255.389057 125.429554 
L 260.077878 127.760978 
L 264.563263 129.592783 
L 268.862134 129.646629 
L 272.989385 131.011096 
L 276.958194 126.091463 
L 280.780278 130.489306 
L 284.466099 139.702057 
L 288.025041 131.218561 
L 291.465549 131.713903 
L 294.795252 127.684596 
L 298.021064 133.786746 
L 301.149274 133.479756 
L 304.185615 132.333072 
L 307.135328 132.119927 
L 310.003221 134.480347 
L 312.793709 132.596746 
L 315.510863 139.293983 
L 318.158437 134.797754 
L 320.739907 136.163268 
L 323.258492 136.778091 
L 325.717185 130.557617 
L 328.118768 138.07629 
L 330.465834 137.48156 
L 332.760802 135.633 
L 335.005936 141.935935 
L 337.203354 138.609452 
L 339.355042 133.14526 
L 341.462865 137.04611 
L 353.28 143.776078 
L 370.393668 144.915134 
L 385.072943 147.717748 
L 397.924933 145.789706 
L 409.354613 145.262108 
L 419.645657 142.814567 
L 429.004519 146.370735 
L 437.586137 144.694451 
L 445.50977 143.845786 
L 452.869171 150.06032 
L 459.739384 152.106213 
L 466.181408 147.575016 
L 472.245501 150.288712 
L 477.973559 154.318299 
L 483.400877 156.98514 
L 488.557466 153.969449 
L 493.469057 152.568904 
L 498.157878 153.057556 
L 502.643263 149.864006 
L 506.942134 160.288608 
L 511.069385 150.807827 
L 515.038194 155.939215 
L 518.860278 166.331381 
L 522.546099 161.012238 
L 526.105041 161.624846 
L 529.545549 167.780874 
L 532.875252 164.706448 
L 536.101064 173.036425 
L 539.229274 171.013209 
L 542.265615 176.638081 
L 545.215328 173.715328 
L 548.083221 181.016789 
L 550.873709 170.682877 
L 553.590863 179.638775 
L 556.238437 187.034281 
L 558.819907 179.945414 
L 561.338492 183.572126 
L 563.797185 184.449129 
L 566.198768 180.833796 
L 568.545834 185.969749 
L 570.840802 193.581307 
L 573.085936 183.12231 
L 575.283354 185.03678 
L 577.435042 188.641713 
L 579.542865 197.975824 
L 591.36 189.427796 
L 608.473668 184.342288 
L 623.152943 197.0052 
L 636.004933 196.810765 
L 647.434613 235.411865 
L 657.725657 220.273041 
L 667.084519 223.588451 
L 675.666137 200.631046 
L 683.58977 257.682118 
L 690.949171 203.478527 
L 697.819384 243.58308 
L 704.261408 249.184732 
L 710.325501 265.833893 
L 716.053559 249.701358 
L 721.480877 261.385833 
L 726.637466 286.507626 
L 731.549057 275.324141 
L 736.237878 285.230001 
L 740.723263 280.616734 
L 745.022134 292.939688 
L 749.149385 277.53478 
L 753.118194 279.187833 
L 756.940278 320.1153 
L 760.626099 227.159503 
L 764.185041 304.023165 
L 767.625549 395.338886 
L 770.955252 252.985949 
L 774.181064 362.208038 
L 777.309274 319.568751 
L 780.345615 389.862115 
L 783.295328 384.213345 
L 786.163221 366.184853 
L 788.953709 379.777061 
L 791.670863 467.761742 
L 794.318437 357.34613 
L 796.899907 410.452252 
L 799.418492 426.697528 
L 801.877185 422.233763 
L 804.278768 432.200558 
L 806.625834 425.634129 
L 808.920802 439.357026 
L 811.165936 442.349588 
L 813.363354 494.455669 
L 815.515042 278.371354 
L 817.622865 383.426597 
L 821.713822 439.281241 
L 823.700162 510.860866 
L 825.64906 514.598706 
L 827.561903 478.100291 
L 827.561903 478.100291 
" style="fill:none;stroke:#f50fe6;stroke-linecap:square;"/>
   </g>
   <g id="line2d_8">
    <path clip-path="url(#p1964a711ea)" d="M 115.2 116.976217 
L 132.313668 122.17598 
L 146.992943 125.134426 
L 159.844933 121.083093 
L 171.274613 127.118148 
L 181.565657 122.193792 
L 190.924519 119.626713 
L 199.506137 123.309342 
L 207.42977 127.63637 
L 214.789171 125.040074 
L 221.659384 126.714636 
L 228.101408 126.233601 
L 239.893559 124.019029 
L 245.320877 127.359732 
L 250.477466 133.064743 
L 255.389057 135.169494 
L 260.077878 127.354623 
L 264.563263 129.290906 
L 268.862134 130.479595 
L 272.989385 124.440941 
L 276.958194 127.479293 
L 284.466099 135.034974 
L 288.025041 130.846731 
L 291.465549 135.577537 
L 294.795252 136.08032 
L 298.021064 133.064859 
L 301.149274 136.156512 
L 304.185615 128.30352 
L 307.135328 136.381721 
L 310.003221 136.999186 
L 312.793709 135.886875 
L 315.510863 136.302903 
L 318.158437 132.598072 
L 320.739907 132.467591 
L 323.258492 133.527105 
L 325.717185 137.715454 
L 328.118768 142.057925 
L 330.465834 137.610366 
L 332.760802 139.525547 
L 337.203354 135.931097 
L 339.355042 137.214139 
L 341.462865 136.808593 
L 353.28 144.950854 
L 370.393668 137.3617 
L 385.072943 142.852765 
L 397.924933 142.666877 
L 409.354613 145.720613 
L 419.645657 149.171618 
L 429.004519 142.753001 
L 437.586137 150.779564 
L 445.50977 146.673788 
L 452.869171 148.491125 
L 459.739384 150.451362 
L 466.181408 149.263115 
L 472.245501 147.462638 
L 477.973559 144.673884 
L 483.400877 148.246536 
L 488.557466 157.409884 
L 493.469057 148.712098 
L 498.157878 146.824002 
L 502.643263 156.012448 
L 506.942134 143.998184 
L 511.069385 162.001845 
L 515.038194 151.190906 
L 518.860278 159.212194 
L 522.546099 161.257419 
L 526.105041 155.678844 
L 529.545549 166.203091 
L 532.875252 167.715015 
L 536.101064 163.844708 
L 539.229274 164.570551 
L 542.265615 170.530138 
L 545.215328 172.766722 
L 548.083221 172.962203 
L 550.873709 167.247881 
L 553.590863 177.074394 
L 556.238437 168.89077 
L 558.819907 181.22592 
L 561.338492 176.724626 
L 563.797185 185.109206 
L 566.198768 185.924337 
L 568.545834 170.983131 
L 570.840802 186.667659 
L 573.085936 199.69506 
L 575.283354 181.651376 
L 577.435042 177.487669 
L 579.542865 174.087926 
L 591.36 183.314823 
L 608.473668 192.896556 
L 623.152943 207.901925 
L 636.004933 195.516014 
L 647.434613 230.677628 
L 657.725657 201.935015 
L 667.084519 218.354368 
L 675.666137 223.518374 
L 683.58977 232.210798 
L 690.949171 235.101236 
L 697.819384 244.126179 
L 704.261408 257.884677 
L 710.325501 260.219223 
L 716.053559 239.948572 
L 721.480877 270.603241 
L 726.637466 273.960921 
L 731.549057 284.497246 
L 736.237878 284.108728 
L 740.723263 263.646025 
L 745.022134 292.216674 
L 749.149385 290.500067 
L 753.118194 295.329145 
L 756.940278 283.099938 
L 760.626099 335.543693 
L 764.185041 276.32619 
L 767.625549 415.157213 
L 770.955252 270.279308 
L 774.181064 276.949729 
L 777.309274 359.139937 
L 780.345615 329.289172 
L 783.295328 384.580792 
L 786.163221 398.774571 
L 788.953709 470.834418 
L 791.670863 389.671618 
L 794.318437 415.584216 
L 796.899907 411.584019 
L 799.418492 423.088543 
L 801.877185 375.709696 
L 804.278768 364.940183 
L 806.625834 443.743323 
L 808.920802 471.462706 
L 811.165936 447.561257 
L 813.363354 409.459645 
L 815.515042 489.668763 
L 817.622865 492.902426 
L 819.688575 499.823635 
L 821.713822 458.586678 
L 823.700162 483.063333 
L 825.64906 511.909073 
L 827.561903 463.227064 
L 827.561903 463.227064 
" style="fill:none;stroke:#1000a0;stroke-linecap:square;"/>
   </g>
   <g id="line2d_9">
    <path clip-path="url(#p1964a711ea)" d="M 115.2 121.455338 
L 132.313668 113.706354 
L 146.992943 128.81923 
L 159.844933 125.03531 
L 171.274613 117.393863 
L 181.565657 119.038644 
L 190.924519 123.211618 
L 199.506137 122.838307 
L 207.42977 125.756786 
L 214.789171 127.847845 
L 221.659384 126.059521 
L 228.101408 121.421013 
L 234.165501 127.423206 
L 239.893559 133.833179 
L 245.320877 132.078414 
L 250.477466 129.540369 
L 255.389057 133.69317 
L 260.077878 119.182136 
L 264.563263 130.330362 
L 268.862134 137.156067 
L 272.989385 128.414226 
L 276.958194 131.326856 
L 280.780278 128.580949 
L 284.466099 138.245904 
L 288.025041 139.067225 
L 291.465549 130.73884 
L 294.795252 134.618167 
L 298.021064 128.140484 
L 301.149274 130.372684 
L 304.185615 138.873542 
L 307.135328 131.151826 
L 310.003221 132.175222 
L 312.793709 128.651087 
L 315.510863 131.710261 
L 318.158437 140.290861 
L 320.739907 136.911171 
L 323.258492 139.526297 
L 325.717185 140.236504 
L 328.118768 142.145861 
L 330.465834 134.084139 
L 332.760802 138.041105 
L 335.005936 135.066315 
L 337.203354 138.496538 
L 339.355042 139.040854 
L 341.462865 142.399126 
L 353.28 141.858433 
L 370.393668 142.745629 
L 385.072943 139.561975 
L 397.924933 142.02543 
L 409.354613 145.676415 
L 419.645657 142.871533 
L 429.004519 151.841663 
L 437.586137 149.118706 
L 445.50977 149.232941 
L 452.869171 147.81577 
L 459.739384 148.770837 
L 466.181408 140.466833 
L 472.245501 138.642851 
L 477.973559 149.631373 
L 483.400877 155.062548 
L 488.557466 146.629348 
L 493.469057 153.236983 
L 498.157878 145.565906 
L 502.643263 151.15155 
L 506.942134 150.631335 
L 511.069385 152.032542 
L 515.038194 144.355314 
L 518.860278 157.189317 
L 522.546099 156.43094 
L 526.105041 162.469821 
L 529.545549 161.726645 
L 532.875252 158.728742 
L 539.229274 156.710472 
L 542.265615 152.576735 
L 545.215328 168.496797 
L 548.083221 165.274727 
L 550.873709 161.371307 
L 553.590863 165.280512 
L 556.238437 162.99299 
L 558.819907 167.129932 
L 561.338492 165.695204 
L 563.797185 156.636796 
L 566.198768 173.841235 
L 568.545834 177.915777 
L 570.840802 170.150476 
L 573.085936 184.5772 
L 575.283354 182.704489 
L 577.435042 174.843624 
L 579.542865 185.248891 
L 591.36 194.725158 
L 608.473668 199.45826 
L 623.152943 184.802454 
L 636.004933 199.769645 
L 647.434613 211.038468 
L 657.725657 201.420332 
L 667.084519 226.366827 
L 675.666137 208.346709 
L 683.58977 214.287111 
L 690.949171 243.476574 
L 697.819384 259.876481 
L 704.261408 243.577759 
L 710.325501 242.331656 
L 716.053559 233.022291 
L 721.480877 292.562198 
L 726.637466 263.235035 
L 731.549057 303.395466 
L 736.237878 242.27103 
L 740.723263 466.58806 
L 745.022134 312.282002 
L 749.149385 277.624597 
L 753.118194 309.549687 
L 756.940278 357.826147 
L 760.626099 411.556308 
L 764.185041 332.881822 
L 767.625549 333.397375 
L 770.955252 335.747908 
L 774.181064 332.861102 
L 777.309274 359.851057 
L 780.345615 399.812652 
L 783.295328 372.702035 
L 786.163221 371.006478 
L 788.953709 523.480043 
L 791.670863 386.171628 
L 794.318437 323.857662 
L 796.899907 428.378586 
L 799.418492 408.606469 
L 801.877185 412.512571 
L 806.625834 484.161256 
L 808.920802 534.673854 
L 811.165936 417.529027 
L 813.363354 457.098245 
L 815.515042 477.828444 
L 817.622865 513.11704 
L 819.688575 472.68414 
L 821.713822 459.341488 
L 823.700162 512.969835 
L 825.64906 460.897425 
L 827.561903 526.468556 
L 827.561903 526.468556 
" style="fill:none;stroke:#595866;stroke-linecap:square;"/>
   </g>
   <g id="line2d_10">
    <path clip-path="url(#p1964a711ea)" d="M 115.2 126.186629 
L 132.313668 124.642655 
L 146.992943 120.417227 
L 159.844933 128.641458 
L 171.274613 122.77141 
L 181.565657 125.812991 
L 190.924519 122.193418 
L 199.506137 128.328567 
L 207.42977 130.73487 
L 214.789171 118.493132 
L 221.659384 120.000274 
L 228.101408 114.735271 
L 234.165501 127.434481 
L 239.893559 130.377256 
L 250.477466 126.808598 
L 255.389057 132.613156 
L 260.077878 120.586289 
L 264.563263 127.575115 
L 268.862134 130.865137 
L 272.989385 133.161881 
L 276.958194 131.258997 
L 280.780278 137.246916 
L 284.466099 133.589163 
L 288.025041 132.519242 
L 291.465549 140.930788 
L 294.795252 129.666103 
L 298.021064 130.870923 
L 301.149274 136.384638 
L 304.185615 132.728634 
L 307.135328 126.614753 
L 310.003221 137.338877 
L 312.793709 134.978553 
L 315.510863 128.134863 
L 318.158437 133.960105 
L 320.739907 132.915485 
L 323.258492 131.258501 
L 325.717185 137.470189 
L 328.118768 141.286798 
L 330.465834 124.296076 
L 332.760802 132.842009 
L 335.005936 143.062115 
L 337.203354 130.353182 
L 339.355042 134.696327 
L 341.462865 144.873291 
L 353.28 143.81162 
L 370.393668 143.257644 
L 385.072943 140.986458 
L 397.924933 142.633415 
L 409.354613 145.20277 
L 419.645657 131.319337 
L 429.004519 140.175678 
L 437.586137 143.080731 
L 445.50977 138.496112 
L 452.869171 139.440276 
L 459.739384 153.202032 
L 466.181408 152.418567 
L 472.245501 141.206113 
L 477.973559 143.739714 
L 483.400877 145.948435 
L 488.557466 136.690832 
L 493.469057 156.29305 
L 498.157878 142.573153 
L 502.643263 151.434402 
L 506.942134 154.341545 
L 511.069385 154.604795 
L 515.038194 149.487829 
L 518.860278 155.317904 
L 522.546099 156.011492 
L 526.105041 154.43383 
L 529.545549 136.668897 
L 532.875252 138.520997 
L 536.101064 157.300013 
L 539.229274 143.634007 
L 542.265615 160.68948 
L 545.215328 165.955152 
L 548.083221 151.939384 
L 550.873709 160.832148 
L 553.590863 166.676849 
L 556.238437 176.51342 
L 558.819907 166.960641 
L 561.338492 173.762236 
L 563.797185 166.196899 
L 566.198768 170.580467 
L 568.545834 168.952612 
L 570.840802 156.330045 
L 573.085936 182.78087 
L 575.283354 163.500381 
L 577.435042 175.996893 
L 579.542865 175.343179 
L 591.36 192.371869 
L 608.473668 209.48004 
L 623.152943 185.457151 
L 636.004933 198.327135 
L 647.434613 194.568013 
L 657.725657 198.35111 
L 667.084519 223.146273 
L 675.666137 221.825724 
L 683.58977 210.41852 
L 690.949171 238.260873 
L 697.819384 206.567168 
L 704.261408 272.370091 
L 710.325501 245.92162 
L 716.053559 256.079883 
L 721.480877 258.1713 
L 726.637466 234.3282 
L 731.549057 287.633355 
L 736.237878 443.415588 
L 740.723263 253.652624 
L 745.022134 311.777728 
L 749.149385 291.214148 
L 753.118194 269.20655 
L 756.940278 244.082293 
L 760.626099 267.489277 
L 764.185041 320.56837 
L 767.625549 336.157183 
L 770.955252 327.986628 
L 774.181064 315.974774 
L 777.309274 351.427207 
L 780.345615 249.936012 
L 783.295328 411.699334 
L 786.163221 356.299487 
L 788.953709 344.185862 
L 791.670863 414.276434 
L 794.318437 393.821928 
L 796.899907 366.029077 
L 799.418492 430.390018 
L 801.877185 499.297496 
L 804.278768 405.277972 
L 806.625834 441.042046 
L 808.920802 416.619981 
L 811.165936 442.46664 
L 813.363354 526.404793 
L 815.515042 388.804141 
L 817.622865 433.015269 
L 819.688575 461.231525 
L 821.713822 468.971671 
L 823.700162 475.898752 
L 825.64906 514.272011 
L 827.561903 518.386212 
L 827.561903 518.386212 
" style="fill:none;stroke:#147f2a;stroke-linecap:square;"/>
   </g>
   <g id="patch_3">
    <path d="M 829.44 551.61 
L 829.44 61.29 
" style="fill:none;stroke:#000000;stroke-linecap:square;stroke-linejoin:miter;"/>
   </g>
   <g id="patch_4">
    <path d="M 115.2 551.61 
L 115.2 61.29 
" style="fill:none;stroke:#000000;stroke-linecap:square;stroke-linejoin:miter;"/>
   </g>
   <g id="patch_5">
    <path d="M 115.2 61.29 
L 829.44 61.29 
" style="fill:none;stroke:#000000;stroke-linecap:square;stroke-linejoin:miter;"/>
   </g>
   <g id="patch_6">
    <path d="M 115.2 551.61 
L 829.44 551.61 
" style="fill:none;stroke:#000000;stroke-linecap:square;stroke-linejoin:miter;"/>
   </g>
   <g id="matplotlib.axis_1">
    <g id="xtick_1">
     <g id="line2d_11">
      <defs>
       <path d="M 0 0 
L 0 -4 
" id="mdbb4c68480" style="stroke:#000000;stroke-width:0.5;"/>
      </defs>
      <g>
       <use style="stroke:#000000;stroke-width:0.5;" x="115.2" xlink:href="#mdbb4c68480" y="551.61"/>
      </g>
     </g>
     <g id="line2d_12">
      <defs>
       <path d="M 0 0 
L 0 4 
" id="m5f47cef998" style="stroke:#000000;stroke-width:0.5;"/>
      </defs>
      <g>
       <use style="stroke:#000000;stroke-width:0.5;" x="115.2" xlink:href="#m5f47cef998" y="61.29"/>
      </g>
     </g>
     <g id="text_1">
      <!-- $\mathdefault{10^{-3}}$ -->
      <defs>
       <path d="M 12.40625 8.296875 
L 28.515625 8.296875 
L 28.515625 63.921875 
L 10.984375 60.40625 
L 10.984375 69.390625 
L 28.421875 72.90625 
L 38.28125 72.90625 
L 38.28125 8.296875 
L 54.390625 8.296875 
L 54.390625 0 
L 12.40625 0 
z
" id="BitstreamVeraSans-Roman-31"/>
       <path d="M 4.890625 31.390625 
L 31.203125 31.390625 
L 31.203125 23.390625 
L 4.890625 23.390625 
z
" id="BitstreamVeraSans-Roman-2d"/>
       <path d="M 40.578125 39.3125 
Q 47.65625 37.796875 51.625 33 
Q 55.609375 28.21875 55.609375 21.1875 
Q 55.609375 10.40625 48.1875 4.484375 
Q 40.765625 -1.421875 27.09375 -1.421875 
Q 22.515625 -1.421875 17.65625 -0.515625 
Q 12.796875 0.390625 7.625 2.203125 
L 7.625 11.71875 
Q 11.71875 9.328125 16.59375 8.109375 
Q 21.484375 6.890625 26.8125 6.890625 
Q 36.078125 6.890625 40.9375 10.546875 
Q 45.796875 14.203125 45.796875 21.1875 
Q 45.796875 27.640625 41.28125 31.265625 
Q 36.765625 34.90625 28.71875 34.90625 
L 20.21875 34.90625 
L 20.21875 43.015625 
L 29.109375 43.015625 
Q 36.375 43.015625 40.234375 45.921875 
Q 44.09375 48.828125 44.09375 54.296875 
Q 44.09375 59.90625 40.109375 62.90625 
Q 36.140625 65.921875 28.71875 65.921875 
Q 24.65625 65.921875 20.015625 65.03125 
Q 15.375 64.15625 9.8125 62.3125 
L 9.8125 71.09375 
Q 15.4375 72.65625 20.34375 73.4375 
Q 25.25 74.21875 29.59375 74.21875 
Q 40.828125 74.21875 47.359375 69.109375 
Q 53.90625 64.015625 53.90625 55.328125 
Q 53.90625 49.265625 50.4375 45.09375 
Q 46.96875 40.921875 40.578125 39.3125 
" id="BitstreamVeraSans-Roman-33"/>
       <path d="M 31.78125 66.40625 
Q 24.171875 66.40625 20.328125 58.90625 
Q 16.5 51.421875 16.5 36.375 
Q 16.5 21.390625 20.328125 13.890625 
Q 24.171875 6.390625 31.78125 6.390625 
Q 39.453125 6.390625 43.28125 13.890625 
Q 47.125 21.390625 47.125 36.375 
Q 47.125 51.421875 43.28125 58.90625 
Q 39.453125 66.40625 31.78125 66.40625 
M 31.78125 74.21875 
Q 44.046875 74.21875 50.515625 64.515625 
Q 56.984375 54.828125 56.984375 36.375 
Q 56.984375 17.96875 50.515625 8.265625 
Q 44.046875 -1.421875 31.78125 -1.421875 
Q 19.53125 -1.421875 13.0625 8.265625 
Q 6.59375 17.96875 6.59375 36.375 
Q 6.59375 54.828125 13.0625 64.515625 
Q 19.53125 74.21875 31.78125 74.21875 
" id="BitstreamVeraSans-Roman-30"/>
      </defs>
      <g transform="translate(102.54 565.354375)scale(0.12 -0.12)">
       <use transform="translate(0.0 0.796875)" xlink:href="#BitstreamVeraSans-Roman-31"/>
       <use transform="translate(63.623046875 0.796875)" xlink:href="#BitstreamVeraSans-Roman-30"/>
       <use transform="translate(132.75859375 48.046875)scale(0.7)" xlink:href="#BitstreamVeraSans-Roman-2d"/>
       <use transform="translate(158.0173828125 48.046875)scale(0.7)" xlink:href="#BitstreamVeraSans-Roman-33"/>
      </g>
     </g>
    </g>
    <g id="xtick_2">
     <g id="line2d_13">
      <g>
       <use style="stroke:#000000;stroke-width:0.5;" x="353.28" xlink:href="#mdbb4c68480" y="551.61"/>
      </g>
     </g>
     <g id="line2d_14">
      <g>
       <use style="stroke:#000000;stroke-width:0.5;" x="353.28" xlink:href="#m5f47cef998" y="61.29"/>
      </g>
     </g>
     <g id="text_2">
      <!-- $\mathdefault{10^{-2}}$ -->
      <defs>
       <path d="M 19.1875 8.296875 
L 53.609375 8.296875 
L 53.609375 0 
L 7.328125 0 
L 7.328125 8.296875 
Q 12.9375 14.109375 22.625 23.890625 
Q 32.328125 33.6875 34.8125 36.53125 
Q 39.546875 41.84375 41.421875 45.53125 
Q 43.3125 49.21875 43.3125 52.78125 
Q 43.3125 58.59375 39.234375 62.25 
Q 35.15625 65.921875 28.609375 65.921875 
Q 23.96875 65.921875 18.8125 64.3125 
Q 13.671875 62.703125 7.8125 59.421875 
L 7.8125 69.390625 
Q 13.765625 71.78125 18.9375 73 
Q 24.125 74.21875 28.421875 74.21875 
Q 39.75 74.21875 46.484375 68.546875 
Q 53.21875 62.890625 53.21875 53.421875 
Q 53.21875 48.921875 51.53125 44.890625 
Q 49.859375 40.875 45.40625 35.40625 
Q 44.1875 33.984375 37.640625 27.21875 
Q 31.109375 20.453125 19.1875 8.296875 
" id="BitstreamVeraSans-Roman-32"/>
      </defs>
      <g transform="translate(340.62 565.354375)scale(0.12 -0.12)">
       <use transform="translate(0.0 0.796875)" xlink:href="#BitstreamVeraSans-Roman-31"/>
       <use transform="translate(63.623046875 0.796875)" xlink:href="#BitstreamVeraSans-Roman-30"/>
       <use transform="translate(132.75859375 48.046875)scale(0.7)" xlink:href="#BitstreamVeraSans-Roman-2d"/>
       <use transform="translate(158.0173828125 48.046875)scale(0.7)" xlink:href="#BitstreamVeraSans-Roman-32"/>
      </g>
     </g>
    </g>
    <g id="xtick_3">
     <g id="line2d_15">
      <g>
       <use style="stroke:#000000;stroke-width:0.5;" x="591.36" xlink:href="#mdbb4c68480" y="551.61"/>
      </g>
     </g>
     <g id="line2d_16">
      <g>
       <use style="stroke:#000000;stroke-width:0.5;" x="591.36" xlink:href="#m5f47cef998" y="61.29"/>
      </g>
     </g>
     <g id="text_3">
      <!-- $\mathdefault{10^{-1}}$ -->
      <g transform="translate(578.7 565.234375)scale(0.12 -0.12)">
       <use transform="translate(0.0 0.7156250000000028)" xlink:href="#BitstreamVeraSans-Roman-31"/>
       <use transform="translate(63.623046875 0.7156250000000028)" xlink:href="#BitstreamVeraSans-Roman-30"/>
       <use transform="translate(132.75859375 47.965625)scale(0.7)" xlink:href="#BitstreamVeraSans-Roman-2d"/>
       <use transform="translate(158.0173828125 47.965625)scale(0.7)" xlink:href="#BitstreamVeraSans-Roman-31"/>
      </g>
     </g>
    </g>
    <g id="xtick_4">
     <g id="line2d_17">
      <g>
       <use style="stroke:#000000;stroke-width:0.5;" x="829.44" xlink:href="#mdbb4c68480" y="551.61"/>
      </g>
     </g>
     <g id="line2d_18">
      <g>
       <use style="stroke:#000000;stroke-width:0.5;" x="829.44" xlink:href="#m5f47cef998" y="61.29"/>
      </g>
     </g>
     <g id="text_4">
      <!-- $\mathdefault{10^{0}}$ -->
      <g transform="translate(818.28 565.354375)scale(0.12 -0.12)">
       <use transform="translate(0.0 0.796875)" xlink:href="#BitstreamVeraSans-Roman-31"/>
       <use transform="translate(63.623046875 0.796875)" xlink:href="#BitstreamVeraSans-Roman-30"/>
       <use transform="translate(132.75859375 48.046875)scale(0.7)" xlink:href="#BitstreamVeraSans-Roman-30"/>
      </g>
     </g>
    </g>
    <g id="xtick_5">
     <g id="line2d_19">
      <defs>
       <path d="M 0 0 
L 0 -2 
" id="mb594b3be39" style="stroke:#000000;stroke-width:0.5;"/>
      </defs>
      <g>
       <use style="stroke:#000000;stroke-width:0.5;" x="186.869221368" xlink:href="#mb594b3be39" y="551.61"/>
      </g>
     </g>
     <g id="line2d_20">
      <defs>
       <path d="M 0 0 
L 0 2 
" id="m9916e53602" style="stroke:#000000;stroke-width:0.5;"/>
      </defs>
      <g>
       <use style="stroke:#000000;stroke-width:0.5;" x="186.869221368" xlink:href="#m9916e53602" y="61.29"/>
      </g>
     </g>
    </g>
    <g id="xtick_6">
     <g id="line2d_21">
      <g>
       <use style="stroke:#000000;stroke-width:0.5;" x="228.793028324" xlink:href="#mb594b3be39" y="551.61"/>
      </g>
     </g>
     <g id="line2d_22">
      <g>
       <use style="stroke:#000000;stroke-width:0.5;" x="228.793028324" xlink:href="#m9916e53602" y="61.29"/>
      </g>
     </g>
    </g>
    <g id="xtick_7">
     <g id="line2d_23">
      <g>
       <use style="stroke:#000000;stroke-width:0.5;" x="258.538442735" xlink:href="#mb594b3be39" y="551.61"/>
      </g>
     </g>
     <g id="line2d_24">
      <g>
       <use style="stroke:#000000;stroke-width:0.5;" x="258.538442735" xlink:href="#m9916e53602" y="61.29"/>
      </g>
     </g>
    </g>
    <g id="xtick_8">
     <g id="line2d_25">
      <g>
       <use style="stroke:#000000;stroke-width:0.5;" x="281.610778632" xlink:href="#mb594b3be39" y="551.61"/>
      </g>
     </g>
     <g id="line2d_26">
      <g>
       <use style="stroke:#000000;stroke-width:0.5;" x="281.610778632" xlink:href="#m9916e53602" y="61.29"/>
      </g>
     </g>
    </g>
    <g id="xtick_9">
     <g id="line2d_27">
      <g>
       <use style="stroke:#000000;stroke-width:0.5;" x="300.462249691" xlink:href="#mb594b3be39" y="551.61"/>
      </g>
     </g>
     <g id="line2d_28">
      <g>
       <use style="stroke:#000000;stroke-width:0.5;" x="300.462249691" xlink:href="#m9916e53602" y="61.29"/>
      </g>
     </g>
    </g>
    <g id="xtick_10">
     <g id="line2d_29">
      <g>
       <use style="stroke:#000000;stroke-width:0.5;" x="316.400941367" xlink:href="#mb594b3be39" y="551.61"/>
      </g>
     </g>
     <g id="line2d_30">
      <g>
       <use style="stroke:#000000;stroke-width:0.5;" x="316.400941367" xlink:href="#m9916e53602" y="61.29"/>
      </g>
     </g>
    </g>
    <g id="xtick_11">
     <g id="line2d_31">
      <g>
       <use style="stroke:#000000;stroke-width:0.5;" x="330.207664103" xlink:href="#mb594b3be39" y="551.61"/>
      </g>
     </g>
     <g id="line2d_32">
      <g>
       <use style="stroke:#000000;stroke-width:0.5;" x="330.207664103" xlink:href="#m9916e53602" y="61.29"/>
      </g>
     </g>
    </g>
    <g id="xtick_12">
     <g id="line2d_33">
      <g>
       <use style="stroke:#000000;stroke-width:0.5;" x="342.386056647" xlink:href="#mb594b3be39" y="551.61"/>
      </g>
     </g>
     <g id="line2d_34">
      <g>
       <use style="stroke:#000000;stroke-width:0.5;" x="342.386056647" xlink:href="#m9916e53602" y="61.29"/>
      </g>
     </g>
    </g>
    <g id="xtick_13">
     <g id="line2d_35">
      <g>
       <use style="stroke:#000000;stroke-width:0.5;" x="424.949221368" xlink:href="#mb594b3be39" y="551.61"/>
      </g>
     </g>
     <g id="line2d_36">
      <g>
       <use style="stroke:#000000;stroke-width:0.5;" x="424.949221368" xlink:href="#m9916e53602" y="61.29"/>
      </g>
     </g>
    </g>
    <g id="xtick_14">
     <g id="line2d_37">
      <g>
       <use style="stroke:#000000;stroke-width:0.5;" x="466.873028324" xlink:href="#mb594b3be39" y="551.61"/>
      </g>
     </g>
     <g id="line2d_38">
      <g>
       <use style="stroke:#000000;stroke-width:0.5;" x="466.873028324" xlink:href="#m9916e53602" y="61.29"/>
      </g>
     </g>
    </g>
    <g id="xtick_15">
     <g id="line2d_39">
      <g>
       <use style="stroke:#000000;stroke-width:0.5;" x="496.618442735" xlink:href="#mb594b3be39" y="551.61"/>
      </g>
     </g>
     <g id="line2d_40">
      <g>
       <use style="stroke:#000000;stroke-width:0.5;" x="496.618442735" xlink:href="#m9916e53602" y="61.29"/>
      </g>
     </g>
    </g>
    <g id="xtick_16">
     <g id="line2d_41">
      <g>
       <use style="stroke:#000000;stroke-width:0.5;" x="519.690778632" xlink:href="#mb594b3be39" y="551.61"/>
      </g>
     </g>
     <g id="line2d_42">
      <g>
       <use style="stroke:#000000;stroke-width:0.5;" x="519.690778632" xlink:href="#m9916e53602" y="61.29"/>
      </g>
     </g>
    </g>
    <g id="xtick_17">
     <g id="line2d_43">
      <g>
       <use style="stroke:#000000;stroke-width:0.5;" x="538.542249691" xlink:href="#mb594b3be39" y="551.61"/>
      </g>
     </g>
     <g id="line2d_44">
      <g>
       <use style="stroke:#000000;stroke-width:0.5;" x="538.542249691" xlink:href="#m9916e53602" y="61.29"/>
      </g>
     </g>
    </g>
    <g id="xtick_18">
     <g id="line2d_45">
      <g>
       <use style="stroke:#000000;stroke-width:0.5;" x="554.480941367" xlink:href="#mb594b3be39" y="551.61"/>
      </g>
     </g>
     <g id="line2d_46">
      <g>
       <use style="stroke:#000000;stroke-width:0.5;" x="554.480941367" xlink:href="#m9916e53602" y="61.29"/>
      </g>
     </g>
    </g>
    <g id="xtick_19">
     <g id="line2d_47">
      <g>
       <use style="stroke:#000000;stroke-width:0.5;" x="568.287664103" xlink:href="#mb594b3be39" y="551.61"/>
      </g>
     </g>
     <g id="line2d_48">
      <g>
       <use style="stroke:#000000;stroke-width:0.5;" x="568.287664103" xlink:href="#m9916e53602" y="61.29"/>
      </g>
     </g>
    </g>
    <g id="xtick_20">
     <g id="line2d_49">
      <g>
       <use style="stroke:#000000;stroke-width:0.5;" x="580.466056647" xlink:href="#mb594b3be39" y="551.61"/>
      </g>
     </g>
     <g id="line2d_50">
      <g>
       <use style="stroke:#000000;stroke-width:0.5;" x="580.466056647" xlink:href="#m9916e53602" y="61.29"/>
      </g>
     </g>
    </g>
    <g id="xtick_21">
     <g id="line2d_51">
      <g>
       <use style="stroke:#000000;stroke-width:0.5;" x="663.029221368" xlink:href="#mb594b3be39" y="551.61"/>
      </g>
     </g>
     <g id="line2d_52">
      <g>
       <use style="stroke:#000000;stroke-width:0.5;" x="663.029221368" xlink:href="#m9916e53602" y="61.29"/>
      </g>
     </g>
    </g>
    <g id="xtick_22">
     <g id="line2d_53">
      <g>
       <use style="stroke:#000000;stroke-width:0.5;" x="704.953028324" xlink:href="#mb594b3be39" y="551.61"/>
      </g>
     </g>
     <g id="line2d_54">
      <g>
       <use style="stroke:#000000;stroke-width:0.5;" x="704.953028324" xlink:href="#m9916e53602" y="61.29"/>
      </g>
     </g>
    </g>
    <g id="xtick_23">
     <g id="line2d_55">
      <g>
       <use style="stroke:#000000;stroke-width:0.5;" x="734.698442735" xlink:href="#mb594b3be39" y="551.61"/>
      </g>
     </g>
     <g id="line2d_56">
      <g>
       <use style="stroke:#000000;stroke-width:0.5;" x="734.698442735" xlink:href="#m9916e53602" y="61.29"/>
      </g>
     </g>
    </g>
    <g id="xtick_24">
     <g id="line2d_57">
      <g>
       <use style="stroke:#000000;stroke-width:0.5;" x="757.770778632" xlink:href="#mb594b3be39" y="551.61"/>
      </g>
     </g>
     <g id="line2d_58">
      <g>
       <use style="stroke:#000000;stroke-width:0.5;" x="757.770778632" xlink:href="#m9916e53602" y="61.29"/>
      </g>
     </g>
    </g>
    <g id="xtick_25">
     <g id="line2d_59">
      <g>
       <use style="stroke:#000000;stroke-width:0.5;" x="776.622249691" xlink:href="#mb594b3be39" y="551.61"/>
      </g>
     </g>
     <g id="line2d_60">
      <g>
       <use style="stroke:#000000;stroke-width:0.5;" x="776.622249691" xlink:href="#m9916e53602" y="61.29"/>
      </g>
     </g>
    </g>
    <g id="xtick_26">
     <g id="line2d_61">
      <g>
       <use style="stroke:#000000;stroke-width:0.5;" x="792.560941367" xlink:href="#mb594b3be39" y="551.61"/>
      </g>
     </g>
     <g id="line2d_62">
      <g>
       <use style="stroke:#000000;stroke-width:0.5;" x="792.560941367" xlink:href="#m9916e53602" y="61.29"/>
      </g>
     </g>
    </g>
    <g id="xtick_27">
     <g id="line2d_63">
      <g>
       <use style="stroke:#000000;stroke-width:0.5;" x="806.367664103" xlink:href="#mb594b3be39" y="551.61"/>
      </g>
     </g>
     <g id="line2d_64">
      <g>
       <use style="stroke:#000000;stroke-width:0.5;" x="806.367664103" xlink:href="#m9916e53602" y="61.29"/>
      </g>
     </g>
    </g>
    <g id="xtick_28">
     <g id="line2d_65">
      <g>
       <use style="stroke:#000000;stroke-width:0.5;" x="818.546056647" xlink:href="#mb594b3be39" y="551.61"/>
      </g>
     </g>
     <g id="line2d_66">
      <g>
       <use style="stroke:#000000;stroke-width:0.5;" x="818.546056647" xlink:href="#m9916e53602" y="61.29"/>
      </g>
     </g>
    </g>
    <g id="text_5">
     <!-- Frequency [kHz] -->
     <defs>
      <path d="M 9.078125 75.984375 
L 18.109375 75.984375 
L 18.109375 31.109375 
L 44.921875 54.6875 
L 56.390625 54.6875 
L 27.390625 29.109375 
L 57.625 0 
L 45.90625 0 
L 18.109375 26.703125 
L 18.109375 0 
L 9.078125 0 
z
" id="BitstreamVeraSans-Roman-6b"/>
      <path d="M 56.203125 29.59375 
L 56.203125 25.203125 
L 14.890625 25.203125 
Q 15.484375 15.921875 20.484375 11.0625 
Q 25.484375 6.203125 34.421875 6.203125 
Q 39.59375 6.203125 44.453125 7.46875 
Q 49.3125 8.734375 54.109375 11.28125 
L 54.109375 2.78125 
Q 49.265625 0.734375 44.1875 -0.34375 
Q 39.109375 -1.421875 33.890625 -1.421875 
Q 20.796875 -1.421875 13.15625 6.1875 
Q 5.515625 13.8125 5.515625 26.8125 
Q 5.515625 40.234375 12.765625 48.109375 
Q 20.015625 56 32.328125 56 
Q 43.359375 56 49.78125 48.890625 
Q 56.203125 41.796875 56.203125 29.59375 
M 47.21875 32.234375 
Q 47.125 39.59375 43.09375 43.984375 
Q 39.0625 48.390625 32.421875 48.390625 
Q 24.90625 48.390625 20.390625 44.140625 
Q 15.875 39.890625 15.1875 32.171875 
z
" id="BitstreamVeraSans-Roman-65"/>
      <path d="M 9.8125 72.90625 
L 51.703125 72.90625 
L 51.703125 64.59375 
L 19.671875 64.59375 
L 19.671875 43.109375 
L 48.578125 43.109375 
L 48.578125 34.8125 
L 19.671875 34.8125 
L 19.671875 0 
L 9.8125 0 
z
" id="BitstreamVeraSans-Roman-46"/>
      <path d="M 48.78125 52.59375 
L 48.78125 44.1875 
Q 44.96875 46.296875 41.140625 47.34375 
Q 37.3125 48.390625 33.40625 48.390625 
Q 24.65625 48.390625 19.8125 42.84375 
Q 14.984375 37.3125 14.984375 27.296875 
Q 14.984375 17.28125 19.8125 11.734375 
Q 24.65625 6.203125 33.40625 6.203125 
Q 37.3125 6.203125 41.140625 7.25 
Q 44.96875 8.296875 48.78125 10.40625 
L 48.78125 2.09375 
Q 45.015625 0.34375 40.984375 -0.53125 
Q 36.96875 -1.421875 32.421875 -1.421875 
Q 20.0625 -1.421875 12.78125 6.34375 
Q 5.515625 14.109375 5.515625 27.296875 
Q 5.515625 40.671875 12.859375 48.328125 
Q 20.21875 56 33.015625 56 
Q 37.15625 56 41.109375 55.140625 
Q 45.0625 54.296875 48.78125 52.59375 
" id="BitstreamVeraSans-Roman-63"/>
      <path d="M 9.8125 72.90625 
L 19.671875 72.90625 
L 19.671875 43.015625 
L 55.515625 43.015625 
L 55.515625 72.90625 
L 65.375 72.90625 
L 65.375 0 
L 55.515625 0 
L 55.515625 34.71875 
L 19.671875 34.71875 
L 19.671875 0 
L 9.8125 0 
z
" id="BitstreamVeraSans-Roman-48"/>
      <path d="M 14.796875 27.296875 
Q 14.796875 17.390625 18.875 11.75 
Q 22.953125 6.109375 30.078125 6.109375 
Q 37.203125 6.109375 41.296875 11.75 
Q 45.40625 17.390625 45.40625 27.296875 
Q 45.40625 37.203125 41.296875 42.84375 
Q 37.203125 48.484375 30.078125 48.484375 
Q 22.953125 48.484375 18.875 42.84375 
Q 14.796875 37.203125 14.796875 27.296875 
M 45.40625 8.203125 
Q 42.578125 3.328125 38.25 0.953125 
Q 33.9375 -1.421875 27.875 -1.421875 
Q 17.96875 -1.421875 11.734375 6.484375 
Q 5.515625 14.40625 5.515625 27.296875 
Q 5.515625 40.1875 11.734375 48.09375 
Q 17.96875 56 27.875 56 
Q 33.9375 56 38.25 53.625 
Q 42.578125 51.265625 45.40625 46.390625 
L 45.40625 54.6875 
L 54.390625 54.6875 
L 54.390625 -20.796875 
L 45.40625 -20.796875 
z
" id="BitstreamVeraSans-Roman-71"/>
      <path d="M 54.890625 33.015625 
L 54.890625 0 
L 45.90625 0 
L 45.90625 32.71875 
Q 45.90625 40.484375 42.875 44.328125 
Q 39.84375 48.1875 33.796875 48.1875 
Q 26.515625 48.1875 22.3125 43.546875 
Q 18.109375 38.921875 18.109375 30.90625 
L 18.109375 0 
L 9.078125 0 
L 9.078125 54.6875 
L 18.109375 54.6875 
L 18.109375 46.1875 
Q 21.34375 51.125 25.703125 53.5625 
Q 30.078125 56 35.796875 56 
Q 45.21875 56 50.046875 50.171875 
Q 54.890625 44.34375 54.890625 33.015625 
" id="BitstreamVeraSans-Roman-6e"/>
      <path d="M 41.109375 46.296875 
Q 39.59375 47.171875 37.8125 47.578125 
Q 36.03125 48 33.890625 48 
Q 26.265625 48 22.1875 43.046875 
Q 18.109375 38.09375 18.109375 28.8125 
L 18.109375 0 
L 9.078125 0 
L 9.078125 54.6875 
L 18.109375 54.6875 
L 18.109375 46.1875 
Q 20.953125 51.171875 25.484375 53.578125 
Q 30.03125 56 36.53125 56 
Q 37.453125 56 38.578125 55.875 
Q 39.703125 55.765625 41.0625 55.515625 
z
" id="BitstreamVeraSans-Roman-72"/>
      <path d="M 32.171875 -5.078125 
Q 28.375 -14.84375 24.75 -17.8125 
Q 21.140625 -20.796875 15.09375 -20.796875 
L 7.90625 -20.796875 
L 7.90625 -13.28125 
L 13.1875 -13.28125 
Q 16.890625 -13.28125 18.9375 -11.515625 
Q 21 -9.765625 23.484375 -3.21875 
L 25.09375 0.875 
L 2.984375 54.6875 
L 12.5 54.6875 
L 29.59375 11.921875 
L 46.6875 54.6875 
L 56.203125 54.6875 
z
" id="BitstreamVeraSans-Roman-79"/>
      <path d="M 8.59375 75.984375 
L 29.296875 75.984375 
L 29.296875 69 
L 17.578125 69 
L 17.578125 -6.203125 
L 29.296875 -6.203125 
L 29.296875 -13.1875 
L 8.59375 -13.1875 
z
" id="BitstreamVeraSans-Roman-5b"/>
      <path d="M 30.421875 75.984375 
L 30.421875 -13.1875 
L 9.71875 -13.1875 
L 9.71875 -6.203125 
L 21.390625 -6.203125 
L 21.390625 69 
L 9.71875 69 
L 9.71875 75.984375 
z
" id="BitstreamVeraSans-Roman-5d"/>
      <path d="M 5.515625 54.6875 
L 48.1875 54.6875 
L 48.1875 46.484375 
L 14.40625 7.171875 
L 48.1875 7.171875 
L 48.1875 0 
L 4.296875 0 
L 4.296875 8.203125 
L 38.09375 47.515625 
L 5.515625 47.515625 
z
" id="BitstreamVeraSans-Roman-7a"/>
      <path id="BitstreamVeraSans-Roman-20"/>
      <path d="M 8.5 21.578125 
L 8.5 54.6875 
L 17.484375 54.6875 
L 17.484375 21.921875 
Q 17.484375 14.15625 20.5 10.265625 
Q 23.53125 6.390625 29.59375 6.390625 
Q 36.859375 6.390625 41.078125 11.03125 
Q 45.3125 15.671875 45.3125 23.6875 
L 45.3125 54.6875 
L 54.296875 54.6875 
L 54.296875 0 
L 45.3125 0 
L 45.3125 8.40625 
Q 42.046875 3.421875 37.71875 1 
Q 33.40625 -1.421875 27.6875 -1.421875 
Q 18.265625 -1.421875 13.375 4.4375 
Q 8.5 10.296875 8.5 21.578125 
" id="BitstreamVeraSans-Roman-75"/>
     </defs>
     <g transform="translate(423.0384375 581.968125)scale(0.12 -0.12)">
      <use xlink:href="#BitstreamVeraSans-Roman-46"/>
      <use x="57.41015625" xlink:href="#BitstreamVeraSans-Roman-72"/>
      <use x="98.4921875" xlink:href="#BitstreamVeraSans-Roman-65"/>
      <use x="160.015625" xlink:href="#BitstreamVeraSans-Roman-71"/>
      <use x="223.4921875" xlink:href="#BitstreamVeraSans-Roman-75"/>
      <use x="286.87109375" xlink:href="#BitstreamVeraSans-Roman-65"/>
      <use x="348.39453125" xlink:href="#BitstreamVeraSans-Roman-6e"/>
      <use x="411.7734375" xlink:href="#BitstreamVeraSans-Roman-63"/>
      <use x="466.75390625" xlink:href="#BitstreamVeraSans-Roman-79"/>
      <use x="525.93359375" xlink:href="#BitstreamVeraSans-Roman-20"/>
      <use x="557.720703125" xlink:href="#BitstreamVeraSans-Roman-5b"/>
      <use x="596.734375" xlink:href="#BitstreamVeraSans-Roman-6b"/>
      <use x="654.64453125" xlink:href="#BitstreamVeraSans-Roman-48"/>
      <use x="729.83984375" xlink:href="#BitstreamVeraSans-Roman-7a"/>
      <use x="782.330078125" xlink:href="#BitstreamVeraSans-Roman-5d"/>
     </g>
    </g>
   </g>
   <g id="matplotlib.axis_2">
    <g id="ytick_1">
     <g id="line2d_67">
      <defs>
       <path d="M 0 0 
L 4 0 
" id="mb58140d6b8" style="stroke:#000000;stroke-width:0.5;"/>
      </defs>
      <g>
       <use style="stroke:#000000;stroke-width:0.5;" x="115.2" xlink:href="#mb58140d6b8" y="551.61"/>
      </g>
     </g>
     <g id="line2d_68">
      <defs>
       <path d="M 0 0 
L -4 0 
" id="m757ece98e4" style="stroke:#000000;stroke-width:0.5;"/>
      </defs>
      <g>
       <use style="stroke:#000000;stroke-width:0.5;" x="829.44" xlink:href="#m757ece98e4" y="551.61"/>
      </g>
     </g>
     <g id="text_6">
      <!-- 8 -->
      <defs>
       <path d="M 10.59375 35.5 
L 73.1875 35.5 
L 73.1875 27.203125 
L 10.59375 27.203125 
z
" id="BitstreamVeraSans-Roman-2212"/>
       <path d="M 31.78125 34.625 
Q 24.75 34.625 20.71875 30.859375 
Q 16.703125 27.09375 16.703125 20.515625 
Q 16.703125 13.921875 20.71875 10.15625 
Q 24.75 6.390625 31.78125 6.390625 
Q 38.8125 6.390625 42.859375 10.171875 
Q 46.921875 13.96875 46.921875 20.515625 
Q 46.921875 27.09375 42.890625 30.859375 
Q 38.875 34.625 31.78125 34.625 
M 21.921875 38.8125 
Q 15.578125 40.375 12.03125 44.71875 
Q 8.5 49.078125 8.5 55.328125 
Q 8.5 64.0625 14.71875 69.140625 
Q 20.953125 74.21875 31.78125 74.21875 
Q 42.671875 74.21875 48.875 69.140625 
Q 55.078125 64.0625 55.078125 55.328125 
Q 55.078125 49.078125 51.53125 44.71875 
Q 48 40.375 41.703125 38.8125 
Q 48.828125 37.15625 52.796875 32.3125 
Q 56.78125 27.484375 56.78125 20.515625 
Q 56.78125 9.90625 50.3125 4.234375 
Q 43.84375 -1.421875 31.78125 -1.421875 
Q 19.734375 -1.421875 13.25 4.234375 
Q 6.78125 9.90625 6.78125 20.515625 
Q 6.78125 27.484375 10.78125 32.3125 
Q 14.796875 37.15625 21.921875 38.8125 
M 18.3125 54.390625 
Q 18.3125 48.734375 21.84375 45.5625 
Q 25.390625 42.390625 31.78125 42.390625 
Q 38.140625 42.390625 41.71875 45.5625 
Q 45.3125 48.734375 45.3125 54.390625 
Q 45.3125 60.0625 41.71875 63.234375 
Q 38.140625 66.40625 31.78125 66.40625 
Q 25.390625 66.40625 21.84375 63.234375 
Q 18.3125 60.0625 18.3125 54.390625 
" id="BitstreamVeraSans-Roman-38"/>
      </defs>
      <g transform="translate(93.509375 554.92125)scale(0.12 -0.12)">
       <use xlink:href="#BitstreamVeraSans-Roman-2212"/>
       <use x="83.7890625" xlink:href="#BitstreamVeraSans-Roman-38"/>
      </g>
     </g>
    </g>
    <g id="ytick_2">
     <g id="line2d_69">
      <g>
       <use style="stroke:#000000;stroke-width:0.5;" x="115.2" xlink:href="#mb58140d6b8" y="497.13"/>
      </g>
     </g>
     <g id="line2d_70">
      <g>
       <use style="stroke:#000000;stroke-width:0.5;" x="829.44" xlink:href="#m757ece98e4" y="497.13"/>
      </g>
     </g>
     <g id="text_7">
      <!-- 7 -->
      <defs>
       <path d="M 8.203125 72.90625 
L 55.078125 72.90625 
L 55.078125 68.703125 
L 28.609375 0 
L 18.3125 0 
L 43.21875 64.59375 
L 8.203125 64.59375 
z
" id="BitstreamVeraSans-Roman-37"/>
      </defs>
      <g transform="translate(93.509375 500.44125)scale(0.12 -0.12)">
       <use xlink:href="#BitstreamVeraSans-Roman-2212"/>
       <use x="83.7890625" xlink:href="#BitstreamVeraSans-Roman-37"/>
      </g>
     </g>
    </g>
    <g id="ytick_3">
     <g id="line2d_71">
      <g>
       <use style="stroke:#000000;stroke-width:0.5;" x="115.2" xlink:href="#mb58140d6b8" y="442.65"/>
      </g>
     </g>
     <g id="line2d_72">
      <g>
       <use style="stroke:#000000;stroke-width:0.5;" x="829.44" xlink:href="#m757ece98e4" y="442.65"/>
      </g>
     </g>
     <g id="text_8">
      <!-- 6 -->
      <defs>
       <path d="M 33.015625 40.375 
Q 26.375 40.375 22.484375 35.828125 
Q 18.609375 31.296875 18.609375 23.390625 
Q 18.609375 15.53125 22.484375 10.953125 
Q 26.375 6.390625 33.015625 6.390625 
Q 39.65625 6.390625 43.53125 10.953125 
Q 47.40625 15.53125 47.40625 23.390625 
Q 47.40625 31.296875 43.53125 35.828125 
Q 39.65625 40.375 33.015625 40.375 
M 52.59375 71.296875 
L 52.59375 62.3125 
Q 48.875 64.0625 45.09375 64.984375 
Q 41.3125 65.921875 37.59375 65.921875 
Q 27.828125 65.921875 22.671875 59.328125 
Q 17.53125 52.734375 16.796875 39.40625 
Q 19.671875 43.65625 24.015625 45.921875 
Q 28.375 48.1875 33.59375 48.1875 
Q 44.578125 48.1875 50.953125 41.515625 
Q 57.328125 34.859375 57.328125 23.390625 
Q 57.328125 12.15625 50.6875 5.359375 
Q 44.046875 -1.421875 33.015625 -1.421875 
Q 20.359375 -1.421875 13.671875 8.265625 
Q 6.984375 17.96875 6.984375 36.375 
Q 6.984375 53.65625 15.1875 63.9375 
Q 23.390625 74.21875 37.203125 74.21875 
Q 40.921875 74.21875 44.703125 73.484375 
Q 48.484375 72.75 52.59375 71.296875 
" id="BitstreamVeraSans-Roman-36"/>
      </defs>
      <g transform="translate(93.509375 445.96125)scale(0.12 -0.12)">
       <use xlink:href="#BitstreamVeraSans-Roman-2212"/>
       <use x="83.7890625" xlink:href="#BitstreamVeraSans-Roman-36"/>
      </g>
     </g>
    </g>
    <g id="ytick_4">
     <g id="line2d_73">
      <g>
       <use style="stroke:#000000;stroke-width:0.5;" x="115.2" xlink:href="#mb58140d6b8" y="388.17"/>
      </g>
     </g>
     <g id="line2d_74">
      <g>
       <use style="stroke:#000000;stroke-width:0.5;" x="829.44" xlink:href="#m757ece98e4" y="388.17"/>
      </g>
     </g>
     <g id="text_9">
      <!-- 5 -->
      <defs>
       <path d="M 10.796875 72.90625 
L 49.515625 72.90625 
L 49.515625 64.59375 
L 19.828125 64.59375 
L 19.828125 46.734375 
Q 21.96875 47.46875 24.109375 47.828125 
Q 26.265625 48.1875 28.421875 48.1875 
Q 40.625 48.1875 47.75 41.5 
Q 54.890625 34.8125 54.890625 23.390625 
Q 54.890625 11.625 47.5625 5.09375 
Q 40.234375 -1.421875 26.90625 -1.421875 
Q 22.3125 -1.421875 17.546875 -0.640625 
Q 12.796875 0.140625 7.71875 1.703125 
L 7.71875 11.625 
Q 12.109375 9.234375 16.796875 8.0625 
Q 21.484375 6.890625 26.703125 6.890625 
Q 35.15625 6.890625 40.078125 11.328125 
Q 45.015625 15.765625 45.015625 23.390625 
Q 45.015625 31 40.078125 35.4375 
Q 35.15625 39.890625 26.703125 39.890625 
Q 22.75 39.890625 18.8125 39.015625 
Q 14.890625 38.140625 10.796875 36.28125 
z
" id="BitstreamVeraSans-Roman-35"/>
      </defs>
      <g transform="translate(93.509375 391.48125)scale(0.12 -0.12)">
       <use xlink:href="#BitstreamVeraSans-Roman-2212"/>
       <use x="83.7890625" xlink:href="#BitstreamVeraSans-Roman-35"/>
      </g>
     </g>
    </g>
    <g id="ytick_5">
     <g id="line2d_75">
      <g>
       <use style="stroke:#000000;stroke-width:0.5;" x="115.2" xlink:href="#mb58140d6b8" y="333.69"/>
      </g>
     </g>
     <g id="line2d_76">
      <g>
       <use style="stroke:#000000;stroke-width:0.5;" x="829.44" xlink:href="#m757ece98e4" y="333.69"/>
      </g>
     </g>
     <g id="text_10">
      <!-- 4 -->
      <defs>
       <path d="M 37.796875 64.3125 
L 12.890625 25.390625 
L 37.796875 25.390625 
z
M 35.203125 72.90625 
L 47.609375 72.90625 
L 47.609375 25.390625 
L 58.015625 25.390625 
L 58.015625 17.1875 
L 47.609375 17.1875 
L 47.609375 0 
L 37.796875 0 
L 37.796875 17.1875 
L 4.890625 17.1875 
L 4.890625 26.703125 
z
" id="BitstreamVeraSans-Roman-34"/>
      </defs>
      <g transform="translate(93.509375 337.00125)scale(0.12 -0.12)">
       <use xlink:href="#BitstreamVeraSans-Roman-2212"/>
       <use x="83.7890625" xlink:href="#BitstreamVeraSans-Roman-34"/>
      </g>
     </g>
    </g>
    <g id="ytick_6">
     <g id="line2d_77">
      <g>
       <use style="stroke:#000000;stroke-width:0.5;" x="115.2" xlink:href="#mb58140d6b8" y="279.21"/>
      </g>
     </g>
     <g id="line2d_78">
      <g>
       <use style="stroke:#000000;stroke-width:0.5;" x="829.44" xlink:href="#m757ece98e4" y="279.21"/>
      </g>
     </g>
     <g id="text_11">
      <!-- 3 -->
      <g transform="translate(93.509375 282.52125)scale(0.12 -0.12)">
       <use xlink:href="#BitstreamVeraSans-Roman-2212"/>
       <use x="83.7890625" xlink:href="#BitstreamVeraSans-Roman-33"/>
      </g>
     </g>
    </g>
    <g id="ytick_7">
     <g id="line2d_79">
      <g>
       <use style="stroke:#000000;stroke-width:0.5;" x="115.2" xlink:href="#mb58140d6b8" y="224.73"/>
      </g>
     </g>
     <g id="line2d_80">
      <g>
       <use style="stroke:#000000;stroke-width:0.5;" x="829.44" xlink:href="#m757ece98e4" y="224.73"/>
      </g>
     </g>
     <g id="text_12">
      <!-- 2 -->
      <g transform="translate(93.509375 228.04125)scale(0.12 -0.12)">
       <use xlink:href="#BitstreamVeraSans-Roman-2212"/>
       <use x="83.7890625" xlink:href="#BitstreamVeraSans-Roman-32"/>
      </g>
     </g>
    </g>
    <g id="ytick_8">
     <g id="line2d_81">
      <g>
       <use style="stroke:#000000;stroke-width:0.5;" x="115.2" xlink:href="#mb58140d6b8" y="170.25"/>
      </g>
     </g>
     <g id="line2d_82">
      <g>
       <use style="stroke:#000000;stroke-width:0.5;" x="829.44" xlink:href="#m757ece98e4" y="170.25"/>
      </g>
     </g>
     <g id="text_13">
      <!-- 1 -->
      <g transform="translate(93.509375 173.56125)scale(0.12 -0.12)">
       <use xlink:href="#BitstreamVeraSans-Roman-2212"/>
       <use x="83.7890625" xlink:href="#BitstreamVeraSans-Roman-31"/>
      </g>
     </g>
    </g>
    <g id="ytick_9">
     <g id="line2d_83">
      <g>
       <use style="stroke:#000000;stroke-width:0.5;" x="115.2" xlink:href="#mb58140d6b8" y="115.77"/>
      </g>
     </g>
     <g id="line2d_84">
      <g>
       <use style="stroke:#000000;stroke-width:0.5;" x="829.44" xlink:href="#m757ece98e4" y="115.77"/>
      </g>
     </g>
     <g id="text_14">
      <!-- 0 -->
      <g transform="translate(103.565 119.08125)scale(0.12 -0.12)">
       <use xlink:href="#BitstreamVeraSans-Roman-30"/>
      </g>
     </g>
    </g>
    <g id="ytick_10">
     <g id="line2d_85">
      <g>
       <use style="stroke:#000000;stroke-width:0.5;" x="115.2" xlink:href="#mb58140d6b8" y="61.29"/>
      </g>
     </g>
     <g id="line2d_86">
      <g>
       <use style="stroke:#000000;stroke-width:0.5;" x="829.44" xlink:href="#m757ece98e4" y="61.29"/>
      </g>
     </g>
     <g id="text_15">
      <!-- 1 -->
      <g transform="translate(103.565 64.60125)scale(0.12 -0.12)">
       <use xlink:href="#BitstreamVeraSans-Roman-31"/>
      </g>
     </g>
    </g>
    <g id="text_16">
     <!-- Phase [rad] -->
     <defs>
      <path d="M 44.28125 53.078125 
L 44.28125 44.578125 
Q 40.484375 46.53125 36.375 47.5 
Q 32.28125 48.484375 27.875 48.484375 
Q 21.1875 48.484375 17.84375 46.4375 
Q 14.5 44.390625 14.5 40.28125 
Q 14.5 37.15625 16.890625 35.375 
Q 19.28125 33.59375 26.515625 31.984375 
L 29.59375 31.296875 
Q 39.15625 29.25 43.1875 25.515625 
Q 47.21875 21.78125 47.21875 15.09375 
Q 47.21875 7.46875 41.1875 3.015625 
Q 35.15625 -1.421875 24.609375 -1.421875 
Q 20.21875 -1.421875 15.453125 -0.5625 
Q 10.6875 0.296875 5.421875 2 
L 5.421875 11.28125 
Q 10.40625 8.6875 15.234375 7.390625 
Q 20.0625 6.109375 24.8125 6.109375 
Q 31.15625 6.109375 34.5625 8.28125 
Q 37.984375 10.453125 37.984375 14.40625 
Q 37.984375 18.0625 35.515625 20.015625 
Q 33.0625 21.96875 24.703125 23.78125 
L 21.578125 24.515625 
Q 13.234375 26.265625 9.515625 29.90625 
Q 5.8125 33.546875 5.8125 39.890625 
Q 5.8125 47.609375 11.28125 51.796875 
Q 16.75 56 26.8125 56 
Q 31.78125 56 36.171875 55.265625 
Q 40.578125 54.546875 44.28125 53.078125 
" id="BitstreamVeraSans-Roman-73"/>
      <path d="M 45.40625 46.390625 
L 45.40625 75.984375 
L 54.390625 75.984375 
L 54.390625 0 
L 45.40625 0 
L 45.40625 8.203125 
Q 42.578125 3.328125 38.25 0.953125 
Q 33.9375 -1.421875 27.875 -1.421875 
Q 17.96875 -1.421875 11.734375 6.484375 
Q 5.515625 14.40625 5.515625 27.296875 
Q 5.515625 40.1875 11.734375 48.09375 
Q 17.96875 56 27.875 56 
Q 33.9375 56 38.25 53.625 
Q 42.578125 51.265625 45.40625 46.390625 
M 14.796875 27.296875 
Q 14.796875 17.390625 18.875 11.75 
Q 22.953125 6.109375 30.078125 6.109375 
Q 37.203125 6.109375 41.296875 11.75 
Q 45.40625 17.390625 45.40625 27.296875 
Q 45.40625 37.203125 41.296875 42.84375 
Q 37.203125 48.484375 30.078125 48.484375 
Q 22.953125 48.484375 18.875 42.84375 
Q 14.796875 37.203125 14.796875 27.296875 
" id="BitstreamVeraSans-Roman-64"/>
      <path d="M 54.890625 33.015625 
L 54.890625 0 
L 45.90625 0 
L 45.90625 32.71875 
Q 45.90625 40.484375 42.875 44.328125 
Q 39.84375 48.1875 33.796875 48.1875 
Q 26.515625 48.1875 22.3125 43.546875 
Q 18.109375 38.921875 18.109375 30.90625 
L 18.109375 0 
L 9.078125 0 
L 9.078125 75.984375 
L 18.109375 75.984375 
L 18.109375 46.1875 
Q 21.34375 51.125 25.703125 53.5625 
Q 30.078125 56 35.796875 56 
Q 45.21875 56 50.046875 50.171875 
Q 54.890625 44.34375 54.890625 33.015625 
" id="BitstreamVeraSans-Roman-68"/>
      <path d="M 34.28125 27.484375 
Q 23.390625 27.484375 19.1875 25 
Q 14.984375 22.515625 14.984375 16.5 
Q 14.984375 11.71875 18.140625 8.90625 
Q 21.296875 6.109375 26.703125 6.109375 
Q 34.1875 6.109375 38.703125 11.40625 
Q 43.21875 16.703125 43.21875 25.484375 
L 43.21875 27.484375 
z
M 52.203125 31.203125 
L 52.203125 0 
L 43.21875 0 
L 43.21875 8.296875 
Q 40.140625 3.328125 35.546875 0.953125 
Q 30.953125 -1.421875 24.3125 -1.421875 
Q 15.921875 -1.421875 10.953125 3.296875 
Q 6 8.015625 6 15.921875 
Q 6 25.140625 12.171875 29.828125 
Q 18.359375 34.515625 30.609375 34.515625 
L 43.21875 34.515625 
L 43.21875 35.40625 
Q 43.21875 41.609375 39.140625 45 
Q 35.0625 48.390625 27.6875 48.390625 
Q 23 48.390625 18.546875 47.265625 
Q 14.109375 46.140625 10.015625 43.890625 
L 10.015625 52.203125 
Q 14.9375 54.109375 19.578125 55.046875 
Q 24.21875 56 28.609375 56 
Q 40.484375 56 46.34375 49.84375 
Q 52.203125 43.703125 52.203125 31.203125 
" id="BitstreamVeraSans-Roman-61"/>
      <path d="M 19.671875 64.796875 
L 19.671875 37.40625 
L 32.078125 37.40625 
Q 38.96875 37.40625 42.71875 40.96875 
Q 46.484375 44.53125 46.484375 51.125 
Q 46.484375 57.671875 42.71875 61.234375 
Q 38.96875 64.796875 32.078125 64.796875 
z
M 9.8125 72.90625 
L 32.078125 72.90625 
Q 44.34375 72.90625 50.609375 67.359375 
Q 56.890625 61.8125 56.890625 51.125 
Q 56.890625 40.328125 50.609375 34.8125 
Q 44.34375 29.296875 32.078125 29.296875 
L 19.671875 29.296875 
L 19.671875 0 
L 9.8125 0 
z
" id="BitstreamVeraSans-Roman-50"/>
     </defs>
     <g transform="translate(86.01375 340.9059375)rotate(-90.0)scale(0.12 -0.12)">
      <use xlink:href="#BitstreamVeraSans-Roman-50"/>
      <use x="60.302734375" xlink:href="#BitstreamVeraSans-Roman-68"/>
      <use x="123.681640625" xlink:href="#BitstreamVeraSans-Roman-61"/>
      <use x="184.9609375" xlink:href="#BitstreamVeraSans-Roman-73"/>
      <use x="237.060546875" xlink:href="#BitstreamVeraSans-Roman-65"/>
      <use x="298.583984375" xlink:href="#BitstreamVeraSans-Roman-20"/>
      <use x="330.37109375" xlink:href="#BitstreamVeraSans-Roman-5b"/>
      <use x="369.384765625" xlink:href="#BitstreamVeraSans-Roman-72"/>
      <use x="410.498046875" xlink:href="#BitstreamVeraSans-Roman-61"/>
      <use x="471.77734375" xlink:href="#BitstreamVeraSans-Roman-64"/>
      <use x="535.25390625" xlink:href="#BitstreamVeraSans-Roman-5d"/>
     </g>
    </g>
   </g>
   <g id="text_17">
    <!-- Phase Curve for 5 Hz MFR and 4.5 MOhm -->
    <defs>
     <path d="M 37.109375 75.984375 
L 37.109375 68.5 
L 28.515625 68.5 
Q 23.6875 68.5 21.796875 66.546875 
Q 19.921875 64.59375 19.921875 59.515625 
L 19.921875 54.6875 
L 34.71875 54.6875 
L 34.71875 47.703125 
L 19.921875 47.703125 
L 19.921875 0 
L 10.890625 0 
L 10.890625 47.703125 
L 2.296875 47.703125 
L 2.296875 54.6875 
L 10.890625 54.6875 
L 10.890625 58.5 
Q 10.890625 67.625 15.140625 71.796875 
Q 19.390625 75.984375 28.609375 75.984375 
z
" id="BitstreamVeraSans-Roman-66"/>
     <path d="M 10.6875 12.40625 
L 21 12.40625 
L 21 0 
L 10.6875 0 
z
" id="BitstreamVeraSans-Roman-2e"/>
     <path d="M 39.40625 66.21875 
Q 28.65625 66.21875 22.328125 58.203125 
Q 16.015625 50.203125 16.015625 36.375 
Q 16.015625 22.609375 22.328125 14.59375 
Q 28.65625 6.59375 39.40625 6.59375 
Q 50.140625 6.59375 56.421875 14.59375 
Q 62.703125 22.609375 62.703125 36.375 
Q 62.703125 50.203125 56.421875 58.203125 
Q 50.140625 66.21875 39.40625 66.21875 
M 39.40625 74.21875 
Q 54.734375 74.21875 63.90625 63.9375 
Q 73.09375 53.65625 73.09375 36.375 
Q 73.09375 19.140625 63.90625 8.859375 
Q 54.734375 -1.421875 39.40625 -1.421875 
Q 24.03125 -1.421875 14.8125 8.828125 
Q 5.609375 19.09375 5.609375 36.375 
Q 5.609375 53.65625 14.8125 63.9375 
Q 24.03125 74.21875 39.40625 74.21875 
" id="BitstreamVeraSans-Roman-4f"/>
     <path d="M 52 44.1875 
Q 55.375 50.25 60.0625 53.125 
Q 64.75 56 71.09375 56 
Q 79.640625 56 84.28125 50.015625 
Q 88.921875 44.046875 88.921875 33.015625 
L 88.921875 0 
L 79.890625 0 
L 79.890625 32.71875 
Q 79.890625 40.578125 77.09375 44.375 
Q 74.3125 48.1875 68.609375 48.1875 
Q 61.625 48.1875 57.5625 43.546875 
Q 53.515625 38.921875 53.515625 30.90625 
L 53.515625 0 
L 44.484375 0 
L 44.484375 32.71875 
Q 44.484375 40.625 41.703125 44.40625 
Q 38.921875 48.1875 33.109375 48.1875 
Q 26.21875 48.1875 22.15625 43.53125 
Q 18.109375 38.875 18.109375 30.90625 
L 18.109375 0 
L 9.078125 0 
L 9.078125 54.6875 
L 18.109375 54.6875 
L 18.109375 46.1875 
Q 21.1875 51.21875 25.484375 53.609375 
Q 29.78125 56 35.6875 56 
Q 41.65625 56 45.828125 52.96875 
Q 50 49.953125 52 44.1875 
" id="BitstreamVeraSans-Roman-6d"/>
     <path d="M 9.8125 72.90625 
L 24.515625 72.90625 
L 43.109375 23.296875 
L 61.8125 72.90625 
L 76.515625 72.90625 
L 76.515625 0 
L 66.890625 0 
L 66.890625 64.015625 
L 48.09375 14.015625 
L 38.1875 14.015625 
L 19.390625 64.015625 
L 19.390625 0 
L 9.8125 0 
z
" id="BitstreamVeraSans-Roman-4d"/>
     <path d="M 2.984375 54.6875 
L 12.5 54.6875 
L 29.59375 8.796875 
L 46.6875 54.6875 
L 56.203125 54.6875 
L 35.6875 0 
L 23.484375 0 
z
" id="BitstreamVeraSans-Roman-76"/>
     <path d="M 64.40625 67.28125 
L 64.40625 56.890625 
Q 59.421875 61.53125 53.78125 63.8125 
Q 48.140625 66.109375 41.796875 66.109375 
Q 29.296875 66.109375 22.65625 58.46875 
Q 16.015625 50.828125 16.015625 36.375 
Q 16.015625 21.96875 22.65625 14.328125 
Q 29.296875 6.6875 41.796875 6.6875 
Q 48.140625 6.6875 53.78125 8.984375 
Q 59.421875 11.28125 64.40625 15.921875 
L 64.40625 5.609375 
Q 59.234375 2.09375 53.4375 0.328125 
Q 47.65625 -1.421875 41.21875 -1.421875 
Q 24.65625 -1.421875 15.125 8.703125 
Q 5.609375 18.84375 5.609375 36.375 
Q 5.609375 53.953125 15.125 64.078125 
Q 24.65625 74.21875 41.21875 74.21875 
Q 47.75 74.21875 53.53125 72.484375 
Q 59.328125 70.75 64.40625 67.28125 
" id="BitstreamVeraSans-Roman-43"/>
     <path d="M 30.609375 48.390625 
Q 23.390625 48.390625 19.1875 42.75 
Q 14.984375 37.109375 14.984375 27.296875 
Q 14.984375 17.484375 19.15625 11.84375 
Q 23.34375 6.203125 30.609375 6.203125 
Q 37.796875 6.203125 41.984375 11.859375 
Q 46.1875 17.53125 46.1875 27.296875 
Q 46.1875 37.015625 41.984375 42.703125 
Q 37.796875 48.390625 30.609375 48.390625 
M 30.609375 56 
Q 42.328125 56 49.015625 48.375 
Q 55.71875 40.765625 55.71875 27.296875 
Q 55.71875 13.875 49.015625 6.21875 
Q 42.328125 -1.421875 30.609375 -1.421875 
Q 18.84375 -1.421875 12.171875 6.21875 
Q 5.515625 13.875 5.515625 27.296875 
Q 5.515625 40.765625 12.171875 48.375 
Q 18.84375 56 30.609375 56 
" id="BitstreamVeraSans-Roman-6f"/>
     <path d="M 44.390625 34.1875 
Q 47.5625 33.109375 50.5625 29.59375 
Q 53.5625 26.078125 56.59375 19.921875 
L 66.609375 0 
L 56 0 
L 46.6875 18.703125 
Q 43.0625 26.03125 39.671875 28.421875 
Q 36.28125 30.8125 30.421875 30.8125 
L 19.671875 30.8125 
L 19.671875 0 
L 9.8125 0 
L 9.8125 72.90625 
L 32.078125 72.90625 
Q 44.578125 72.90625 50.734375 67.671875 
Q 56.890625 62.453125 56.890625 51.90625 
Q 56.890625 45.015625 53.6875 40.46875 
Q 50.484375 35.9375 44.390625 34.1875 
M 19.671875 64.796875 
L 19.671875 38.921875 
L 32.078125 38.921875 
Q 39.203125 38.921875 42.84375 42.21875 
Q 46.484375 45.515625 46.484375 51.90625 
Q 46.484375 58.296875 42.84375 61.546875 
Q 39.203125 64.796875 32.078125 64.796875 
z
" id="BitstreamVeraSans-Roman-52"/>
    </defs>
    <g transform="translate(323.79075 56.29)scale(0.144 -0.144)">
     <use xlink:href="#BitstreamVeraSans-Roman-50"/>
     <use x="60.302734375" xlink:href="#BitstreamVeraSans-Roman-68"/>
     <use x="123.681640625" xlink:href="#BitstreamVeraSans-Roman-61"/>
     <use x="184.9609375" xlink:href="#BitstreamVeraSans-Roman-73"/>
     <use x="237.060546875" xlink:href="#BitstreamVeraSans-Roman-65"/>
     <use x="298.583984375" xlink:href="#BitstreamVeraSans-Roman-20"/>
     <use x="330.37109375" xlink:href="#BitstreamVeraSans-Roman-43"/>
     <use x="400.1953125" xlink:href="#BitstreamVeraSans-Roman-75"/>
     <use x="463.57421875" xlink:href="#BitstreamVeraSans-Roman-72"/>
     <use x="504.6875" xlink:href="#BitstreamVeraSans-Roman-76"/>
     <use x="563.8671875" xlink:href="#BitstreamVeraSans-Roman-65"/>
     <use x="625.390625" xlink:href="#BitstreamVeraSans-Roman-20"/>
     <use x="657.177734375" xlink:href="#BitstreamVeraSans-Roman-66"/>
     <use x="692.3828125" xlink:href="#BitstreamVeraSans-Roman-6f"/>
     <use x="753.564453125" xlink:href="#BitstreamVeraSans-Roman-72"/>
     <use x="794.677734375" xlink:href="#BitstreamVeraSans-Roman-20"/>
     <use x="826.46484375" xlink:href="#BitstreamVeraSans-Roman-35"/>
     <use x="890.087890625" xlink:href="#BitstreamVeraSans-Roman-20"/>
     <use x="921.875" xlink:href="#BitstreamVeraSans-Roman-48"/>
     <use x="997.0703125" xlink:href="#BitstreamVeraSans-Roman-7a"/>
     <use x="1049.560546875" xlink:href="#BitstreamVeraSans-Roman-20"/>
     <use x="1081.34765625" xlink:href="#BitstreamVeraSans-Roman-4d"/>
     <use x="1167.626953125" xlink:href="#BitstreamVeraSans-Roman-46"/>
     <use x="1225.146484375" xlink:href="#BitstreamVeraSans-Roman-52"/>
     <use x="1294.62890625" xlink:href="#BitstreamVeraSans-Roman-20"/>
     <use x="1326.416015625" xlink:href="#BitstreamVeraSans-Roman-61"/>
     <use x="1387.6953125" xlink:href="#BitstreamVeraSans-Roman-6e"/>
     <use x="1451.07421875" xlink:href="#BitstreamVeraSans-Roman-64"/>
     <use x="1514.55078125" xlink:href="#BitstreamVeraSans-Roman-20"/>
     <use x="1546.337890625" xlink:href="#BitstreamVeraSans-Roman-34"/>
     <use x="1609.9609375" xlink:href="#BitstreamVeraSans-Roman-2e"/>
     <use x="1641.748046875" xlink:href="#BitstreamVeraSans-Roman-35"/>
     <use x="1705.37109375" xlink:href="#BitstreamVeraSans-Roman-20"/>
     <use x="1737.158203125" xlink:href="#BitstreamVeraSans-Roman-4d"/>
     <use x="1823.4375" xlink:href="#BitstreamVeraSans-Roman-4f"/>
     <use x="1902.1484375" xlink:href="#BitstreamVeraSans-Roman-68"/>
     <use x="1965.52734375" xlink:href="#BitstreamVeraSans-Roman-6d"/>
    </g>
   </g>
   <g id="legend_1">
    <g id="patch_7">
     <path d="M 122.4 544.41 
L 257.98275 544.41 
L 257.98275 328.725 
L 122.4 328.725 
z
" style="fill:#ffffff;stroke:#000000;stroke-linejoin:miter;"/>
    </g>
    <g id="line2d_87">
     <path d="M 132.48 340.38675 
L 152.64 340.38675 
" style="fill:none;stroke:#ff1e1e;stroke-linecap:square;"/>
    </g>
    <g id="line2d_88"/>
    <g id="text_18">
     <!-- Std: 100.0 -->
     <defs>
      <path d="M 18.3125 70.21875 
L 18.3125 54.6875 
L 36.8125 54.6875 
L 36.8125 47.703125 
L 18.3125 47.703125 
L 18.3125 18.015625 
Q 18.3125 11.328125 20.140625 9.421875 
Q 21.96875 7.515625 27.59375 7.515625 
L 36.8125 7.515625 
L 36.8125 0 
L 27.59375 0 
Q 17.1875 0 13.234375 3.875 
Q 9.28125 7.765625 9.28125 18.015625 
L 9.28125 47.703125 
L 2.6875 47.703125 
L 2.6875 54.6875 
L 9.28125 54.6875 
L 9.28125 70.21875 
z
" id="BitstreamVeraSans-Roman-74"/>
      <path d="M 11.71875 12.40625 
L 22.015625 12.40625 
L 22.015625 0 
L 11.71875 0 
z
M 11.71875 51.703125 
L 22.015625 51.703125 
L 22.015625 39.3125 
L 11.71875 39.3125 
z
" id="BitstreamVeraSans-Roman-3a"/>
      <path d="M 53.515625 70.515625 
L 53.515625 60.890625 
Q 47.90625 63.578125 42.921875 64.890625 
Q 37.9375 66.21875 33.296875 66.21875 
Q 25.25 66.21875 20.875 63.09375 
Q 16.5 59.96875 16.5 54.203125 
Q 16.5 49.359375 19.40625 46.890625 
Q 22.3125 44.4375 30.421875 42.921875 
L 36.375 41.703125 
Q 47.40625 39.59375 52.65625 34.296875 
Q 57.90625 29 57.90625 20.125 
Q 57.90625 9.515625 50.796875 4.046875 
Q 43.703125 -1.421875 29.984375 -1.421875 
Q 24.8125 -1.421875 18.96875 -0.25 
Q 13.140625 0.921875 6.890625 3.21875 
L 6.890625 13.375 
Q 12.890625 10.015625 18.65625 8.296875 
Q 24.421875 6.59375 29.984375 6.59375 
Q 38.421875 6.59375 43.015625 9.90625 
Q 47.609375 13.234375 47.609375 19.390625 
Q 47.609375 24.75 44.3125 27.78125 
Q 41.015625 30.8125 33.5 32.328125 
L 27.484375 33.5 
Q 16.453125 35.6875 11.515625 40.375 
Q 6.59375 45.0625 6.59375 53.421875 
Q 6.59375 63.09375 13.40625 68.65625 
Q 20.21875 74.21875 32.171875 74.21875 
Q 37.3125 74.21875 42.625 73.28125 
Q 47.953125 72.359375 53.515625 70.515625 
" id="BitstreamVeraSans-Roman-53"/>
     </defs>
     <g transform="translate(168.48 345.42675)scale(0.144 -0.144)">
      <use xlink:href="#BitstreamVeraSans-Roman-53"/>
      <use x="63.4765625" xlink:href="#BitstreamVeraSans-Roman-74"/>
      <use x="102.685546875" xlink:href="#BitstreamVeraSans-Roman-64"/>
      <use x="166.162109375" xlink:href="#BitstreamVeraSans-Roman-3a"/>
      <use x="199.853515625" xlink:href="#BitstreamVeraSans-Roman-20"/>
      <use x="231.640625" xlink:href="#BitstreamVeraSans-Roman-31"/>
      <use x="295.263671875" xlink:href="#BitstreamVeraSans-Roman-30"/>
      <use x="358.88671875" xlink:href="#BitstreamVeraSans-Roman-30"/>
      <use x="422.509765625" xlink:href="#BitstreamVeraSans-Roman-2e"/>
      <use x="454.296875" xlink:href="#BitstreamVeraSans-Roman-30"/>
     </g>
    </g>
    <g id="line2d_89">
     <path d="M 132.48 361.52325 
L 152.64 361.52325 
" style="fill:none;stroke:#581845;stroke-linecap:square;"/>
    </g>
    <g id="line2d_90"/>
    <g id="text_19">
     <!-- Std: 200.0 -->
     <g transform="translate(168.48 366.56325)scale(0.144 -0.144)">
      <use xlink:href="#BitstreamVeraSans-Roman-53"/>
      <use x="63.4765625" xlink:href="#BitstreamVeraSans-Roman-74"/>
      <use x="102.685546875" xlink:href="#BitstreamVeraSans-Roman-64"/>
      <use x="166.162109375" xlink:href="#BitstreamVeraSans-Roman-3a"/>
      <use x="199.853515625" xlink:href="#BitstreamVeraSans-Roman-20"/>
      <use x="231.640625" xlink:href="#BitstreamVeraSans-Roman-32"/>
      <use x="295.263671875" xlink:href="#BitstreamVeraSans-Roman-30"/>
      <use x="358.88671875" xlink:href="#BitstreamVeraSans-Roman-30"/>
      <use x="422.509765625" xlink:href="#BitstreamVeraSans-Roman-2e"/>
      <use x="454.296875" xlink:href="#BitstreamVeraSans-Roman-30"/>
     </g>
    </g>
    <g id="line2d_91">
     <path d="M 132.48 382.65975 
L 152.64 382.65975 
" style="fill:none;stroke:#26b7d8;stroke-linecap:square;"/>
    </g>
    <g id="line2d_92"/>
    <g id="text_20">
     <!-- Std: 300.0 -->
     <g transform="translate(168.48 387.69975)scale(0.144 -0.144)">
      <use xlink:href="#BitstreamVeraSans-Roman-53"/>
      <use x="63.4765625" xlink:href="#BitstreamVeraSans-Roman-74"/>
      <use x="102.685546875" xlink:href="#BitstreamVeraSans-Roman-64"/>
      <use x="166.162109375" xlink:href="#BitstreamVeraSans-Roman-3a"/>
      <use x="199.853515625" xlink:href="#BitstreamVeraSans-Roman-20"/>
      <use x="231.640625" xlink:href="#BitstreamVeraSans-Roman-33"/>
      <use x="295.263671875" xlink:href="#BitstreamVeraSans-Roman-30"/>
      <use x="358.88671875" xlink:href="#BitstreamVeraSans-Roman-30"/>
      <use x="422.509765625" xlink:href="#BitstreamVeraSans-Roman-2e"/>
      <use x="454.296875" xlink:href="#BitstreamVeraSans-Roman-30"/>
     </g>
    </g>
    <g id="line2d_93">
     <path d="M 132.48 403.79625 
L 152.64 403.79625 
" style="fill:none;stroke:#8414a4;stroke-linecap:square;"/>
    </g>
    <g id="line2d_94"/>
    <g id="text_21">
     <!-- Std: 400.0 -->
     <g transform="translate(168.48 408.83625)scale(0.144 -0.144)">
      <use xlink:href="#BitstreamVeraSans-Roman-53"/>
      <use x="63.4765625" xlink:href="#BitstreamVeraSans-Roman-74"/>
      <use x="102.685546875" xlink:href="#BitstreamVeraSans-Roman-64"/>
      <use x="166.162109375" xlink:href="#BitstreamVeraSans-Roman-3a"/>
      <use x="199.853515625" xlink:href="#BitstreamVeraSans-Roman-20"/>
      <use x="231.640625" xlink:href="#BitstreamVeraSans-Roman-34"/>
      <use x="295.263671875" xlink:href="#BitstreamVeraSans-Roman-30"/>
      <use x="358.88671875" xlink:href="#BitstreamVeraSans-Roman-30"/>
      <use x="422.509765625" xlink:href="#BitstreamVeraSans-Roman-2e"/>
      <use x="454.296875" xlink:href="#BitstreamVeraSans-Roman-30"/>
     </g>
    </g>
    <g id="line2d_95">
     <path d="M 132.48 424.93275 
L 152.64 424.93275 
" style="fill:none;stroke:#ffd23a;stroke-linecap:square;"/>
    </g>
    <g id="line2d_96"/>
    <g id="text_22">
     <!-- Std: 500.0 -->
     <g transform="translate(168.48 429.97275)scale(0.144 -0.144)">
      <use xlink:href="#BitstreamVeraSans-Roman-53"/>
      <use x="63.4765625" xlink:href="#BitstreamVeraSans-Roman-74"/>
      <use x="102.685546875" xlink:href="#BitstreamVeraSans-Roman-64"/>
      <use x="166.162109375" xlink:href="#BitstreamVeraSans-Roman-3a"/>
      <use x="199.853515625" xlink:href="#BitstreamVeraSans-Roman-20"/>
      <use x="231.640625" xlink:href="#BitstreamVeraSans-Roman-35"/>
      <use x="295.263671875" xlink:href="#BitstreamVeraSans-Roman-30"/>
      <use x="358.88671875" xlink:href="#BitstreamVeraSans-Roman-30"/>
      <use x="422.509765625" xlink:href="#BitstreamVeraSans-Roman-2e"/>
      <use x="454.296875" xlink:href="#BitstreamVeraSans-Roman-30"/>
     </g>
    </g>
    <g id="line2d_97">
     <path d="M 132.48 446.06925 
L 152.64 446.06925 
" style="fill:none;stroke:#ff9300;stroke-linecap:square;"/>
    </g>
    <g id="line2d_98"/>
    <g id="text_23">
     <!-- Std: 600.0 -->
     <g transform="translate(168.48 451.10925)scale(0.144 -0.144)">
      <use xlink:href="#BitstreamVeraSans-Roman-53"/>
      <use x="63.4765625" xlink:href="#BitstreamVeraSans-Roman-74"/>
      <use x="102.685546875" xlink:href="#BitstreamVeraSans-Roman-64"/>
      <use x="166.162109375" xlink:href="#BitstreamVeraSans-Roman-3a"/>
      <use x="199.853515625" xlink:href="#BitstreamVeraSans-Roman-20"/>
      <use x="231.640625" xlink:href="#BitstreamVeraSans-Roman-36"/>
      <use x="295.263671875" xlink:href="#BitstreamVeraSans-Roman-30"/>
      <use x="358.88671875" xlink:href="#BitstreamVeraSans-Roman-30"/>
      <use x="422.509765625" xlink:href="#BitstreamVeraSans-Roman-2e"/>
      <use x="454.296875" xlink:href="#BitstreamVeraSans-Roman-30"/>
     </g>
    </g>
    <g id="line2d_99">
     <path d="M 132.48 467.20575 
L 152.64 467.20575 
" style="fill:none;stroke:#f50fe6;stroke-linecap:square;"/>
    </g>
    <g id="line2d_100"/>
    <g id="text_24">
     <!-- Std: 700.0 -->
     <g transform="translate(168.48 472.24575)scale(0.144 -0.144)">
      <use xlink:href="#BitstreamVeraSans-Roman-53"/>
      <use x="63.4765625" xlink:href="#BitstreamVeraSans-Roman-74"/>
      <use x="102.685546875" xlink:href="#BitstreamVeraSans-Roman-64"/>
      <use x="166.162109375" xlink:href="#BitstreamVeraSans-Roman-3a"/>
      <use x="199.853515625" xlink:href="#BitstreamVeraSans-Roman-20"/>
      <use x="231.640625" xlink:href="#BitstreamVeraSans-Roman-37"/>
      <use x="295.263671875" xlink:href="#BitstreamVeraSans-Roman-30"/>
      <use x="358.88671875" xlink:href="#BitstreamVeraSans-Roman-30"/>
      <use x="422.509765625" xlink:href="#BitstreamVeraSans-Roman-2e"/>
      <use x="454.296875" xlink:href="#BitstreamVeraSans-Roman-30"/>
     </g>
    </g>
    <g id="line2d_101">
     <path d="M 132.48 488.34225 
L 152.64 488.34225 
" style="fill:none;stroke:#1000a0;stroke-linecap:square;"/>
    </g>
    <g id="line2d_102"/>
    <g id="text_25">
     <!-- Std: 800.0 -->
     <g transform="translate(168.48 493.38225)scale(0.144 -0.144)">
      <use xlink:href="#BitstreamVeraSans-Roman-53"/>
      <use x="63.4765625" xlink:href="#BitstreamVeraSans-Roman-74"/>
      <use x="102.685546875" xlink:href="#BitstreamVeraSans-Roman-64"/>
      <use x="166.162109375" xlink:href="#BitstreamVeraSans-Roman-3a"/>
      <use x="199.853515625" xlink:href="#BitstreamVeraSans-Roman-20"/>
      <use x="231.640625" xlink:href="#BitstreamVeraSans-Roman-38"/>
      <use x="295.263671875" xlink:href="#BitstreamVeraSans-Roman-30"/>
      <use x="358.88671875" xlink:href="#BitstreamVeraSans-Roman-30"/>
      <use x="422.509765625" xlink:href="#BitstreamVeraSans-Roman-2e"/>
      <use x="454.296875" xlink:href="#BitstreamVeraSans-Roman-30"/>
     </g>
    </g>
    <g id="line2d_103">
     <path d="M 132.48 509.47875 
L 152.64 509.47875 
" style="fill:none;stroke:#595866;stroke-linecap:square;"/>
    </g>
    <g id="line2d_104"/>
    <g id="text_26">
     <!-- Std: 900.0 -->
     <defs>
      <path d="M 10.984375 1.515625 
L 10.984375 10.5 
Q 14.703125 8.734375 18.5 7.8125 
Q 22.3125 6.890625 25.984375 6.890625 
Q 35.75 6.890625 40.890625 13.453125 
Q 46.046875 20.015625 46.78125 33.40625 
Q 43.953125 29.203125 39.59375 26.953125 
Q 35.25 24.703125 29.984375 24.703125 
Q 19.046875 24.703125 12.671875 31.3125 
Q 6.296875 37.9375 6.296875 49.421875 
Q 6.296875 60.640625 12.9375 67.421875 
Q 19.578125 74.21875 30.609375 74.21875 
Q 43.265625 74.21875 49.921875 64.515625 
Q 56.59375 54.828125 56.59375 36.375 
Q 56.59375 19.140625 48.40625 8.859375 
Q 40.234375 -1.421875 26.421875 -1.421875 
Q 22.703125 -1.421875 18.890625 -0.6875 
Q 15.09375 0.046875 10.984375 1.515625 
M 30.609375 32.421875 
Q 37.25 32.421875 41.125 36.953125 
Q 45.015625 41.5 45.015625 49.421875 
Q 45.015625 57.28125 41.125 61.84375 
Q 37.25 66.40625 30.609375 66.40625 
Q 23.96875 66.40625 20.09375 61.84375 
Q 16.21875 57.28125 16.21875 49.421875 
Q 16.21875 41.5 20.09375 36.953125 
Q 23.96875 32.421875 30.609375 32.421875 
" id="BitstreamVeraSans-Roman-39"/>
     </defs>
     <g transform="translate(168.48 514.51875)scale(0.144 -0.144)">
      <use xlink:href="#BitstreamVeraSans-Roman-53"/>
      <use x="63.4765625" xlink:href="#BitstreamVeraSans-Roman-74"/>
      <use x="102.685546875" xlink:href="#BitstreamVeraSans-Roman-64"/>
      <use x="166.162109375" xlink:href="#BitstreamVeraSans-Roman-3a"/>
      <use x="199.853515625" xlink:href="#BitstreamVeraSans-Roman-20"/>
      <use x="231.640625" xlink:href="#BitstreamVeraSans-Roman-39"/>
      <use x="295.263671875" xlink:href="#BitstreamVeraSans-Roman-30"/>
      <use x="358.88671875" xlink:href="#BitstreamVeraSans-Roman-30"/>
      <use x="422.509765625" xlink:href="#BitstreamVeraSans-Roman-2e"/>
      <use x="454.296875" xlink:href="#BitstreamVeraSans-Roman-30"/>
     </g>
    </g>
    <g id="line2d_105">
     <path d="M 132.48 530.61525 
L 152.64 530.61525 
" style="fill:none;stroke:#147f2a;stroke-linecap:square;"/>
    </g>
    <g id="line2d_106"/>
    <g id="text_27">
     <!-- Std: 1000.0 -->
     <g transform="translate(168.48 535.65525)scale(0.144 -0.144)">
      <use xlink:href="#BitstreamVeraSans-Roman-53"/>
      <use x="63.4765625" xlink:href="#BitstreamVeraSans-Roman-74"/>
      <use x="102.685546875" xlink:href="#BitstreamVeraSans-Roman-64"/>
      <use x="166.162109375" xlink:href="#BitstreamVeraSans-Roman-3a"/>
      <use x="199.853515625" xlink:href="#BitstreamVeraSans-Roman-20"/>
      <use x="231.640625" xlink:href="#BitstreamVeraSans-Roman-31"/>
      <use x="295.263671875" xlink:href="#BitstreamVeraSans-Roman-30"/>
      <use x="358.88671875" xlink:href="#BitstreamVeraSans-Roman-30"/>
      <use x="422.509765625" xlink:href="#BitstreamVeraSans-Roman-30"/>
      <use x="486.1328125" xlink:href="#BitstreamVeraSans-Roman-2e"/>
      <use x="517.919921875" xlink:href="#BitstreamVeraSans-Roman-30"/>
     </g>
    </g>
   </g>
  </g>
 </g>
 <defs>
  <clipPath id="p1964a711ea">
   <rect height="490.32" width="714.24" x="115.2" y="61.29"/>
  </clipPath>
 </defs>
</svg>
