<?xml version="1.0" encoding="utf-8" standalone="no"?>
<!DOCTYPE svg PUBLIC "-//W3C//DTD SVG 1.1//EN"
  "http://www.w3.org/Graphics/SVG/1.1/DTD/svg11.dtd">
<!-- Created with matplotlib (http://matplotlib.org/) -->
<svg height="640pt" version="1.1" viewBox="0 0 921 640" width="921pt" xmlns="http://www.w3.org/2000/svg" xmlns:xlink="http://www.w3.org/1999/xlink">
 <defs>
  <style type="text/css">
*{stroke-linecap:butt;stroke-linejoin:round;stroke-miterlimit:100000;}
  </style>
 </defs>
 <g id="figure_1">
  <g id="patch_1">
   <path d="M 0 640.8 
L 921.6 640.8 
L 921.6 0 
L 0 0 
z
" style="fill:#ffffff;"/>
  </g>
  <g id="axes_1">
   <g id="patch_2">
    <path d="M 115.2 576.72 
L 829.44 576.72 
L 829.44 64.08 
L 115.2 64.08 
z
" style="fill:#ffffff;"/>
   </g>
   <g id="line2d_1">
    <path clip-path="url(#p3c5033a2f8)" d="M 115.2 106.909316 
L 132.313668 105.527503 
L 146.992943 105.935298 
L 159.844933 111.197518 
L 171.274613 111.524806 
L 181.565657 111.697153 
L 190.924519 114.073135 
L 199.506137 111.337287 
L 207.42977 104.884343 
L 214.789171 114.146874 
L 221.659384 103.695129 
L 228.101408 112.264319 
L 234.165501 119.274879 
L 239.893559 103.696714 
L 245.320877 111.786679 
L 250.477466 118.840268 
L 255.389057 123.450015 
L 260.077878 106.484086 
L 264.563263 108.370969 
L 276.958194 127.093221 
L 280.780278 129.123272 
L 284.466099 112.271514 
L 288.025041 103.890323 
L 291.465549 106.351847 
L 294.795252 112.278151 
L 301.149274 123.201437 
L 304.185615 128.80734 
L 310.003221 140.057083 
L 312.793709 143.379303 
L 315.510863 108.721012 
L 318.158437 108.064728 
L 320.739907 114.890421 
L 323.258492 103.698217 
L 325.717185 105.88792 
L 328.118768 98.839804 
L 332.760802 109.878214 
L 337.203354 119.040074 
L 341.462865 127.864223 
L 353.28 158.01624 
L 370.393668 108.69926 
L 385.072943 97.300664 
L 397.924933 104.022412 
L 409.354613 134.049147 
L 419.645657 159.928138 
L 429.004519 186.944606 
L 437.586137 216.881613 
L 445.50977 252.860317 
L 452.869171 316.437574 
L 459.739384 314.569105 
L 466.181408 176.430785 
L 472.245501 147.713272 
L 477.973559 121.166683 
L 483.400877 117.860518 
L 488.557466 116.989821 
L 493.469057 181.08788 
L 498.157878 214.309859 
L 502.643263 246.947454 
L 506.942134 291.337601 
L 511.069385 339.203434 
L 515.038194 343.831971 
L 518.860278 357.95053 
L 522.546099 491.122211 
L 526.105041 547.427079 
L 529.545549 554.915218 
L 532.875252 558.696991 
L 536.101064 516.452792 
L 539.229274 467.515034 
L 542.265615 249.070554 
L 545.215328 326.239979 
L 550.873709 333.520902 
L 553.590863 340.295335 
L 556.238437 363.436865 
L 558.819907 493.664164 
L 561.338492 533.090704 
L 563.797185 541.840475 
L 566.198768 547.85036 
L 568.545834 483.219667 
L 570.840802 253.855131 
L 573.085936 316.730341 
L 575.283354 318.499666 
L 577.435042 319.894654 
L 579.542865 322.339898 
L 591.36 499.995733 
L 608.473668 546.17716 
L 623.152943 520.520639 
L 636.004933 232.449959 
L 647.434613 258.297062 
L 657.725657 282.707915 
L 667.084519 323.199716 
L 675.666137 359.529279 
L 683.58977 383.54893 
L 690.949171 397.581117 
L 697.819384 267.852665 
L 704.261408 488.04342 
L 710.325501 482.214681 
L 716.053559 479.960744 
L 721.480877 436.186842 
L 726.637466 436.641619 
L 731.549057 438.411026 
L 736.237878 442.142587 
L 740.723263 444.836424 
L 745.022134 446.946139 
L 749.149385 303.467798 
L 753.118194 456.819114 
L 756.940278 480.876168 
L 760.626099 501.626266 
L 764.185041 484.900805 
L 767.625549 484.006685 
L 770.955252 484.472393 
L 774.181064 488.095 
L 777.309274 489.709521 
L 780.345615 496.817759 
L 783.295328 282.784124 
L 786.163221 480.795382 
L 788.953709 494.091783 
L 791.670863 497.214362 
L 794.318437 502.344443 
L 796.899907 506.224279 
L 799.418492 512.441198 
L 801.877185 534.437411 
L 804.278768 236.584424 
L 806.625834 264.114011 
L 808.920802 564.277633 
L 811.165936 502.459527 
L 813.363354 504.765961 
L 815.515042 503.967113 
L 817.622865 500.531701 
L 819.688575 468.100104 
L 821.713822 327.895192 
L 823.700162 305.739329 
L 825.64906 298.965493 
L 827.561903 296.786106 
L 827.561903 296.786106 
" style="fill:none;stroke:#ff1e1e;stroke-linecap:square;"/>
   </g>
   <g id="line2d_2">
    <path clip-path="url(#p3c5033a2f8)" d="M 115.2 108.003963 
L 132.313668 108.142167 
L 146.992943 108.766805 
L 159.844933 109.563229 
L 171.274613 110.517485 
L 181.565657 110.129319 
L 190.924519 110.43663 
L 199.506137 111.25 
L 207.42977 111.542766 
L 214.789171 110.668395 
L 221.659384 113.024091 
L 228.101408 111.981543 
L 234.165501 111.629085 
L 239.893559 112.942867 
L 245.320877 113.104835 
L 250.477466 114.861927 
L 255.389057 114.165505 
L 260.077878 114.969068 
L 264.563263 114.341901 
L 268.862134 115.497336 
L 272.989385 114.453752 
L 276.958194 116.600577 
L 280.780278 115.043054 
L 284.466099 116.630264 
L 288.025041 117.022813 
L 291.465549 118.566115 
L 294.795252 115.97908 
L 298.021064 117.677993 
L 304.185615 118.211126 
L 307.135328 117.836673 
L 310.003221 119.195651 
L 312.793709 118.913663 
L 315.510863 120.040123 
L 318.158437 119.728928 
L 320.739907 120.163362 
L 323.258492 120.777536 
L 325.717185 120.992444 
L 328.118768 119.995781 
L 330.465834 121.692989 
L 332.760802 121.22531 
L 335.005936 122.858852 
L 337.203354 123.862256 
L 339.355042 122.836551 
L 341.462865 124.02186 
L 353.28 126.679531 
L 370.393668 128.067251 
L 385.072943 125.985018 
L 397.924933 131.050509 
L 409.354613 139.904981 
L 419.645657 150.130685 
L 429.004519 166.913985 
L 437.586137 178.785937 
L 445.50977 191.348565 
L 452.869171 198.887995 
L 459.739384 204.85144 
L 466.181408 207.225969 
L 472.245501 207.023616 
L 477.973559 210.682854 
L 483.400877 208.23035 
L 488.557466 212.753002 
L 493.469057 207.945002 
L 498.157878 201.343116 
L 502.643263 204.930657 
L 506.942134 205.251048 
L 511.069385 201.977387 
L 515.038194 204.717112 
L 518.860278 209.977293 
L 522.546099 207.212474 
L 526.105041 215.88744 
L 529.545549 209.548311 
L 532.875252 212.547922 
L 536.101064 214.004059 
L 539.229274 217.202253 
L 542.265615 222.322676 
L 545.215328 222.875 
L 548.083221 223.66671 
L 550.873709 224.832073 
L 553.590863 221.554522 
L 556.238437 233.813469 
L 558.819907 220.785841 
L 561.338492 225.561578 
L 563.797185 225.292949 
L 566.198768 228.639354 
L 568.545834 220.037024 
L 570.840802 231.840187 
L 573.085936 233.745255 
L 575.283354 220.322148 
L 577.435042 229.423437 
L 579.542865 225.939123 
L 591.36 236.553946 
L 608.473668 247.782949 
L 623.152943 239.37006 
L 636.004933 248.741647 
L 647.434613 264.860443 
L 657.725657 270.747846 
L 667.084519 263.204974 
L 675.666137 264.733351 
L 683.58977 284.651767 
L 690.949171 309.798087 
L 697.819384 292.247781 
L 704.261408 314.763899 
L 710.325501 327.823061 
L 716.053559 326.709995 
L 721.480877 335.636084 
L 726.637466 363.153824 
L 731.549057 382.623854 
L 736.237878 349.949144 
L 740.723263 378.773489 
L 745.022134 398.403386 
L 749.149385 378.656177 
L 753.118194 412.216705 
L 756.940278 404.205614 
L 760.626099 406.476277 
L 764.185041 430.885723 
L 767.625549 513.95887 
L 770.955252 514.489686 
L 774.181064 472.382997 
L 777.309274 439.81887 
L 780.345615 482.86798 
L 783.295328 446.463837 
L 786.163221 497.61621 
L 788.953709 532.757649 
L 791.670863 522.074905 
L 794.318437 534.388526 
L 796.899907 559.954645 
L 799.418492 513.754796 
L 801.877185 539.109641 
L 804.278768 504.59044 
L 806.625834 540.721984 
L 808.920802 527.357128 
L 811.165936 531.638322 
L 813.363354 463.315543 
L 815.515042 224.168404 
L 817.622865 551.645213 
L 819.688575 513.437021 
L 821.713822 471.355161 
L 823.700162 457.538055 
L 825.64906 476.927718 
L 827.561903 457.527854 
L 827.561903 457.527854 
" style="fill:none;stroke:#581845;stroke-linecap:square;"/>
   </g>
   <g id="line2d_3">
    <path clip-path="url(#p3c5033a2f8)" d="M 115.2 107.930683 
L 132.313668 110.231719 
L 146.992943 107.326539 
L 159.844933 108.951201 
L 171.274613 111.361876 
L 181.565657 108.573548 
L 190.924519 111.283958 
L 199.506137 109.957638 
L 207.42977 112.295137 
L 214.789171 113.741157 
L 221.659384 111.171154 
L 228.101408 114.108041 
L 234.165501 113.741989 
L 239.893559 113.983494 
L 245.320877 115.206861 
L 250.477466 117.101057 
L 255.389057 114.623654 
L 260.077878 117.555406 
L 264.563263 115.455878 
L 268.862134 117.643086 
L 272.989385 115.840006 
L 276.958194 116.268356 
L 280.780278 116.221784 
L 284.466099 118.453612 
L 288.025041 120.262959 
L 291.465549 119.848692 
L 294.795252 119.202283 
L 298.021064 120.254647 
L 301.149274 120.549513 
L 304.185615 119.798211 
L 307.135328 121.654187 
L 310.003221 118.977824 
L 312.793709 122.15933 
L 315.510863 121.54079 
L 318.158437 122.287322 
L 320.739907 121.674053 
L 323.258492 123.581716 
L 325.717185 122.137974 
L 328.118768 120.937942 
L 330.465834 123.388795 
L 332.760802 126.252875 
L 335.005936 125.665971 
L 337.203354 125.436834 
L 339.355042 126.310302 
L 341.462865 126.870188 
L 353.28 127.758624 
L 370.393668 128.570719 
L 385.072943 133.18738 
L 397.924933 139.02725 
L 409.354613 143.114677 
L 419.645657 145.424672 
L 429.004519 148.175263 
L 437.586137 152.330912 
L 445.50977 158.906569 
L 452.869171 158.650603 
L 459.739384 169.139599 
L 466.181408 175.740424 
L 472.245501 180.469651 
L 477.973559 182.278317 
L 483.400877 191.033816 
L 488.557466 196.945037 
L 493.469057 196.628514 
L 498.157878 200.334451 
L 502.643263 200.408598 
L 506.942134 209.972589 
L 511.069385 201.342162 
L 515.038194 199.436345 
L 518.860278 211.219036 
L 522.546099 210.356234 
L 526.105041 213.168147 
L 529.545549 204.683181 
L 532.875252 212.785813 
L 536.101064 207.811405 
L 539.229274 214.469952 
L 542.265615 210.423931 
L 545.215328 204.12823 
L 548.083221 205.372838 
L 550.873709 202.124941 
L 553.590863 216.947563 
L 556.238437 205.128396 
L 558.819907 212.72628 
L 561.338492 214.637341 
L 563.797185 213.810463 
L 566.198768 207.081363 
L 568.545834 211.074575 
L 570.840802 220.058278 
L 573.085936 218.737637 
L 575.283354 213.564141 
L 577.435042 216.912325 
L 579.542865 218.072509 
L 591.36 224.303743 
L 608.473668 229.699387 
L 623.152943 235.065177 
L 636.004933 249.783715 
L 647.434613 254.17725 
L 657.725657 271.693157 
L 667.084519 254.44504 
L 675.666137 280.749778 
L 683.58977 288.548617 
L 690.949171 300.387432 
L 697.819384 291.034988 
L 704.261408 312.0763 
L 710.325501 322.172717 
L 716.053559 360.518574 
L 721.480877 331.877725 
L 726.637466 329.376312 
L 731.549057 372.561822 
L 736.237878 358.253799 
L 740.723263 337.959835 
L 745.022134 362.656548 
L 749.149385 401.193473 
L 753.118194 327.762104 
L 756.940278 408.989746 
L 760.626099 386.92834 
L 764.185041 436.534105 
L 767.625549 426.23426 
L 770.955252 448.503465 
L 774.181064 471.481413 
L 777.309274 474.351977 
L 780.345615 428.252866 
L 783.295328 468.431195 
L 786.163221 497.00516 
L 788.953709 522.669351 
L 791.670863 465.014002 
L 794.318437 525.845856 
L 796.899907 560.155829 
L 799.418492 450.629737 
L 801.877185 546.731305 
L 804.278768 544.837574 
L 806.625834 509.561283 
L 808.920802 506.456338 
L 811.165936 532.932623 
L 813.363354 522.933197 
L 815.515042 529.570115 
L 817.622865 541.076512 
L 819.688575 535.470082 
L 821.713822 552.452716 
L 823.700162 552.770808 
L 825.64906 548.726643 
L 827.561903 554.559272 
L 827.561903 554.559272 
" style="fill:none;stroke:#26b7d8;stroke-linecap:square;"/>
   </g>
   <g id="line2d_4">
    <path clip-path="url(#p3c5033a2f8)" d="M 115.2 106.724818 
L 132.313668 108.617506 
L 146.992943 112.200769 
L 159.844933 109.627491 
L 171.274613 112.051368 
L 181.565657 111.55327 
L 190.924519 110.35604 
L 199.506137 111.301308 
L 207.42977 109.508351 
L 214.789171 111.865366 
L 221.659384 113.648658 
L 228.101408 112.213217 
L 234.165501 115.079725 
L 239.893559 116.235315 
L 245.320877 111.403449 
L 250.477466 115.714991 
L 255.389057 114.307487 
L 260.077878 118.182772 
L 264.563263 114.852316 
L 268.862134 114.688882 
L 272.989385 120.34051 
L 276.958194 121.172928 
L 280.780278 118.075094 
L 284.466099 113.71829 
L 288.025041 116.487863 
L 291.465549 118.84042 
L 294.795252 120.658677 
L 298.021064 118.297378 
L 301.149274 125.359711 
L 304.185615 121.945519 
L 307.135328 121.990167 
L 310.003221 120.516625 
L 312.793709 124.849818 
L 315.510863 124.145128 
L 318.158437 124.564238 
L 320.739907 126.528786 
L 323.258492 123.930424 
L 325.717185 125.276349 
L 328.118768 127.306478 
L 330.465834 126.052213 
L 332.760802 122.786459 
L 335.005936 125.915391 
L 337.203354 128.34022 
L 339.355042 123.747199 
L 341.462865 126.732747 
L 353.28 130.862631 
L 370.393668 131.290357 
L 397.924933 135.819408 
L 409.354613 140.884384 
L 419.645657 142.487884 
L 429.004519 144.950311 
L 437.586137 147.494512 
L 445.50977 150.749902 
L 452.869171 152.711826 
L 459.739384 156.818234 
L 466.181408 162.858413 
L 472.245501 159.484622 
L 477.973559 170.266055 
L 483.400877 170.725768 
L 488.557466 169.548377 
L 493.469057 169.484873 
L 498.157878 179.963663 
L 502.643263 186.473512 
L 506.942134 185.352325 
L 511.069385 195.022952 
L 515.038194 202.413548 
L 518.860278 199.365435 
L 522.546099 198.908815 
L 526.105041 205.901049 
L 529.545549 209.097308 
L 532.875252 202.556397 
L 536.101064 197.213751 
L 539.229274 206.076063 
L 542.265615 215.157189 
L 545.215328 208.179296 
L 548.083221 210.599147 
L 550.873709 205.227843 
L 553.590863 218.86499 
L 556.238437 211.155659 
L 558.819907 205.560113 
L 561.338492 202.97867 
L 563.797185 213.208653 
L 566.198768 208.088232 
L 568.545834 204.116994 
L 570.840802 206.691512 
L 573.085936 203.736912 
L 575.283354 213.226022 
L 577.435042 210.497148 
L 579.542865 221.057631 
L 591.36 203.686712 
L 608.473668 224.087063 
L 623.152943 230.594124 
L 636.004933 237.083606 
L 647.434613 236.423843 
L 657.725657 247.946344 
L 667.084519 255.25221 
L 675.666137 295.214214 
L 683.58977 297.702067 
L 690.949171 275.009709 
L 697.819384 294.441334 
L 704.261408 314.385902 
L 710.325501 312.344738 
L 716.053559 316.68692 
L 721.480877 345.35631 
L 726.637466 280.495048 
L 731.549057 334.491017 
L 736.237878 332.373984 
L 740.723263 400.124354 
L 745.022134 386.527118 
L 749.149385 373.977719 
L 753.118194 395.223446 
L 756.940278 397.122176 
L 760.626099 371.036298 
L 764.185041 407.761429 
L 767.625549 435.116679 
L 770.955252 442.855417 
L 774.181064 446.455236 
L 777.309274 452.919484 
L 780.345615 486.811486 
L 783.295328 421.175223 
L 786.163221 507.742522 
L 788.953709 423.789492 
L 791.670863 436.368163 
L 794.318437 496.902969 
L 796.899907 522.158329 
L 799.418492 554.246043 
L 801.877185 561.388737 
L 804.278768 521.697717 
L 806.625834 550.330824 
L 808.920802 519.488669 
L 811.165936 552.69845 
L 813.363354 546.973832 
L 815.515042 551.060544 
L 817.622865 471.188378 
L 819.688575 565.99613 
L 821.713822 488.441107 
L 823.700162 539.22134 
L 825.64906 560.439682 
L 827.561903 535.155505 
L 827.561903 535.155505 
" style="fill:none;stroke:#8414a4;stroke-linecap:square;"/>
   </g>
   <g id="line2d_5">
    <path clip-path="url(#p3c5033a2f8)" d="M 115.2 108.31165 
L 132.313668 107.555374 
L 146.992943 111.801928 
L 159.844933 109.043374 
L 171.274613 112.337421 
L 181.565657 110.832743 
L 190.924519 111.113234 
L 199.506137 111.859022 
L 207.42977 114.589025 
L 214.789171 112.947672 
L 221.659384 110.435505 
L 228.101408 123.551456 
L 234.165501 113.516478 
L 239.893559 117.801553 
L 245.320877 114.31332 
L 250.477466 117.172284 
L 255.389057 112.76549 
L 260.077878 119.043556 
L 264.563263 119.732708 
L 268.862134 119.045441 
L 272.989385 119.421299 
L 276.958194 121.342179 
L 280.780278 122.0558 
L 284.466099 115.799419 
L 288.025041 121.073681 
L 291.465549 122.273821 
L 294.795252 124.257051 
L 298.021064 118.418966 
L 301.149274 121.439167 
L 304.185615 123.426257 
L 307.135328 119.217524 
L 310.003221 119.110824 
L 312.793709 122.213258 
L 315.510863 123.176452 
L 318.158437 124.332648 
L 320.739907 124.514343 
L 323.258492 125.897725 
L 325.717185 127.575526 
L 328.118768 121.872074 
L 330.465834 126.552191 
L 332.760802 128.266983 
L 337.203354 127.274371 
L 339.355042 125.936506 
L 341.462865 123.870822 
L 353.28 131.063707 
L 370.393668 137.644768 
L 385.072943 137.300058 
L 397.924933 134.808296 
L 409.354613 137.652259 
L 419.645657 139.549731 
L 429.004519 142.172402 
L 437.586137 140.431731 
L 445.50977 139.520726 
L 452.869171 146.966897 
L 459.739384 143.917157 
L 466.181408 158.309736 
L 472.245501 149.641747 
L 477.973559 148.684433 
L 483.400877 158.128644 
L 488.557466 161.152843 
L 493.469057 171.359672 
L 498.157878 160.629326 
L 502.643263 165.275496 
L 506.942134 162.50205 
L 511.069385 172.895941 
L 515.038194 170.372159 
L 518.860278 173.643819 
L 522.546099 189.453064 
L 526.105041 193.380667 
L 529.545549 199.369549 
L 532.875252 203.682589 
L 536.101064 200.065737 
L 539.229274 202.17279 
L 542.265615 197.498933 
L 545.215328 193.270235 
L 548.083221 208.039254 
L 550.873709 209.539237 
L 553.590863 203.009943 
L 556.238437 210.945925 
L 558.819907 212.398792 
L 561.338492 215.67595 
L 563.797185 216.450044 
L 566.198768 208.155695 
L 568.545834 206.544729 
L 570.840802 217.315978 
L 573.085936 219.162758 
L 575.283354 205.375858 
L 577.435042 211.513772 
L 579.542865 226.448446 
L 591.36 211.056303 
L 608.473668 204.336433 
L 623.152943 221.19816 
L 636.004933 223.775791 
L 647.434613 236.000559 
L 657.725657 252.540894 
L 667.084519 280.872615 
L 675.666137 231.411368 
L 683.58977 241.451997 
L 690.949171 220.316437 
L 697.819384 283.300977 
L 704.261408 288.157946 
L 710.325501 293.095302 
L 716.053559 292.686587 
L 721.480877 374.089575 
L 726.637466 382.200875 
L 731.549057 353.591679 
L 736.237878 345.789515 
L 740.723263 344.764719 
L 745.022134 422.911865 
L 749.149385 366.547547 
L 753.118194 337.904335 
L 756.940278 329.947005 
L 760.626099 371.952579 
L 764.185041 379.759565 
L 767.625549 390.351611 
L 770.955252 418.77299 
L 774.181064 424.261408 
L 777.309274 448.574506 
L 780.345615 369.262045 
L 783.295328 413.950574 
L 786.163221 507.060964 
L 788.953709 467.570275 
L 791.670863 500.540897 
L 794.318437 495.408399 
L 796.899907 539.222169 
L 799.418492 524.750628 
L 801.877185 485.212883 
L 804.278768 514.233828 
L 806.625834 511.625915 
L 808.920802 513.13026 
L 811.165936 524.71755 
L 813.363354 501.803453 
L 815.515042 531.484031 
L 817.622865 542.585489 
L 819.688575 506.377558 
L 821.713822 224.944936 
L 823.700162 536.227677 
L 825.64906 556.363053 
L 827.561903 463.329224 
L 827.561903 463.329224 
" style="fill:none;stroke:#ffd23a;stroke-linecap:square;"/>
   </g>
   <g id="line2d_6">
    <path clip-path="url(#p3c5033a2f8)" d="M 115.2 109.10484 
L 132.313668 105.719939 
L 146.992943 112.502381 
L 159.844933 114.768465 
L 171.274613 112.854702 
L 181.565657 109.64333 
L 190.924519 113.045471 
L 199.506137 113.392796 
L 214.789171 110.822099 
L 221.659384 111.948746 
L 228.101408 111.393169 
L 234.165501 115.66693 
L 239.893559 117.971109 
L 245.320877 119.593111 
L 250.477466 113.980899 
L 255.389057 119.972087 
L 260.077878 122.897643 
L 264.563263 119.085617 
L 268.862134 119.21011 
L 272.989385 117.569175 
L 276.958194 119.394935 
L 280.780278 123.305327 
L 284.466099 120.772451 
L 288.025041 119.95119 
L 291.465549 120.665308 
L 294.795252 118.733188 
L 298.021064 121.188811 
L 301.149274 121.389712 
L 304.185615 123.924788 
L 307.135328 122.766903 
L 310.003221 113.519333 
L 312.793709 123.831133 
L 315.510863 117.223369 
L 318.158437 127.769991 
L 320.739907 125.862949 
L 323.258492 124.404039 
L 325.717185 127.915405 
L 328.118768 129.214595 
L 330.465834 132.339565 
L 332.760802 123.753206 
L 335.005936 123.499285 
L 337.203354 131.998135 
L 339.355042 125.376959 
L 341.462865 127.921782 
L 353.28 131.267955 
L 370.393668 141.635344 
L 385.072943 129.649366 
L 397.924933 138.753661 
L 409.354613 137.626494 
L 419.645657 131.887249 
L 429.004519 139.098454 
L 437.586137 139.882117 
L 445.50977 137.862075 
L 452.869171 152.467856 
L 459.739384 139.734447 
L 466.181408 149.396765 
L 472.245501 148.010596 
L 477.973559 152.090126 
L 483.400877 156.287851 
L 488.557466 155.712323 
L 493.469057 146.049994 
L 498.157878 152.855637 
L 502.643263 159.616292 
L 506.942134 161.428889 
L 511.069385 155.897257 
L 515.038194 158.915888 
L 518.860278 170.375762 
L 522.546099 168.231361 
L 526.105041 174.145514 
L 529.545549 182.258518 
L 532.875252 191.483513 
L 536.101064 191.334933 
L 539.229274 183.887507 
L 542.265615 191.717277 
L 545.215328 192.070824 
L 548.083221 195.29485 
L 550.873709 191.517126 
L 553.590863 182.81009 
L 556.238437 202.388785 
L 558.819907 185.83414 
L 561.338492 191.957025 
L 563.797185 205.418259 
L 566.198768 186.024081 
L 568.545834 201.929641 
L 570.840802 198.7041 
L 573.085936 204.246063 
L 575.283354 206.277209 
L 577.435042 198.588278 
L 579.542865 212.565615 
L 591.36 218.207186 
L 608.473668 218.999488 
L 623.152943 225.689819 
L 636.004933 238.775557 
L 647.434613 228.246988 
L 657.725657 248.348427 
L 667.084519 255.700992 
L 675.666137 261.41827 
L 683.58977 276.674458 
L 690.949171 282.055819 
L 697.819384 298.760206 
L 704.261408 355.119463 
L 710.325501 302.04962 
L 716.053559 329.637014 
L 721.480877 332.843605 
L 726.637466 379.35032 
L 731.549057 366.174088 
L 736.237878 331.940679 
L 740.723263 295.22697 
L 745.022134 343.828358 
L 749.149385 333.650816 
L 753.118194 358.436178 
L 756.940278 369.615179 
L 760.626099 372.184096 
L 764.185041 404.403685 
L 767.625549 417.055483 
L 770.955252 443.44579 
L 774.181064 398.709465 
L 777.309274 446.70865 
L 780.345615 413.239768 
L 783.295328 468.121408 
L 786.163221 455.099531 
L 788.953709 507.365938 
L 791.670863 505.348 
L 794.318437 565.102959 
L 796.899907 499.434349 
L 799.418492 513.337534 
L 801.877185 546.901236 
L 804.278768 547.636551 
L 806.625834 532.634294 
L 808.920802 504.75971 
L 811.165936 461.598767 
L 813.363354 529.000309 
L 815.515042 434.480988 
L 817.622865 560.626749 
L 819.688575 538.816037 
L 821.713822 540.035518 
L 823.700162 562.320087 
L 825.64906 474.952558 
L 827.561903 488.839418 
L 827.561903 488.839418 
" style="fill:none;stroke:#ff9300;stroke-linecap:square;"/>
   </g>
   <g id="line2d_7">
    <path clip-path="url(#p3c5033a2f8)" d="M 115.2 107.174341 
L 132.313668 111.961419 
L 146.992943 106.911021 
L 159.844933 109.511503 
L 171.274613 111.563875 
L 181.565657 112.889112 
L 190.924519 111.305708 
L 199.506137 113.535002 
L 207.42977 106.171131 
L 214.789171 116.724181 
L 221.659384 114.582294 
L 228.101408 109.235376 
L 234.165501 112.044918 
L 239.893559 116.760362 
L 245.320877 109.839895 
L 250.477466 118.132961 
L 255.389057 122.158175 
L 260.077878 121.524367 
L 264.563263 111.695051 
L 268.862134 119.096865 
L 272.989385 118.367513 
L 276.958194 124.684026 
L 280.780278 115.376998 
L 284.466099 124.30427 
L 288.025041 118.395351 
L 291.465549 125.077802 
L 294.795252 126.899668 
L 298.021064 115.392132 
L 301.149274 125.263643 
L 304.185615 122.487423 
L 307.135328 120.545814 
L 310.003221 117.940284 
L 312.793709 127.032162 
L 315.510863 120.83094 
L 318.158437 123.564641 
L 320.739907 127.748057 
L 323.258492 125.382382 
L 325.717185 118.389093 
L 328.118768 122.749194 
L 330.465834 126.378674 
L 332.760802 131.549197 
L 335.005936 119.734102 
L 337.203354 127.793884 
L 339.355042 126.891818 
L 341.462865 127.450199 
L 353.28 127.808353 
L 370.393668 129.423636 
L 385.072943 136.457833 
L 397.924933 134.990023 
L 409.354613 138.620851 
L 419.645657 137.758799 
L 429.004519 138.661489 
L 437.586137 145.432353 
L 445.50977 129.483084 
L 452.869171 144.49661 
L 459.739384 129.094245 
L 466.181408 140.499806 
L 472.245501 144.554991 
L 477.973559 153.12064 
L 483.400877 147.879543 
L 488.557466 147.610199 
L 493.469057 152.242674 
L 498.157878 146.944096 
L 502.643263 153.647128 
L 506.942134 164.976315 
L 511.069385 152.316124 
L 515.038194 157.203985 
L 518.860278 161.193527 
L 522.546099 159.265107 
L 526.105041 162.920308 
L 529.545549 177.614274 
L 532.875252 166.409709 
L 536.101064 170.206585 
L 539.229274 166.686331 
L 542.265615 190.992058 
L 545.215328 173.434419 
L 548.083221 187.680216 
L 550.873709 170.703601 
L 553.590863 195.491768 
L 556.238437 190.440778 
L 558.819907 193.974669 
L 561.338492 193.852001 
L 563.797185 183.846918 
L 566.198768 200.006766 
L 568.545834 195.162453 
L 570.840802 203.035259 
L 573.085936 195.082499 
L 575.283354 211.389436 
L 577.435042 214.528405 
L 579.542865 207.780896 
L 591.36 185.108654 
L 608.473668 223.373119 
L 623.152943 225.267034 
L 636.004933 231.969827 
L 647.434613 246.922722 
L 657.725657 236.010376 
L 667.084519 261.972137 
L 675.666137 237.910755 
L 683.58977 249.503151 
L 690.949171 273.166721 
L 697.819384 299.85276 
L 704.261408 272.264612 
L 710.325501 314.529042 
L 716.053559 283.58994 
L 721.480877 341.330069 
L 726.637466 323.970961 
L 731.549057 296.326802 
L 736.237878 336.524723 
L 740.723263 305.598744 
L 745.022134 388.327213 
L 749.149385 315.595098 
L 753.118194 379.309922 
L 756.940278 388.113657 
L 760.626099 406.694424 
L 764.185041 401.067278 
L 767.625549 328.859537 
L 770.955252 431.196504 
L 774.181064 432.017272 
L 777.309274 533.536151 
L 780.345615 443.94417 
L 783.295328 470.900239 
L 786.163221 479.929276 
L 788.953709 471.529435 
L 791.670863 531.755941 
L 794.318437 525.960243 
L 796.899907 469.56148 
L 799.418492 513.250864 
L 801.877185 552.950288 
L 804.278768 559.260276 
L 806.625834 550.064815 
L 808.920802 546.064472 
L 811.165936 457.152429 
L 813.363354 564.769402 
L 815.515042 522.319046 
L 817.622865 549.227531 
L 819.688575 522.985948 
L 821.713822 548.354759 
L 823.700162 545.717806 
L 825.64906 500.19585 
L 827.561903 502.506096 
L 827.561903 502.506096 
" style="fill:none;stroke:#f50fe6;stroke-linecap:square;"/>
   </g>
   <g id="line2d_8">
    <path clip-path="url(#p3c5033a2f8)" d="M 115.2 111.595086 
L 132.313668 112.907227 
L 146.992943 105.360469 
L 159.844933 111.824539 
L 171.274613 114.086866 
L 181.565657 115.377095 
L 190.924519 107.561559 
L 199.506137 109.399883 
L 207.42977 114.396434 
L 214.789171 112.413655 
L 221.659384 115.384415 
L 228.101408 113.005979 
L 234.165501 119.810172 
L 239.893559 114.477826 
L 245.320877 114.390171 
L 250.477466 109.31407 
L 255.389057 113.116508 
L 260.077878 114.978435 
L 264.563263 113.517524 
L 268.862134 117.28285 
L 272.989385 121.628391 
L 276.958194 119.086958 
L 280.780278 115.503294 
L 284.466099 118.870102 
L 288.025041 125.493905 
L 291.465549 129.743726 
L 294.795252 131.80352 
L 298.021064 122.153104 
L 301.149274 120.929681 
L 304.185615 130.267064 
L 307.135328 123.86785 
L 310.003221 132.984655 
L 312.793709 130.029178 
L 315.510863 125.257951 
L 318.158437 129.972887 
L 320.739907 129.97632 
L 323.258492 130.788852 
L 325.717185 125.349838 
L 328.118768 131.835417 
L 330.465834 130.144831 
L 332.760802 130.379315 
L 335.005936 121.377519 
L 337.203354 133.239214 
L 339.355042 122.978814 
L 341.462865 134.764382 
L 353.28 130.944222 
L 370.393668 136.107996 
L 385.072943 133.984777 
L 397.924933 129.958236 
L 409.354613 135.111896 
L 419.645657 141.14229 
L 429.004519 136.567999 
L 437.586137 137.232581 
L 445.50977 142.514079 
L 452.869171 135.784102 
L 459.739384 136.422759 
L 466.181408 139.273734 
L 472.245501 143.765896 
L 477.973559 141.395874 
L 483.400877 141.522446 
L 488.557466 147.140941 
L 493.469057 148.350277 
L 498.157878 150.812875 
L 502.643263 138.845294 
L 506.942134 145.658779 
L 511.069385 150.527167 
L 515.038194 151.438814 
L 518.860278 156.590883 
L 522.546099 146.060234 
L 526.105041 168.414451 
L 529.545549 152.14972 
L 532.875252 171.888512 
L 536.101064 160.627996 
L 539.229274 156.739872 
L 542.265615 163.147932 
L 545.215328 167.296556 
L 548.083221 172.635451 
L 550.873709 179.186488 
L 553.590863 181.761409 
L 556.238437 173.707779 
L 558.819907 176.893346 
L 561.338492 164.864837 
L 563.797185 198.24252 
L 566.198768 194.333348 
L 568.545834 189.78051 
L 570.840802 198.507989 
L 573.085936 193.148906 
L 575.283354 204.482943 
L 577.435042 186.685623 
L 579.542865 202.333066 
L 591.36 209.603793 
L 608.473668 204.529379 
L 623.152943 210.674793 
L 636.004933 239.635535 
L 647.434613 260.876221 
L 657.725657 229.816777 
L 667.084519 225.607813 
L 675.666137 270.92029 
L 683.58977 251.86262 
L 690.949171 264.556864 
L 697.819384 255.947112 
L 704.261408 290.939537 
L 710.325501 262.428925 
L 716.053559 282.234646 
L 721.480877 285.868206 
L 726.637466 284.884662 
L 736.237878 367.581018 
L 740.723263 331.096706 
L 745.022134 356.933423 
L 749.149385 366.665309 
L 753.118194 368.075747 
L 756.940278 383.698849 
L 760.626099 388.948925 
L 764.185041 346.445387 
L 767.625549 391.47755 
L 770.955252 523.660203 
L 774.181064 365.034693 
L 777.309274 564.075086 
L 780.345615 495.342333 
L 783.295328 518.095738 
L 786.163221 445.122332 
L 788.953709 492.716592 
L 791.670863 480.330756 
L 794.318437 523.840865 
L 796.899907 544.575532 
L 799.418492 504.322138 
L 801.877185 480.228739 
L 804.278768 545.316504 
L 806.625834 554.529537 
L 808.920802 225.154657 
L 811.165936 519.507196 
L 813.363354 560.974758 
L 815.515042 558.462375 
L 817.622865 546.229882 
L 819.688575 513.444284 
L 821.713822 540.187124 
L 823.700162 496.857956 
L 825.64906 511.569652 
L 827.561903 482.412715 
L 827.561903 482.412715 
" style="fill:none;stroke:#1000a0;stroke-linecap:square;"/>
   </g>
   <g id="line2d_9">
    <path clip-path="url(#p3c5033a2f8)" d="M 115.2 104.63219 
L 132.313668 110.749506 
L 146.992943 112.875822 
L 159.844933 108.211018 
L 171.274613 119.170067 
L 181.565657 106.987504 
L 190.924519 111.33215 
L 199.506137 112.722031 
L 207.42977 114.897307 
L 214.789171 118.387063 
L 221.659384 114.961047 
L 228.101408 111.564663 
L 234.165501 117.84805 
L 239.893559 116.234468 
L 245.320877 117.683487 
L 250.477466 123.524988 
L 255.389057 125.449801 
L 260.077878 125.083932 
L 264.563263 120.354167 
L 268.862134 117.371054 
L 272.989385 125.30986 
L 276.958194 129.99224 
L 280.780278 126.54142 
L 284.466099 117.570761 
L 288.025041 120.777498 
L 291.465549 117.108772 
L 294.795252 129.46999 
L 298.021064 124.430826 
L 301.149274 118.190307 
L 304.185615 129.693732 
L 307.135328 120.144773 
L 310.003221 123.126275 
L 312.793709 131.049222 
L 315.510863 118.136769 
L 318.158437 117.079441 
L 320.739907 116.918126 
L 323.258492 122.546037 
L 325.717185 127.423351 
L 328.118768 137.986142 
L 330.465834 121.476489 
L 332.760802 130.409812 
L 335.005936 130.098279 
L 337.203354 134.54946 
L 339.355042 129.289882 
L 341.462865 129.575573 
L 353.28 126.253561 
L 370.393668 132.353195 
L 385.072943 129.147128 
L 397.924933 139.268892 
L 409.354613 128.123472 
L 419.645657 135.577542 
L 429.004519 139.760898 
L 437.586137 130.791148 
L 445.50977 140.571372 
L 452.869171 142.627189 
L 459.739384 137.404598 
L 466.181408 135.363156 
L 472.245501 138.225192 
L 477.973559 141.935352 
L 483.400877 132.172786 
L 488.557466 139.346709 
L 493.469057 150.194767 
L 498.157878 147.388863 
L 502.643263 134.950701 
L 506.942134 143.353778 
L 511.069385 151.136388 
L 515.038194 159.092859 
L 518.860278 145.070491 
L 522.546099 146.231998 
L 526.105041 165.134487 
L 529.545549 160.673508 
L 532.875252 157.192634 
L 536.101064 160.69073 
L 539.229274 158.061136 
L 542.265615 161.956652 
L 545.215328 177.974795 
L 548.083221 181.141447 
L 550.873709 160.701482 
L 553.590863 168.705314 
L 556.238437 192.145314 
L 558.819907 175.974192 
L 561.338492 184.630026 
L 563.797185 179.936363 
L 566.198768 176.953885 
L 568.545834 188.465751 
L 570.840802 179.14064 
L 573.085936 194.214335 
L 575.283354 202.671477 
L 577.435042 194.895486 
L 579.542865 189.438021 
L 591.36 192.145791 
L 608.473668 218.239804 
L 623.152943 216.375944 
L 636.004933 224.380608 
L 647.434613 216.56053 
L 657.725657 238.029494 
L 667.084519 250.611361 
L 675.666137 259.644625 
L 683.58977 261.255471 
L 690.949171 272.421981 
L 697.819384 325.831856 
L 704.261408 260.784215 
L 710.325501 273.088904 
L 716.053559 343.287454 
L 721.480877 345.796579 
L 726.637466 289.69885 
L 731.549057 400.660081 
L 736.237878 301.966926 
L 740.723263 284.300392 
L 745.022134 316.806022 
L 749.149385 357.08228 
L 753.118194 365.261657 
L 756.940278 381.51284 
L 760.626099 295.286681 
L 764.185041 414.775089 
L 767.625549 372.259246 
L 770.955252 372.476611 
L 774.181064 432.621867 
L 777.309274 351.736834 
L 780.345615 431.884011 
L 783.295328 446.3763 
L 786.163221 485.427045 
L 788.953709 466.339285 
L 791.670863 307.459523 
L 794.318437 507.756712 
L 796.899907 539.784582 
L 799.418492 313.671309 
L 801.877185 508.254835 
L 804.278768 549.710117 
L 806.625834 545.952762 
L 808.920802 482.233201 
L 811.165936 520.533585 
L 813.363354 388.234933 
L 815.515042 535.336335 
L 817.622865 262.661335 
L 819.688575 477.655 
L 821.713822 551.965877 
L 823.700162 528.547174 
L 825.64906 496.52192 
L 827.561903 522.129786 
L 827.561903 522.129786 
" style="fill:none;stroke:#595866;stroke-linecap:square;"/>
   </g>
   <g id="line2d_10">
    <path clip-path="url(#p3c5033a2f8)" d="M 115.2 112.757312 
L 132.313668 112.889453 
L 146.992943 107.673364 
L 159.844933 114.757474 
L 171.274613 119.493194 
L 181.565657 111.153832 
L 190.924519 110.571352 
L 199.506137 99.197808 
L 207.42977 118.344172 
L 214.789171 111.969171 
L 221.659384 111.256079 
L 228.101408 112.443943 
L 234.165501 121.452411 
L 239.893559 117.978099 
L 245.320877 115.356466 
L 250.477466 113.380379 
L 255.389057 123.503449 
L 260.077878 129.4483 
L 264.563263 112.105205 
L 268.862134 118.876945 
L 272.989385 124.452357 
L 276.958194 127.506457 
L 280.780278 117.792812 
L 284.466099 118.540819 
L 288.025041 126.119066 
L 291.465549 125.929167 
L 294.795252 131.090944 
L 298.021064 127.115456 
L 301.149274 127.504964 
L 304.185615 123.738389 
L 307.135328 126.953156 
L 310.003221 129.052142 
L 312.793709 115.059633 
L 315.510863 116.49922 
L 318.158437 122.070763 
L 320.739907 129.884421 
L 323.258492 140.687003 
L 325.717185 124.955042 
L 328.118768 129.247409 
L 330.465834 120.565062 
L 332.760802 136.328019 
L 335.005936 133.835154 
L 337.203354 126.713479 
L 339.355042 123.78923 
L 341.462865 120.585738 
L 353.28 132.491071 
L 370.393668 130.717847 
L 385.072943 132.100028 
L 397.924933 128.160345 
L 409.354613 127.582931 
L 419.645657 124.688498 
L 429.004519 136.217521 
L 437.586137 135.304275 
L 445.50977 130.085603 
L 452.869171 144.826785 
L 459.739384 142.858739 
L 466.181408 136.035217 
L 472.245501 147.034134 
L 477.973559 141.790722 
L 483.400877 141.141256 
L 488.557466 132.385465 
L 493.469057 143.854401 
L 498.157878 141.203641 
L 502.643263 136.570102 
L 506.942134 146.001435 
L 511.069385 130.721343 
L 515.038194 144.510532 
L 518.860278 150.630502 
L 522.546099 135.051111 
L 526.105041 150.127024 
L 529.545549 153.742958 
L 532.875252 146.626691 
L 536.101064 154.670678 
L 539.229274 170.963401 
L 542.265615 154.968754 
L 545.215328 157.485026 
L 548.083221 164.476251 
L 550.873709 159.458179 
L 553.590863 173.339349 
L 556.238437 167.404428 
L 558.819907 171.623642 
L 561.338492 163.23841 
L 563.797185 191.90668 
L 566.198768 183.908792 
L 568.545834 164.133886 
L 570.840802 176.686077 
L 573.085936 193.21988 
L 575.283354 159.314138 
L 577.435042 185.076406 
L 579.542865 200.454528 
L 591.36 206.122935 
L 608.473668 208.65705 
L 623.152943 208.326427 
L 636.004933 211.645767 
L 647.434613 225.701103 
L 657.725657 230.015415 
L 667.084519 248.024427 
L 675.666137 226.720913 
L 683.58977 276.713173 
L 690.949171 265.280357 
L 697.819384 281.605759 
L 704.261408 281.141267 
L 710.325501 343.264788 
L 716.053559 274.31222 
L 721.480877 251.287646 
L 726.637466 329.439046 
L 731.549057 282.462211 
L 736.237878 330.538285 
L 740.723263 354.123306 
L 745.022134 323.429525 
L 749.149385 285.12795 
L 753.118194 405.31528 
L 756.940278 315.663761 
L 760.626099 365.251095 
L 764.185041 367.631914 
L 767.625549 338.969592 
L 770.955252 426.275412 
L 774.181064 457.070804 
L 777.309274 360.319301 
L 780.345615 427.895996 
L 783.295328 454.306088 
L 786.163221 453.089939 
L 788.953709 560.68444 
L 791.670863 451.909597 
L 794.318437 478.818151 
L 796.899907 490.327069 
L 799.418492 487.722362 
L 801.877185 503.306551 
L 804.278768 416.555112 
L 806.625834 475.82498 
L 808.920802 510.448518 
L 811.165936 560.36591 
L 813.363354 535.925565 
L 815.515042 543.215306 
L 817.622865 527.683763 
L 819.688575 550.801598 
L 821.713822 531.294395 
L 823.700162 558.475931 
L 825.64906 464.232928 
L 827.561903 519.621356 
L 827.561903 519.621356 
" style="fill:none;stroke:#147f2a;stroke-linecap:square;"/>
   </g>
   <g id="line2d_11">
    <path clip-path="url(#p3c5033a2f8)" d="M 115.2 114.225083 
L 132.313668 117.40871 
L 146.992943 106.095488 
L 159.844933 101.516929 
L 171.274613 110.312782 
L 181.565657 108.70656 
L 190.924519 119.479933 
L 199.506137 120.228455 
L 207.42977 106.770539 
L 214.789171 111.722819 
L 221.659384 111.031864 
L 228.101408 123.429766 
L 234.165501 113.755532 
L 239.893559 101.645295 
L 245.320877 124.330188 
L 250.477466 113.886098 
L 255.389057 115.987119 
L 260.077878 129.615566 
L 264.563263 106.928374 
L 268.862134 113.789605 
L 272.989385 128.937404 
L 276.958194 124.047294 
L 280.780278 115.973758 
L 284.466099 113.772631 
L 288.025041 119.608742 
L 291.465549 113.008681 
L 294.795252 122.055939 
L 298.021064 108.626012 
L 301.149274 123.687409 
L 304.185615 130.280542 
L 307.135328 135.838208 
L 310.003221 127.707919 
L 312.793709 130.760827 
L 315.510863 129.580924 
L 318.158437 117.687626 
L 320.739907 115.546389 
L 323.258492 124.498858 
L 325.717185 140.475372 
L 328.118768 143.994088 
L 330.465834 121.67979 
L 332.760802 133.088502 
L 335.005936 143.330043 
L 337.203354 133.6774 
L 339.355042 135.464327 
L 341.462865 131.497586 
L 353.28 125.952681 
L 370.393668 128.164372 
L 385.072943 141.653704 
L 397.924933 133.591645 
L 409.354613 136.546609 
L 419.645657 134.325922 
L 429.004519 124.067844 
L 437.586137 136.369978 
L 445.50977 132.710916 
L 452.869171 147.671903 
L 466.181408 123.571592 
L 472.245501 148.462038 
L 477.973559 147.678251 
L 483.400877 136.916949 
L 488.557466 140.672457 
L 493.469057 140.388231 
L 498.157878 147.831368 
L 502.643263 136.591614 
L 506.942134 140.630998 
L 511.069385 143.013369 
L 515.038194 135.97983 
L 518.860278 157.480772 
L 522.546099 131.559386 
L 526.105041 152.851613 
L 529.545549 143.889783 
L 532.875252 146.311789 
L 536.101064 156.996646 
L 539.229274 147.539903 
L 542.265615 140.713219 
L 545.215328 142.382453 
L 548.083221 156.295697 
L 550.873709 158.026933 
L 553.590863 156.875434 
L 556.238437 170.710908 
L 558.819907 178.995356 
L 561.338492 162.529809 
L 563.797185 177.502192 
L 566.198768 180.538417 
L 568.545834 175.853986 
L 570.840802 173.309883 
L 573.085936 155.967805 
L 575.283354 179.960407 
L 577.435042 181.024083 
L 579.542865 191.439584 
L 591.36 205.845954 
L 608.473668 208.240785 
L 623.152943 197.812492 
L 636.004933 210.091281 
L 647.434613 260.348027 
L 657.725657 218.748593 
L 667.084519 245.264561 
L 683.58977 268.650696 
L 690.949171 269.553012 
L 697.819384 263.016788 
L 704.261408 256.70094 
L 710.325501 286.569499 
L 716.053559 294.290497 
L 721.480877 248.43606 
L 726.637466 312.568895 
L 731.549057 326.146722 
L 740.723263 357.165839 
L 745.022134 394.141755 
L 749.149385 367.732915 
L 753.118194 387.737111 
L 756.940278 327.500275 
L 760.626099 532.414812 
L 764.185041 402.182833 
L 767.625549 388.560015 
L 770.955252 360.344141 
L 774.181064 385.187525 
L 777.309274 402.015742 
L 780.345615 404.438313 
L 783.295328 523.58306 
L 786.163221 509.43427 
L 788.953709 451.177536 
L 791.670863 522.910625 
L 794.318437 430.021352 
L 796.899907 480.853563 
L 799.418492 540.247725 
L 801.877185 537.157942 
L 804.278768 493.192878 
L 806.625834 506.72759 
L 808.920802 504.371545 
L 811.165936 561.076376 
L 813.363354 516.051677 
L 815.515042 537.754796 
L 817.622865 533.186688 
L 819.688575 481.315904 
L 821.713822 526.764904 
L 823.700162 501.043544 
L 825.64906 538.518203 
L 827.561903 550.470926 
L 827.561903 550.470926 
" style="fill:none;stroke:#00f6aa;stroke-linecap:square;"/>
   </g>
   <g id="patch_3">
    <path d="M 115.2 64.08 
L 829.44 64.08 
" style="fill:none;stroke:#000000;stroke-linecap:square;stroke-linejoin:miter;"/>
   </g>
   <g id="patch_4">
    <path d="M 829.44 576.72 
L 829.44 64.08 
" style="fill:none;stroke:#000000;stroke-linecap:square;stroke-linejoin:miter;"/>
   </g>
   <g id="patch_5">
    <path d="M 115.2 576.72 
L 829.44 576.72 
" style="fill:none;stroke:#000000;stroke-linecap:square;stroke-linejoin:miter;"/>
   </g>
   <g id="patch_6">
    <path d="M 115.2 576.72 
L 115.2 64.08 
" style="fill:none;stroke:#000000;stroke-linecap:square;stroke-linejoin:miter;"/>
   </g>
   <g id="matplotlib.axis_1">
    <g id="xtick_1">
     <g id="line2d_12">
      <defs>
       <path d="M 0 0 
L 0 -4 
" id="m0a13f3c420" style="stroke:#000000;stroke-width:0.5;"/>
      </defs>
      <g>
       <use style="stroke:#000000;stroke-width:0.5;" x="115.2" xlink:href="#m0a13f3c420" y="576.72"/>
      </g>
     </g>
     <g id="line2d_13">
      <defs>
       <path d="M 0 0 
L 0 4 
" id="m236b90d82a" style="stroke:#000000;stroke-width:0.5;"/>
      </defs>
      <g>
       <use style="stroke:#000000;stroke-width:0.5;" x="115.2" xlink:href="#m236b90d82a" y="64.08"/>
      </g>
     </g>
     <g id="text_1">
      <!-- $\mathdefault{10^{-3}}$ -->
      <defs>
       <path d="M 40.578125 39.3125 
Q 47.65625 37.796875 51.625 33 
Q 55.609375 28.21875 55.609375 21.1875 
Q 55.609375 10.40625 48.1875 4.484375 
Q 40.765625 -1.421875 27.09375 -1.421875 
Q 22.515625 -1.421875 17.65625 -0.515625 
Q 12.796875 0.390625 7.625 2.203125 
L 7.625 11.71875 
Q 11.71875 9.328125 16.59375 8.109375 
Q 21.484375 6.890625 26.8125 6.890625 
Q 36.078125 6.890625 40.9375 10.546875 
Q 45.796875 14.203125 45.796875 21.1875 
Q 45.796875 27.640625 41.28125 31.265625 
Q 36.765625 34.90625 28.71875 34.90625 
L 20.21875 34.90625 
L 20.21875 43.015625 
L 29.109375 43.015625 
Q 36.375 43.015625 40.234375 45.921875 
Q 44.09375 48.828125 44.09375 54.296875 
Q 44.09375 59.90625 40.109375 62.90625 
Q 36.140625 65.921875 28.71875 65.921875 
Q 24.65625 65.921875 20.015625 65.03125 
Q 15.375 64.15625 9.8125 62.3125 
L 9.8125 71.09375 
Q 15.4375 72.65625 20.34375 73.4375 
Q 25.25 74.21875 29.59375 74.21875 
Q 40.828125 74.21875 47.359375 69.109375 
Q 53.90625 64.015625 53.90625 55.328125 
Q 53.90625 49.265625 50.4375 45.09375 
Q 46.96875 40.921875 40.578125 39.3125 
" id="BitstreamVeraSans-Roman-33"/>
       <path d="M 4.890625 31.390625 
L 31.203125 31.390625 
L 31.203125 23.390625 
L 4.890625 23.390625 
z
" id="BitstreamVeraSans-Roman-2d"/>
       <path d="M 31.78125 66.40625 
Q 24.171875 66.40625 20.328125 58.90625 
Q 16.5 51.421875 16.5 36.375 
Q 16.5 21.390625 20.328125 13.890625 
Q 24.171875 6.390625 31.78125 6.390625 
Q 39.453125 6.390625 43.28125 13.890625 
Q 47.125 21.390625 47.125 36.375 
Q 47.125 51.421875 43.28125 58.90625 
Q 39.453125 66.40625 31.78125 66.40625 
M 31.78125 74.21875 
Q 44.046875 74.21875 50.515625 64.515625 
Q 56.984375 54.828125 56.984375 36.375 
Q 56.984375 17.96875 50.515625 8.265625 
Q 44.046875 -1.421875 31.78125 -1.421875 
Q 19.53125 -1.421875 13.0625 8.265625 
Q 6.59375 17.96875 6.59375 36.375 
Q 6.59375 54.828125 13.0625 64.515625 
Q 19.53125 74.21875 31.78125 74.21875 
" id="BitstreamVeraSans-Roman-30"/>
       <path d="M 12.40625 8.296875 
L 28.515625 8.296875 
L 28.515625 63.921875 
L 10.984375 60.40625 
L 10.984375 69.390625 
L 28.421875 72.90625 
L 38.28125 72.90625 
L 38.28125 8.296875 
L 54.390625 8.296875 
L 54.390625 0 
L 12.40625 0 
z
" id="BitstreamVeraSans-Roman-31"/>
      </defs>
      <g transform="translate(102.54 590.464375)scale(0.12 -0.12)">
       <use transform="translate(0.0 0.796875)" xlink:href="#BitstreamVeraSans-Roman-31"/>
       <use transform="translate(63.623046875 0.796875)" xlink:href="#BitstreamVeraSans-Roman-30"/>
       <use transform="translate(132.75859375 48.046875)scale(0.7)" xlink:href="#BitstreamVeraSans-Roman-2d"/>
       <use transform="translate(158.0173828125 48.046875)scale(0.7)" xlink:href="#BitstreamVeraSans-Roman-33"/>
      </g>
     </g>
    </g>
    <g id="xtick_2">
     <g id="line2d_14">
      <g>
       <use style="stroke:#000000;stroke-width:0.5;" x="353.28" xlink:href="#m0a13f3c420" y="576.72"/>
      </g>
     </g>
     <g id="line2d_15">
      <g>
       <use style="stroke:#000000;stroke-width:0.5;" x="353.28" xlink:href="#m236b90d82a" y="64.08"/>
      </g>
     </g>
     <g id="text_2">
      <!-- $\mathdefault{10^{-2}}$ -->
      <defs>
       <path d="M 19.1875 8.296875 
L 53.609375 8.296875 
L 53.609375 0 
L 7.328125 0 
L 7.328125 8.296875 
Q 12.9375 14.109375 22.625 23.890625 
Q 32.328125 33.6875 34.8125 36.53125 
Q 39.546875 41.84375 41.421875 45.53125 
Q 43.3125 49.21875 43.3125 52.78125 
Q 43.3125 58.59375 39.234375 62.25 
Q 35.15625 65.921875 28.609375 65.921875 
Q 23.96875 65.921875 18.8125 64.3125 
Q 13.671875 62.703125 7.8125 59.421875 
L 7.8125 69.390625 
Q 13.765625 71.78125 18.9375 73 
Q 24.125 74.21875 28.421875 74.21875 
Q 39.75 74.21875 46.484375 68.546875 
Q 53.21875 62.890625 53.21875 53.421875 
Q 53.21875 48.921875 51.53125 44.890625 
Q 49.859375 40.875 45.40625 35.40625 
Q 44.1875 33.984375 37.640625 27.21875 
Q 31.109375 20.453125 19.1875 8.296875 
" id="BitstreamVeraSans-Roman-32"/>
      </defs>
      <g transform="translate(340.62 590.464375)scale(0.12 -0.12)">
       <use transform="translate(0.0 0.796875)" xlink:href="#BitstreamVeraSans-Roman-31"/>
       <use transform="translate(63.623046875 0.796875)" xlink:href="#BitstreamVeraSans-Roman-30"/>
       <use transform="translate(132.75859375 48.046875)scale(0.7)" xlink:href="#BitstreamVeraSans-Roman-2d"/>
       <use transform="translate(158.0173828125 48.046875)scale(0.7)" xlink:href="#BitstreamVeraSans-Roman-32"/>
      </g>
     </g>
    </g>
    <g id="xtick_3">
     <g id="line2d_16">
      <g>
       <use style="stroke:#000000;stroke-width:0.5;" x="591.36" xlink:href="#m0a13f3c420" y="576.72"/>
      </g>
     </g>
     <g id="line2d_17">
      <g>
       <use style="stroke:#000000;stroke-width:0.5;" x="591.36" xlink:href="#m236b90d82a" y="64.08"/>
      </g>
     </g>
     <g id="text_3">
      <!-- $\mathdefault{10^{-1}}$ -->
      <g transform="translate(578.7 590.344375)scale(0.12 -0.12)">
       <use transform="translate(0.0 0.7156250000000028)" xlink:href="#BitstreamVeraSans-Roman-31"/>
       <use transform="translate(63.623046875 0.7156250000000028)" xlink:href="#BitstreamVeraSans-Roman-30"/>
       <use transform="translate(132.75859375 47.965625)scale(0.7)" xlink:href="#BitstreamVeraSans-Roman-2d"/>
       <use transform="translate(158.0173828125 47.965625)scale(0.7)" xlink:href="#BitstreamVeraSans-Roman-31"/>
      </g>
     </g>
    </g>
    <g id="xtick_4">
     <g id="line2d_18">
      <g>
       <use style="stroke:#000000;stroke-width:0.5;" x="829.44" xlink:href="#m0a13f3c420" y="576.72"/>
      </g>
     </g>
     <g id="line2d_19">
      <g>
       <use style="stroke:#000000;stroke-width:0.5;" x="829.44" xlink:href="#m236b90d82a" y="64.08"/>
      </g>
     </g>
     <g id="text_4">
      <!-- $\mathdefault{10^{0}}$ -->
      <g transform="translate(818.28 590.464375)scale(0.12 -0.12)">
       <use transform="translate(0.0 0.796875)" xlink:href="#BitstreamVeraSans-Roman-31"/>
       <use transform="translate(63.623046875 0.796875)" xlink:href="#BitstreamVeraSans-Roman-30"/>
       <use transform="translate(132.75859375 48.046875)scale(0.7)" xlink:href="#BitstreamVeraSans-Roman-30"/>
      </g>
     </g>
    </g>
    <g id="xtick_5">
     <g id="line2d_20">
      <defs>
       <path d="M 0 0 
L 0 -2 
" id="m4742c5b1eb" style="stroke:#000000;stroke-width:0.5;"/>
      </defs>
      <g>
       <use style="stroke:#000000;stroke-width:0.5;" x="186.869221368" xlink:href="#m4742c5b1eb" y="576.72"/>
      </g>
     </g>
     <g id="line2d_21">
      <defs>
       <path d="M 0 0 
L 0 2 
" id="m588b59f5ba" style="stroke:#000000;stroke-width:0.5;"/>
      </defs>
      <g>
       <use style="stroke:#000000;stroke-width:0.5;" x="186.869221368" xlink:href="#m588b59f5ba" y="64.08"/>
      </g>
     </g>
    </g>
    <g id="xtick_6">
     <g id="line2d_22">
      <g>
       <use style="stroke:#000000;stroke-width:0.5;" x="228.793028324" xlink:href="#m4742c5b1eb" y="576.72"/>
      </g>
     </g>
     <g id="line2d_23">
      <g>
       <use style="stroke:#000000;stroke-width:0.5;" x="228.793028324" xlink:href="#m588b59f5ba" y="64.08"/>
      </g>
     </g>
    </g>
    <g id="xtick_7">
     <g id="line2d_24">
      <g>
       <use style="stroke:#000000;stroke-width:0.5;" x="258.538442735" xlink:href="#m4742c5b1eb" y="576.72"/>
      </g>
     </g>
     <g id="line2d_25">
      <g>
       <use style="stroke:#000000;stroke-width:0.5;" x="258.538442735" xlink:href="#m588b59f5ba" y="64.08"/>
      </g>
     </g>
    </g>
    <g id="xtick_8">
     <g id="line2d_26">
      <g>
       <use style="stroke:#000000;stroke-width:0.5;" x="281.610778632" xlink:href="#m4742c5b1eb" y="576.72"/>
      </g>
     </g>
     <g id="line2d_27">
      <g>
       <use style="stroke:#000000;stroke-width:0.5;" x="281.610778632" xlink:href="#m588b59f5ba" y="64.08"/>
      </g>
     </g>
    </g>
    <g id="xtick_9">
     <g id="line2d_28">
      <g>
       <use style="stroke:#000000;stroke-width:0.5;" x="300.462249691" xlink:href="#m4742c5b1eb" y="576.72"/>
      </g>
     </g>
     <g id="line2d_29">
      <g>
       <use style="stroke:#000000;stroke-width:0.5;" x="300.462249691" xlink:href="#m588b59f5ba" y="64.08"/>
      </g>
     </g>
    </g>
    <g id="xtick_10">
     <g id="line2d_30">
      <g>
       <use style="stroke:#000000;stroke-width:0.5;" x="316.400941367" xlink:href="#m4742c5b1eb" y="576.72"/>
      </g>
     </g>
     <g id="line2d_31">
      <g>
       <use style="stroke:#000000;stroke-width:0.5;" x="316.400941367" xlink:href="#m588b59f5ba" y="64.08"/>
      </g>
     </g>
    </g>
    <g id="xtick_11">
     <g id="line2d_32">
      <g>
       <use style="stroke:#000000;stroke-width:0.5;" x="330.207664103" xlink:href="#m4742c5b1eb" y="576.72"/>
      </g>
     </g>
     <g id="line2d_33">
      <g>
       <use style="stroke:#000000;stroke-width:0.5;" x="330.207664103" xlink:href="#m588b59f5ba" y="64.08"/>
      </g>
     </g>
    </g>
    <g id="xtick_12">
     <g id="line2d_34">
      <g>
       <use style="stroke:#000000;stroke-width:0.5;" x="342.386056647" xlink:href="#m4742c5b1eb" y="576.72"/>
      </g>
     </g>
     <g id="line2d_35">
      <g>
       <use style="stroke:#000000;stroke-width:0.5;" x="342.386056647" xlink:href="#m588b59f5ba" y="64.08"/>
      </g>
     </g>
    </g>
    <g id="xtick_13">
     <g id="line2d_36">
      <g>
       <use style="stroke:#000000;stroke-width:0.5;" x="424.949221368" xlink:href="#m4742c5b1eb" y="576.72"/>
      </g>
     </g>
     <g id="line2d_37">
      <g>
       <use style="stroke:#000000;stroke-width:0.5;" x="424.949221368" xlink:href="#m588b59f5ba" y="64.08"/>
      </g>
     </g>
    </g>
    <g id="xtick_14">
     <g id="line2d_38">
      <g>
       <use style="stroke:#000000;stroke-width:0.5;" x="466.873028324" xlink:href="#m4742c5b1eb" y="576.72"/>
      </g>
     </g>
     <g id="line2d_39">
      <g>
       <use style="stroke:#000000;stroke-width:0.5;" x="466.873028324" xlink:href="#m588b59f5ba" y="64.08"/>
      </g>
     </g>
    </g>
    <g id="xtick_15">
     <g id="line2d_40">
      <g>
       <use style="stroke:#000000;stroke-width:0.5;" x="496.618442735" xlink:href="#m4742c5b1eb" y="576.72"/>
      </g>
     </g>
     <g id="line2d_41">
      <g>
       <use style="stroke:#000000;stroke-width:0.5;" x="496.618442735" xlink:href="#m588b59f5ba" y="64.08"/>
      </g>
     </g>
    </g>
    <g id="xtick_16">
     <g id="line2d_42">
      <g>
       <use style="stroke:#000000;stroke-width:0.5;" x="519.690778632" xlink:href="#m4742c5b1eb" y="576.72"/>
      </g>
     </g>
     <g id="line2d_43">
      <g>
       <use style="stroke:#000000;stroke-width:0.5;" x="519.690778632" xlink:href="#m588b59f5ba" y="64.08"/>
      </g>
     </g>
    </g>
    <g id="xtick_17">
     <g id="line2d_44">
      <g>
       <use style="stroke:#000000;stroke-width:0.5;" x="538.542249691" xlink:href="#m4742c5b1eb" y="576.72"/>
      </g>
     </g>
     <g id="line2d_45">
      <g>
       <use style="stroke:#000000;stroke-width:0.5;" x="538.542249691" xlink:href="#m588b59f5ba" y="64.08"/>
      </g>
     </g>
    </g>
    <g id="xtick_18">
     <g id="line2d_46">
      <g>
       <use style="stroke:#000000;stroke-width:0.5;" x="554.480941367" xlink:href="#m4742c5b1eb" y="576.72"/>
      </g>
     </g>
     <g id="line2d_47">
      <g>
       <use style="stroke:#000000;stroke-width:0.5;" x="554.480941367" xlink:href="#m588b59f5ba" y="64.08"/>
      </g>
     </g>
    </g>
    <g id="xtick_19">
     <g id="line2d_48">
      <g>
       <use style="stroke:#000000;stroke-width:0.5;" x="568.287664103" xlink:href="#m4742c5b1eb" y="576.72"/>
      </g>
     </g>
     <g id="line2d_49">
      <g>
       <use style="stroke:#000000;stroke-width:0.5;" x="568.287664103" xlink:href="#m588b59f5ba" y="64.08"/>
      </g>
     </g>
    </g>
    <g id="xtick_20">
     <g id="line2d_50">
      <g>
       <use style="stroke:#000000;stroke-width:0.5;" x="580.466056647" xlink:href="#m4742c5b1eb" y="576.72"/>
      </g>
     </g>
     <g id="line2d_51">
      <g>
       <use style="stroke:#000000;stroke-width:0.5;" x="580.466056647" xlink:href="#m588b59f5ba" y="64.08"/>
      </g>
     </g>
    </g>
    <g id="xtick_21">
     <g id="line2d_52">
      <g>
       <use style="stroke:#000000;stroke-width:0.5;" x="663.029221368" xlink:href="#m4742c5b1eb" y="576.72"/>
      </g>
     </g>
     <g id="line2d_53">
      <g>
       <use style="stroke:#000000;stroke-width:0.5;" x="663.029221368" xlink:href="#m588b59f5ba" y="64.08"/>
      </g>
     </g>
    </g>
    <g id="xtick_22">
     <g id="line2d_54">
      <g>
       <use style="stroke:#000000;stroke-width:0.5;" x="704.953028324" xlink:href="#m4742c5b1eb" y="576.72"/>
      </g>
     </g>
     <g id="line2d_55">
      <g>
       <use style="stroke:#000000;stroke-width:0.5;" x="704.953028324" xlink:href="#m588b59f5ba" y="64.08"/>
      </g>
     </g>
    </g>
    <g id="xtick_23">
     <g id="line2d_56">
      <g>
       <use style="stroke:#000000;stroke-width:0.5;" x="734.698442735" xlink:href="#m4742c5b1eb" y="576.72"/>
      </g>
     </g>
     <g id="line2d_57">
      <g>
       <use style="stroke:#000000;stroke-width:0.5;" x="734.698442735" xlink:href="#m588b59f5ba" y="64.08"/>
      </g>
     </g>
    </g>
    <g id="xtick_24">
     <g id="line2d_58">
      <g>
       <use style="stroke:#000000;stroke-width:0.5;" x="757.770778632" xlink:href="#m4742c5b1eb" y="576.72"/>
      </g>
     </g>
     <g id="line2d_59">
      <g>
       <use style="stroke:#000000;stroke-width:0.5;" x="757.770778632" xlink:href="#m588b59f5ba" y="64.08"/>
      </g>
     </g>
    </g>
    <g id="xtick_25">
     <g id="line2d_60">
      <g>
       <use style="stroke:#000000;stroke-width:0.5;" x="776.622249691" xlink:href="#m4742c5b1eb" y="576.72"/>
      </g>
     </g>
     <g id="line2d_61">
      <g>
       <use style="stroke:#000000;stroke-width:0.5;" x="776.622249691" xlink:href="#m588b59f5ba" y="64.08"/>
      </g>
     </g>
    </g>
    <g id="xtick_26">
     <g id="line2d_62">
      <g>
       <use style="stroke:#000000;stroke-width:0.5;" x="792.560941367" xlink:href="#m4742c5b1eb" y="576.72"/>
      </g>
     </g>
     <g id="line2d_63">
      <g>
       <use style="stroke:#000000;stroke-width:0.5;" x="792.560941367" xlink:href="#m588b59f5ba" y="64.08"/>
      </g>
     </g>
    </g>
    <g id="xtick_27">
     <g id="line2d_64">
      <g>
       <use style="stroke:#000000;stroke-width:0.5;" x="806.367664103" xlink:href="#m4742c5b1eb" y="576.72"/>
      </g>
     </g>
     <g id="line2d_65">
      <g>
       <use style="stroke:#000000;stroke-width:0.5;" x="806.367664103" xlink:href="#m588b59f5ba" y="64.08"/>
      </g>
     </g>
    </g>
    <g id="xtick_28">
     <g id="line2d_66">
      <g>
       <use style="stroke:#000000;stroke-width:0.5;" x="818.546056647" xlink:href="#m4742c5b1eb" y="576.72"/>
      </g>
     </g>
     <g id="line2d_67">
      <g>
       <use style="stroke:#000000;stroke-width:0.5;" x="818.546056647" xlink:href="#m588b59f5ba" y="64.08"/>
      </g>
     </g>
    </g>
   </g>
   <g id="matplotlib.axis_2">
    <g id="ytick_1">
     <g id="line2d_68">
      <defs>
       <path d="M 0 0 
L 4 0 
" id="mefecfaef8c" style="stroke:#000000;stroke-width:0.5;"/>
      </defs>
      <g>
       <use style="stroke:#000000;stroke-width:0.5;" x="115.2" xlink:href="#mefecfaef8c" y="576.72"/>
      </g>
     </g>
     <g id="line2d_69">
      <defs>
       <path d="M 0 0 
L -4 0 
" id="m43cab9cf42" style="stroke:#000000;stroke-width:0.5;"/>
      </defs>
      <g>
       <use style="stroke:#000000;stroke-width:0.5;" x="829.44" xlink:href="#m43cab9cf42" y="576.72"/>
      </g>
     </g>
     <g id="text_5">
      <!-- 8 -->
      <defs>
       <path d="M 31.78125 34.625 
Q 24.75 34.625 20.71875 30.859375 
Q 16.703125 27.09375 16.703125 20.515625 
Q 16.703125 13.921875 20.71875 10.15625 
Q 24.75 6.390625 31.78125 6.390625 
Q 38.8125 6.390625 42.859375 10.171875 
Q 46.921875 13.96875 46.921875 20.515625 
Q 46.921875 27.09375 42.890625 30.859375 
Q 38.875 34.625 31.78125 34.625 
M 21.921875 38.8125 
Q 15.578125 40.375 12.03125 44.71875 
Q 8.5 49.078125 8.5 55.328125 
Q 8.5 64.0625 14.71875 69.140625 
Q 20.953125 74.21875 31.78125 74.21875 
Q 42.671875 74.21875 48.875 69.140625 
Q 55.078125 64.0625 55.078125 55.328125 
Q 55.078125 49.078125 51.53125 44.71875 
Q 48 40.375 41.703125 38.8125 
Q 48.828125 37.15625 52.796875 32.3125 
Q 56.78125 27.484375 56.78125 20.515625 
Q 56.78125 9.90625 50.3125 4.234375 
Q 43.84375 -1.421875 31.78125 -1.421875 
Q 19.734375 -1.421875 13.25 4.234375 
Q 6.78125 9.90625 6.78125 20.515625 
Q 6.78125 27.484375 10.78125 32.3125 
Q 14.796875 37.15625 21.921875 38.8125 
M 18.3125 54.390625 
Q 18.3125 48.734375 21.84375 45.5625 
Q 25.390625 42.390625 31.78125 42.390625 
Q 38.140625 42.390625 41.71875 45.5625 
Q 45.3125 48.734375 45.3125 54.390625 
Q 45.3125 60.0625 41.71875 63.234375 
Q 38.140625 66.40625 31.78125 66.40625 
Q 25.390625 66.40625 21.84375 63.234375 
Q 18.3125 60.0625 18.3125 54.390625 
" id="BitstreamVeraSans-Roman-38"/>
       <path d="M 10.59375 35.5 
L 73.1875 35.5 
L 73.1875 27.203125 
L 10.59375 27.203125 
z
" id="BitstreamVeraSans-Roman-2212"/>
      </defs>
      <g transform="translate(93.509375 580.03125)scale(0.12 -0.12)">
       <use xlink:href="#BitstreamVeraSans-Roman-2212"/>
       <use x="83.7890625" xlink:href="#BitstreamVeraSans-Roman-38"/>
      </g>
     </g>
    </g>
    <g id="ytick_2">
     <g id="line2d_70">
      <g>
       <use style="stroke:#000000;stroke-width:0.5;" x="115.2" xlink:href="#mefecfaef8c" y="503.485714286"/>
      </g>
     </g>
     <g id="line2d_71">
      <g>
       <use style="stroke:#000000;stroke-width:0.5;" x="829.44" xlink:href="#m43cab9cf42" y="503.485714286"/>
      </g>
     </g>
     <g id="text_6">
      <!-- 7 -->
      <defs>
       <path d="M 8.203125 72.90625 
L 55.078125 72.90625 
L 55.078125 68.703125 
L 28.609375 0 
L 18.3125 0 
L 43.21875 64.59375 
L 8.203125 64.59375 
z
" id="BitstreamVeraSans-Roman-37"/>
      </defs>
      <g transform="translate(93.509375 506.796964286)scale(0.12 -0.12)">
       <use xlink:href="#BitstreamVeraSans-Roman-2212"/>
       <use x="83.7890625" xlink:href="#BitstreamVeraSans-Roman-37"/>
      </g>
     </g>
    </g>
    <g id="ytick_3">
     <g id="line2d_72">
      <g>
       <use style="stroke:#000000;stroke-width:0.5;" x="115.2" xlink:href="#mefecfaef8c" y="430.251428571"/>
      </g>
     </g>
     <g id="line2d_73">
      <g>
       <use style="stroke:#000000;stroke-width:0.5;" x="829.44" xlink:href="#m43cab9cf42" y="430.251428571"/>
      </g>
     </g>
     <g id="text_7">
      <!-- 6 -->
      <defs>
       <path d="M 33.015625 40.375 
Q 26.375 40.375 22.484375 35.828125 
Q 18.609375 31.296875 18.609375 23.390625 
Q 18.609375 15.53125 22.484375 10.953125 
Q 26.375 6.390625 33.015625 6.390625 
Q 39.65625 6.390625 43.53125 10.953125 
Q 47.40625 15.53125 47.40625 23.390625 
Q 47.40625 31.296875 43.53125 35.828125 
Q 39.65625 40.375 33.015625 40.375 
M 52.59375 71.296875 
L 52.59375 62.3125 
Q 48.875 64.0625 45.09375 64.984375 
Q 41.3125 65.921875 37.59375 65.921875 
Q 27.828125 65.921875 22.671875 59.328125 
Q 17.53125 52.734375 16.796875 39.40625 
Q 19.671875 43.65625 24.015625 45.921875 
Q 28.375 48.1875 33.59375 48.1875 
Q 44.578125 48.1875 50.953125 41.515625 
Q 57.328125 34.859375 57.328125 23.390625 
Q 57.328125 12.15625 50.6875 5.359375 
Q 44.046875 -1.421875 33.015625 -1.421875 
Q 20.359375 -1.421875 13.671875 8.265625 
Q 6.984375 17.96875 6.984375 36.375 
Q 6.984375 53.65625 15.1875 63.9375 
Q 23.390625 74.21875 37.203125 74.21875 
Q 40.921875 74.21875 44.703125 73.484375 
Q 48.484375 72.75 52.59375 71.296875 
" id="BitstreamVeraSans-Roman-36"/>
      </defs>
      <g transform="translate(93.509375 433.562678571)scale(0.12 -0.12)">
       <use xlink:href="#BitstreamVeraSans-Roman-2212"/>
       <use x="83.7890625" xlink:href="#BitstreamVeraSans-Roman-36"/>
      </g>
     </g>
    </g>
    <g id="ytick_4">
     <g id="line2d_74">
      <g>
       <use style="stroke:#000000;stroke-width:0.5;" x="115.2" xlink:href="#mefecfaef8c" y="357.017142857"/>
      </g>
     </g>
     <g id="line2d_75">
      <g>
       <use style="stroke:#000000;stroke-width:0.5;" x="829.44" xlink:href="#m43cab9cf42" y="357.017142857"/>
      </g>
     </g>
     <g id="text_8">
      <!-- 5 -->
      <defs>
       <path d="M 10.796875 72.90625 
L 49.515625 72.90625 
L 49.515625 64.59375 
L 19.828125 64.59375 
L 19.828125 46.734375 
Q 21.96875 47.46875 24.109375 47.828125 
Q 26.265625 48.1875 28.421875 48.1875 
Q 40.625 48.1875 47.75 41.5 
Q 54.890625 34.8125 54.890625 23.390625 
Q 54.890625 11.625 47.5625 5.09375 
Q 40.234375 -1.421875 26.90625 -1.421875 
Q 22.3125 -1.421875 17.546875 -0.640625 
Q 12.796875 0.140625 7.71875 1.703125 
L 7.71875 11.625 
Q 12.109375 9.234375 16.796875 8.0625 
Q 21.484375 6.890625 26.703125 6.890625 
Q 35.15625 6.890625 40.078125 11.328125 
Q 45.015625 15.765625 45.015625 23.390625 
Q 45.015625 31 40.078125 35.4375 
Q 35.15625 39.890625 26.703125 39.890625 
Q 22.75 39.890625 18.8125 39.015625 
Q 14.890625 38.140625 10.796875 36.28125 
z
" id="BitstreamVeraSans-Roman-35"/>
      </defs>
      <g transform="translate(93.509375 360.328392857)scale(0.12 -0.12)">
       <use xlink:href="#BitstreamVeraSans-Roman-2212"/>
       <use x="83.7890625" xlink:href="#BitstreamVeraSans-Roman-35"/>
      </g>
     </g>
    </g>
    <g id="ytick_5">
     <g id="line2d_76">
      <g>
       <use style="stroke:#000000;stroke-width:0.5;" x="115.2" xlink:href="#mefecfaef8c" y="283.782857143"/>
      </g>
     </g>
     <g id="line2d_77">
      <g>
       <use style="stroke:#000000;stroke-width:0.5;" x="829.44" xlink:href="#m43cab9cf42" y="283.782857143"/>
      </g>
     </g>
     <g id="text_9">
      <!-- 4 -->
      <defs>
       <path d="M 37.796875 64.3125 
L 12.890625 25.390625 
L 37.796875 25.390625 
z
M 35.203125 72.90625 
L 47.609375 72.90625 
L 47.609375 25.390625 
L 58.015625 25.390625 
L 58.015625 17.1875 
L 47.609375 17.1875 
L 47.609375 0 
L 37.796875 0 
L 37.796875 17.1875 
L 4.890625 17.1875 
L 4.890625 26.703125 
z
" id="BitstreamVeraSans-Roman-34"/>
      </defs>
      <g transform="translate(93.509375 287.094107143)scale(0.12 -0.12)">
       <use xlink:href="#BitstreamVeraSans-Roman-2212"/>
       <use x="83.7890625" xlink:href="#BitstreamVeraSans-Roman-34"/>
      </g>
     </g>
    </g>
    <g id="ytick_6">
     <g id="line2d_78">
      <g>
       <use style="stroke:#000000;stroke-width:0.5;" x="115.2" xlink:href="#mefecfaef8c" y="210.548571429"/>
      </g>
     </g>
     <g id="line2d_79">
      <g>
       <use style="stroke:#000000;stroke-width:0.5;" x="829.44" xlink:href="#m43cab9cf42" y="210.548571429"/>
      </g>
     </g>
     <g id="text_10">
      <!-- 3 -->
      <g transform="translate(93.509375 213.859821429)scale(0.12 -0.12)">
       <use xlink:href="#BitstreamVeraSans-Roman-2212"/>
       <use x="83.7890625" xlink:href="#BitstreamVeraSans-Roman-33"/>
      </g>
     </g>
    </g>
    <g id="ytick_7">
     <g id="line2d_80">
      <g>
       <use style="stroke:#000000;stroke-width:0.5;" x="115.2" xlink:href="#mefecfaef8c" y="137.314285714"/>
      </g>
     </g>
     <g id="line2d_81">
      <g>
       <use style="stroke:#000000;stroke-width:0.5;" x="829.44" xlink:href="#m43cab9cf42" y="137.314285714"/>
      </g>
     </g>
     <g id="text_11">
      <!-- 2 -->
      <g transform="translate(93.509375 140.625535714)scale(0.12 -0.12)">
       <use xlink:href="#BitstreamVeraSans-Roman-2212"/>
       <use x="83.7890625" xlink:href="#BitstreamVeraSans-Roman-32"/>
      </g>
     </g>
    </g>
    <g id="ytick_8">
     <g id="line2d_82">
      <g>
       <use style="stroke:#000000;stroke-width:0.5;" x="115.2" xlink:href="#mefecfaef8c" y="64.08"/>
      </g>
     </g>
     <g id="line2d_83">
      <g>
       <use style="stroke:#000000;stroke-width:0.5;" x="829.44" xlink:href="#m43cab9cf42" y="64.08"/>
      </g>
     </g>
     <g id="text_12">
      <!-- 1 -->
      <g transform="translate(93.509375 67.39125)scale(0.12 -0.12)">
       <use xlink:href="#BitstreamVeraSans-Roman-2212"/>
       <use x="83.7890625" xlink:href="#BitstreamVeraSans-Roman-31"/>
      </g>
     </g>
    </g>
   </g>
   <g id="legend_1">
    <g id="patch_7">
     <path d="M 122.4 569.52 
L 257.98275 569.52 
L 257.98275 332.6985 
L 122.4 332.6985 
z
" style="fill:#ffffff;stroke:#000000;stroke-linejoin:miter;"/>
    </g>
    <g id="line2d_84">
     <path d="M 132.48 344.36025 
L 152.64 344.36025 
" style="fill:none;stroke:#ff1e1e;stroke-linecap:square;"/>
    </g>
    <g id="line2d_85"/>
    <g id="text_13">
     <!-- Std: 0.0 -->
     <defs>
      <path d="M 11.71875 12.40625 
L 22.015625 12.40625 
L 22.015625 0 
L 11.71875 0 
z
M 11.71875 51.703125 
L 22.015625 51.703125 
L 22.015625 39.3125 
L 11.71875 39.3125 
z
" id="BitstreamVeraSans-Roman-3a"/>
      <path id="BitstreamVeraSans-Roman-20"/>
      <path d="M 45.40625 46.390625 
L 45.40625 75.984375 
L 54.390625 75.984375 
L 54.390625 0 
L 45.40625 0 
L 45.40625 8.203125 
Q 42.578125 3.328125 38.25 0.953125 
Q 33.9375 -1.421875 27.875 -1.421875 
Q 17.96875 -1.421875 11.734375 6.484375 
Q 5.515625 14.40625 5.515625 27.296875 
Q 5.515625 40.1875 11.734375 48.09375 
Q 17.96875 56 27.875 56 
Q 33.9375 56 38.25 53.625 
Q 42.578125 51.265625 45.40625 46.390625 
M 14.796875 27.296875 
Q 14.796875 17.390625 18.875 11.75 
Q 22.953125 6.109375 30.078125 6.109375 
Q 37.203125 6.109375 41.296875 11.75 
Q 45.40625 17.390625 45.40625 27.296875 
Q 45.40625 37.203125 41.296875 42.84375 
Q 37.203125 48.484375 30.078125 48.484375 
Q 22.953125 48.484375 18.875 42.84375 
Q 14.796875 37.203125 14.796875 27.296875 
" id="BitstreamVeraSans-Roman-64"/>
      <path d="M 18.3125 70.21875 
L 18.3125 54.6875 
L 36.8125 54.6875 
L 36.8125 47.703125 
L 18.3125 47.703125 
L 18.3125 18.015625 
Q 18.3125 11.328125 20.140625 9.421875 
Q 21.96875 7.515625 27.59375 7.515625 
L 36.8125 7.515625 
L 36.8125 0 
L 27.59375 0 
Q 17.1875 0 13.234375 3.875 
Q 9.28125 7.765625 9.28125 18.015625 
L 9.28125 47.703125 
L 2.6875 47.703125 
L 2.6875 54.6875 
L 9.28125 54.6875 
L 9.28125 70.21875 
z
" id="BitstreamVeraSans-Roman-74"/>
      <path d="M 10.6875 12.40625 
L 21 12.40625 
L 21 0 
L 10.6875 0 
z
" id="BitstreamVeraSans-Roman-2e"/>
      <path d="M 53.515625 70.515625 
L 53.515625 60.890625 
Q 47.90625 63.578125 42.921875 64.890625 
Q 37.9375 66.21875 33.296875 66.21875 
Q 25.25 66.21875 20.875 63.09375 
Q 16.5 59.96875 16.5 54.203125 
Q 16.5 49.359375 19.40625 46.890625 
Q 22.3125 44.4375 30.421875 42.921875 
L 36.375 41.703125 
Q 47.40625 39.59375 52.65625 34.296875 
Q 57.90625 29 57.90625 20.125 
Q 57.90625 9.515625 50.796875 4.046875 
Q 43.703125 -1.421875 29.984375 -1.421875 
Q 24.8125 -1.421875 18.96875 -0.25 
Q 13.140625 0.921875 6.890625 3.21875 
L 6.890625 13.375 
Q 12.890625 10.015625 18.65625 8.296875 
Q 24.421875 6.59375 29.984375 6.59375 
Q 38.421875 6.59375 43.015625 9.90625 
Q 47.609375 13.234375 47.609375 19.390625 
Q 47.609375 24.75 44.3125 27.78125 
Q 41.015625 30.8125 33.5 32.328125 
L 27.484375 33.5 
Q 16.453125 35.6875 11.515625 40.375 
Q 6.59375 45.0625 6.59375 53.421875 
Q 6.59375 63.09375 13.40625 68.65625 
Q 20.21875 74.21875 32.171875 74.21875 
Q 37.3125 74.21875 42.625 73.28125 
Q 47.953125 72.359375 53.515625 70.515625 
" id="BitstreamVeraSans-Roman-53"/>
     </defs>
     <g transform="translate(168.48 349.40025)scale(0.144 -0.144)">
      <use xlink:href="#BitstreamVeraSans-Roman-53"/>
      <use x="63.4765625" xlink:href="#BitstreamVeraSans-Roman-74"/>
      <use x="102.685546875" xlink:href="#BitstreamVeraSans-Roman-64"/>
      <use x="166.162109375" xlink:href="#BitstreamVeraSans-Roman-3a"/>
      <use x="199.853515625" xlink:href="#BitstreamVeraSans-Roman-20"/>
      <use x="231.640625" xlink:href="#BitstreamVeraSans-Roman-30"/>
      <use x="295.263671875" xlink:href="#BitstreamVeraSans-Roman-2e"/>
      <use x="327.05078125" xlink:href="#BitstreamVeraSans-Roman-30"/>
     </g>
    </g>
    <g id="line2d_86">
     <path d="M 132.48 365.49675 
L 152.64 365.49675 
" style="fill:none;stroke:#581845;stroke-linecap:square;"/>
    </g>
    <g id="line2d_87"/>
    <g id="text_14">
     <!-- Std: 100.0 -->
     <g transform="translate(168.48 370.53675)scale(0.144 -0.144)">
      <use xlink:href="#BitstreamVeraSans-Roman-53"/>
      <use x="63.4765625" xlink:href="#BitstreamVeraSans-Roman-74"/>
      <use x="102.685546875" xlink:href="#BitstreamVeraSans-Roman-64"/>
      <use x="166.162109375" xlink:href="#BitstreamVeraSans-Roman-3a"/>
      <use x="199.853515625" xlink:href="#BitstreamVeraSans-Roman-20"/>
      <use x="231.640625" xlink:href="#BitstreamVeraSans-Roman-31"/>
      <use x="295.263671875" xlink:href="#BitstreamVeraSans-Roman-30"/>
      <use x="358.88671875" xlink:href="#BitstreamVeraSans-Roman-30"/>
      <use x="422.509765625" xlink:href="#BitstreamVeraSans-Roman-2e"/>
      <use x="454.296875" xlink:href="#BitstreamVeraSans-Roman-30"/>
     </g>
    </g>
    <g id="line2d_88">
     <path d="M 132.48 386.63325 
L 152.64 386.63325 
" style="fill:none;stroke:#26b7d8;stroke-linecap:square;"/>
    </g>
    <g id="line2d_89"/>
    <g id="text_15">
     <!-- Std: 200.0 -->
     <g transform="translate(168.48 391.67325)scale(0.144 -0.144)">
      <use xlink:href="#BitstreamVeraSans-Roman-53"/>
      <use x="63.4765625" xlink:href="#BitstreamVeraSans-Roman-74"/>
      <use x="102.685546875" xlink:href="#BitstreamVeraSans-Roman-64"/>
      <use x="166.162109375" xlink:href="#BitstreamVeraSans-Roman-3a"/>
      <use x="199.853515625" xlink:href="#BitstreamVeraSans-Roman-20"/>
      <use x="231.640625" xlink:href="#BitstreamVeraSans-Roman-32"/>
      <use x="295.263671875" xlink:href="#BitstreamVeraSans-Roman-30"/>
      <use x="358.88671875" xlink:href="#BitstreamVeraSans-Roman-30"/>
      <use x="422.509765625" xlink:href="#BitstreamVeraSans-Roman-2e"/>
      <use x="454.296875" xlink:href="#BitstreamVeraSans-Roman-30"/>
     </g>
    </g>
    <g id="line2d_90">
     <path d="M 132.48 407.76975 
L 152.64 407.76975 
" style="fill:none;stroke:#8414a4;stroke-linecap:square;"/>
    </g>
    <g id="line2d_91"/>
    <g id="text_16">
     <!-- Std: 300.0 -->
     <g transform="translate(168.48 412.80975)scale(0.144 -0.144)">
      <use xlink:href="#BitstreamVeraSans-Roman-53"/>
      <use x="63.4765625" xlink:href="#BitstreamVeraSans-Roman-74"/>
      <use x="102.685546875" xlink:href="#BitstreamVeraSans-Roman-64"/>
      <use x="166.162109375" xlink:href="#BitstreamVeraSans-Roman-3a"/>
      <use x="199.853515625" xlink:href="#BitstreamVeraSans-Roman-20"/>
      <use x="231.640625" xlink:href="#BitstreamVeraSans-Roman-33"/>
      <use x="295.263671875" xlink:href="#BitstreamVeraSans-Roman-30"/>
      <use x="358.88671875" xlink:href="#BitstreamVeraSans-Roman-30"/>
      <use x="422.509765625" xlink:href="#BitstreamVeraSans-Roman-2e"/>
      <use x="454.296875" xlink:href="#BitstreamVeraSans-Roman-30"/>
     </g>
    </g>
    <g id="line2d_92">
     <path d="M 132.48 428.90625 
L 152.64 428.90625 
" style="fill:none;stroke:#ffd23a;stroke-linecap:square;"/>
    </g>
    <g id="line2d_93"/>
    <g id="text_17">
     <!-- Std: 400.0 -->
     <g transform="translate(168.48 433.94625)scale(0.144 -0.144)">
      <use xlink:href="#BitstreamVeraSans-Roman-53"/>
      <use x="63.4765625" xlink:href="#BitstreamVeraSans-Roman-74"/>
      <use x="102.685546875" xlink:href="#BitstreamVeraSans-Roman-64"/>
      <use x="166.162109375" xlink:href="#BitstreamVeraSans-Roman-3a"/>
      <use x="199.853515625" xlink:href="#BitstreamVeraSans-Roman-20"/>
      <use x="231.640625" xlink:href="#BitstreamVeraSans-Roman-34"/>
      <use x="295.263671875" xlink:href="#BitstreamVeraSans-Roman-30"/>
      <use x="358.88671875" xlink:href="#BitstreamVeraSans-Roman-30"/>
      <use x="422.509765625" xlink:href="#BitstreamVeraSans-Roman-2e"/>
      <use x="454.296875" xlink:href="#BitstreamVeraSans-Roman-30"/>
     </g>
    </g>
    <g id="line2d_94">
     <path d="M 132.48 450.04275 
L 152.64 450.04275 
" style="fill:none;stroke:#ff9300;stroke-linecap:square;"/>
    </g>
    <g id="line2d_95"/>
    <g id="text_18">
     <!-- Std: 500.0 -->
     <g transform="translate(168.48 455.08275)scale(0.144 -0.144)">
      <use xlink:href="#BitstreamVeraSans-Roman-53"/>
      <use x="63.4765625" xlink:href="#BitstreamVeraSans-Roman-74"/>
      <use x="102.685546875" xlink:href="#BitstreamVeraSans-Roman-64"/>
      <use x="166.162109375" xlink:href="#BitstreamVeraSans-Roman-3a"/>
      <use x="199.853515625" xlink:href="#BitstreamVeraSans-Roman-20"/>
      <use x="231.640625" xlink:href="#BitstreamVeraSans-Roman-35"/>
      <use x="295.263671875" xlink:href="#BitstreamVeraSans-Roman-30"/>
      <use x="358.88671875" xlink:href="#BitstreamVeraSans-Roman-30"/>
      <use x="422.509765625" xlink:href="#BitstreamVeraSans-Roman-2e"/>
      <use x="454.296875" xlink:href="#BitstreamVeraSans-Roman-30"/>
     </g>
    </g>
    <g id="line2d_96">
     <path d="M 132.48 471.17925 
L 152.64 471.17925 
" style="fill:none;stroke:#f50fe6;stroke-linecap:square;"/>
    </g>
    <g id="line2d_97"/>
    <g id="text_19">
     <!-- Std: 600.0 -->
     <g transform="translate(168.48 476.21925)scale(0.144 -0.144)">
      <use xlink:href="#BitstreamVeraSans-Roman-53"/>
      <use x="63.4765625" xlink:href="#BitstreamVeraSans-Roman-74"/>
      <use x="102.685546875" xlink:href="#BitstreamVeraSans-Roman-64"/>
      <use x="166.162109375" xlink:href="#BitstreamVeraSans-Roman-3a"/>
      <use x="199.853515625" xlink:href="#BitstreamVeraSans-Roman-20"/>
      <use x="231.640625" xlink:href="#BitstreamVeraSans-Roman-36"/>
      <use x="295.263671875" xlink:href="#BitstreamVeraSans-Roman-30"/>
      <use x="358.88671875" xlink:href="#BitstreamVeraSans-Roman-30"/>
      <use x="422.509765625" xlink:href="#BitstreamVeraSans-Roman-2e"/>
      <use x="454.296875" xlink:href="#BitstreamVeraSans-Roman-30"/>
     </g>
    </g>
    <g id="line2d_98">
     <path d="M 132.48 492.31575 
L 152.64 492.31575 
" style="fill:none;stroke:#1000a0;stroke-linecap:square;"/>
    </g>
    <g id="line2d_99"/>
    <g id="text_20">
     <!-- Std: 700.0 -->
     <g transform="translate(168.48 497.35575)scale(0.144 -0.144)">
      <use xlink:href="#BitstreamVeraSans-Roman-53"/>
      <use x="63.4765625" xlink:href="#BitstreamVeraSans-Roman-74"/>
      <use x="102.685546875" xlink:href="#BitstreamVeraSans-Roman-64"/>
      <use x="166.162109375" xlink:href="#BitstreamVeraSans-Roman-3a"/>
      <use x="199.853515625" xlink:href="#BitstreamVeraSans-Roman-20"/>
      <use x="231.640625" xlink:href="#BitstreamVeraSans-Roman-37"/>
      <use x="295.263671875" xlink:href="#BitstreamVeraSans-Roman-30"/>
      <use x="358.88671875" xlink:href="#BitstreamVeraSans-Roman-30"/>
      <use x="422.509765625" xlink:href="#BitstreamVeraSans-Roman-2e"/>
      <use x="454.296875" xlink:href="#BitstreamVeraSans-Roman-30"/>
     </g>
    </g>
    <g id="line2d_100">
     <path d="M 132.48 513.45225 
L 152.64 513.45225 
" style="fill:none;stroke:#595866;stroke-linecap:square;"/>
    </g>
    <g id="line2d_101"/>
    <g id="text_21">
     <!-- Std: 800.0 -->
     <g transform="translate(168.48 518.49225)scale(0.144 -0.144)">
      <use xlink:href="#BitstreamVeraSans-Roman-53"/>
      <use x="63.4765625" xlink:href="#BitstreamVeraSans-Roman-74"/>
      <use x="102.685546875" xlink:href="#BitstreamVeraSans-Roman-64"/>
      <use x="166.162109375" xlink:href="#BitstreamVeraSans-Roman-3a"/>
      <use x="199.853515625" xlink:href="#BitstreamVeraSans-Roman-20"/>
      <use x="231.640625" xlink:href="#BitstreamVeraSans-Roman-38"/>
      <use x="295.263671875" xlink:href="#BitstreamVeraSans-Roman-30"/>
      <use x="358.88671875" xlink:href="#BitstreamVeraSans-Roman-30"/>
      <use x="422.509765625" xlink:href="#BitstreamVeraSans-Roman-2e"/>
      <use x="454.296875" xlink:href="#BitstreamVeraSans-Roman-30"/>
     </g>
    </g>
    <g id="line2d_102">
     <path d="M 132.48 534.58875 
L 152.64 534.58875 
" style="fill:none;stroke:#147f2a;stroke-linecap:square;"/>
    </g>
    <g id="line2d_103"/>
    <g id="text_22">
     <!-- Std: 900.0 -->
     <defs>
      <path d="M 10.984375 1.515625 
L 10.984375 10.5 
Q 14.703125 8.734375 18.5 7.8125 
Q 22.3125 6.890625 25.984375 6.890625 
Q 35.75 6.890625 40.890625 13.453125 
Q 46.046875 20.015625 46.78125 33.40625 
Q 43.953125 29.203125 39.59375 26.953125 
Q 35.25 24.703125 29.984375 24.703125 
Q 19.046875 24.703125 12.671875 31.3125 
Q 6.296875 37.9375 6.296875 49.421875 
Q 6.296875 60.640625 12.9375 67.421875 
Q 19.578125 74.21875 30.609375 74.21875 
Q 43.265625 74.21875 49.921875 64.515625 
Q 56.59375 54.828125 56.59375 36.375 
Q 56.59375 19.140625 48.40625 8.859375 
Q 40.234375 -1.421875 26.421875 -1.421875 
Q 22.703125 -1.421875 18.890625 -0.6875 
Q 15.09375 0.046875 10.984375 1.515625 
M 30.609375 32.421875 
Q 37.25 32.421875 41.125 36.953125 
Q 45.015625 41.5 45.015625 49.421875 
Q 45.015625 57.28125 41.125 61.84375 
Q 37.25 66.40625 30.609375 66.40625 
Q 23.96875 66.40625 20.09375 61.84375 
Q 16.21875 57.28125 16.21875 49.421875 
Q 16.21875 41.5 20.09375 36.953125 
Q 23.96875 32.421875 30.609375 32.421875 
" id="BitstreamVeraSans-Roman-39"/>
     </defs>
     <g transform="translate(168.48 539.62875)scale(0.144 -0.144)">
      <use xlink:href="#BitstreamVeraSans-Roman-53"/>
      <use x="63.4765625" xlink:href="#BitstreamVeraSans-Roman-74"/>
      <use x="102.685546875" xlink:href="#BitstreamVeraSans-Roman-64"/>
      <use x="166.162109375" xlink:href="#BitstreamVeraSans-Roman-3a"/>
      <use x="199.853515625" xlink:href="#BitstreamVeraSans-Roman-20"/>
      <use x="231.640625" xlink:href="#BitstreamVeraSans-Roman-39"/>
      <use x="295.263671875" xlink:href="#BitstreamVeraSans-Roman-30"/>
      <use x="358.88671875" xlink:href="#BitstreamVeraSans-Roman-30"/>
      <use x="422.509765625" xlink:href="#BitstreamVeraSans-Roman-2e"/>
      <use x="454.296875" xlink:href="#BitstreamVeraSans-Roman-30"/>
     </g>
    </g>
    <g id="line2d_104">
     <path d="M 132.48 555.72525 
L 152.64 555.72525 
" style="fill:none;stroke:#00f6aa;stroke-linecap:square;"/>
    </g>
    <g id="line2d_105"/>
    <g id="text_23">
     <!-- Std: 1000.0 -->
     <g transform="translate(168.48 560.76525)scale(0.144 -0.144)">
      <use xlink:href="#BitstreamVeraSans-Roman-53"/>
      <use x="63.4765625" xlink:href="#BitstreamVeraSans-Roman-74"/>
      <use x="102.685546875" xlink:href="#BitstreamVeraSans-Roman-64"/>
      <use x="166.162109375" xlink:href="#BitstreamVeraSans-Roman-3a"/>
      <use x="199.853515625" xlink:href="#BitstreamVeraSans-Roman-20"/>
      <use x="231.640625" xlink:href="#BitstreamVeraSans-Roman-31"/>
      <use x="295.263671875" xlink:href="#BitstreamVeraSans-Roman-30"/>
      <use x="358.88671875" xlink:href="#BitstreamVeraSans-Roman-30"/>
      <use x="422.509765625" xlink:href="#BitstreamVeraSans-Roman-30"/>
      <use x="486.1328125" xlink:href="#BitstreamVeraSans-Roman-2e"/>
      <use x="517.919921875" xlink:href="#BitstreamVeraSans-Roman-30"/>
     </g>
    </g>
   </g>
  </g>
 </g>
 <defs>
  <clipPath id="p3c5033a2f8">
   <rect height="512.64" width="714.24" x="115.2" y="64.08"/>
  </clipPath>
 </defs>
</svg>
