<?xml version="1.0" encoding="utf-8" standalone="no"?>
<!DOCTYPE svg PUBLIC "-//W3C//DTD SVG 1.1//EN"
  "http://www.w3.org/Graphics/SVG/1.1/DTD/svg11.dtd">
<!-- Created with matplotlib (http://matplotlib.org/) -->
<svg height="612pt" version="1.1" viewBox="0 0 921 612" width="921pt" xmlns="http://www.w3.org/2000/svg" xmlns:xlink="http://www.w3.org/1999/xlink">
 <defs>
  <style type="text/css">
*{stroke-linecap:butt;stroke-linejoin:round;stroke-miterlimit:100000;}
  </style>
 </defs>
 <g id="figure_1">
  <g id="patch_1">
   <path d="M 0 612.9 
L 921.6 612.9 
L 921.6 0 
L 0 0 
z
" style="fill:#ffffff;"/>
  </g>
  <g id="axes_1">
   <g id="patch_2">
    <path d="M 115.2 551.61 
L 829.44 551.61 
L 829.44 61.29 
L 115.2 61.29 
z
" style="fill:#ffffff;"/>
   </g>
   <g id="line2d_1">
    <path clip-path="url(#p29ea717ac0)" d="M 115.2 118.188496 
L 132.313668 118.080175 
L 146.992943 118.159813 
L 159.844933 119.790939 
L 171.274613 119.759748 
L 181.565657 120.752513 
L 190.924519 120.877296 
L 199.506137 120.529312 
L 207.42977 121.873758 
L 214.789171 121.909879 
L 221.659384 121.523458 
L 228.101408 121.957811 
L 234.165501 123.028904 
L 239.893559 122.758924 
L 245.320877 123.317286 
L 250.477466 124.273156 
L 255.389057 123.698144 
L 260.077878 124.482524 
L 268.862134 125.251019 
L 272.989385 126.736964 
L 276.958194 126.264706 
L 280.780278 126.778567 
L 284.466099 126.737124 
L 288.025041 127.204165 
L 291.465549 126.927177 
L 294.795252 128.164888 
L 301.149274 128.76874 
L 304.185615 128.757189 
L 307.135328 128.126366 
L 310.003221 128.769019 
L 312.793709 129.242804 
L 318.158437 130.549843 
L 320.739907 130.438853 
L 323.258492 129.937219 
L 325.717185 131.272632 
L 328.118768 131.948241 
L 330.465834 130.820611 
L 332.760802 132.014883 
L 335.005936 132.235903 
L 339.355042 134.070766 
L 341.462865 133.777521 
L 353.28 135.742664 
L 370.393668 137.564378 
L 385.072943 138.738993 
L 397.924933 141.064533 
L 409.354613 145.723548 
L 419.645657 152.441731 
L 429.004519 157.808232 
L 437.586137 165.432784 
L 445.50977 171.954581 
L 452.869171 176.503657 
L 459.739384 183.674874 
L 466.181408 188.408254 
L 477.973559 195.367456 
L 483.400877 195.025575 
L 488.557466 196.940625 
L 493.469057 194.753462 
L 498.157878 197.565213 
L 502.643263 196.667965 
L 506.942134 194.742141 
L 511.069385 194.458988 
L 515.038194 195.170508 
L 518.860278 194.019105 
L 522.546099 197.488263 
L 526.105041 196.637084 
L 529.545549 194.920268 
L 532.875252 198.576347 
L 536.101064 199.837937 
L 539.229274 203.414398 
L 542.265615 200.273291 
L 545.215328 202.252912 
L 548.083221 207.34178 
L 550.873709 206.121722 
L 553.590863 208.840427 
L 556.238437 209.310372 
L 558.819907 205.302348 
L 561.338492 212.57661 
L 563.797185 212.874067 
L 566.198768 215.40521 
L 568.545834 207.618715 
L 570.840802 214.08833 
L 573.085936 222.312052 
L 575.283354 217.201218 
L 577.435042 225.208311 
L 579.542865 223.382634 
L 591.36 220.789579 
L 608.473668 240.922781 
L 623.152943 247.351795 
L 636.004933 260.431597 
L 647.434613 268.630202 
L 657.725657 274.062288 
L 667.084519 292.30473 
L 675.666137 317.119881 
L 683.58977 320.243038 
L 690.949171 332.95053 
L 697.819384 347.889861 
L 704.261408 366.997982 
L 710.325501 376.692657 
L 716.053559 398.003996 
L 721.480877 428.884864 
L 726.637466 425.056116 
L 731.549057 452.178208 
L 736.237878 441.79994 
L 740.723263 460.027232 
L 745.022134 474.293208 
L 749.149385 510.728504 
L 753.118194 496.687969 
L 756.940278 506.015608 
L 760.626099 522.87871 
L 764.185041 527.484566 
L 767.625549 530.451464 
L 770.955252 536.612803 
L 774.181064 222.434419 
L 777.309274 235.53829 
L 780.345615 238.227049 
L 783.295328 241.115113 
L 786.163221 233.788533 
L 788.953709 281.461554 
L 791.670863 259.782165 
L 794.318437 264.922647 
L 796.899907 272.400622 
L 799.418492 277.064062 
L 801.877185 314.450945 
L 804.278768 310.720342 
L 806.625834 321.001624 
L 808.920802 344.482331 
L 811.165936 378.843689 
L 813.363354 351.515788 
L 815.515042 304.548365 
L 817.622865 347.6072 
L 819.688575 395.284477 
L 821.713822 355.282606 
L 823.700162 411.033114 
L 825.64906 441.262579 
L 827.561903 422.887431 
L 827.561903 422.887431 
" style="fill:none;stroke:#ff1e1e;stroke-linecap:square;"/>
   </g>
   <g id="line2d_2">
    <path clip-path="url(#p29ea717ac0)" d="M 115.2 117.951923 
L 132.313668 119.436585 
L 146.992943 118.228798 
L 159.844933 119.284897 
L 171.274613 120.996494 
L 181.565657 118.597861 
L 190.924519 120.545814 
L 199.506137 120.39775 
L 207.42977 121.616065 
L 214.789171 120.596494 
L 221.659384 121.502099 
L 228.101408 120.70739 
L 234.165501 123.04829 
L 239.893559 123.076614 
L 245.320877 123.451305 
L 250.477466 123.976193 
L 255.389057 123.581481 
L 260.077878 127.381739 
L 264.563263 125.931353 
L 268.862134 126.053394 
L 272.989385 126.984616 
L 276.958194 128.287095 
L 280.780278 126.071267 
L 284.466099 127.555704 
L 288.025041 130.065597 
L 291.465549 127.453746 
L 294.795252 127.777184 
L 298.021064 127.732462 
L 301.149274 128.152448 
L 304.185615 128.080506 
L 307.135328 130.722864 
L 310.003221 129.975526 
L 312.793709 129.952342 
L 315.510863 130.461229 
L 318.158437 131.185654 
L 320.739907 130.200693 
L 323.258492 130.40859 
L 325.717185 133.699718 
L 328.118768 134.2092 
L 330.465834 130.630238 
L 332.760802 133.704358 
L 335.005936 133.168392 
L 337.203354 133.766408 
L 339.355042 132.498825 
L 341.462865 133.876723 
L 353.28 134.210266 
L 370.393668 136.942107 
L 385.072943 139.697217 
L 397.924933 143.028028 
L 409.354613 145.248668 
L 419.645657 146.565405 
L 429.004519 148.606083 
L 437.586137 150.239328 
L 445.50977 156.407236 
L 452.869171 157.478513 
L 459.739384 164.134696 
L 466.181408 163.862922 
L 472.245501 166.812216 
L 477.973559 166.972404 
L 483.400877 174.579104 
L 488.557466 172.782444 
L 493.469057 176.98138 
L 498.157878 181.49892 
L 502.643263 184.711488 
L 506.942134 191.572201 
L 511.069385 192.549413 
L 515.038194 192.219238 
L 518.860278 191.080456 
L 522.546099 196.106246 
L 526.105041 200.11743 
L 529.545549 197.586099 
L 532.875252 201.466386 
L 536.101064 197.129282 
L 539.229274 197.036214 
L 542.265615 200.085642 
L 545.215328 202.150175 
L 548.083221 200.946867 
L 550.873709 197.652522 
L 553.590863 193.836182 
L 556.238437 203.444803 
L 558.819907 203.087943 
L 563.797185 203.250023 
L 566.198768 199.445705 
L 568.545834 205.370874 
L 570.840802 207.955527 
L 573.085936 207.305238 
L 575.283354 213.983041 
L 577.435042 201.260026 
L 579.542865 208.693763 
L 591.36 224.357762 
L 608.473668 233.228082 
L 623.152943 236.865606 
L 636.004933 248.830983 
L 647.434613 261.976762 
L 657.725657 276.998854 
L 667.084519 300.096353 
L 675.666137 292.014616 
L 683.58977 292.698067 
L 690.949171 339.275229 
L 697.819384 350.756739 
L 704.261408 363.880857 
L 710.325501 374.53327 
L 716.053559 387.116555 
L 721.480877 392.836733 
L 726.637466 424.623759 
L 731.549057 431.464486 
L 736.237878 477.268157 
L 740.723263 464.530261 
L 745.022134 437.982156 
L 749.149385 475.823827 
L 753.118194 494.933832 
L 756.940278 497.437822 
L 760.626099 485.179967 
L 764.185041 505.771684 
L 767.625549 529.8592 
L 770.955252 532.120735 
L 774.181064 213.390462 
L 777.309274 548.341992 
L 780.345615 243.740406 
L 783.295328 246.275364 
L 786.163221 239.245683 
L 788.953709 243.283321 
L 791.670863 258.637776 
L 794.318437 253.184817 
L 796.899907 308.466886 
L 799.418492 257.073919 
L 801.877185 279.970145 
L 804.278768 268.220851 
L 806.625834 347.7492 
L 808.920802 261.566368 
L 811.165936 340.220688 
L 813.363354 360.482131 
L 815.515042 359.758983 
L 817.622865 292.748541 
L 819.688575 384.898621 
L 821.713822 364.07051 
L 823.700162 456.400167 
L 825.64906 412.021547 
L 827.561903 273.189237 
L 827.561903 273.189237 
" style="fill:none;stroke:#581845;stroke-linecap:square;"/>
   </g>
   <g id="line2d_3">
    <path clip-path="url(#p29ea717ac0)" d="M 115.2 120.202995 
L 132.313668 119.707003 
L 146.992943 118.660301 
L 159.844933 118.799326 
L 171.274613 119.225118 
L 181.565657 121.396305 
L 190.924519 122.311348 
L 199.506137 121.430873 
L 207.42977 123.63718 
L 214.789171 120.490471 
L 221.659384 123.734626 
L 228.101408 121.860344 
L 234.165501 122.423495 
L 239.893559 123.920628 
L 245.320877 125.600419 
L 250.477466 122.839453 
L 255.389057 123.78858 
L 260.077878 126.27118 
L 264.563263 125.878843 
L 268.862134 127.7568 
L 272.989385 126.025794 
L 276.958194 127.135211 
L 280.780278 126.494172 
L 284.466099 128.333537 
L 288.025041 130.407143 
L 291.465549 128.383855 
L 294.795252 130.0829 
L 298.021064 130.268238 
L 301.149274 128.354766 
L 304.185615 129.304336 
L 307.135328 131.15626 
L 310.003221 133.288189 
L 312.793709 129.262449 
L 315.510863 130.883932 
L 318.158437 128.841414 
L 320.739907 131.699257 
L 323.258492 131.354507 
L 325.717185 133.683555 
L 328.118768 130.638406 
L 330.465834 132.554648 
L 332.760802 133.720694 
L 335.005936 132.59357 
L 337.203354 132.788254 
L 339.355042 131.071365 
L 341.462865 133.48865 
L 353.28 138.431218 
L 370.393668 138.681406 
L 385.072943 139.408098 
L 397.924933 144.198869 
L 409.354613 143.38689 
L 419.645657 142.221895 
L 429.004519 144.15288 
L 437.586137 146.389213 
L 445.50977 150.519075 
L 452.869171 150.323659 
L 459.739384 147.144376 
L 466.181408 152.548188 
L 472.245501 155.935053 
L 477.973559 160.579195 
L 483.400877 161.642973 
L 488.557466 163.966058 
L 493.469057 165.904144 
L 498.157878 169.20851 
L 502.643263 174.034505 
L 506.942134 171.384436 
L 511.069385 174.438778 
L 515.038194 179.131233 
L 518.860278 183.351889 
L 522.546099 184.874764 
L 526.105041 189.703781 
L 529.545549 189.090739 
L 532.875252 195.61767 
L 536.101064 192.83029 
L 539.229274 199.420093 
L 542.265615 204.45204 
L 545.215328 199.096561 
L 548.083221 198.417773 
L 550.873709 199.748657 
L 553.590863 199.409013 
L 556.238437 202.149207 
L 558.819907 206.397489 
L 561.338492 197.05027 
L 563.797185 201.390733 
L 566.198768 206.160851 
L 568.545834 201.345674 
L 570.840802 202.098743 
L 573.085936 201.069847 
L 575.283354 204.221571 
L 577.435042 202.987672 
L 579.542865 194.057199 
L 591.36 205.00661 
L 608.473668 221.827613 
L 623.152943 237.652237 
L 636.004933 236.50205 
L 647.434613 255.623144 
L 657.725657 271.981369 
L 667.084519 284.369265 
L 675.666137 286.467253 
L 683.58977 289.899302 
L 690.949171 305.622443 
L 697.819384 357.465934 
L 704.261408 319.415236 
L 710.325501 344.489671 
L 716.053559 382.723092 
L 721.480877 404.538824 
L 726.637466 381.936531 
L 731.549057 407.849885 
L 736.237878 417.499798 
L 740.723263 423.139997 
L 745.022134 462.215759 
L 749.149385 438.849708 
L 753.118194 481.396099 
L 756.940278 496.636039 
L 760.626099 509.586699 
L 764.185041 486.865495 
L 767.625549 529.262137 
L 770.955252 537.846445 
L 774.181064 532.646986 
L 777.309274 215.685506 
L 780.345615 212.128211 
L 783.295328 551.341593 
L 786.163221 257.032282 
L 788.953709 230.966803 
L 791.670863 254.758417 
L 794.318437 249.198755 
L 796.899907 308.603283 
L 799.418492 290.934713 
L 801.877185 257.318817 
L 804.278768 314.840848 
L 806.625834 251.002769 
L 808.920802 542.960048 
L 811.165936 387.678498 
L 813.363354 243.614371 
L 815.515042 340.872665 
L 817.622865 295.280509 
L 819.688575 331.713851 
L 821.713822 481.863231 
L 823.700162 545.604576 
L 825.64906 359.395918 
L 827.561903 418.443811 
L 827.561903 418.443811 
" style="fill:none;stroke:#26b7d8;stroke-linecap:square;"/>
   </g>
   <g id="line2d_4">
    <path clip-path="url(#p29ea717ac0)" d="M 115.2 121.325142 
L 132.313668 116.093011 
L 146.992943 119.021713 
L 159.844933 117.701233 
L 171.274613 120.472516 
L 181.565657 121.40075 
L 190.924519 120.523674 
L 199.506137 119.063341 
L 207.42977 118.528603 
L 214.789171 119.866929 
L 221.659384 126.258771 
L 228.101408 126.041442 
L 234.165501 122.902744 
L 239.893559 124.644472 
L 245.320877 124.833156 
L 250.477466 126.070406 
L 255.389057 126.713568 
L 260.077878 125.274731 
L 264.563263 125.103195 
L 268.862134 130.657301 
L 272.989385 125.844593 
L 276.958194 130.862287 
L 280.780278 130.122313 
L 284.466099 133.055209 
L 288.025041 126.887213 
L 291.465549 125.614784 
L 294.795252 131.588716 
L 301.149274 128.35336 
L 304.185615 128.726965 
L 307.135328 131.10113 
L 310.003221 127.591848 
L 312.793709 128.518917 
L 315.510863 131.359847 
L 318.158437 134.409639 
L 320.739907 128.970188 
L 323.258492 133.015078 
L 325.717185 129.573729 
L 328.118768 129.575937 
L 330.465834 133.68863 
L 332.760802 133.533013 
L 335.005936 132.567367 
L 337.203354 134.182359 
L 339.355042 130.431441 
L 341.462865 131.775632 
L 353.28 137.147381 
L 370.393668 136.450503 
L 385.072943 140.641421 
L 397.924933 141.545026 
L 409.354613 140.255921 
L 419.645657 143.425692 
L 429.004519 143.927884 
L 437.586137 144.78074 
L 445.50977 144.749363 
L 452.869171 147.583601 
L 459.739384 149.554203 
L 466.181408 148.568983 
L 472.245501 152.955646 
L 477.973559 153.07052 
L 483.400877 156.09525 
L 488.557466 151.818252 
L 493.469057 155.165526 
L 498.157878 160.233038 
L 502.643263 159.344749 
L 506.942134 160.98156 
L 511.069385 166.283039 
L 515.038194 168.092126 
L 518.860278 170.81931 
L 522.546099 168.337163 
L 526.105041 168.634627 
L 529.545549 179.295804 
L 532.875252 176.005224 
L 536.101064 179.361343 
L 539.229274 179.490826 
L 542.265615 190.215136 
L 545.215328 185.770479 
L 548.083221 189.244938 
L 550.873709 186.848894 
L 553.590863 198.231368 
L 556.238437 201.028718 
L 558.819907 195.363786 
L 561.338492 199.909071 
L 563.797185 197.237727 
L 566.198768 203.432466 
L 568.545834 194.20422 
L 570.840802 199.425017 
L 573.085936 202.682556 
L 575.283354 201.243324 
L 577.435042 203.700248 
L 579.542865 206.600189 
L 591.36 200.641099 
L 608.473668 215.149398 
L 623.152943 225.027337 
L 636.004933 244.852356 
L 647.434613 249.875984 
L 657.725657 251.793178 
L 667.084519 284.727351 
L 675.666137 284.571611 
L 683.58977 302.87705 
L 690.949171 321.667545 
L 704.261408 338.565301 
L 710.325501 357.956239 
L 716.053559 362.879002 
L 721.480877 391.040423 
L 726.637466 380.042307 
L 731.549057 384.31671 
L 736.237878 452.16564 
L 740.723263 441.779826 
L 745.022134 467.18559 
L 749.149385 456.891383 
L 753.118194 474.935994 
L 756.940278 474.055488 
L 760.626099 499.96667 
L 764.185041 514.521881 
L 767.625549 520.256075 
L 770.955252 508.434185 
L 774.181064 536.811036 
L 777.309274 526.695938 
L 780.345615 535.464634 
L 783.295328 219.730413 
L 786.163221 226.317384 
L 788.953709 512.148043 
L 791.670863 253.212028 
L 794.318437 244.575278 
L 796.899907 232.884633 
L 799.418492 211.994532 
L 801.877185 247.122332 
L 804.278768 239.817782 
L 806.625834 212.654762 
L 808.920802 254.219712 
L 811.165936 311.245313 
L 813.363354 378.872544 
L 815.515042 370.374903 
L 817.622865 287.299629 
L 819.688575 310.41965 
L 821.713822 321.319238 
L 823.700162 529.274898 
L 825.64906 331.638796 
L 827.561903 476.718636 
L 827.561903 476.718636 
" style="fill:none;stroke:#8414a4;stroke-linecap:square;"/>
   </g>
   <g id="line2d_5">
    <path clip-path="url(#p29ea717ac0)" d="M 115.2 116.334698 
L 132.313668 121.448553 
L 146.992943 122.584076 
L 159.844933 121.44095 
L 171.274613 120.859976 
L 181.565657 121.407698 
L 190.924519 120.721431 
L 199.506137 122.030141 
L 207.42977 117.483889 
L 214.789171 120.248526 
L 221.659384 120.18164 
L 228.101408 121.216926 
L 234.165501 122.0131 
L 239.893559 121.850267 
L 245.320877 128.135582 
L 250.477466 125.557384 
L 255.389057 119.329568 
L 260.077878 124.098731 
L 264.563263 123.6712 
L 268.862134 127.259969 
L 272.989385 124.285122 
L 276.958194 128.805561 
L 280.780278 125.743397 
L 284.466099 126.394304 
L 291.465549 131.031892 
L 294.795252 124.804783 
L 298.021064 124.055061 
L 301.149274 134.456711 
L 304.185615 129.154182 
L 307.135328 129.698659 
L 310.003221 128.353436 
L 312.793709 132.307568 
L 315.510863 129.614645 
L 318.158437 133.776752 
L 320.739907 130.724938 
L 323.258492 133.086807 
L 325.717185 134.478484 
L 328.118768 131.134874 
L 330.465834 132.574882 
L 332.760802 132.873229 
L 335.005936 134.492513 
L 337.203354 135.736594 
L 339.355042 133.804592 
L 341.462865 135.790447 
L 353.28 140.759089 
L 370.393668 139.547848 
L 385.072943 137.012505 
L 397.924933 138.591925 
L 409.354613 143.451956 
L 419.645657 139.230689 
L 429.004519 141.994059 
L 437.586137 142.979757 
L 445.50977 146.855228 
L 452.869171 143.057847 
L 459.739384 144.383716 
L 466.181408 148.589455 
L 472.245501 145.861244 
L 477.973559 154.270815 
L 483.400877 151.6867 
L 488.557466 144.705299 
L 493.469057 150.582861 
L 498.157878 155.93059 
L 502.643263 145.68214 
L 506.942134 154.549608 
L 511.069385 160.520212 
L 515.038194 159.276201 
L 518.860278 161.045208 
L 522.546099 156.926388 
L 526.105041 161.918155 
L 529.545549 168.224416 
L 532.875252 164.27173 
L 536.101064 173.003194 
L 539.229274 180.398501 
L 542.265615 179.003376 
L 545.215328 175.383476 
L 548.083221 186.327123 
L 550.873709 183.452756 
L 553.590863 184.23469 
L 556.238437 195.473071 
L 558.819907 188.659688 
L 561.338492 190.521154 
L 563.797185 198.231753 
L 566.198768 201.178079 
L 568.545834 195.511761 
L 570.840802 207.960486 
L 573.085936 201.825485 
L 575.283354 198.892626 
L 577.435042 195.56975 
L 579.542865 196.288141 
L 591.36 212.397796 
L 608.473668 213.465375 
L 623.152943 214.595222 
L 636.004933 239.225657 
L 647.434613 242.661392 
L 657.725657 250.575686 
L 667.084519 276.115031 
L 675.666137 277.354939 
L 683.58977 287.675348 
L 690.949171 306.66725 
L 697.819384 302.718241 
L 704.261408 311.945481 
L 710.325501 356.7293 
L 716.053559 341.560739 
L 721.480877 347.395478 
L 726.637466 382.065698 
L 731.549057 411.356956 
L 736.237878 417.365262 
L 745.022134 434.752487 
L 749.149385 456.811831 
L 753.118194 443.149191 
L 756.940278 477.640161 
L 760.626099 490.848363 
L 764.185041 508.395826 
L 767.625549 513.810644 
L 770.955252 496.60941 
L 774.181064 522.556049 
L 777.309274 542.049027 
L 780.345615 548.928004 
L 783.295328 210.491149 
L 786.163221 224.805741 
L 788.953709 542.625774 
L 791.670863 214.281737 
L 794.318437 531.939264 
L 796.899907 230.767151 
L 799.418492 237.947715 
L 801.877185 533.816207 
L 804.278768 261.374015 
L 806.625834 298.950883 
L 808.920802 372.859289 
L 811.165936 266.970707 
L 813.363354 351.166727 
L 815.515042 337.339833 
L 817.622865 244.163508 
L 819.688575 373.728088 
L 821.713822 334.481986 
L 823.700162 235.479719 
L 825.64906 526.555439 
L 827.561903 425.07325 
L 827.561903 425.07325 
" style="fill:none;stroke:#ffd23a;stroke-linecap:square;"/>
   </g>
   <g id="line2d_6">
    <path clip-path="url(#p29ea717ac0)" d="M 115.2 121.249689 
L 132.313668 117.474601 
L 146.992943 122.784941 
L 159.844933 114.435092 
L 171.274613 113.156623 
L 181.565657 114.134116 
L 190.924519 120.262275 
L 199.506137 118.126584 
L 207.42977 122.438342 
L 214.789171 119.751424 
L 221.659384 119.36467 
L 228.101408 126.914892 
L 234.165501 127.006485 
L 239.893559 118.290917 
L 245.320877 129.681454 
L 250.477466 126.19684 
L 255.389057 126.911663 
L 260.077878 124.233629 
L 264.563263 124.413388 
L 268.862134 129.589429 
L 272.989385 127.449567 
L 276.958194 128.646912 
L 280.780278 129.990421 
L 284.466099 128.549471 
L 288.025041 125.872216 
L 291.465549 127.81114 
L 294.795252 126.989722 
L 298.021064 130.917696 
L 301.149274 132.987339 
L 304.185615 131.62852 
L 307.135328 132.276109 
L 310.003221 136.137892 
L 312.793709 129.537199 
L 315.510863 131.000422 
L 318.158437 131.113933 
L 320.739907 139.461868 
L 323.258492 132.472562 
L 325.717185 129.924617 
L 328.118768 132.331997 
L 330.465834 133.898931 
L 332.760802 133.594929 
L 335.005936 136.291932 
L 337.203354 129.931219 
L 339.355042 133.053572 
L 341.462865 132.274241 
L 353.28 137.734073 
L 370.393668 141.384318 
L 385.072943 141.032757 
L 397.924933 137.417066 
L 409.354613 139.787619 
L 419.645657 140.512341 
L 429.004519 143.184028 
L 437.586137 144.507089 
L 445.50977 138.90649 
L 452.869171 140.755338 
L 466.181408 146.103089 
L 472.245501 145.41324 
L 477.973559 149.518727 
L 483.400877 151.109506 
L 488.557466 150.288529 
L 493.469057 151.697573 
L 498.157878 152.026383 
L 502.643263 148.633725 
L 506.942134 144.776577 
L 511.069385 156.283334 
L 515.038194 151.120016 
L 518.860278 159.978075 
L 522.546099 165.406534 
L 526.105041 156.103144 
L 529.545549 159.576652 
L 532.875252 163.102894 
L 536.101064 160.452164 
L 539.229274 168.336505 
L 542.265615 168.667908 
L 545.215328 172.068111 
L 548.083221 171.578266 
L 550.873709 177.073018 
L 553.590863 180.337176 
L 556.238437 180.516926 
L 558.819907 178.771624 
L 561.338492 180.361163 
L 563.797185 187.860725 
L 566.198768 190.634167 
L 568.545834 189.233185 
L 570.840802 193.427139 
L 573.085936 193.436663 
L 575.283354 203.530909 
L 577.435042 199.559836 
L 579.542865 210.737154 
L 591.36 207.971348 
L 608.473668 210.653151 
L 623.152943 226.783225 
L 636.004933 214.884095 
L 647.434613 251.484793 
L 657.725657 250.854082 
L 667.084519 252.511442 
L 675.666137 290.629888 
L 683.58977 294.587926 
L 690.949171 292.207924 
L 697.819384 329.139105 
L 704.261408 309.003694 
L 710.325501 345.071071 
L 716.053559 331.802971 
L 721.480877 360.671348 
L 726.637466 398.617773 
L 731.549057 396.474686 
L 736.237878 400.672191 
L 740.723263 428.025771 
L 745.022134 414.400903 
L 749.149385 466.900256 
L 753.118194 448.108502 
L 756.940278 489.418068 
L 760.626099 466.97637 
L 764.185041 487.553265 
L 767.625549 478.980288 
L 770.955252 538.76832 
L 774.181064 531.863275 
L 777.309274 529.662231 
L 780.345615 511.420112 
L 783.295328 535.473223 
L 786.163221 546.24234 
L 788.953709 216.550178 
L 791.670863 223.378959 
L 794.318437 514.573813 
L 796.899907 213.916435 
L 799.418492 286.500181 
L 801.877185 274.360342 
L 804.278768 279.572978 
L 806.625834 263.25332 
L 808.920802 263.632625 
L 811.165936 245.533509 
L 813.363354 274.646257 
L 815.515042 244.472881 
L 817.622865 294.940798 
L 819.688575 338.972053 
L 823.700162 266.250595 
L 825.64906 388.269466 
L 827.561903 311.808934 
L 827.561903 311.808934 
" style="fill:none;stroke:#ff9300;stroke-linecap:square;"/>
   </g>
   <g id="line2d_7">
    <path clip-path="url(#p29ea717ac0)" d="M 115.2 114.204504 
L 132.313668 126.517501 
L 146.992943 113.772428 
L 159.844933 117.318559 
L 171.274613 125.394127 
L 181.565657 117.263372 
L 190.924519 117.895174 
L 199.506137 119.962071 
L 207.42977 121.580858 
L 214.789171 125.241259 
L 221.659384 117.279331 
L 228.101408 125.909603 
L 234.165501 128.571742 
L 239.893559 128.279447 
L 245.320877 125.854463 
L 250.477466 123.154948 
L 255.389057 126.836235 
L 260.077878 126.61428 
L 264.563263 132.216986 
L 268.862134 124.232005 
L 272.989385 126.069211 
L 276.958194 125.070493 
L 280.780278 132.25869 
L 284.466099 125.560006 
L 288.025041 126.485299 
L 291.465549 125.296602 
L 294.795252 127.204362 
L 298.021064 132.54018 
L 301.149274 131.258377 
L 304.185615 129.87633 
L 307.135328 134.165574 
L 310.003221 126.433685 
L 312.793709 127.252249 
L 315.510863 127.664032 
L 318.158437 131.200213 
L 320.739907 131.802391 
L 323.258492 129.098938 
L 325.717185 137.322282 
L 328.118768 130.343352 
L 330.465834 134.834543 
L 332.760802 134.292107 
L 335.005936 134.96703 
L 337.203354 135.155181 
L 339.355042 127.920714 
L 341.462865 134.40214 
L 353.28 134.339936 
L 370.393668 140.434283 
L 385.072943 144.720972 
L 397.924933 140.171487 
L 409.354613 140.804365 
L 419.645657 143.216333 
L 429.004519 140.4662 
L 437.586137 141.575826 
L 445.50977 139.58911 
L 452.869171 143.912607 
L 459.739384 143.74505 
L 466.181408 145.055627 
L 472.245501 140.912395 
L 477.973559 145.03664 
L 483.400877 141.578887 
L 488.557466 145.948126 
L 493.469057 146.705941 
L 498.157878 151.831494 
L 502.643263 145.126507 
L 506.942134 144.281168 
L 511.069385 151.61241 
L 515.038194 144.954234 
L 518.860278 153.491735 
L 522.546099 162.602175 
L 526.105041 152.753467 
L 529.545549 162.394174 
L 532.875252 162.873277 
L 536.101064 157.52398 
L 539.229274 159.060003 
L 542.265615 173.60075 
L 545.215328 172.659244 
L 548.083221 173.322599 
L 550.873709 168.624832 
L 556.238437 175.122692 
L 558.819907 179.101402 
L 561.338492 179.581322 
L 563.797185 187.309045 
L 566.198768 180.671073 
L 568.545834 199.703885 
L 570.840802 186.382853 
L 573.085936 182.471519 
L 575.283354 190.529056 
L 577.435042 193.354771 
L 579.542865 199.355637 
L 591.36 203.158904 
L 608.473668 211.970138 
L 623.152943 216.285168 
L 636.004933 213.431426 
L 647.434613 235.538755 
L 657.725657 261.640037 
L 667.084519 276.476998 
L 675.666137 285.301114 
L 683.58977 280.104699 
L 690.949171 303.504022 
L 697.819384 329.99018 
L 704.261408 369.150103 
L 710.325501 329.56114 
L 716.053559 336.435989 
L 721.480877 469.168468 
L 726.637466 351.573169 
L 731.549057 395.576287 
L 736.237878 430.681347 
L 740.723263 412.098693 
L 745.022134 409.648889 
L 749.149385 444.344534 
L 753.118194 431.306695 
L 756.940278 457.202664 
L 760.626099 476.743383 
L 764.185041 523.054504 
L 767.625549 509.341701 
L 770.955252 497.742947 
L 774.181064 538.065792 
L 777.309274 480.630528 
L 780.345615 528.602854 
L 783.295328 540.104595 
L 786.163221 518.162922 
L 788.953709 214.636547 
L 791.670863 225.697181 
L 794.318437 251.641947 
L 796.899907 540.285392 
L 799.418492 250.531126 
L 801.877185 250.690619 
L 804.278768 258.946943 
L 806.625834 239.454626 
L 808.920802 234.918841 
L 811.165936 353.61453 
L 813.363354 249.519705 
L 815.515042 217.492863 
L 817.622865 261.965629 
L 819.688575 324.401238 
L 821.713822 388.981184 
L 823.700162 239.209583 
L 825.64906 405.834353 
L 827.561903 291.785316 
L 827.561903 291.785316 
" style="fill:none;stroke:#f50fe6;stroke-linecap:square;"/>
   </g>
   <g id="line2d_8">
    <path clip-path="url(#p29ea717ac0)" d="M 115.2 121.552257 
L 132.313668 126.715448 
L 146.992943 118.102717 
L 159.844933 117.430143 
L 171.274613 117.634544 
L 181.565657 119.351934 
L 190.924519 121.248738 
L 199.506137 122.150312 
L 207.42977 121.431038 
L 214.789171 121.927413 
L 221.659384 129.4712 
L 228.101408 115.894904 
L 234.165501 128.170159 
L 239.893559 119.696379 
L 245.320877 122.442774 
L 250.477466 119.389531 
L 255.389057 117.234589 
L 260.077878 120.874463 
L 264.563263 123.201413 
L 268.862134 123.406157 
L 272.989385 138.222147 
L 280.780278 128.145054 
L 284.466099 121.828375 
L 288.025041 134.980126 
L 291.465549 132.306487 
L 294.795252 128.67115 
L 298.021064 129.295333 
L 301.149274 135.079306 
L 304.185615 123.598612 
L 307.135328 137.078619 
L 310.003221 127.624323 
L 312.793709 128.778475 
L 315.510863 136.311863 
L 318.158437 136.448933 
L 320.739907 132.136644 
L 323.258492 132.700721 
L 325.717185 133.36648 
L 328.118768 135.206053 
L 330.465834 130.468507 
L 332.760802 133.921802 
L 335.005936 134.435025 
L 337.203354 137.043156 
L 339.355042 138.845144 
L 341.462865 135.49414 
L 353.28 140.790894 
L 370.393668 135.34005 
L 385.072943 135.245573 
L 397.924933 136.350435 
L 409.354613 128.787283 
L 419.645657 141.190335 
L 437.586137 143.507452 
L 445.50977 141.515062 
L 452.869171 144.685945 
L 459.739384 143.429225 
L 466.181408 139.533763 
L 472.245501 132.89433 
L 477.973559 147.546156 
L 483.400877 142.952233 
L 488.557466 147.431918 
L 493.469057 134.82168 
L 498.157878 151.377245 
L 502.643263 142.526153 
L 506.942134 145.330168 
L 511.069385 146.9472 
L 515.038194 147.73574 
L 518.860278 150.071162 
L 522.546099 156.147434 
L 526.105041 150.668246 
L 529.545549 154.300653 
L 532.875252 153.253653 
L 536.101064 156.355216 
L 539.229274 162.017483 
L 542.265615 154.745525 
L 545.215328 163.510179 
L 548.083221 165.420199 
L 550.873709 163.788029 
L 553.590863 174.749603 
L 556.238437 156.785781 
L 561.338492 183.66517 
L 563.797185 167.172725 
L 566.198768 178.449648 
L 568.545834 186.938049 
L 570.840802 186.032662 
L 573.085936 190.443625 
L 575.283354 184.424838 
L 577.435042 179.600051 
L 579.542865 187.148511 
L 591.36 203.089411 
L 608.473668 221.301929 
L 623.152943 200.08082 
L 636.004933 214.620198 
L 647.434613 225.915539 
L 657.725657 245.892886 
L 667.084519 261.109502 
L 675.666137 240.249107 
L 683.58977 279.004741 
L 690.949171 301.295179 
L 697.819384 297.44015 
L 704.261408 326.345145 
L 710.325501 333.659729 
L 716.053559 348.091024 
L 721.480877 342.194846 
L 726.637466 384.218626 
L 731.549057 444.627414 
L 736.237878 339.243936 
L 740.723263 350.651433 
L 745.022134 472.489807 
L 749.149385 433.023669 
L 753.118194 422.778804 
L 756.940278 391.888924 
L 760.626099 499.513911 
L 764.185041 477.1401 
L 767.625549 470.487502 
L 770.955252 515.324944 
L 774.181064 502.347326 
L 777.309274 514.377024 
L 780.345615 504.276087 
L 783.295328 520.980526 
L 786.163221 516.322362 
L 788.953709 539.908112 
L 791.670863 258.133874 
L 794.318437 222.771373 
L 796.899907 216.939102 
L 799.418492 303.987585 
L 801.877185 249.848966 
L 804.278768 546.170989 
L 806.625834 288.236177 
L 808.920802 234.931398 
L 811.165936 533.774927 
L 813.363354 210.200931 
L 815.515042 249.616934 
L 817.622865 295.347396 
L 819.688575 242.600288 
L 821.713822 523.796381 
L 823.700162 293.959626 
L 825.64906 236.512281 
L 827.561903 303.908354 
L 827.561903 303.908354 
" style="fill:none;stroke:#1000a0;stroke-linecap:square;"/>
   </g>
   <g id="line2d_9">
    <path clip-path="url(#p29ea717ac0)" d="M 115.2 114.436187 
L 132.313668 117.002603 
L 146.992943 117.073548 
L 159.844933 116.890109 
L 171.274613 120.637057 
L 181.565657 124.397946 
L 199.506137 116.254057 
L 207.42977 124.774655 
L 214.789171 119.611596 
L 221.659384 126.612089 
L 228.101408 121.953635 
L 234.165501 122.073216 
L 239.893559 119.117287 
L 245.320877 115.984708 
L 250.477466 121.425682 
L 255.389057 118.730379 
L 260.077878 131.555273 
L 264.563263 129.416141 
L 268.862134 124.430687 
L 272.989385 129.140888 
L 276.958194 127.992694 
L 280.780278 130.175981 
L 284.466099 122.893004 
L 288.025041 133.327703 
L 291.465549 130.834067 
L 294.795252 136.365539 
L 298.021064 121.073778 
L 301.149274 128.47563 
L 304.185615 130.682383 
L 307.135328 132.547032 
L 310.003221 128.172545 
L 312.793709 138.059748 
L 315.510863 130.200737 
L 318.158437 141.693862 
L 320.739907 132.788748 
L 323.258492 141.687833 
L 325.717185 133.619509 
L 328.118768 120.447919 
L 330.465834 130.391465 
L 332.760802 138.985776 
L 335.005936 120.98361 
L 337.203354 131.000288 
L 339.355042 139.585124 
L 341.462865 133.153117 
L 353.28 136.622459 
L 370.393668 137.548309 
L 385.072943 138.125798 
L 397.924933 139.06256 
L 409.354613 133.238111 
L 419.645657 137.597404 
L 429.004519 141.304062 
L 437.586137 132.902779 
L 445.50977 134.750771 
L 452.869171 143.58646 
L 459.739384 140.093622 
L 466.181408 138.526966 
L 472.245501 144.573684 
L 477.973559 138.769187 
L 483.400877 145.102238 
L 488.557466 144.520178 
L 493.469057 144.85308 
L 498.157878 141.507415 
L 502.643263 145.892275 
L 506.942134 151.978015 
L 511.069385 137.911788 
L 515.038194 149.637324 
L 518.860278 148.502404 
L 522.546099 143.985972 
L 526.105041 153.156511 
L 529.545549 143.015698 
L 532.875252 165.411712 
L 536.101064 156.919226 
L 539.229274 166.277901 
L 542.265615 158.344616 
L 545.215328 151.885022 
L 548.083221 160.709373 
L 550.873709 158.599056 
L 553.590863 167.439344 
L 556.238437 156.258 
L 558.819907 177.027805 
L 561.338492 159.727762 
L 563.797185 167.217801 
L 566.198768 168.283223 
L 568.545834 175.445782 
L 570.840802 173.965549 
L 573.085936 178.265427 
L 575.283354 187.053768 
L 577.435042 179.297034 
L 579.542865 185.414115 
L 608.473668 219.642432 
L 623.152943 233.851652 
L 636.004933 216.775821 
L 647.434613 209.024689 
L 657.725657 226.360515 
L 667.084519 273.417214 
L 675.666137 256.099322 
L 683.58977 262.53054 
L 690.949171 278.359632 
L 697.819384 286.206952 
L 704.261408 288.667497 
L 710.325501 320.040339 
L 716.053559 342.10589 
L 721.480877 300.495947 
L 726.637466 245.130695 
L 731.549057 422.599053 
L 736.237878 394.001806 
L 740.723263 221.746495 
L 745.022134 453.16733 
L 749.149385 331.72803 
L 753.118194 454.932529 
L 756.940278 412.45774 
L 760.626099 499.464334 
L 764.185041 460.754746 
L 767.625549 511.88584 
L 770.955252 211.829187 
L 774.181064 495.648403 
L 777.309274 517.30381 
L 780.345615 545.034125 
L 783.295328 530.016767 
L 786.163221 526.801744 
L 788.953709 448.239234 
L 791.670863 546.15686 
L 794.318437 247.325698 
L 796.899907 548.828872 
L 799.418492 236.090655 
L 801.877185 262.659752 
L 804.278768 528.933566 
L 806.625834 312.601695 
L 808.920802 263.183167 
L 811.165936 240.155422 
L 813.363354 254.699471 
L 815.515042 401.080249 
L 817.622865 214.690018 
L 819.688575 319.355087 
L 821.713822 278.465788 
L 823.700162 375.701958 
L 825.64906 310.706639 
L 827.561903 233.579707 
L 827.561903 233.579707 
" style="fill:none;stroke:#595866;stroke-linecap:square;"/>
   </g>
   <g id="line2d_10">
    <path clip-path="url(#p29ea717ac0)" d="M 115.2 118.653987 
L 132.313668 113.635636 
L 146.992943 119.714542 
L 159.844933 113.012242 
L 171.274613 123.907792 
L 181.565657 121.725055 
L 190.924519 127.415654 
L 199.506137 129.954564 
L 207.42977 126.211789 
L 214.789171 137.9753 
L 221.659384 115.585998 
L 228.101408 133.018591 
L 234.165501 127.905943 
L 239.893559 119.132548 
L 245.320877 125.848132 
L 250.477466 119.88365 
L 264.563263 127.559501 
L 268.862134 121.492354 
L 272.989385 133.073123 
L 276.958194 124.584396 
L 280.780278 118.606618 
L 284.466099 136.479455 
L 288.025041 130.946627 
L 291.465549 133.632133 
L 294.795252 139.417884 
L 298.021064 136.294194 
L 301.149274 124.440715 
L 304.185615 136.888507 
L 307.135328 126.684616 
L 310.003221 126.483279 
L 315.510863 133.410541 
L 318.158437 127.480584 
L 320.739907 126.809674 
L 323.258492 135.795325 
L 325.717185 133.60315 
L 328.118768 130.712393 
L 330.465834 144.545948 
L 332.760802 138.839176 
L 335.005936 130.351492 
L 337.203354 137.135641 
L 339.355042 131.842687 
L 341.462865 138.009773 
L 353.28 136.843407 
L 370.393668 131.774021 
L 385.072943 140.411863 
L 397.924933 135.018802 
L 409.354613 140.100002 
L 419.645657 136.275011 
L 429.004519 138.009893 
L 437.586137 140.118704 
L 445.50977 150.46097 
L 452.869171 137.029308 
L 459.739384 134.82954 
L 466.181408 139.544126 
L 472.245501 149.54152 
L 477.973559 140.415608 
L 483.400877 147.36977 
L 488.557466 147.36266 
L 493.469057 142.623636 
L 498.157878 142.719659 
L 502.643263 141.591329 
L 506.942134 147.323704 
L 511.069385 151.309833 
L 515.038194 142.316518 
L 518.860278 135.891945 
L 522.546099 146.025159 
L 526.105041 144.3522 
L 529.545549 149.232399 
L 532.875252 136.661611 
L 536.101064 140.629533 
L 539.229274 152.109017 
L 542.265615 153.019452 
L 545.215328 157.441496 
L 548.083221 153.012514 
L 550.873709 159.301313 
L 553.590863 158.939448 
L 556.238437 155.013899 
L 558.819907 157.939307 
L 561.338492 167.293037 
L 563.797185 158.83107 
L 566.198768 173.465946 
L 568.545834 180.490008 
L 570.840802 169.431955 
L 573.085936 163.243299 
L 575.283354 185.402642 
L 577.435042 171.831327 
L 579.542865 187.362561 
L 591.36 191.419214 
L 608.473668 208.409227 
L 623.152943 220.272765 
L 636.004933 203.28817 
L 647.434613 218.224849 
L 657.725657 240.937603 
L 667.084519 243.519756 
L 675.666137 248.571233 
L 683.58977 257.319081 
L 690.949171 290.767685 
L 697.819384 266.393209 
L 704.261408 275.837757 
L 710.325501 280.490436 
L 716.053559 319.949399 
L 721.480877 272.700553 
L 726.637466 430.804765 
L 731.549057 433.62728 
L 736.237878 410.614458 
L 740.723263 420.073108 
L 745.022134 424.27837 
L 749.149385 414.037248 
L 753.118194 415.843358 
L 756.940278 474.338965 
L 760.626099 441.235511 
L 764.185041 481.76468 
L 767.625549 501.291131 
L 770.955252 503.679766 
L 774.181064 474.457798 
L 777.309274 521.414343 
L 780.345615 530.018851 
L 783.295328 215.932727 
L 786.163221 210.866083 
L 788.953709 516.739197 
L 791.670863 514.178593 
L 794.318437 230.142616 
L 796.899907 213.134078 
L 799.418492 541.554452 
L 801.877185 221.762495 
L 804.278768 517.21807 
L 806.625834 253.881647 
L 808.920802 257.414784 
L 811.165936 545.434652 
L 813.363354 345.897355 
L 815.515042 288.608465 
L 817.622865 257.647288 
L 819.688575 541.485574 
L 821.713822 289.367676 
L 823.700162 311.371075 
L 825.64906 297.188336 
L 827.561903 213.343028 
L 827.561903 213.343028 
" style="fill:none;stroke:#147f2a;stroke-linecap:square;"/>
   </g>
   <g id="patch_3">
    <path d="M 829.44 551.61 
L 829.44 61.29 
" style="fill:none;stroke:#000000;stroke-linecap:square;stroke-linejoin:miter;"/>
   </g>
   <g id="patch_4">
    <path d="M 115.2 551.61 
L 115.2 61.29 
" style="fill:none;stroke:#000000;stroke-linecap:square;stroke-linejoin:miter;"/>
   </g>
   <g id="patch_5">
    <path d="M 115.2 61.29 
L 829.44 61.29 
" style="fill:none;stroke:#000000;stroke-linecap:square;stroke-linejoin:miter;"/>
   </g>
   <g id="patch_6">
    <path d="M 115.2 551.61 
L 829.44 551.61 
" style="fill:none;stroke:#000000;stroke-linecap:square;stroke-linejoin:miter;"/>
   </g>
   <g id="matplotlib.axis_1">
    <g id="xtick_1">
     <g id="line2d_11">
      <defs>
       <path d="M 0 0 
L 0 -4 
" id="m4e72d42de8" style="stroke:#000000;stroke-width:0.5;"/>
      </defs>
      <g>
       <use style="stroke:#000000;stroke-width:0.5;" x="115.2" xlink:href="#m4e72d42de8" y="551.61"/>
      </g>
     </g>
     <g id="line2d_12">
      <defs>
       <path d="M 0 0 
L 0 4 
" id="m9e393d0f77" style="stroke:#000000;stroke-width:0.5;"/>
      </defs>
      <g>
       <use style="stroke:#000000;stroke-width:0.5;" x="115.2" xlink:href="#m9e393d0f77" y="61.29"/>
      </g>
     </g>
     <g id="text_1">
      <!-- $\mathdefault{10^{-3}}$ -->
      <defs>
       <path d="M 12.40625 8.296875 
L 28.515625 8.296875 
L 28.515625 63.921875 
L 10.984375 60.40625 
L 10.984375 69.390625 
L 28.421875 72.90625 
L 38.28125 72.90625 
L 38.28125 8.296875 
L 54.390625 8.296875 
L 54.390625 0 
L 12.40625 0 
z
" id="BitstreamVeraSans-Roman-31"/>
       <path d="M 4.890625 31.390625 
L 31.203125 31.390625 
L 31.203125 23.390625 
L 4.890625 23.390625 
z
" id="BitstreamVeraSans-Roman-2d"/>
       <path d="M 40.578125 39.3125 
Q 47.65625 37.796875 51.625 33 
Q 55.609375 28.21875 55.609375 21.1875 
Q 55.609375 10.40625 48.1875 4.484375 
Q 40.765625 -1.421875 27.09375 -1.421875 
Q 22.515625 -1.421875 17.65625 -0.515625 
Q 12.796875 0.390625 7.625 2.203125 
L 7.625 11.71875 
Q 11.71875 9.328125 16.59375 8.109375 
Q 21.484375 6.890625 26.8125 6.890625 
Q 36.078125 6.890625 40.9375 10.546875 
Q 45.796875 14.203125 45.796875 21.1875 
Q 45.796875 27.640625 41.28125 31.265625 
Q 36.765625 34.90625 28.71875 34.90625 
L 20.21875 34.90625 
L 20.21875 43.015625 
L 29.109375 43.015625 
Q 36.375 43.015625 40.234375 45.921875 
Q 44.09375 48.828125 44.09375 54.296875 
Q 44.09375 59.90625 40.109375 62.90625 
Q 36.140625 65.921875 28.71875 65.921875 
Q 24.65625 65.921875 20.015625 65.03125 
Q 15.375 64.15625 9.8125 62.3125 
L 9.8125 71.09375 
Q 15.4375 72.65625 20.34375 73.4375 
Q 25.25 74.21875 29.59375 74.21875 
Q 40.828125 74.21875 47.359375 69.109375 
Q 53.90625 64.015625 53.90625 55.328125 
Q 53.90625 49.265625 50.4375 45.09375 
Q 46.96875 40.921875 40.578125 39.3125 
" id="BitstreamVeraSans-Roman-33"/>
       <path d="M 31.78125 66.40625 
Q 24.171875 66.40625 20.328125 58.90625 
Q 16.5 51.421875 16.5 36.375 
Q 16.5 21.390625 20.328125 13.890625 
Q 24.171875 6.390625 31.78125 6.390625 
Q 39.453125 6.390625 43.28125 13.890625 
Q 47.125 21.390625 47.125 36.375 
Q 47.125 51.421875 43.28125 58.90625 
Q 39.453125 66.40625 31.78125 66.40625 
M 31.78125 74.21875 
Q 44.046875 74.21875 50.515625 64.515625 
Q 56.984375 54.828125 56.984375 36.375 
Q 56.984375 17.96875 50.515625 8.265625 
Q 44.046875 -1.421875 31.78125 -1.421875 
Q 19.53125 -1.421875 13.0625 8.265625 
Q 6.59375 17.96875 6.59375 36.375 
Q 6.59375 54.828125 13.0625 64.515625 
Q 19.53125 74.21875 31.78125 74.21875 
" id="BitstreamVeraSans-Roman-30"/>
      </defs>
      <g transform="translate(102.54 565.354375)scale(0.12 -0.12)">
       <use transform="translate(0.0 0.796875)" xlink:href="#BitstreamVeraSans-Roman-31"/>
       <use transform="translate(63.623046875 0.796875)" xlink:href="#BitstreamVeraSans-Roman-30"/>
       <use transform="translate(132.75859375 48.046875)scale(0.7)" xlink:href="#BitstreamVeraSans-Roman-2d"/>
       <use transform="translate(158.0173828125 48.046875)scale(0.7)" xlink:href="#BitstreamVeraSans-Roman-33"/>
      </g>
     </g>
    </g>
    <g id="xtick_2">
     <g id="line2d_13">
      <g>
       <use style="stroke:#000000;stroke-width:0.5;" x="353.28" xlink:href="#m4e72d42de8" y="551.61"/>
      </g>
     </g>
     <g id="line2d_14">
      <g>
       <use style="stroke:#000000;stroke-width:0.5;" x="353.28" xlink:href="#m9e393d0f77" y="61.29"/>
      </g>
     </g>
     <g id="text_2">
      <!-- $\mathdefault{10^{-2}}$ -->
      <defs>
       <path d="M 19.1875 8.296875 
L 53.609375 8.296875 
L 53.609375 0 
L 7.328125 0 
L 7.328125 8.296875 
Q 12.9375 14.109375 22.625 23.890625 
Q 32.328125 33.6875 34.8125 36.53125 
Q 39.546875 41.84375 41.421875 45.53125 
Q 43.3125 49.21875 43.3125 52.78125 
Q 43.3125 58.59375 39.234375 62.25 
Q 35.15625 65.921875 28.609375 65.921875 
Q 23.96875 65.921875 18.8125 64.3125 
Q 13.671875 62.703125 7.8125 59.421875 
L 7.8125 69.390625 
Q 13.765625 71.78125 18.9375 73 
Q 24.125 74.21875 28.421875 74.21875 
Q 39.75 74.21875 46.484375 68.546875 
Q 53.21875 62.890625 53.21875 53.421875 
Q 53.21875 48.921875 51.53125 44.890625 
Q 49.859375 40.875 45.40625 35.40625 
Q 44.1875 33.984375 37.640625 27.21875 
Q 31.109375 20.453125 19.1875 8.296875 
" id="BitstreamVeraSans-Roman-32"/>
      </defs>
      <g transform="translate(340.62 565.354375)scale(0.12 -0.12)">
       <use transform="translate(0.0 0.796875)" xlink:href="#BitstreamVeraSans-Roman-31"/>
       <use transform="translate(63.623046875 0.796875)" xlink:href="#BitstreamVeraSans-Roman-30"/>
       <use transform="translate(132.75859375 48.046875)scale(0.7)" xlink:href="#BitstreamVeraSans-Roman-2d"/>
       <use transform="translate(158.0173828125 48.046875)scale(0.7)" xlink:href="#BitstreamVeraSans-Roman-32"/>
      </g>
     </g>
    </g>
    <g id="xtick_3">
     <g id="line2d_15">
      <g>
       <use style="stroke:#000000;stroke-width:0.5;" x="591.36" xlink:href="#m4e72d42de8" y="551.61"/>
      </g>
     </g>
     <g id="line2d_16">
      <g>
       <use style="stroke:#000000;stroke-width:0.5;" x="591.36" xlink:href="#m9e393d0f77" y="61.29"/>
      </g>
     </g>
     <g id="text_3">
      <!-- $\mathdefault{10^{-1}}$ -->
      <g transform="translate(578.7 565.234375)scale(0.12 -0.12)">
       <use transform="translate(0.0 0.7156250000000028)" xlink:href="#BitstreamVeraSans-Roman-31"/>
       <use transform="translate(63.623046875 0.7156250000000028)" xlink:href="#BitstreamVeraSans-Roman-30"/>
       <use transform="translate(132.75859375 47.965625)scale(0.7)" xlink:href="#BitstreamVeraSans-Roman-2d"/>
       <use transform="translate(158.0173828125 47.965625)scale(0.7)" xlink:href="#BitstreamVeraSans-Roman-31"/>
      </g>
     </g>
    </g>
    <g id="xtick_4">
     <g id="line2d_17">
      <g>
       <use style="stroke:#000000;stroke-width:0.5;" x="829.44" xlink:href="#m4e72d42de8" y="551.61"/>
      </g>
     </g>
     <g id="line2d_18">
      <g>
       <use style="stroke:#000000;stroke-width:0.5;" x="829.44" xlink:href="#m9e393d0f77" y="61.29"/>
      </g>
     </g>
     <g id="text_4">
      <!-- $\mathdefault{10^{0}}$ -->
      <g transform="translate(818.28 565.354375)scale(0.12 -0.12)">
       <use transform="translate(0.0 0.796875)" xlink:href="#BitstreamVeraSans-Roman-31"/>
       <use transform="translate(63.623046875 0.796875)" xlink:href="#BitstreamVeraSans-Roman-30"/>
       <use transform="translate(132.75859375 48.046875)scale(0.7)" xlink:href="#BitstreamVeraSans-Roman-30"/>
      </g>
     </g>
    </g>
    <g id="xtick_5">
     <g id="line2d_19">
      <defs>
       <path d="M 0 0 
L 0 -2 
" id="meef6a518e7" style="stroke:#000000;stroke-width:0.5;"/>
      </defs>
      <g>
       <use style="stroke:#000000;stroke-width:0.5;" x="186.869221368" xlink:href="#meef6a518e7" y="551.61"/>
      </g>
     </g>
     <g id="line2d_20">
      <defs>
       <path d="M 0 0 
L 0 2 
" id="m97059f207d" style="stroke:#000000;stroke-width:0.5;"/>
      </defs>
      <g>
       <use style="stroke:#000000;stroke-width:0.5;" x="186.869221368" xlink:href="#m97059f207d" y="61.29"/>
      </g>
     </g>
    </g>
    <g id="xtick_6">
     <g id="line2d_21">
      <g>
       <use style="stroke:#000000;stroke-width:0.5;" x="228.793028324" xlink:href="#meef6a518e7" y="551.61"/>
      </g>
     </g>
     <g id="line2d_22">
      <g>
       <use style="stroke:#000000;stroke-width:0.5;" x="228.793028324" xlink:href="#m97059f207d" y="61.29"/>
      </g>
     </g>
    </g>
    <g id="xtick_7">
     <g id="line2d_23">
      <g>
       <use style="stroke:#000000;stroke-width:0.5;" x="258.538442735" xlink:href="#meef6a518e7" y="551.61"/>
      </g>
     </g>
     <g id="line2d_24">
      <g>
       <use style="stroke:#000000;stroke-width:0.5;" x="258.538442735" xlink:href="#m97059f207d" y="61.29"/>
      </g>
     </g>
    </g>
    <g id="xtick_8">
     <g id="line2d_25">
      <g>
       <use style="stroke:#000000;stroke-width:0.5;" x="281.610778632" xlink:href="#meef6a518e7" y="551.61"/>
      </g>
     </g>
     <g id="line2d_26">
      <g>
       <use style="stroke:#000000;stroke-width:0.5;" x="281.610778632" xlink:href="#m97059f207d" y="61.29"/>
      </g>
     </g>
    </g>
    <g id="xtick_9">
     <g id="line2d_27">
      <g>
       <use style="stroke:#000000;stroke-width:0.5;" x="300.462249691" xlink:href="#meef6a518e7" y="551.61"/>
      </g>
     </g>
     <g id="line2d_28">
      <g>
       <use style="stroke:#000000;stroke-width:0.5;" x="300.462249691" xlink:href="#m97059f207d" y="61.29"/>
      </g>
     </g>
    </g>
    <g id="xtick_10">
     <g id="line2d_29">
      <g>
       <use style="stroke:#000000;stroke-width:0.5;" x="316.400941367" xlink:href="#meef6a518e7" y="551.61"/>
      </g>
     </g>
     <g id="line2d_30">
      <g>
       <use style="stroke:#000000;stroke-width:0.5;" x="316.400941367" xlink:href="#m97059f207d" y="61.29"/>
      </g>
     </g>
    </g>
    <g id="xtick_11">
     <g id="line2d_31">
      <g>
       <use style="stroke:#000000;stroke-width:0.5;" x="330.207664103" xlink:href="#meef6a518e7" y="551.61"/>
      </g>
     </g>
     <g id="line2d_32">
      <g>
       <use style="stroke:#000000;stroke-width:0.5;" x="330.207664103" xlink:href="#m97059f207d" y="61.29"/>
      </g>
     </g>
    </g>
    <g id="xtick_12">
     <g id="line2d_33">
      <g>
       <use style="stroke:#000000;stroke-width:0.5;" x="342.386056647" xlink:href="#meef6a518e7" y="551.61"/>
      </g>
     </g>
     <g id="line2d_34">
      <g>
       <use style="stroke:#000000;stroke-width:0.5;" x="342.386056647" xlink:href="#m97059f207d" y="61.29"/>
      </g>
     </g>
    </g>
    <g id="xtick_13">
     <g id="line2d_35">
      <g>
       <use style="stroke:#000000;stroke-width:0.5;" x="424.949221368" xlink:href="#meef6a518e7" y="551.61"/>
      </g>
     </g>
     <g id="line2d_36">
      <g>
       <use style="stroke:#000000;stroke-width:0.5;" x="424.949221368" xlink:href="#m97059f207d" y="61.29"/>
      </g>
     </g>
    </g>
    <g id="xtick_14">
     <g id="line2d_37">
      <g>
       <use style="stroke:#000000;stroke-width:0.5;" x="466.873028324" xlink:href="#meef6a518e7" y="551.61"/>
      </g>
     </g>
     <g id="line2d_38">
      <g>
       <use style="stroke:#000000;stroke-width:0.5;" x="466.873028324" xlink:href="#m97059f207d" y="61.29"/>
      </g>
     </g>
    </g>
    <g id="xtick_15">
     <g id="line2d_39">
      <g>
       <use style="stroke:#000000;stroke-width:0.5;" x="496.618442735" xlink:href="#meef6a518e7" y="551.61"/>
      </g>
     </g>
     <g id="line2d_40">
      <g>
       <use style="stroke:#000000;stroke-width:0.5;" x="496.618442735" xlink:href="#m97059f207d" y="61.29"/>
      </g>
     </g>
    </g>
    <g id="xtick_16">
     <g id="line2d_41">
      <g>
       <use style="stroke:#000000;stroke-width:0.5;" x="519.690778632" xlink:href="#meef6a518e7" y="551.61"/>
      </g>
     </g>
     <g id="line2d_42">
      <g>
       <use style="stroke:#000000;stroke-width:0.5;" x="519.690778632" xlink:href="#m97059f207d" y="61.29"/>
      </g>
     </g>
    </g>
    <g id="xtick_17">
     <g id="line2d_43">
      <g>
       <use style="stroke:#000000;stroke-width:0.5;" x="538.542249691" xlink:href="#meef6a518e7" y="551.61"/>
      </g>
     </g>
     <g id="line2d_44">
      <g>
       <use style="stroke:#000000;stroke-width:0.5;" x="538.542249691" xlink:href="#m97059f207d" y="61.29"/>
      </g>
     </g>
    </g>
    <g id="xtick_18">
     <g id="line2d_45">
      <g>
       <use style="stroke:#000000;stroke-width:0.5;" x="554.480941367" xlink:href="#meef6a518e7" y="551.61"/>
      </g>
     </g>
     <g id="line2d_46">
      <g>
       <use style="stroke:#000000;stroke-width:0.5;" x="554.480941367" xlink:href="#m97059f207d" y="61.29"/>
      </g>
     </g>
    </g>
    <g id="xtick_19">
     <g id="line2d_47">
      <g>
       <use style="stroke:#000000;stroke-width:0.5;" x="568.287664103" xlink:href="#meef6a518e7" y="551.61"/>
      </g>
     </g>
     <g id="line2d_48">
      <g>
       <use style="stroke:#000000;stroke-width:0.5;" x="568.287664103" xlink:href="#m97059f207d" y="61.29"/>
      </g>
     </g>
    </g>
    <g id="xtick_20">
     <g id="line2d_49">
      <g>
       <use style="stroke:#000000;stroke-width:0.5;" x="580.466056647" xlink:href="#meef6a518e7" y="551.61"/>
      </g>
     </g>
     <g id="line2d_50">
      <g>
       <use style="stroke:#000000;stroke-width:0.5;" x="580.466056647" xlink:href="#m97059f207d" y="61.29"/>
      </g>
     </g>
    </g>
    <g id="xtick_21">
     <g id="line2d_51">
      <g>
       <use style="stroke:#000000;stroke-width:0.5;" x="663.029221368" xlink:href="#meef6a518e7" y="551.61"/>
      </g>
     </g>
     <g id="line2d_52">
      <g>
       <use style="stroke:#000000;stroke-width:0.5;" x="663.029221368" xlink:href="#m97059f207d" y="61.29"/>
      </g>
     </g>
    </g>
    <g id="xtick_22">
     <g id="line2d_53">
      <g>
       <use style="stroke:#000000;stroke-width:0.5;" x="704.953028324" xlink:href="#meef6a518e7" y="551.61"/>
      </g>
     </g>
     <g id="line2d_54">
      <g>
       <use style="stroke:#000000;stroke-width:0.5;" x="704.953028324" xlink:href="#m97059f207d" y="61.29"/>
      </g>
     </g>
    </g>
    <g id="xtick_23">
     <g id="line2d_55">
      <g>
       <use style="stroke:#000000;stroke-width:0.5;" x="734.698442735" xlink:href="#meef6a518e7" y="551.61"/>
      </g>
     </g>
     <g id="line2d_56">
      <g>
       <use style="stroke:#000000;stroke-width:0.5;" x="734.698442735" xlink:href="#m97059f207d" y="61.29"/>
      </g>
     </g>
    </g>
    <g id="xtick_24">
     <g id="line2d_57">
      <g>
       <use style="stroke:#000000;stroke-width:0.5;" x="757.770778632" xlink:href="#meef6a518e7" y="551.61"/>
      </g>
     </g>
     <g id="line2d_58">
      <g>
       <use style="stroke:#000000;stroke-width:0.5;" x="757.770778632" xlink:href="#m97059f207d" y="61.29"/>
      </g>
     </g>
    </g>
    <g id="xtick_25">
     <g id="line2d_59">
      <g>
       <use style="stroke:#000000;stroke-width:0.5;" x="776.622249691" xlink:href="#meef6a518e7" y="551.61"/>
      </g>
     </g>
     <g id="line2d_60">
      <g>
       <use style="stroke:#000000;stroke-width:0.5;" x="776.622249691" xlink:href="#m97059f207d" y="61.29"/>
      </g>
     </g>
    </g>
    <g id="xtick_26">
     <g id="line2d_61">
      <g>
       <use style="stroke:#000000;stroke-width:0.5;" x="792.560941367" xlink:href="#meef6a518e7" y="551.61"/>
      </g>
     </g>
     <g id="line2d_62">
      <g>
       <use style="stroke:#000000;stroke-width:0.5;" x="792.560941367" xlink:href="#m97059f207d" y="61.29"/>
      </g>
     </g>
    </g>
    <g id="xtick_27">
     <g id="line2d_63">
      <g>
       <use style="stroke:#000000;stroke-width:0.5;" x="806.367664103" xlink:href="#meef6a518e7" y="551.61"/>
      </g>
     </g>
     <g id="line2d_64">
      <g>
       <use style="stroke:#000000;stroke-width:0.5;" x="806.367664103" xlink:href="#m97059f207d" y="61.29"/>
      </g>
     </g>
    </g>
    <g id="xtick_28">
     <g id="line2d_65">
      <g>
       <use style="stroke:#000000;stroke-width:0.5;" x="818.546056647" xlink:href="#meef6a518e7" y="551.61"/>
      </g>
     </g>
     <g id="line2d_66">
      <g>
       <use style="stroke:#000000;stroke-width:0.5;" x="818.546056647" xlink:href="#m97059f207d" y="61.29"/>
      </g>
     </g>
    </g>
    <g id="text_5">
     <!-- Frequency [kHz] -->
     <defs>
      <path d="M 9.078125 75.984375 
L 18.109375 75.984375 
L 18.109375 31.109375 
L 44.921875 54.6875 
L 56.390625 54.6875 
L 27.390625 29.109375 
L 57.625 0 
L 45.90625 0 
L 18.109375 26.703125 
L 18.109375 0 
L 9.078125 0 
z
" id="BitstreamVeraSans-Roman-6b"/>
      <path d="M 56.203125 29.59375 
L 56.203125 25.203125 
L 14.890625 25.203125 
Q 15.484375 15.921875 20.484375 11.0625 
Q 25.484375 6.203125 34.421875 6.203125 
Q 39.59375 6.203125 44.453125 7.46875 
Q 49.3125 8.734375 54.109375 11.28125 
L 54.109375 2.78125 
Q 49.265625 0.734375 44.1875 -0.34375 
Q 39.109375 -1.421875 33.890625 -1.421875 
Q 20.796875 -1.421875 13.15625 6.1875 
Q 5.515625 13.8125 5.515625 26.8125 
Q 5.515625 40.234375 12.765625 48.109375 
Q 20.015625 56 32.328125 56 
Q 43.359375 56 49.78125 48.890625 
Q 56.203125 41.796875 56.203125 29.59375 
M 47.21875 32.234375 
Q 47.125 39.59375 43.09375 43.984375 
Q 39.0625 48.390625 32.421875 48.390625 
Q 24.90625 48.390625 20.390625 44.140625 
Q 15.875 39.890625 15.1875 32.171875 
z
" id="BitstreamVeraSans-Roman-65"/>
      <path d="M 9.8125 72.90625 
L 51.703125 72.90625 
L 51.703125 64.59375 
L 19.671875 64.59375 
L 19.671875 43.109375 
L 48.578125 43.109375 
L 48.578125 34.8125 
L 19.671875 34.8125 
L 19.671875 0 
L 9.8125 0 
z
" id="BitstreamVeraSans-Roman-46"/>
      <path d="M 48.78125 52.59375 
L 48.78125 44.1875 
Q 44.96875 46.296875 41.140625 47.34375 
Q 37.3125 48.390625 33.40625 48.390625 
Q 24.65625 48.390625 19.8125 42.84375 
Q 14.984375 37.3125 14.984375 27.296875 
Q 14.984375 17.28125 19.8125 11.734375 
Q 24.65625 6.203125 33.40625 6.203125 
Q 37.3125 6.203125 41.140625 7.25 
Q 44.96875 8.296875 48.78125 10.40625 
L 48.78125 2.09375 
Q 45.015625 0.34375 40.984375 -0.53125 
Q 36.96875 -1.421875 32.421875 -1.421875 
Q 20.0625 -1.421875 12.78125 6.34375 
Q 5.515625 14.109375 5.515625 27.296875 
Q 5.515625 40.671875 12.859375 48.328125 
Q 20.21875 56 33.015625 56 
Q 37.15625 56 41.109375 55.140625 
Q 45.0625 54.296875 48.78125 52.59375 
" id="BitstreamVeraSans-Roman-63"/>
      <path d="M 9.8125 72.90625 
L 19.671875 72.90625 
L 19.671875 43.015625 
L 55.515625 43.015625 
L 55.515625 72.90625 
L 65.375 72.90625 
L 65.375 0 
L 55.515625 0 
L 55.515625 34.71875 
L 19.671875 34.71875 
L 19.671875 0 
L 9.8125 0 
z
" id="BitstreamVeraSans-Roman-48"/>
      <path d="M 14.796875 27.296875 
Q 14.796875 17.390625 18.875 11.75 
Q 22.953125 6.109375 30.078125 6.109375 
Q 37.203125 6.109375 41.296875 11.75 
Q 45.40625 17.390625 45.40625 27.296875 
Q 45.40625 37.203125 41.296875 42.84375 
Q 37.203125 48.484375 30.078125 48.484375 
Q 22.953125 48.484375 18.875 42.84375 
Q 14.796875 37.203125 14.796875 27.296875 
M 45.40625 8.203125 
Q 42.578125 3.328125 38.25 0.953125 
Q 33.9375 -1.421875 27.875 -1.421875 
Q 17.96875 -1.421875 11.734375 6.484375 
Q 5.515625 14.40625 5.515625 27.296875 
Q 5.515625 40.1875 11.734375 48.09375 
Q 17.96875 56 27.875 56 
Q 33.9375 56 38.25 53.625 
Q 42.578125 51.265625 45.40625 46.390625 
L 45.40625 54.6875 
L 54.390625 54.6875 
L 54.390625 -20.796875 
L 45.40625 -20.796875 
z
" id="BitstreamVeraSans-Roman-71"/>
      <path d="M 54.890625 33.015625 
L 54.890625 0 
L 45.90625 0 
L 45.90625 32.71875 
Q 45.90625 40.484375 42.875 44.328125 
Q 39.84375 48.1875 33.796875 48.1875 
Q 26.515625 48.1875 22.3125 43.546875 
Q 18.109375 38.921875 18.109375 30.90625 
L 18.109375 0 
L 9.078125 0 
L 9.078125 54.6875 
L 18.109375 54.6875 
L 18.109375 46.1875 
Q 21.34375 51.125 25.703125 53.5625 
Q 30.078125 56 35.796875 56 
Q 45.21875 56 50.046875 50.171875 
Q 54.890625 44.34375 54.890625 33.015625 
" id="BitstreamVeraSans-Roman-6e"/>
      <path d="M 41.109375 46.296875 
Q 39.59375 47.171875 37.8125 47.578125 
Q 36.03125 48 33.890625 48 
Q 26.265625 48 22.1875 43.046875 
Q 18.109375 38.09375 18.109375 28.8125 
L 18.109375 0 
L 9.078125 0 
L 9.078125 54.6875 
L 18.109375 54.6875 
L 18.109375 46.1875 
Q 20.953125 51.171875 25.484375 53.578125 
Q 30.03125 56 36.53125 56 
Q 37.453125 56 38.578125 55.875 
Q 39.703125 55.765625 41.0625 55.515625 
z
" id="BitstreamVeraSans-Roman-72"/>
      <path d="M 32.171875 -5.078125 
Q 28.375 -14.84375 24.75 -17.8125 
Q 21.140625 -20.796875 15.09375 -20.796875 
L 7.90625 -20.796875 
L 7.90625 -13.28125 
L 13.1875 -13.28125 
Q 16.890625 -13.28125 18.9375 -11.515625 
Q 21 -9.765625 23.484375 -3.21875 
L 25.09375 0.875 
L 2.984375 54.6875 
L 12.5 54.6875 
L 29.59375 11.921875 
L 46.6875 54.6875 
L 56.203125 54.6875 
z
" id="BitstreamVeraSans-Roman-79"/>
      <path d="M 8.59375 75.984375 
L 29.296875 75.984375 
L 29.296875 69 
L 17.578125 69 
L 17.578125 -6.203125 
L 29.296875 -6.203125 
L 29.296875 -13.1875 
L 8.59375 -13.1875 
z
" id="BitstreamVeraSans-Roman-5b"/>
      <path d="M 30.421875 75.984375 
L 30.421875 -13.1875 
L 9.71875 -13.1875 
L 9.71875 -6.203125 
L 21.390625 -6.203125 
L 21.390625 69 
L 9.71875 69 
L 9.71875 75.984375 
z
" id="BitstreamVeraSans-Roman-5d"/>
      <path d="M 5.515625 54.6875 
L 48.1875 54.6875 
L 48.1875 46.484375 
L 14.40625 7.171875 
L 48.1875 7.171875 
L 48.1875 0 
L 4.296875 0 
L 4.296875 8.203125 
L 38.09375 47.515625 
L 5.515625 47.515625 
z
" id="BitstreamVeraSans-Roman-7a"/>
      <path id="BitstreamVeraSans-Roman-20"/>
      <path d="M 8.5 21.578125 
L 8.5 54.6875 
L 17.484375 54.6875 
L 17.484375 21.921875 
Q 17.484375 14.15625 20.5 10.265625 
Q 23.53125 6.390625 29.59375 6.390625 
Q 36.859375 6.390625 41.078125 11.03125 
Q 45.3125 15.671875 45.3125 23.6875 
L 45.3125 54.6875 
L 54.296875 54.6875 
L 54.296875 0 
L 45.3125 0 
L 45.3125 8.40625 
Q 42.046875 3.421875 37.71875 1 
Q 33.40625 -1.421875 27.6875 -1.421875 
Q 18.265625 -1.421875 13.375 4.4375 
Q 8.5 10.296875 8.5 21.578125 
" id="BitstreamVeraSans-Roman-75"/>
     </defs>
     <g transform="translate(423.0384375 581.968125)scale(0.12 -0.12)">
      <use xlink:href="#BitstreamVeraSans-Roman-46"/>
      <use x="57.41015625" xlink:href="#BitstreamVeraSans-Roman-72"/>
      <use x="98.4921875" xlink:href="#BitstreamVeraSans-Roman-65"/>
      <use x="160.015625" xlink:href="#BitstreamVeraSans-Roman-71"/>
      <use x="223.4921875" xlink:href="#BitstreamVeraSans-Roman-75"/>
      <use x="286.87109375" xlink:href="#BitstreamVeraSans-Roman-65"/>
      <use x="348.39453125" xlink:href="#BitstreamVeraSans-Roman-6e"/>
      <use x="411.7734375" xlink:href="#BitstreamVeraSans-Roman-63"/>
      <use x="466.75390625" xlink:href="#BitstreamVeraSans-Roman-79"/>
      <use x="525.93359375" xlink:href="#BitstreamVeraSans-Roman-20"/>
      <use x="557.720703125" xlink:href="#BitstreamVeraSans-Roman-5b"/>
      <use x="596.734375" xlink:href="#BitstreamVeraSans-Roman-6b"/>
      <use x="654.64453125" xlink:href="#BitstreamVeraSans-Roman-48"/>
      <use x="729.83984375" xlink:href="#BitstreamVeraSans-Roman-7a"/>
      <use x="782.330078125" xlink:href="#BitstreamVeraSans-Roman-5d"/>
     </g>
    </g>
   </g>
   <g id="matplotlib.axis_2">
    <g id="ytick_1">
     <g id="line2d_67">
      <defs>
       <path d="M 0 0 
L 4 0 
" id="m6498df3782" style="stroke:#000000;stroke-width:0.5;"/>
      </defs>
      <g>
       <use style="stroke:#000000;stroke-width:0.5;" x="115.2" xlink:href="#m6498df3782" y="551.61"/>
      </g>
     </g>
     <g id="line2d_68">
      <defs>
       <path d="M 0 0 
L -4 0 
" id="mb487caad69" style="stroke:#000000;stroke-width:0.5;"/>
      </defs>
      <g>
       <use style="stroke:#000000;stroke-width:0.5;" x="829.44" xlink:href="#mb487caad69" y="551.61"/>
      </g>
     </g>
     <g id="text_6">
      <!-- 8 -->
      <defs>
       <path d="M 10.59375 35.5 
L 73.1875 35.5 
L 73.1875 27.203125 
L 10.59375 27.203125 
z
" id="BitstreamVeraSans-Roman-2212"/>
       <path d="M 31.78125 34.625 
Q 24.75 34.625 20.71875 30.859375 
Q 16.703125 27.09375 16.703125 20.515625 
Q 16.703125 13.921875 20.71875 10.15625 
Q 24.75 6.390625 31.78125 6.390625 
Q 38.8125 6.390625 42.859375 10.171875 
Q 46.921875 13.96875 46.921875 20.515625 
Q 46.921875 27.09375 42.890625 30.859375 
Q 38.875 34.625 31.78125 34.625 
M 21.921875 38.8125 
Q 15.578125 40.375 12.03125 44.71875 
Q 8.5 49.078125 8.5 55.328125 
Q 8.5 64.0625 14.71875 69.140625 
Q 20.953125 74.21875 31.78125 74.21875 
Q 42.671875 74.21875 48.875 69.140625 
Q 55.078125 64.0625 55.078125 55.328125 
Q 55.078125 49.078125 51.53125 44.71875 
Q 48 40.375 41.703125 38.8125 
Q 48.828125 37.15625 52.796875 32.3125 
Q 56.78125 27.484375 56.78125 20.515625 
Q 56.78125 9.90625 50.3125 4.234375 
Q 43.84375 -1.421875 31.78125 -1.421875 
Q 19.734375 -1.421875 13.25 4.234375 
Q 6.78125 9.90625 6.78125 20.515625 
Q 6.78125 27.484375 10.78125 32.3125 
Q 14.796875 37.15625 21.921875 38.8125 
M 18.3125 54.390625 
Q 18.3125 48.734375 21.84375 45.5625 
Q 25.390625 42.390625 31.78125 42.390625 
Q 38.140625 42.390625 41.71875 45.5625 
Q 45.3125 48.734375 45.3125 54.390625 
Q 45.3125 60.0625 41.71875 63.234375 
Q 38.140625 66.40625 31.78125 66.40625 
Q 25.390625 66.40625 21.84375 63.234375 
Q 18.3125 60.0625 18.3125 54.390625 
" id="BitstreamVeraSans-Roman-38"/>
      </defs>
      <g transform="translate(93.509375 554.92125)scale(0.12 -0.12)">
       <use xlink:href="#BitstreamVeraSans-Roman-2212"/>
       <use x="83.7890625" xlink:href="#BitstreamVeraSans-Roman-38"/>
      </g>
     </g>
    </g>
    <g id="ytick_2">
     <g id="line2d_69">
      <g>
       <use style="stroke:#000000;stroke-width:0.5;" x="115.2" xlink:href="#m6498df3782" y="497.13"/>
      </g>
     </g>
     <g id="line2d_70">
      <g>
       <use style="stroke:#000000;stroke-width:0.5;" x="829.44" xlink:href="#mb487caad69" y="497.13"/>
      </g>
     </g>
     <g id="text_7">
      <!-- 7 -->
      <defs>
       <path d="M 8.203125 72.90625 
L 55.078125 72.90625 
L 55.078125 68.703125 
L 28.609375 0 
L 18.3125 0 
L 43.21875 64.59375 
L 8.203125 64.59375 
z
" id="BitstreamVeraSans-Roman-37"/>
      </defs>
      <g transform="translate(93.509375 500.44125)scale(0.12 -0.12)">
       <use xlink:href="#BitstreamVeraSans-Roman-2212"/>
       <use x="83.7890625" xlink:href="#BitstreamVeraSans-Roman-37"/>
      </g>
     </g>
    </g>
    <g id="ytick_3">
     <g id="line2d_71">
      <g>
       <use style="stroke:#000000;stroke-width:0.5;" x="115.2" xlink:href="#m6498df3782" y="442.65"/>
      </g>
     </g>
     <g id="line2d_72">
      <g>
       <use style="stroke:#000000;stroke-width:0.5;" x="829.44" xlink:href="#mb487caad69" y="442.65"/>
      </g>
     </g>
     <g id="text_8">
      <!-- 6 -->
      <defs>
       <path d="M 33.015625 40.375 
Q 26.375 40.375 22.484375 35.828125 
Q 18.609375 31.296875 18.609375 23.390625 
Q 18.609375 15.53125 22.484375 10.953125 
Q 26.375 6.390625 33.015625 6.390625 
Q 39.65625 6.390625 43.53125 10.953125 
Q 47.40625 15.53125 47.40625 23.390625 
Q 47.40625 31.296875 43.53125 35.828125 
Q 39.65625 40.375 33.015625 40.375 
M 52.59375 71.296875 
L 52.59375 62.3125 
Q 48.875 64.0625 45.09375 64.984375 
Q 41.3125 65.921875 37.59375 65.921875 
Q 27.828125 65.921875 22.671875 59.328125 
Q 17.53125 52.734375 16.796875 39.40625 
Q 19.671875 43.65625 24.015625 45.921875 
Q 28.375 48.1875 33.59375 48.1875 
Q 44.578125 48.1875 50.953125 41.515625 
Q 57.328125 34.859375 57.328125 23.390625 
Q 57.328125 12.15625 50.6875 5.359375 
Q 44.046875 -1.421875 33.015625 -1.421875 
Q 20.359375 -1.421875 13.671875 8.265625 
Q 6.984375 17.96875 6.984375 36.375 
Q 6.984375 53.65625 15.1875 63.9375 
Q 23.390625 74.21875 37.203125 74.21875 
Q 40.921875 74.21875 44.703125 73.484375 
Q 48.484375 72.75 52.59375 71.296875 
" id="BitstreamVeraSans-Roman-36"/>
      </defs>
      <g transform="translate(93.509375 445.96125)scale(0.12 -0.12)">
       <use xlink:href="#BitstreamVeraSans-Roman-2212"/>
       <use x="83.7890625" xlink:href="#BitstreamVeraSans-Roman-36"/>
      </g>
     </g>
    </g>
    <g id="ytick_4">
     <g id="line2d_73">
      <g>
       <use style="stroke:#000000;stroke-width:0.5;" x="115.2" xlink:href="#m6498df3782" y="388.17"/>
      </g>
     </g>
     <g id="line2d_74">
      <g>
       <use style="stroke:#000000;stroke-width:0.5;" x="829.44" xlink:href="#mb487caad69" y="388.17"/>
      </g>
     </g>
     <g id="text_9">
      <!-- 5 -->
      <defs>
       <path d="M 10.796875 72.90625 
L 49.515625 72.90625 
L 49.515625 64.59375 
L 19.828125 64.59375 
L 19.828125 46.734375 
Q 21.96875 47.46875 24.109375 47.828125 
Q 26.265625 48.1875 28.421875 48.1875 
Q 40.625 48.1875 47.75 41.5 
Q 54.890625 34.8125 54.890625 23.390625 
Q 54.890625 11.625 47.5625 5.09375 
Q 40.234375 -1.421875 26.90625 -1.421875 
Q 22.3125 -1.421875 17.546875 -0.640625 
Q 12.796875 0.140625 7.71875 1.703125 
L 7.71875 11.625 
Q 12.109375 9.234375 16.796875 8.0625 
Q 21.484375 6.890625 26.703125 6.890625 
Q 35.15625 6.890625 40.078125 11.328125 
Q 45.015625 15.765625 45.015625 23.390625 
Q 45.015625 31 40.078125 35.4375 
Q 35.15625 39.890625 26.703125 39.890625 
Q 22.75 39.890625 18.8125 39.015625 
Q 14.890625 38.140625 10.796875 36.28125 
z
" id="BitstreamVeraSans-Roman-35"/>
      </defs>
      <g transform="translate(93.509375 391.48125)scale(0.12 -0.12)">
       <use xlink:href="#BitstreamVeraSans-Roman-2212"/>
       <use x="83.7890625" xlink:href="#BitstreamVeraSans-Roman-35"/>
      </g>
     </g>
    </g>
    <g id="ytick_5">
     <g id="line2d_75">
      <g>
       <use style="stroke:#000000;stroke-width:0.5;" x="115.2" xlink:href="#m6498df3782" y="333.69"/>
      </g>
     </g>
     <g id="line2d_76">
      <g>
       <use style="stroke:#000000;stroke-width:0.5;" x="829.44" xlink:href="#mb487caad69" y="333.69"/>
      </g>
     </g>
     <g id="text_10">
      <!-- 4 -->
      <defs>
       <path d="M 37.796875 64.3125 
L 12.890625 25.390625 
L 37.796875 25.390625 
z
M 35.203125 72.90625 
L 47.609375 72.90625 
L 47.609375 25.390625 
L 58.015625 25.390625 
L 58.015625 17.1875 
L 47.609375 17.1875 
L 47.609375 0 
L 37.796875 0 
L 37.796875 17.1875 
L 4.890625 17.1875 
L 4.890625 26.703125 
z
" id="BitstreamVeraSans-Roman-34"/>
      </defs>
      <g transform="translate(93.509375 337.00125)scale(0.12 -0.12)">
       <use xlink:href="#BitstreamVeraSans-Roman-2212"/>
       <use x="83.7890625" xlink:href="#BitstreamVeraSans-Roman-34"/>
      </g>
     </g>
    </g>
    <g id="ytick_6">
     <g id="line2d_77">
      <g>
       <use style="stroke:#000000;stroke-width:0.5;" x="115.2" xlink:href="#m6498df3782" y="279.21"/>
      </g>
     </g>
     <g id="line2d_78">
      <g>
       <use style="stroke:#000000;stroke-width:0.5;" x="829.44" xlink:href="#mb487caad69" y="279.21"/>
      </g>
     </g>
     <g id="text_11">
      <!-- 3 -->
      <g transform="translate(93.509375 282.52125)scale(0.12 -0.12)">
       <use xlink:href="#BitstreamVeraSans-Roman-2212"/>
       <use x="83.7890625" xlink:href="#BitstreamVeraSans-Roman-33"/>
      </g>
     </g>
    </g>
    <g id="ytick_7">
     <g id="line2d_79">
      <g>
       <use style="stroke:#000000;stroke-width:0.5;" x="115.2" xlink:href="#m6498df3782" y="224.73"/>
      </g>
     </g>
     <g id="line2d_80">
      <g>
       <use style="stroke:#000000;stroke-width:0.5;" x="829.44" xlink:href="#mb487caad69" y="224.73"/>
      </g>
     </g>
     <g id="text_12">
      <!-- 2 -->
      <g transform="translate(93.509375 228.04125)scale(0.12 -0.12)">
       <use xlink:href="#BitstreamVeraSans-Roman-2212"/>
       <use x="83.7890625" xlink:href="#BitstreamVeraSans-Roman-32"/>
      </g>
     </g>
    </g>
    <g id="ytick_8">
     <g id="line2d_81">
      <g>
       <use style="stroke:#000000;stroke-width:0.5;" x="115.2" xlink:href="#m6498df3782" y="170.25"/>
      </g>
     </g>
     <g id="line2d_82">
      <g>
       <use style="stroke:#000000;stroke-width:0.5;" x="829.44" xlink:href="#mb487caad69" y="170.25"/>
      </g>
     </g>
     <g id="text_13">
      <!-- 1 -->
      <g transform="translate(93.509375 173.56125)scale(0.12 -0.12)">
       <use xlink:href="#BitstreamVeraSans-Roman-2212"/>
       <use x="83.7890625" xlink:href="#BitstreamVeraSans-Roman-31"/>
      </g>
     </g>
    </g>
    <g id="ytick_9">
     <g id="line2d_83">
      <g>
       <use style="stroke:#000000;stroke-width:0.5;" x="115.2" xlink:href="#m6498df3782" y="115.77"/>
      </g>
     </g>
     <g id="line2d_84">
      <g>
       <use style="stroke:#000000;stroke-width:0.5;" x="829.44" xlink:href="#mb487caad69" y="115.77"/>
      </g>
     </g>
     <g id="text_14">
      <!-- 0 -->
      <g transform="translate(103.565 119.08125)scale(0.12 -0.12)">
       <use xlink:href="#BitstreamVeraSans-Roman-30"/>
      </g>
     </g>
    </g>
    <g id="ytick_10">
     <g id="line2d_85">
      <g>
       <use style="stroke:#000000;stroke-width:0.5;" x="115.2" xlink:href="#m6498df3782" y="61.29"/>
      </g>
     </g>
     <g id="line2d_86">
      <g>
       <use style="stroke:#000000;stroke-width:0.5;" x="829.44" xlink:href="#mb487caad69" y="61.29"/>
      </g>
     </g>
     <g id="text_15">
      <!-- 1 -->
      <g transform="translate(103.565 64.60125)scale(0.12 -0.12)">
       <use xlink:href="#BitstreamVeraSans-Roman-31"/>
      </g>
     </g>
    </g>
    <g id="text_16">
     <!-- Phase [rad] -->
     <defs>
      <path d="M 44.28125 53.078125 
L 44.28125 44.578125 
Q 40.484375 46.53125 36.375 47.5 
Q 32.28125 48.484375 27.875 48.484375 
Q 21.1875 48.484375 17.84375 46.4375 
Q 14.5 44.390625 14.5 40.28125 
Q 14.5 37.15625 16.890625 35.375 
Q 19.28125 33.59375 26.515625 31.984375 
L 29.59375 31.296875 
Q 39.15625 29.25 43.1875 25.515625 
Q 47.21875 21.78125 47.21875 15.09375 
Q 47.21875 7.46875 41.1875 3.015625 
Q 35.15625 -1.421875 24.609375 -1.421875 
Q 20.21875 -1.421875 15.453125 -0.5625 
Q 10.6875 0.296875 5.421875 2 
L 5.421875 11.28125 
Q 10.40625 8.6875 15.234375 7.390625 
Q 20.0625 6.109375 24.8125 6.109375 
Q 31.15625 6.109375 34.5625 8.28125 
Q 37.984375 10.453125 37.984375 14.40625 
Q 37.984375 18.0625 35.515625 20.015625 
Q 33.0625 21.96875 24.703125 23.78125 
L 21.578125 24.515625 
Q 13.234375 26.265625 9.515625 29.90625 
Q 5.8125 33.546875 5.8125 39.890625 
Q 5.8125 47.609375 11.28125 51.796875 
Q 16.75 56 26.8125 56 
Q 31.78125 56 36.171875 55.265625 
Q 40.578125 54.546875 44.28125 53.078125 
" id="BitstreamVeraSans-Roman-73"/>
      <path d="M 45.40625 46.390625 
L 45.40625 75.984375 
L 54.390625 75.984375 
L 54.390625 0 
L 45.40625 0 
L 45.40625 8.203125 
Q 42.578125 3.328125 38.25 0.953125 
Q 33.9375 -1.421875 27.875 -1.421875 
Q 17.96875 -1.421875 11.734375 6.484375 
Q 5.515625 14.40625 5.515625 27.296875 
Q 5.515625 40.1875 11.734375 48.09375 
Q 17.96875 56 27.875 56 
Q 33.9375 56 38.25 53.625 
Q 42.578125 51.265625 45.40625 46.390625 
M 14.796875 27.296875 
Q 14.796875 17.390625 18.875 11.75 
Q 22.953125 6.109375 30.078125 6.109375 
Q 37.203125 6.109375 41.296875 11.75 
Q 45.40625 17.390625 45.40625 27.296875 
Q 45.40625 37.203125 41.296875 42.84375 
Q 37.203125 48.484375 30.078125 48.484375 
Q 22.953125 48.484375 18.875 42.84375 
Q 14.796875 37.203125 14.796875 27.296875 
" id="BitstreamVeraSans-Roman-64"/>
      <path d="M 54.890625 33.015625 
L 54.890625 0 
L 45.90625 0 
L 45.90625 32.71875 
Q 45.90625 40.484375 42.875 44.328125 
Q 39.84375 48.1875 33.796875 48.1875 
Q 26.515625 48.1875 22.3125 43.546875 
Q 18.109375 38.921875 18.109375 30.90625 
L 18.109375 0 
L 9.078125 0 
L 9.078125 75.984375 
L 18.109375 75.984375 
L 18.109375 46.1875 
Q 21.34375 51.125 25.703125 53.5625 
Q 30.078125 56 35.796875 56 
Q 45.21875 56 50.046875 50.171875 
Q 54.890625 44.34375 54.890625 33.015625 
" id="BitstreamVeraSans-Roman-68"/>
      <path d="M 34.28125 27.484375 
Q 23.390625 27.484375 19.1875 25 
Q 14.984375 22.515625 14.984375 16.5 
Q 14.984375 11.71875 18.140625 8.90625 
Q 21.296875 6.109375 26.703125 6.109375 
Q 34.1875 6.109375 38.703125 11.40625 
Q 43.21875 16.703125 43.21875 25.484375 
L 43.21875 27.484375 
z
M 52.203125 31.203125 
L 52.203125 0 
L 43.21875 0 
L 43.21875 8.296875 
Q 40.140625 3.328125 35.546875 0.953125 
Q 30.953125 -1.421875 24.3125 -1.421875 
Q 15.921875 -1.421875 10.953125 3.296875 
Q 6 8.015625 6 15.921875 
Q 6 25.140625 12.171875 29.828125 
Q 18.359375 34.515625 30.609375 34.515625 
L 43.21875 34.515625 
L 43.21875 35.40625 
Q 43.21875 41.609375 39.140625 45 
Q 35.0625 48.390625 27.6875 48.390625 
Q 23 48.390625 18.546875 47.265625 
Q 14.109375 46.140625 10.015625 43.890625 
L 10.015625 52.203125 
Q 14.9375 54.109375 19.578125 55.046875 
Q 24.21875 56 28.609375 56 
Q 40.484375 56 46.34375 49.84375 
Q 52.203125 43.703125 52.203125 31.203125 
" id="BitstreamVeraSans-Roman-61"/>
      <path d="M 19.671875 64.796875 
L 19.671875 37.40625 
L 32.078125 37.40625 
Q 38.96875 37.40625 42.71875 40.96875 
Q 46.484375 44.53125 46.484375 51.125 
Q 46.484375 57.671875 42.71875 61.234375 
Q 38.96875 64.796875 32.078125 64.796875 
z
M 9.8125 72.90625 
L 32.078125 72.90625 
Q 44.34375 72.90625 50.609375 67.359375 
Q 56.890625 61.8125 56.890625 51.125 
Q 56.890625 40.328125 50.609375 34.8125 
Q 44.34375 29.296875 32.078125 29.296875 
L 19.671875 29.296875 
L 19.671875 0 
L 9.8125 0 
z
" id="BitstreamVeraSans-Roman-50"/>
     </defs>
     <g transform="translate(86.01375 340.9059375)rotate(-90.0)scale(0.12 -0.12)">
      <use xlink:href="#BitstreamVeraSans-Roman-50"/>
      <use x="60.302734375" xlink:href="#BitstreamVeraSans-Roman-68"/>
      <use x="123.681640625" xlink:href="#BitstreamVeraSans-Roman-61"/>
      <use x="184.9609375" xlink:href="#BitstreamVeraSans-Roman-73"/>
      <use x="237.060546875" xlink:href="#BitstreamVeraSans-Roman-65"/>
      <use x="298.583984375" xlink:href="#BitstreamVeraSans-Roman-20"/>
      <use x="330.37109375" xlink:href="#BitstreamVeraSans-Roman-5b"/>
      <use x="369.384765625" xlink:href="#BitstreamVeraSans-Roman-72"/>
      <use x="410.498046875" xlink:href="#BitstreamVeraSans-Roman-61"/>
      <use x="471.77734375" xlink:href="#BitstreamVeraSans-Roman-64"/>
      <use x="535.25390625" xlink:href="#BitstreamVeraSans-Roman-5d"/>
     </g>
    </g>
   </g>
   <g id="text_17">
    <!-- Phase Curve for 20 Hz MFR and 10.0 MOhm -->
    <defs>
     <path d="M 37.109375 75.984375 
L 37.109375 68.5 
L 28.515625 68.5 
Q 23.6875 68.5 21.796875 66.546875 
Q 19.921875 64.59375 19.921875 59.515625 
L 19.921875 54.6875 
L 34.71875 54.6875 
L 34.71875 47.703125 
L 19.921875 47.703125 
L 19.921875 0 
L 10.890625 0 
L 10.890625 47.703125 
L 2.296875 47.703125 
L 2.296875 54.6875 
L 10.890625 54.6875 
L 10.890625 58.5 
Q 10.890625 67.625 15.140625 71.796875 
Q 19.390625 75.984375 28.609375 75.984375 
z
" id="BitstreamVeraSans-Roman-66"/>
     <path d="M 10.6875 12.40625 
L 21 12.40625 
L 21 0 
L 10.6875 0 
z
" id="BitstreamVeraSans-Roman-2e"/>
     <path d="M 39.40625 66.21875 
Q 28.65625 66.21875 22.328125 58.203125 
Q 16.015625 50.203125 16.015625 36.375 
Q 16.015625 22.609375 22.328125 14.59375 
Q 28.65625 6.59375 39.40625 6.59375 
Q 50.140625 6.59375 56.421875 14.59375 
Q 62.703125 22.609375 62.703125 36.375 
Q 62.703125 50.203125 56.421875 58.203125 
Q 50.140625 66.21875 39.40625 66.21875 
M 39.40625 74.21875 
Q 54.734375 74.21875 63.90625 63.9375 
Q 73.09375 53.65625 73.09375 36.375 
Q 73.09375 19.140625 63.90625 8.859375 
Q 54.734375 -1.421875 39.40625 -1.421875 
Q 24.03125 -1.421875 14.8125 8.828125 
Q 5.609375 19.09375 5.609375 36.375 
Q 5.609375 53.65625 14.8125 63.9375 
Q 24.03125 74.21875 39.40625 74.21875 
" id="BitstreamVeraSans-Roman-4f"/>
     <path d="M 52 44.1875 
Q 55.375 50.25 60.0625 53.125 
Q 64.75 56 71.09375 56 
Q 79.640625 56 84.28125 50.015625 
Q 88.921875 44.046875 88.921875 33.015625 
L 88.921875 0 
L 79.890625 0 
L 79.890625 32.71875 
Q 79.890625 40.578125 77.09375 44.375 
Q 74.3125 48.1875 68.609375 48.1875 
Q 61.625 48.1875 57.5625 43.546875 
Q 53.515625 38.921875 53.515625 30.90625 
L 53.515625 0 
L 44.484375 0 
L 44.484375 32.71875 
Q 44.484375 40.625 41.703125 44.40625 
Q 38.921875 48.1875 33.109375 48.1875 
Q 26.21875 48.1875 22.15625 43.53125 
Q 18.109375 38.875 18.109375 30.90625 
L 18.109375 0 
L 9.078125 0 
L 9.078125 54.6875 
L 18.109375 54.6875 
L 18.109375 46.1875 
Q 21.1875 51.21875 25.484375 53.609375 
Q 29.78125 56 35.6875 56 
Q 41.65625 56 45.828125 52.96875 
Q 50 49.953125 52 44.1875 
" id="BitstreamVeraSans-Roman-6d"/>
     <path d="M 9.8125 72.90625 
L 24.515625 72.90625 
L 43.109375 23.296875 
L 61.8125 72.90625 
L 76.515625 72.90625 
L 76.515625 0 
L 66.890625 0 
L 66.890625 64.015625 
L 48.09375 14.015625 
L 38.1875 14.015625 
L 19.390625 64.015625 
L 19.390625 0 
L 9.8125 0 
z
" id="BitstreamVeraSans-Roman-4d"/>
     <path d="M 2.984375 54.6875 
L 12.5 54.6875 
L 29.59375 8.796875 
L 46.6875 54.6875 
L 56.203125 54.6875 
L 35.6875 0 
L 23.484375 0 
z
" id="BitstreamVeraSans-Roman-76"/>
     <path d="M 64.40625 67.28125 
L 64.40625 56.890625 
Q 59.421875 61.53125 53.78125 63.8125 
Q 48.140625 66.109375 41.796875 66.109375 
Q 29.296875 66.109375 22.65625 58.46875 
Q 16.015625 50.828125 16.015625 36.375 
Q 16.015625 21.96875 22.65625 14.328125 
Q 29.296875 6.6875 41.796875 6.6875 
Q 48.140625 6.6875 53.78125 8.984375 
Q 59.421875 11.28125 64.40625 15.921875 
L 64.40625 5.609375 
Q 59.234375 2.09375 53.4375 0.328125 
Q 47.65625 -1.421875 41.21875 -1.421875 
Q 24.65625 -1.421875 15.125 8.703125 
Q 5.609375 18.84375 5.609375 36.375 
Q 5.609375 53.953125 15.125 64.078125 
Q 24.65625 74.21875 41.21875 74.21875 
Q 47.75 74.21875 53.53125 72.484375 
Q 59.328125 70.75 64.40625 67.28125 
" id="BitstreamVeraSans-Roman-43"/>
     <path d="M 30.609375 48.390625 
Q 23.390625 48.390625 19.1875 42.75 
Q 14.984375 37.109375 14.984375 27.296875 
Q 14.984375 17.484375 19.15625 11.84375 
Q 23.34375 6.203125 30.609375 6.203125 
Q 37.796875 6.203125 41.984375 11.859375 
Q 46.1875 17.53125 46.1875 27.296875 
Q 46.1875 37.015625 41.984375 42.703125 
Q 37.796875 48.390625 30.609375 48.390625 
M 30.609375 56 
Q 42.328125 56 49.015625 48.375 
Q 55.71875 40.765625 55.71875 27.296875 
Q 55.71875 13.875 49.015625 6.21875 
Q 42.328125 -1.421875 30.609375 -1.421875 
Q 18.84375 -1.421875 12.171875 6.21875 
Q 5.515625 13.875 5.515625 27.296875 
Q 5.515625 40.765625 12.171875 48.375 
Q 18.84375 56 30.609375 56 
" id="BitstreamVeraSans-Roman-6f"/>
     <path d="M 44.390625 34.1875 
Q 47.5625 33.109375 50.5625 29.59375 
Q 53.5625 26.078125 56.59375 19.921875 
L 66.609375 0 
L 56 0 
L 46.6875 18.703125 
Q 43.0625 26.03125 39.671875 28.421875 
Q 36.28125 30.8125 30.421875 30.8125 
L 19.671875 30.8125 
L 19.671875 0 
L 9.8125 0 
L 9.8125 72.90625 
L 32.078125 72.90625 
Q 44.578125 72.90625 50.734375 67.671875 
Q 56.890625 62.453125 56.890625 51.90625 
Q 56.890625 45.015625 53.6875 40.46875 
Q 50.484375 35.9375 44.390625 34.1875 
M 19.671875 64.796875 
L 19.671875 38.921875 
L 32.078125 38.921875 
Q 39.203125 38.921875 42.84375 42.21875 
Q 46.484375 45.515625 46.484375 51.90625 
Q 46.484375 58.296875 42.84375 61.546875 
Q 39.203125 64.796875 32.078125 64.796875 
z
" id="BitstreamVeraSans-Roman-52"/>
    </defs>
    <g transform="translate(314.62875 56.29)scale(0.144 -0.144)">
     <use xlink:href="#BitstreamVeraSans-Roman-50"/>
     <use x="60.302734375" xlink:href="#BitstreamVeraSans-Roman-68"/>
     <use x="123.681640625" xlink:href="#BitstreamVeraSans-Roman-61"/>
     <use x="184.9609375" xlink:href="#BitstreamVeraSans-Roman-73"/>
     <use x="237.060546875" xlink:href="#BitstreamVeraSans-Roman-65"/>
     <use x="298.583984375" xlink:href="#BitstreamVeraSans-Roman-20"/>
     <use x="330.37109375" xlink:href="#BitstreamVeraSans-Roman-43"/>
     <use x="400.1953125" xlink:href="#BitstreamVeraSans-Roman-75"/>
     <use x="463.57421875" xlink:href="#BitstreamVeraSans-Roman-72"/>
     <use x="504.6875" xlink:href="#BitstreamVeraSans-Roman-76"/>
     <use x="563.8671875" xlink:href="#BitstreamVeraSans-Roman-65"/>
     <use x="625.390625" xlink:href="#BitstreamVeraSans-Roman-20"/>
     <use x="657.177734375" xlink:href="#BitstreamVeraSans-Roman-66"/>
     <use x="692.3828125" xlink:href="#BitstreamVeraSans-Roman-6f"/>
     <use x="753.564453125" xlink:href="#BitstreamVeraSans-Roman-72"/>
     <use x="794.677734375" xlink:href="#BitstreamVeraSans-Roman-20"/>
     <use x="826.46484375" xlink:href="#BitstreamVeraSans-Roman-32"/>
     <use x="890.087890625" xlink:href="#BitstreamVeraSans-Roman-30"/>
     <use x="953.7109375" xlink:href="#BitstreamVeraSans-Roman-20"/>
     <use x="985.498046875" xlink:href="#BitstreamVeraSans-Roman-48"/>
     <use x="1060.693359375" xlink:href="#BitstreamVeraSans-Roman-7a"/>
     <use x="1113.18359375" xlink:href="#BitstreamVeraSans-Roman-20"/>
     <use x="1144.970703125" xlink:href="#BitstreamVeraSans-Roman-4d"/>
     <use x="1231.25" xlink:href="#BitstreamVeraSans-Roman-46"/>
     <use x="1288.76953125" xlink:href="#BitstreamVeraSans-Roman-52"/>
     <use x="1358.251953125" xlink:href="#BitstreamVeraSans-Roman-20"/>
     <use x="1390.0390625" xlink:href="#BitstreamVeraSans-Roman-61"/>
     <use x="1451.318359375" xlink:href="#BitstreamVeraSans-Roman-6e"/>
     <use x="1514.697265625" xlink:href="#BitstreamVeraSans-Roman-64"/>
     <use x="1578.173828125" xlink:href="#BitstreamVeraSans-Roman-20"/>
     <use x="1609.9609375" xlink:href="#BitstreamVeraSans-Roman-31"/>
     <use x="1673.583984375" xlink:href="#BitstreamVeraSans-Roman-30"/>
     <use x="1737.20703125" xlink:href="#BitstreamVeraSans-Roman-2e"/>
     <use x="1768.994140625" xlink:href="#BitstreamVeraSans-Roman-30"/>
     <use x="1832.6171875" xlink:href="#BitstreamVeraSans-Roman-20"/>
     <use x="1864.404296875" xlink:href="#BitstreamVeraSans-Roman-4d"/>
     <use x="1950.68359375" xlink:href="#BitstreamVeraSans-Roman-4f"/>
     <use x="2029.39453125" xlink:href="#BitstreamVeraSans-Roman-68"/>
     <use x="2092.7734375" xlink:href="#BitstreamVeraSans-Roman-6d"/>
    </g>
   </g>
   <g id="legend_1">
    <g id="patch_7">
     <path d="M 122.4 544.41 
L 257.98275 544.41 
L 257.98275 328.725 
L 122.4 328.725 
z
" style="fill:#ffffff;stroke:#000000;stroke-linejoin:miter;"/>
    </g>
    <g id="line2d_87">
     <path d="M 132.48 340.38675 
L 152.64 340.38675 
" style="fill:none;stroke:#ff1e1e;stroke-linecap:square;"/>
    </g>
    <g id="line2d_88"/>
    <g id="text_18">
     <!-- Std: 100.0 -->
     <defs>
      <path d="M 18.3125 70.21875 
L 18.3125 54.6875 
L 36.8125 54.6875 
L 36.8125 47.703125 
L 18.3125 47.703125 
L 18.3125 18.015625 
Q 18.3125 11.328125 20.140625 9.421875 
Q 21.96875 7.515625 27.59375 7.515625 
L 36.8125 7.515625 
L 36.8125 0 
L 27.59375 0 
Q 17.1875 0 13.234375 3.875 
Q 9.28125 7.765625 9.28125 18.015625 
L 9.28125 47.703125 
L 2.6875 47.703125 
L 2.6875 54.6875 
L 9.28125 54.6875 
L 9.28125 70.21875 
z
" id="BitstreamVeraSans-Roman-74"/>
      <path d="M 11.71875 12.40625 
L 22.015625 12.40625 
L 22.015625 0 
L 11.71875 0 
z
M 11.71875 51.703125 
L 22.015625 51.703125 
L 22.015625 39.3125 
L 11.71875 39.3125 
z
" id="BitstreamVeraSans-Roman-3a"/>
      <path d="M 53.515625 70.515625 
L 53.515625 60.890625 
Q 47.90625 63.578125 42.921875 64.890625 
Q 37.9375 66.21875 33.296875 66.21875 
Q 25.25 66.21875 20.875 63.09375 
Q 16.5 59.96875 16.5 54.203125 
Q 16.5 49.359375 19.40625 46.890625 
Q 22.3125 44.4375 30.421875 42.921875 
L 36.375 41.703125 
Q 47.40625 39.59375 52.65625 34.296875 
Q 57.90625 29 57.90625 20.125 
Q 57.90625 9.515625 50.796875 4.046875 
Q 43.703125 -1.421875 29.984375 -1.421875 
Q 24.8125 -1.421875 18.96875 -0.25 
Q 13.140625 0.921875 6.890625 3.21875 
L 6.890625 13.375 
Q 12.890625 10.015625 18.65625 8.296875 
Q 24.421875 6.59375 29.984375 6.59375 
Q 38.421875 6.59375 43.015625 9.90625 
Q 47.609375 13.234375 47.609375 19.390625 
Q 47.609375 24.75 44.3125 27.78125 
Q 41.015625 30.8125 33.5 32.328125 
L 27.484375 33.5 
Q 16.453125 35.6875 11.515625 40.375 
Q 6.59375 45.0625 6.59375 53.421875 
Q 6.59375 63.09375 13.40625 68.65625 
Q 20.21875 74.21875 32.171875 74.21875 
Q 37.3125 74.21875 42.625 73.28125 
Q 47.953125 72.359375 53.515625 70.515625 
" id="BitstreamVeraSans-Roman-53"/>
     </defs>
     <g transform="translate(168.48 345.42675)scale(0.144 -0.144)">
      <use xlink:href="#BitstreamVeraSans-Roman-53"/>
      <use x="63.4765625" xlink:href="#BitstreamVeraSans-Roman-74"/>
      <use x="102.685546875" xlink:href="#BitstreamVeraSans-Roman-64"/>
      <use x="166.162109375" xlink:href="#BitstreamVeraSans-Roman-3a"/>
      <use x="199.853515625" xlink:href="#BitstreamVeraSans-Roman-20"/>
      <use x="231.640625" xlink:href="#BitstreamVeraSans-Roman-31"/>
      <use x="295.263671875" xlink:href="#BitstreamVeraSans-Roman-30"/>
      <use x="358.88671875" xlink:href="#BitstreamVeraSans-Roman-30"/>
      <use x="422.509765625" xlink:href="#BitstreamVeraSans-Roman-2e"/>
      <use x="454.296875" xlink:href="#BitstreamVeraSans-Roman-30"/>
     </g>
    </g>
    <g id="line2d_89">
     <path d="M 132.48 361.52325 
L 152.64 361.52325 
" style="fill:none;stroke:#581845;stroke-linecap:square;"/>
    </g>
    <g id="line2d_90"/>
    <g id="text_19">
     <!-- Std: 200.0 -->
     <g transform="translate(168.48 366.56325)scale(0.144 -0.144)">
      <use xlink:href="#BitstreamVeraSans-Roman-53"/>
      <use x="63.4765625" xlink:href="#BitstreamVeraSans-Roman-74"/>
      <use x="102.685546875" xlink:href="#BitstreamVeraSans-Roman-64"/>
      <use x="166.162109375" xlink:href="#BitstreamVeraSans-Roman-3a"/>
      <use x="199.853515625" xlink:href="#BitstreamVeraSans-Roman-20"/>
      <use x="231.640625" xlink:href="#BitstreamVeraSans-Roman-32"/>
      <use x="295.263671875" xlink:href="#BitstreamVeraSans-Roman-30"/>
      <use x="358.88671875" xlink:href="#BitstreamVeraSans-Roman-30"/>
      <use x="422.509765625" xlink:href="#BitstreamVeraSans-Roman-2e"/>
      <use x="454.296875" xlink:href="#BitstreamVeraSans-Roman-30"/>
     </g>
    </g>
    <g id="line2d_91">
     <path d="M 132.48 382.65975 
L 152.64 382.65975 
" style="fill:none;stroke:#26b7d8;stroke-linecap:square;"/>
    </g>
    <g id="line2d_92"/>
    <g id="text_20">
     <!-- Std: 300.0 -->
     <g transform="translate(168.48 387.69975)scale(0.144 -0.144)">
      <use xlink:href="#BitstreamVeraSans-Roman-53"/>
      <use x="63.4765625" xlink:href="#BitstreamVeraSans-Roman-74"/>
      <use x="102.685546875" xlink:href="#BitstreamVeraSans-Roman-64"/>
      <use x="166.162109375" xlink:href="#BitstreamVeraSans-Roman-3a"/>
      <use x="199.853515625" xlink:href="#BitstreamVeraSans-Roman-20"/>
      <use x="231.640625" xlink:href="#BitstreamVeraSans-Roman-33"/>
      <use x="295.263671875" xlink:href="#BitstreamVeraSans-Roman-30"/>
      <use x="358.88671875" xlink:href="#BitstreamVeraSans-Roman-30"/>
      <use x="422.509765625" xlink:href="#BitstreamVeraSans-Roman-2e"/>
      <use x="454.296875" xlink:href="#BitstreamVeraSans-Roman-30"/>
     </g>
    </g>
    <g id="line2d_93">
     <path d="M 132.48 403.79625 
L 152.64 403.79625 
" style="fill:none;stroke:#8414a4;stroke-linecap:square;"/>
    </g>
    <g id="line2d_94"/>
    <g id="text_21">
     <!-- Std: 400.0 -->
     <g transform="translate(168.48 408.83625)scale(0.144 -0.144)">
      <use xlink:href="#BitstreamVeraSans-Roman-53"/>
      <use x="63.4765625" xlink:href="#BitstreamVeraSans-Roman-74"/>
      <use x="102.685546875" xlink:href="#BitstreamVeraSans-Roman-64"/>
      <use x="166.162109375" xlink:href="#BitstreamVeraSans-Roman-3a"/>
      <use x="199.853515625" xlink:href="#BitstreamVeraSans-Roman-20"/>
      <use x="231.640625" xlink:href="#BitstreamVeraSans-Roman-34"/>
      <use x="295.263671875" xlink:href="#BitstreamVeraSans-Roman-30"/>
      <use x="358.88671875" xlink:href="#BitstreamVeraSans-Roman-30"/>
      <use x="422.509765625" xlink:href="#BitstreamVeraSans-Roman-2e"/>
      <use x="454.296875" xlink:href="#BitstreamVeraSans-Roman-30"/>
     </g>
    </g>
    <g id="line2d_95">
     <path d="M 132.48 424.93275 
L 152.64 424.93275 
" style="fill:none;stroke:#ffd23a;stroke-linecap:square;"/>
    </g>
    <g id="line2d_96"/>
    <g id="text_22">
     <!-- Std: 500.0 -->
     <g transform="translate(168.48 429.97275)scale(0.144 -0.144)">
      <use xlink:href="#BitstreamVeraSans-Roman-53"/>
      <use x="63.4765625" xlink:href="#BitstreamVeraSans-Roman-74"/>
      <use x="102.685546875" xlink:href="#BitstreamVeraSans-Roman-64"/>
      <use x="166.162109375" xlink:href="#BitstreamVeraSans-Roman-3a"/>
      <use x="199.853515625" xlink:href="#BitstreamVeraSans-Roman-20"/>
      <use x="231.640625" xlink:href="#BitstreamVeraSans-Roman-35"/>
      <use x="295.263671875" xlink:href="#BitstreamVeraSans-Roman-30"/>
      <use x="358.88671875" xlink:href="#BitstreamVeraSans-Roman-30"/>
      <use x="422.509765625" xlink:href="#BitstreamVeraSans-Roman-2e"/>
      <use x="454.296875" xlink:href="#BitstreamVeraSans-Roman-30"/>
     </g>
    </g>
    <g id="line2d_97">
     <path d="M 132.48 446.06925 
L 152.64 446.06925 
" style="fill:none;stroke:#ff9300;stroke-linecap:square;"/>
    </g>
    <g id="line2d_98"/>
    <g id="text_23">
     <!-- Std: 600.0 -->
     <g transform="translate(168.48 451.10925)scale(0.144 -0.144)">
      <use xlink:href="#BitstreamVeraSans-Roman-53"/>
      <use x="63.4765625" xlink:href="#BitstreamVeraSans-Roman-74"/>
      <use x="102.685546875" xlink:href="#BitstreamVeraSans-Roman-64"/>
      <use x="166.162109375" xlink:href="#BitstreamVeraSans-Roman-3a"/>
      <use x="199.853515625" xlink:href="#BitstreamVeraSans-Roman-20"/>
      <use x="231.640625" xlink:href="#BitstreamVeraSans-Roman-36"/>
      <use x="295.263671875" xlink:href="#BitstreamVeraSans-Roman-30"/>
      <use x="358.88671875" xlink:href="#BitstreamVeraSans-Roman-30"/>
      <use x="422.509765625" xlink:href="#BitstreamVeraSans-Roman-2e"/>
      <use x="454.296875" xlink:href="#BitstreamVeraSans-Roman-30"/>
     </g>
    </g>
    <g id="line2d_99">
     <path d="M 132.48 467.20575 
L 152.64 467.20575 
" style="fill:none;stroke:#f50fe6;stroke-linecap:square;"/>
    </g>
    <g id="line2d_100"/>
    <g id="text_24">
     <!-- Std: 700.0 -->
     <g transform="translate(168.48 472.24575)scale(0.144 -0.144)">
      <use xlink:href="#BitstreamVeraSans-Roman-53"/>
      <use x="63.4765625" xlink:href="#BitstreamVeraSans-Roman-74"/>
      <use x="102.685546875" xlink:href="#BitstreamVeraSans-Roman-64"/>
      <use x="166.162109375" xlink:href="#BitstreamVeraSans-Roman-3a"/>
      <use x="199.853515625" xlink:href="#BitstreamVeraSans-Roman-20"/>
      <use x="231.640625" xlink:href="#BitstreamVeraSans-Roman-37"/>
      <use x="295.263671875" xlink:href="#BitstreamVeraSans-Roman-30"/>
      <use x="358.88671875" xlink:href="#BitstreamVeraSans-Roman-30"/>
      <use x="422.509765625" xlink:href="#BitstreamVeraSans-Roman-2e"/>
      <use x="454.296875" xlink:href="#BitstreamVeraSans-Roman-30"/>
     </g>
    </g>
    <g id="line2d_101">
     <path d="M 132.48 488.34225 
L 152.64 488.34225 
" style="fill:none;stroke:#1000a0;stroke-linecap:square;"/>
    </g>
    <g id="line2d_102"/>
    <g id="text_25">
     <!-- Std: 800.0 -->
     <g transform="translate(168.48 493.38225)scale(0.144 -0.144)">
      <use xlink:href="#BitstreamVeraSans-Roman-53"/>
      <use x="63.4765625" xlink:href="#BitstreamVeraSans-Roman-74"/>
      <use x="102.685546875" xlink:href="#BitstreamVeraSans-Roman-64"/>
      <use x="166.162109375" xlink:href="#BitstreamVeraSans-Roman-3a"/>
      <use x="199.853515625" xlink:href="#BitstreamVeraSans-Roman-20"/>
      <use x="231.640625" xlink:href="#BitstreamVeraSans-Roman-38"/>
      <use x="295.263671875" xlink:href="#BitstreamVeraSans-Roman-30"/>
      <use x="358.88671875" xlink:href="#BitstreamVeraSans-Roman-30"/>
      <use x="422.509765625" xlink:href="#BitstreamVeraSans-Roman-2e"/>
      <use x="454.296875" xlink:href="#BitstreamVeraSans-Roman-30"/>
     </g>
    </g>
    <g id="line2d_103">
     <path d="M 132.48 509.47875 
L 152.64 509.47875 
" style="fill:none;stroke:#595866;stroke-linecap:square;"/>
    </g>
    <g id="line2d_104"/>
    <g id="text_26">
     <!-- Std: 900.0 -->
     <defs>
      <path d="M 10.984375 1.515625 
L 10.984375 10.5 
Q 14.703125 8.734375 18.5 7.8125 
Q 22.3125 6.890625 25.984375 6.890625 
Q 35.75 6.890625 40.890625 13.453125 
Q 46.046875 20.015625 46.78125 33.40625 
Q 43.953125 29.203125 39.59375 26.953125 
Q 35.25 24.703125 29.984375 24.703125 
Q 19.046875 24.703125 12.671875 31.3125 
Q 6.296875 37.9375 6.296875 49.421875 
Q 6.296875 60.640625 12.9375 67.421875 
Q 19.578125 74.21875 30.609375 74.21875 
Q 43.265625 74.21875 49.921875 64.515625 
Q 56.59375 54.828125 56.59375 36.375 
Q 56.59375 19.140625 48.40625 8.859375 
Q 40.234375 -1.421875 26.421875 -1.421875 
Q 22.703125 -1.421875 18.890625 -0.6875 
Q 15.09375 0.046875 10.984375 1.515625 
M 30.609375 32.421875 
Q 37.25 32.421875 41.125 36.953125 
Q 45.015625 41.5 45.015625 49.421875 
Q 45.015625 57.28125 41.125 61.84375 
Q 37.25 66.40625 30.609375 66.40625 
Q 23.96875 66.40625 20.09375 61.84375 
Q 16.21875 57.28125 16.21875 49.421875 
Q 16.21875 41.5 20.09375 36.953125 
Q 23.96875 32.421875 30.609375 32.421875 
" id="BitstreamVeraSans-Roman-39"/>
     </defs>
     <g transform="translate(168.48 514.51875)scale(0.144 -0.144)">
      <use xlink:href="#BitstreamVeraSans-Roman-53"/>
      <use x="63.4765625" xlink:href="#BitstreamVeraSans-Roman-74"/>
      <use x="102.685546875" xlink:href="#BitstreamVeraSans-Roman-64"/>
      <use x="166.162109375" xlink:href="#BitstreamVeraSans-Roman-3a"/>
      <use x="199.853515625" xlink:href="#BitstreamVeraSans-Roman-20"/>
      <use x="231.640625" xlink:href="#BitstreamVeraSans-Roman-39"/>
      <use x="295.263671875" xlink:href="#BitstreamVeraSans-Roman-30"/>
      <use x="358.88671875" xlink:href="#BitstreamVeraSans-Roman-30"/>
      <use x="422.509765625" xlink:href="#BitstreamVeraSans-Roman-2e"/>
      <use x="454.296875" xlink:href="#BitstreamVeraSans-Roman-30"/>
     </g>
    </g>
    <g id="line2d_105">
     <path d="M 132.48 530.61525 
L 152.64 530.61525 
" style="fill:none;stroke:#147f2a;stroke-linecap:square;"/>
    </g>
    <g id="line2d_106"/>
    <g id="text_27">
     <!-- Std: 1000.0 -->
     <g transform="translate(168.48 535.65525)scale(0.144 -0.144)">
      <use xlink:href="#BitstreamVeraSans-Roman-53"/>
      <use x="63.4765625" xlink:href="#BitstreamVeraSans-Roman-74"/>
      <use x="102.685546875" xlink:href="#BitstreamVeraSans-Roman-64"/>
      <use x="166.162109375" xlink:href="#BitstreamVeraSans-Roman-3a"/>
      <use x="199.853515625" xlink:href="#BitstreamVeraSans-Roman-20"/>
      <use x="231.640625" xlink:href="#BitstreamVeraSans-Roman-31"/>
      <use x="295.263671875" xlink:href="#BitstreamVeraSans-Roman-30"/>
      <use x="358.88671875" xlink:href="#BitstreamVeraSans-Roman-30"/>
      <use x="422.509765625" xlink:href="#BitstreamVeraSans-Roman-30"/>
      <use x="486.1328125" xlink:href="#BitstreamVeraSans-Roman-2e"/>
      <use x="517.919921875" xlink:href="#BitstreamVeraSans-Roman-30"/>
     </g>
    </g>
   </g>
  </g>
 </g>
 <defs>
  <clipPath id="p29ea717ac0">
   <rect height="490.32" width="714.24" x="115.2" y="61.29"/>
  </clipPath>
 </defs>
</svg>
