<?xml version="1.0" encoding="utf-8" standalone="no"?>
<!DOCTYPE svg PUBLIC "-//W3C//DTD SVG 1.1//EN"
  "http://www.w3.org/Graphics/SVG/1.1/DTD/svg11.dtd">
<!-- Created with matplotlib (http://matplotlib.org/) -->
<svg height="612pt" version="1.1" viewBox="0 0 921 612" width="921pt" xmlns="http://www.w3.org/2000/svg" xmlns:xlink="http://www.w3.org/1999/xlink">
 <defs>
  <style type="text/css">
*{stroke-linecap:butt;stroke-linejoin:round;stroke-miterlimit:100000;}
  </style>
 </defs>
 <g id="figure_1">
  <g id="patch_1">
   <path d="M 0 612.9 
L 921.6 612.9 
L 921.6 0 
L 0 0 
z
" style="fill:#ffffff;"/>
  </g>
  <g id="axes_1">
   <g id="patch_2">
    <path d="M 115.2 551.61 
L 829.44 551.61 
L 829.44 61.29 
L 115.2 61.29 
z
" style="fill:#ffffff;"/>
   </g>
   <g id="line2d_1">
    <path clip-path="url(#pc3c7a23930)" d="M 115.2 117.348661 
L 132.313668 117.451473 
L 146.992943 117.916149 
L 159.844933 118.50862 
L 171.274613 119.218505 
L 181.565657 118.929743 
L 190.924519 119.158355 
L 199.506137 119.763433 
L 207.42977 119.981225 
L 214.789171 119.330769 
L 221.659384 121.083204 
L 228.101408 120.307638 
L 234.165501 120.04544 
L 239.893559 121.02278 
L 245.320877 121.14327 
L 250.477466 122.450396 
L 255.389057 121.932317 
L 260.077878 122.530099 
L 264.563263 122.06354 
L 268.862134 122.923085 
L 272.989385 122.146748 
L 276.958194 123.743801 
L 280.780278 122.585139 
L 284.466099 123.765886 
L 288.025041 124.057909 
L 291.465549 125.205992 
L 294.795252 123.281461 
L 298.021064 124.545306 
L 304.185615 124.941911 
L 307.135328 124.66335 
L 310.003221 125.674313 
L 312.793709 125.464538 
L 315.510863 126.302527 
L 318.158437 126.071025 
L 320.739907 126.394206 
L 323.258492 126.851099 
L 325.717185 127.010972 
L 328.118768 126.269541 
L 330.465834 127.532117 
L 332.760802 127.184204 
L 335.005936 128.399419 
L 337.203354 129.145865 
L 339.355042 128.382828 
L 341.462865 129.264597 
L 353.28 131.241674 
L 370.393668 132.274019 
L 385.072943 130.725017 
L 397.924933 134.493306 
L 409.354613 141.08027 
L 419.645657 148.687313 
L 429.004519 161.172643 
L 437.586137 170.004352 
L 445.50977 179.349865 
L 452.869171 184.958552 
L 459.739384 189.394841 
L 466.181408 191.161286 
L 472.245501 191.010753 
L 477.973559 193.732911 
L 483.400877 191.908459 
L 488.557466 195.272923 
L 493.469057 191.696185 
L 498.157878 186.784951 
L 502.643263 189.453771 
L 506.942134 189.692115 
L 511.069385 187.256793 
L 515.038194 189.294913 
L 518.860278 193.208034 
L 522.546099 191.151247 
L 526.105041 197.604674 
L 529.545549 192.888908 
L 532.875252 195.12036 
L 536.101064 196.203601 
L 539.229274 198.582782 
L 542.265615 202.391935 
L 545.215328 202.802817 
L 548.083221 203.391781 
L 550.873709 204.258711 
L 553.590863 201.820495 
L 556.238437 210.940096 
L 558.819907 201.248663 
L 561.338492 204.801399 
L 563.797185 204.601563 
L 566.198768 207.091 
L 568.545834 200.691608 
L 570.840802 209.472144 
L 573.085936 210.88935 
L 575.283354 200.903715 
L 577.435042 207.67429 
L 579.542865 205.082261 
L 591.36 212.978775 
L 608.473668 221.332186 
L 623.152943 215.073721 
L 636.004933 222.045374 
L 647.434613 234.03637 
L 657.725657 238.41609 
L 667.084519 232.804844 
L 675.666137 233.941824 
L 683.58977 248.759411 
L 690.949171 267.466106 
L 697.819384 254.41019 
L 704.261408 271.160243 
L 710.325501 280.875134 
L 716.053559 280.047109 
L 721.480877 286.68735 
L 726.637466 307.158178 
L 731.549057 321.642204 
L 736.237878 297.335034 
L 740.723263 318.777864 
L 745.022134 333.380816 
L 749.149385 318.690594 
L 753.118194 343.656735 
L 756.940278 337.697173 
L 760.626099 339.386351 
L 764.185041 357.544877 
L 767.625549 419.344142 
L 770.955252 419.739023 
L 774.181064 388.415273 
L 777.309274 364.190368 
L 780.345615 396.215198 
L 783.295328 369.133652 
L 786.163221 407.186611 
L 788.953709 433.328814 
L 791.670863 425.381773 
L 794.318437 481.613825 
L 796.899907 462.594835 
L 799.418492 419.192328 
L 801.877185 478.101722 
L 804.278768 503.781034 
L 806.625834 439.253593 
L 808.920802 486.84458 
L 811.165936 483.65974 
L 813.363354 381.669869 
L 815.515042 546.072934 
L 817.622865 468.776337 
L 819.688575 497.19994 
L 821.713822 528.505219 
L 823.700162 538.783956 
L 825.64906 524.359717 
L 827.561903 538.791544 
L 827.561903 538.791544 
" style="fill:none;stroke:#ff1e1e;stroke-linecap:square;"/>
   </g>
   <g id="line2d_2">
    <path clip-path="url(#pc3c7a23930)" d="M 115.2 117.294147 
L 132.313668 119.005919 
L 146.992943 116.844716 
L 159.844933 118.053324 
L 171.274613 119.846659 
L 181.565657 117.772383 
L 190.924519 119.788695 
L 199.506137 118.802027 
L 207.42977 120.540925 
L 214.789171 121.616639 
L 221.659384 119.704778 
L 228.101408 121.889569 
L 234.165501 121.617258 
L 239.893559 121.796917 
L 245.320877 122.706997 
L 250.477466 124.116115 
L 255.389057 122.273141 
L 260.077878 124.454111 
L 264.563263 122.892244 
L 268.862134 124.519338 
L 272.989385 123.178002 
L 276.958194 123.496658 
L 280.780278 123.462012 
L 284.466099 125.122299 
L 288.025041 126.468298 
L 291.465549 126.160119 
L 294.795252 125.679246 
L 298.021064 126.462114 
L 301.149274 126.681469 
L 304.185615 126.122565 
L 307.135328 127.503252 
L 310.003221 125.512268 
L 312.793709 127.879035 
L 315.510863 127.418894 
L 318.158437 127.974249 
L 320.739907 127.518031 
L 323.258492 128.937167 
L 325.717185 127.863148 
L 328.118768 126.970427 
L 330.465834 128.793651 
L 332.760802 130.924279 
L 335.005936 130.487673 
L 337.203354 130.317215 
L 339.355042 130.967001 
L 341.462865 131.383507 
L 353.28 132.044427 
L 370.393668 132.648556 
L 385.072943 136.082954 
L 397.924933 140.427314 
L 409.354613 143.468008 
L 419.645657 145.186445 
L 429.004519 147.232647 
L 437.586137 150.324093 
L 445.50977 155.215815 
L 452.869171 155.025398 
L 459.739384 162.828307 
L 466.181408 167.738753 
L 472.245501 171.25689 
L 477.973559 172.602382 
L 483.400877 179.115719 
L 488.557466 183.513158 
L 493.469057 183.277693 
L 498.157878 186.03459 
L 502.643263 186.08975 
L 506.942134 193.204535 
L 511.069385 186.78424 
L 515.038194 185.366477 
L 518.860278 194.131784 
L 522.546099 193.489934 
L 526.105041 195.581755 
L 529.545549 189.269671 
L 532.875252 195.297331 
L 536.101064 191.5968 
L 539.229274 196.550186 
L 542.265615 193.540295 
L 545.215328 188.856835 
L 548.083221 189.782716 
L 550.873709 187.366561 
L 553.590863 198.393315 
L 556.238437 189.600873 
L 558.819907 195.253044 
L 561.338492 196.674708 
L 563.797185 196.059583 
L 566.198768 191.053712 
L 568.545834 194.024317 
L 570.840802 200.707419 
L 573.085936 199.724976 
L 575.283354 195.87634 
L 577.435042 198.367101 
L 579.542865 199.230177 
L 591.36 203.865679 
L 608.473668 207.879573 
L 623.152943 211.871259 
L 636.004933 222.820583 
L 647.434613 226.088994 
L 657.725657 239.11932 
L 667.084519 226.288207 
L 675.666137 245.856666 
L 683.58977 251.658331 
L 690.949171 260.465389 
L 697.819384 253.507977 
L 704.261408 269.160901 
L 710.325501 276.671765 
L 716.053559 305.197779 
L 721.480877 283.891455 
L 726.637466 282.030619 
L 731.549057 314.156919 
L 736.237878 303.512982 
L 740.723263 288.416021 
L 745.022134 306.788248 
L 749.149385 335.4564 
L 753.118194 280.829787 
L 756.940278 341.256156 
L 760.626099 324.84437 
L 764.185041 361.746786 
L 767.625549 354.084589 
L 770.955252 370.650959 
L 774.181064 387.744573 
L 777.309274 389.880025 
L 780.345615 355.586258 
L 783.295328 385.475473 
L 786.163221 406.732042 
L 788.953709 425.823989 
L 791.670863 382.933376 
L 794.318437 487.968836 
L 796.899907 453.7107 
L 799.418492 372.232722 
L 801.877185 443.72401 
L 804.278768 442.315238 
L 806.625834 500.083155 
L 808.920802 502.392967 
L 811.165936 482.696891 
L 813.363354 490.135603 
L 815.515042 485.198308 
L 817.622865 439.517331 
L 819.688575 435.346631 
L 821.713822 468.175624 
L 823.700162 467.93899 
L 825.64906 470.947501 
L 827.561903 466.608527 
L 827.561903 466.608527 
" style="fill:none;stroke:#581845;stroke-linecap:square;"/>
   </g>
   <g id="line2d_3">
    <path clip-path="url(#pc3c7a23930)" d="M 115.2 116.397087 
L 132.313668 117.805084 
L 146.992943 120.470723 
L 159.844933 118.556426 
L 171.274613 120.359581 
L 181.565657 119.989039 
L 190.924519 119.098404 
L 199.506137 119.801602 
L 207.42977 118.467796 
L 214.789171 120.221212 
L 221.659384 121.547828 
L 228.101408 120.479983 
L 234.165501 122.612418 
L 239.893559 123.472078 
L 245.320877 119.877586 
L 250.477466 123.085001 
L 255.389057 122.03794 
L 260.077878 124.920818 
L 264.563263 122.443245 
L 268.862134 122.321665 
L 272.989385 126.525989 
L 276.958194 127.145236 
L 280.780278 124.840715 
L 284.466099 121.599628 
L 288.025041 123.659952 
L 291.465549 125.410052 
L 294.795252 126.762678 
L 298.021064 125.006075 
L 301.149274 130.259842 
L 304.185615 127.719978 
L 307.135328 127.753192 
L 310.003221 126.657003 
L 312.793709 129.880526 
L 315.510863 129.356297 
L 318.158437 129.668079 
L 320.739907 131.129534 
L 323.258492 129.196576 
L 325.717185 130.197828 
L 328.118768 131.708069 
L 330.465834 130.775004 
L 332.760802 128.345565 
L 335.005936 130.67322 
L 337.203354 132.477085 
L 339.355042 129.060272 
L 341.462865 131.281263 
L 353.28 134.353541 
L 370.393668 134.671732 
L 397.924933 138.040956 
L 409.354613 141.808862 
L 419.645657 143.001727 
L 429.004519 144.833561 
L 437.586137 146.726228 
L 445.50977 149.147957 
L 452.869171 150.60746 
L 459.739384 153.662274 
L 466.181408 158.155646 
L 472.245501 155.645836 
L 477.973559 163.666294 
L 483.400877 164.00828 
L 488.557466 163.132403 
L 493.469057 163.085162 
L 498.157878 170.880479 
L 502.643263 175.723246 
L 506.942134 174.889179 
L 511.069385 182.083293 
L 515.038194 187.581259 
L 518.860278 185.313726 
L 522.546099 184.97404 
L 526.105041 190.17566 
L 529.545549 192.553401 
L 532.875252 187.687527 
L 536.101064 183.713058 
L 539.229274 190.305855 
L 542.265615 197.06143 
L 545.215328 191.870479 
L 548.083221 193.67064 
L 550.873709 189.674852 
L 553.590863 199.819715 
L 556.238437 194.084637 
L 558.819907 189.922033 
L 561.338492 188.001661 
L 563.797185 195.611888 
L 566.198768 191.802736 
L 568.545834 188.848476 
L 570.840802 190.763696 
L 573.085936 188.565728 
L 575.283354 195.624808 
L 577.435042 193.594762 
L 579.542865 201.450851 
L 591.36 188.528384 
L 608.473668 203.704487 
L 623.152943 208.54518 
L 636.004933 213.372796 
L 647.434613 212.88199 
L 657.725657 221.453738 
L 667.084519 226.888673 
L 675.666137 256.616961 
L 683.58977 258.467709 
L 690.949171 241.58655 
L 697.819384 256.042005 
L 704.261408 270.879045 
L 710.325501 269.360595 
L 716.053559 272.590804 
L 721.480877 293.918361 
L 726.637466 245.667169 
L 731.549057 285.835519 
L 736.237878 284.260628 
L 740.723263 334.661068 
L 745.022134 324.545895 
L 749.149385 315.210224 
L 753.118194 331.015214 
L 756.940278 332.427706 
L 760.626099 313.02206 
L 764.185041 340.342394 
L 767.625549 360.692343 
L 770.955252 366.449297 
L 774.181064 369.127253 
L 777.309274 373.936097 
L 780.345615 399.148826 
L 783.295328 350.321101 
L 786.163221 414.719715 
L 788.953709 352.265892 
L 791.670863 361.62334 
L 794.318437 406.656021 
L 796.899907 490.712038 
L 799.418492 466.841543 
L 801.877185 461.527994 
L 804.278768 425.101177 
L 806.625834 446.401742 
L 808.920802 423.457836 
L 813.363354 472.251442 
L 815.515042 469.21128 
L 817.622865 528.629291 
L 819.688575 458.055381 
L 821.713822 515.794747 
L 823.700162 438.137243 
L 825.64906 462.234009 
L 827.561903 481.043259 
L 827.561903 481.043259 
" style="fill:none;stroke:#26b7d8;stroke-linecap:square;"/>
   </g>
   <g id="line2d_4">
    <path clip-path="url(#pc3c7a23930)" d="M 115.2 117.577554 
L 132.313668 117.01495 
L 146.992943 120.174019 
L 159.844933 118.121893 
L 171.274613 120.572381 
L 181.565657 119.453029 
L 190.924519 119.661691 
L 199.506137 120.216493 
L 207.42977 122.247379 
L 214.789171 121.026355 
L 221.659384 119.157518 
L 228.101408 128.914656 
L 234.165501 121.449497 
L 239.893559 124.637224 
L 245.320877 122.042279 
L 250.477466 124.169102 
L 255.389057 120.890827 
L 260.077878 125.561167 
L 264.563263 126.073837 
L 268.862134 125.562569 
L 272.989385 125.842175 
L 276.958194 127.271145 
L 280.780278 127.802017 
L 284.466099 123.147809 
L 288.025041 127.071406 
L 291.465549 127.964206 
L 294.795252 129.439558 
L 298.021064 125.096526 
L 301.149274 127.343295 
L 304.185615 128.821519 
L 307.135328 125.690584 
L 310.003221 125.611208 
L 312.793709 127.919153 
L 315.510863 128.635686 
L 318.158437 129.495796 
L 320.739907 129.630961 
L 323.258492 130.660079 
L 325.717185 131.908218 
L 328.118768 127.665341 
L 330.465834 131.146945 
L 332.760802 132.422602 
L 337.203354 131.684185 
L 339.355042 130.688928 
L 341.462865 129.152237 
L 353.28 134.503124 
L 370.393668 139.398866 
L 385.072943 139.142432 
L 397.924933 137.288775 
L 409.354613 139.404439 
L 419.645657 140.815995 
L 429.004519 142.767036 
L 437.586137 141.472127 
L 445.50977 140.794417 
L 452.869171 146.333728 
L 459.739384 144.064983 
L 466.181408 154.771823 
L 472.245501 148.323586 
L 477.973559 147.611426 
L 483.400877 154.637105 
L 488.557466 156.88685 
L 493.469057 164.479851 
L 498.157878 156.497398 
L 502.643263 159.953748 
L 506.942134 157.890543 
L 511.069385 165.622703 
L 515.038194 163.745226 
L 518.860278 166.17906 
L 522.546099 177.939776 
L 526.105041 180.861574 
L 529.545549 185.316786 
L 532.875252 188.525317 
L 536.101064 185.83469 
L 539.229274 187.402156 
L 542.265615 183.925209 
L 545.215328 180.779422 
L 548.083221 191.7663 
L 550.873709 192.882159 
L 553.590863 188.024926 
L 556.238437 193.928613 
L 558.819907 195.009421 
L 561.338492 197.447344 
L 563.797185 198.023203 
L 566.198768 191.852922 
L 568.545834 190.654502 
L 570.840802 198.667383 
L 573.085936 200.041229 
L 575.283354 189.784963 
L 577.435042 194.351042 
L 579.542865 205.461153 
L 591.36 194.010725 
L 608.473668 189.01172 
L 623.152943 201.555392 
L 636.004933 203.472928 
L 647.434613 212.567102 
L 657.725657 224.871687 
L 667.084519 245.948046 
L 675.666137 209.153139 
L 683.58977 216.622503 
L 690.949171 200.899467 
L 697.819384 247.754539 
L 704.261408 251.367705 
L 710.325501 255.040673 
L 716.053559 254.736624 
L 721.480877 315.293435 
L 726.637466 321.327543 
L 731.549057 300.044766 
L 736.237878 294.240628 
L 740.723263 293.478268 
L 745.022134 351.613013 
L 749.149385 309.682816 
L 753.118194 288.374734 
L 756.940278 282.455165 
L 760.626099 313.703694 
L 764.185041 319.511419 
L 767.625549 327.390989 
L 770.955252 348.534047 
L 774.181064 352.616956 
L 777.309274 370.703807 
L 780.345615 311.702169 
L 783.295328 344.946584 
L 786.163221 414.212694 
L 788.953709 384.835023 
L 791.670863 409.362326 
L 794.318437 405.54419 
L 796.899907 478.018011 
L 799.418492 427.37228 
L 801.877185 397.959603 
L 804.278768 419.548687 
L 806.625834 498.547247 
L 808.920802 497.428144 
L 811.165936 427.347673 
L 813.363354 410.301558 
L 815.515042 432.381352 
L 817.622865 475.515991 
L 819.688575 502.451572 
L 821.713822 546.650607 
L 823.700162 435.910216 
L 825.64906 450.889201 
L 827.561903 534.475824 
L 827.561903 534.475824 
" style="fill:none;stroke:#8414a4;stroke-linecap:square;"/>
   </g>
   <g id="line2d_5">
    <path clip-path="url(#pc3c7a23930)" d="M 115.2 118.167618 
L 132.313668 115.649544 
L 146.992943 120.695096 
L 159.844933 122.380868 
L 171.274613 120.957193 
L 181.565657 118.568209 
L 190.924519 121.099109 
L 199.506137 121.357488 
L 214.789171 119.445111 
L 221.659384 120.283239 
L 228.101408 119.869938 
L 234.165501 123.049248 
L 239.893559 124.763359 
L 245.320877 125.969989 
L 250.477466 121.794987 
L 255.389057 126.251914 
L 260.077878 128.428276 
L 264.563263 125.592457 
L 268.862134 125.685069 
L 272.989385 124.464355 
L 276.958194 125.822563 
L 280.780278 128.731558 
L 284.466099 126.847316 
L 288.025041 126.236369 
L 291.465549 126.767611 
L 294.795252 125.33028 
L 298.021064 127.157052 
L 301.149274 127.306505 
L 304.185615 129.192383 
L 307.135328 128.331017 
L 310.003221 121.451621 
L 312.793709 129.122712 
L 315.510863 124.207105 
L 318.158437 132.052883 
L 320.739907 130.634208 
L 323.258492 129.548905 
L 325.717185 132.161058 
L 328.118768 133.127544 
L 330.465834 135.452252 
L 332.760802 129.064741 
L 335.005936 128.875846 
L 337.203354 135.198258 
L 339.355042 130.272673 
L 341.462865 132.165802 
L 353.28 134.655067 
L 370.393668 142.367511 
L 385.072943 133.450976 
L 397.924933 140.223788 
L 409.354613 139.385272 
L 419.645657 135.115769 
L 429.004519 140.480284 
L 437.586137 141.063261 
L 445.50977 139.560524 
L 452.869171 150.425967 
L 459.739384 140.953407 
L 466.181408 148.14134 
L 472.245501 147.11015 
L 477.973559 150.144969 
L 483.400877 153.267714 
L 488.557466 152.839571 
L 493.469057 145.651631 
L 498.157878 150.714443 
L 502.643263 155.743788 
L 506.942134 157.092203 
L 511.069385 152.977146 
L 515.038194 155.222747 
L 518.860278 163.747907 
L 522.546099 162.152657 
L 526.105041 166.552277 
L 529.545549 172.587653 
L 532.875252 179.450255 
L 536.101064 179.339724 
L 539.229274 173.799481 
L 542.265615 179.624155 
L 545.215328 179.887163 
L 548.083221 182.285561 
L 550.873709 179.47526 
L 553.590863 172.997975 
L 556.238437 187.562838 
L 558.819907 175.247608 
L 561.338492 179.802507 
L 563.797185 189.816506 
L 566.198768 175.388908 
L 568.545834 187.221275 
L 570.840802 184.821749 
L 573.085936 188.944493 
L 575.283354 190.45549 
L 577.435042 184.735588 
L 579.542865 195.133523 
L 591.36 199.330365 
L 608.473668 199.91977 
L 623.152943 204.8968 
L 636.004933 214.631462 
L 647.434613 206.799113 
L 657.725657 221.752852 
L 667.084519 227.222527 
L 675.666137 231.47569 
L 683.58977 242.82498 
L 690.949171 246.828249 
L 697.819384 259.254873 
L 704.261408 301.181306 
L 710.325501 261.701914 
L 716.053559 282.224559 
L 721.480877 284.609986 
L 726.637466 319.206976 
L 731.549057 309.404995 
L 736.237878 283.938287 
L 740.723263 256.62645 
L 745.022134 292.781696 
L 749.149385 285.210482 
L 753.118194 303.648656 
L 756.940278 311.96487 
L 760.626099 313.875923 
L 764.185041 337.844521 
L 767.625549 347.25637 
L 770.955252 366.888485 
L 774.181064 333.608513 
L 777.309274 369.315771 
L 780.345615 344.417806 
L 783.295328 385.245019 
L 786.163221 375.557864 
L 788.953709 414.439568 
L 791.670863 412.938396 
L 794.318437 457.390938 
L 796.899907 408.539149 
L 799.418492 418.881922 
L 801.877185 443.850425 
L 804.278768 444.397436 
L 806.625834 433.237049 
L 808.920802 503.655112 
L 811.165936 380.392735 
L 813.363354 485.622194 
L 815.515042 360.219444 
L 817.622865 454.061024 
L 819.688575 478.320138 
L 821.713822 477.41295 
L 823.700162 455.320721 
L 825.64906 525.829065 
L 827.561903 515.498438 
L 827.561903 515.498438 
" style="fill:none;stroke:#ffd23a;stroke-linecap:square;"/>
   </g>
   <g id="line2d_6">
    <path clip-path="url(#pc3c7a23930)" d="M 115.2 116.731494 
L 132.313668 120.292667 
L 146.992943 116.535606 
L 159.844933 118.47014 
L 171.274613 119.996929 
L 181.565657 120.982791 
L 190.924519 119.804875 
L 199.506137 121.463277 
L 207.42977 115.985192 
L 214.789171 123.835752 
L 221.659384 122.242372 
L 228.101408 118.264726 
L 234.165501 120.354784 
L 239.893559 123.862667 
L 245.320877 118.714436 
L 250.477466 124.883763 
L 255.389057 127.878175 
L 260.077878 127.406677 
L 264.563263 120.094513 
L 268.862134 125.600824 
L 272.989385 125.058249 
L 276.958194 129.757191 
L 280.780278 122.833564 
L 284.466099 129.474685 
L 288.025041 125.078959 
L 291.465549 130.050126 
L 294.795252 131.405438 
L 298.021064 122.844822 
L 301.149274 130.188376 
L 304.185615 128.123107 
L 307.135328 126.678718 
L 310.003221 124.740428 
L 312.793709 131.504002 
L 315.510863 126.890827 
L 318.158437 128.924465 
L 320.739907 132.036566 
L 323.258492 130.276708 
L 325.717185 125.074303 
L 328.118768 128.317842 
L 330.465834 131.017863 
L 332.760802 134.864287 
L 335.005936 126.074874 
L 337.203354 132.070658 
L 339.355042 131.399598 
L 341.462865 131.814985 
L 353.28 132.081421 
L 370.393668 133.283052 
L 385.072943 138.515889 
L 397.924933 137.423965 
L 409.354613 140.124988 
L 419.645657 139.483696 
L 429.004519 140.15522 
L 437.586137 145.192159 
L 445.50977 133.327277 
L 452.869171 144.496046 
L 459.739384 133.038014 
L 466.181408 141.522768 
L 472.245501 144.539477 
L 477.973559 150.911582 
L 483.400877 147.012657 
L 488.557466 146.812288 
L 493.469057 150.258451 
L 498.157878 146.316766 
L 502.643263 151.303244 
L 506.942134 159.731183 
L 511.069385 150.313091 
L 515.038194 153.949239 
L 518.860278 156.917115 
L 522.546099 155.482536 
L 526.105041 158.201691 
L 529.545549 169.132736 
L 532.875252 160.797504 
L 536.101064 163.622053 
L 539.229274 161.003287 
L 542.265615 179.084655 
L 545.215328 166.023284 
L 548.083221 176.62093 
L 550.873709 163.991791 
L 553.590863 182.432051 
L 556.238437 178.67455 
L 558.819907 181.30346 
L 561.338492 181.212206 
L 563.797185 173.769286 
L 566.198768 185.790821 
L 568.545834 182.18707 
L 570.840802 188.043759 
L 573.085936 182.127591 
L 575.283354 194.258547 
L 577.435042 196.59367 
L 579.542865 191.574104 
L 591.36 174.707909 
L 608.473668 203.173375 
L 623.152943 204.582284 
L 636.004933 209.568585 
L 647.434613 220.692251 
L 657.725657 212.574406 
L 667.084519 231.887719 
L 675.666137 213.988124 
L 683.58977 222.611867 
L 690.949171 240.215525 
L 697.819384 260.06764 
L 704.261408 239.544434 
L 710.325501 270.985529 
L 716.053559 247.969503 
L 721.480877 290.923185 
L 726.637466 278.009504 
L 731.549057 257.44463 
L 736.237878 287.348421 
L 740.723263 264.342157 
L 745.022134 325.885011 
L 749.149385 271.778583 
L 753.118194 319.176924 
L 756.940278 325.726144 
L 760.626099 339.548634 
L 764.185041 335.362522 
L 767.625549 281.646183 
L 770.955252 357.776071 
L 774.181064 358.386651 
L 777.309274 433.907952 
L 780.345615 367.259236 
L 783.295328 387.31223 
L 786.163221 394.029055 
L 788.953709 387.780297 
L 791.670863 432.58363 
L 794.318437 428.27213 
L 796.899907 386.316308 
L 799.418492 418.817446 
L 801.877185 448.350398 
L 804.278768 453.044486 
L 806.625834 469.952017 
L 808.920802 443.227944 
L 811.165936 377.085043 
L 813.363354 457.142801 
L 815.515042 490.592479 
L 817.622865 470.574883 
L 819.688575 490.096361 
L 821.713822 471.224151 
L 823.700162 473.185816 
L 825.64906 507.050231 
L 827.561903 505.331607 
L 827.561903 505.331607 
" style="fill:none;stroke:#ff9300;stroke-linecap:square;"/>
   </g>
   <g id="line2d_7">
    <path clip-path="url(#pc3c7a23930)" d="M 115.2 120.020147 
L 132.313668 120.996267 
L 146.992943 115.382129 
L 159.844933 120.19084 
L 171.274613 121.873817 
L 181.565657 122.833636 
L 190.924519 117.019551 
L 199.506137 118.387105 
L 207.42977 122.104108 
L 214.789171 120.629092 
L 221.659384 122.839081 
L 228.101408 121.06973 
L 234.165501 126.131463 
L 239.893559 122.164657 
L 245.320877 122.09945 
L 250.477466 118.323267 
L 255.389057 121.151954 
L 260.077878 122.537067 
L 264.563263 121.450275 
L 268.862134 124.251354 
L 272.989385 127.484061 
L 276.958194 125.593455 
L 280.780278 122.927517 
L 284.466099 125.432132 
L 288.025041 130.359671 
L 291.465549 133.521172 
L 294.795252 135.053481 
L 298.021064 127.874403 
L 301.149274 126.964281 
L 304.185615 133.91049 
L 307.135328 129.150026 
L 310.003221 135.932144 
L 312.793709 133.733523 
L 315.510863 130.184142 
L 318.158437 133.691648 
L 320.739907 133.694202 
L 323.258492 134.298655 
L 325.717185 130.252498 
L 328.118768 135.07721 
L 330.465834 133.819559 
L 332.760802 133.993995 
L 335.005936 127.297435 
L 337.203354 136.121514 
L 339.355042 128.48866 
L 341.462865 137.256107 
L 353.28 134.414238 
L 370.393668 138.25564 
L 385.072943 136.676148 
L 397.924933 133.680749 
L 409.354613 137.514628 
L 419.645657 142.000722 
L 429.004519 138.597843 
L 437.586137 139.092235 
L 445.50977 143.021214 
L 452.869171 138.014691 
L 459.739384 138.489797 
L 466.181408 140.610677 
L 472.245501 143.952459 
L 477.973559 142.189366 
L 483.400877 142.283525 
L 488.557466 146.463201 
L 493.469057 147.362843 
L 498.157878 149.194804 
L 502.643263 140.291954 
L 506.942134 145.360601 
L 511.069385 148.982261 
L 515.038194 149.660448 
L 518.860278 153.493144 
L 522.546099 145.659248 
L 526.105041 162.28886 
L 529.545549 150.189301 
L 532.875252 164.873262 
L 536.101064 156.496409 
L 539.229274 153.603979 
L 542.265615 158.371024 
L 545.215328 161.457242 
L 548.083221 165.428921 
L 550.873709 170.302328 
L 553.590863 172.217847 
L 556.238437 166.22664 
L 558.819907 168.596427 
L 561.338492 159.648253 
L 563.797185 184.478374 
L 566.198768 181.570287 
L 568.545834 178.183367 
L 570.840802 184.67586 
L 573.085936 180.689164 
L 575.283354 189.120711 
L 577.435042 175.881038 
L 579.542865 187.521388 
L 591.36 192.930182 
L 608.473668 189.155256 
L 623.152943 193.726914 
L 636.004933 215.271212 
L 647.434613 231.072452 
L 657.725657 207.966902 
L 667.084519 204.835794 
L 675.666137 238.544374 
L 683.58977 224.36711 
L 690.949171 233.810534 
L 697.819384 227.40562 
L 704.261408 253.43697 
L 710.325501 232.22753 
L 716.053559 246.96128 
L 721.480877 249.664336 
L 726.637466 248.932664 
L 736.237878 310.451629 
L 740.723263 283.310444 
L 745.022134 302.530736 
L 749.149385 309.770421 
L 753.118194 310.819665 
L 756.940278 322.441907 
L 760.626099 326.347512 
L 764.185041 294.72854 
L 767.625549 328.228591 
L 770.955252 426.561098 
L 774.181064 308.557383 
L 777.309274 459.529582 
L 780.345615 405.495042 
L 783.295328 493.734256 
L 786.163221 368.135687 
L 788.953709 403.541717 
L 791.670863 394.327722 
L 794.318437 426.695495 
L 796.899907 442.120301 
L 799.418492 412.175244 
L 801.877185 394.25183 
L 804.278768 442.67152 
L 806.625834 449.525223 
L 808.920802 546.806621 
L 811.165936 423.471618 
L 813.363354 454.319913 
L 815.515042 463.704955 
L 817.622865 443.350995 
L 819.688575 418.961334 
L 821.713822 438.855704 
L 823.700162 406.622535 
L 825.64906 498.589101 
L 827.561903 520.279351 
L 827.561903 520.279351 
" style="fill:none;stroke:#f50fe6;stroke-linecap:square;"/>
   </g>
   <g id="line2d_8">
    <path clip-path="url(#pc3c7a23930)" d="M 115.2 114.840352 
L 132.313668 119.391108 
L 146.992943 120.972904 
L 159.844933 117.502692 
L 171.274613 125.65528 
L 181.565657 116.592503 
L 190.924519 119.824545 
L 199.506137 120.858497 
L 207.42977 122.476715 
L 214.789171 125.072793 
L 221.659384 122.524132 
L 228.101408 119.997515 
L 234.165501 124.671814 
L 239.893559 123.471448 
L 245.320877 124.549393 
L 250.477466 128.894966 
L 255.389057 130.326862 
L 260.077878 130.054686 
L 264.563263 126.536149 
L 268.862134 124.31697 
L 272.989385 130.222757 
L 276.958194 133.706045 
L 280.780278 131.138932 
L 284.466099 124.465534 
L 288.025041 126.851071 
L 291.465549 124.121855 
L 294.795252 133.317536 
L 298.021064 129.568832 
L 301.149274 124.926423 
L 304.185615 133.48398 
L 307.135328 126.380377 
L 310.003221 128.598358 
L 312.793709 134.492348 
L 315.510863 124.886596 
L 318.158437 124.100034 
L 320.739907 123.98003 
L 323.258492 128.166711 
L 325.717185 131.795013 
L 328.118768 139.652819 
L 330.465834 127.37106 
L 332.760802 134.016682 
L 335.005936 133.784929 
L 337.203354 137.096224 
L 339.355042 133.183551 
L 341.462865 133.39608 
L 353.28 130.92479 
L 370.393668 135.462392 
L 385.072943 133.077354 
L 397.924933 140.607075 
L 409.354613 132.315842 
L 419.645657 137.861029 
L 429.004519 140.973085 
L 437.586137 134.300364 
L 445.50977 141.576008 
L 452.869171 143.105359 
L 459.739384 139.220201 
L 466.181408 137.701544 
L 472.245501 139.830652 
L 477.973559 142.590692 
L 483.400877 135.328184 
L 488.557466 140.664964 
L 493.469057 148.734985 
L 498.157878 146.647634 
L 502.643263 137.394713 
L 506.942134 143.645878 
L 511.069385 149.43547 
L 515.038194 155.354398 
L 518.860278 144.922965 
L 522.546099 145.787026 
L 526.105041 159.848849 
L 529.545549 156.530265 
L 532.875252 153.940795 
L 536.101064 156.543077 
L 539.229274 154.586885 
L 542.265615 157.484814 
L 545.215328 169.400932 
L 548.083221 171.756649 
L 550.873709 156.551075 
L 553.590863 162.505237 
L 556.238437 179.942578 
L 558.819907 167.912656 
L 561.338492 174.351851 
L 563.797185 170.86017 
L 566.198768 168.641463 
L 568.545834 177.2053 
L 570.840802 170.26822 
L 573.085936 181.481751 
L 575.283354 187.773136 
L 577.435042 181.988469 
L 579.542865 177.928585 
L 591.36 179.942932 
L 608.473668 199.35463 
L 623.152943 197.968079 
L 636.004933 203.92286 
L 647.434613 198.105395 
L 657.725657 214.076455 
L 667.084519 223.43628 
L 675.666137 230.156251 
L 683.58977 231.354582 
L 690.949171 239.661503 
L 697.819384 279.393849 
L 704.261408 231.004007 
L 710.325501 240.157636 
L 716.053559 292.379311 
L 721.480877 294.245883 
L 726.637466 252.514005 
L 731.549057 335.059603 
L 736.237878 261.640397 
L 740.723263 248.498017 
L 745.022134 272.679406 
L 749.149385 302.641473 
L 753.118194 308.726224 
L 756.940278 320.815705 
L 760.626099 256.67087 
L 764.185041 345.559952 
L 767.625549 313.931828 
L 770.955252 314.093528 
L 774.181064 358.836418 
L 777.309274 298.664921 
L 780.345615 358.287517 
L 783.295328 369.068531 
L 786.163221 398.118922 
L 788.953709 383.919273 
L 791.670863 265.726416 
L 794.318437 414.73027 
L 796.899907 438.556247 
L 799.418492 270.34745 
L 801.877185 415.100831 
L 804.278768 445.93999 
L 806.625834 443.144842 
L 808.920802 395.742977 
L 811.165936 424.235164 
L 813.363354 325.816363 
L 815.515042 480.908737 
L 817.622865 232.400423 
L 819.688575 392.33719 
L 821.713822 447.618081 
L 823.700162 485.959288 
L 825.64906 509.783318 
L 827.561903 490.733272 
L 827.561903 490.733272 
" style="fill:none;stroke:#1000a0;stroke-linecap:square;"/>
   </g>
   <g id="line2d_9">
    <path clip-path="url(#pc3c7a23930)" d="M 115.2 120.884743 
L 132.313668 120.983045 
L 146.992943 117.102724 
L 159.844933 122.372691 
L 171.274613 125.895659 
L 181.565657 119.691892 
L 190.924519 119.258577 
L 199.506137 110.79764 
L 207.42977 125.040886 
L 214.789171 120.298434 
L 221.659384 119.767955 
L 228.101408 120.651623 
L 234.165501 127.353148 
L 239.893559 124.768559 
L 245.320877 122.81829 
L 250.477466 121.348251 
L 255.389057 128.878943 
L 260.077878 133.301401 
L 264.563263 120.399631 
L 268.862134 125.437223 
L 272.989385 129.584849 
L 276.958194 131.856837 
L 280.780278 124.630721 
L 284.466099 125.187174 
L 288.025041 130.824737 
L 291.465549 130.683468 
L 294.795252 134.523386 
L 298.021064 131.565966 
L 301.149274 131.855726 
L 304.185615 129.053718 
L 307.135328 131.445228 
L 310.003221 133.006693 
L 312.793709 122.597472 
L 315.510863 123.6684 
L 318.158437 127.813149 
L 320.739907 133.625836 
L 323.258492 141.662027 
L 325.717185 129.958804 
L 328.118768 133.151955 
L 330.465834 126.693037 
L 332.760802 138.419319 
L 335.005936 136.564842 
L 337.203354 131.266929 
L 339.355042 129.09154 
L 341.462865 126.708417 
L 353.28 135.56496 
L 370.393668 134.245834 
L 385.072943 135.274058 
L 397.924933 132.343273 
L 409.354613 131.913726 
L 419.645657 129.760518 
L 429.004519 138.337117 
L 437.586137 137.657741 
L 445.50977 133.775499 
L 452.869171 144.741669 
L 459.739384 143.277612 
L 466.181408 138.201499 
L 472.245501 146.383746 
L 477.973559 142.483099 
L 483.400877 141.999952 
L 488.557466 135.486398 
L 493.469057 144.018298 
L 498.157878 142.046362 
L 502.643263 138.599408 
L 506.942134 145.615507 
L 511.069385 134.248435 
L 515.038194 144.506403 
L 518.860278 149.059134 
L 522.546099 137.469409 
L 526.105041 148.68459 
L 529.545549 151.374533 
L 532.875252 146.080643 
L 536.101064 152.064677 
L 539.229274 164.185059 
L 542.265615 152.28642 
L 545.215328 154.158309 
L 548.083221 159.359179 
L 550.873709 155.626165 
L 553.590863 165.95256 
L 556.238437 161.53749 
L 558.819907 164.676222 
L 561.338492 158.438331 
L 563.797185 179.765055 
L 566.198768 173.815315 
L 568.545834 159.104488 
L 570.840802 168.442237 
L 573.085936 180.741962 
L 575.283354 155.519011 
L 577.435042 174.683919 
L 579.542865 186.123917 
L 591.36 190.340724 
L 608.473668 192.225887 
L 623.152943 191.979932 
L 636.004933 194.449235 
L 647.434613 204.905195 
L 657.725657 208.114671 
L 667.084519 221.511824 
L 675.666137 205.663845 
L 683.58977 242.85378 
L 690.949171 234.34875 
L 697.819384 246.493442 
L 704.261408 246.1479 
L 710.325501 292.362449 
L 716.053559 241.067678 
L 721.480877 223.939378 
L 726.637466 282.077287 
L 731.549057 247.130569 
L 736.237878 282.895027 
L 740.723263 300.440251 
L 745.022134 277.606722 
L 749.149385 249.113649 
L 753.118194 338.52267 
L 756.940278 271.829662 
L 760.626099 308.718367 
L 764.185041 310.489491 
L 767.625549 289.167193 
L 770.955252 354.115202 
L 774.181064 377.024321 
L 777.309274 305.049538 
L 780.345615 355.320777 
L 783.295328 374.967611 
L 786.163221 374.062901 
L 788.953709 454.103941 
L 791.670863 373.184828 
L 794.318437 393.202474 
L 796.899907 401.764118 
L 799.418492 516.329431 
L 801.877185 411.419734 
L 804.278768 346.884137 
L 806.625834 390.975813 
L 808.920802 416.732742 
L 811.165936 453.866982 
L 813.363354 480.470401 
L 815.515042 441.10841 
L 817.622865 429.55428 
L 819.688575 446.751957 
L 821.713822 432.240279 
L 823.700162 452.461 
L 825.64906 382.352325 
L 827.561903 492.599327 
L 827.561903 492.599327 
" style="fill:none;stroke:#595866;stroke-linecap:square;"/>
   </g>
   <g id="line2d_10">
    <path clip-path="url(#pc3c7a23930)" d="M 115.2 121.976638 
L 132.313668 124.344983 
L 146.992943 115.92892 
L 159.844933 112.522867 
L 171.274613 119.066223 
L 181.565657 117.871333 
L 190.924519 125.885794 
L 199.506137 126.44263 
L 207.42977 116.4311 
L 214.789171 120.115169 
L 221.659384 119.601159 
L 228.101408 128.824129 
L 234.165501 121.627332 
L 239.893559 112.61836 
L 245.320877 129.493966 
L 250.477466 121.724463 
L 255.389057 123.287441 
L 260.077878 133.425832 
L 264.563263 116.548516 
L 268.862134 121.65268 
L 272.989385 132.921338 
L 276.958194 129.283517 
L 280.780278 123.277502 
L 284.466099 121.640053 
L 288.025041 125.981617 
L 291.465549 121.07174 
L 294.795252 127.802121 
L 298.021064 117.811412 
L 301.149274 129.015794 
L 304.185615 133.920517 
L 307.135328 138.054942 
L 310.003221 132.006707 
L 312.793709 134.277808 
L 315.510863 133.400061 
L 318.158437 124.552472 
L 320.739907 122.959576 
L 323.258492 129.619442 
L 325.717185 141.504592 
L 328.118768 144.122214 
L 330.465834 127.522298 
L 332.760802 136.009397 
L 335.005936 143.628221 
L 337.203354 136.447487 
L 339.355042 137.776807 
L 341.462865 134.825893 
L 353.28 130.700961 
L 370.393668 132.346269 
L 385.072943 142.381169 
L 397.924933 136.383692 
L 409.354613 138.581931 
L 419.645657 136.929931 
L 429.004519 129.298804 
L 437.586137 138.450533 
L 445.50977 135.728506 
L 452.869171 146.858191 
L 466.181408 128.929636 
L 472.245501 147.445983 
L 477.973559 146.862914 
L 483.400877 138.857432 
L 488.557466 141.651206 
L 493.469057 141.439767 
L 498.157878 146.976819 
L 502.643263 138.615411 
L 506.942134 141.620364 
L 511.069385 143.392643 
L 515.038194 138.160296 
L 518.860278 154.155144 
L 522.546099 134.871867 
L 526.105041 150.711449 
L 529.545549 144.04462 
L 532.875252 145.846383 
L 536.101064 153.794997 
L 539.229274 146.759995 
L 542.265615 141.68153 
L 545.215328 142.923296 
L 548.083221 153.273551 
L 550.873709 154.561442 
L 553.590863 153.704826 
L 556.238437 163.997226 
L 558.819907 170.160142 
L 561.338492 157.911193 
L 563.797185 169.049356 
L 566.198768 171.308047 
L 568.545834 167.823233 
L 570.840802 165.93064 
L 573.085936 153.029627 
L 575.283354 170.878057 
L 577.435042 171.66934 
L 579.542865 179.417575 
L 591.36 190.134674 
L 608.473668 191.916222 
L 623.152943 184.15847 
L 636.004933 193.292832 
L 647.434613 230.679521 
L 657.725657 199.733126 
L 667.084519 219.458722 
L 683.58977 236.855991 
L 690.949171 237.527237 
L 697.819384 232.664849 
L 704.261408 227.966402 
L 710.325501 250.186038 
L 716.053559 255.929795 
L 721.480877 221.818044 
L 726.637466 269.527349 
L 731.549057 279.628082 
L 740.723263 302.703633 
L 745.022134 330.21053 
L 749.149385 310.564628 
L 753.118194 325.446026 
L 756.940278 280.635009 
L 760.626099 483.082098 
L 764.185041 336.192399 
L 767.625549 326.058196 
L 770.955252 305.068016 
L 774.181064 323.549353 
L 777.309274 336.068097 
L 780.345615 337.870282 
L 783.295328 426.50371 
L 786.163221 500.177642 
L 788.953709 372.640237 
L 791.670863 426.003476 
L 794.318437 356.901859 
L 796.899907 394.716645 
L 799.418492 438.900785 
L 801.877185 436.602253 
L 804.278768 403.896032 
L 806.625834 413.964692 
L 808.920802 412.211998 
L 813.363354 495.254862 
L 815.515042 479.10961 
L 817.622865 433.647982 
L 819.688575 521.095284 
L 821.713822 428.870728 
L 823.700162 409.736252 
L 825.64906 478.541701 
L 827.561903 469.649905 
L 827.561903 469.649905 
" style="fill:none;stroke:#147f2a;stroke-linecap:square;"/>
   </g>
   <g id="patch_3">
    <path d="M 829.44 551.61 
L 829.44 61.29 
" style="fill:none;stroke:#000000;stroke-linecap:square;stroke-linejoin:miter;"/>
   </g>
   <g id="patch_4">
    <path d="M 115.2 551.61 
L 115.2 61.29 
" style="fill:none;stroke:#000000;stroke-linecap:square;stroke-linejoin:miter;"/>
   </g>
   <g id="patch_5">
    <path d="M 115.2 61.29 
L 829.44 61.29 
" style="fill:none;stroke:#000000;stroke-linecap:square;stroke-linejoin:miter;"/>
   </g>
   <g id="patch_6">
    <path d="M 115.2 551.61 
L 829.44 551.61 
" style="fill:none;stroke:#000000;stroke-linecap:square;stroke-linejoin:miter;"/>
   </g>
   <g id="matplotlib.axis_1">
    <g id="xtick_1">
     <g id="line2d_11">
      <defs>
       <path d="M 0 0 
L 0 -4 
" id="m6acda5a15a" style="stroke:#000000;stroke-width:0.5;"/>
      </defs>
      <g>
       <use style="stroke:#000000;stroke-width:0.5;" x="115.2" xlink:href="#m6acda5a15a" y="551.61"/>
      </g>
     </g>
     <g id="line2d_12">
      <defs>
       <path d="M 0 0 
L 0 4 
" id="m349bcaf69a" style="stroke:#000000;stroke-width:0.5;"/>
      </defs>
      <g>
       <use style="stroke:#000000;stroke-width:0.5;" x="115.2" xlink:href="#m349bcaf69a" y="61.29"/>
      </g>
     </g>
     <g id="text_1">
      <!-- $\mathdefault{10^{-3}}$ -->
      <defs>
       <path d="M 12.40625 8.296875 
L 28.515625 8.296875 
L 28.515625 63.921875 
L 10.984375 60.40625 
L 10.984375 69.390625 
L 28.421875 72.90625 
L 38.28125 72.90625 
L 38.28125 8.296875 
L 54.390625 8.296875 
L 54.390625 0 
L 12.40625 0 
z
" id="BitstreamVeraSans-Roman-31"/>
       <path d="M 4.890625 31.390625 
L 31.203125 31.390625 
L 31.203125 23.390625 
L 4.890625 23.390625 
z
" id="BitstreamVeraSans-Roman-2d"/>
       <path d="M 40.578125 39.3125 
Q 47.65625 37.796875 51.625 33 
Q 55.609375 28.21875 55.609375 21.1875 
Q 55.609375 10.40625 48.1875 4.484375 
Q 40.765625 -1.421875 27.09375 -1.421875 
Q 22.515625 -1.421875 17.65625 -0.515625 
Q 12.796875 0.390625 7.625 2.203125 
L 7.625 11.71875 
Q 11.71875 9.328125 16.59375 8.109375 
Q 21.484375 6.890625 26.8125 6.890625 
Q 36.078125 6.890625 40.9375 10.546875 
Q 45.796875 14.203125 45.796875 21.1875 
Q 45.796875 27.640625 41.28125 31.265625 
Q 36.765625 34.90625 28.71875 34.90625 
L 20.21875 34.90625 
L 20.21875 43.015625 
L 29.109375 43.015625 
Q 36.375 43.015625 40.234375 45.921875 
Q 44.09375 48.828125 44.09375 54.296875 
Q 44.09375 59.90625 40.109375 62.90625 
Q 36.140625 65.921875 28.71875 65.921875 
Q 24.65625 65.921875 20.015625 65.03125 
Q 15.375 64.15625 9.8125 62.3125 
L 9.8125 71.09375 
Q 15.4375 72.65625 20.34375 73.4375 
Q 25.25 74.21875 29.59375 74.21875 
Q 40.828125 74.21875 47.359375 69.109375 
Q 53.90625 64.015625 53.90625 55.328125 
Q 53.90625 49.265625 50.4375 45.09375 
Q 46.96875 40.921875 40.578125 39.3125 
" id="BitstreamVeraSans-Roman-33"/>
       <path d="M 31.78125 66.40625 
Q 24.171875 66.40625 20.328125 58.90625 
Q 16.5 51.421875 16.5 36.375 
Q 16.5 21.390625 20.328125 13.890625 
Q 24.171875 6.390625 31.78125 6.390625 
Q 39.453125 6.390625 43.28125 13.890625 
Q 47.125 21.390625 47.125 36.375 
Q 47.125 51.421875 43.28125 58.90625 
Q 39.453125 66.40625 31.78125 66.40625 
M 31.78125 74.21875 
Q 44.046875 74.21875 50.515625 64.515625 
Q 56.984375 54.828125 56.984375 36.375 
Q 56.984375 17.96875 50.515625 8.265625 
Q 44.046875 -1.421875 31.78125 -1.421875 
Q 19.53125 -1.421875 13.0625 8.265625 
Q 6.59375 17.96875 6.59375 36.375 
Q 6.59375 54.828125 13.0625 64.515625 
Q 19.53125 74.21875 31.78125 74.21875 
" id="BitstreamVeraSans-Roman-30"/>
      </defs>
      <g transform="translate(102.54 565.354375)scale(0.12 -0.12)">
       <use transform="translate(0.0 0.796875)" xlink:href="#BitstreamVeraSans-Roman-31"/>
       <use transform="translate(63.623046875 0.796875)" xlink:href="#BitstreamVeraSans-Roman-30"/>
       <use transform="translate(132.75859375 48.046875)scale(0.7)" xlink:href="#BitstreamVeraSans-Roman-2d"/>
       <use transform="translate(158.0173828125 48.046875)scale(0.7)" xlink:href="#BitstreamVeraSans-Roman-33"/>
      </g>
     </g>
    </g>
    <g id="xtick_2">
     <g id="line2d_13">
      <g>
       <use style="stroke:#000000;stroke-width:0.5;" x="353.28" xlink:href="#m6acda5a15a" y="551.61"/>
      </g>
     </g>
     <g id="line2d_14">
      <g>
       <use style="stroke:#000000;stroke-width:0.5;" x="353.28" xlink:href="#m349bcaf69a" y="61.29"/>
      </g>
     </g>
     <g id="text_2">
      <!-- $\mathdefault{10^{-2}}$ -->
      <defs>
       <path d="M 19.1875 8.296875 
L 53.609375 8.296875 
L 53.609375 0 
L 7.328125 0 
L 7.328125 8.296875 
Q 12.9375 14.109375 22.625 23.890625 
Q 32.328125 33.6875 34.8125 36.53125 
Q 39.546875 41.84375 41.421875 45.53125 
Q 43.3125 49.21875 43.3125 52.78125 
Q 43.3125 58.59375 39.234375 62.25 
Q 35.15625 65.921875 28.609375 65.921875 
Q 23.96875 65.921875 18.8125 64.3125 
Q 13.671875 62.703125 7.8125 59.421875 
L 7.8125 69.390625 
Q 13.765625 71.78125 18.9375 73 
Q 24.125 74.21875 28.421875 74.21875 
Q 39.75 74.21875 46.484375 68.546875 
Q 53.21875 62.890625 53.21875 53.421875 
Q 53.21875 48.921875 51.53125 44.890625 
Q 49.859375 40.875 45.40625 35.40625 
Q 44.1875 33.984375 37.640625 27.21875 
Q 31.109375 20.453125 19.1875 8.296875 
" id="BitstreamVeraSans-Roman-32"/>
      </defs>
      <g transform="translate(340.62 565.354375)scale(0.12 -0.12)">
       <use transform="translate(0.0 0.796875)" xlink:href="#BitstreamVeraSans-Roman-31"/>
       <use transform="translate(63.623046875 0.796875)" xlink:href="#BitstreamVeraSans-Roman-30"/>
       <use transform="translate(132.75859375 48.046875)scale(0.7)" xlink:href="#BitstreamVeraSans-Roman-2d"/>
       <use transform="translate(158.0173828125 48.046875)scale(0.7)" xlink:href="#BitstreamVeraSans-Roman-32"/>
      </g>
     </g>
    </g>
    <g id="xtick_3">
     <g id="line2d_15">
      <g>
       <use style="stroke:#000000;stroke-width:0.5;" x="591.36" xlink:href="#m6acda5a15a" y="551.61"/>
      </g>
     </g>
     <g id="line2d_16">
      <g>
       <use style="stroke:#000000;stroke-width:0.5;" x="591.36" xlink:href="#m349bcaf69a" y="61.29"/>
      </g>
     </g>
     <g id="text_3">
      <!-- $\mathdefault{10^{-1}}$ -->
      <g transform="translate(578.7 565.234375)scale(0.12 -0.12)">
       <use transform="translate(0.0 0.7156250000000028)" xlink:href="#BitstreamVeraSans-Roman-31"/>
       <use transform="translate(63.623046875 0.7156250000000028)" xlink:href="#BitstreamVeraSans-Roman-30"/>
       <use transform="translate(132.75859375 47.965625)scale(0.7)" xlink:href="#BitstreamVeraSans-Roman-2d"/>
       <use transform="translate(158.0173828125 47.965625)scale(0.7)" xlink:href="#BitstreamVeraSans-Roman-31"/>
      </g>
     </g>
    </g>
    <g id="xtick_4">
     <g id="line2d_17">
      <g>
       <use style="stroke:#000000;stroke-width:0.5;" x="829.44" xlink:href="#m6acda5a15a" y="551.61"/>
      </g>
     </g>
     <g id="line2d_18">
      <g>
       <use style="stroke:#000000;stroke-width:0.5;" x="829.44" xlink:href="#m349bcaf69a" y="61.29"/>
      </g>
     </g>
     <g id="text_4">
      <!-- $\mathdefault{10^{0}}$ -->
      <g transform="translate(818.28 565.354375)scale(0.12 -0.12)">
       <use transform="translate(0.0 0.796875)" xlink:href="#BitstreamVeraSans-Roman-31"/>
       <use transform="translate(63.623046875 0.796875)" xlink:href="#BitstreamVeraSans-Roman-30"/>
       <use transform="translate(132.75859375 48.046875)scale(0.7)" xlink:href="#BitstreamVeraSans-Roman-30"/>
      </g>
     </g>
    </g>
    <g id="xtick_5">
     <g id="line2d_19">
      <defs>
       <path d="M 0 0 
L 0 -2 
" id="m17bb25ae8a" style="stroke:#000000;stroke-width:0.5;"/>
      </defs>
      <g>
       <use style="stroke:#000000;stroke-width:0.5;" x="186.869221368" xlink:href="#m17bb25ae8a" y="551.61"/>
      </g>
     </g>
     <g id="line2d_20">
      <defs>
       <path d="M 0 0 
L 0 2 
" id="m496f59a887" style="stroke:#000000;stroke-width:0.5;"/>
      </defs>
      <g>
       <use style="stroke:#000000;stroke-width:0.5;" x="186.869221368" xlink:href="#m496f59a887" y="61.29"/>
      </g>
     </g>
    </g>
    <g id="xtick_6">
     <g id="line2d_21">
      <g>
       <use style="stroke:#000000;stroke-width:0.5;" x="228.793028324" xlink:href="#m17bb25ae8a" y="551.61"/>
      </g>
     </g>
     <g id="line2d_22">
      <g>
       <use style="stroke:#000000;stroke-width:0.5;" x="228.793028324" xlink:href="#m496f59a887" y="61.29"/>
      </g>
     </g>
    </g>
    <g id="xtick_7">
     <g id="line2d_23">
      <g>
       <use style="stroke:#000000;stroke-width:0.5;" x="258.538442735" xlink:href="#m17bb25ae8a" y="551.61"/>
      </g>
     </g>
     <g id="line2d_24">
      <g>
       <use style="stroke:#000000;stroke-width:0.5;" x="258.538442735" xlink:href="#m496f59a887" y="61.29"/>
      </g>
     </g>
    </g>
    <g id="xtick_8">
     <g id="line2d_25">
      <g>
       <use style="stroke:#000000;stroke-width:0.5;" x="281.610778632" xlink:href="#m17bb25ae8a" y="551.61"/>
      </g>
     </g>
     <g id="line2d_26">
      <g>
       <use style="stroke:#000000;stroke-width:0.5;" x="281.610778632" xlink:href="#m496f59a887" y="61.29"/>
      </g>
     </g>
    </g>
    <g id="xtick_9">
     <g id="line2d_27">
      <g>
       <use style="stroke:#000000;stroke-width:0.5;" x="300.462249691" xlink:href="#m17bb25ae8a" y="551.61"/>
      </g>
     </g>
     <g id="line2d_28">
      <g>
       <use style="stroke:#000000;stroke-width:0.5;" x="300.462249691" xlink:href="#m496f59a887" y="61.29"/>
      </g>
     </g>
    </g>
    <g id="xtick_10">
     <g id="line2d_29">
      <g>
       <use style="stroke:#000000;stroke-width:0.5;" x="316.400941367" xlink:href="#m17bb25ae8a" y="551.61"/>
      </g>
     </g>
     <g id="line2d_30">
      <g>
       <use style="stroke:#000000;stroke-width:0.5;" x="316.400941367" xlink:href="#m496f59a887" y="61.29"/>
      </g>
     </g>
    </g>
    <g id="xtick_11">
     <g id="line2d_31">
      <g>
       <use style="stroke:#000000;stroke-width:0.5;" x="330.207664103" xlink:href="#m17bb25ae8a" y="551.61"/>
      </g>
     </g>
     <g id="line2d_32">
      <g>
       <use style="stroke:#000000;stroke-width:0.5;" x="330.207664103" xlink:href="#m496f59a887" y="61.29"/>
      </g>
     </g>
    </g>
    <g id="xtick_12">
     <g id="line2d_33">
      <g>
       <use style="stroke:#000000;stroke-width:0.5;" x="342.386056647" xlink:href="#m17bb25ae8a" y="551.61"/>
      </g>
     </g>
     <g id="line2d_34">
      <g>
       <use style="stroke:#000000;stroke-width:0.5;" x="342.386056647" xlink:href="#m496f59a887" y="61.29"/>
      </g>
     </g>
    </g>
    <g id="xtick_13">
     <g id="line2d_35">
      <g>
       <use style="stroke:#000000;stroke-width:0.5;" x="424.949221368" xlink:href="#m17bb25ae8a" y="551.61"/>
      </g>
     </g>
     <g id="line2d_36">
      <g>
       <use style="stroke:#000000;stroke-width:0.5;" x="424.949221368" xlink:href="#m496f59a887" y="61.29"/>
      </g>
     </g>
    </g>
    <g id="xtick_14">
     <g id="line2d_37">
      <g>
       <use style="stroke:#000000;stroke-width:0.5;" x="466.873028324" xlink:href="#m17bb25ae8a" y="551.61"/>
      </g>
     </g>
     <g id="line2d_38">
      <g>
       <use style="stroke:#000000;stroke-width:0.5;" x="466.873028324" xlink:href="#m496f59a887" y="61.29"/>
      </g>
     </g>
    </g>
    <g id="xtick_15">
     <g id="line2d_39">
      <g>
       <use style="stroke:#000000;stroke-width:0.5;" x="496.618442735" xlink:href="#m17bb25ae8a" y="551.61"/>
      </g>
     </g>
     <g id="line2d_40">
      <g>
       <use style="stroke:#000000;stroke-width:0.5;" x="496.618442735" xlink:href="#m496f59a887" y="61.29"/>
      </g>
     </g>
    </g>
    <g id="xtick_16">
     <g id="line2d_41">
      <g>
       <use style="stroke:#000000;stroke-width:0.5;" x="519.690778632" xlink:href="#m17bb25ae8a" y="551.61"/>
      </g>
     </g>
     <g id="line2d_42">
      <g>
       <use style="stroke:#000000;stroke-width:0.5;" x="519.690778632" xlink:href="#m496f59a887" y="61.29"/>
      </g>
     </g>
    </g>
    <g id="xtick_17">
     <g id="line2d_43">
      <g>
       <use style="stroke:#000000;stroke-width:0.5;" x="538.542249691" xlink:href="#m17bb25ae8a" y="551.61"/>
      </g>
     </g>
     <g id="line2d_44">
      <g>
       <use style="stroke:#000000;stroke-width:0.5;" x="538.542249691" xlink:href="#m496f59a887" y="61.29"/>
      </g>
     </g>
    </g>
    <g id="xtick_18">
     <g id="line2d_45">
      <g>
       <use style="stroke:#000000;stroke-width:0.5;" x="554.480941367" xlink:href="#m17bb25ae8a" y="551.61"/>
      </g>
     </g>
     <g id="line2d_46">
      <g>
       <use style="stroke:#000000;stroke-width:0.5;" x="554.480941367" xlink:href="#m496f59a887" y="61.29"/>
      </g>
     </g>
    </g>
    <g id="xtick_19">
     <g id="line2d_47">
      <g>
       <use style="stroke:#000000;stroke-width:0.5;" x="568.287664103" xlink:href="#m17bb25ae8a" y="551.61"/>
      </g>
     </g>
     <g id="line2d_48">
      <g>
       <use style="stroke:#000000;stroke-width:0.5;" x="568.287664103" xlink:href="#m496f59a887" y="61.29"/>
      </g>
     </g>
    </g>
    <g id="xtick_20">
     <g id="line2d_49">
      <g>
       <use style="stroke:#000000;stroke-width:0.5;" x="580.466056647" xlink:href="#m17bb25ae8a" y="551.61"/>
      </g>
     </g>
     <g id="line2d_50">
      <g>
       <use style="stroke:#000000;stroke-width:0.5;" x="580.466056647" xlink:href="#m496f59a887" y="61.29"/>
      </g>
     </g>
    </g>
    <g id="xtick_21">
     <g id="line2d_51">
      <g>
       <use style="stroke:#000000;stroke-width:0.5;" x="663.029221368" xlink:href="#m17bb25ae8a" y="551.61"/>
      </g>
     </g>
     <g id="line2d_52">
      <g>
       <use style="stroke:#000000;stroke-width:0.5;" x="663.029221368" xlink:href="#m496f59a887" y="61.29"/>
      </g>
     </g>
    </g>
    <g id="xtick_22">
     <g id="line2d_53">
      <g>
       <use style="stroke:#000000;stroke-width:0.5;" x="704.953028324" xlink:href="#m17bb25ae8a" y="551.61"/>
      </g>
     </g>
     <g id="line2d_54">
      <g>
       <use style="stroke:#000000;stroke-width:0.5;" x="704.953028324" xlink:href="#m496f59a887" y="61.29"/>
      </g>
     </g>
    </g>
    <g id="xtick_23">
     <g id="line2d_55">
      <g>
       <use style="stroke:#000000;stroke-width:0.5;" x="734.698442735" xlink:href="#m17bb25ae8a" y="551.61"/>
      </g>
     </g>
     <g id="line2d_56">
      <g>
       <use style="stroke:#000000;stroke-width:0.5;" x="734.698442735" xlink:href="#m496f59a887" y="61.29"/>
      </g>
     </g>
    </g>
    <g id="xtick_24">
     <g id="line2d_57">
      <g>
       <use style="stroke:#000000;stroke-width:0.5;" x="757.770778632" xlink:href="#m17bb25ae8a" y="551.61"/>
      </g>
     </g>
     <g id="line2d_58">
      <g>
       <use style="stroke:#000000;stroke-width:0.5;" x="757.770778632" xlink:href="#m496f59a887" y="61.29"/>
      </g>
     </g>
    </g>
    <g id="xtick_25">
     <g id="line2d_59">
      <g>
       <use style="stroke:#000000;stroke-width:0.5;" x="776.622249691" xlink:href="#m17bb25ae8a" y="551.61"/>
      </g>
     </g>
     <g id="line2d_60">
      <g>
       <use style="stroke:#000000;stroke-width:0.5;" x="776.622249691" xlink:href="#m496f59a887" y="61.29"/>
      </g>
     </g>
    </g>
    <g id="xtick_26">
     <g id="line2d_61">
      <g>
       <use style="stroke:#000000;stroke-width:0.5;" x="792.560941367" xlink:href="#m17bb25ae8a" y="551.61"/>
      </g>
     </g>
     <g id="line2d_62">
      <g>
       <use style="stroke:#000000;stroke-width:0.5;" x="792.560941367" xlink:href="#m496f59a887" y="61.29"/>
      </g>
     </g>
    </g>
    <g id="xtick_27">
     <g id="line2d_63">
      <g>
       <use style="stroke:#000000;stroke-width:0.5;" x="806.367664103" xlink:href="#m17bb25ae8a" y="551.61"/>
      </g>
     </g>
     <g id="line2d_64">
      <g>
       <use style="stroke:#000000;stroke-width:0.5;" x="806.367664103" xlink:href="#m496f59a887" y="61.29"/>
      </g>
     </g>
    </g>
    <g id="xtick_28">
     <g id="line2d_65">
      <g>
       <use style="stroke:#000000;stroke-width:0.5;" x="818.546056647" xlink:href="#m17bb25ae8a" y="551.61"/>
      </g>
     </g>
     <g id="line2d_66">
      <g>
       <use style="stroke:#000000;stroke-width:0.5;" x="818.546056647" xlink:href="#m496f59a887" y="61.29"/>
      </g>
     </g>
    </g>
    <g id="text_5">
     <!-- Frequency [kHz] -->
     <defs>
      <path d="M 9.078125 75.984375 
L 18.109375 75.984375 
L 18.109375 31.109375 
L 44.921875 54.6875 
L 56.390625 54.6875 
L 27.390625 29.109375 
L 57.625 0 
L 45.90625 0 
L 18.109375 26.703125 
L 18.109375 0 
L 9.078125 0 
z
" id="BitstreamVeraSans-Roman-6b"/>
      <path d="M 56.203125 29.59375 
L 56.203125 25.203125 
L 14.890625 25.203125 
Q 15.484375 15.921875 20.484375 11.0625 
Q 25.484375 6.203125 34.421875 6.203125 
Q 39.59375 6.203125 44.453125 7.46875 
Q 49.3125 8.734375 54.109375 11.28125 
L 54.109375 2.78125 
Q 49.265625 0.734375 44.1875 -0.34375 
Q 39.109375 -1.421875 33.890625 -1.421875 
Q 20.796875 -1.421875 13.15625 6.1875 
Q 5.515625 13.8125 5.515625 26.8125 
Q 5.515625 40.234375 12.765625 48.109375 
Q 20.015625 56 32.328125 56 
Q 43.359375 56 49.78125 48.890625 
Q 56.203125 41.796875 56.203125 29.59375 
M 47.21875 32.234375 
Q 47.125 39.59375 43.09375 43.984375 
Q 39.0625 48.390625 32.421875 48.390625 
Q 24.90625 48.390625 20.390625 44.140625 
Q 15.875 39.890625 15.1875 32.171875 
z
" id="BitstreamVeraSans-Roman-65"/>
      <path d="M 9.8125 72.90625 
L 51.703125 72.90625 
L 51.703125 64.59375 
L 19.671875 64.59375 
L 19.671875 43.109375 
L 48.578125 43.109375 
L 48.578125 34.8125 
L 19.671875 34.8125 
L 19.671875 0 
L 9.8125 0 
z
" id="BitstreamVeraSans-Roman-46"/>
      <path d="M 48.78125 52.59375 
L 48.78125 44.1875 
Q 44.96875 46.296875 41.140625 47.34375 
Q 37.3125 48.390625 33.40625 48.390625 
Q 24.65625 48.390625 19.8125 42.84375 
Q 14.984375 37.3125 14.984375 27.296875 
Q 14.984375 17.28125 19.8125 11.734375 
Q 24.65625 6.203125 33.40625 6.203125 
Q 37.3125 6.203125 41.140625 7.25 
Q 44.96875 8.296875 48.78125 10.40625 
L 48.78125 2.09375 
Q 45.015625 0.34375 40.984375 -0.53125 
Q 36.96875 -1.421875 32.421875 -1.421875 
Q 20.0625 -1.421875 12.78125 6.34375 
Q 5.515625 14.109375 5.515625 27.296875 
Q 5.515625 40.671875 12.859375 48.328125 
Q 20.21875 56 33.015625 56 
Q 37.15625 56 41.109375 55.140625 
Q 45.0625 54.296875 48.78125 52.59375 
" id="BitstreamVeraSans-Roman-63"/>
      <path d="M 9.8125 72.90625 
L 19.671875 72.90625 
L 19.671875 43.015625 
L 55.515625 43.015625 
L 55.515625 72.90625 
L 65.375 72.90625 
L 65.375 0 
L 55.515625 0 
L 55.515625 34.71875 
L 19.671875 34.71875 
L 19.671875 0 
L 9.8125 0 
z
" id="BitstreamVeraSans-Roman-48"/>
      <path d="M 14.796875 27.296875 
Q 14.796875 17.390625 18.875 11.75 
Q 22.953125 6.109375 30.078125 6.109375 
Q 37.203125 6.109375 41.296875 11.75 
Q 45.40625 17.390625 45.40625 27.296875 
Q 45.40625 37.203125 41.296875 42.84375 
Q 37.203125 48.484375 30.078125 48.484375 
Q 22.953125 48.484375 18.875 42.84375 
Q 14.796875 37.203125 14.796875 27.296875 
M 45.40625 8.203125 
Q 42.578125 3.328125 38.25 0.953125 
Q 33.9375 -1.421875 27.875 -1.421875 
Q 17.96875 -1.421875 11.734375 6.484375 
Q 5.515625 14.40625 5.515625 27.296875 
Q 5.515625 40.1875 11.734375 48.09375 
Q 17.96875 56 27.875 56 
Q 33.9375 56 38.25 53.625 
Q 42.578125 51.265625 45.40625 46.390625 
L 45.40625 54.6875 
L 54.390625 54.6875 
L 54.390625 -20.796875 
L 45.40625 -20.796875 
z
" id="BitstreamVeraSans-Roman-71"/>
      <path d="M 54.890625 33.015625 
L 54.890625 0 
L 45.90625 0 
L 45.90625 32.71875 
Q 45.90625 40.484375 42.875 44.328125 
Q 39.84375 48.1875 33.796875 48.1875 
Q 26.515625 48.1875 22.3125 43.546875 
Q 18.109375 38.921875 18.109375 30.90625 
L 18.109375 0 
L 9.078125 0 
L 9.078125 54.6875 
L 18.109375 54.6875 
L 18.109375 46.1875 
Q 21.34375 51.125 25.703125 53.5625 
Q 30.078125 56 35.796875 56 
Q 45.21875 56 50.046875 50.171875 
Q 54.890625 44.34375 54.890625 33.015625 
" id="BitstreamVeraSans-Roman-6e"/>
      <path d="M 41.109375 46.296875 
Q 39.59375 47.171875 37.8125 47.578125 
Q 36.03125 48 33.890625 48 
Q 26.265625 48 22.1875 43.046875 
Q 18.109375 38.09375 18.109375 28.8125 
L 18.109375 0 
L 9.078125 0 
L 9.078125 54.6875 
L 18.109375 54.6875 
L 18.109375 46.1875 
Q 20.953125 51.171875 25.484375 53.578125 
Q 30.03125 56 36.53125 56 
Q 37.453125 56 38.578125 55.875 
Q 39.703125 55.765625 41.0625 55.515625 
z
" id="BitstreamVeraSans-Roman-72"/>
      <path d="M 32.171875 -5.078125 
Q 28.375 -14.84375 24.75 -17.8125 
Q 21.140625 -20.796875 15.09375 -20.796875 
L 7.90625 -20.796875 
L 7.90625 -13.28125 
L 13.1875 -13.28125 
Q 16.890625 -13.28125 18.9375 -11.515625 
Q 21 -9.765625 23.484375 -3.21875 
L 25.09375 0.875 
L 2.984375 54.6875 
L 12.5 54.6875 
L 29.59375 11.921875 
L 46.6875 54.6875 
L 56.203125 54.6875 
z
" id="BitstreamVeraSans-Roman-79"/>
      <path d="M 8.59375 75.984375 
L 29.296875 75.984375 
L 29.296875 69 
L 17.578125 69 
L 17.578125 -6.203125 
L 29.296875 -6.203125 
L 29.296875 -13.1875 
L 8.59375 -13.1875 
z
" id="BitstreamVeraSans-Roman-5b"/>
      <path d="M 30.421875 75.984375 
L 30.421875 -13.1875 
L 9.71875 -13.1875 
L 9.71875 -6.203125 
L 21.390625 -6.203125 
L 21.390625 69 
L 9.71875 69 
L 9.71875 75.984375 
z
" id="BitstreamVeraSans-Roman-5d"/>
      <path d="M 5.515625 54.6875 
L 48.1875 54.6875 
L 48.1875 46.484375 
L 14.40625 7.171875 
L 48.1875 7.171875 
L 48.1875 0 
L 4.296875 0 
L 4.296875 8.203125 
L 38.09375 47.515625 
L 5.515625 47.515625 
z
" id="BitstreamVeraSans-Roman-7a"/>
      <path id="BitstreamVeraSans-Roman-20"/>
      <path d="M 8.5 21.578125 
L 8.5 54.6875 
L 17.484375 54.6875 
L 17.484375 21.921875 
Q 17.484375 14.15625 20.5 10.265625 
Q 23.53125 6.390625 29.59375 6.390625 
Q 36.859375 6.390625 41.078125 11.03125 
Q 45.3125 15.671875 45.3125 23.6875 
L 45.3125 54.6875 
L 54.296875 54.6875 
L 54.296875 0 
L 45.3125 0 
L 45.3125 8.40625 
Q 42.046875 3.421875 37.71875 1 
Q 33.40625 -1.421875 27.6875 -1.421875 
Q 18.265625 -1.421875 13.375 4.4375 
Q 8.5 10.296875 8.5 21.578125 
" id="BitstreamVeraSans-Roman-75"/>
     </defs>
     <g transform="translate(423.0384375 581.968125)scale(0.12 -0.12)">
      <use xlink:href="#BitstreamVeraSans-Roman-46"/>
      <use x="57.41015625" xlink:href="#BitstreamVeraSans-Roman-72"/>
      <use x="98.4921875" xlink:href="#BitstreamVeraSans-Roman-65"/>
      <use x="160.015625" xlink:href="#BitstreamVeraSans-Roman-71"/>
      <use x="223.4921875" xlink:href="#BitstreamVeraSans-Roman-75"/>
      <use x="286.87109375" xlink:href="#BitstreamVeraSans-Roman-65"/>
      <use x="348.39453125" xlink:href="#BitstreamVeraSans-Roman-6e"/>
      <use x="411.7734375" xlink:href="#BitstreamVeraSans-Roman-63"/>
      <use x="466.75390625" xlink:href="#BitstreamVeraSans-Roman-79"/>
      <use x="525.93359375" xlink:href="#BitstreamVeraSans-Roman-20"/>
      <use x="557.720703125" xlink:href="#BitstreamVeraSans-Roman-5b"/>
      <use x="596.734375" xlink:href="#BitstreamVeraSans-Roman-6b"/>
      <use x="654.64453125" xlink:href="#BitstreamVeraSans-Roman-48"/>
      <use x="729.83984375" xlink:href="#BitstreamVeraSans-Roman-7a"/>
      <use x="782.330078125" xlink:href="#BitstreamVeraSans-Roman-5d"/>
     </g>
    </g>
   </g>
   <g id="matplotlib.axis_2">
    <g id="ytick_1">
     <g id="line2d_67">
      <defs>
       <path d="M 0 0 
L 4 0 
" id="m406d3b99e6" style="stroke:#000000;stroke-width:0.5;"/>
      </defs>
      <g>
       <use style="stroke:#000000;stroke-width:0.5;" x="115.2" xlink:href="#m406d3b99e6" y="551.61"/>
      </g>
     </g>
     <g id="line2d_68">
      <defs>
       <path d="M 0 0 
L -4 0 
" id="mf6b5d620c0" style="stroke:#000000;stroke-width:0.5;"/>
      </defs>
      <g>
       <use style="stroke:#000000;stroke-width:0.5;" x="829.44" xlink:href="#mf6b5d620c0" y="551.61"/>
      </g>
     </g>
     <g id="text_6">
      <!-- 8 -->
      <defs>
       <path d="M 10.59375 35.5 
L 73.1875 35.5 
L 73.1875 27.203125 
L 10.59375 27.203125 
z
" id="BitstreamVeraSans-Roman-2212"/>
       <path d="M 31.78125 34.625 
Q 24.75 34.625 20.71875 30.859375 
Q 16.703125 27.09375 16.703125 20.515625 
Q 16.703125 13.921875 20.71875 10.15625 
Q 24.75 6.390625 31.78125 6.390625 
Q 38.8125 6.390625 42.859375 10.171875 
Q 46.921875 13.96875 46.921875 20.515625 
Q 46.921875 27.09375 42.890625 30.859375 
Q 38.875 34.625 31.78125 34.625 
M 21.921875 38.8125 
Q 15.578125 40.375 12.03125 44.71875 
Q 8.5 49.078125 8.5 55.328125 
Q 8.5 64.0625 14.71875 69.140625 
Q 20.953125 74.21875 31.78125 74.21875 
Q 42.671875 74.21875 48.875 69.140625 
Q 55.078125 64.0625 55.078125 55.328125 
Q 55.078125 49.078125 51.53125 44.71875 
Q 48 40.375 41.703125 38.8125 
Q 48.828125 37.15625 52.796875 32.3125 
Q 56.78125 27.484375 56.78125 20.515625 
Q 56.78125 9.90625 50.3125 4.234375 
Q 43.84375 -1.421875 31.78125 -1.421875 
Q 19.734375 -1.421875 13.25 4.234375 
Q 6.78125 9.90625 6.78125 20.515625 
Q 6.78125 27.484375 10.78125 32.3125 
Q 14.796875 37.15625 21.921875 38.8125 
M 18.3125 54.390625 
Q 18.3125 48.734375 21.84375 45.5625 
Q 25.390625 42.390625 31.78125 42.390625 
Q 38.140625 42.390625 41.71875 45.5625 
Q 45.3125 48.734375 45.3125 54.390625 
Q 45.3125 60.0625 41.71875 63.234375 
Q 38.140625 66.40625 31.78125 66.40625 
Q 25.390625 66.40625 21.84375 63.234375 
Q 18.3125 60.0625 18.3125 54.390625 
" id="BitstreamVeraSans-Roman-38"/>
      </defs>
      <g transform="translate(93.509375 554.92125)scale(0.12 -0.12)">
       <use xlink:href="#BitstreamVeraSans-Roman-2212"/>
       <use x="83.7890625" xlink:href="#BitstreamVeraSans-Roman-38"/>
      </g>
     </g>
    </g>
    <g id="ytick_2">
     <g id="line2d_69">
      <g>
       <use style="stroke:#000000;stroke-width:0.5;" x="115.2" xlink:href="#m406d3b99e6" y="497.13"/>
      </g>
     </g>
     <g id="line2d_70">
      <g>
       <use style="stroke:#000000;stroke-width:0.5;" x="829.44" xlink:href="#mf6b5d620c0" y="497.13"/>
      </g>
     </g>
     <g id="text_7">
      <!-- 7 -->
      <defs>
       <path d="M 8.203125 72.90625 
L 55.078125 72.90625 
L 55.078125 68.703125 
L 28.609375 0 
L 18.3125 0 
L 43.21875 64.59375 
L 8.203125 64.59375 
z
" id="BitstreamVeraSans-Roman-37"/>
      </defs>
      <g transform="translate(93.509375 500.44125)scale(0.12 -0.12)">
       <use xlink:href="#BitstreamVeraSans-Roman-2212"/>
       <use x="83.7890625" xlink:href="#BitstreamVeraSans-Roman-37"/>
      </g>
     </g>
    </g>
    <g id="ytick_3">
     <g id="line2d_71">
      <g>
       <use style="stroke:#000000;stroke-width:0.5;" x="115.2" xlink:href="#m406d3b99e6" y="442.65"/>
      </g>
     </g>
     <g id="line2d_72">
      <g>
       <use style="stroke:#000000;stroke-width:0.5;" x="829.44" xlink:href="#mf6b5d620c0" y="442.65"/>
      </g>
     </g>
     <g id="text_8">
      <!-- 6 -->
      <defs>
       <path d="M 33.015625 40.375 
Q 26.375 40.375 22.484375 35.828125 
Q 18.609375 31.296875 18.609375 23.390625 
Q 18.609375 15.53125 22.484375 10.953125 
Q 26.375 6.390625 33.015625 6.390625 
Q 39.65625 6.390625 43.53125 10.953125 
Q 47.40625 15.53125 47.40625 23.390625 
Q 47.40625 31.296875 43.53125 35.828125 
Q 39.65625 40.375 33.015625 40.375 
M 52.59375 71.296875 
L 52.59375 62.3125 
Q 48.875 64.0625 45.09375 64.984375 
Q 41.3125 65.921875 37.59375 65.921875 
Q 27.828125 65.921875 22.671875 59.328125 
Q 17.53125 52.734375 16.796875 39.40625 
Q 19.671875 43.65625 24.015625 45.921875 
Q 28.375 48.1875 33.59375 48.1875 
Q 44.578125 48.1875 50.953125 41.515625 
Q 57.328125 34.859375 57.328125 23.390625 
Q 57.328125 12.15625 50.6875 5.359375 
Q 44.046875 -1.421875 33.015625 -1.421875 
Q 20.359375 -1.421875 13.671875 8.265625 
Q 6.984375 17.96875 6.984375 36.375 
Q 6.984375 53.65625 15.1875 63.9375 
Q 23.390625 74.21875 37.203125 74.21875 
Q 40.921875 74.21875 44.703125 73.484375 
Q 48.484375 72.75 52.59375 71.296875 
" id="BitstreamVeraSans-Roman-36"/>
      </defs>
      <g transform="translate(93.509375 445.96125)scale(0.12 -0.12)">
       <use xlink:href="#BitstreamVeraSans-Roman-2212"/>
       <use x="83.7890625" xlink:href="#BitstreamVeraSans-Roman-36"/>
      </g>
     </g>
    </g>
    <g id="ytick_4">
     <g id="line2d_73">
      <g>
       <use style="stroke:#000000;stroke-width:0.5;" x="115.2" xlink:href="#m406d3b99e6" y="388.17"/>
      </g>
     </g>
     <g id="line2d_74">
      <g>
       <use style="stroke:#000000;stroke-width:0.5;" x="829.44" xlink:href="#mf6b5d620c0" y="388.17"/>
      </g>
     </g>
     <g id="text_9">
      <!-- 5 -->
      <defs>
       <path d="M 10.796875 72.90625 
L 49.515625 72.90625 
L 49.515625 64.59375 
L 19.828125 64.59375 
L 19.828125 46.734375 
Q 21.96875 47.46875 24.109375 47.828125 
Q 26.265625 48.1875 28.421875 48.1875 
Q 40.625 48.1875 47.75 41.5 
Q 54.890625 34.8125 54.890625 23.390625 
Q 54.890625 11.625 47.5625 5.09375 
Q 40.234375 -1.421875 26.90625 -1.421875 
Q 22.3125 -1.421875 17.546875 -0.640625 
Q 12.796875 0.140625 7.71875 1.703125 
L 7.71875 11.625 
Q 12.109375 9.234375 16.796875 8.0625 
Q 21.484375 6.890625 26.703125 6.890625 
Q 35.15625 6.890625 40.078125 11.328125 
Q 45.015625 15.765625 45.015625 23.390625 
Q 45.015625 31 40.078125 35.4375 
Q 35.15625 39.890625 26.703125 39.890625 
Q 22.75 39.890625 18.8125 39.015625 
Q 14.890625 38.140625 10.796875 36.28125 
z
" id="BitstreamVeraSans-Roman-35"/>
      </defs>
      <g transform="translate(93.509375 391.48125)scale(0.12 -0.12)">
       <use xlink:href="#BitstreamVeraSans-Roman-2212"/>
       <use x="83.7890625" xlink:href="#BitstreamVeraSans-Roman-35"/>
      </g>
     </g>
    </g>
    <g id="ytick_5">
     <g id="line2d_75">
      <g>
       <use style="stroke:#000000;stroke-width:0.5;" x="115.2" xlink:href="#m406d3b99e6" y="333.69"/>
      </g>
     </g>
     <g id="line2d_76">
      <g>
       <use style="stroke:#000000;stroke-width:0.5;" x="829.44" xlink:href="#mf6b5d620c0" y="333.69"/>
      </g>
     </g>
     <g id="text_10">
      <!-- 4 -->
      <defs>
       <path d="M 37.796875 64.3125 
L 12.890625 25.390625 
L 37.796875 25.390625 
z
M 35.203125 72.90625 
L 47.609375 72.90625 
L 47.609375 25.390625 
L 58.015625 25.390625 
L 58.015625 17.1875 
L 47.609375 17.1875 
L 47.609375 0 
L 37.796875 0 
L 37.796875 17.1875 
L 4.890625 17.1875 
L 4.890625 26.703125 
z
" id="BitstreamVeraSans-Roman-34"/>
      </defs>
      <g transform="translate(93.509375 337.00125)scale(0.12 -0.12)">
       <use xlink:href="#BitstreamVeraSans-Roman-2212"/>
       <use x="83.7890625" xlink:href="#BitstreamVeraSans-Roman-34"/>
      </g>
     </g>
    </g>
    <g id="ytick_6">
     <g id="line2d_77">
      <g>
       <use style="stroke:#000000;stroke-width:0.5;" x="115.2" xlink:href="#m406d3b99e6" y="279.21"/>
      </g>
     </g>
     <g id="line2d_78">
      <g>
       <use style="stroke:#000000;stroke-width:0.5;" x="829.44" xlink:href="#mf6b5d620c0" y="279.21"/>
      </g>
     </g>
     <g id="text_11">
      <!-- 3 -->
      <g transform="translate(93.509375 282.52125)scale(0.12 -0.12)">
       <use xlink:href="#BitstreamVeraSans-Roman-2212"/>
       <use x="83.7890625" xlink:href="#BitstreamVeraSans-Roman-33"/>
      </g>
     </g>
    </g>
    <g id="ytick_7">
     <g id="line2d_79">
      <g>
       <use style="stroke:#000000;stroke-width:0.5;" x="115.2" xlink:href="#m406d3b99e6" y="224.73"/>
      </g>
     </g>
     <g id="line2d_80">
      <g>
       <use style="stroke:#000000;stroke-width:0.5;" x="829.44" xlink:href="#mf6b5d620c0" y="224.73"/>
      </g>
     </g>
     <g id="text_12">
      <!-- 2 -->
      <g transform="translate(93.509375 228.04125)scale(0.12 -0.12)">
       <use xlink:href="#BitstreamVeraSans-Roman-2212"/>
       <use x="83.7890625" xlink:href="#BitstreamVeraSans-Roman-32"/>
      </g>
     </g>
    </g>
    <g id="ytick_8">
     <g id="line2d_81">
      <g>
       <use style="stroke:#000000;stroke-width:0.5;" x="115.2" xlink:href="#m406d3b99e6" y="170.25"/>
      </g>
     </g>
     <g id="line2d_82">
      <g>
       <use style="stroke:#000000;stroke-width:0.5;" x="829.44" xlink:href="#mf6b5d620c0" y="170.25"/>
      </g>
     </g>
     <g id="text_13">
      <!-- 1 -->
      <g transform="translate(93.509375 173.56125)scale(0.12 -0.12)">
       <use xlink:href="#BitstreamVeraSans-Roman-2212"/>
       <use x="83.7890625" xlink:href="#BitstreamVeraSans-Roman-31"/>
      </g>
     </g>
    </g>
    <g id="ytick_9">
     <g id="line2d_83">
      <g>
       <use style="stroke:#000000;stroke-width:0.5;" x="115.2" xlink:href="#m406d3b99e6" y="115.77"/>
      </g>
     </g>
     <g id="line2d_84">
      <g>
       <use style="stroke:#000000;stroke-width:0.5;" x="829.44" xlink:href="#mf6b5d620c0" y="115.77"/>
      </g>
     </g>
     <g id="text_14">
      <!-- 0 -->
      <g transform="translate(103.565 119.08125)scale(0.12 -0.12)">
       <use xlink:href="#BitstreamVeraSans-Roman-30"/>
      </g>
     </g>
    </g>
    <g id="ytick_10">
     <g id="line2d_85">
      <g>
       <use style="stroke:#000000;stroke-width:0.5;" x="115.2" xlink:href="#m406d3b99e6" y="61.29"/>
      </g>
     </g>
     <g id="line2d_86">
      <g>
       <use style="stroke:#000000;stroke-width:0.5;" x="829.44" xlink:href="#mf6b5d620c0" y="61.29"/>
      </g>
     </g>
     <g id="text_15">
      <!-- 1 -->
      <g transform="translate(103.565 64.60125)scale(0.12 -0.12)">
       <use xlink:href="#BitstreamVeraSans-Roman-31"/>
      </g>
     </g>
    </g>
    <g id="text_16">
     <!-- Phase [rad] -->
     <defs>
      <path d="M 44.28125 53.078125 
L 44.28125 44.578125 
Q 40.484375 46.53125 36.375 47.5 
Q 32.28125 48.484375 27.875 48.484375 
Q 21.1875 48.484375 17.84375 46.4375 
Q 14.5 44.390625 14.5 40.28125 
Q 14.5 37.15625 16.890625 35.375 
Q 19.28125 33.59375 26.515625 31.984375 
L 29.59375 31.296875 
Q 39.15625 29.25 43.1875 25.515625 
Q 47.21875 21.78125 47.21875 15.09375 
Q 47.21875 7.46875 41.1875 3.015625 
Q 35.15625 -1.421875 24.609375 -1.421875 
Q 20.21875 -1.421875 15.453125 -0.5625 
Q 10.6875 0.296875 5.421875 2 
L 5.421875 11.28125 
Q 10.40625 8.6875 15.234375 7.390625 
Q 20.0625 6.109375 24.8125 6.109375 
Q 31.15625 6.109375 34.5625 8.28125 
Q 37.984375 10.453125 37.984375 14.40625 
Q 37.984375 18.0625 35.515625 20.015625 
Q 33.0625 21.96875 24.703125 23.78125 
L 21.578125 24.515625 
Q 13.234375 26.265625 9.515625 29.90625 
Q 5.8125 33.546875 5.8125 39.890625 
Q 5.8125 47.609375 11.28125 51.796875 
Q 16.75 56 26.8125 56 
Q 31.78125 56 36.171875 55.265625 
Q 40.578125 54.546875 44.28125 53.078125 
" id="BitstreamVeraSans-Roman-73"/>
      <path d="M 45.40625 46.390625 
L 45.40625 75.984375 
L 54.390625 75.984375 
L 54.390625 0 
L 45.40625 0 
L 45.40625 8.203125 
Q 42.578125 3.328125 38.25 0.953125 
Q 33.9375 -1.421875 27.875 -1.421875 
Q 17.96875 -1.421875 11.734375 6.484375 
Q 5.515625 14.40625 5.515625 27.296875 
Q 5.515625 40.1875 11.734375 48.09375 
Q 17.96875 56 27.875 56 
Q 33.9375 56 38.25 53.625 
Q 42.578125 51.265625 45.40625 46.390625 
M 14.796875 27.296875 
Q 14.796875 17.390625 18.875 11.75 
Q 22.953125 6.109375 30.078125 6.109375 
Q 37.203125 6.109375 41.296875 11.75 
Q 45.40625 17.390625 45.40625 27.296875 
Q 45.40625 37.203125 41.296875 42.84375 
Q 37.203125 48.484375 30.078125 48.484375 
Q 22.953125 48.484375 18.875 42.84375 
Q 14.796875 37.203125 14.796875 27.296875 
" id="BitstreamVeraSans-Roman-64"/>
      <path d="M 54.890625 33.015625 
L 54.890625 0 
L 45.90625 0 
L 45.90625 32.71875 
Q 45.90625 40.484375 42.875 44.328125 
Q 39.84375 48.1875 33.796875 48.1875 
Q 26.515625 48.1875 22.3125 43.546875 
Q 18.109375 38.921875 18.109375 30.90625 
L 18.109375 0 
L 9.078125 0 
L 9.078125 75.984375 
L 18.109375 75.984375 
L 18.109375 46.1875 
Q 21.34375 51.125 25.703125 53.5625 
Q 30.078125 56 35.796875 56 
Q 45.21875 56 50.046875 50.171875 
Q 54.890625 44.34375 54.890625 33.015625 
" id="BitstreamVeraSans-Roman-68"/>
      <path d="M 34.28125 27.484375 
Q 23.390625 27.484375 19.1875 25 
Q 14.984375 22.515625 14.984375 16.5 
Q 14.984375 11.71875 18.140625 8.90625 
Q 21.296875 6.109375 26.703125 6.109375 
Q 34.1875 6.109375 38.703125 11.40625 
Q 43.21875 16.703125 43.21875 25.484375 
L 43.21875 27.484375 
z
M 52.203125 31.203125 
L 52.203125 0 
L 43.21875 0 
L 43.21875 8.296875 
Q 40.140625 3.328125 35.546875 0.953125 
Q 30.953125 -1.421875 24.3125 -1.421875 
Q 15.921875 -1.421875 10.953125 3.296875 
Q 6 8.015625 6 15.921875 
Q 6 25.140625 12.171875 29.828125 
Q 18.359375 34.515625 30.609375 34.515625 
L 43.21875 34.515625 
L 43.21875 35.40625 
Q 43.21875 41.609375 39.140625 45 
Q 35.0625 48.390625 27.6875 48.390625 
Q 23 48.390625 18.546875 47.265625 
Q 14.109375 46.140625 10.015625 43.890625 
L 10.015625 52.203125 
Q 14.9375 54.109375 19.578125 55.046875 
Q 24.21875 56 28.609375 56 
Q 40.484375 56 46.34375 49.84375 
Q 52.203125 43.703125 52.203125 31.203125 
" id="BitstreamVeraSans-Roman-61"/>
      <path d="M 19.671875 64.796875 
L 19.671875 37.40625 
L 32.078125 37.40625 
Q 38.96875 37.40625 42.71875 40.96875 
Q 46.484375 44.53125 46.484375 51.125 
Q 46.484375 57.671875 42.71875 61.234375 
Q 38.96875 64.796875 32.078125 64.796875 
z
M 9.8125 72.90625 
L 32.078125 72.90625 
Q 44.34375 72.90625 50.609375 67.359375 
Q 56.890625 61.8125 56.890625 51.125 
Q 56.890625 40.328125 50.609375 34.8125 
Q 44.34375 29.296875 32.078125 29.296875 
L 19.671875 29.296875 
L 19.671875 0 
L 9.8125 0 
z
" id="BitstreamVeraSans-Roman-50"/>
     </defs>
     <g transform="translate(86.01375 340.9059375)rotate(-90.0)scale(0.12 -0.12)">
      <use xlink:href="#BitstreamVeraSans-Roman-50"/>
      <use x="60.302734375" xlink:href="#BitstreamVeraSans-Roman-68"/>
      <use x="123.681640625" xlink:href="#BitstreamVeraSans-Roman-61"/>
      <use x="184.9609375" xlink:href="#BitstreamVeraSans-Roman-73"/>
      <use x="237.060546875" xlink:href="#BitstreamVeraSans-Roman-65"/>
      <use x="298.583984375" xlink:href="#BitstreamVeraSans-Roman-20"/>
      <use x="330.37109375" xlink:href="#BitstreamVeraSans-Roman-5b"/>
      <use x="369.384765625" xlink:href="#BitstreamVeraSans-Roman-72"/>
      <use x="410.498046875" xlink:href="#BitstreamVeraSans-Roman-61"/>
      <use x="471.77734375" xlink:href="#BitstreamVeraSans-Roman-64"/>
      <use x="535.25390625" xlink:href="#BitstreamVeraSans-Roman-5d"/>
     </g>
    </g>
   </g>
   <g id="text_17">
    <!-- Phase Curve for 20 Hz MFR and 4.5 MOhm -->
    <defs>
     <path d="M 37.109375 75.984375 
L 37.109375 68.5 
L 28.515625 68.5 
Q 23.6875 68.5 21.796875 66.546875 
Q 19.921875 64.59375 19.921875 59.515625 
L 19.921875 54.6875 
L 34.71875 54.6875 
L 34.71875 47.703125 
L 19.921875 47.703125 
L 19.921875 0 
L 10.890625 0 
L 10.890625 47.703125 
L 2.296875 47.703125 
L 2.296875 54.6875 
L 10.890625 54.6875 
L 10.890625 58.5 
Q 10.890625 67.625 15.140625 71.796875 
Q 19.390625 75.984375 28.609375 75.984375 
z
" id="BitstreamVeraSans-Roman-66"/>
     <path d="M 10.6875 12.40625 
L 21 12.40625 
L 21 0 
L 10.6875 0 
z
" id="BitstreamVeraSans-Roman-2e"/>
     <path d="M 39.40625 66.21875 
Q 28.65625 66.21875 22.328125 58.203125 
Q 16.015625 50.203125 16.015625 36.375 
Q 16.015625 22.609375 22.328125 14.59375 
Q 28.65625 6.59375 39.40625 6.59375 
Q 50.140625 6.59375 56.421875 14.59375 
Q 62.703125 22.609375 62.703125 36.375 
Q 62.703125 50.203125 56.421875 58.203125 
Q 50.140625 66.21875 39.40625 66.21875 
M 39.40625 74.21875 
Q 54.734375 74.21875 63.90625 63.9375 
Q 73.09375 53.65625 73.09375 36.375 
Q 73.09375 19.140625 63.90625 8.859375 
Q 54.734375 -1.421875 39.40625 -1.421875 
Q 24.03125 -1.421875 14.8125 8.828125 
Q 5.609375 19.09375 5.609375 36.375 
Q 5.609375 53.65625 14.8125 63.9375 
Q 24.03125 74.21875 39.40625 74.21875 
" id="BitstreamVeraSans-Roman-4f"/>
     <path d="M 52 44.1875 
Q 55.375 50.25 60.0625 53.125 
Q 64.75 56 71.09375 56 
Q 79.640625 56 84.28125 50.015625 
Q 88.921875 44.046875 88.921875 33.015625 
L 88.921875 0 
L 79.890625 0 
L 79.890625 32.71875 
Q 79.890625 40.578125 77.09375 44.375 
Q 74.3125 48.1875 68.609375 48.1875 
Q 61.625 48.1875 57.5625 43.546875 
Q 53.515625 38.921875 53.515625 30.90625 
L 53.515625 0 
L 44.484375 0 
L 44.484375 32.71875 
Q 44.484375 40.625 41.703125 44.40625 
Q 38.921875 48.1875 33.109375 48.1875 
Q 26.21875 48.1875 22.15625 43.53125 
Q 18.109375 38.875 18.109375 30.90625 
L 18.109375 0 
L 9.078125 0 
L 9.078125 54.6875 
L 18.109375 54.6875 
L 18.109375 46.1875 
Q 21.1875 51.21875 25.484375 53.609375 
Q 29.78125 56 35.6875 56 
Q 41.65625 56 45.828125 52.96875 
Q 50 49.953125 52 44.1875 
" id="BitstreamVeraSans-Roman-6d"/>
     <path d="M 9.8125 72.90625 
L 24.515625 72.90625 
L 43.109375 23.296875 
L 61.8125 72.90625 
L 76.515625 72.90625 
L 76.515625 0 
L 66.890625 0 
L 66.890625 64.015625 
L 48.09375 14.015625 
L 38.1875 14.015625 
L 19.390625 64.015625 
L 19.390625 0 
L 9.8125 0 
z
" id="BitstreamVeraSans-Roman-4d"/>
     <path d="M 2.984375 54.6875 
L 12.5 54.6875 
L 29.59375 8.796875 
L 46.6875 54.6875 
L 56.203125 54.6875 
L 35.6875 0 
L 23.484375 0 
z
" id="BitstreamVeraSans-Roman-76"/>
     <path d="M 64.40625 67.28125 
L 64.40625 56.890625 
Q 59.421875 61.53125 53.78125 63.8125 
Q 48.140625 66.109375 41.796875 66.109375 
Q 29.296875 66.109375 22.65625 58.46875 
Q 16.015625 50.828125 16.015625 36.375 
Q 16.015625 21.96875 22.65625 14.328125 
Q 29.296875 6.6875 41.796875 6.6875 
Q 48.140625 6.6875 53.78125 8.984375 
Q 59.421875 11.28125 64.40625 15.921875 
L 64.40625 5.609375 
Q 59.234375 2.09375 53.4375 0.328125 
Q 47.65625 -1.421875 41.21875 -1.421875 
Q 24.65625 -1.421875 15.125 8.703125 
Q 5.609375 18.84375 5.609375 36.375 
Q 5.609375 53.953125 15.125 64.078125 
Q 24.65625 74.21875 41.21875 74.21875 
Q 47.75 74.21875 53.53125 72.484375 
Q 59.328125 70.75 64.40625 67.28125 
" id="BitstreamVeraSans-Roman-43"/>
     <path d="M 30.609375 48.390625 
Q 23.390625 48.390625 19.1875 42.75 
Q 14.984375 37.109375 14.984375 27.296875 
Q 14.984375 17.484375 19.15625 11.84375 
Q 23.34375 6.203125 30.609375 6.203125 
Q 37.796875 6.203125 41.984375 11.859375 
Q 46.1875 17.53125 46.1875 27.296875 
Q 46.1875 37.015625 41.984375 42.703125 
Q 37.796875 48.390625 30.609375 48.390625 
M 30.609375 56 
Q 42.328125 56 49.015625 48.375 
Q 55.71875 40.765625 55.71875 27.296875 
Q 55.71875 13.875 49.015625 6.21875 
Q 42.328125 -1.421875 30.609375 -1.421875 
Q 18.84375 -1.421875 12.171875 6.21875 
Q 5.515625 13.875 5.515625 27.296875 
Q 5.515625 40.765625 12.171875 48.375 
Q 18.84375 56 30.609375 56 
" id="BitstreamVeraSans-Roman-6f"/>
     <path d="M 44.390625 34.1875 
Q 47.5625 33.109375 50.5625 29.59375 
Q 53.5625 26.078125 56.59375 19.921875 
L 66.609375 0 
L 56 0 
L 46.6875 18.703125 
Q 43.0625 26.03125 39.671875 28.421875 
Q 36.28125 30.8125 30.421875 30.8125 
L 19.671875 30.8125 
L 19.671875 0 
L 9.8125 0 
L 9.8125 72.90625 
L 32.078125 72.90625 
Q 44.578125 72.90625 50.734375 67.671875 
Q 56.890625 62.453125 56.890625 51.90625 
Q 56.890625 45.015625 53.6875 40.46875 
Q 50.484375 35.9375 44.390625 34.1875 
M 19.671875 64.796875 
L 19.671875 38.921875 
L 32.078125 38.921875 
Q 39.203125 38.921875 42.84375 42.21875 
Q 46.484375 45.515625 46.484375 51.90625 
Q 46.484375 58.296875 42.84375 61.546875 
Q 39.203125 64.796875 32.078125 64.796875 
z
" id="BitstreamVeraSans-Roman-52"/>
    </defs>
    <g transform="translate(319.20975 56.29)scale(0.144 -0.144)">
     <use xlink:href="#BitstreamVeraSans-Roman-50"/>
     <use x="60.302734375" xlink:href="#BitstreamVeraSans-Roman-68"/>
     <use x="123.681640625" xlink:href="#BitstreamVeraSans-Roman-61"/>
     <use x="184.9609375" xlink:href="#BitstreamVeraSans-Roman-73"/>
     <use x="237.060546875" xlink:href="#BitstreamVeraSans-Roman-65"/>
     <use x="298.583984375" xlink:href="#BitstreamVeraSans-Roman-20"/>
     <use x="330.37109375" xlink:href="#BitstreamVeraSans-Roman-43"/>
     <use x="400.1953125" xlink:href="#BitstreamVeraSans-Roman-75"/>
     <use x="463.57421875" xlink:href="#BitstreamVeraSans-Roman-72"/>
     <use x="504.6875" xlink:href="#BitstreamVeraSans-Roman-76"/>
     <use x="563.8671875" xlink:href="#BitstreamVeraSans-Roman-65"/>
     <use x="625.390625" xlink:href="#BitstreamVeraSans-Roman-20"/>
     <use x="657.177734375" xlink:href="#BitstreamVeraSans-Roman-66"/>
     <use x="692.3828125" xlink:href="#BitstreamVeraSans-Roman-6f"/>
     <use x="753.564453125" xlink:href="#BitstreamVeraSans-Roman-72"/>
     <use x="794.677734375" xlink:href="#BitstreamVeraSans-Roman-20"/>
     <use x="826.46484375" xlink:href="#BitstreamVeraSans-Roman-32"/>
     <use x="890.087890625" xlink:href="#BitstreamVeraSans-Roman-30"/>
     <use x="953.7109375" xlink:href="#BitstreamVeraSans-Roman-20"/>
     <use x="985.498046875" xlink:href="#BitstreamVeraSans-Roman-48"/>
     <use x="1060.693359375" xlink:href="#BitstreamVeraSans-Roman-7a"/>
     <use x="1113.18359375" xlink:href="#BitstreamVeraSans-Roman-20"/>
     <use x="1144.970703125" xlink:href="#BitstreamVeraSans-Roman-4d"/>
     <use x="1231.25" xlink:href="#BitstreamVeraSans-Roman-46"/>
     <use x="1288.76953125" xlink:href="#BitstreamVeraSans-Roman-52"/>
     <use x="1358.251953125" xlink:href="#BitstreamVeraSans-Roman-20"/>
     <use x="1390.0390625" xlink:href="#BitstreamVeraSans-Roman-61"/>
     <use x="1451.318359375" xlink:href="#BitstreamVeraSans-Roman-6e"/>
     <use x="1514.697265625" xlink:href="#BitstreamVeraSans-Roman-64"/>
     <use x="1578.173828125" xlink:href="#BitstreamVeraSans-Roman-20"/>
     <use x="1609.9609375" xlink:href="#BitstreamVeraSans-Roman-34"/>
     <use x="1673.583984375" xlink:href="#BitstreamVeraSans-Roman-2e"/>
     <use x="1705.37109375" xlink:href="#BitstreamVeraSans-Roman-35"/>
     <use x="1768.994140625" xlink:href="#BitstreamVeraSans-Roman-20"/>
     <use x="1800.78125" xlink:href="#BitstreamVeraSans-Roman-4d"/>
     <use x="1887.060546875" xlink:href="#BitstreamVeraSans-Roman-4f"/>
     <use x="1965.771484375" xlink:href="#BitstreamVeraSans-Roman-68"/>
     <use x="2029.150390625" xlink:href="#BitstreamVeraSans-Roman-6d"/>
    </g>
   </g>
   <g id="legend_1">
    <g id="patch_7">
     <path d="M 122.4 544.41 
L 257.98275 544.41 
L 257.98275 328.725 
L 122.4 328.725 
z
" style="fill:#ffffff;stroke:#000000;stroke-linejoin:miter;"/>
    </g>
    <g id="line2d_87">
     <path d="M 132.48 340.38675 
L 152.64 340.38675 
" style="fill:none;stroke:#ff1e1e;stroke-linecap:square;"/>
    </g>
    <g id="line2d_88"/>
    <g id="text_18">
     <!-- Std: 100.0 -->
     <defs>
      <path d="M 18.3125 70.21875 
L 18.3125 54.6875 
L 36.8125 54.6875 
L 36.8125 47.703125 
L 18.3125 47.703125 
L 18.3125 18.015625 
Q 18.3125 11.328125 20.140625 9.421875 
Q 21.96875 7.515625 27.59375 7.515625 
L 36.8125 7.515625 
L 36.8125 0 
L 27.59375 0 
Q 17.1875 0 13.234375 3.875 
Q 9.28125 7.765625 9.28125 18.015625 
L 9.28125 47.703125 
L 2.6875 47.703125 
L 2.6875 54.6875 
L 9.28125 54.6875 
L 9.28125 70.21875 
z
" id="BitstreamVeraSans-Roman-74"/>
      <path d="M 11.71875 12.40625 
L 22.015625 12.40625 
L 22.015625 0 
L 11.71875 0 
z
M 11.71875 51.703125 
L 22.015625 51.703125 
L 22.015625 39.3125 
L 11.71875 39.3125 
z
" id="BitstreamVeraSans-Roman-3a"/>
      <path d="M 53.515625 70.515625 
L 53.515625 60.890625 
Q 47.90625 63.578125 42.921875 64.890625 
Q 37.9375 66.21875 33.296875 66.21875 
Q 25.25 66.21875 20.875 63.09375 
Q 16.5 59.96875 16.5 54.203125 
Q 16.5 49.359375 19.40625 46.890625 
Q 22.3125 44.4375 30.421875 42.921875 
L 36.375 41.703125 
Q 47.40625 39.59375 52.65625 34.296875 
Q 57.90625 29 57.90625 20.125 
Q 57.90625 9.515625 50.796875 4.046875 
Q 43.703125 -1.421875 29.984375 -1.421875 
Q 24.8125 -1.421875 18.96875 -0.25 
Q 13.140625 0.921875 6.890625 3.21875 
L 6.890625 13.375 
Q 12.890625 10.015625 18.65625 8.296875 
Q 24.421875 6.59375 29.984375 6.59375 
Q 38.421875 6.59375 43.015625 9.90625 
Q 47.609375 13.234375 47.609375 19.390625 
Q 47.609375 24.75 44.3125 27.78125 
Q 41.015625 30.8125 33.5 32.328125 
L 27.484375 33.5 
Q 16.453125 35.6875 11.515625 40.375 
Q 6.59375 45.0625 6.59375 53.421875 
Q 6.59375 63.09375 13.40625 68.65625 
Q 20.21875 74.21875 32.171875 74.21875 
Q 37.3125 74.21875 42.625 73.28125 
Q 47.953125 72.359375 53.515625 70.515625 
" id="BitstreamVeraSans-Roman-53"/>
     </defs>
     <g transform="translate(168.48 345.42675)scale(0.144 -0.144)">
      <use xlink:href="#BitstreamVeraSans-Roman-53"/>
      <use x="63.4765625" xlink:href="#BitstreamVeraSans-Roman-74"/>
      <use x="102.685546875" xlink:href="#BitstreamVeraSans-Roman-64"/>
      <use x="166.162109375" xlink:href="#BitstreamVeraSans-Roman-3a"/>
      <use x="199.853515625" xlink:href="#BitstreamVeraSans-Roman-20"/>
      <use x="231.640625" xlink:href="#BitstreamVeraSans-Roman-31"/>
      <use x="295.263671875" xlink:href="#BitstreamVeraSans-Roman-30"/>
      <use x="358.88671875" xlink:href="#BitstreamVeraSans-Roman-30"/>
      <use x="422.509765625" xlink:href="#BitstreamVeraSans-Roman-2e"/>
      <use x="454.296875" xlink:href="#BitstreamVeraSans-Roman-30"/>
     </g>
    </g>
    <g id="line2d_89">
     <path d="M 132.48 361.52325 
L 152.64 361.52325 
" style="fill:none;stroke:#581845;stroke-linecap:square;"/>
    </g>
    <g id="line2d_90"/>
    <g id="text_19">
     <!-- Std: 200.0 -->
     <g transform="translate(168.48 366.56325)scale(0.144 -0.144)">
      <use xlink:href="#BitstreamVeraSans-Roman-53"/>
      <use x="63.4765625" xlink:href="#BitstreamVeraSans-Roman-74"/>
      <use x="102.685546875" xlink:href="#BitstreamVeraSans-Roman-64"/>
      <use x="166.162109375" xlink:href="#BitstreamVeraSans-Roman-3a"/>
      <use x="199.853515625" xlink:href="#BitstreamVeraSans-Roman-20"/>
      <use x="231.640625" xlink:href="#BitstreamVeraSans-Roman-32"/>
      <use x="295.263671875" xlink:href="#BitstreamVeraSans-Roman-30"/>
      <use x="358.88671875" xlink:href="#BitstreamVeraSans-Roman-30"/>
      <use x="422.509765625" xlink:href="#BitstreamVeraSans-Roman-2e"/>
      <use x="454.296875" xlink:href="#BitstreamVeraSans-Roman-30"/>
     </g>
    </g>
    <g id="line2d_91">
     <path d="M 132.48 382.65975 
L 152.64 382.65975 
" style="fill:none;stroke:#26b7d8;stroke-linecap:square;"/>
    </g>
    <g id="line2d_92"/>
    <g id="text_20">
     <!-- Std: 300.0 -->
     <g transform="translate(168.48 387.69975)scale(0.144 -0.144)">
      <use xlink:href="#BitstreamVeraSans-Roman-53"/>
      <use x="63.4765625" xlink:href="#BitstreamVeraSans-Roman-74"/>
      <use x="102.685546875" xlink:href="#BitstreamVeraSans-Roman-64"/>
      <use x="166.162109375" xlink:href="#BitstreamVeraSans-Roman-3a"/>
      <use x="199.853515625" xlink:href="#BitstreamVeraSans-Roman-20"/>
      <use x="231.640625" xlink:href="#BitstreamVeraSans-Roman-33"/>
      <use x="295.263671875" xlink:href="#BitstreamVeraSans-Roman-30"/>
      <use x="358.88671875" xlink:href="#BitstreamVeraSans-Roman-30"/>
      <use x="422.509765625" xlink:href="#BitstreamVeraSans-Roman-2e"/>
      <use x="454.296875" xlink:href="#BitstreamVeraSans-Roman-30"/>
     </g>
    </g>
    <g id="line2d_93">
     <path d="M 132.48 403.79625 
L 152.64 403.79625 
" style="fill:none;stroke:#8414a4;stroke-linecap:square;"/>
    </g>
    <g id="line2d_94"/>
    <g id="text_21">
     <!-- Std: 400.0 -->
     <g transform="translate(168.48 408.83625)scale(0.144 -0.144)">
      <use xlink:href="#BitstreamVeraSans-Roman-53"/>
      <use x="63.4765625" xlink:href="#BitstreamVeraSans-Roman-74"/>
      <use x="102.685546875" xlink:href="#BitstreamVeraSans-Roman-64"/>
      <use x="166.162109375" xlink:href="#BitstreamVeraSans-Roman-3a"/>
      <use x="199.853515625" xlink:href="#BitstreamVeraSans-Roman-20"/>
      <use x="231.640625" xlink:href="#BitstreamVeraSans-Roman-34"/>
      <use x="295.263671875" xlink:href="#BitstreamVeraSans-Roman-30"/>
      <use x="358.88671875" xlink:href="#BitstreamVeraSans-Roman-30"/>
      <use x="422.509765625" xlink:href="#BitstreamVeraSans-Roman-2e"/>
      <use x="454.296875" xlink:href="#BitstreamVeraSans-Roman-30"/>
     </g>
    </g>
    <g id="line2d_95">
     <path d="M 132.48 424.93275 
L 152.64 424.93275 
" style="fill:none;stroke:#ffd23a;stroke-linecap:square;"/>
    </g>
    <g id="line2d_96"/>
    <g id="text_22">
     <!-- Std: 500.0 -->
     <g transform="translate(168.48 429.97275)scale(0.144 -0.144)">
      <use xlink:href="#BitstreamVeraSans-Roman-53"/>
      <use x="63.4765625" xlink:href="#BitstreamVeraSans-Roman-74"/>
      <use x="102.685546875" xlink:href="#BitstreamVeraSans-Roman-64"/>
      <use x="166.162109375" xlink:href="#BitstreamVeraSans-Roman-3a"/>
      <use x="199.853515625" xlink:href="#BitstreamVeraSans-Roman-20"/>
      <use x="231.640625" xlink:href="#BitstreamVeraSans-Roman-35"/>
      <use x="295.263671875" xlink:href="#BitstreamVeraSans-Roman-30"/>
      <use x="358.88671875" xlink:href="#BitstreamVeraSans-Roman-30"/>
      <use x="422.509765625" xlink:href="#BitstreamVeraSans-Roman-2e"/>
      <use x="454.296875" xlink:href="#BitstreamVeraSans-Roman-30"/>
     </g>
    </g>
    <g id="line2d_97">
     <path d="M 132.48 446.06925 
L 152.64 446.06925 
" style="fill:none;stroke:#ff9300;stroke-linecap:square;"/>
    </g>
    <g id="line2d_98"/>
    <g id="text_23">
     <!-- Std: 600.0 -->
     <g transform="translate(168.48 451.10925)scale(0.144 -0.144)">
      <use xlink:href="#BitstreamVeraSans-Roman-53"/>
      <use x="63.4765625" xlink:href="#BitstreamVeraSans-Roman-74"/>
      <use x="102.685546875" xlink:href="#BitstreamVeraSans-Roman-64"/>
      <use x="166.162109375" xlink:href="#BitstreamVeraSans-Roman-3a"/>
      <use x="199.853515625" xlink:href="#BitstreamVeraSans-Roman-20"/>
      <use x="231.640625" xlink:href="#BitstreamVeraSans-Roman-36"/>
      <use x="295.263671875" xlink:href="#BitstreamVeraSans-Roman-30"/>
      <use x="358.88671875" xlink:href="#BitstreamVeraSans-Roman-30"/>
      <use x="422.509765625" xlink:href="#BitstreamVeraSans-Roman-2e"/>
      <use x="454.296875" xlink:href="#BitstreamVeraSans-Roman-30"/>
     </g>
    </g>
    <g id="line2d_99">
     <path d="M 132.48 467.20575 
L 152.64 467.20575 
" style="fill:none;stroke:#f50fe6;stroke-linecap:square;"/>
    </g>
    <g id="line2d_100"/>
    <g id="text_24">
     <!-- Std: 700.0 -->
     <g transform="translate(168.48 472.24575)scale(0.144 -0.144)">
      <use xlink:href="#BitstreamVeraSans-Roman-53"/>
      <use x="63.4765625" xlink:href="#BitstreamVeraSans-Roman-74"/>
      <use x="102.685546875" xlink:href="#BitstreamVeraSans-Roman-64"/>
      <use x="166.162109375" xlink:href="#BitstreamVeraSans-Roman-3a"/>
      <use x="199.853515625" xlink:href="#BitstreamVeraSans-Roman-20"/>
      <use x="231.640625" xlink:href="#BitstreamVeraSans-Roman-37"/>
      <use x="295.263671875" xlink:href="#BitstreamVeraSans-Roman-30"/>
      <use x="358.88671875" xlink:href="#BitstreamVeraSans-Roman-30"/>
      <use x="422.509765625" xlink:href="#BitstreamVeraSans-Roman-2e"/>
      <use x="454.296875" xlink:href="#BitstreamVeraSans-Roman-30"/>
     </g>
    </g>
    <g id="line2d_101">
     <path d="M 132.48 488.34225 
L 152.64 488.34225 
" style="fill:none;stroke:#1000a0;stroke-linecap:square;"/>
    </g>
    <g id="line2d_102"/>
    <g id="text_25">
     <!-- Std: 800.0 -->
     <g transform="translate(168.48 493.38225)scale(0.144 -0.144)">
      <use xlink:href="#BitstreamVeraSans-Roman-53"/>
      <use x="63.4765625" xlink:href="#BitstreamVeraSans-Roman-74"/>
      <use x="102.685546875" xlink:href="#BitstreamVeraSans-Roman-64"/>
      <use x="166.162109375" xlink:href="#BitstreamVeraSans-Roman-3a"/>
      <use x="199.853515625" xlink:href="#BitstreamVeraSans-Roman-20"/>
      <use x="231.640625" xlink:href="#BitstreamVeraSans-Roman-38"/>
      <use x="295.263671875" xlink:href="#BitstreamVeraSans-Roman-30"/>
      <use x="358.88671875" xlink:href="#BitstreamVeraSans-Roman-30"/>
      <use x="422.509765625" xlink:href="#BitstreamVeraSans-Roman-2e"/>
      <use x="454.296875" xlink:href="#BitstreamVeraSans-Roman-30"/>
     </g>
    </g>
    <g id="line2d_103">
     <path d="M 132.48 509.47875 
L 152.64 509.47875 
" style="fill:none;stroke:#595866;stroke-linecap:square;"/>
    </g>
    <g id="line2d_104"/>
    <g id="text_26">
     <!-- Std: 900.0 -->
     <defs>
      <path d="M 10.984375 1.515625 
L 10.984375 10.5 
Q 14.703125 8.734375 18.5 7.8125 
Q 22.3125 6.890625 25.984375 6.890625 
Q 35.75 6.890625 40.890625 13.453125 
Q 46.046875 20.015625 46.78125 33.40625 
Q 43.953125 29.203125 39.59375 26.953125 
Q 35.25 24.703125 29.984375 24.703125 
Q 19.046875 24.703125 12.671875 31.3125 
Q 6.296875 37.9375 6.296875 49.421875 
Q 6.296875 60.640625 12.9375 67.421875 
Q 19.578125 74.21875 30.609375 74.21875 
Q 43.265625 74.21875 49.921875 64.515625 
Q 56.59375 54.828125 56.59375 36.375 
Q 56.59375 19.140625 48.40625 8.859375 
Q 40.234375 -1.421875 26.421875 -1.421875 
Q 22.703125 -1.421875 18.890625 -0.6875 
Q 15.09375 0.046875 10.984375 1.515625 
M 30.609375 32.421875 
Q 37.25 32.421875 41.125 36.953125 
Q 45.015625 41.5 45.015625 49.421875 
Q 45.015625 57.28125 41.125 61.84375 
Q 37.25 66.40625 30.609375 66.40625 
Q 23.96875 66.40625 20.09375 61.84375 
Q 16.21875 57.28125 16.21875 49.421875 
Q 16.21875 41.5 20.09375 36.953125 
Q 23.96875 32.421875 30.609375 32.421875 
" id="BitstreamVeraSans-Roman-39"/>
     </defs>
     <g transform="translate(168.48 514.51875)scale(0.144 -0.144)">
      <use xlink:href="#BitstreamVeraSans-Roman-53"/>
      <use x="63.4765625" xlink:href="#BitstreamVeraSans-Roman-74"/>
      <use x="102.685546875" xlink:href="#BitstreamVeraSans-Roman-64"/>
      <use x="166.162109375" xlink:href="#BitstreamVeraSans-Roman-3a"/>
      <use x="199.853515625" xlink:href="#BitstreamVeraSans-Roman-20"/>
      <use x="231.640625" xlink:href="#BitstreamVeraSans-Roman-39"/>
      <use x="295.263671875" xlink:href="#BitstreamVeraSans-Roman-30"/>
      <use x="358.88671875" xlink:href="#BitstreamVeraSans-Roman-30"/>
      <use x="422.509765625" xlink:href="#BitstreamVeraSans-Roman-2e"/>
      <use x="454.296875" xlink:href="#BitstreamVeraSans-Roman-30"/>
     </g>
    </g>
    <g id="line2d_105">
     <path d="M 132.48 530.61525 
L 152.64 530.61525 
" style="fill:none;stroke:#147f2a;stroke-linecap:square;"/>
    </g>
    <g id="line2d_106"/>
    <g id="text_27">
     <!-- Std: 1000.0 -->
     <g transform="translate(168.48 535.65525)scale(0.144 -0.144)">
      <use xlink:href="#BitstreamVeraSans-Roman-53"/>
      <use x="63.4765625" xlink:href="#BitstreamVeraSans-Roman-74"/>
      <use x="102.685546875" xlink:href="#BitstreamVeraSans-Roman-64"/>
      <use x="166.162109375" xlink:href="#BitstreamVeraSans-Roman-3a"/>
      <use x="199.853515625" xlink:href="#BitstreamVeraSans-Roman-20"/>
      <use x="231.640625" xlink:href="#BitstreamVeraSans-Roman-31"/>
      <use x="295.263671875" xlink:href="#BitstreamVeraSans-Roman-30"/>
      <use x="358.88671875" xlink:href="#BitstreamVeraSans-Roman-30"/>
      <use x="422.509765625" xlink:href="#BitstreamVeraSans-Roman-30"/>
      <use x="486.1328125" xlink:href="#BitstreamVeraSans-Roman-2e"/>
      <use x="517.919921875" xlink:href="#BitstreamVeraSans-Roman-30"/>
     </g>
    </g>
   </g>
  </g>
 </g>
 <defs>
  <clipPath id="pc3c7a23930">
   <rect height="490.32" width="714.24" x="115.2" y="61.29"/>
  </clipPath>
 </defs>
</svg>
