<?xml version="1.0" encoding="utf-8" standalone="no"?>
<!DOCTYPE svg PUBLIC "-//W3C//DTD SVG 1.1//EN"
  "http://www.w3.org/Graphics/SVG/1.1/DTD/svg11.dtd">
<!-- Created with matplotlib (http://matplotlib.org/) -->
<svg height="640pt" version="1.1" viewBox="0 0 921 640" width="921pt" xmlns="http://www.w3.org/2000/svg" xmlns:xlink="http://www.w3.org/1999/xlink">
 <defs>
  <style type="text/css">
*{stroke-linecap:butt;stroke-linejoin:round;stroke-miterlimit:100000;}
  </style>
 </defs>
 <g id="figure_1">
  <g id="patch_1">
   <path d="M 0 640.8 
L 921.6 640.8 
L 921.6 0 
L 0 0 
z
" style="fill:#ffffff;"/>
  </g>
  <g id="axes_1">
   <g id="patch_2">
    <path d="M 115.2 576.72 
L 829.44 576.72 
L 829.44 64.08 
L 115.2 64.08 
z
" style="fill:#ffffff;"/>
   </g>
   <g id="line2d_1">
    <path clip-path="url(#pd6100cb0ba)" d="M 115.2 124.055657 
L 132.313668 125.130112 
L 146.992943 125.813207 
L 159.844933 126.768861 
L 171.274613 127.121962 
L 181.565657 127.129597 
L 190.924519 128.833262 
L 207.42977 129.800194 
L 214.789171 130.876531 
L 228.101408 131.871363 
L 234.165501 133.262284 
L 239.893559 133.623057 
L 245.320877 134.366989 
L 250.477466 134.379562 
L 255.389057 135.923182 
L 260.077878 136.278786 
L 264.563263 137.216494 
L 268.862134 136.972529 
L 276.958194 138.785148 
L 280.780278 139.92619 
L 284.466099 140.627784 
L 288.025041 140.735798 
L 291.465549 141.183865 
L 294.795252 142.299987 
L 298.021064 143.045882 
L 301.149274 143.947537 
L 304.185615 144.543451 
L 307.135328 144.417433 
L 310.003221 145.657394 
L 312.793709 144.809158 
L 315.510863 146.80305 
L 318.158437 146.55714 
L 320.739907 147.39761 
L 323.258492 147.698754 
L 325.717185 149.700427 
L 328.118768 148.935046 
L 330.465834 149.240762 
L 332.760802 150.334311 
L 335.005936 151.221962 
L 337.203354 151.88295 
L 339.355042 152.373999 
L 341.462865 153.143792 
L 353.28 159.080222 
L 397.924933 186.48676 
L 409.354613 193.35338 
L 419.645657 195.719971 
L 429.004519 201.311753 
L 437.586137 203.42594 
L 445.50977 205.50962 
L 452.869171 207.218226 
L 459.739384 207.635083 
L 466.181408 209.271484 
L 472.245501 208.409444 
L 477.973559 208.800937 
L 483.400877 208.242378 
L 488.557466 211.921098 
L 493.469057 211.786252 
L 498.157878 213.044699 
L 502.643263 215.591401 
L 506.942134 213.040985 
L 511.069385 214.162049 
L 515.038194 214.507379 
L 518.860278 212.413466 
L 522.546099 217.142147 
L 526.105041 219.198002 
L 529.545549 219.243881 
L 532.875252 217.991001 
L 536.101064 217.075912 
L 539.229274 213.121273 
L 542.265615 217.496704 
L 545.215328 218.537392 
L 548.083221 209.813994 
L 550.873709 219.945069 
L 553.590863 224.002495 
L 556.238437 220.863644 
L 558.819907 219.915968 
L 561.338492 221.37553 
L 563.797185 218.693901 
L 566.198768 224.331547 
L 568.545834 226.778142 
L 570.840802 215.42036 
L 573.085936 220.269765 
L 575.283354 221.331665 
L 577.435042 232.408245 
L 579.542865 221.864143 
L 591.36 225.536266 
L 608.473668 217.676646 
L 623.152943 245.40098 
L 636.004933 240.76045 
L 647.434613 264.585137 
L 657.725657 252.089267 
L 667.084519 251.575698 
L 675.666137 272.137097 
L 683.58977 262.550948 
L 690.949171 231.176213 
L 697.819384 286.659339 
L 704.261408 260.460728 
L 710.325501 290.134863 
L 716.053559 313.637788 
L 721.480877 294.414468 
L 726.637466 317.700127 
L 731.549057 307.50812 
L 736.237878 301.86269 
L 740.723263 349.661359 
L 745.022134 316.888539 
L 749.149385 375.777496 
L 753.118194 370.551978 
L 756.940278 346.159486 
L 760.626099 352.157721 
L 764.185041 377.91372 
L 767.625549 360.280865 
L 770.955252 371.67637 
L 774.181064 389.314411 
L 777.309274 417.265049 
L 780.345615 398.615757 
L 783.295328 408.572236 
L 786.163221 426.826648 
L 788.953709 392.067018 
L 791.670863 571.287665 
L 794.318437 453.857672 
L 796.899907 460.153823 
L 799.418492 408.825623 
L 801.877185 454.245369 
L 804.278768 471.726803 
L 806.625834 390.530488 
L 808.920802 525.138003 
L 811.165936 458.53102 
L 813.363354 515.196228 
L 815.515042 259.131407 
L 817.622865 505.322047 
L 819.688575 491.398278 
L 821.713822 466.432528 
L 823.700162 560.362006 
L 825.64906 558.205336 
L 827.561903 521.738644 
L 827.561903 521.738644 
" style="fill:none;stroke:#ff1e1e;stroke-linecap:square;"/>
   </g>
   <g id="line2d_2">
    <path clip-path="url(#pd6100cb0ba)" d="M 115.2 125.266475 
L 132.313668 124.778175 
L 146.992943 125.180952 
L 171.274613 126.842191 
L 181.565657 128.120839 
L 190.924519 128.08361 
L 199.506137 129.098465 
L 207.42977 129.619496 
L 214.789171 130.827215 
L 221.659384 130.232277 
L 228.101408 132.239065 
L 234.165501 133.396216 
L 239.893559 132.643662 
L 245.320877 133.058678 
L 250.477466 134.343273 
L 255.389057 134.763737 
L 260.077878 135.753103 
L 264.563263 135.514511 
L 268.862134 136.983511 
L 272.989385 138.617757 
L 276.958194 139.006071 
L 280.780278 138.820462 
L 284.466099 139.087211 
L 288.025041 140.835005 
L 291.465549 141.772762 
L 294.795252 141.915905 
L 298.021064 140.516584 
L 304.185615 142.013854 
L 307.135328 143.919366 
L 310.003221 141.868676 
L 312.793709 143.72175 
L 315.510863 145.135825 
L 318.158437 145.930015 
L 320.739907 145.760276 
L 323.258492 145.712001 
L 325.717185 146.406036 
L 328.118768 145.550705 
L 330.465834 148.632923 
L 332.760802 147.57131 
L 335.005936 149.648428 
L 337.203354 149.019079 
L 339.355042 148.157912 
L 341.462865 150.808102 
L 353.28 153.779241 
L 370.393668 158.259739 
L 397.924933 167.715056 
L 409.354613 172.041482 
L 419.645657 176.463565 
L 429.004519 178.901914 
L 437.586137 179.846846 
L 445.50977 182.115534 
L 452.869171 183.248863 
L 459.739384 187.040325 
L 466.181408 195.980425 
L 472.245501 193.065282 
L 477.973559 199.375192 
L 483.400877 198.02229 
L 488.557466 197.090503 
L 493.469057 200.107884 
L 498.157878 198.717217 
L 502.643263 201.609747 
L 506.942134 201.923048 
L 511.069385 201.642558 
L 515.038194 201.868096 
L 518.860278 209.857124 
L 522.546099 202.575621 
L 526.105041 202.754925 
L 529.545549 203.780816 
L 532.875252 208.26112 
L 536.101064 207.157857 
L 539.229274 210.690089 
L 542.265615 206.003074 
L 545.215328 198.357994 
L 548.083221 206.842093 
L 550.873709 204.965123 
L 553.590863 213.884132 
L 556.238437 209.721007 
L 558.819907 210.898212 
L 561.338492 216.540338 
L 563.797185 204.129667 
L 566.198768 206.218694 
L 568.545834 211.236486 
L 570.840802 212.004136 
L 573.085936 210.794984 
L 575.283354 212.420558 
L 577.435042 205.733003 
L 579.542865 209.651128 
L 591.36 223.887798 
L 608.473668 224.092825 
L 623.152943 227.325617 
L 636.004933 230.279531 
L 647.434613 234.771101 
L 657.725657 228.057315 
L 667.084519 246.627295 
L 675.666137 279.964445 
L 683.58977 272.375649 
L 690.949171 260.268382 
L 697.819384 275.056806 
L 704.261408 274.555567 
L 710.325501 307.513021 
L 716.053559 307.493937 
L 721.480877 301.406446 
L 726.637466 298.301572 
L 731.549057 333.151541 
L 736.237878 315.580186 
L 740.723263 312.117463 
L 745.022134 328.97457 
L 749.149385 333.414536 
L 753.118194 329.527336 
L 756.940278 336.03013 
L 760.626099 363.016229 
L 764.185041 375.171225 
L 767.625549 401.612054 
L 770.955252 389.082911 
L 774.181064 347.885307 
L 777.309274 431.129577 
L 780.345615 366.146614 
L 783.295328 469.769892 
L 786.163221 464.300733 
L 788.953709 440.044928 
L 791.670863 434.316837 
L 794.318437 449.807261 
L 796.899907 442.9341 
L 799.418492 420.708392 
L 801.877185 491.264847 
L 804.278768 429.454974 
L 806.625834 508.937301 
L 808.920802 541.790427 
L 811.165936 504.217647 
L 813.363354 524.233518 
L 815.515042 496.747619 
L 817.622865 535.254973 
L 819.688575 492.625044 
L 821.713822 475.179397 
L 823.700162 575.047007 
L 825.64906 576.691975 
L 827.561903 552.215481 
L 827.561903 552.215481 
" style="fill:none;stroke:#581845;stroke-linecap:square;"/>
   </g>
   <g id="line2d_3">
    <path clip-path="url(#pd6100cb0ba)" d="M 115.2 125.464166 
L 132.313668 127.152314 
L 146.992943 126.514453 
L 159.844933 127.168001 
L 171.274613 125.924717 
L 181.565657 126.507103 
L 190.924519 128.842547 
L 199.506137 129.791627 
L 207.42977 129.794619 
L 214.789171 131.302411 
L 221.659384 132.489521 
L 228.101408 130.394797 
L 234.165501 134.641101 
L 239.893559 134.269784 
L 245.320877 131.80098 
L 250.477466 134.958493 
L 255.389057 135.952071 
L 260.077878 135.572546 
L 264.563263 136.37483 
L 268.862134 134.158432 
L 272.989385 136.057267 
L 276.958194 140.049098 
L 280.780278 137.642669 
L 284.466099 139.61078 
L 288.025041 136.512582 
L 291.465549 140.9214 
L 294.795252 139.917697 
L 298.021064 139.611549 
L 301.149274 142.508261 
L 304.185615 142.606057 
L 307.135328 139.810094 
L 310.003221 141.785762 
L 312.793709 143.048232 
L 315.510863 142.374133 
L 318.158437 143.723746 
L 320.739907 143.735564 
L 323.258492 143.552288 
L 325.717185 145.506663 
L 328.118768 144.709323 
L 330.465834 144.389458 
L 332.760802 143.774889 
L 335.005936 146.223767 
L 337.203354 146.019235 
L 339.355042 146.469897 
L 341.462865 148.561361 
L 353.28 149.575729 
L 370.393668 150.733095 
L 385.072943 155.183085 
L 397.924933 156.773159 
L 409.354613 161.202381 
L 419.645657 160.931626 
L 429.004519 164.885366 
L 437.586137 169.007417 
L 445.50977 171.11142 
L 452.869171 173.398834 
L 459.739384 172.628242 
L 466.181408 176.387223 
L 472.245501 176.336823 
L 477.973559 178.036357 
L 483.400877 184.948314 
L 488.557466 186.962937 
L 493.469057 186.805253 
L 498.157878 193.251232 
L 502.643263 194.274815 
L 506.942134 191.132067 
L 511.069385 194.028542 
L 515.038194 193.708735 
L 518.860278 197.878704 
L 522.546099 204.551738 
L 526.105041 198.608476 
L 529.545549 201.52532 
L 532.875252 199.120722 
L 536.101064 197.791735 
L 539.229274 206.021124 
L 542.265615 193.059098 
L 545.215328 200.494717 
L 548.083221 199.298514 
L 550.873709 201.216965 
L 553.590863 202.820495 
L 556.238437 205.227444 
L 558.819907 205.910204 
L 561.338492 208.939275 
L 563.797185 198.35112 
L 566.198768 205.621904 
L 568.545834 202.135357 
L 570.840802 206.422017 
L 573.085936 202.723555 
L 575.283354 209.876915 
L 577.435042 202.949655 
L 579.542865 209.60183 
L 591.36 206.232372 
L 608.473668 216.712068 
L 623.152943 240.99931 
L 636.004933 228.230801 
L 647.434613 237.355001 
L 657.725657 240.512898 
L 667.084519 243.192167 
L 675.666137 238.89158 
L 683.58977 243.512293 
L 690.949171 263.768168 
L 697.819384 271.499718 
L 704.261408 280.590783 
L 710.325501 298.228478 
L 716.053559 301.338732 
L 721.480877 276.538304 
L 726.637466 274.427359 
L 731.549057 304.295742 
L 736.237878 316.954408 
L 740.723263 342.264663 
L 745.022134 301.37032 
L 749.149385 299.696488 
L 753.118194 371.626265 
L 756.940278 395.982541 
L 760.626099 351.861254 
L 764.185041 351.729018 
L 767.625549 406.857631 
L 770.955252 368.247702 
L 774.181064 342.410497 
L 777.309274 413.029999 
L 780.345615 387.007105 
L 783.295328 454.575779 
L 786.163221 424.989163 
L 788.953709 421.156077 
L 791.670863 439.85534 
L 794.318437 423.687039 
L 796.899907 435.700268 
L 801.877185 484.83499 
L 804.278768 413.64447 
L 806.625834 445.813748 
L 808.920802 481.558887 
L 811.165936 481.384374 
L 813.363354 498.477056 
L 815.515042 489.85189 
L 817.622865 510.950351 
L 819.688575 567.844726 
L 821.713822 517.710175 
L 823.700162 546.956615 
L 825.64906 552.590273 
L 827.561903 514.966933 
L 827.561903 514.966933 
" style="fill:none;stroke:#26b7d8;stroke-linecap:square;"/>
   </g>
   <g id="line2d_4">
    <path clip-path="url(#pd6100cb0ba)" d="M 115.2 123.965374 
L 132.313668 127.55294 
L 146.992943 122.870657 
L 159.844933 124.400383 
L 171.274613 130.515546 
L 181.565657 129.051884 
L 190.924519 129.714531 
L 199.506137 128.774141 
L 207.42977 131.663941 
L 214.789171 131.835166 
L 221.659384 128.377372 
L 228.101408 131.708941 
L 234.165501 131.556624 
L 245.320877 135.125838 
L 250.477466 132.667986 
L 255.389057 133.970923 
L 260.077878 137.270733 
L 264.563263 135.933239 
L 268.862134 135.402147 
L 272.989385 133.626399 
L 276.958194 136.417513 
L 280.780278 136.212358 
L 284.466099 139.452936 
L 288.025041 138.821978 
L 291.465549 140.887497 
L 294.795252 139.862434 
L 298.021064 141.365155 
L 301.149274 141.460318 
L 304.185615 141.965089 
L 307.135328 139.277984 
L 310.003221 142.248055 
L 312.793709 138.919561 
L 315.510863 143.24899 
L 318.158437 143.875029 
L 320.739907 145.230919 
L 323.258492 149.130189 
L 325.717185 143.342443 
L 328.118768 145.016795 
L 330.465834 143.862118 
L 332.760802 144.972148 
L 335.005936 147.331541 
L 337.203354 148.580159 
L 339.355042 145.564585 
L 341.462865 146.334516 
L 353.28 148.205262 
L 370.393668 151.613983 
L 385.072943 152.140499 
L 397.924933 156.4097 
L 409.354613 159.060414 
L 419.645657 161.218308 
L 429.004519 159.694383 
L 437.586137 156.452608 
L 445.50977 168.561768 
L 452.869171 162.631731 
L 459.739384 168.361382 
L 466.181408 166.163415 
L 472.245501 174.123271 
L 477.973559 174.587879 
L 483.400877 171.541087 
L 488.557466 173.388093 
L 493.469057 176.03279 
L 498.157878 177.402282 
L 502.643263 176.038438 
L 506.942134 184.283347 
L 511.069385 182.436763 
L 515.038194 184.204328 
L 518.860278 183.650433 
L 522.546099 181.966519 
L 526.105041 188.940201 
L 529.545549 194.494556 
L 532.875252 190.616986 
L 536.101064 193.29776 
L 542.265615 203.627045 
L 545.215328 197.554629 
L 548.083221 198.361591 
L 550.873709 194.842677 
L 553.590863 195.777812 
L 556.238437 199.611678 
L 561.338492 193.410672 
L 563.797185 196.431135 
L 566.198768 202.251409 
L 568.545834 198.631278 
L 570.840802 208.760475 
L 573.085936 209.408895 
L 575.283354 205.422704 
L 577.435042 207.10519 
L 579.542865 204.895116 
L 591.36 203.9741 
L 608.473668 205.774187 
L 623.152943 204.835084 
L 636.004933 224.103035 
L 647.434613 223.709642 
L 657.725657 247.040954 
L 667.084519 247.819367 
L 675.666137 237.928704 
L 683.58977 264.178914 
L 690.949171 238.145517 
L 697.819384 265.259822 
L 704.261408 301.691168 
L 710.325501 286.856807 
L 716.053559 270.576006 
L 721.480877 267.906352 
L 726.637466 312.116904 
L 731.549057 319.999814 
L 736.237878 305.521223 
L 740.723263 310.528087 
L 745.022134 317.385269 
L 749.149385 328.513481 
L 753.118194 354.323179 
L 756.940278 344.874074 
L 760.626099 360.756101 
L 764.185041 404.31359 
L 767.625549 347.842916 
L 770.955252 396.759236 
L 774.181064 356.620391 
L 777.309274 366.231543 
L 780.345615 413.408315 
L 783.295328 365.554708 
L 786.163221 445.822039 
L 788.953709 518.185269 
L 791.670863 346.636422 
L 794.318437 470.096099 
L 796.899907 434.907995 
L 799.418492 420.622471 
L 801.877185 512.428931 
L 804.278768 425.192758 
L 806.625834 454.760965 
L 808.920802 515.582729 
L 811.165936 470.056237 
L 813.363354 485.053716 
L 815.515042 496.851346 
L 817.622865 396.398332 
L 819.688575 555.623069 
L 821.713822 523.879062 
L 823.700162 485.837915 
L 825.64906 517.205349 
L 827.561903 572.363276 
L 827.561903 572.363276 
" style="fill:none;stroke:#8414a4;stroke-linecap:square;"/>
   </g>
   <g id="line2d_5">
    <path clip-path="url(#pd6100cb0ba)" d="M 115.2 129.393688 
L 132.313668 125.305148 
L 146.992943 129.379103 
L 159.844933 125.58706 
L 171.274613 123.572739 
L 181.565657 126.570132 
L 190.924519 127.858847 
L 199.506137 125.554255 
L 207.42977 132.758047 
L 214.789171 131.264459 
L 221.659384 133.028209 
L 228.101408 130.38669 
L 234.165501 131.920118 
L 239.893559 132.466359 
L 245.320877 134.726847 
L 250.477466 132.38679 
L 255.389057 133.427387 
L 260.077878 133.723734 
L 264.563263 135.467399 
L 268.862134 138.424319 
L 272.989385 137.121441 
L 276.958194 136.367703 
L 280.780278 139.964011 
L 284.466099 136.085794 
L 288.025041 137.614239 
L 291.465549 138.11958 
L 294.795252 138.907879 
L 298.021064 140.575652 
L 301.149274 139.049064 
L 307.135328 141.693923 
L 310.003221 142.973047 
L 312.793709 138.390296 
L 315.510863 140.858957 
L 318.158437 144.437246 
L 320.739907 144.036114 
L 323.258492 144.888153 
L 325.717185 144.679974 
L 328.118768 144.037156 
L 330.465834 144.485934 
L 332.760802 143.081142 
L 335.005936 144.33586 
L 337.203354 149.284833 
L 339.355042 145.679909 
L 341.462865 141.872868 
L 353.28 141.46369 
L 370.393668 147.845595 
L 385.072943 146.71485 
L 397.924933 153.508339 
L 409.354613 153.651498 
L 419.645657 157.823122 
L 429.004519 154.019372 
L 437.586137 153.661888 
L 445.50977 159.315095 
L 452.869171 162.488968 
L 459.739384 159.730489 
L 466.181408 166.418033 
L 472.245501 164.400329 
L 477.973559 163.885709 
L 483.400877 168.95259 
L 488.557466 165.289845 
L 493.469057 170.30969 
L 498.157878 173.983562 
L 502.643263 168.254503 
L 506.942134 174.002604 
L 511.069385 169.517911 
L 515.038194 184.401382 
L 518.860278 177.054996 
L 522.546099 190.078612 
L 526.105041 179.73532 
L 529.545549 183.988135 
L 532.875252 181.52174 
L 536.101064 185.653569 
L 539.229274 192.864784 
L 542.265615 187.676129 
L 545.215328 188.477487 
L 548.083221 190.709707 
L 550.873709 188.913544 
L 553.590863 198.027306 
L 556.238437 192.926249 
L 558.819907 207.430742 
L 561.338492 197.099211 
L 563.797185 201.582842 
L 566.198768 186.407319 
L 568.545834 204.645753 
L 570.840802 196.673954 
L 573.085936 198.070796 
L 575.283354 195.223127 
L 577.435042 196.002294 
L 579.542865 211.371236 
L 591.36 205.576699 
L 608.473668 217.029249 
L 623.152943 215.44772 
L 636.004933 219.111534 
L 647.434613 210.450717 
L 657.725657 229.618454 
L 667.084519 261.584448 
L 675.666137 236.440809 
L 683.58977 240.310944 
L 690.949171 267.789575 
L 697.819384 244.634072 
L 704.261408 241.999931 
L 710.325501 264.279863 
L 716.053559 279.789545 
L 721.480877 286.45834 
L 726.637466 302.122016 
L 731.549057 285.66702 
L 736.237878 324.482053 
L 740.723263 322.844684 
L 745.022134 344.856824 
L 749.149385 320.449677 
L 753.118194 366.026535 
L 756.940278 383.772247 
L 760.626099 370.367924 
L 764.185041 382.454253 
L 767.625549 381.367814 
L 770.955252 384.388476 
L 774.181064 371.228284 
L 777.309274 399.893924 
L 780.345615 374.879459 
L 783.295328 411.800871 
L 786.163221 383.722112 
L 788.953709 407.754942 
L 791.670863 433.439217 
L 794.318437 226.10253 
L 796.899907 464.394658 
L 799.418492 426.936209 
L 801.877185 452.459619 
L 804.278768 502.460153 
L 806.625834 522.015284 
L 808.920802 515.02525 
L 811.165936 512.852887 
L 813.363354 467.099963 
L 815.515042 504.556785 
L 817.622865 523.34943 
L 819.688575 556.183552 
L 821.713822 274.525795 
L 823.700162 530.088214 
L 825.64906 514.282906 
L 827.561903 547.089488 
L 827.561903 547.089488 
" style="fill:none;stroke:#ffd23a;stroke-linecap:square;"/>
   </g>
   <g id="line2d_6">
    <path clip-path="url(#pd6100cb0ba)" d="M 115.2 126.122594 
L 132.313668 121.856909 
L 146.992943 125.219477 
L 171.274613 128.986911 
L 181.565657 127.450061 
L 190.924519 125.089348 
L 199.506137 131.814311 
L 207.42977 129.076331 
L 214.789171 127.429953 
L 221.659384 132.962641 
L 228.101408 133.359498 
L 234.165501 133.120892 
L 239.893559 130.079713 
L 245.320877 132.875364 
L 250.477466 134.566227 
L 255.389057 138.694964 
L 260.077878 135.588113 
L 264.563263 139.392922 
L 268.862134 137.599686 
L 272.989385 140.517427 
L 276.958194 143.055534 
L 280.780278 136.235975 
L 284.466099 139.513676 
L 288.025041 135.532251 
L 291.465549 138.569669 
L 294.795252 135.73043 
L 298.021064 136.252368 
L 301.149274 139.381555 
L 304.185615 143.285486 
L 307.135328 138.971008 
L 310.003221 140.275582 
L 312.793709 140.358034 
L 315.510863 144.644206 
L 318.158437 139.762927 
L 320.739907 144.205572 
L 323.258492 141.123177 
L 325.717185 147.193724 
L 328.118768 142.733439 
L 330.465834 144.766109 
L 332.760802 142.105601 
L 335.005936 146.374235 
L 337.203354 139.950271 
L 339.355042 148.079967 
L 341.462865 147.017011 
L 353.28 147.081845 
L 370.393668 152.823413 
L 385.072943 151.04904 
L 397.924933 148.378289 
L 409.354613 151.552786 
L 419.645657 156.528642 
L 429.004519 154.042627 
L 437.586137 153.282197 
L 445.50977 158.403678 
L 452.869171 154.214787 
L 459.739384 159.010502 
L 466.181408 154.220895 
L 472.245501 158.492882 
L 477.973559 157.659236 
L 483.400877 156.181796 
L 488.557466 167.04631 
L 493.469057 164.909799 
L 498.157878 166.253016 
L 502.643263 165.772179 
L 506.942134 166.735988 
L 511.069385 160.11702 
L 515.038194 172.157426 
L 518.860278 171.77563 
L 522.546099 183.885796 
L 526.105041 181.04802 
L 529.545549 180.809916 
L 532.875252 181.25783 
L 536.101064 189.714254 
L 539.229274 179.72439 
L 542.265615 193.010397 
L 545.215328 181.619391 
L 548.083221 176.986991 
L 550.873709 186.257441 
L 553.590863 191.652251 
L 556.238437 179.869086 
L 558.819907 200.21785 
L 561.338492 201.442306 
L 563.797185 194.957883 
L 566.198768 194.933326 
L 568.545834 195.545147 
L 570.840802 194.899335 
L 573.085936 188.472697 
L 575.283354 193.384345 
L 577.435042 200.045236 
L 579.542865 202.767097 
L 591.36 211.051112 
L 608.473668 209.383441 
L 623.152943 211.441058 
L 636.004933 225.952296 
L 647.434613 227.654863 
L 657.725657 222.537628 
L 667.084519 247.23908 
L 675.666137 251.424969 
L 683.58977 257.24013 
L 690.949171 266.111099 
L 697.819384 268.269259 
L 704.261408 281.355786 
L 710.325501 270.751895 
L 716.053559 290.347152 
L 721.480877 323.839454 
L 726.637466 223.452785 
L 731.549057 290.171311 
L 736.237878 263.387985 
L 740.723263 318.312014 
L 745.022134 317.246957 
L 749.149385 352.771981 
L 753.118194 334.104554 
L 756.940278 356.598488 
L 760.626099 342.840758 
L 764.185041 359.39062 
L 767.625549 379.975791 
L 770.955252 338.751723 
L 774.181064 376.97611 
L 777.309274 371.984625 
L 780.345615 397.042552 
L 783.295328 383.310672 
L 786.163221 440.784234 
L 788.953709 384.332098 
L 791.670863 420.68663 
L 794.318437 417.328696 
L 796.899907 438.382952 
L 799.418492 403.826835 
L 801.877185 485.369199 
L 804.278768 447.273903 
L 806.625834 524.919894 
L 808.920802 344.01474 
L 811.165936 468.199776 
L 813.363354 461.058075 
L 815.515042 447.034047 
L 817.622865 505.11156 
L 819.688575 374.515616 
L 821.713822 521.749647 
L 823.700162 470.39901 
L 825.64906 317.259144 
L 827.561903 400.261125 
L 827.561903 400.261125 
" style="fill:none;stroke:#ff9300;stroke-linecap:square;"/>
   </g>
   <g id="line2d_7">
    <path clip-path="url(#pd6100cb0ba)" d="M 115.2 130.373498 
L 132.313668 125.598781 
L 146.992943 125.290178 
L 159.844933 123.998021 
L 171.274613 129.14726 
L 181.565657 127.063339 
L 199.506137 126.518215 
L 207.42977 129.301281 
L 214.789171 130.810047 
L 221.659384 131.651323 
L 228.101408 137.25683 
L 234.165501 129.671491 
L 239.893559 129.187492 
L 245.320877 130.021853 
L 250.477466 134.673724 
L 255.389057 131.13927 
L 260.077878 133.576823 
L 264.563263 135.492014 
L 268.862134 135.548311 
L 272.989385 136.974891 
L 276.958194 131.831309 
L 280.780278 136.429348 
L 284.466099 146.061475 
L 288.025041 137.191799 
L 291.465549 137.70969 
L 294.795252 133.496964 
L 298.021064 139.876892 
L 301.149274 139.555927 
L 304.185615 138.357045 
L 307.135328 138.134197 
L 310.003221 140.602067 
L 312.793709 138.632721 
L 315.510863 145.634825 
L 318.158437 140.933922 
L 320.739907 142.361596 
L 323.258492 143.004407 
L 325.717185 136.500768 
L 328.118768 144.361701 
L 330.465834 143.739898 
L 332.760802 141.80719 
L 335.005936 148.397042 
L 337.203354 144.919133 
L 339.355042 139.206205 
L 341.462865 143.284626 
L 353.28 150.320951 
L 370.393668 151.511858 
L 385.072943 154.442051 
L 397.924933 152.426241 
L 409.354613 151.874627 
L 419.645657 149.315671 
L 429.004519 153.03372 
L 437.586137 151.28113 
L 445.50977 150.393832 
L 452.869171 156.891259 
L 459.739384 159.030284 
L 466.181408 154.292822 
L 472.245501 157.130049 
L 477.973559 161.343067 
L 483.400877 164.131306 
L 488.557466 160.978337 
L 493.469057 159.514037 
L 498.157878 160.024934 
L 502.643263 156.686009 
L 506.942134 167.585153 
L 511.069385 157.672794 
L 515.038194 163.037769 
L 518.860278 173.903001 
L 522.546099 168.341724 
L 526.105041 168.982217 
L 529.545549 175.418476 
L 532.875252 172.204098 
L 536.101064 180.913267 
L 539.229274 178.797951 
L 542.265615 184.678875 
L 545.215328 181.623074 
L 548.083221 189.256907 
L 550.873709 178.452582 
L 553.590863 187.816164 
L 556.238437 195.548324 
L 558.819907 188.136761 
L 561.338492 191.928566 
L 563.797185 192.845492 
L 566.198768 189.065584 
L 568.545834 194.435332 
L 570.840802 202.393378 
L 573.085936 191.458274 
L 575.283354 193.459893 
L 577.435042 197.228928 
L 579.542865 206.987939 
L 591.36 198.050794 
L 608.473668 192.733787 
L 623.152943 205.973131 
L 636.004933 205.769845 
L 647.434613 246.128118 
L 657.725657 230.300155 
L 667.084519 233.766486 
L 675.666137 209.764031 
L 683.58977 269.412141 
L 690.949171 212.741132 
L 697.819384 254.671297 
L 704.261408 260.527944 
L 710.325501 277.934995 
L 716.053559 261.068087 
L 721.480877 273.284454 
L 726.637466 299.549824 
L 731.549057 287.857251 
L 736.237878 298.214039 
L 740.723263 293.390771 
L 745.022134 306.274681 
L 749.149385 290.168522 
L 753.118194 291.896824 
L 756.940278 334.687362 
L 760.626099 237.500097 
L 764.185041 317.862692 
L 767.625549 413.335223 
L 770.955252 264.502196 
L 774.181064 378.696216 
L 777.309274 334.115934 
L 780.345615 407.609142 
L 783.295328 401.703233 
L 786.163221 382.854061 
L 788.953709 397.065004 
L 791.670863 489.054861 
L 794.318437 373.612988 
L 796.899907 429.136569 
L 799.418492 446.121351 
L 801.877185 441.45439 
L 804.278768 451.874886 
L 806.625834 445.009545 
L 808.920802 459.357125 
L 811.165936 462.485913 
L 813.363354 516.96393 
L 815.515042 291.043177 
L 817.622865 400.880672 
L 821.713822 459.277891 
L 823.700162 534.115912 
L 825.64906 538.023904 
L 827.561903 499.864034 
L 827.561903 499.864034 
" style="fill:none;stroke:#f50fe6;stroke-linecap:square;"/>
   </g>
   <g id="line2d_8">
    <path clip-path="url(#pd6100cb0ba)" d="M 115.2 122.301125 
L 132.313668 127.737588 
L 146.992943 130.830707 
L 159.844933 126.594952 
L 171.274613 132.904731 
L 181.565657 127.756211 
L 190.924519 125.072275 
L 199.506137 128.922542 
L 207.42977 133.446543 
L 214.789171 130.732059 
L 221.659384 132.48285 
L 228.101408 131.979917 
L 239.893559 129.664536 
L 245.320877 133.157312 
L 250.477466 139.122022 
L 255.389057 141.322584 
L 260.077878 133.15197 
L 264.563263 135.176395 
L 268.862134 136.419195 
L 272.989385 130.105653 
L 276.958194 133.282315 
L 284.466099 141.181941 
L 288.025041 136.803043 
L 291.465549 141.749201 
L 294.795252 142.274872 
L 298.021064 139.122143 
L 301.149274 142.354532 
L 304.185615 134.144062 
L 307.135328 142.589993 
L 310.003221 143.235566 
L 312.793709 142.072621 
L 315.510863 142.507588 
L 318.158437 138.634107 
L 320.739907 138.497687 
L 323.258492 139.605432 
L 325.717185 143.98444 
L 328.118768 148.524585 
L 330.465834 143.874568 
L 332.760802 145.87693 
L 337.203354 142.118856 
L 339.355042 143.460304 
L 341.462865 143.036297 
L 353.28 151.549204 
L 370.393668 143.614582 
L 385.072943 149.355608 
L 397.924933 149.161257 
L 409.354613 152.354004 
L 419.645657 155.962103 
L 429.004519 149.251302 
L 437.586137 157.643245 
L 445.50977 153.350569 
L 452.869171 155.250632 
L 459.739384 157.300103 
L 466.181408 156.057765 
L 472.245501 154.175328 
L 477.973559 151.259626 
L 483.400877 154.99491 
L 488.557466 164.575385 
L 493.469057 155.481664 
L 498.157878 153.507621 
L 502.643263 163.114336 
L 506.942134 150.553168 
L 511.069385 169.376378 
L 515.038194 158.073312 
L 518.860278 166.459738 
L 522.546099 168.598065 
L 526.105041 162.765546 
L 529.545549 173.768871 
L 532.875252 175.349619 
L 536.101064 171.303131 
L 539.229274 172.062015 
L 542.265615 178.29289 
L 545.215328 180.631287 
L 548.083221 180.835666 
L 550.873709 174.86122 
L 553.590863 185.135049 
L 556.238437 176.578896 
L 558.819907 189.475558 
L 561.338492 184.769359 
L 563.797185 193.535617 
L 566.198768 194.387853 
L 568.545834 178.766504 
L 570.840802 195.165012 
L 573.085936 208.785438 
L 575.283354 189.920381 
L 577.435042 185.567137 
L 579.542865 182.012633 
L 591.36 191.659551 
L 608.473668 201.677457 
L 623.152943 217.36589 
L 636.004933 204.416156 
L 647.434613 241.178372 
L 657.725657 211.127358 
L 667.084519 228.294141 
L 675.666137 233.693219 
L 683.58977 242.781333 
L 690.949171 245.803348 
L 697.819384 255.239118 
L 704.261408 269.623921 
L 710.325501 272.064739 
L 716.053559 250.871341 
L 721.480877 282.92145 
L 726.637466 286.431976 
L 731.549057 297.447928 
L 736.237878 297.041724 
L 740.723263 275.647533 
L 745.022134 305.518754 
L 749.149385 303.724006 
L 753.118194 308.77291 
L 756.940278 295.987013 
L 760.626099 350.818076 
L 764.185041 288.904915 
L 767.625549 434.055706 
L 770.955252 282.582772 
L 774.181064 289.556838 
L 777.309274 375.488451 
L 780.345615 344.278841 
L 783.295328 402.087407 
L 786.163221 416.927304 
L 788.953709 492.267409 
L 791.670863 407.409973 
L 794.318437 434.502146 
L 796.899907 430.319855 
L 799.418492 442.34808 
L 801.877185 392.812487 
L 804.278768 381.552732 
L 806.625834 463.943092 
L 808.920802 492.924298 
L 811.165936 467.934824 
L 813.363354 428.098777 
L 815.515042 511.959117 
L 817.622865 515.339981 
L 819.688575 522.576253 
L 821.713822 479.462137 
L 823.700162 505.053 
L 825.64906 535.211836 
L 827.561903 484.313759 
L 827.561903 484.313759 
" style="fill:none;stroke:#1000a0;stroke-linecap:square;"/>
   </g>
   <g id="line2d_9">
    <path clip-path="url(#pd6100cb0ba)" d="M 115.2 126.984142 
L 132.313668 118.882415 
L 146.992943 134.683247 
L 159.844933 130.727079 
L 171.274613 122.737784 
L 181.565657 124.457436 
L 190.924519 128.82037 
L 199.506137 128.430066 
L 207.42977 131.481397 
L 214.789171 133.667645 
L 221.659384 131.797913 
L 228.101408 126.948254 
L 234.165501 133.223675 
L 239.893559 139.925438 
L 245.320877 138.090794 
L 250.477466 135.437214 
L 255.389057 139.779056 
L 260.077878 124.607461 
L 264.563263 136.263169 
L 268.862134 143.399588 
L 272.989385 134.259807 
L 276.958194 137.305024 
L 280.780278 134.43412 
L 284.466099 144.539036 
L 288.025041 145.397745 
L 291.465549 136.690241 
L 294.795252 140.74616 
L 298.021064 133.973604 
L 301.149274 136.307417 
L 304.185615 145.195245 
L 307.135328 137.122027 
L 310.003221 138.192009 
L 312.793709 134.507451 
L 315.510863 137.705882 
L 318.158437 146.677082 
L 320.739907 143.143544 
L 323.258492 145.877714 
L 325.717185 146.620251 
L 328.118768 148.616524 
L 330.465834 140.187822 
L 332.760802 144.324914 
L 335.005936 141.214708 
L 337.203354 144.80108 
L 339.355042 145.370174 
L 341.462865 148.881319 
L 353.28 148.316013 
L 370.393668 149.243595 
L 385.072943 145.915017 
L 397.924933 148.490611 
L 409.354613 152.307793 
L 419.645657 149.37523 
L 429.004519 158.753692 
L 437.586137 155.906782 
L 445.50977 156.026217 
L 452.869171 154.544535 
L 459.739384 155.543078 
L 466.181408 146.861065 
L 472.245501 144.954053 
L 477.973559 156.442787 
L 483.400877 162.121195 
L 488.557466 153.304105 
L 493.469057 160.212528 
L 498.157878 152.192254 
L 502.643263 158.032163 
L 506.942134 157.488268 
L 511.069385 158.95326 
L 515.038194 150.926555 
L 518.860278 164.344778 
L 522.546099 163.551878 
L 526.105041 169.865658 
L 529.545549 169.088651 
L 532.875252 165.95428 
L 539.229274 163.844136 
L 542.265615 159.522225 
L 545.215328 176.166989 
L 548.083221 172.798246 
L 550.873709 168.717137 
L 553.590863 172.804295 
L 556.238437 170.412642 
L 558.819907 174.737902 
L 561.338492 173.237864 
L 563.797185 163.767105 
L 566.198768 181.754713 
L 568.545834 186.014733 
L 570.840802 177.895946 
L 573.085936 192.979393 
L 575.283354 191.021433 
L 577.435042 182.802732 
L 579.542865 193.68166 
L 591.36 203.589298 
L 608.473668 208.537858 
L 623.152943 193.214901 
L 636.004933 208.863417 
L 647.434613 220.645212 
L 657.725657 210.589246 
L 667.084519 236.671337 
L 675.666137 217.83092 
L 683.58977 224.041737 
L 690.949171 254.559942 
L 697.819384 271.706394 
L 704.261408 254.665733 
L 710.325501 253.362906 
L 716.053559 243.629766 
L 721.480877 305.880007 
L 726.637466 275.217834 
L 731.549057 317.20642 
L 736.237878 253.29952 
L 740.723263 487.827751 
L 745.022134 326.497483 
L 749.149385 290.262428 
L 753.118194 323.640789 
L 756.940278 374.114856 
L 760.626099 430.290883 
L 764.185041 348.035033 
L 767.625549 348.574054 
L 770.955252 351.031586 
L 774.181064 348.013369 
L 777.309274 376.231942 
L 780.345615 418.012641 
L 783.295328 389.667913 
L 786.163221 387.895172 
L 788.953709 547.309531 
L 791.670863 403.75066 
L 794.318437 338.600082 
L 796.899907 447.878932 
L 799.418492 427.206763 
L 801.877185 431.290676 
L 806.625834 506.200902 
L 808.920802 559.012899 
L 811.165936 436.535488 
L 813.363354 477.905948 
L 815.515042 499.579812 
L 817.622865 536.47479 
L 819.688575 494.201333 
L 821.713822 480.251306 
L 823.700162 536.320885 
L 825.64906 481.878071 
L 827.561903 550.434085 
L 827.561903 550.434085 
" style="fill:none;stroke:#595866;stroke-linecap:square;"/>
   </g>
   <g id="line2d_10">
    <path clip-path="url(#pd6100cb0ba)" d="M 115.2 131.930807 
L 132.313668 130.31655 
L 146.992943 125.898775 
L 159.844933 134.497383 
L 171.274613 128.360123 
L 181.565657 131.540161 
L 190.924519 127.75582 
L 199.506137 134.170249 
L 207.42977 136.68609 
L 214.789171 123.887093 
L 221.659384 125.462841 
L 228.101408 119.958169 
L 234.165501 133.235463 
L 239.893559 136.312197 
L 250.477466 132.581089 
L 255.389057 138.649879 
L 260.077878 126.075532 
L 264.563263 133.382499 
L 268.862134 136.822288 
L 272.989385 139.223582 
L 276.958194 137.234076 
L 280.780278 143.494573 
L 284.466099 139.670315 
L 288.025041 138.551689 
L 291.465549 147.34614 
L 294.795252 135.568672 
L 298.021064 136.828337 
L 301.149274 142.593043 
L 304.185615 138.770613 
L 307.135328 132.37842 
L 310.003221 143.590721 
L 312.793709 141.122952 
L 315.510863 133.967727 
L 318.158437 140.058142 
L 320.739907 138.965969 
L 323.258492 137.233558 
L 325.717185 143.72801 
L 328.118768 147.718356 
L 330.465834 129.954194 
L 332.760802 138.889149 
L 335.005936 149.574487 
L 337.203354 136.287027 
L 339.355042 140.827878 
L 341.462865 151.46811 
L 353.28 150.358111 
L 370.393668 149.778917 
L 385.072943 147.404343 
L 397.924933 149.126272 
L 409.354613 151.812588 
L 419.645657 137.297163 
L 429.004519 146.556656 
L 437.586137 149.593951 
L 445.50977 144.800634 
L 452.869171 145.787778 
L 459.739384 160.175986 
L 466.181408 159.356857 
L 472.245501 147.633998 
L 477.973559 150.282931 
L 483.400877 152.592196 
L 488.557466 142.913176 
L 493.469057 163.407712 
L 498.157878 149.063267 
L 502.643263 158.327892 
L 506.942134 161.367371 
L 511.069385 161.642606 
L 515.038194 156.292708 
L 518.860278 162.388176 
L 522.546099 163.113337 
L 526.105041 161.463857 
L 529.545549 142.890242 
L 532.875252 144.826652 
L 536.101064 164.460513 
L 539.229274 150.172413 
L 542.265615 168.004272 
L 545.215328 173.509645 
L 548.083221 158.855861 
L 550.873709 168.153435 
L 553.590863 174.264194 
L 556.238437 184.548539 
L 558.819907 174.560905 
L 561.338492 181.672117 
L 563.797185 173.762396 
L 566.198768 178.34551 
L 568.545834 176.643553 
L 570.840802 163.446391 
L 573.085936 191.101291 
L 575.283354 170.943129 
L 577.435042 184.008499 
L 579.542865 183.325027 
L 591.36 201.128885 
L 608.473668 219.015842 
L 623.152943 193.899401 
L 636.004933 207.355242 
L 647.434613 203.425001 
L 657.725657 207.380309 
L 667.084519 233.30418 
L 675.666137 231.923518 
L 683.58977 219.997043 
L 690.949171 249.106816 
L 697.819384 215.970372 
L 704.261408 284.768729 
L 710.325501 257.11629 
L 716.053559 267.73697 
L 721.480877 269.923591 
L 726.637466 244.995123 
L 731.549057 300.726797 
L 736.237878 463.600438 
L 740.723263 265.199219 
L 745.022134 325.970253 
L 749.149385 304.470593 
L 753.118194 281.46118 
L 756.940278 255.193235 
L 760.626099 279.665735 
L 764.185041 335.161056 
L 767.625549 351.459492 
L 770.955252 342.917004 
L 774.181064 330.358354 
L 777.309274 367.424628 
L 780.345615 261.313422 
L 783.295328 430.44042 
L 786.163221 372.5187 
L 788.953709 359.853648 
L 791.670863 433.134833 
L 794.318437 411.749212 
L 796.899907 382.691194 
L 799.418492 449.981928 
L 801.877185 522.026163 
L 804.278768 423.726749 
L 806.625834 461.11885 
L 808.920802 435.585061 
L 811.165936 462.608293 
L 813.363354 550.367419 
L 815.515042 406.503007 
L 817.622865 452.726683 
L 819.688575 482.22738 
L 821.713822 490.319868 
L 823.700162 497.562278 
L 825.64906 537.682337 
L 827.561903 541.983823 
L 827.561903 541.983823 
" style="fill:none;stroke:#147f2a;stroke-linecap:square;"/>
   </g>
   <g id="patch_3">
    <path d="M 115.2 64.08 
L 829.44 64.08 
" style="fill:none;stroke:#000000;stroke-linecap:square;stroke-linejoin:miter;"/>
   </g>
   <g id="patch_4">
    <path d="M 115.2 576.72 
L 829.44 576.72 
" style="fill:none;stroke:#000000;stroke-linecap:square;stroke-linejoin:miter;"/>
   </g>
   <g id="patch_5">
    <path d="M 115.2 576.72 
L 115.2 64.08 
" style="fill:none;stroke:#000000;stroke-linecap:square;stroke-linejoin:miter;"/>
   </g>
   <g id="patch_6">
    <path d="M 829.44 576.72 
L 829.44 64.08 
" style="fill:none;stroke:#000000;stroke-linecap:square;stroke-linejoin:miter;"/>
   </g>
   <g id="matplotlib.axis_1">
    <g id="xtick_1">
     <g id="line2d_11">
      <defs>
       <path d="M 0 0 
L 0 -4 
" id="m7cd7c00b9e" style="stroke:#000000;stroke-width:0.5;"/>
      </defs>
      <g>
       <use style="stroke:#000000;stroke-width:0.5;" x="115.2" xlink:href="#m7cd7c00b9e" y="576.72"/>
      </g>
     </g>
     <g id="line2d_12">
      <defs>
       <path d="M 0 0 
L 0 4 
" id="m4e0290b1e2" style="stroke:#000000;stroke-width:0.5;"/>
      </defs>
      <g>
       <use style="stroke:#000000;stroke-width:0.5;" x="115.2" xlink:href="#m4e0290b1e2" y="64.08"/>
      </g>
     </g>
     <g id="text_1">
      <!-- $\mathdefault{10^{-3}}$ -->
      <defs>
       <path d="M 31.78125 66.40625 
Q 24.171875 66.40625 20.328125 58.90625 
Q 16.5 51.421875 16.5 36.375 
Q 16.5 21.390625 20.328125 13.890625 
Q 24.171875 6.390625 31.78125 6.390625 
Q 39.453125 6.390625 43.28125 13.890625 
Q 47.125 21.390625 47.125 36.375 
Q 47.125 51.421875 43.28125 58.90625 
Q 39.453125 66.40625 31.78125 66.40625 
M 31.78125 74.21875 
Q 44.046875 74.21875 50.515625 64.515625 
Q 56.984375 54.828125 56.984375 36.375 
Q 56.984375 17.96875 50.515625 8.265625 
Q 44.046875 -1.421875 31.78125 -1.421875 
Q 19.53125 -1.421875 13.0625 8.265625 
Q 6.59375 17.96875 6.59375 36.375 
Q 6.59375 54.828125 13.0625 64.515625 
Q 19.53125 74.21875 31.78125 74.21875 
" id="BitstreamVeraSans-Roman-30"/>
       <path d="M 12.40625 8.296875 
L 28.515625 8.296875 
L 28.515625 63.921875 
L 10.984375 60.40625 
L 10.984375 69.390625 
L 28.421875 72.90625 
L 38.28125 72.90625 
L 38.28125 8.296875 
L 54.390625 8.296875 
L 54.390625 0 
L 12.40625 0 
z
" id="BitstreamVeraSans-Roman-31"/>
       <path d="M 4.890625 31.390625 
L 31.203125 31.390625 
L 31.203125 23.390625 
L 4.890625 23.390625 
z
" id="BitstreamVeraSans-Roman-2d"/>
       <path d="M 40.578125 39.3125 
Q 47.65625 37.796875 51.625 33 
Q 55.609375 28.21875 55.609375 21.1875 
Q 55.609375 10.40625 48.1875 4.484375 
Q 40.765625 -1.421875 27.09375 -1.421875 
Q 22.515625 -1.421875 17.65625 -0.515625 
Q 12.796875 0.390625 7.625 2.203125 
L 7.625 11.71875 
Q 11.71875 9.328125 16.59375 8.109375 
Q 21.484375 6.890625 26.8125 6.890625 
Q 36.078125 6.890625 40.9375 10.546875 
Q 45.796875 14.203125 45.796875 21.1875 
Q 45.796875 27.640625 41.28125 31.265625 
Q 36.765625 34.90625 28.71875 34.90625 
L 20.21875 34.90625 
L 20.21875 43.015625 
L 29.109375 43.015625 
Q 36.375 43.015625 40.234375 45.921875 
Q 44.09375 48.828125 44.09375 54.296875 
Q 44.09375 59.90625 40.109375 62.90625 
Q 36.140625 65.921875 28.71875 65.921875 
Q 24.65625 65.921875 20.015625 65.03125 
Q 15.375 64.15625 9.8125 62.3125 
L 9.8125 71.09375 
Q 15.4375 72.65625 20.34375 73.4375 
Q 25.25 74.21875 29.59375 74.21875 
Q 40.828125 74.21875 47.359375 69.109375 
Q 53.90625 64.015625 53.90625 55.328125 
Q 53.90625 49.265625 50.4375 45.09375 
Q 46.96875 40.921875 40.578125 39.3125 
" id="BitstreamVeraSans-Roman-33"/>
      </defs>
      <g transform="translate(102.54 590.464375)scale(0.12 -0.12)">
       <use transform="translate(0.0 0.796875)" xlink:href="#BitstreamVeraSans-Roman-31"/>
       <use transform="translate(63.623046875 0.796875)" xlink:href="#BitstreamVeraSans-Roman-30"/>
       <use transform="translate(132.75859375 48.046875)scale(0.7)" xlink:href="#BitstreamVeraSans-Roman-2d"/>
       <use transform="translate(158.0173828125 48.046875)scale(0.7)" xlink:href="#BitstreamVeraSans-Roman-33"/>
      </g>
     </g>
    </g>
    <g id="xtick_2">
     <g id="line2d_13">
      <g>
       <use style="stroke:#000000;stroke-width:0.5;" x="353.28" xlink:href="#m7cd7c00b9e" y="576.72"/>
      </g>
     </g>
     <g id="line2d_14">
      <g>
       <use style="stroke:#000000;stroke-width:0.5;" x="353.28" xlink:href="#m4e0290b1e2" y="64.08"/>
      </g>
     </g>
     <g id="text_2">
      <!-- $\mathdefault{10^{-2}}$ -->
      <defs>
       <path d="M 19.1875 8.296875 
L 53.609375 8.296875 
L 53.609375 0 
L 7.328125 0 
L 7.328125 8.296875 
Q 12.9375 14.109375 22.625 23.890625 
Q 32.328125 33.6875 34.8125 36.53125 
Q 39.546875 41.84375 41.421875 45.53125 
Q 43.3125 49.21875 43.3125 52.78125 
Q 43.3125 58.59375 39.234375 62.25 
Q 35.15625 65.921875 28.609375 65.921875 
Q 23.96875 65.921875 18.8125 64.3125 
Q 13.671875 62.703125 7.8125 59.421875 
L 7.8125 69.390625 
Q 13.765625 71.78125 18.9375 73 
Q 24.125 74.21875 28.421875 74.21875 
Q 39.75 74.21875 46.484375 68.546875 
Q 53.21875 62.890625 53.21875 53.421875 
Q 53.21875 48.921875 51.53125 44.890625 
Q 49.859375 40.875 45.40625 35.40625 
Q 44.1875 33.984375 37.640625 27.21875 
Q 31.109375 20.453125 19.1875 8.296875 
" id="BitstreamVeraSans-Roman-32"/>
      </defs>
      <g transform="translate(340.62 590.464375)scale(0.12 -0.12)">
       <use transform="translate(0.0 0.796875)" xlink:href="#BitstreamVeraSans-Roman-31"/>
       <use transform="translate(63.623046875 0.796875)" xlink:href="#BitstreamVeraSans-Roman-30"/>
       <use transform="translate(132.75859375 48.046875)scale(0.7)" xlink:href="#BitstreamVeraSans-Roman-2d"/>
       <use transform="translate(158.0173828125 48.046875)scale(0.7)" xlink:href="#BitstreamVeraSans-Roman-32"/>
      </g>
     </g>
    </g>
    <g id="xtick_3">
     <g id="line2d_15">
      <g>
       <use style="stroke:#000000;stroke-width:0.5;" x="591.36" xlink:href="#m7cd7c00b9e" y="576.72"/>
      </g>
     </g>
     <g id="line2d_16">
      <g>
       <use style="stroke:#000000;stroke-width:0.5;" x="591.36" xlink:href="#m4e0290b1e2" y="64.08"/>
      </g>
     </g>
     <g id="text_3">
      <!-- $\mathdefault{10^{-1}}$ -->
      <g transform="translate(578.7 590.344375)scale(0.12 -0.12)">
       <use transform="translate(0.0 0.7156250000000028)" xlink:href="#BitstreamVeraSans-Roman-31"/>
       <use transform="translate(63.623046875 0.7156250000000028)" xlink:href="#BitstreamVeraSans-Roman-30"/>
       <use transform="translate(132.75859375 47.965625)scale(0.7)" xlink:href="#BitstreamVeraSans-Roman-2d"/>
       <use transform="translate(158.0173828125 47.965625)scale(0.7)" xlink:href="#BitstreamVeraSans-Roman-31"/>
      </g>
     </g>
    </g>
    <g id="xtick_4">
     <g id="line2d_17">
      <g>
       <use style="stroke:#000000;stroke-width:0.5;" x="829.44" xlink:href="#m7cd7c00b9e" y="576.72"/>
      </g>
     </g>
     <g id="line2d_18">
      <g>
       <use style="stroke:#000000;stroke-width:0.5;" x="829.44" xlink:href="#m4e0290b1e2" y="64.08"/>
      </g>
     </g>
     <g id="text_4">
      <!-- $\mathdefault{10^{0}}$ -->
      <g transform="translate(818.28 590.464375)scale(0.12 -0.12)">
       <use transform="translate(0.0 0.796875)" xlink:href="#BitstreamVeraSans-Roman-31"/>
       <use transform="translate(63.623046875 0.796875)" xlink:href="#BitstreamVeraSans-Roman-30"/>
       <use transform="translate(132.75859375 48.046875)scale(0.7)" xlink:href="#BitstreamVeraSans-Roman-30"/>
      </g>
     </g>
    </g>
    <g id="xtick_5">
     <g id="line2d_19">
      <defs>
       <path d="M 0 0 
L 0 -2 
" id="m90e95332c3" style="stroke:#000000;stroke-width:0.5;"/>
      </defs>
      <g>
       <use style="stroke:#000000;stroke-width:0.5;" x="186.869221368" xlink:href="#m90e95332c3" y="576.72"/>
      </g>
     </g>
     <g id="line2d_20">
      <defs>
       <path d="M 0 0 
L 0 2 
" id="m5733a5f1d9" style="stroke:#000000;stroke-width:0.5;"/>
      </defs>
      <g>
       <use style="stroke:#000000;stroke-width:0.5;" x="186.869221368" xlink:href="#m5733a5f1d9" y="64.08"/>
      </g>
     </g>
    </g>
    <g id="xtick_6">
     <g id="line2d_21">
      <g>
       <use style="stroke:#000000;stroke-width:0.5;" x="228.793028324" xlink:href="#m90e95332c3" y="576.72"/>
      </g>
     </g>
     <g id="line2d_22">
      <g>
       <use style="stroke:#000000;stroke-width:0.5;" x="228.793028324" xlink:href="#m5733a5f1d9" y="64.08"/>
      </g>
     </g>
    </g>
    <g id="xtick_7">
     <g id="line2d_23">
      <g>
       <use style="stroke:#000000;stroke-width:0.5;" x="258.538442735" xlink:href="#m90e95332c3" y="576.72"/>
      </g>
     </g>
     <g id="line2d_24">
      <g>
       <use style="stroke:#000000;stroke-width:0.5;" x="258.538442735" xlink:href="#m5733a5f1d9" y="64.08"/>
      </g>
     </g>
    </g>
    <g id="xtick_8">
     <g id="line2d_25">
      <g>
       <use style="stroke:#000000;stroke-width:0.5;" x="281.610778632" xlink:href="#m90e95332c3" y="576.72"/>
      </g>
     </g>
     <g id="line2d_26">
      <g>
       <use style="stroke:#000000;stroke-width:0.5;" x="281.610778632" xlink:href="#m5733a5f1d9" y="64.08"/>
      </g>
     </g>
    </g>
    <g id="xtick_9">
     <g id="line2d_27">
      <g>
       <use style="stroke:#000000;stroke-width:0.5;" x="300.462249691" xlink:href="#m90e95332c3" y="576.72"/>
      </g>
     </g>
     <g id="line2d_28">
      <g>
       <use style="stroke:#000000;stroke-width:0.5;" x="300.462249691" xlink:href="#m5733a5f1d9" y="64.08"/>
      </g>
     </g>
    </g>
    <g id="xtick_10">
     <g id="line2d_29">
      <g>
       <use style="stroke:#000000;stroke-width:0.5;" x="316.400941367" xlink:href="#m90e95332c3" y="576.72"/>
      </g>
     </g>
     <g id="line2d_30">
      <g>
       <use style="stroke:#000000;stroke-width:0.5;" x="316.400941367" xlink:href="#m5733a5f1d9" y="64.08"/>
      </g>
     </g>
    </g>
    <g id="xtick_11">
     <g id="line2d_31">
      <g>
       <use style="stroke:#000000;stroke-width:0.5;" x="330.207664103" xlink:href="#m90e95332c3" y="576.72"/>
      </g>
     </g>
     <g id="line2d_32">
      <g>
       <use style="stroke:#000000;stroke-width:0.5;" x="330.207664103" xlink:href="#m5733a5f1d9" y="64.08"/>
      </g>
     </g>
    </g>
    <g id="xtick_12">
     <g id="line2d_33">
      <g>
       <use style="stroke:#000000;stroke-width:0.5;" x="342.386056647" xlink:href="#m90e95332c3" y="576.72"/>
      </g>
     </g>
     <g id="line2d_34">
      <g>
       <use style="stroke:#000000;stroke-width:0.5;" x="342.386056647" xlink:href="#m5733a5f1d9" y="64.08"/>
      </g>
     </g>
    </g>
    <g id="xtick_13">
     <g id="line2d_35">
      <g>
       <use style="stroke:#000000;stroke-width:0.5;" x="424.949221368" xlink:href="#m90e95332c3" y="576.72"/>
      </g>
     </g>
     <g id="line2d_36">
      <g>
       <use style="stroke:#000000;stroke-width:0.5;" x="424.949221368" xlink:href="#m5733a5f1d9" y="64.08"/>
      </g>
     </g>
    </g>
    <g id="xtick_14">
     <g id="line2d_37">
      <g>
       <use style="stroke:#000000;stroke-width:0.5;" x="466.873028324" xlink:href="#m90e95332c3" y="576.72"/>
      </g>
     </g>
     <g id="line2d_38">
      <g>
       <use style="stroke:#000000;stroke-width:0.5;" x="466.873028324" xlink:href="#m5733a5f1d9" y="64.08"/>
      </g>
     </g>
    </g>
    <g id="xtick_15">
     <g id="line2d_39">
      <g>
       <use style="stroke:#000000;stroke-width:0.5;" x="496.618442735" xlink:href="#m90e95332c3" y="576.72"/>
      </g>
     </g>
     <g id="line2d_40">
      <g>
       <use style="stroke:#000000;stroke-width:0.5;" x="496.618442735" xlink:href="#m5733a5f1d9" y="64.08"/>
      </g>
     </g>
    </g>
    <g id="xtick_16">
     <g id="line2d_41">
      <g>
       <use style="stroke:#000000;stroke-width:0.5;" x="519.690778632" xlink:href="#m90e95332c3" y="576.72"/>
      </g>
     </g>
     <g id="line2d_42">
      <g>
       <use style="stroke:#000000;stroke-width:0.5;" x="519.690778632" xlink:href="#m5733a5f1d9" y="64.08"/>
      </g>
     </g>
    </g>
    <g id="xtick_17">
     <g id="line2d_43">
      <g>
       <use style="stroke:#000000;stroke-width:0.5;" x="538.542249691" xlink:href="#m90e95332c3" y="576.72"/>
      </g>
     </g>
     <g id="line2d_44">
      <g>
       <use style="stroke:#000000;stroke-width:0.5;" x="538.542249691" xlink:href="#m5733a5f1d9" y="64.08"/>
      </g>
     </g>
    </g>
    <g id="xtick_18">
     <g id="line2d_45">
      <g>
       <use style="stroke:#000000;stroke-width:0.5;" x="554.480941367" xlink:href="#m90e95332c3" y="576.72"/>
      </g>
     </g>
     <g id="line2d_46">
      <g>
       <use style="stroke:#000000;stroke-width:0.5;" x="554.480941367" xlink:href="#m5733a5f1d9" y="64.08"/>
      </g>
     </g>
    </g>
    <g id="xtick_19">
     <g id="line2d_47">
      <g>
       <use style="stroke:#000000;stroke-width:0.5;" x="568.287664103" xlink:href="#m90e95332c3" y="576.72"/>
      </g>
     </g>
     <g id="line2d_48">
      <g>
       <use style="stroke:#000000;stroke-width:0.5;" x="568.287664103" xlink:href="#m5733a5f1d9" y="64.08"/>
      </g>
     </g>
    </g>
    <g id="xtick_20">
     <g id="line2d_49">
      <g>
       <use style="stroke:#000000;stroke-width:0.5;" x="580.466056647" xlink:href="#m90e95332c3" y="576.72"/>
      </g>
     </g>
     <g id="line2d_50">
      <g>
       <use style="stroke:#000000;stroke-width:0.5;" x="580.466056647" xlink:href="#m5733a5f1d9" y="64.08"/>
      </g>
     </g>
    </g>
    <g id="xtick_21">
     <g id="line2d_51">
      <g>
       <use style="stroke:#000000;stroke-width:0.5;" x="663.029221368" xlink:href="#m90e95332c3" y="576.72"/>
      </g>
     </g>
     <g id="line2d_52">
      <g>
       <use style="stroke:#000000;stroke-width:0.5;" x="663.029221368" xlink:href="#m5733a5f1d9" y="64.08"/>
      </g>
     </g>
    </g>
    <g id="xtick_22">
     <g id="line2d_53">
      <g>
       <use style="stroke:#000000;stroke-width:0.5;" x="704.953028324" xlink:href="#m90e95332c3" y="576.72"/>
      </g>
     </g>
     <g id="line2d_54">
      <g>
       <use style="stroke:#000000;stroke-width:0.5;" x="704.953028324" xlink:href="#m5733a5f1d9" y="64.08"/>
      </g>
     </g>
    </g>
    <g id="xtick_23">
     <g id="line2d_55">
      <g>
       <use style="stroke:#000000;stroke-width:0.5;" x="734.698442735" xlink:href="#m90e95332c3" y="576.72"/>
      </g>
     </g>
     <g id="line2d_56">
      <g>
       <use style="stroke:#000000;stroke-width:0.5;" x="734.698442735" xlink:href="#m5733a5f1d9" y="64.08"/>
      </g>
     </g>
    </g>
    <g id="xtick_24">
     <g id="line2d_57">
      <g>
       <use style="stroke:#000000;stroke-width:0.5;" x="757.770778632" xlink:href="#m90e95332c3" y="576.72"/>
      </g>
     </g>
     <g id="line2d_58">
      <g>
       <use style="stroke:#000000;stroke-width:0.5;" x="757.770778632" xlink:href="#m5733a5f1d9" y="64.08"/>
      </g>
     </g>
    </g>
    <g id="xtick_25">
     <g id="line2d_59">
      <g>
       <use style="stroke:#000000;stroke-width:0.5;" x="776.622249691" xlink:href="#m90e95332c3" y="576.72"/>
      </g>
     </g>
     <g id="line2d_60">
      <g>
       <use style="stroke:#000000;stroke-width:0.5;" x="776.622249691" xlink:href="#m5733a5f1d9" y="64.08"/>
      </g>
     </g>
    </g>
    <g id="xtick_26">
     <g id="line2d_61">
      <g>
       <use style="stroke:#000000;stroke-width:0.5;" x="792.560941367" xlink:href="#m90e95332c3" y="576.72"/>
      </g>
     </g>
     <g id="line2d_62">
      <g>
       <use style="stroke:#000000;stroke-width:0.5;" x="792.560941367" xlink:href="#m5733a5f1d9" y="64.08"/>
      </g>
     </g>
    </g>
    <g id="xtick_27">
     <g id="line2d_63">
      <g>
       <use style="stroke:#000000;stroke-width:0.5;" x="806.367664103" xlink:href="#m90e95332c3" y="576.72"/>
      </g>
     </g>
     <g id="line2d_64">
      <g>
       <use style="stroke:#000000;stroke-width:0.5;" x="806.367664103" xlink:href="#m5733a5f1d9" y="64.08"/>
      </g>
     </g>
    </g>
    <g id="xtick_28">
     <g id="line2d_65">
      <g>
       <use style="stroke:#000000;stroke-width:0.5;" x="818.546056647" xlink:href="#m90e95332c3" y="576.72"/>
      </g>
     </g>
     <g id="line2d_66">
      <g>
       <use style="stroke:#000000;stroke-width:0.5;" x="818.546056647" xlink:href="#m5733a5f1d9" y="64.08"/>
      </g>
     </g>
    </g>
   </g>
   <g id="matplotlib.axis_2">
    <g id="ytick_1">
     <g id="line2d_67">
      <defs>
       <path d="M 0 0 
L 4 0 
" id="m8627643117" style="stroke:#000000;stroke-width:0.5;"/>
      </defs>
      <g>
       <use style="stroke:#000000;stroke-width:0.5;" x="115.2" xlink:href="#m8627643117" y="576.72"/>
      </g>
     </g>
     <g id="line2d_68">
      <defs>
       <path d="M 0 0 
L -4 0 
" id="m59c5d69c40" style="stroke:#000000;stroke-width:0.5;"/>
      </defs>
      <g>
       <use style="stroke:#000000;stroke-width:0.5;" x="829.44" xlink:href="#m59c5d69c40" y="576.72"/>
      </g>
     </g>
     <g id="text_5">
      <!-- 8 -->
      <defs>
       <path d="M 31.78125 34.625 
Q 24.75 34.625 20.71875 30.859375 
Q 16.703125 27.09375 16.703125 20.515625 
Q 16.703125 13.921875 20.71875 10.15625 
Q 24.75 6.390625 31.78125 6.390625 
Q 38.8125 6.390625 42.859375 10.171875 
Q 46.921875 13.96875 46.921875 20.515625 
Q 46.921875 27.09375 42.890625 30.859375 
Q 38.875 34.625 31.78125 34.625 
M 21.921875 38.8125 
Q 15.578125 40.375 12.03125 44.71875 
Q 8.5 49.078125 8.5 55.328125 
Q 8.5 64.0625 14.71875 69.140625 
Q 20.953125 74.21875 31.78125 74.21875 
Q 42.671875 74.21875 48.875 69.140625 
Q 55.078125 64.0625 55.078125 55.328125 
Q 55.078125 49.078125 51.53125 44.71875 
Q 48 40.375 41.703125 38.8125 
Q 48.828125 37.15625 52.796875 32.3125 
Q 56.78125 27.484375 56.78125 20.515625 
Q 56.78125 9.90625 50.3125 4.234375 
Q 43.84375 -1.421875 31.78125 -1.421875 
Q 19.734375 -1.421875 13.25 4.234375 
Q 6.78125 9.90625 6.78125 20.515625 
Q 6.78125 27.484375 10.78125 32.3125 
Q 14.796875 37.15625 21.921875 38.8125 
M 18.3125 54.390625 
Q 18.3125 48.734375 21.84375 45.5625 
Q 25.390625 42.390625 31.78125 42.390625 
Q 38.140625 42.390625 41.71875 45.5625 
Q 45.3125 48.734375 45.3125 54.390625 
Q 45.3125 60.0625 41.71875 63.234375 
Q 38.140625 66.40625 31.78125 66.40625 
Q 25.390625 66.40625 21.84375 63.234375 
Q 18.3125 60.0625 18.3125 54.390625 
" id="BitstreamVeraSans-Roman-38"/>
       <path d="M 10.59375 35.5 
L 73.1875 35.5 
L 73.1875 27.203125 
L 10.59375 27.203125 
z
" id="BitstreamVeraSans-Roman-2212"/>
      </defs>
      <g transform="translate(93.509375 580.03125)scale(0.12 -0.12)">
       <use xlink:href="#BitstreamVeraSans-Roman-2212"/>
       <use x="83.7890625" xlink:href="#BitstreamVeraSans-Roman-38"/>
      </g>
     </g>
    </g>
    <g id="ytick_2">
     <g id="line2d_69">
      <g>
       <use style="stroke:#000000;stroke-width:0.5;" x="115.2" xlink:href="#m8627643117" y="519.76"/>
      </g>
     </g>
     <g id="line2d_70">
      <g>
       <use style="stroke:#000000;stroke-width:0.5;" x="829.44" xlink:href="#m59c5d69c40" y="519.76"/>
      </g>
     </g>
     <g id="text_6">
      <!-- 7 -->
      <defs>
       <path d="M 8.203125 72.90625 
L 55.078125 72.90625 
L 55.078125 68.703125 
L 28.609375 0 
L 18.3125 0 
L 43.21875 64.59375 
L 8.203125 64.59375 
z
" id="BitstreamVeraSans-Roman-37"/>
      </defs>
      <g transform="translate(93.509375 523.07125)scale(0.12 -0.12)">
       <use xlink:href="#BitstreamVeraSans-Roman-2212"/>
       <use x="83.7890625" xlink:href="#BitstreamVeraSans-Roman-37"/>
      </g>
     </g>
    </g>
    <g id="ytick_3">
     <g id="line2d_71">
      <g>
       <use style="stroke:#000000;stroke-width:0.5;" x="115.2" xlink:href="#m8627643117" y="462.8"/>
      </g>
     </g>
     <g id="line2d_72">
      <g>
       <use style="stroke:#000000;stroke-width:0.5;" x="829.44" xlink:href="#m59c5d69c40" y="462.8"/>
      </g>
     </g>
     <g id="text_7">
      <!-- 6 -->
      <defs>
       <path d="M 33.015625 40.375 
Q 26.375 40.375 22.484375 35.828125 
Q 18.609375 31.296875 18.609375 23.390625 
Q 18.609375 15.53125 22.484375 10.953125 
Q 26.375 6.390625 33.015625 6.390625 
Q 39.65625 6.390625 43.53125 10.953125 
Q 47.40625 15.53125 47.40625 23.390625 
Q 47.40625 31.296875 43.53125 35.828125 
Q 39.65625 40.375 33.015625 40.375 
M 52.59375 71.296875 
L 52.59375 62.3125 
Q 48.875 64.0625 45.09375 64.984375 
Q 41.3125 65.921875 37.59375 65.921875 
Q 27.828125 65.921875 22.671875 59.328125 
Q 17.53125 52.734375 16.796875 39.40625 
Q 19.671875 43.65625 24.015625 45.921875 
Q 28.375 48.1875 33.59375 48.1875 
Q 44.578125 48.1875 50.953125 41.515625 
Q 57.328125 34.859375 57.328125 23.390625 
Q 57.328125 12.15625 50.6875 5.359375 
Q 44.046875 -1.421875 33.015625 -1.421875 
Q 20.359375 -1.421875 13.671875 8.265625 
Q 6.984375 17.96875 6.984375 36.375 
Q 6.984375 53.65625 15.1875 63.9375 
Q 23.390625 74.21875 37.203125 74.21875 
Q 40.921875 74.21875 44.703125 73.484375 
Q 48.484375 72.75 52.59375 71.296875 
" id="BitstreamVeraSans-Roman-36"/>
      </defs>
      <g transform="translate(93.509375 466.11125)scale(0.12 -0.12)">
       <use xlink:href="#BitstreamVeraSans-Roman-2212"/>
       <use x="83.7890625" xlink:href="#BitstreamVeraSans-Roman-36"/>
      </g>
     </g>
    </g>
    <g id="ytick_4">
     <g id="line2d_73">
      <g>
       <use style="stroke:#000000;stroke-width:0.5;" x="115.2" xlink:href="#m8627643117" y="405.84"/>
      </g>
     </g>
     <g id="line2d_74">
      <g>
       <use style="stroke:#000000;stroke-width:0.5;" x="829.44" xlink:href="#m59c5d69c40" y="405.84"/>
      </g>
     </g>
     <g id="text_8">
      <!-- 5 -->
      <defs>
       <path d="M 10.796875 72.90625 
L 49.515625 72.90625 
L 49.515625 64.59375 
L 19.828125 64.59375 
L 19.828125 46.734375 
Q 21.96875 47.46875 24.109375 47.828125 
Q 26.265625 48.1875 28.421875 48.1875 
Q 40.625 48.1875 47.75 41.5 
Q 54.890625 34.8125 54.890625 23.390625 
Q 54.890625 11.625 47.5625 5.09375 
Q 40.234375 -1.421875 26.90625 -1.421875 
Q 22.3125 -1.421875 17.546875 -0.640625 
Q 12.796875 0.140625 7.71875 1.703125 
L 7.71875 11.625 
Q 12.109375 9.234375 16.796875 8.0625 
Q 21.484375 6.890625 26.703125 6.890625 
Q 35.15625 6.890625 40.078125 11.328125 
Q 45.015625 15.765625 45.015625 23.390625 
Q 45.015625 31 40.078125 35.4375 
Q 35.15625 39.890625 26.703125 39.890625 
Q 22.75 39.890625 18.8125 39.015625 
Q 14.890625 38.140625 10.796875 36.28125 
z
" id="BitstreamVeraSans-Roman-35"/>
      </defs>
      <g transform="translate(93.509375 409.15125)scale(0.12 -0.12)">
       <use xlink:href="#BitstreamVeraSans-Roman-2212"/>
       <use x="83.7890625" xlink:href="#BitstreamVeraSans-Roman-35"/>
      </g>
     </g>
    </g>
    <g id="ytick_5">
     <g id="line2d_75">
      <g>
       <use style="stroke:#000000;stroke-width:0.5;" x="115.2" xlink:href="#m8627643117" y="348.88"/>
      </g>
     </g>
     <g id="line2d_76">
      <g>
       <use style="stroke:#000000;stroke-width:0.5;" x="829.44" xlink:href="#m59c5d69c40" y="348.88"/>
      </g>
     </g>
     <g id="text_9">
      <!-- 4 -->
      <defs>
       <path d="M 37.796875 64.3125 
L 12.890625 25.390625 
L 37.796875 25.390625 
z
M 35.203125 72.90625 
L 47.609375 72.90625 
L 47.609375 25.390625 
L 58.015625 25.390625 
L 58.015625 17.1875 
L 47.609375 17.1875 
L 47.609375 0 
L 37.796875 0 
L 37.796875 17.1875 
L 4.890625 17.1875 
L 4.890625 26.703125 
z
" id="BitstreamVeraSans-Roman-34"/>
      </defs>
      <g transform="translate(93.509375 352.19125)scale(0.12 -0.12)">
       <use xlink:href="#BitstreamVeraSans-Roman-2212"/>
       <use x="83.7890625" xlink:href="#BitstreamVeraSans-Roman-34"/>
      </g>
     </g>
    </g>
    <g id="ytick_6">
     <g id="line2d_77">
      <g>
       <use style="stroke:#000000;stroke-width:0.5;" x="115.2" xlink:href="#m8627643117" y="291.92"/>
      </g>
     </g>
     <g id="line2d_78">
      <g>
       <use style="stroke:#000000;stroke-width:0.5;" x="829.44" xlink:href="#m59c5d69c40" y="291.92"/>
      </g>
     </g>
     <g id="text_10">
      <!-- 3 -->
      <g transform="translate(93.509375 295.23125)scale(0.12 -0.12)">
       <use xlink:href="#BitstreamVeraSans-Roman-2212"/>
       <use x="83.7890625" xlink:href="#BitstreamVeraSans-Roman-33"/>
      </g>
     </g>
    </g>
    <g id="ytick_7">
     <g id="line2d_79">
      <g>
       <use style="stroke:#000000;stroke-width:0.5;" x="115.2" xlink:href="#m8627643117" y="234.96"/>
      </g>
     </g>
     <g id="line2d_80">
      <g>
       <use style="stroke:#000000;stroke-width:0.5;" x="829.44" xlink:href="#m59c5d69c40" y="234.96"/>
      </g>
     </g>
     <g id="text_11">
      <!-- 2 -->
      <g transform="translate(93.509375 238.27125)scale(0.12 -0.12)">
       <use xlink:href="#BitstreamVeraSans-Roman-2212"/>
       <use x="83.7890625" xlink:href="#BitstreamVeraSans-Roman-32"/>
      </g>
     </g>
    </g>
    <g id="ytick_8">
     <g id="line2d_81">
      <g>
       <use style="stroke:#000000;stroke-width:0.5;" x="115.2" xlink:href="#m8627643117" y="178.0"/>
      </g>
     </g>
     <g id="line2d_82">
      <g>
       <use style="stroke:#000000;stroke-width:0.5;" x="829.44" xlink:href="#m59c5d69c40" y="178.0"/>
      </g>
     </g>
     <g id="text_12">
      <!-- 1 -->
      <g transform="translate(93.509375 181.31125)scale(0.12 -0.12)">
       <use xlink:href="#BitstreamVeraSans-Roman-2212"/>
       <use x="83.7890625" xlink:href="#BitstreamVeraSans-Roman-31"/>
      </g>
     </g>
    </g>
    <g id="ytick_9">
     <g id="line2d_83">
      <g>
       <use style="stroke:#000000;stroke-width:0.5;" x="115.2" xlink:href="#m8627643117" y="121.04"/>
      </g>
     </g>
     <g id="line2d_84">
      <g>
       <use style="stroke:#000000;stroke-width:0.5;" x="829.44" xlink:href="#m59c5d69c40" y="121.04"/>
      </g>
     </g>
     <g id="text_13">
      <!-- 0 -->
      <g transform="translate(103.565 124.35125)scale(0.12 -0.12)">
       <use xlink:href="#BitstreamVeraSans-Roman-30"/>
      </g>
     </g>
    </g>
    <g id="ytick_10">
     <g id="line2d_85">
      <g>
       <use style="stroke:#000000;stroke-width:0.5;" x="115.2" xlink:href="#m8627643117" y="64.08"/>
      </g>
     </g>
     <g id="line2d_86">
      <g>
       <use style="stroke:#000000;stroke-width:0.5;" x="829.44" xlink:href="#m59c5d69c40" y="64.08"/>
      </g>
     </g>
     <g id="text_14">
      <!-- 1 -->
      <g transform="translate(103.565 67.39125)scale(0.12 -0.12)">
       <use xlink:href="#BitstreamVeraSans-Roman-31"/>
      </g>
     </g>
    </g>
   </g>
   <g id="legend_1">
    <g id="patch_7">
     <path d="M 122.4 569.52 
L 257.98275 569.52 
L 257.98275 353.835 
L 122.4 353.835 
z
" style="fill:#ffffff;stroke:#000000;stroke-linejoin:miter;"/>
    </g>
    <g id="line2d_87">
     <path d="M 132.48 365.49675 
L 152.64 365.49675 
" style="fill:none;stroke:#ff1e1e;stroke-linecap:square;"/>
    </g>
    <g id="line2d_88"/>
    <g id="text_15">
     <!-- Std: 100.0 -->
     <defs>
      <path d="M 53.515625 70.515625 
L 53.515625 60.890625 
Q 47.90625 63.578125 42.921875 64.890625 
Q 37.9375 66.21875 33.296875 66.21875 
Q 25.25 66.21875 20.875 63.09375 
Q 16.5 59.96875 16.5 54.203125 
Q 16.5 49.359375 19.40625 46.890625 
Q 22.3125 44.4375 30.421875 42.921875 
L 36.375 41.703125 
Q 47.40625 39.59375 52.65625 34.296875 
Q 57.90625 29 57.90625 20.125 
Q 57.90625 9.515625 50.796875 4.046875 
Q 43.703125 -1.421875 29.984375 -1.421875 
Q 24.8125 -1.421875 18.96875 -0.25 
Q 13.140625 0.921875 6.890625 3.21875 
L 6.890625 13.375 
Q 12.890625 10.015625 18.65625 8.296875 
Q 24.421875 6.59375 29.984375 6.59375 
Q 38.421875 6.59375 43.015625 9.90625 
Q 47.609375 13.234375 47.609375 19.390625 
Q 47.609375 24.75 44.3125 27.78125 
Q 41.015625 30.8125 33.5 32.328125 
L 27.484375 33.5 
Q 16.453125 35.6875 11.515625 40.375 
Q 6.59375 45.0625 6.59375 53.421875 
Q 6.59375 63.09375 13.40625 68.65625 
Q 20.21875 74.21875 32.171875 74.21875 
Q 37.3125 74.21875 42.625 73.28125 
Q 47.953125 72.359375 53.515625 70.515625 
" id="BitstreamVeraSans-Roman-53"/>
      <path d="M 18.3125 70.21875 
L 18.3125 54.6875 
L 36.8125 54.6875 
L 36.8125 47.703125 
L 18.3125 47.703125 
L 18.3125 18.015625 
Q 18.3125 11.328125 20.140625 9.421875 
Q 21.96875 7.515625 27.59375 7.515625 
L 36.8125 7.515625 
L 36.8125 0 
L 27.59375 0 
Q 17.1875 0 13.234375 3.875 
Q 9.28125 7.765625 9.28125 18.015625 
L 9.28125 47.703125 
L 2.6875 47.703125 
L 2.6875 54.6875 
L 9.28125 54.6875 
L 9.28125 70.21875 
z
" id="BitstreamVeraSans-Roman-74"/>
      <path id="BitstreamVeraSans-Roman-20"/>
      <path d="M 11.71875 12.40625 
L 22.015625 12.40625 
L 22.015625 0 
L 11.71875 0 
z
M 11.71875 51.703125 
L 22.015625 51.703125 
L 22.015625 39.3125 
L 11.71875 39.3125 
z
" id="BitstreamVeraSans-Roman-3a"/>
      <path d="M 45.40625 46.390625 
L 45.40625 75.984375 
L 54.390625 75.984375 
L 54.390625 0 
L 45.40625 0 
L 45.40625 8.203125 
Q 42.578125 3.328125 38.25 0.953125 
Q 33.9375 -1.421875 27.875 -1.421875 
Q 17.96875 -1.421875 11.734375 6.484375 
Q 5.515625 14.40625 5.515625 27.296875 
Q 5.515625 40.1875 11.734375 48.09375 
Q 17.96875 56 27.875 56 
Q 33.9375 56 38.25 53.625 
Q 42.578125 51.265625 45.40625 46.390625 
M 14.796875 27.296875 
Q 14.796875 17.390625 18.875 11.75 
Q 22.953125 6.109375 30.078125 6.109375 
Q 37.203125 6.109375 41.296875 11.75 
Q 45.40625 17.390625 45.40625 27.296875 
Q 45.40625 37.203125 41.296875 42.84375 
Q 37.203125 48.484375 30.078125 48.484375 
Q 22.953125 48.484375 18.875 42.84375 
Q 14.796875 37.203125 14.796875 27.296875 
" id="BitstreamVeraSans-Roman-64"/>
      <path d="M 10.6875 12.40625 
L 21 12.40625 
L 21 0 
L 10.6875 0 
z
" id="BitstreamVeraSans-Roman-2e"/>
     </defs>
     <g transform="translate(168.48 370.53675)scale(0.144 -0.144)">
      <use xlink:href="#BitstreamVeraSans-Roman-53"/>
      <use x="63.4765625" xlink:href="#BitstreamVeraSans-Roman-74"/>
      <use x="102.685546875" xlink:href="#BitstreamVeraSans-Roman-64"/>
      <use x="166.162109375" xlink:href="#BitstreamVeraSans-Roman-3a"/>
      <use x="199.853515625" xlink:href="#BitstreamVeraSans-Roman-20"/>
      <use x="231.640625" xlink:href="#BitstreamVeraSans-Roman-31"/>
      <use x="295.263671875" xlink:href="#BitstreamVeraSans-Roman-30"/>
      <use x="358.88671875" xlink:href="#BitstreamVeraSans-Roman-30"/>
      <use x="422.509765625" xlink:href="#BitstreamVeraSans-Roman-2e"/>
      <use x="454.296875" xlink:href="#BitstreamVeraSans-Roman-30"/>
     </g>
    </g>
    <g id="line2d_89">
     <path d="M 132.48 386.63325 
L 152.64 386.63325 
" style="fill:none;stroke:#581845;stroke-linecap:square;"/>
    </g>
    <g id="line2d_90"/>
    <g id="text_16">
     <!-- Std: 200.0 -->
     <g transform="translate(168.48 391.67325)scale(0.144 -0.144)">
      <use xlink:href="#BitstreamVeraSans-Roman-53"/>
      <use x="63.4765625" xlink:href="#BitstreamVeraSans-Roman-74"/>
      <use x="102.685546875" xlink:href="#BitstreamVeraSans-Roman-64"/>
      <use x="166.162109375" xlink:href="#BitstreamVeraSans-Roman-3a"/>
      <use x="199.853515625" xlink:href="#BitstreamVeraSans-Roman-20"/>
      <use x="231.640625" xlink:href="#BitstreamVeraSans-Roman-32"/>
      <use x="295.263671875" xlink:href="#BitstreamVeraSans-Roman-30"/>
      <use x="358.88671875" xlink:href="#BitstreamVeraSans-Roman-30"/>
      <use x="422.509765625" xlink:href="#BitstreamVeraSans-Roman-2e"/>
      <use x="454.296875" xlink:href="#BitstreamVeraSans-Roman-30"/>
     </g>
    </g>
    <g id="line2d_91">
     <path d="M 132.48 407.76975 
L 152.64 407.76975 
" style="fill:none;stroke:#26b7d8;stroke-linecap:square;"/>
    </g>
    <g id="line2d_92"/>
    <g id="text_17">
     <!-- Std: 300.0 -->
     <g transform="translate(168.48 412.80975)scale(0.144 -0.144)">
      <use xlink:href="#BitstreamVeraSans-Roman-53"/>
      <use x="63.4765625" xlink:href="#BitstreamVeraSans-Roman-74"/>
      <use x="102.685546875" xlink:href="#BitstreamVeraSans-Roman-64"/>
      <use x="166.162109375" xlink:href="#BitstreamVeraSans-Roman-3a"/>
      <use x="199.853515625" xlink:href="#BitstreamVeraSans-Roman-20"/>
      <use x="231.640625" xlink:href="#BitstreamVeraSans-Roman-33"/>
      <use x="295.263671875" xlink:href="#BitstreamVeraSans-Roman-30"/>
      <use x="358.88671875" xlink:href="#BitstreamVeraSans-Roman-30"/>
      <use x="422.509765625" xlink:href="#BitstreamVeraSans-Roman-2e"/>
      <use x="454.296875" xlink:href="#BitstreamVeraSans-Roman-30"/>
     </g>
    </g>
    <g id="line2d_93">
     <path d="M 132.48 428.90625 
L 152.64 428.90625 
" style="fill:none;stroke:#8414a4;stroke-linecap:square;"/>
    </g>
    <g id="line2d_94"/>
    <g id="text_18">
     <!-- Std: 400.0 -->
     <g transform="translate(168.48 433.94625)scale(0.144 -0.144)">
      <use xlink:href="#BitstreamVeraSans-Roman-53"/>
      <use x="63.4765625" xlink:href="#BitstreamVeraSans-Roman-74"/>
      <use x="102.685546875" xlink:href="#BitstreamVeraSans-Roman-64"/>
      <use x="166.162109375" xlink:href="#BitstreamVeraSans-Roman-3a"/>
      <use x="199.853515625" xlink:href="#BitstreamVeraSans-Roman-20"/>
      <use x="231.640625" xlink:href="#BitstreamVeraSans-Roman-34"/>
      <use x="295.263671875" xlink:href="#BitstreamVeraSans-Roman-30"/>
      <use x="358.88671875" xlink:href="#BitstreamVeraSans-Roman-30"/>
      <use x="422.509765625" xlink:href="#BitstreamVeraSans-Roman-2e"/>
      <use x="454.296875" xlink:href="#BitstreamVeraSans-Roman-30"/>
     </g>
    </g>
    <g id="line2d_95">
     <path d="M 132.48 450.04275 
L 152.64 450.04275 
" style="fill:none;stroke:#ffd23a;stroke-linecap:square;"/>
    </g>
    <g id="line2d_96"/>
    <g id="text_19">
     <!-- Std: 500.0 -->
     <g transform="translate(168.48 455.08275)scale(0.144 -0.144)">
      <use xlink:href="#BitstreamVeraSans-Roman-53"/>
      <use x="63.4765625" xlink:href="#BitstreamVeraSans-Roman-74"/>
      <use x="102.685546875" xlink:href="#BitstreamVeraSans-Roman-64"/>
      <use x="166.162109375" xlink:href="#BitstreamVeraSans-Roman-3a"/>
      <use x="199.853515625" xlink:href="#BitstreamVeraSans-Roman-20"/>
      <use x="231.640625" xlink:href="#BitstreamVeraSans-Roman-35"/>
      <use x="295.263671875" xlink:href="#BitstreamVeraSans-Roman-30"/>
      <use x="358.88671875" xlink:href="#BitstreamVeraSans-Roman-30"/>
      <use x="422.509765625" xlink:href="#BitstreamVeraSans-Roman-2e"/>
      <use x="454.296875" xlink:href="#BitstreamVeraSans-Roman-30"/>
     </g>
    </g>
    <g id="line2d_97">
     <path d="M 132.48 471.17925 
L 152.64 471.17925 
" style="fill:none;stroke:#ff9300;stroke-linecap:square;"/>
    </g>
    <g id="line2d_98"/>
    <g id="text_20">
     <!-- Std: 600.0 -->
     <g transform="translate(168.48 476.21925)scale(0.144 -0.144)">
      <use xlink:href="#BitstreamVeraSans-Roman-53"/>
      <use x="63.4765625" xlink:href="#BitstreamVeraSans-Roman-74"/>
      <use x="102.685546875" xlink:href="#BitstreamVeraSans-Roman-64"/>
      <use x="166.162109375" xlink:href="#BitstreamVeraSans-Roman-3a"/>
      <use x="199.853515625" xlink:href="#BitstreamVeraSans-Roman-20"/>
      <use x="231.640625" xlink:href="#BitstreamVeraSans-Roman-36"/>
      <use x="295.263671875" xlink:href="#BitstreamVeraSans-Roman-30"/>
      <use x="358.88671875" xlink:href="#BitstreamVeraSans-Roman-30"/>
      <use x="422.509765625" xlink:href="#BitstreamVeraSans-Roman-2e"/>
      <use x="454.296875" xlink:href="#BitstreamVeraSans-Roman-30"/>
     </g>
    </g>
    <g id="line2d_99">
     <path d="M 132.48 492.31575 
L 152.64 492.31575 
" style="fill:none;stroke:#f50fe6;stroke-linecap:square;"/>
    </g>
    <g id="line2d_100"/>
    <g id="text_21">
     <!-- Std: 700.0 -->
     <g transform="translate(168.48 497.35575)scale(0.144 -0.144)">
      <use xlink:href="#BitstreamVeraSans-Roman-53"/>
      <use x="63.4765625" xlink:href="#BitstreamVeraSans-Roman-74"/>
      <use x="102.685546875" xlink:href="#BitstreamVeraSans-Roman-64"/>
      <use x="166.162109375" xlink:href="#BitstreamVeraSans-Roman-3a"/>
      <use x="199.853515625" xlink:href="#BitstreamVeraSans-Roman-20"/>
      <use x="231.640625" xlink:href="#BitstreamVeraSans-Roman-37"/>
      <use x="295.263671875" xlink:href="#BitstreamVeraSans-Roman-30"/>
      <use x="358.88671875" xlink:href="#BitstreamVeraSans-Roman-30"/>
      <use x="422.509765625" xlink:href="#BitstreamVeraSans-Roman-2e"/>
      <use x="454.296875" xlink:href="#BitstreamVeraSans-Roman-30"/>
     </g>
    </g>
    <g id="line2d_101">
     <path d="M 132.48 513.45225 
L 152.64 513.45225 
" style="fill:none;stroke:#1000a0;stroke-linecap:square;"/>
    </g>
    <g id="line2d_102"/>
    <g id="text_22">
     <!-- Std: 800.0 -->
     <g transform="translate(168.48 518.49225)scale(0.144 -0.144)">
      <use xlink:href="#BitstreamVeraSans-Roman-53"/>
      <use x="63.4765625" xlink:href="#BitstreamVeraSans-Roman-74"/>
      <use x="102.685546875" xlink:href="#BitstreamVeraSans-Roman-64"/>
      <use x="166.162109375" xlink:href="#BitstreamVeraSans-Roman-3a"/>
      <use x="199.853515625" xlink:href="#BitstreamVeraSans-Roman-20"/>
      <use x="231.640625" xlink:href="#BitstreamVeraSans-Roman-38"/>
      <use x="295.263671875" xlink:href="#BitstreamVeraSans-Roman-30"/>
      <use x="358.88671875" xlink:href="#BitstreamVeraSans-Roman-30"/>
      <use x="422.509765625" xlink:href="#BitstreamVeraSans-Roman-2e"/>
      <use x="454.296875" xlink:href="#BitstreamVeraSans-Roman-30"/>
     </g>
    </g>
    <g id="line2d_103">
     <path d="M 132.48 534.58875 
L 152.64 534.58875 
" style="fill:none;stroke:#595866;stroke-linecap:square;"/>
    </g>
    <g id="line2d_104"/>
    <g id="text_23">
     <!-- Std: 900.0 -->
     <defs>
      <path d="M 10.984375 1.515625 
L 10.984375 10.5 
Q 14.703125 8.734375 18.5 7.8125 
Q 22.3125 6.890625 25.984375 6.890625 
Q 35.75 6.890625 40.890625 13.453125 
Q 46.046875 20.015625 46.78125 33.40625 
Q 43.953125 29.203125 39.59375 26.953125 
Q 35.25 24.703125 29.984375 24.703125 
Q 19.046875 24.703125 12.671875 31.3125 
Q 6.296875 37.9375 6.296875 49.421875 
Q 6.296875 60.640625 12.9375 67.421875 
Q 19.578125 74.21875 30.609375 74.21875 
Q 43.265625 74.21875 49.921875 64.515625 
Q 56.59375 54.828125 56.59375 36.375 
Q 56.59375 19.140625 48.40625 8.859375 
Q 40.234375 -1.421875 26.421875 -1.421875 
Q 22.703125 -1.421875 18.890625 -0.6875 
Q 15.09375 0.046875 10.984375 1.515625 
M 30.609375 32.421875 
Q 37.25 32.421875 41.125 36.953125 
Q 45.015625 41.5 45.015625 49.421875 
Q 45.015625 57.28125 41.125 61.84375 
Q 37.25 66.40625 30.609375 66.40625 
Q 23.96875 66.40625 20.09375 61.84375 
Q 16.21875 57.28125 16.21875 49.421875 
Q 16.21875 41.5 20.09375 36.953125 
Q 23.96875 32.421875 30.609375 32.421875 
" id="BitstreamVeraSans-Roman-39"/>
     </defs>
     <g transform="translate(168.48 539.62875)scale(0.144 -0.144)">
      <use xlink:href="#BitstreamVeraSans-Roman-53"/>
      <use x="63.4765625" xlink:href="#BitstreamVeraSans-Roman-74"/>
      <use x="102.685546875" xlink:href="#BitstreamVeraSans-Roman-64"/>
      <use x="166.162109375" xlink:href="#BitstreamVeraSans-Roman-3a"/>
      <use x="199.853515625" xlink:href="#BitstreamVeraSans-Roman-20"/>
      <use x="231.640625" xlink:href="#BitstreamVeraSans-Roman-39"/>
      <use x="295.263671875" xlink:href="#BitstreamVeraSans-Roman-30"/>
      <use x="358.88671875" xlink:href="#BitstreamVeraSans-Roman-30"/>
      <use x="422.509765625" xlink:href="#BitstreamVeraSans-Roman-2e"/>
      <use x="454.296875" xlink:href="#BitstreamVeraSans-Roman-30"/>
     </g>
    </g>
    <g id="line2d_105">
     <path d="M 132.48 555.72525 
L 152.64 555.72525 
" style="fill:none;stroke:#147f2a;stroke-linecap:square;"/>
    </g>
    <g id="line2d_106"/>
    <g id="text_24">
     <!-- Std: 1000.0 -->
     <g transform="translate(168.48 560.76525)scale(0.144 -0.144)">
      <use xlink:href="#BitstreamVeraSans-Roman-53"/>
      <use x="63.4765625" xlink:href="#BitstreamVeraSans-Roman-74"/>
      <use x="102.685546875" xlink:href="#BitstreamVeraSans-Roman-64"/>
      <use x="166.162109375" xlink:href="#BitstreamVeraSans-Roman-3a"/>
      <use x="199.853515625" xlink:href="#BitstreamVeraSans-Roman-20"/>
      <use x="231.640625" xlink:href="#BitstreamVeraSans-Roman-31"/>
      <use x="295.263671875" xlink:href="#BitstreamVeraSans-Roman-30"/>
      <use x="358.88671875" xlink:href="#BitstreamVeraSans-Roman-30"/>
      <use x="422.509765625" xlink:href="#BitstreamVeraSans-Roman-30"/>
      <use x="486.1328125" xlink:href="#BitstreamVeraSans-Roman-2e"/>
      <use x="517.919921875" xlink:href="#BitstreamVeraSans-Roman-30"/>
     </g>
    </g>
   </g>
  </g>
 </g>
 <defs>
  <clipPath id="pd6100cb0ba">
   <rect height="512.64" width="714.24" x="115.2" y="64.08"/>
  </clipPath>
 </defs>
</svg>
