<?xml version="1.0" encoding="utf-8" standalone="no"?>
<!DOCTYPE svg PUBLIC "-//W3C//DTD SVG 1.1//EN"
  "http://www.w3.org/Graphics/SVG/1.1/DTD/svg11.dtd">
<!-- Created with matplotlib (http://matplotlib.org/) -->
<svg height="612pt" version="1.1" viewBox="0 0 921 612" width="921pt" xmlns="http://www.w3.org/2000/svg" xmlns:xlink="http://www.w3.org/1999/xlink">
 <defs>
  <style type="text/css">
*{stroke-linecap:butt;stroke-linejoin:round;stroke-miterlimit:100000;}
  </style>
 </defs>
 <g id="figure_1">
  <g id="patch_1">
   <path d="M 0 612.9 
L 921.6 612.9 
L 921.6 0 
L 0 0 
z
" style="fill:#ffffff;"/>
  </g>
  <g id="axes_1">
   <g id="patch_2">
    <path d="M 115.2 551.61 
L 829.44 551.61 
L 829.44 61.29 
L 115.2 61.29 
z
" style="fill:#ffffff;"/>
   </g>
   <g id="line2d_1">
    <path clip-path="url(#pd5473f3234)" d="M 115.2 117.140048 
L 132.313668 118.47523 
L 146.992943 117.741839 
L 171.274613 118.22478 
L 181.565657 119.071189 
L 190.924519 118.238885 
L 199.506137 119.507653 
L 207.42977 118.361408 
L 221.659384 120.046211 
L 228.101408 120.30994 
L 234.165501 120.683601 
L 239.893559 120.380483 
L 245.320877 120.857774 
L 250.477466 121.191374 
L 255.389057 121.889235 
L 260.077878 121.22832 
L 264.563263 122.633803 
L 268.862134 121.293303 
L 272.989385 122.176583 
L 276.958194 124.076613 
L 280.780278 123.470279 
L 284.466099 123.254716 
L 288.025041 124.156112 
L 294.795252 123.394622 
L 301.149274 125.626756 
L 304.185615 124.864553 
L 310.003221 125.49385 
L 312.793709 124.679091 
L 315.510863 126.628172 
L 318.158437 126.668718 
L 320.739907 124.723881 
L 323.258492 126.138881 
L 325.717185 125.800673 
L 328.118768 126.890419 
L 330.465834 128.3422 
L 332.760802 127.968176 
L 335.005936 127.30593 
L 337.203354 129.336168 
L 339.355042 130.257543 
L 341.462865 130.16076 
L 353.28 132.283264 
L 370.393668 131.697825 
L 385.072943 131.399664 
L 397.924933 133.466682 
L 409.354613 142.424062 
L 419.645657 154.663315 
L 429.004519 163.309118 
L 437.586137 176.708954 
L 445.50977 185.903149 
L 452.869171 193.161176 
L 459.739384 198.692428 
L 466.181408 204.985054 
L 472.245501 200.1813 
L 477.973559 204.20936 
L 483.400877 198.171388 
L 488.557466 196.501211 
L 493.469057 192.309354 
L 498.157878 193.35594 
L 502.643263 191.886805 
L 506.942134 190.771548 
L 511.069385 192.216743 
L 515.038194 198.243138 
L 518.860278 198.90329 
L 522.546099 199.107621 
L 526.105041 206.373635 
L 529.545549 200.698087 
L 532.875252 210.267479 
L 536.101064 211.274436 
L 539.229274 207.899041 
L 542.265615 206.8962 
L 545.215328 208.647704 
L 548.083221 208.378137 
L 550.873709 206.530625 
L 553.590863 211.61748 
L 556.238437 205.864999 
L 558.819907 204.422909 
L 561.338492 210.56443 
L 563.797185 212.693811 
L 566.198768 209.178985 
L 568.545834 204.753482 
L 570.840802 208.230483 
L 573.085936 215.337569 
L 575.283354 206.908367 
L 577.435042 203.882261 
L 579.542865 208.797903 
L 591.36 214.015037 
L 608.473668 217.036253 
L 623.152943 214.085995 
L 636.004933 216.126927 
L 647.434613 246.072734 
L 657.725657 251.715917 
L 667.084519 224.395583 
L 675.666137 229.371785 
L 683.58977 221.693792 
L 690.949171 243.860952 
L 697.819384 257.545459 
L 704.261408 278.417776 
L 710.325501 267.662692 
L 716.053559 261.569379 
L 721.480877 245.576494 
L 726.637466 189.571524 
L 731.549057 273.838544 
L 736.237878 287.398466 
L 740.723263 277.390668 
L 745.022134 247.882532 
L 749.149385 260.552887 
L 753.118194 242.670707 
L 756.940278 277.452479 
L 760.626099 263.080434 
L 764.185041 228.826134 
L 767.625549 237.433273 
L 770.955252 293.329313 
L 774.181064 283.212421 
L 777.309274 258.881315 
L 780.345615 337.880502 
L 783.295328 228.672245 
L 786.163221 311.721913 
L 788.953709 441.858954 
L 791.670863 514.129465 
L 794.318437 513.248807 
L 796.899907 466.82663 
L 799.418492 343.564498 
L 801.877185 316.058212 
L 804.278768 257.234078 
L 806.625834 362.868608 
L 808.920802 357.117301 
L 811.165936 367.131695 
L 813.363354 247.70266 
L 815.515042 531.50206 
L 817.622865 426.275176 
L 819.688575 240.416321 
L 821.713822 298.723945 
L 823.700162 390.017743 
L 825.64906 343.796659 
L 827.561903 268.99511 
L 827.561903 268.99511 
" style="fill:none;stroke:#ff1e1e;stroke-linecap:square;"/>
   </g>
   <g id="line2d_2">
    <path clip-path="url(#pd5473f3234)" d="M 115.2 117.898563 
L 132.313668 116.226787 
L 146.992943 119.432002 
L 159.844933 118.475609 
L 171.274613 118.084778 
L 181.565657 119.937452 
L 190.924519 119.722834 
L 199.506137 120.381153 
L 207.42977 119.264914 
L 214.789171 121.07018 
L 221.659384 123.013623 
L 228.101408 120.033706 
L 234.165501 121.701858 
L 239.893559 124.178561 
L 245.320877 120.760695 
L 250.477466 122.391548 
L 255.389057 122.802766 
L 260.077878 125.38986 
L 264.563263 122.905247 
L 272.989385 122.644911 
L 276.958194 124.164275 
L 280.780278 124.351972 
L 284.466099 124.34935 
L 288.025041 124.461025 
L 291.465549 127.334532 
L 294.795252 125.908846 
L 298.021064 125.351237 
L 301.149274 127.313977 
L 304.185615 128.840473 
L 307.135328 126.085266 
L 310.003221 127.870346 
L 312.793709 126.351138 
L 315.510863 127.490871 
L 318.158437 128.373188 
L 320.739907 128.828059 
L 325.717185 128.617682 
L 328.118768 128.244966 
L 330.465834 130.01028 
L 332.760802 129.955617 
L 335.005936 130.208155 
L 337.203354 131.355896 
L 339.355042 130.097965 
L 341.462865 130.233457 
L 353.28 134.374359 
L 370.393668 135.358183 
L 385.072943 136.809616 
L 397.924933 140.550886 
L 409.354613 145.116353 
L 419.645657 145.635014 
L 429.004519 151.6491 
L 437.586137 154.961693 
L 445.50977 162.150656 
L 452.869171 162.20023 
L 459.739384 169.238156 
L 466.181408 172.676541 
L 472.245501 178.578194 
L 477.973559 186.15095 
L 483.400877 189.421227 
L 488.557466 191.566552 
L 493.469057 191.213087 
L 498.157878 195.654431 
L 502.643263 198.078984 
L 506.942134 199.84353 
L 511.069385 194.226525 
L 515.038194 195.798094 
L 518.860278 196.79373 
L 522.546099 204.465861 
L 526.105041 202.132521 
L 529.545549 196.095327 
L 532.875252 200.20893 
L 536.101064 201.358827 
L 539.229274 204.97817 
L 542.265615 205.575879 
L 545.215328 199.634367 
L 548.083221 199.610075 
L 550.873709 199.715778 
L 553.590863 205.318486 
L 556.238437 198.349956 
L 558.819907 201.969525 
L 561.338492 203.268382 
L 563.797185 207.387666 
L 566.198768 194.205181 
L 568.545834 203.253873 
L 570.840802 191.853879 
L 573.085936 191.134521 
L 575.283354 199.172281 
L 577.435042 212.562744 
L 579.542865 206.814419 
L 591.36 213.412052 
L 608.473668 212.666187 
L 623.152943 208.757686 
L 636.004933 220.689404 
L 647.434613 213.810427 
L 657.725657 233.055916 
L 667.084519 247.30833 
L 675.666137 250.952802 
L 683.58977 235.661734 
L 690.949171 213.967896 
L 697.819384 211.534798 
L 704.261408 220.274924 
L 710.325501 227.073394 
L 716.053559 225.203528 
L 721.480877 237.61179 
L 726.637466 342.557081 
L 731.549057 262.636249 
L 736.237878 222.052716 
L 740.723263 257.545605 
L 745.022134 450.914571 
L 749.149385 237.511335 
L 753.118194 256.998687 
L 756.940278 312.354864 
L 760.626099 374.717659 
L 764.185041 295.056797 
L 767.625549 284.875704 
L 774.181064 311.656634 
L 777.309274 329.43515 
L 780.345615 254.263713 
L 783.295328 347.878628 
L 786.163221 249.243315 
L 788.953709 280.227361 
L 791.670863 220.41156 
L 794.318437 251.43248 
L 796.899907 311.550073 
L 799.418492 438.610417 
L 801.877185 292.613244 
L 804.278768 244.447737 
L 806.625834 326.052739 
L 808.920802 396.04435 
L 811.165936 532.027398 
L 813.363354 530.253417 
L 815.515042 317.822089 
L 817.622865 223.528564 
L 819.688575 330.754534 
L 821.713822 353.200759 
L 823.700162 459.017045 
L 825.64906 299.101364 
L 827.561903 480.71707 
L 827.561903 480.71707 
" style="fill:none;stroke:#581845;stroke-linecap:square;"/>
   </g>
   <g id="line2d_3">
    <path clip-path="url(#pd5473f3234)" d="M 115.2 117.981903 
L 132.313668 116.378368 
L 146.992943 120.015098 
L 159.844933 121.5249 
L 171.274613 117.814325 
L 181.565657 118.373883 
L 190.924519 118.213737 
L 199.506137 118.971353 
L 207.42977 121.867932 
L 214.789171 121.59795 
L 228.101408 119.953049 
L 234.165501 121.7189 
L 239.893559 125.661739 
L 245.320877 124.644095 
L 250.477466 123.17809 
L 255.389057 121.658845 
L 260.077878 126.162772 
L 264.563263 122.641961 
L 268.862134 126.107419 
L 272.989385 123.445629 
L 276.958194 126.552593 
L 280.780278 126.517996 
L 284.466099 127.720316 
L 288.025041 126.516376 
L 291.465549 128.964149 
L 294.795252 128.404288 
L 298.021064 129.220927 
L 301.149274 127.144328 
L 304.185615 129.93933 
L 307.135328 127.223259 
L 310.003221 129.291272 
L 312.793709 126.742804 
L 315.510863 130.196037 
L 318.158437 125.605222 
L 320.739907 126.822249 
L 323.258492 130.106204 
L 325.717185 128.783264 
L 328.118768 131.919365 
L 330.465834 131.51245 
L 332.760802 127.381171 
L 335.005936 130.782627 
L 337.203354 131.042633 
L 339.355042 132.278605 
L 341.462865 130.532367 
L 353.28 133.276755 
L 370.393668 135.240922 
L 385.072943 138.197475 
L 397.924933 138.27773 
L 409.354613 139.076075 
L 419.645657 143.617839 
L 429.004519 144.735043 
L 437.586137 150.512353 
L 445.50977 150.200339 
L 452.869171 149.538504 
L 459.739384 158.51325 
L 466.181408 158.327507 
L 472.245501 162.608206 
L 477.973559 168.54039 
L 483.400877 166.494508 
L 488.557466 170.897901 
L 493.469057 173.329615 
L 498.157878 180.590851 
L 502.643263 181.764467 
L 506.942134 187.851733 
L 511.069385 180.616933 
L 515.038194 196.280973 
L 518.860278 190.965136 
L 526.105041 196.324145 
L 529.545549 196.355102 
L 532.875252 190.410487 
L 536.101064 191.838979 
L 539.229274 198.484537 
L 542.265615 195.425095 
L 548.083221 200.812361 
L 550.873709 202.862051 
L 553.590863 199.190014 
L 556.238437 185.321064 
L 558.819907 197.993392 
L 561.338492 202.450069 
L 563.797185 208.296842 
L 566.198768 207.538442 
L 568.545834 189.717429 
L 570.840802 204.555064 
L 573.085936 203.631728 
L 575.283354 202.463958 
L 577.435042 199.007035 
L 579.542865 206.846075 
L 591.36 212.648388 
L 608.473668 209.407648 
L 623.152943 223.142135 
L 636.004933 229.013534 
L 647.434613 224.82988 
L 657.725657 205.874573 
L 667.084519 184.41361 
L 675.666137 241.781658 
L 683.58977 243.284045 
L 690.949171 241.183346 
L 697.819384 243.41115 
L 704.261408 232.204839 
L 710.325501 358.881312 
L 716.053559 241.148934 
L 721.480877 276.106769 
L 726.637466 268.139501 
L 731.549057 541.75978 
L 736.237878 254.371249 
L 740.723263 249.201953 
L 745.022134 223.572697 
L 749.149385 245.421304 
L 753.118194 317.863162 
L 756.940278 503.817266 
L 760.626099 238.618518 
L 764.185041 537.072952 
L 767.625549 243.595593 
L 770.955252 280.471865 
L 774.181064 292.243103 
L 777.309274 219.007423 
L 780.345615 246.650283 
L 783.295328 328.651239 
L 786.163221 260.601444 
L 788.953709 281.623077 
L 791.670863 264.639099 
L 794.318437 319.391381 
L 796.899907 356.053956 
L 799.418492 339.828682 
L 801.877185 283.888338 
L 804.278768 489.447193 
L 806.625834 296.82855 
L 808.920802 361.157429 
L 811.165936 243.365451 
L 813.363354 382.096874 
L 815.515042 240.772326 
L 817.622865 380.225352 
L 819.688575 341.769857 
L 821.713822 383.371128 
L 823.700162 445.682022 
L 825.64906 423.80175 
L 827.561903 383.100244 
L 827.561903 383.100244 
" style="fill:none;stroke:#26b7d8;stroke-linecap:square;"/>
   </g>
   <g id="line2d_4">
    <path clip-path="url(#pd5473f3234)" d="M 115.2 120.331853 
L 132.313668 122.556188 
L 146.992943 119.793429 
L 159.844933 123.164732 
L 171.274613 123.938032 
L 181.565657 120.117921 
L 190.924519 123.833826 
L 199.506137 119.489475 
L 207.42977 123.592181 
L 214.789171 123.074363 
L 221.659384 119.882102 
L 228.101408 123.390035 
L 234.165501 120.57514 
L 239.893559 121.140288 
L 245.320877 122.35914 
L 250.477466 122.161808 
L 255.389057 124.013406 
L 260.077878 121.07522 
L 264.563263 124.889908 
L 268.862134 119.737803 
L 272.989385 126.377073 
L 276.958194 127.814689 
L 280.780278 126.022325 
L 284.466099 129.900228 
L 288.025041 124.637366 
L 294.795252 128.069868 
L 298.021064 128.836771 
L 301.149274 127.150543 
L 304.185615 127.719327 
L 307.135328 127.031718 
L 310.003221 128.162943 
L 312.793709 127.370115 
L 315.510863 128.130072 
L 318.158437 129.611903 
L 320.739907 132.036652 
L 323.258492 130.976193 
L 325.717185 129.325549 
L 328.118768 133.076483 
L 330.465834 131.025249 
L 332.760802 131.526507 
L 335.005936 130.00147 
L 337.203354 130.195935 
L 339.355042 127.462876 
L 341.462865 132.744848 
L 353.28 135.018794 
L 370.393668 134.773787 
L 385.072943 136.258996 
L 397.924933 136.174997 
L 409.354613 141.000077 
L 419.645657 142.38368 
L 429.004519 150.239181 
L 437.586137 150.532894 
L 445.50977 143.285064 
L 452.869171 148.37931 
L 459.739384 152.191844 
L 466.181408 148.055928 
L 472.245501 147.564434 
L 477.973559 158.565672 
L 483.400877 163.805524 
L 488.557466 158.129245 
L 493.469057 166.001861 
L 498.157878 173.153646 
L 502.643263 172.502216 
L 506.942134 169.942904 
L 511.069385 172.532127 
L 515.038194 175.634028 
L 518.860278 184.356 
L 522.546099 179.898839 
L 526.105041 187.380442 
L 529.545549 184.864281 
L 532.875252 186.586578 
L 536.101064 183.146135 
L 539.229274 197.107546 
L 542.265615 189.66283 
L 545.215328 194.700318 
L 548.083221 197.348731 
L 550.873709 190.560529 
L 553.590863 191.474959 
L 556.238437 191.739439 
L 558.819907 195.364838 
L 561.338492 185.970402 
L 563.797185 205.938505 
L 568.545834 191.750528 
L 570.840802 203.229816 
L 573.085936 192.906392 
L 575.283354 193.616533 
L 577.435042 202.600774 
L 579.542865 203.040188 
L 591.36 203.999905 
L 608.473668 197.093365 
L 623.152943 213.935593 
L 636.004933 211.111299 
L 647.434613 220.334214 
L 657.725657 223.925076 
L 667.084519 258.367843 
L 675.666137 248.53128 
L 683.58977 250.12491 
L 690.949171 229.860594 
L 697.819384 234.262369 
L 704.261408 205.693645 
L 710.325501 257.563546 
L 716.053559 197.028136 
L 721.480877 236.472548 
L 726.637466 259.245779 
L 731.549057 288.450389 
L 736.237878 299.490742 
L 740.723263 283.81079 
L 745.022134 544.347796 
L 749.149385 287.703929 
L 753.118194 237.634773 
L 756.940278 325.710598 
L 760.626099 246.808683 
L 764.185041 269.099104 
L 767.625549 245.26461 
L 770.955252 237.610061 
L 774.181064 398.513861 
L 777.309274 374.479684 
L 780.345615 360.965832 
L 783.295328 226.821113 
L 786.163221 284.484898 
L 788.953709 336.043798 
L 791.670863 245.7072 
L 794.318437 321.318396 
L 796.899907 229.230652 
L 799.418492 245.373207 
L 801.877185 265.864861 
L 804.278768 263.754777 
L 806.625834 310.389192 
L 808.920802 373.993152 
L 811.165936 307.380655 
L 813.363354 413.142961 
L 815.515042 447.188221 
L 817.622865 305.871793 
L 819.688575 302.17959 
L 821.713822 404.262517 
L 823.700162 380.728397 
L 825.64906 372.701569 
L 827.561903 219.32273 
L 827.561903 219.32273 
" style="fill:none;stroke:#8414a4;stroke-linecap:square;"/>
   </g>
   <g id="line2d_5">
    <path clip-path="url(#pd5473f3234)" d="M 115.2 117.875112 
L 132.313668 118.761537 
L 146.992943 120.651077 
L 159.844933 115.476641 
L 171.274613 120.519543 
L 190.924519 117.752657 
L 199.506137 123.368219 
L 207.42977 118.159964 
L 214.789171 122.491416 
L 221.659384 124.330676 
L 228.101408 123.846229 
L 234.165501 126.241265 
L 239.893559 124.955865 
L 245.320877 125.326401 
L 250.477466 122.776704 
L 255.389057 123.671877 
L 260.077878 122.891641 
L 264.563263 127.531835 
L 268.862134 126.016429 
L 272.989385 126.992113 
L 276.958194 127.023866 
L 280.780278 124.555306 
L 284.466099 130.768534 
L 288.025041 128.799614 
L 291.465549 127.085733 
L 294.795252 127.38155 
L 298.021064 132.559812 
L 301.149274 124.692943 
L 304.185615 127.685238 
L 307.135328 129.236056 
L 310.003221 131.593906 
L 312.793709 128.112586 
L 315.510863 125.990462 
L 318.158437 125.919804 
L 320.739907 136.19742 
L 323.258492 134.392198 
L 325.717185 129.007632 
L 328.118768 129.45452 
L 330.465834 130.635873 
L 332.760802 130.153101 
L 335.005936 135.097719 
L 337.203354 137.181686 
L 339.355042 133.997087 
L 341.462865 128.947692 
L 353.28 133.122567 
L 385.072943 135.62185 
L 397.924933 135.120558 
L 409.354613 135.503204 
L 419.645657 137.153003 
L 429.004519 142.932187 
L 437.586137 142.055368 
L 445.50977 143.870892 
L 452.869171 145.031997 
L 459.739384 146.551171 
L 466.181408 147.716113 
L 472.245501 147.738636 
L 477.973559 149.630425 
L 483.400877 154.133745 
L 488.557466 152.520024 
L 493.469057 155.125932 
L 498.157878 157.142889 
L 502.643263 163.064941 
L 506.942134 171.066214 
L 511.069385 165.984704 
L 515.038194 167.03899 
L 518.860278 170.634892 
L 522.546099 170.777784 
L 526.105041 173.517952 
L 529.545549 172.324751 
L 532.875252 177.402912 
L 536.101064 182.890919 
L 539.229274 186.779808 
L 542.265615 192.029379 
L 545.215328 188.824159 
L 548.083221 188.685669 
L 550.873709 186.883571 
L 553.590863 185.406664 
L 558.819907 195.180555 
L 561.338492 199.277863 
L 563.797185 187.562705 
L 566.198768 190.314658 
L 568.545834 182.910209 
L 570.840802 190.181619 
L 573.085936 204.325149 
L 575.283354 201.90055 
L 577.435042 209.237533 
L 579.542865 196.853022 
L 591.36 192.931112 
L 608.473668 188.455857 
L 623.152943 206.617141 
L 636.004933 200.736326 
L 647.434613 215.124277 
L 657.725657 215.614299 
L 667.084519 237.456776 
L 675.666137 222.711572 
L 683.58977 203.589619 
L 690.949171 224.703521 
L 697.819384 240.122495 
L 704.261408 275.368918 
L 710.325501 211.44058 
L 716.053559 283.980791 
L 721.480877 244.497748 
L 726.637466 251.888292 
L 731.549057 340.034256 
L 736.237878 251.710122 
L 740.723263 275.944271 
L 745.022134 237.905277 
L 749.149385 350.471879 
L 753.118194 272.328522 
L 756.940278 216.665384 
L 760.626099 215.68455 
L 764.185041 284.581543 
L 767.625549 261.728046 
L 770.955252 324.917513 
L 774.181064 547.314758 
L 777.309274 280.234607 
L 780.345615 357.560798 
L 783.295328 288.939245 
L 786.163221 279.084922 
L 788.953709 304.153858 
L 791.670863 401.094069 
L 794.318437 550.482998 
L 796.899907 276.679204 
L 801.877185 497.061469 
L 804.278768 293.015312 
L 806.625834 229.544872 
L 808.920802 237.684168 
L 811.165936 549.400658 
L 813.363354 353.853004 
L 815.515042 221.542877 
L 817.622865 472.825497 
L 819.688575 363.22688 
L 821.713822 248.690985 
L 823.700162 230.482376 
L 825.64906 283.051826 
L 827.561903 348.723516 
L 827.561903 348.723516 
" style="fill:none;stroke:#ffd23a;stroke-linecap:square;"/>
   </g>
   <g id="line2d_6">
    <path clip-path="url(#pd5473f3234)" d="M 115.2 119.369041 
L 132.313668 116.272265 
L 146.992943 118.470552 
L 159.844933 118.961234 
L 171.274613 117.776976 
L 181.565657 117.067483 
L 190.924519 120.056914 
L 199.506137 121.465034 
L 207.42977 121.450404 
L 214.789171 125.159668 
L 221.659384 120.357411 
L 228.101408 122.537109 
L 234.165501 119.74854 
L 239.893559 127.034486 
L 245.320877 123.833988 
L 250.477466 124.638838 
L 255.389057 123.729624 
L 260.077878 127.166464 
L 264.563263 123.836499 
L 268.862134 119.312276 
L 272.989385 123.954658 
L 276.958194 124.33681 
L 280.780278 132.01922 
L 284.466099 130.31266 
L 288.025041 126.476371 
L 291.465549 121.977733 
L 294.795252 132.616841 
L 298.021064 126.439087 
L 301.149274 129.184775 
L 304.185615 129.011311 
L 307.135328 123.265945 
L 310.003221 134.091988 
L 312.793709 130.88698 
L 315.510863 131.854936 
L 318.158437 134.789691 
L 320.739907 131.074933 
L 323.258492 131.880508 
L 325.717185 132.424667 
L 328.118768 132.219107 
L 330.465834 132.486091 
L 332.760802 133.709135 
L 335.005936 132.371276 
L 337.203354 133.003553 
L 339.355042 135.683769 
L 341.462865 125.397429 
L 353.28 133.823581 
L 370.393668 141.817121 
L 385.072943 136.911072 
L 397.924933 141.937668 
L 409.354613 139.938058 
L 419.645657 137.452847 
L 429.004519 138.524778 
L 437.586137 134.971743 
L 445.50977 142.918676 
L 452.869171 139.517608 
L 459.739384 144.905148 
L 466.181408 146.696167 
L 472.245501 144.166718 
L 477.973559 148.109812 
L 483.400877 143.283821 
L 488.557466 144.066242 
L 493.469057 154.446364 
L 498.157878 159.889426 
L 502.643263 154.980776 
L 506.942134 162.323672 
L 511.069385 163.035869 
L 515.038194 159.638139 
L 518.860278 166.426557 
L 522.546099 165.264818 
L 526.105041 163.790186 
L 529.545549 175.526607 
L 532.875252 177.415484 
L 536.101064 174.733596 
L 539.229274 175.827467 
L 542.265615 164.382169 
L 545.215328 164.485557 
L 548.083221 177.029874 
L 550.873709 195.34068 
L 553.590863 185.367657 
L 556.238437 185.551105 
L 561.338492 187.401607 
L 563.797185 193.731267 
L 566.198768 185.825087 
L 568.545834 202.485397 
L 570.840802 193.513126 
L 573.085936 198.940075 
L 575.283354 188.372613 
L 577.435042 193.047867 
L 579.542865 186.415475 
L 591.36 184.793078 
L 608.473668 198.534045 
L 623.152943 196.054445 
L 636.004933 209.165884 
L 647.434613 213.524941 
L 657.725657 229.853787 
L 667.084519 223.895738 
L 675.666137 245.966753 
L 683.58977 239.349961 
L 690.949171 216.635568 
L 697.819384 241.152096 
L 704.261408 202.541745 
L 710.325501 267.555866 
L 716.053559 240.130202 
L 721.480877 260.47557 
L 726.637466 234.0241 
L 731.549057 242.20945 
L 736.237878 257.707722 
L 740.723263 354.880314 
L 745.022134 258.347199 
L 749.149385 236.363644 
L 753.118194 286.955493 
L 756.940278 252.621235 
L 760.626099 261.882963 
L 764.185041 541.677904 
L 767.625549 323.093566 
L 770.955252 275.053138 
L 774.181064 266.820263 
L 777.309274 523.530336 
L 780.345615 458.011541 
L 783.295328 242.649199 
L 786.163221 361.143221 
L 788.953709 277.634711 
L 791.670863 311.053911 
L 794.318437 340.140878 
L 796.899907 461.574795 
L 799.418492 292.012826 
L 801.877185 250.822091 
L 804.278768 373.577713 
L 806.625834 325.648619 
L 808.920802 317.723344 
L 811.165936 336.637888 
L 813.363354 306.754935 
L 815.515042 263.522003 
L 817.622865 295.219919 
L 819.688575 486.486371 
L 821.713822 278.023403 
L 823.700162 246.29994 
L 825.64906 306.740122 
L 827.561903 328.561865 
L 827.561903 328.561865 
" style="fill:none;stroke:#ff9300;stroke-linecap:square;"/>
   </g>
   <g id="line2d_7">
    <path clip-path="url(#pd5473f3234)" d="M 115.2 124.335515 
L 132.313668 121.297698 
L 146.992943 120.639265 
L 159.844933 112.949092 
L 171.274613 118.67521 
L 181.565657 123.54703 
L 190.924519 125.001658 
L 199.506137 122.066089 
L 207.42977 117.052312 
L 214.789171 124.084456 
L 221.659384 126.118988 
L 228.101408 133.272204 
L 234.165501 122.55803 
L 239.893559 127.044375 
L 245.320877 121.726981 
L 250.477466 126.625995 
L 255.389057 128.023863 
L 260.077878 118.828278 
L 264.563263 129.618014 
L 268.862134 123.88589 
L 272.989385 120.572036 
L 276.958194 123.593084 
L 280.780278 123.725255 
L 284.466099 127.326436 
L 288.025041 123.011885 
L 291.465549 122.68314 
L 294.795252 129.971031 
L 298.021064 131.250995 
L 301.149274 132.666707 
L 304.185615 134.386567 
L 307.135328 133.471963 
L 310.003221 134.724741 
L 312.793709 129.685805 
L 315.510863 126.512637 
L 318.158437 126.920403 
L 320.739907 130.885136 
L 323.258492 130.215889 
L 325.717185 124.319326 
L 328.118768 138.056948 
L 330.465834 131.20008 
L 332.760802 132.799198 
L 335.005936 129.422931 
L 337.203354 129.945411 
L 339.355042 133.931656 
L 353.28 131.051984 
L 370.393668 137.707698 
L 385.072943 140.213389 
L 397.924933 137.968376 
L 409.354613 138.800146 
L 419.645657 140.424212 
L 429.004519 141.008867 
L 437.586137 146.183708 
L 445.50977 140.774551 
L 452.869171 144.846223 
L 459.739384 137.192167 
L 466.181408 142.608909 
L 472.245501 146.717268 
L 477.973559 136.669013 
L 483.400877 139.566515 
L 488.557466 153.975011 
L 493.469057 147.449044 
L 498.157878 144.786976 
L 502.643263 138.785097 
L 506.942134 157.118979 
L 511.069385 155.203989 
L 515.038194 161.822531 
L 518.860278 157.880065 
L 522.546099 150.925376 
L 526.105041 171.630383 
L 529.545549 166.472461 
L 532.875252 159.68924 
L 536.101064 158.509513 
L 539.229274 166.853963 
L 542.265615 177.688333 
L 545.215328 165.206833 
L 548.083221 179.128613 
L 550.873709 174.806622 
L 553.590863 172.455625 
L 556.238437 173.838131 
L 558.819907 192.377413 
L 561.338492 188.051611 
L 563.797185 191.293673 
L 566.198768 188.283332 
L 568.545834 186.925994 
L 570.840802 195.928732 
L 573.085936 185.034134 
L 575.283354 177.195562 
L 577.435042 173.475764 
L 579.542865 197.510139 
L 591.36 190.324744 
L 608.473668 194.314135 
L 623.152943 212.024589 
L 636.004933 226.699623 
L 647.434613 191.221275 
L 657.725657 218.067898 
L 667.084519 235.463645 
L 675.666137 227.528572 
L 683.58977 221.642799 
L 690.949171 247.766878 
L 697.819384 221.714859 
L 704.261408 279.138481 
L 710.325501 240.299721 
L 716.053559 268.78346 
L 721.480877 211.405201 
L 726.637466 224.532778 
L 731.549057 243.759823 
L 736.237878 292.572679 
L 740.723263 243.730289 
L 745.022134 252.159087 
L 749.149385 241.968868 
L 753.118194 257.278003 
L 756.940278 292.017667 
L 760.626099 249.964828 
L 764.185041 256.174654 
L 767.625549 251.272417 
L 770.955252 212.620486 
L 774.181064 334.74607 
L 777.309274 344.666211 
L 780.345615 224.356982 
L 783.295328 365.409658 
L 786.163221 211.975122 
L 788.953709 334.333108 
L 791.670863 251.829829 
L 794.318437 253.977415 
L 796.899907 287.41529 
L 799.418492 260.447663 
L 801.877185 275.226223 
L 804.278768 550.314206 
L 806.625834 339.86113 
L 808.920802 464.599895 
L 811.165936 533.809997 
L 813.363354 256.834372 
L 815.515042 531.652972 
L 817.622865 220.980649 
L 819.688575 302.333883 
L 821.713822 487.864807 
L 823.700162 230.038709 
L 825.64906 269.385391 
L 827.561903 409.986108 
L 827.561903 409.986108 
" style="fill:none;stroke:#f50fe6;stroke-linecap:square;"/>
   </g>
   <g id="line2d_8">
    <path clip-path="url(#pd5473f3234)" d="M 115.2 121.00488 
L 132.313668 115.326475 
L 146.992943 118.803351 
L 159.844933 121.615703 
L 171.274613 117.517035 
L 181.565657 124.958915 
L 190.924519 120.351631 
L 199.506137 119.040639 
L 207.42977 118.896255 
L 214.789171 122.278348 
L 221.659384 122.79517 
L 228.101408 127.216732 
L 234.165501 123.911514 
L 239.893559 130.513515 
L 245.320877 120.118556 
L 250.477466 112.884593 
L 255.389057 126.967505 
L 260.077878 122.685614 
L 264.563263 129.488779 
L 268.862134 131.364024 
L 272.989385 123.99052 
L 276.958194 125.071267 
L 280.780278 131.547321 
L 284.466099 123.058285 
L 288.025041 124.258754 
L 291.465549 122.334526 
L 294.795252 135.184838 
L 298.021064 129.061287 
L 301.149274 129.549449 
L 304.185615 128.921107 
L 307.135328 129.981846 
L 310.003221 125.297342 
L 312.793709 130.597995 
L 315.510863 128.006982 
L 318.158437 135.666841 
L 320.739907 129.624881 
L 323.258492 136.998025 
L 325.717185 125.273248 
L 328.118768 128.340624 
L 330.465834 137.784454 
L 332.760802 135.116138 
L 335.005936 132.256386 
L 337.203354 133.033693 
L 339.355042 128.347091 
L 341.462865 130.63974 
L 353.28 133.609209 
L 370.393668 144.742269 
L 385.072943 140.852889 
L 397.924933 134.406597 
L 409.354613 144.231281 
L 419.645657 135.926026 
L 429.004519 139.53735 
L 437.586137 134.408694 
L 445.50977 142.793005 
L 452.869171 145.704543 
L 459.739384 139.952926 
L 472.245501 144.1434 
L 477.973559 142.608175 
L 483.400877 147.13785 
L 488.557466 148.910418 
L 493.469057 141.903875 
L 498.157878 146.203455 
L 502.643263 148.546872 
L 506.942134 154.588136 
L 511.069385 150.780015 
L 515.038194 146.527725 
L 518.860278 153.004371 
L 522.546099 150.44853 
L 526.105041 157.357064 
L 529.545549 165.636591 
L 532.875252 160.952855 
L 536.101064 152.925501 
L 539.229274 147.033958 
L 542.265615 171.479841 
L 545.215328 165.386454 
L 548.083221 173.999454 
L 550.873709 175.81743 
L 553.590863 165.331474 
L 556.238437 174.441911 
L 558.819907 180.344298 
L 561.338492 166.035963 
L 563.797185 164.664186 
L 566.198768 183.009196 
L 568.545834 182.023565 
L 570.840802 184.991651 
L 573.085936 180.056612 
L 575.283354 188.884153 
L 577.435042 185.135891 
L 579.542865 201.233715 
L 591.36 203.216418 
L 608.473668 185.838657 
L 623.152943 208.882171 
L 636.004933 193.951384 
L 647.434613 188.50775 
L 657.725657 222.496698 
L 667.084519 185.09466 
L 675.666137 209.792601 
L 683.58977 222.844794 
L 690.949171 230.560667 
L 697.819384 211.017134 
L 704.261408 255.720212 
L 710.325501 180.383601 
L 716.053559 249.451586 
L 721.480877 253.537717 
L 726.637466 286.424572 
L 731.549057 226.536321 
L 736.237878 213.352959 
L 740.723263 248.727382 
L 745.022134 388.931395 
L 749.149385 244.722174 
L 753.118194 285.434842 
L 756.940278 317.239123 
L 760.626099 248.095587 
L 764.185041 270.890312 
L 767.625549 356.252962 
L 770.955252 224.364175 
L 774.181064 524.479203 
L 777.309274 254.807449 
L 780.345615 537.897777 
L 783.295328 341.636665 
L 786.163221 274.990995 
L 788.953709 300.619948 
L 791.670863 529.151586 
L 794.318437 262.542199 
L 796.899907 536.912217 
L 799.418492 261.217493 
L 801.877185 305.379847 
L 804.278768 463.577154 
L 806.625834 294.372251 
L 808.920802 391.676847 
L 811.165936 433.033174 
L 813.363354 421.801163 
L 815.515042 303.331251 
L 817.622865 295.98782 
L 819.688575 452.385255 
L 821.713822 331.214957 
L 823.700162 261.00609 
L 825.64906 379.115371 
L 827.561903 378.336596 
L 827.561903 378.336596 
" style="fill:none;stroke:#1000a0;stroke-linecap:square;"/>
   </g>
   <g id="line2d_9">
    <path clip-path="url(#pd5473f3234)" d="M 115.2 107.758401 
L 132.313668 116.259985 
L 146.992943 122.158267 
L 159.844933 119.317159 
L 171.274613 117.477494 
L 181.565657 119.735096 
L 190.924519 119.347759 
L 199.506137 117.572959 
L 207.42977 112.647045 
L 214.789171 120.90965 
L 221.659384 116.806799 
L 228.101408 127.656567 
L 234.165501 124.580664 
L 239.893559 126.919577 
L 245.320877 120.500012 
L 250.477466 120.774649 
L 255.389057 126.762438 
L 260.077878 122.751789 
L 264.563263 129.071334 
L 268.862134 116.507994 
L 272.989385 132.068917 
L 276.958194 132.479193 
L 280.780278 127.32528 
L 284.466099 127.304761 
L 288.025041 121.841019 
L 291.465549 126.906995 
L 294.795252 122.205764 
L 298.021064 121.74741 
L 301.149274 124.573356 
L 304.185615 133.698049 
L 307.135328 125.22712 
L 310.003221 127.65167 
L 312.793709 129.016477 
L 315.510863 129.305076 
L 318.158437 131.581451 
L 320.739907 128.53187 
L 323.258492 127.258618 
L 325.717185 134.249887 
L 328.118768 138.423345 
L 330.465834 137.79037 
L 332.760802 133.041812 
L 335.005936 132.031394 
L 337.203354 134.004114 
L 339.355042 132.63582 
L 341.462865 135.360773 
L 353.28 135.058751 
L 370.393668 131.702111 
L 385.072943 129.57275 
L 397.924933 139.716417 
L 409.354613 133.996593 
L 419.645657 138.280015 
L 429.004519 137.711909 
L 437.586137 136.753284 
L 445.50977 130.33406 
L 452.869171 137.278814 
L 459.739384 143.151729 
L 466.181408 136.126716 
L 472.245501 138.442659 
L 477.973559 134.661882 
L 483.400877 137.691951 
L 488.557466 147.201832 
L 493.469057 146.89518 
L 498.157878 139.943861 
L 502.643263 141.642174 
L 506.942134 148.285951 
L 511.069385 136.860617 
L 515.038194 151.863806 
L 518.860278 149.552729 
L 522.546099 143.606932 
L 526.105041 160.628464 
L 529.545549 158.846543 
L 532.875252 151.407007 
L 536.101064 150.801713 
L 539.229274 155.10494 
L 542.265615 152.274285 
L 545.215328 164.022634 
L 548.083221 159.949705 
L 550.873709 168.448772 
L 553.590863 161.190608 
L 556.238437 171.883559 
L 558.819907 175.191485 
L 561.338492 180.274716 
L 563.797185 176.605999 
L 566.198768 179.840205 
L 568.545834 178.430065 
L 570.840802 185.902669 
L 573.085936 189.47819 
L 575.283354 181.097347 
L 577.435042 189.060562 
L 579.542865 174.238709 
L 591.36 206.064286 
L 608.473668 194.512135 
L 623.152943 179.057785 
L 636.004933 192.614133 
L 647.434613 192.828163 
L 657.725657 185.023034 
L 667.084519 220.484036 
L 675.666137 211.681363 
L 683.58977 216.219182 
L 690.949171 194.916417 
L 697.819384 208.931645 
L 704.261408 261.503829 
L 710.325501 203.518211 
L 716.053559 248.073975 
L 721.480877 231.321071 
L 726.637466 195.084438 
L 731.549057 241.703615 
L 736.237878 358.705991 
L 740.723263 244.053524 
L 745.022134 220.540189 
L 749.149385 272.698692 
L 753.118194 271.008404 
L 756.940278 257.364529 
L 760.626099 274.535802 
L 764.185041 548.878949 
L 767.625549 270.302386 
L 770.955252 312.834582 
L 774.181064 268.354257 
L 777.309274 214.707834 
L 780.345615 245.162483 
L 783.295328 326.30236 
L 786.163221 360.839985 
L 788.953709 307.526343 
L 791.670863 349.970666 
L 794.318437 312.521445 
L 796.899907 324.234147 
L 799.418492 306.960092 
L 801.877185 415.339665 
L 804.278768 311.951819 
L 806.625834 345.426915 
L 808.920802 240.760106 
L 811.165936 379.877225 
L 813.363354 256.850719 
L 815.515042 343.407367 
L 817.622865 292.21277 
L 819.688575 367.211288 
L 821.713822 354.51901 
L 823.700162 241.20807 
L 825.64906 518.12409 
L 827.561903 340.172058 
L 827.561903 340.172058 
" style="fill:none;stroke:#595866;stroke-linecap:square;"/>
   </g>
   <g id="line2d_10">
    <path clip-path="url(#pd5473f3234)" d="M 115.2 114.687603 
L 132.313668 116.806353 
L 146.992943 128.481272 
L 159.844933 112.388546 
L 171.274613 108.280407 
L 181.565657 120.499952 
L 190.924519 118.136262 
L 199.506137 121.558196 
L 207.42977 115.871435 
L 214.789171 129.225014 
L 221.659384 114.567577 
L 228.101408 121.219419 
L 234.165501 134.136411 
L 239.893559 118.707665 
L 245.320877 128.370707 
L 250.477466 125.267548 
L 255.389057 123.846555 
L 260.077878 116.114326 
L 264.563263 123.98278 
L 268.862134 128.43605 
L 272.989385 121.341217 
L 276.958194 118.103658 
L 280.780278 127.370743 
L 284.466099 129.077474 
L 288.025041 114.762884 
L 291.465549 131.18764 
L 294.795252 134.855205 
L 298.021064 135.827701 
L 301.149274 128.734426 
L 304.185615 127.361764 
L 307.135328 138.845901 
L 310.003221 132.772189 
L 312.793709 121.752898 
L 315.510863 127.210587 
L 318.158437 129.77895 
L 320.739907 123.321102 
L 323.258492 132.018738 
L 325.717185 124.823445 
L 328.118768 133.672802 
L 330.465834 138.953105 
L 332.760802 133.632682 
L 335.005936 137.826107 
L 337.203354 127.083609 
L 339.355042 133.053582 
L 341.462865 127.129188 
L 353.28 134.727191 
L 370.393668 127.607557 
L 385.072943 132.713122 
L 397.924933 130.053912 
L 409.354613 139.879511 
L 419.645657 141.583395 
L 429.004519 143.37683 
L 437.586137 144.790819 
L 445.50977 142.314504 
L 452.869171 141.79295 
L 459.739384 134.21535 
L 466.181408 140.753868 
L 472.245501 137.695998 
L 477.973559 142.683813 
L 483.400877 135.263812 
L 488.557466 143.711689 
L 493.469057 143.237208 
L 498.157878 146.400492 
L 502.643263 135.033327 
L 506.942134 140.456681 
L 511.069385 147.657352 
L 515.038194 149.424544 
L 518.860278 140.205384 
L 522.546099 147.701009 
L 526.105041 148.141106 
L 529.545549 147.017666 
L 532.875252 146.166454 
L 536.101064 160.341083 
L 539.229274 149.831018 
L 542.265615 159.200192 
L 545.215328 167.677808 
L 548.083221 169.277508 
L 550.873709 157.753485 
L 553.590863 161.275101 
L 556.238437 170.90498 
L 558.819907 153.247518 
L 561.338492 171.610624 
L 563.797185 173.785389 
L 566.198768 166.164138 
L 568.545834 169.179715 
L 570.840802 173.051318 
L 573.085936 168.121619 
L 575.283354 168.734629 
L 577.435042 175.510522 
L 579.542865 183.546608 
L 591.36 198.363588 
L 608.473668 199.863533 
L 623.152943 203.024904 
L 636.004933 191.144012 
L 647.434613 200.791354 
L 657.725657 205.7846 
L 667.084519 249.360995 
L 675.666137 216.640906 
L 683.58977 192.839808 
L 690.949171 205.884875 
L 697.819384 201.597144 
L 704.261408 227.723419 
L 710.325501 251.096564 
L 716.053559 228.094099 
L 721.480877 240.31728 
L 726.637466 167.705395 
L 731.549057 241.624247 
L 736.237878 204.288781 
L 740.723263 245.401336 
L 745.022134 253.950385 
L 749.149385 231.867028 
L 753.118194 261.801591 
L 756.940278 419.613927 
L 760.626099 268.049556 
L 764.185041 542.544752 
L 767.625549 349.455782 
L 770.955252 243.388125 
L 774.181064 261.129878 
L 777.309274 343.147643 
L 780.345615 247.229504 
L 783.295328 309.768314 
L 786.163221 288.339354 
L 788.953709 261.520719 
L 791.670863 264.960614 
L 794.318437 402.761306 
L 796.899907 213.271762 
L 799.418492 271.170657 
L 804.278768 354.92075 
L 806.625834 471.940536 
L 808.920802 291.876063 
L 811.165936 350.122384 
L 813.363354 298.539171 
L 815.515042 258.227945 
L 819.688575 549.695126 
L 821.713822 299.308075 
L 823.700162 371.943666 
L 825.64906 244.81745 
L 827.561903 424.310036 
L 827.561903 424.310036 
" style="fill:none;stroke:#147f2a;stroke-linecap:square;"/>
   </g>
   <g id="patch_3">
    <path d="M 829.44 551.61 
L 829.44 61.29 
" style="fill:none;stroke:#000000;stroke-linecap:square;stroke-linejoin:miter;"/>
   </g>
   <g id="patch_4">
    <path d="M 115.2 551.61 
L 115.2 61.29 
" style="fill:none;stroke:#000000;stroke-linecap:square;stroke-linejoin:miter;"/>
   </g>
   <g id="patch_5">
    <path d="M 115.2 61.29 
L 829.44 61.29 
" style="fill:none;stroke:#000000;stroke-linecap:square;stroke-linejoin:miter;"/>
   </g>
   <g id="patch_6">
    <path d="M 115.2 551.61 
L 829.44 551.61 
" style="fill:none;stroke:#000000;stroke-linecap:square;stroke-linejoin:miter;"/>
   </g>
   <g id="matplotlib.axis_1">
    <g id="xtick_1">
     <g id="line2d_11">
      <defs>
       <path d="M 0 0 
L 0 -4 
" id="mef78944afa" style="stroke:#000000;stroke-width:0.5;"/>
      </defs>
      <g>
       <use style="stroke:#000000;stroke-width:0.5;" x="115.2" xlink:href="#mef78944afa" y="551.61"/>
      </g>
     </g>
     <g id="line2d_12">
      <defs>
       <path d="M 0 0 
L 0 4 
" id="m1e76724a50" style="stroke:#000000;stroke-width:0.5;"/>
      </defs>
      <g>
       <use style="stroke:#000000;stroke-width:0.5;" x="115.2" xlink:href="#m1e76724a50" y="61.29"/>
      </g>
     </g>
     <g id="text_1">
      <!-- $\mathdefault{10^{-3}}$ -->
      <defs>
       <path d="M 12.40625 8.296875 
L 28.515625 8.296875 
L 28.515625 63.921875 
L 10.984375 60.40625 
L 10.984375 69.390625 
L 28.421875 72.90625 
L 38.28125 72.90625 
L 38.28125 8.296875 
L 54.390625 8.296875 
L 54.390625 0 
L 12.40625 0 
z
" id="BitstreamVeraSans-Roman-31"/>
       <path d="M 4.890625 31.390625 
L 31.203125 31.390625 
L 31.203125 23.390625 
L 4.890625 23.390625 
z
" id="BitstreamVeraSans-Roman-2d"/>
       <path d="M 40.578125 39.3125 
Q 47.65625 37.796875 51.625 33 
Q 55.609375 28.21875 55.609375 21.1875 
Q 55.609375 10.40625 48.1875 4.484375 
Q 40.765625 -1.421875 27.09375 -1.421875 
Q 22.515625 -1.421875 17.65625 -0.515625 
Q 12.796875 0.390625 7.625 2.203125 
L 7.625 11.71875 
Q 11.71875 9.328125 16.59375 8.109375 
Q 21.484375 6.890625 26.8125 6.890625 
Q 36.078125 6.890625 40.9375 10.546875 
Q 45.796875 14.203125 45.796875 21.1875 
Q 45.796875 27.640625 41.28125 31.265625 
Q 36.765625 34.90625 28.71875 34.90625 
L 20.21875 34.90625 
L 20.21875 43.015625 
L 29.109375 43.015625 
Q 36.375 43.015625 40.234375 45.921875 
Q 44.09375 48.828125 44.09375 54.296875 
Q 44.09375 59.90625 40.109375 62.90625 
Q 36.140625 65.921875 28.71875 65.921875 
Q 24.65625 65.921875 20.015625 65.03125 
Q 15.375 64.15625 9.8125 62.3125 
L 9.8125 71.09375 
Q 15.4375 72.65625 20.34375 73.4375 
Q 25.25 74.21875 29.59375 74.21875 
Q 40.828125 74.21875 47.359375 69.109375 
Q 53.90625 64.015625 53.90625 55.328125 
Q 53.90625 49.265625 50.4375 45.09375 
Q 46.96875 40.921875 40.578125 39.3125 
" id="BitstreamVeraSans-Roman-33"/>
       <path d="M 31.78125 66.40625 
Q 24.171875 66.40625 20.328125 58.90625 
Q 16.5 51.421875 16.5 36.375 
Q 16.5 21.390625 20.328125 13.890625 
Q 24.171875 6.390625 31.78125 6.390625 
Q 39.453125 6.390625 43.28125 13.890625 
Q 47.125 21.390625 47.125 36.375 
Q 47.125 51.421875 43.28125 58.90625 
Q 39.453125 66.40625 31.78125 66.40625 
M 31.78125 74.21875 
Q 44.046875 74.21875 50.515625 64.515625 
Q 56.984375 54.828125 56.984375 36.375 
Q 56.984375 17.96875 50.515625 8.265625 
Q 44.046875 -1.421875 31.78125 -1.421875 
Q 19.53125 -1.421875 13.0625 8.265625 
Q 6.59375 17.96875 6.59375 36.375 
Q 6.59375 54.828125 13.0625 64.515625 
Q 19.53125 74.21875 31.78125 74.21875 
" id="BitstreamVeraSans-Roman-30"/>
      </defs>
      <g transform="translate(102.54 565.354375)scale(0.12 -0.12)">
       <use transform="translate(0.0 0.796875)" xlink:href="#BitstreamVeraSans-Roman-31"/>
       <use transform="translate(63.623046875 0.796875)" xlink:href="#BitstreamVeraSans-Roman-30"/>
       <use transform="translate(132.75859375 48.046875)scale(0.7)" xlink:href="#BitstreamVeraSans-Roman-2d"/>
       <use transform="translate(158.0173828125 48.046875)scale(0.7)" xlink:href="#BitstreamVeraSans-Roman-33"/>
      </g>
     </g>
    </g>
    <g id="xtick_2">
     <g id="line2d_13">
      <g>
       <use style="stroke:#000000;stroke-width:0.5;" x="353.28" xlink:href="#mef78944afa" y="551.61"/>
      </g>
     </g>
     <g id="line2d_14">
      <g>
       <use style="stroke:#000000;stroke-width:0.5;" x="353.28" xlink:href="#m1e76724a50" y="61.29"/>
      </g>
     </g>
     <g id="text_2">
      <!-- $\mathdefault{10^{-2}}$ -->
      <defs>
       <path d="M 19.1875 8.296875 
L 53.609375 8.296875 
L 53.609375 0 
L 7.328125 0 
L 7.328125 8.296875 
Q 12.9375 14.109375 22.625 23.890625 
Q 32.328125 33.6875 34.8125 36.53125 
Q 39.546875 41.84375 41.421875 45.53125 
Q 43.3125 49.21875 43.3125 52.78125 
Q 43.3125 58.59375 39.234375 62.25 
Q 35.15625 65.921875 28.609375 65.921875 
Q 23.96875 65.921875 18.8125 64.3125 
Q 13.671875 62.703125 7.8125 59.421875 
L 7.8125 69.390625 
Q 13.765625 71.78125 18.9375 73 
Q 24.125 74.21875 28.421875 74.21875 
Q 39.75 74.21875 46.484375 68.546875 
Q 53.21875 62.890625 53.21875 53.421875 
Q 53.21875 48.921875 51.53125 44.890625 
Q 49.859375 40.875 45.40625 35.40625 
Q 44.1875 33.984375 37.640625 27.21875 
Q 31.109375 20.453125 19.1875 8.296875 
" id="BitstreamVeraSans-Roman-32"/>
      </defs>
      <g transform="translate(340.62 565.354375)scale(0.12 -0.12)">
       <use transform="translate(0.0 0.796875)" xlink:href="#BitstreamVeraSans-Roman-31"/>
       <use transform="translate(63.623046875 0.796875)" xlink:href="#BitstreamVeraSans-Roman-30"/>
       <use transform="translate(132.75859375 48.046875)scale(0.7)" xlink:href="#BitstreamVeraSans-Roman-2d"/>
       <use transform="translate(158.0173828125 48.046875)scale(0.7)" xlink:href="#BitstreamVeraSans-Roman-32"/>
      </g>
     </g>
    </g>
    <g id="xtick_3">
     <g id="line2d_15">
      <g>
       <use style="stroke:#000000;stroke-width:0.5;" x="591.36" xlink:href="#mef78944afa" y="551.61"/>
      </g>
     </g>
     <g id="line2d_16">
      <g>
       <use style="stroke:#000000;stroke-width:0.5;" x="591.36" xlink:href="#m1e76724a50" y="61.29"/>
      </g>
     </g>
     <g id="text_3">
      <!-- $\mathdefault{10^{-1}}$ -->
      <g transform="translate(578.7 565.234375)scale(0.12 -0.12)">
       <use transform="translate(0.0 0.7156250000000028)" xlink:href="#BitstreamVeraSans-Roman-31"/>
       <use transform="translate(63.623046875 0.7156250000000028)" xlink:href="#BitstreamVeraSans-Roman-30"/>
       <use transform="translate(132.75859375 47.965625)scale(0.7)" xlink:href="#BitstreamVeraSans-Roman-2d"/>
       <use transform="translate(158.0173828125 47.965625)scale(0.7)" xlink:href="#BitstreamVeraSans-Roman-31"/>
      </g>
     </g>
    </g>
    <g id="xtick_4">
     <g id="line2d_17">
      <g>
       <use style="stroke:#000000;stroke-width:0.5;" x="829.44" xlink:href="#mef78944afa" y="551.61"/>
      </g>
     </g>
     <g id="line2d_18">
      <g>
       <use style="stroke:#000000;stroke-width:0.5;" x="829.44" xlink:href="#m1e76724a50" y="61.29"/>
      </g>
     </g>
     <g id="text_4">
      <!-- $\mathdefault{10^{0}}$ -->
      <g transform="translate(818.28 565.354375)scale(0.12 -0.12)">
       <use transform="translate(0.0 0.796875)" xlink:href="#BitstreamVeraSans-Roman-31"/>
       <use transform="translate(63.623046875 0.796875)" xlink:href="#BitstreamVeraSans-Roman-30"/>
       <use transform="translate(132.75859375 48.046875)scale(0.7)" xlink:href="#BitstreamVeraSans-Roman-30"/>
      </g>
     </g>
    </g>
    <g id="xtick_5">
     <g id="line2d_19">
      <defs>
       <path d="M 0 0 
L 0 -2 
" id="m994ca91f62" style="stroke:#000000;stroke-width:0.5;"/>
      </defs>
      <g>
       <use style="stroke:#000000;stroke-width:0.5;" x="186.869221368" xlink:href="#m994ca91f62" y="551.61"/>
      </g>
     </g>
     <g id="line2d_20">
      <defs>
       <path d="M 0 0 
L 0 2 
" id="m3b22b1f0e6" style="stroke:#000000;stroke-width:0.5;"/>
      </defs>
      <g>
       <use style="stroke:#000000;stroke-width:0.5;" x="186.869221368" xlink:href="#m3b22b1f0e6" y="61.29"/>
      </g>
     </g>
    </g>
    <g id="xtick_6">
     <g id="line2d_21">
      <g>
       <use style="stroke:#000000;stroke-width:0.5;" x="228.793028324" xlink:href="#m994ca91f62" y="551.61"/>
      </g>
     </g>
     <g id="line2d_22">
      <g>
       <use style="stroke:#000000;stroke-width:0.5;" x="228.793028324" xlink:href="#m3b22b1f0e6" y="61.29"/>
      </g>
     </g>
    </g>
    <g id="xtick_7">
     <g id="line2d_23">
      <g>
       <use style="stroke:#000000;stroke-width:0.5;" x="258.538442735" xlink:href="#m994ca91f62" y="551.61"/>
      </g>
     </g>
     <g id="line2d_24">
      <g>
       <use style="stroke:#000000;stroke-width:0.5;" x="258.538442735" xlink:href="#m3b22b1f0e6" y="61.29"/>
      </g>
     </g>
    </g>
    <g id="xtick_8">
     <g id="line2d_25">
      <g>
       <use style="stroke:#000000;stroke-width:0.5;" x="281.610778632" xlink:href="#m994ca91f62" y="551.61"/>
      </g>
     </g>
     <g id="line2d_26">
      <g>
       <use style="stroke:#000000;stroke-width:0.5;" x="281.610778632" xlink:href="#m3b22b1f0e6" y="61.29"/>
      </g>
     </g>
    </g>
    <g id="xtick_9">
     <g id="line2d_27">
      <g>
       <use style="stroke:#000000;stroke-width:0.5;" x="300.462249691" xlink:href="#m994ca91f62" y="551.61"/>
      </g>
     </g>
     <g id="line2d_28">
      <g>
       <use style="stroke:#000000;stroke-width:0.5;" x="300.462249691" xlink:href="#m3b22b1f0e6" y="61.29"/>
      </g>
     </g>
    </g>
    <g id="xtick_10">
     <g id="line2d_29">
      <g>
       <use style="stroke:#000000;stroke-width:0.5;" x="316.400941367" xlink:href="#m994ca91f62" y="551.61"/>
      </g>
     </g>
     <g id="line2d_30">
      <g>
       <use style="stroke:#000000;stroke-width:0.5;" x="316.400941367" xlink:href="#m3b22b1f0e6" y="61.29"/>
      </g>
     </g>
    </g>
    <g id="xtick_11">
     <g id="line2d_31">
      <g>
       <use style="stroke:#000000;stroke-width:0.5;" x="330.207664103" xlink:href="#m994ca91f62" y="551.61"/>
      </g>
     </g>
     <g id="line2d_32">
      <g>
       <use style="stroke:#000000;stroke-width:0.5;" x="330.207664103" xlink:href="#m3b22b1f0e6" y="61.29"/>
      </g>
     </g>
    </g>
    <g id="xtick_12">
     <g id="line2d_33">
      <g>
       <use style="stroke:#000000;stroke-width:0.5;" x="342.386056647" xlink:href="#m994ca91f62" y="551.61"/>
      </g>
     </g>
     <g id="line2d_34">
      <g>
       <use style="stroke:#000000;stroke-width:0.5;" x="342.386056647" xlink:href="#m3b22b1f0e6" y="61.29"/>
      </g>
     </g>
    </g>
    <g id="xtick_13">
     <g id="line2d_35">
      <g>
       <use style="stroke:#000000;stroke-width:0.5;" x="424.949221368" xlink:href="#m994ca91f62" y="551.61"/>
      </g>
     </g>
     <g id="line2d_36">
      <g>
       <use style="stroke:#000000;stroke-width:0.5;" x="424.949221368" xlink:href="#m3b22b1f0e6" y="61.29"/>
      </g>
     </g>
    </g>
    <g id="xtick_14">
     <g id="line2d_37">
      <g>
       <use style="stroke:#000000;stroke-width:0.5;" x="466.873028324" xlink:href="#m994ca91f62" y="551.61"/>
      </g>
     </g>
     <g id="line2d_38">
      <g>
       <use style="stroke:#000000;stroke-width:0.5;" x="466.873028324" xlink:href="#m3b22b1f0e6" y="61.29"/>
      </g>
     </g>
    </g>
    <g id="xtick_15">
     <g id="line2d_39">
      <g>
       <use style="stroke:#000000;stroke-width:0.5;" x="496.618442735" xlink:href="#m994ca91f62" y="551.61"/>
      </g>
     </g>
     <g id="line2d_40">
      <g>
       <use style="stroke:#000000;stroke-width:0.5;" x="496.618442735" xlink:href="#m3b22b1f0e6" y="61.29"/>
      </g>
     </g>
    </g>
    <g id="xtick_16">
     <g id="line2d_41">
      <g>
       <use style="stroke:#000000;stroke-width:0.5;" x="519.690778632" xlink:href="#m994ca91f62" y="551.61"/>
      </g>
     </g>
     <g id="line2d_42">
      <g>
       <use style="stroke:#000000;stroke-width:0.5;" x="519.690778632" xlink:href="#m3b22b1f0e6" y="61.29"/>
      </g>
     </g>
    </g>
    <g id="xtick_17">
     <g id="line2d_43">
      <g>
       <use style="stroke:#000000;stroke-width:0.5;" x="538.542249691" xlink:href="#m994ca91f62" y="551.61"/>
      </g>
     </g>
     <g id="line2d_44">
      <g>
       <use style="stroke:#000000;stroke-width:0.5;" x="538.542249691" xlink:href="#m3b22b1f0e6" y="61.29"/>
      </g>
     </g>
    </g>
    <g id="xtick_18">
     <g id="line2d_45">
      <g>
       <use style="stroke:#000000;stroke-width:0.5;" x="554.480941367" xlink:href="#m994ca91f62" y="551.61"/>
      </g>
     </g>
     <g id="line2d_46">
      <g>
       <use style="stroke:#000000;stroke-width:0.5;" x="554.480941367" xlink:href="#m3b22b1f0e6" y="61.29"/>
      </g>
     </g>
    </g>
    <g id="xtick_19">
     <g id="line2d_47">
      <g>
       <use style="stroke:#000000;stroke-width:0.5;" x="568.287664103" xlink:href="#m994ca91f62" y="551.61"/>
      </g>
     </g>
     <g id="line2d_48">
      <g>
       <use style="stroke:#000000;stroke-width:0.5;" x="568.287664103" xlink:href="#m3b22b1f0e6" y="61.29"/>
      </g>
     </g>
    </g>
    <g id="xtick_20">
     <g id="line2d_49">
      <g>
       <use style="stroke:#000000;stroke-width:0.5;" x="580.466056647" xlink:href="#m994ca91f62" y="551.61"/>
      </g>
     </g>
     <g id="line2d_50">
      <g>
       <use style="stroke:#000000;stroke-width:0.5;" x="580.466056647" xlink:href="#m3b22b1f0e6" y="61.29"/>
      </g>
     </g>
    </g>
    <g id="xtick_21">
     <g id="line2d_51">
      <g>
       <use style="stroke:#000000;stroke-width:0.5;" x="663.029221368" xlink:href="#m994ca91f62" y="551.61"/>
      </g>
     </g>
     <g id="line2d_52">
      <g>
       <use style="stroke:#000000;stroke-width:0.5;" x="663.029221368" xlink:href="#m3b22b1f0e6" y="61.29"/>
      </g>
     </g>
    </g>
    <g id="xtick_22">
     <g id="line2d_53">
      <g>
       <use style="stroke:#000000;stroke-width:0.5;" x="704.953028324" xlink:href="#m994ca91f62" y="551.61"/>
      </g>
     </g>
     <g id="line2d_54">
      <g>
       <use style="stroke:#000000;stroke-width:0.5;" x="704.953028324" xlink:href="#m3b22b1f0e6" y="61.29"/>
      </g>
     </g>
    </g>
    <g id="xtick_23">
     <g id="line2d_55">
      <g>
       <use style="stroke:#000000;stroke-width:0.5;" x="734.698442735" xlink:href="#m994ca91f62" y="551.61"/>
      </g>
     </g>
     <g id="line2d_56">
      <g>
       <use style="stroke:#000000;stroke-width:0.5;" x="734.698442735" xlink:href="#m3b22b1f0e6" y="61.29"/>
      </g>
     </g>
    </g>
    <g id="xtick_24">
     <g id="line2d_57">
      <g>
       <use style="stroke:#000000;stroke-width:0.5;" x="757.770778632" xlink:href="#m994ca91f62" y="551.61"/>
      </g>
     </g>
     <g id="line2d_58">
      <g>
       <use style="stroke:#000000;stroke-width:0.5;" x="757.770778632" xlink:href="#m3b22b1f0e6" y="61.29"/>
      </g>
     </g>
    </g>
    <g id="xtick_25">
     <g id="line2d_59">
      <g>
       <use style="stroke:#000000;stroke-width:0.5;" x="776.622249691" xlink:href="#m994ca91f62" y="551.61"/>
      </g>
     </g>
     <g id="line2d_60">
      <g>
       <use style="stroke:#000000;stroke-width:0.5;" x="776.622249691" xlink:href="#m3b22b1f0e6" y="61.29"/>
      </g>
     </g>
    </g>
    <g id="xtick_26">
     <g id="line2d_61">
      <g>
       <use style="stroke:#000000;stroke-width:0.5;" x="792.560941367" xlink:href="#m994ca91f62" y="551.61"/>
      </g>
     </g>
     <g id="line2d_62">
      <g>
       <use style="stroke:#000000;stroke-width:0.5;" x="792.560941367" xlink:href="#m3b22b1f0e6" y="61.29"/>
      </g>
     </g>
    </g>
    <g id="xtick_27">
     <g id="line2d_63">
      <g>
       <use style="stroke:#000000;stroke-width:0.5;" x="806.367664103" xlink:href="#m994ca91f62" y="551.61"/>
      </g>
     </g>
     <g id="line2d_64">
      <g>
       <use style="stroke:#000000;stroke-width:0.5;" x="806.367664103" xlink:href="#m3b22b1f0e6" y="61.29"/>
      </g>
     </g>
    </g>
    <g id="xtick_28">
     <g id="line2d_65">
      <g>
       <use style="stroke:#000000;stroke-width:0.5;" x="818.546056647" xlink:href="#m994ca91f62" y="551.61"/>
      </g>
     </g>
     <g id="line2d_66">
      <g>
       <use style="stroke:#000000;stroke-width:0.5;" x="818.546056647" xlink:href="#m3b22b1f0e6" y="61.29"/>
      </g>
     </g>
    </g>
    <g id="text_5">
     <!-- Frequency [kHz] -->
     <defs>
      <path d="M 9.078125 75.984375 
L 18.109375 75.984375 
L 18.109375 31.109375 
L 44.921875 54.6875 
L 56.390625 54.6875 
L 27.390625 29.109375 
L 57.625 0 
L 45.90625 0 
L 18.109375 26.703125 
L 18.109375 0 
L 9.078125 0 
z
" id="BitstreamVeraSans-Roman-6b"/>
      <path d="M 56.203125 29.59375 
L 56.203125 25.203125 
L 14.890625 25.203125 
Q 15.484375 15.921875 20.484375 11.0625 
Q 25.484375 6.203125 34.421875 6.203125 
Q 39.59375 6.203125 44.453125 7.46875 
Q 49.3125 8.734375 54.109375 11.28125 
L 54.109375 2.78125 
Q 49.265625 0.734375 44.1875 -0.34375 
Q 39.109375 -1.421875 33.890625 -1.421875 
Q 20.796875 -1.421875 13.15625 6.1875 
Q 5.515625 13.8125 5.515625 26.8125 
Q 5.515625 40.234375 12.765625 48.109375 
Q 20.015625 56 32.328125 56 
Q 43.359375 56 49.78125 48.890625 
Q 56.203125 41.796875 56.203125 29.59375 
M 47.21875 32.234375 
Q 47.125 39.59375 43.09375 43.984375 
Q 39.0625 48.390625 32.421875 48.390625 
Q 24.90625 48.390625 20.390625 44.140625 
Q 15.875 39.890625 15.1875 32.171875 
z
" id="BitstreamVeraSans-Roman-65"/>
      <path d="M 9.8125 72.90625 
L 51.703125 72.90625 
L 51.703125 64.59375 
L 19.671875 64.59375 
L 19.671875 43.109375 
L 48.578125 43.109375 
L 48.578125 34.8125 
L 19.671875 34.8125 
L 19.671875 0 
L 9.8125 0 
z
" id="BitstreamVeraSans-Roman-46"/>
      <path d="M 48.78125 52.59375 
L 48.78125 44.1875 
Q 44.96875 46.296875 41.140625 47.34375 
Q 37.3125 48.390625 33.40625 48.390625 
Q 24.65625 48.390625 19.8125 42.84375 
Q 14.984375 37.3125 14.984375 27.296875 
Q 14.984375 17.28125 19.8125 11.734375 
Q 24.65625 6.203125 33.40625 6.203125 
Q 37.3125 6.203125 41.140625 7.25 
Q 44.96875 8.296875 48.78125 10.40625 
L 48.78125 2.09375 
Q 45.015625 0.34375 40.984375 -0.53125 
Q 36.96875 -1.421875 32.421875 -1.421875 
Q 20.0625 -1.421875 12.78125 6.34375 
Q 5.515625 14.109375 5.515625 27.296875 
Q 5.515625 40.671875 12.859375 48.328125 
Q 20.21875 56 33.015625 56 
Q 37.15625 56 41.109375 55.140625 
Q 45.0625 54.296875 48.78125 52.59375 
" id="BitstreamVeraSans-Roman-63"/>
      <path d="M 9.8125 72.90625 
L 19.671875 72.90625 
L 19.671875 43.015625 
L 55.515625 43.015625 
L 55.515625 72.90625 
L 65.375 72.90625 
L 65.375 0 
L 55.515625 0 
L 55.515625 34.71875 
L 19.671875 34.71875 
L 19.671875 0 
L 9.8125 0 
z
" id="BitstreamVeraSans-Roman-48"/>
      <path d="M 14.796875 27.296875 
Q 14.796875 17.390625 18.875 11.75 
Q 22.953125 6.109375 30.078125 6.109375 
Q 37.203125 6.109375 41.296875 11.75 
Q 45.40625 17.390625 45.40625 27.296875 
Q 45.40625 37.203125 41.296875 42.84375 
Q 37.203125 48.484375 30.078125 48.484375 
Q 22.953125 48.484375 18.875 42.84375 
Q 14.796875 37.203125 14.796875 27.296875 
M 45.40625 8.203125 
Q 42.578125 3.328125 38.25 0.953125 
Q 33.9375 -1.421875 27.875 -1.421875 
Q 17.96875 -1.421875 11.734375 6.484375 
Q 5.515625 14.40625 5.515625 27.296875 
Q 5.515625 40.1875 11.734375 48.09375 
Q 17.96875 56 27.875 56 
Q 33.9375 56 38.25 53.625 
Q 42.578125 51.265625 45.40625 46.390625 
L 45.40625 54.6875 
L 54.390625 54.6875 
L 54.390625 -20.796875 
L 45.40625 -20.796875 
z
" id="BitstreamVeraSans-Roman-71"/>
      <path d="M 54.890625 33.015625 
L 54.890625 0 
L 45.90625 0 
L 45.90625 32.71875 
Q 45.90625 40.484375 42.875 44.328125 
Q 39.84375 48.1875 33.796875 48.1875 
Q 26.515625 48.1875 22.3125 43.546875 
Q 18.109375 38.921875 18.109375 30.90625 
L 18.109375 0 
L 9.078125 0 
L 9.078125 54.6875 
L 18.109375 54.6875 
L 18.109375 46.1875 
Q 21.34375 51.125 25.703125 53.5625 
Q 30.078125 56 35.796875 56 
Q 45.21875 56 50.046875 50.171875 
Q 54.890625 44.34375 54.890625 33.015625 
" id="BitstreamVeraSans-Roman-6e"/>
      <path d="M 41.109375 46.296875 
Q 39.59375 47.171875 37.8125 47.578125 
Q 36.03125 48 33.890625 48 
Q 26.265625 48 22.1875 43.046875 
Q 18.109375 38.09375 18.109375 28.8125 
L 18.109375 0 
L 9.078125 0 
L 9.078125 54.6875 
L 18.109375 54.6875 
L 18.109375 46.1875 
Q 20.953125 51.171875 25.484375 53.578125 
Q 30.03125 56 36.53125 56 
Q 37.453125 56 38.578125 55.875 
Q 39.703125 55.765625 41.0625 55.515625 
z
" id="BitstreamVeraSans-Roman-72"/>
      <path d="M 32.171875 -5.078125 
Q 28.375 -14.84375 24.75 -17.8125 
Q 21.140625 -20.796875 15.09375 -20.796875 
L 7.90625 -20.796875 
L 7.90625 -13.28125 
L 13.1875 -13.28125 
Q 16.890625 -13.28125 18.9375 -11.515625 
Q 21 -9.765625 23.484375 -3.21875 
L 25.09375 0.875 
L 2.984375 54.6875 
L 12.5 54.6875 
L 29.59375 11.921875 
L 46.6875 54.6875 
L 56.203125 54.6875 
z
" id="BitstreamVeraSans-Roman-79"/>
      <path d="M 8.59375 75.984375 
L 29.296875 75.984375 
L 29.296875 69 
L 17.578125 69 
L 17.578125 -6.203125 
L 29.296875 -6.203125 
L 29.296875 -13.1875 
L 8.59375 -13.1875 
z
" id="BitstreamVeraSans-Roman-5b"/>
      <path d="M 30.421875 75.984375 
L 30.421875 -13.1875 
L 9.71875 -13.1875 
L 9.71875 -6.203125 
L 21.390625 -6.203125 
L 21.390625 69 
L 9.71875 69 
L 9.71875 75.984375 
z
" id="BitstreamVeraSans-Roman-5d"/>
      <path d="M 5.515625 54.6875 
L 48.1875 54.6875 
L 48.1875 46.484375 
L 14.40625 7.171875 
L 48.1875 7.171875 
L 48.1875 0 
L 4.296875 0 
L 4.296875 8.203125 
L 38.09375 47.515625 
L 5.515625 47.515625 
z
" id="BitstreamVeraSans-Roman-7a"/>
      <path id="BitstreamVeraSans-Roman-20"/>
      <path d="M 8.5 21.578125 
L 8.5 54.6875 
L 17.484375 54.6875 
L 17.484375 21.921875 
Q 17.484375 14.15625 20.5 10.265625 
Q 23.53125 6.390625 29.59375 6.390625 
Q 36.859375 6.390625 41.078125 11.03125 
Q 45.3125 15.671875 45.3125 23.6875 
L 45.3125 54.6875 
L 54.296875 54.6875 
L 54.296875 0 
L 45.3125 0 
L 45.3125 8.40625 
Q 42.046875 3.421875 37.71875 1 
Q 33.40625 -1.421875 27.6875 -1.421875 
Q 18.265625 -1.421875 13.375 4.4375 
Q 8.5 10.296875 8.5 21.578125 
" id="BitstreamVeraSans-Roman-75"/>
     </defs>
     <g transform="translate(423.0384375 581.968125)scale(0.12 -0.12)">
      <use xlink:href="#BitstreamVeraSans-Roman-46"/>
      <use x="57.41015625" xlink:href="#BitstreamVeraSans-Roman-72"/>
      <use x="98.4921875" xlink:href="#BitstreamVeraSans-Roman-65"/>
      <use x="160.015625" xlink:href="#BitstreamVeraSans-Roman-71"/>
      <use x="223.4921875" xlink:href="#BitstreamVeraSans-Roman-75"/>
      <use x="286.87109375" xlink:href="#BitstreamVeraSans-Roman-65"/>
      <use x="348.39453125" xlink:href="#BitstreamVeraSans-Roman-6e"/>
      <use x="411.7734375" xlink:href="#BitstreamVeraSans-Roman-63"/>
      <use x="466.75390625" xlink:href="#BitstreamVeraSans-Roman-79"/>
      <use x="525.93359375" xlink:href="#BitstreamVeraSans-Roman-20"/>
      <use x="557.720703125" xlink:href="#BitstreamVeraSans-Roman-5b"/>
      <use x="596.734375" xlink:href="#BitstreamVeraSans-Roman-6b"/>
      <use x="654.64453125" xlink:href="#BitstreamVeraSans-Roman-48"/>
      <use x="729.83984375" xlink:href="#BitstreamVeraSans-Roman-7a"/>
      <use x="782.330078125" xlink:href="#BitstreamVeraSans-Roman-5d"/>
     </g>
    </g>
   </g>
   <g id="matplotlib.axis_2">
    <g id="ytick_1">
     <g id="line2d_67">
      <defs>
       <path d="M 0 0 
L 4 0 
" id="m484fac7b86" style="stroke:#000000;stroke-width:0.5;"/>
      </defs>
      <g>
       <use style="stroke:#000000;stroke-width:0.5;" x="115.2" xlink:href="#m484fac7b86" y="551.61"/>
      </g>
     </g>
     <g id="line2d_68">
      <defs>
       <path d="M 0 0 
L -4 0 
" id="m959ba64d52" style="stroke:#000000;stroke-width:0.5;"/>
      </defs>
      <g>
       <use style="stroke:#000000;stroke-width:0.5;" x="829.44" xlink:href="#m959ba64d52" y="551.61"/>
      </g>
     </g>
     <g id="text_6">
      <!-- 8 -->
      <defs>
       <path d="M 10.59375 35.5 
L 73.1875 35.5 
L 73.1875 27.203125 
L 10.59375 27.203125 
z
" id="BitstreamVeraSans-Roman-2212"/>
       <path d="M 31.78125 34.625 
Q 24.75 34.625 20.71875 30.859375 
Q 16.703125 27.09375 16.703125 20.515625 
Q 16.703125 13.921875 20.71875 10.15625 
Q 24.75 6.390625 31.78125 6.390625 
Q 38.8125 6.390625 42.859375 10.171875 
Q 46.921875 13.96875 46.921875 20.515625 
Q 46.921875 27.09375 42.890625 30.859375 
Q 38.875 34.625 31.78125 34.625 
M 21.921875 38.8125 
Q 15.578125 40.375 12.03125 44.71875 
Q 8.5 49.078125 8.5 55.328125 
Q 8.5 64.0625 14.71875 69.140625 
Q 20.953125 74.21875 31.78125 74.21875 
Q 42.671875 74.21875 48.875 69.140625 
Q 55.078125 64.0625 55.078125 55.328125 
Q 55.078125 49.078125 51.53125 44.71875 
Q 48 40.375 41.703125 38.8125 
Q 48.828125 37.15625 52.796875 32.3125 
Q 56.78125 27.484375 56.78125 20.515625 
Q 56.78125 9.90625 50.3125 4.234375 
Q 43.84375 -1.421875 31.78125 -1.421875 
Q 19.734375 -1.421875 13.25 4.234375 
Q 6.78125 9.90625 6.78125 20.515625 
Q 6.78125 27.484375 10.78125 32.3125 
Q 14.796875 37.15625 21.921875 38.8125 
M 18.3125 54.390625 
Q 18.3125 48.734375 21.84375 45.5625 
Q 25.390625 42.390625 31.78125 42.390625 
Q 38.140625 42.390625 41.71875 45.5625 
Q 45.3125 48.734375 45.3125 54.390625 
Q 45.3125 60.0625 41.71875 63.234375 
Q 38.140625 66.40625 31.78125 66.40625 
Q 25.390625 66.40625 21.84375 63.234375 
Q 18.3125 60.0625 18.3125 54.390625 
" id="BitstreamVeraSans-Roman-38"/>
      </defs>
      <g transform="translate(93.509375 554.92125)scale(0.12 -0.12)">
       <use xlink:href="#BitstreamVeraSans-Roman-2212"/>
       <use x="83.7890625" xlink:href="#BitstreamVeraSans-Roman-38"/>
      </g>
     </g>
    </g>
    <g id="ytick_2">
     <g id="line2d_69">
      <g>
       <use style="stroke:#000000;stroke-width:0.5;" x="115.2" xlink:href="#m484fac7b86" y="497.13"/>
      </g>
     </g>
     <g id="line2d_70">
      <g>
       <use style="stroke:#000000;stroke-width:0.5;" x="829.44" xlink:href="#m959ba64d52" y="497.13"/>
      </g>
     </g>
     <g id="text_7">
      <!-- 7 -->
      <defs>
       <path d="M 8.203125 72.90625 
L 55.078125 72.90625 
L 55.078125 68.703125 
L 28.609375 0 
L 18.3125 0 
L 43.21875 64.59375 
L 8.203125 64.59375 
z
" id="BitstreamVeraSans-Roman-37"/>
      </defs>
      <g transform="translate(93.509375 500.44125)scale(0.12 -0.12)">
       <use xlink:href="#BitstreamVeraSans-Roman-2212"/>
       <use x="83.7890625" xlink:href="#BitstreamVeraSans-Roman-37"/>
      </g>
     </g>
    </g>
    <g id="ytick_3">
     <g id="line2d_71">
      <g>
       <use style="stroke:#000000;stroke-width:0.5;" x="115.2" xlink:href="#m484fac7b86" y="442.65"/>
      </g>
     </g>
     <g id="line2d_72">
      <g>
       <use style="stroke:#000000;stroke-width:0.5;" x="829.44" xlink:href="#m959ba64d52" y="442.65"/>
      </g>
     </g>
     <g id="text_8">
      <!-- 6 -->
      <defs>
       <path d="M 33.015625 40.375 
Q 26.375 40.375 22.484375 35.828125 
Q 18.609375 31.296875 18.609375 23.390625 
Q 18.609375 15.53125 22.484375 10.953125 
Q 26.375 6.390625 33.015625 6.390625 
Q 39.65625 6.390625 43.53125 10.953125 
Q 47.40625 15.53125 47.40625 23.390625 
Q 47.40625 31.296875 43.53125 35.828125 
Q 39.65625 40.375 33.015625 40.375 
M 52.59375 71.296875 
L 52.59375 62.3125 
Q 48.875 64.0625 45.09375 64.984375 
Q 41.3125 65.921875 37.59375 65.921875 
Q 27.828125 65.921875 22.671875 59.328125 
Q 17.53125 52.734375 16.796875 39.40625 
Q 19.671875 43.65625 24.015625 45.921875 
Q 28.375 48.1875 33.59375 48.1875 
Q 44.578125 48.1875 50.953125 41.515625 
Q 57.328125 34.859375 57.328125 23.390625 
Q 57.328125 12.15625 50.6875 5.359375 
Q 44.046875 -1.421875 33.015625 -1.421875 
Q 20.359375 -1.421875 13.671875 8.265625 
Q 6.984375 17.96875 6.984375 36.375 
Q 6.984375 53.65625 15.1875 63.9375 
Q 23.390625 74.21875 37.203125 74.21875 
Q 40.921875 74.21875 44.703125 73.484375 
Q 48.484375 72.75 52.59375 71.296875 
" id="BitstreamVeraSans-Roman-36"/>
      </defs>
      <g transform="translate(93.509375 445.96125)scale(0.12 -0.12)">
       <use xlink:href="#BitstreamVeraSans-Roman-2212"/>
       <use x="83.7890625" xlink:href="#BitstreamVeraSans-Roman-36"/>
      </g>
     </g>
    </g>
    <g id="ytick_4">
     <g id="line2d_73">
      <g>
       <use style="stroke:#000000;stroke-width:0.5;" x="115.2" xlink:href="#m484fac7b86" y="388.17"/>
      </g>
     </g>
     <g id="line2d_74">
      <g>
       <use style="stroke:#000000;stroke-width:0.5;" x="829.44" xlink:href="#m959ba64d52" y="388.17"/>
      </g>
     </g>
     <g id="text_9">
      <!-- 5 -->
      <defs>
       <path d="M 10.796875 72.90625 
L 49.515625 72.90625 
L 49.515625 64.59375 
L 19.828125 64.59375 
L 19.828125 46.734375 
Q 21.96875 47.46875 24.109375 47.828125 
Q 26.265625 48.1875 28.421875 48.1875 
Q 40.625 48.1875 47.75 41.5 
Q 54.890625 34.8125 54.890625 23.390625 
Q 54.890625 11.625 47.5625 5.09375 
Q 40.234375 -1.421875 26.90625 -1.421875 
Q 22.3125 -1.421875 17.546875 -0.640625 
Q 12.796875 0.140625 7.71875 1.703125 
L 7.71875 11.625 
Q 12.109375 9.234375 16.796875 8.0625 
Q 21.484375 6.890625 26.703125 6.890625 
Q 35.15625 6.890625 40.078125 11.328125 
Q 45.015625 15.765625 45.015625 23.390625 
Q 45.015625 31 40.078125 35.4375 
Q 35.15625 39.890625 26.703125 39.890625 
Q 22.75 39.890625 18.8125 39.015625 
Q 14.890625 38.140625 10.796875 36.28125 
z
" id="BitstreamVeraSans-Roman-35"/>
      </defs>
      <g transform="translate(93.509375 391.48125)scale(0.12 -0.12)">
       <use xlink:href="#BitstreamVeraSans-Roman-2212"/>
       <use x="83.7890625" xlink:href="#BitstreamVeraSans-Roman-35"/>
      </g>
     </g>
    </g>
    <g id="ytick_5">
     <g id="line2d_75">
      <g>
       <use style="stroke:#000000;stroke-width:0.5;" x="115.2" xlink:href="#m484fac7b86" y="333.69"/>
      </g>
     </g>
     <g id="line2d_76">
      <g>
       <use style="stroke:#000000;stroke-width:0.5;" x="829.44" xlink:href="#m959ba64d52" y="333.69"/>
      </g>
     </g>
     <g id="text_10">
      <!-- 4 -->
      <defs>
       <path d="M 37.796875 64.3125 
L 12.890625 25.390625 
L 37.796875 25.390625 
z
M 35.203125 72.90625 
L 47.609375 72.90625 
L 47.609375 25.390625 
L 58.015625 25.390625 
L 58.015625 17.1875 
L 47.609375 17.1875 
L 47.609375 0 
L 37.796875 0 
L 37.796875 17.1875 
L 4.890625 17.1875 
L 4.890625 26.703125 
z
" id="BitstreamVeraSans-Roman-34"/>
      </defs>
      <g transform="translate(93.509375 337.00125)scale(0.12 -0.12)">
       <use xlink:href="#BitstreamVeraSans-Roman-2212"/>
       <use x="83.7890625" xlink:href="#BitstreamVeraSans-Roman-34"/>
      </g>
     </g>
    </g>
    <g id="ytick_6">
     <g id="line2d_77">
      <g>
       <use style="stroke:#000000;stroke-width:0.5;" x="115.2" xlink:href="#m484fac7b86" y="279.21"/>
      </g>
     </g>
     <g id="line2d_78">
      <g>
       <use style="stroke:#000000;stroke-width:0.5;" x="829.44" xlink:href="#m959ba64d52" y="279.21"/>
      </g>
     </g>
     <g id="text_11">
      <!-- 3 -->
      <g transform="translate(93.509375 282.52125)scale(0.12 -0.12)">
       <use xlink:href="#BitstreamVeraSans-Roman-2212"/>
       <use x="83.7890625" xlink:href="#BitstreamVeraSans-Roman-33"/>
      </g>
     </g>
    </g>
    <g id="ytick_7">
     <g id="line2d_79">
      <g>
       <use style="stroke:#000000;stroke-width:0.5;" x="115.2" xlink:href="#m484fac7b86" y="224.73"/>
      </g>
     </g>
     <g id="line2d_80">
      <g>
       <use style="stroke:#000000;stroke-width:0.5;" x="829.44" xlink:href="#m959ba64d52" y="224.73"/>
      </g>
     </g>
     <g id="text_12">
      <!-- 2 -->
      <g transform="translate(93.509375 228.04125)scale(0.12 -0.12)">
       <use xlink:href="#BitstreamVeraSans-Roman-2212"/>
       <use x="83.7890625" xlink:href="#BitstreamVeraSans-Roman-32"/>
      </g>
     </g>
    </g>
    <g id="ytick_8">
     <g id="line2d_81">
      <g>
       <use style="stroke:#000000;stroke-width:0.5;" x="115.2" xlink:href="#m484fac7b86" y="170.25"/>
      </g>
     </g>
     <g id="line2d_82">
      <g>
       <use style="stroke:#000000;stroke-width:0.5;" x="829.44" xlink:href="#m959ba64d52" y="170.25"/>
      </g>
     </g>
     <g id="text_13">
      <!-- 1 -->
      <g transform="translate(93.509375 173.56125)scale(0.12 -0.12)">
       <use xlink:href="#BitstreamVeraSans-Roman-2212"/>
       <use x="83.7890625" xlink:href="#BitstreamVeraSans-Roman-31"/>
      </g>
     </g>
    </g>
    <g id="ytick_9">
     <g id="line2d_83">
      <g>
       <use style="stroke:#000000;stroke-width:0.5;" x="115.2" xlink:href="#m484fac7b86" y="115.77"/>
      </g>
     </g>
     <g id="line2d_84">
      <g>
       <use style="stroke:#000000;stroke-width:0.5;" x="829.44" xlink:href="#m959ba64d52" y="115.77"/>
      </g>
     </g>
     <g id="text_14">
      <!-- 0 -->
      <g transform="translate(103.565 119.08125)scale(0.12 -0.12)">
       <use xlink:href="#BitstreamVeraSans-Roman-30"/>
      </g>
     </g>
    </g>
    <g id="ytick_10">
     <g id="line2d_85">
      <g>
       <use style="stroke:#000000;stroke-width:0.5;" x="115.2" xlink:href="#m484fac7b86" y="61.29"/>
      </g>
     </g>
     <g id="line2d_86">
      <g>
       <use style="stroke:#000000;stroke-width:0.5;" x="829.44" xlink:href="#m959ba64d52" y="61.29"/>
      </g>
     </g>
     <g id="text_15">
      <!-- 1 -->
      <g transform="translate(103.565 64.60125)scale(0.12 -0.12)">
       <use xlink:href="#BitstreamVeraSans-Roman-31"/>
      </g>
     </g>
    </g>
    <g id="text_16">
     <!-- Phase [rad] -->
     <defs>
      <path d="M 44.28125 53.078125 
L 44.28125 44.578125 
Q 40.484375 46.53125 36.375 47.5 
Q 32.28125 48.484375 27.875 48.484375 
Q 21.1875 48.484375 17.84375 46.4375 
Q 14.5 44.390625 14.5 40.28125 
Q 14.5 37.15625 16.890625 35.375 
Q 19.28125 33.59375 26.515625 31.984375 
L 29.59375 31.296875 
Q 39.15625 29.25 43.1875 25.515625 
Q 47.21875 21.78125 47.21875 15.09375 
Q 47.21875 7.46875 41.1875 3.015625 
Q 35.15625 -1.421875 24.609375 -1.421875 
Q 20.21875 -1.421875 15.453125 -0.5625 
Q 10.6875 0.296875 5.421875 2 
L 5.421875 11.28125 
Q 10.40625 8.6875 15.234375 7.390625 
Q 20.0625 6.109375 24.8125 6.109375 
Q 31.15625 6.109375 34.5625 8.28125 
Q 37.984375 10.453125 37.984375 14.40625 
Q 37.984375 18.0625 35.515625 20.015625 
Q 33.0625 21.96875 24.703125 23.78125 
L 21.578125 24.515625 
Q 13.234375 26.265625 9.515625 29.90625 
Q 5.8125 33.546875 5.8125 39.890625 
Q 5.8125 47.609375 11.28125 51.796875 
Q 16.75 56 26.8125 56 
Q 31.78125 56 36.171875 55.265625 
Q 40.578125 54.546875 44.28125 53.078125 
" id="BitstreamVeraSans-Roman-73"/>
      <path d="M 45.40625 46.390625 
L 45.40625 75.984375 
L 54.390625 75.984375 
L 54.390625 0 
L 45.40625 0 
L 45.40625 8.203125 
Q 42.578125 3.328125 38.25 0.953125 
Q 33.9375 -1.421875 27.875 -1.421875 
Q 17.96875 -1.421875 11.734375 6.484375 
Q 5.515625 14.40625 5.515625 27.296875 
Q 5.515625 40.1875 11.734375 48.09375 
Q 17.96875 56 27.875 56 
Q 33.9375 56 38.25 53.625 
Q 42.578125 51.265625 45.40625 46.390625 
M 14.796875 27.296875 
Q 14.796875 17.390625 18.875 11.75 
Q 22.953125 6.109375 30.078125 6.109375 
Q 37.203125 6.109375 41.296875 11.75 
Q 45.40625 17.390625 45.40625 27.296875 
Q 45.40625 37.203125 41.296875 42.84375 
Q 37.203125 48.484375 30.078125 48.484375 
Q 22.953125 48.484375 18.875 42.84375 
Q 14.796875 37.203125 14.796875 27.296875 
" id="BitstreamVeraSans-Roman-64"/>
      <path d="M 54.890625 33.015625 
L 54.890625 0 
L 45.90625 0 
L 45.90625 32.71875 
Q 45.90625 40.484375 42.875 44.328125 
Q 39.84375 48.1875 33.796875 48.1875 
Q 26.515625 48.1875 22.3125 43.546875 
Q 18.109375 38.921875 18.109375 30.90625 
L 18.109375 0 
L 9.078125 0 
L 9.078125 75.984375 
L 18.109375 75.984375 
L 18.109375 46.1875 
Q 21.34375 51.125 25.703125 53.5625 
Q 30.078125 56 35.796875 56 
Q 45.21875 56 50.046875 50.171875 
Q 54.890625 44.34375 54.890625 33.015625 
" id="BitstreamVeraSans-Roman-68"/>
      <path d="M 34.28125 27.484375 
Q 23.390625 27.484375 19.1875 25 
Q 14.984375 22.515625 14.984375 16.5 
Q 14.984375 11.71875 18.140625 8.90625 
Q 21.296875 6.109375 26.703125 6.109375 
Q 34.1875 6.109375 38.703125 11.40625 
Q 43.21875 16.703125 43.21875 25.484375 
L 43.21875 27.484375 
z
M 52.203125 31.203125 
L 52.203125 0 
L 43.21875 0 
L 43.21875 8.296875 
Q 40.140625 3.328125 35.546875 0.953125 
Q 30.953125 -1.421875 24.3125 -1.421875 
Q 15.921875 -1.421875 10.953125 3.296875 
Q 6 8.015625 6 15.921875 
Q 6 25.140625 12.171875 29.828125 
Q 18.359375 34.515625 30.609375 34.515625 
L 43.21875 34.515625 
L 43.21875 35.40625 
Q 43.21875 41.609375 39.140625 45 
Q 35.0625 48.390625 27.6875 48.390625 
Q 23 48.390625 18.546875 47.265625 
Q 14.109375 46.140625 10.015625 43.890625 
L 10.015625 52.203125 
Q 14.9375 54.109375 19.578125 55.046875 
Q 24.21875 56 28.609375 56 
Q 40.484375 56 46.34375 49.84375 
Q 52.203125 43.703125 52.203125 31.203125 
" id="BitstreamVeraSans-Roman-61"/>
      <path d="M 19.671875 64.796875 
L 19.671875 37.40625 
L 32.078125 37.40625 
Q 38.96875 37.40625 42.71875 40.96875 
Q 46.484375 44.53125 46.484375 51.125 
Q 46.484375 57.671875 42.71875 61.234375 
Q 38.96875 64.796875 32.078125 64.796875 
z
M 9.8125 72.90625 
L 32.078125 72.90625 
Q 44.34375 72.90625 50.609375 67.359375 
Q 56.890625 61.8125 56.890625 51.125 
Q 56.890625 40.328125 50.609375 34.8125 
Q 44.34375 29.296875 32.078125 29.296875 
L 19.671875 29.296875 
L 19.671875 0 
L 9.8125 0 
z
" id="BitstreamVeraSans-Roman-50"/>
     </defs>
     <g transform="translate(86.01375 340.9059375)rotate(-90.0)scale(0.12 -0.12)">
      <use xlink:href="#BitstreamVeraSans-Roman-50"/>
      <use x="60.302734375" xlink:href="#BitstreamVeraSans-Roman-68"/>
      <use x="123.681640625" xlink:href="#BitstreamVeraSans-Roman-61"/>
      <use x="184.9609375" xlink:href="#BitstreamVeraSans-Roman-73"/>
      <use x="237.060546875" xlink:href="#BitstreamVeraSans-Roman-65"/>
      <use x="298.583984375" xlink:href="#BitstreamVeraSans-Roman-20"/>
      <use x="330.37109375" xlink:href="#BitstreamVeraSans-Roman-5b"/>
      <use x="369.384765625" xlink:href="#BitstreamVeraSans-Roman-72"/>
      <use x="410.498046875" xlink:href="#BitstreamVeraSans-Roman-61"/>
      <use x="471.77734375" xlink:href="#BitstreamVeraSans-Roman-64"/>
      <use x="535.25390625" xlink:href="#BitstreamVeraSans-Roman-5d"/>
     </g>
    </g>
   </g>
   <g id="text_17">
    <!-- Phase Curve for 20 Hz MFR and 1.0 MOhm -->
    <defs>
     <path d="M 37.109375 75.984375 
L 37.109375 68.5 
L 28.515625 68.5 
Q 23.6875 68.5 21.796875 66.546875 
Q 19.921875 64.59375 19.921875 59.515625 
L 19.921875 54.6875 
L 34.71875 54.6875 
L 34.71875 47.703125 
L 19.921875 47.703125 
L 19.921875 0 
L 10.890625 0 
L 10.890625 47.703125 
L 2.296875 47.703125 
L 2.296875 54.6875 
L 10.890625 54.6875 
L 10.890625 58.5 
Q 10.890625 67.625 15.140625 71.796875 
Q 19.390625 75.984375 28.609375 75.984375 
z
" id="BitstreamVeraSans-Roman-66"/>
     <path d="M 10.6875 12.40625 
L 21 12.40625 
L 21 0 
L 10.6875 0 
z
" id="BitstreamVeraSans-Roman-2e"/>
     <path d="M 39.40625 66.21875 
Q 28.65625 66.21875 22.328125 58.203125 
Q 16.015625 50.203125 16.015625 36.375 
Q 16.015625 22.609375 22.328125 14.59375 
Q 28.65625 6.59375 39.40625 6.59375 
Q 50.140625 6.59375 56.421875 14.59375 
Q 62.703125 22.609375 62.703125 36.375 
Q 62.703125 50.203125 56.421875 58.203125 
Q 50.140625 66.21875 39.40625 66.21875 
M 39.40625 74.21875 
Q 54.734375 74.21875 63.90625 63.9375 
Q 73.09375 53.65625 73.09375 36.375 
Q 73.09375 19.140625 63.90625 8.859375 
Q 54.734375 -1.421875 39.40625 -1.421875 
Q 24.03125 -1.421875 14.8125 8.828125 
Q 5.609375 19.09375 5.609375 36.375 
Q 5.609375 53.65625 14.8125 63.9375 
Q 24.03125 74.21875 39.40625 74.21875 
" id="BitstreamVeraSans-Roman-4f"/>
     <path d="M 52 44.1875 
Q 55.375 50.25 60.0625 53.125 
Q 64.75 56 71.09375 56 
Q 79.640625 56 84.28125 50.015625 
Q 88.921875 44.046875 88.921875 33.015625 
L 88.921875 0 
L 79.890625 0 
L 79.890625 32.71875 
Q 79.890625 40.578125 77.09375 44.375 
Q 74.3125 48.1875 68.609375 48.1875 
Q 61.625 48.1875 57.5625 43.546875 
Q 53.515625 38.921875 53.515625 30.90625 
L 53.515625 0 
L 44.484375 0 
L 44.484375 32.71875 
Q 44.484375 40.625 41.703125 44.40625 
Q 38.921875 48.1875 33.109375 48.1875 
Q 26.21875 48.1875 22.15625 43.53125 
Q 18.109375 38.875 18.109375 30.90625 
L 18.109375 0 
L 9.078125 0 
L 9.078125 54.6875 
L 18.109375 54.6875 
L 18.109375 46.1875 
Q 21.1875 51.21875 25.484375 53.609375 
Q 29.78125 56 35.6875 56 
Q 41.65625 56 45.828125 52.96875 
Q 50 49.953125 52 44.1875 
" id="BitstreamVeraSans-Roman-6d"/>
     <path d="M 9.8125 72.90625 
L 24.515625 72.90625 
L 43.109375 23.296875 
L 61.8125 72.90625 
L 76.515625 72.90625 
L 76.515625 0 
L 66.890625 0 
L 66.890625 64.015625 
L 48.09375 14.015625 
L 38.1875 14.015625 
L 19.390625 64.015625 
L 19.390625 0 
L 9.8125 0 
z
" id="BitstreamVeraSans-Roman-4d"/>
     <path d="M 2.984375 54.6875 
L 12.5 54.6875 
L 29.59375 8.796875 
L 46.6875 54.6875 
L 56.203125 54.6875 
L 35.6875 0 
L 23.484375 0 
z
" id="BitstreamVeraSans-Roman-76"/>
     <path d="M 64.40625 67.28125 
L 64.40625 56.890625 
Q 59.421875 61.53125 53.78125 63.8125 
Q 48.140625 66.109375 41.796875 66.109375 
Q 29.296875 66.109375 22.65625 58.46875 
Q 16.015625 50.828125 16.015625 36.375 
Q 16.015625 21.96875 22.65625 14.328125 
Q 29.296875 6.6875 41.796875 6.6875 
Q 48.140625 6.6875 53.78125 8.984375 
Q 59.421875 11.28125 64.40625 15.921875 
L 64.40625 5.609375 
Q 59.234375 2.09375 53.4375 0.328125 
Q 47.65625 -1.421875 41.21875 -1.421875 
Q 24.65625 -1.421875 15.125 8.703125 
Q 5.609375 18.84375 5.609375 36.375 
Q 5.609375 53.953125 15.125 64.078125 
Q 24.65625 74.21875 41.21875 74.21875 
Q 47.75 74.21875 53.53125 72.484375 
Q 59.328125 70.75 64.40625 67.28125 
" id="BitstreamVeraSans-Roman-43"/>
     <path d="M 30.609375 48.390625 
Q 23.390625 48.390625 19.1875 42.75 
Q 14.984375 37.109375 14.984375 27.296875 
Q 14.984375 17.484375 19.15625 11.84375 
Q 23.34375 6.203125 30.609375 6.203125 
Q 37.796875 6.203125 41.984375 11.859375 
Q 46.1875 17.53125 46.1875 27.296875 
Q 46.1875 37.015625 41.984375 42.703125 
Q 37.796875 48.390625 30.609375 48.390625 
M 30.609375 56 
Q 42.328125 56 49.015625 48.375 
Q 55.71875 40.765625 55.71875 27.296875 
Q 55.71875 13.875 49.015625 6.21875 
Q 42.328125 -1.421875 30.609375 -1.421875 
Q 18.84375 -1.421875 12.171875 6.21875 
Q 5.515625 13.875 5.515625 27.296875 
Q 5.515625 40.765625 12.171875 48.375 
Q 18.84375 56 30.609375 56 
" id="BitstreamVeraSans-Roman-6f"/>
     <path d="M 44.390625 34.1875 
Q 47.5625 33.109375 50.5625 29.59375 
Q 53.5625 26.078125 56.59375 19.921875 
L 66.609375 0 
L 56 0 
L 46.6875 18.703125 
Q 43.0625 26.03125 39.671875 28.421875 
Q 36.28125 30.8125 30.421875 30.8125 
L 19.671875 30.8125 
L 19.671875 0 
L 9.8125 0 
L 9.8125 72.90625 
L 32.078125 72.90625 
Q 44.578125 72.90625 50.734375 67.671875 
Q 56.890625 62.453125 56.890625 51.90625 
Q 56.890625 45.015625 53.6875 40.46875 
Q 50.484375 35.9375 44.390625 34.1875 
M 19.671875 64.796875 
L 19.671875 38.921875 
L 32.078125 38.921875 
Q 39.203125 38.921875 42.84375 42.21875 
Q 46.484375 45.515625 46.484375 51.90625 
Q 46.484375 58.296875 42.84375 61.546875 
Q 39.203125 64.796875 32.078125 64.796875 
z
" id="BitstreamVeraSans-Roman-52"/>
    </defs>
    <g transform="translate(319.20975 56.29)scale(0.144 -0.144)">
     <use xlink:href="#BitstreamVeraSans-Roman-50"/>
     <use x="60.302734375" xlink:href="#BitstreamVeraSans-Roman-68"/>
     <use x="123.681640625" xlink:href="#BitstreamVeraSans-Roman-61"/>
     <use x="184.9609375" xlink:href="#BitstreamVeraSans-Roman-73"/>
     <use x="237.060546875" xlink:href="#BitstreamVeraSans-Roman-65"/>
     <use x="298.583984375" xlink:href="#BitstreamVeraSans-Roman-20"/>
     <use x="330.37109375" xlink:href="#BitstreamVeraSans-Roman-43"/>
     <use x="400.1953125" xlink:href="#BitstreamVeraSans-Roman-75"/>
     <use x="463.57421875" xlink:href="#BitstreamVeraSans-Roman-72"/>
     <use x="504.6875" xlink:href="#BitstreamVeraSans-Roman-76"/>
     <use x="563.8671875" xlink:href="#BitstreamVeraSans-Roman-65"/>
     <use x="625.390625" xlink:href="#BitstreamVeraSans-Roman-20"/>
     <use x="657.177734375" xlink:href="#BitstreamVeraSans-Roman-66"/>
     <use x="692.3828125" xlink:href="#BitstreamVeraSans-Roman-6f"/>
     <use x="753.564453125" xlink:href="#BitstreamVeraSans-Roman-72"/>
     <use x="794.677734375" xlink:href="#BitstreamVeraSans-Roman-20"/>
     <use x="826.46484375" xlink:href="#BitstreamVeraSans-Roman-32"/>
     <use x="890.087890625" xlink:href="#BitstreamVeraSans-Roman-30"/>
     <use x="953.7109375" xlink:href="#BitstreamVeraSans-Roman-20"/>
     <use x="985.498046875" xlink:href="#BitstreamVeraSans-Roman-48"/>
     <use x="1060.693359375" xlink:href="#BitstreamVeraSans-Roman-7a"/>
     <use x="1113.18359375" xlink:href="#BitstreamVeraSans-Roman-20"/>
     <use x="1144.970703125" xlink:href="#BitstreamVeraSans-Roman-4d"/>
     <use x="1231.25" xlink:href="#BitstreamVeraSans-Roman-46"/>
     <use x="1288.76953125" xlink:href="#BitstreamVeraSans-Roman-52"/>
     <use x="1358.251953125" xlink:href="#BitstreamVeraSans-Roman-20"/>
     <use x="1390.0390625" xlink:href="#BitstreamVeraSans-Roman-61"/>
     <use x="1451.318359375" xlink:href="#BitstreamVeraSans-Roman-6e"/>
     <use x="1514.697265625" xlink:href="#BitstreamVeraSans-Roman-64"/>
     <use x="1578.173828125" xlink:href="#BitstreamVeraSans-Roman-20"/>
     <use x="1609.9609375" xlink:href="#BitstreamVeraSans-Roman-31"/>
     <use x="1673.583984375" xlink:href="#BitstreamVeraSans-Roman-2e"/>
     <use x="1705.37109375" xlink:href="#BitstreamVeraSans-Roman-30"/>
     <use x="1768.994140625" xlink:href="#BitstreamVeraSans-Roman-20"/>
     <use x="1800.78125" xlink:href="#BitstreamVeraSans-Roman-4d"/>
     <use x="1887.060546875" xlink:href="#BitstreamVeraSans-Roman-4f"/>
     <use x="1965.771484375" xlink:href="#BitstreamVeraSans-Roman-68"/>
     <use x="2029.150390625" xlink:href="#BitstreamVeraSans-Roman-6d"/>
    </g>
   </g>
   <g id="legend_1">
    <g id="patch_7">
     <path d="M 122.4 544.41 
L 257.98275 544.41 
L 257.98275 328.725 
L 122.4 328.725 
z
" style="fill:#ffffff;stroke:#000000;stroke-linejoin:miter;"/>
    </g>
    <g id="line2d_87">
     <path d="M 132.48 340.38675 
L 152.64 340.38675 
" style="fill:none;stroke:#ff1e1e;stroke-linecap:square;"/>
    </g>
    <g id="line2d_88"/>
    <g id="text_18">
     <!-- Std: 100.0 -->
     <defs>
      <path d="M 18.3125 70.21875 
L 18.3125 54.6875 
L 36.8125 54.6875 
L 36.8125 47.703125 
L 18.3125 47.703125 
L 18.3125 18.015625 
Q 18.3125 11.328125 20.140625 9.421875 
Q 21.96875 7.515625 27.59375 7.515625 
L 36.8125 7.515625 
L 36.8125 0 
L 27.59375 0 
Q 17.1875 0 13.234375 3.875 
Q 9.28125 7.765625 9.28125 18.015625 
L 9.28125 47.703125 
L 2.6875 47.703125 
L 2.6875 54.6875 
L 9.28125 54.6875 
L 9.28125 70.21875 
z
" id="BitstreamVeraSans-Roman-74"/>
      <path d="M 11.71875 12.40625 
L 22.015625 12.40625 
L 22.015625 0 
L 11.71875 0 
z
M 11.71875 51.703125 
L 22.015625 51.703125 
L 22.015625 39.3125 
L 11.71875 39.3125 
z
" id="BitstreamVeraSans-Roman-3a"/>
      <path d="M 53.515625 70.515625 
L 53.515625 60.890625 
Q 47.90625 63.578125 42.921875 64.890625 
Q 37.9375 66.21875 33.296875 66.21875 
Q 25.25 66.21875 20.875 63.09375 
Q 16.5 59.96875 16.5 54.203125 
Q 16.5 49.359375 19.40625 46.890625 
Q 22.3125 44.4375 30.421875 42.921875 
L 36.375 41.703125 
Q 47.40625 39.59375 52.65625 34.296875 
Q 57.90625 29 57.90625 20.125 
Q 57.90625 9.515625 50.796875 4.046875 
Q 43.703125 -1.421875 29.984375 -1.421875 
Q 24.8125 -1.421875 18.96875 -0.25 
Q 13.140625 0.921875 6.890625 3.21875 
L 6.890625 13.375 
Q 12.890625 10.015625 18.65625 8.296875 
Q 24.421875 6.59375 29.984375 6.59375 
Q 38.421875 6.59375 43.015625 9.90625 
Q 47.609375 13.234375 47.609375 19.390625 
Q 47.609375 24.75 44.3125 27.78125 
Q 41.015625 30.8125 33.5 32.328125 
L 27.484375 33.5 
Q 16.453125 35.6875 11.515625 40.375 
Q 6.59375 45.0625 6.59375 53.421875 
Q 6.59375 63.09375 13.40625 68.65625 
Q 20.21875 74.21875 32.171875 74.21875 
Q 37.3125 74.21875 42.625 73.28125 
Q 47.953125 72.359375 53.515625 70.515625 
" id="BitstreamVeraSans-Roman-53"/>
     </defs>
     <g transform="translate(168.48 345.42675)scale(0.144 -0.144)">
      <use xlink:href="#BitstreamVeraSans-Roman-53"/>
      <use x="63.4765625" xlink:href="#BitstreamVeraSans-Roman-74"/>
      <use x="102.685546875" xlink:href="#BitstreamVeraSans-Roman-64"/>
      <use x="166.162109375" xlink:href="#BitstreamVeraSans-Roman-3a"/>
      <use x="199.853515625" xlink:href="#BitstreamVeraSans-Roman-20"/>
      <use x="231.640625" xlink:href="#BitstreamVeraSans-Roman-31"/>
      <use x="295.263671875" xlink:href="#BitstreamVeraSans-Roman-30"/>
      <use x="358.88671875" xlink:href="#BitstreamVeraSans-Roman-30"/>
      <use x="422.509765625" xlink:href="#BitstreamVeraSans-Roman-2e"/>
      <use x="454.296875" xlink:href="#BitstreamVeraSans-Roman-30"/>
     </g>
    </g>
    <g id="line2d_89">
     <path d="M 132.48 361.52325 
L 152.64 361.52325 
" style="fill:none;stroke:#581845;stroke-linecap:square;"/>
    </g>
    <g id="line2d_90"/>
    <g id="text_19">
     <!-- Std: 200.0 -->
     <g transform="translate(168.48 366.56325)scale(0.144 -0.144)">
      <use xlink:href="#BitstreamVeraSans-Roman-53"/>
      <use x="63.4765625" xlink:href="#BitstreamVeraSans-Roman-74"/>
      <use x="102.685546875" xlink:href="#BitstreamVeraSans-Roman-64"/>
      <use x="166.162109375" xlink:href="#BitstreamVeraSans-Roman-3a"/>
      <use x="199.853515625" xlink:href="#BitstreamVeraSans-Roman-20"/>
      <use x="231.640625" xlink:href="#BitstreamVeraSans-Roman-32"/>
      <use x="295.263671875" xlink:href="#BitstreamVeraSans-Roman-30"/>
      <use x="358.88671875" xlink:href="#BitstreamVeraSans-Roman-30"/>
      <use x="422.509765625" xlink:href="#BitstreamVeraSans-Roman-2e"/>
      <use x="454.296875" xlink:href="#BitstreamVeraSans-Roman-30"/>
     </g>
    </g>
    <g id="line2d_91">
     <path d="M 132.48 382.65975 
L 152.64 382.65975 
" style="fill:none;stroke:#26b7d8;stroke-linecap:square;"/>
    </g>
    <g id="line2d_92"/>
    <g id="text_20">
     <!-- Std: 300.0 -->
     <g transform="translate(168.48 387.69975)scale(0.144 -0.144)">
      <use xlink:href="#BitstreamVeraSans-Roman-53"/>
      <use x="63.4765625" xlink:href="#BitstreamVeraSans-Roman-74"/>
      <use x="102.685546875" xlink:href="#BitstreamVeraSans-Roman-64"/>
      <use x="166.162109375" xlink:href="#BitstreamVeraSans-Roman-3a"/>
      <use x="199.853515625" xlink:href="#BitstreamVeraSans-Roman-20"/>
      <use x="231.640625" xlink:href="#BitstreamVeraSans-Roman-33"/>
      <use x="295.263671875" xlink:href="#BitstreamVeraSans-Roman-30"/>
      <use x="358.88671875" xlink:href="#BitstreamVeraSans-Roman-30"/>
      <use x="422.509765625" xlink:href="#BitstreamVeraSans-Roman-2e"/>
      <use x="454.296875" xlink:href="#BitstreamVeraSans-Roman-30"/>
     </g>
    </g>
    <g id="line2d_93">
     <path d="M 132.48 403.79625 
L 152.64 403.79625 
" style="fill:none;stroke:#8414a4;stroke-linecap:square;"/>
    </g>
    <g id="line2d_94"/>
    <g id="text_21">
     <!-- Std: 400.0 -->
     <g transform="translate(168.48 408.83625)scale(0.144 -0.144)">
      <use xlink:href="#BitstreamVeraSans-Roman-53"/>
      <use x="63.4765625" xlink:href="#BitstreamVeraSans-Roman-74"/>
      <use x="102.685546875" xlink:href="#BitstreamVeraSans-Roman-64"/>
      <use x="166.162109375" xlink:href="#BitstreamVeraSans-Roman-3a"/>
      <use x="199.853515625" xlink:href="#BitstreamVeraSans-Roman-20"/>
      <use x="231.640625" xlink:href="#BitstreamVeraSans-Roman-34"/>
      <use x="295.263671875" xlink:href="#BitstreamVeraSans-Roman-30"/>
      <use x="358.88671875" xlink:href="#BitstreamVeraSans-Roman-30"/>
      <use x="422.509765625" xlink:href="#BitstreamVeraSans-Roman-2e"/>
      <use x="454.296875" xlink:href="#BitstreamVeraSans-Roman-30"/>
     </g>
    </g>
    <g id="line2d_95">
     <path d="M 132.48 424.93275 
L 152.64 424.93275 
" style="fill:none;stroke:#ffd23a;stroke-linecap:square;"/>
    </g>
    <g id="line2d_96"/>
    <g id="text_22">
     <!-- Std: 500.0 -->
     <g transform="translate(168.48 429.97275)scale(0.144 -0.144)">
      <use xlink:href="#BitstreamVeraSans-Roman-53"/>
      <use x="63.4765625" xlink:href="#BitstreamVeraSans-Roman-74"/>
      <use x="102.685546875" xlink:href="#BitstreamVeraSans-Roman-64"/>
      <use x="166.162109375" xlink:href="#BitstreamVeraSans-Roman-3a"/>
      <use x="199.853515625" xlink:href="#BitstreamVeraSans-Roman-20"/>
      <use x="231.640625" xlink:href="#BitstreamVeraSans-Roman-35"/>
      <use x="295.263671875" xlink:href="#BitstreamVeraSans-Roman-30"/>
      <use x="358.88671875" xlink:href="#BitstreamVeraSans-Roman-30"/>
      <use x="422.509765625" xlink:href="#BitstreamVeraSans-Roman-2e"/>
      <use x="454.296875" xlink:href="#BitstreamVeraSans-Roman-30"/>
     </g>
    </g>
    <g id="line2d_97">
     <path d="M 132.48 446.06925 
L 152.64 446.06925 
" style="fill:none;stroke:#ff9300;stroke-linecap:square;"/>
    </g>
    <g id="line2d_98"/>
    <g id="text_23">
     <!-- Std: 600.0 -->
     <g transform="translate(168.48 451.10925)scale(0.144 -0.144)">
      <use xlink:href="#BitstreamVeraSans-Roman-53"/>
      <use x="63.4765625" xlink:href="#BitstreamVeraSans-Roman-74"/>
      <use x="102.685546875" xlink:href="#BitstreamVeraSans-Roman-64"/>
      <use x="166.162109375" xlink:href="#BitstreamVeraSans-Roman-3a"/>
      <use x="199.853515625" xlink:href="#BitstreamVeraSans-Roman-20"/>
      <use x="231.640625" xlink:href="#BitstreamVeraSans-Roman-36"/>
      <use x="295.263671875" xlink:href="#BitstreamVeraSans-Roman-30"/>
      <use x="358.88671875" xlink:href="#BitstreamVeraSans-Roman-30"/>
      <use x="422.509765625" xlink:href="#BitstreamVeraSans-Roman-2e"/>
      <use x="454.296875" xlink:href="#BitstreamVeraSans-Roman-30"/>
     </g>
    </g>
    <g id="line2d_99">
     <path d="M 132.48 467.20575 
L 152.64 467.20575 
" style="fill:none;stroke:#f50fe6;stroke-linecap:square;"/>
    </g>
    <g id="line2d_100"/>
    <g id="text_24">
     <!-- Std: 700.0 -->
     <g transform="translate(168.48 472.24575)scale(0.144 -0.144)">
      <use xlink:href="#BitstreamVeraSans-Roman-53"/>
      <use x="63.4765625" xlink:href="#BitstreamVeraSans-Roman-74"/>
      <use x="102.685546875" xlink:href="#BitstreamVeraSans-Roman-64"/>
      <use x="166.162109375" xlink:href="#BitstreamVeraSans-Roman-3a"/>
      <use x="199.853515625" xlink:href="#BitstreamVeraSans-Roman-20"/>
      <use x="231.640625" xlink:href="#BitstreamVeraSans-Roman-37"/>
      <use x="295.263671875" xlink:href="#BitstreamVeraSans-Roman-30"/>
      <use x="358.88671875" xlink:href="#BitstreamVeraSans-Roman-30"/>
      <use x="422.509765625" xlink:href="#BitstreamVeraSans-Roman-2e"/>
      <use x="454.296875" xlink:href="#BitstreamVeraSans-Roman-30"/>
     </g>
    </g>
    <g id="line2d_101">
     <path d="M 132.48 488.34225 
L 152.64 488.34225 
" style="fill:none;stroke:#1000a0;stroke-linecap:square;"/>
    </g>
    <g id="line2d_102"/>
    <g id="text_25">
     <!-- Std: 800.0 -->
     <g transform="translate(168.48 493.38225)scale(0.144 -0.144)">
      <use xlink:href="#BitstreamVeraSans-Roman-53"/>
      <use x="63.4765625" xlink:href="#BitstreamVeraSans-Roman-74"/>
      <use x="102.685546875" xlink:href="#BitstreamVeraSans-Roman-64"/>
      <use x="166.162109375" xlink:href="#BitstreamVeraSans-Roman-3a"/>
      <use x="199.853515625" xlink:href="#BitstreamVeraSans-Roman-20"/>
      <use x="231.640625" xlink:href="#BitstreamVeraSans-Roman-38"/>
      <use x="295.263671875" xlink:href="#BitstreamVeraSans-Roman-30"/>
      <use x="358.88671875" xlink:href="#BitstreamVeraSans-Roman-30"/>
      <use x="422.509765625" xlink:href="#BitstreamVeraSans-Roman-2e"/>
      <use x="454.296875" xlink:href="#BitstreamVeraSans-Roman-30"/>
     </g>
    </g>
    <g id="line2d_103">
     <path d="M 132.48 509.47875 
L 152.64 509.47875 
" style="fill:none;stroke:#595866;stroke-linecap:square;"/>
    </g>
    <g id="line2d_104"/>
    <g id="text_26">
     <!-- Std: 900.0 -->
     <defs>
      <path d="M 10.984375 1.515625 
L 10.984375 10.5 
Q 14.703125 8.734375 18.5 7.8125 
Q 22.3125 6.890625 25.984375 6.890625 
Q 35.75 6.890625 40.890625 13.453125 
Q 46.046875 20.015625 46.78125 33.40625 
Q 43.953125 29.203125 39.59375 26.953125 
Q 35.25 24.703125 29.984375 24.703125 
Q 19.046875 24.703125 12.671875 31.3125 
Q 6.296875 37.9375 6.296875 49.421875 
Q 6.296875 60.640625 12.9375 67.421875 
Q 19.578125 74.21875 30.609375 74.21875 
Q 43.265625 74.21875 49.921875 64.515625 
Q 56.59375 54.828125 56.59375 36.375 
Q 56.59375 19.140625 48.40625 8.859375 
Q 40.234375 -1.421875 26.421875 -1.421875 
Q 22.703125 -1.421875 18.890625 -0.6875 
Q 15.09375 0.046875 10.984375 1.515625 
M 30.609375 32.421875 
Q 37.25 32.421875 41.125 36.953125 
Q 45.015625 41.5 45.015625 49.421875 
Q 45.015625 57.28125 41.125 61.84375 
Q 37.25 66.40625 30.609375 66.40625 
Q 23.96875 66.40625 20.09375 61.84375 
Q 16.21875 57.28125 16.21875 49.421875 
Q 16.21875 41.5 20.09375 36.953125 
Q 23.96875 32.421875 30.609375 32.421875 
" id="BitstreamVeraSans-Roman-39"/>
     </defs>
     <g transform="translate(168.48 514.51875)scale(0.144 -0.144)">
      <use xlink:href="#BitstreamVeraSans-Roman-53"/>
      <use x="63.4765625" xlink:href="#BitstreamVeraSans-Roman-74"/>
      <use x="102.685546875" xlink:href="#BitstreamVeraSans-Roman-64"/>
      <use x="166.162109375" xlink:href="#BitstreamVeraSans-Roman-3a"/>
      <use x="199.853515625" xlink:href="#BitstreamVeraSans-Roman-20"/>
      <use x="231.640625" xlink:href="#BitstreamVeraSans-Roman-39"/>
      <use x="295.263671875" xlink:href="#BitstreamVeraSans-Roman-30"/>
      <use x="358.88671875" xlink:href="#BitstreamVeraSans-Roman-30"/>
      <use x="422.509765625" xlink:href="#BitstreamVeraSans-Roman-2e"/>
      <use x="454.296875" xlink:href="#BitstreamVeraSans-Roman-30"/>
     </g>
    </g>
    <g id="line2d_105">
     <path d="M 132.48 530.61525 
L 152.64 530.61525 
" style="fill:none;stroke:#147f2a;stroke-linecap:square;"/>
    </g>
    <g id="line2d_106"/>
    <g id="text_27">
     <!-- Std: 1000.0 -->
     <g transform="translate(168.48 535.65525)scale(0.144 -0.144)">
      <use xlink:href="#BitstreamVeraSans-Roman-53"/>
      <use x="63.4765625" xlink:href="#BitstreamVeraSans-Roman-74"/>
      <use x="102.685546875" xlink:href="#BitstreamVeraSans-Roman-64"/>
      <use x="166.162109375" xlink:href="#BitstreamVeraSans-Roman-3a"/>
      <use x="199.853515625" xlink:href="#BitstreamVeraSans-Roman-20"/>
      <use x="231.640625" xlink:href="#BitstreamVeraSans-Roman-31"/>
      <use x="295.263671875" xlink:href="#BitstreamVeraSans-Roman-30"/>
      <use x="358.88671875" xlink:href="#BitstreamVeraSans-Roman-30"/>
      <use x="422.509765625" xlink:href="#BitstreamVeraSans-Roman-30"/>
      <use x="486.1328125" xlink:href="#BitstreamVeraSans-Roman-2e"/>
      <use x="517.919921875" xlink:href="#BitstreamVeraSans-Roman-30"/>
     </g>
    </g>
   </g>
  </g>
 </g>
 <defs>
  <clipPath id="pd5473f3234">
   <rect height="490.32" width="714.24" x="115.2" y="61.29"/>
  </clipPath>
 </defs>
</svg>
