<?xml version="1.0" encoding="utf-8" standalone="no"?>
<!DOCTYPE svg PUBLIC "-//W3C//DTD SVG 1.1//EN"
  "http://www.w3.org/Graphics/SVG/1.1/DTD/svg11.dtd">
<!-- Created with matplotlib (http://matplotlib.org/) -->
<svg height="640pt" version="1.1" viewBox="0 0 921 640" width="921pt" xmlns="http://www.w3.org/2000/svg" xmlns:xlink="http://www.w3.org/1999/xlink">
 <defs>
  <style type="text/css">
*{stroke-linecap:butt;stroke-linejoin:round;stroke-miterlimit:100000;}
  </style>
 </defs>
 <g id="figure_1">
  <g id="patch_1">
   <path d="M 0 640.8 
L 921.6 640.8 
L 921.6 0 
L 0 0 
z
" style="fill:#ffffff;"/>
  </g>
  <g id="axes_1">
   <g id="patch_2">
    <path d="M 115.2 576.72 
L 829.44 576.72 
L 829.44 64.08 
L 115.2 64.08 
z
" style="fill:#ffffff;"/>
   </g>
   <g id="line2d_1">
    <path clip-path="url(#pe5bbf01f8e)" d="M 115.2 162.049242 
L 132.313668 161.198615 
L 146.992943 160.67781 
L 159.844933 159.790508 
L 171.274613 160.228172 
L 181.565657 158.911757 
L 190.924519 157.915664 
L 199.506137 156.683965 
L 207.42977 187.012394 
L 214.789171 163.980439 
L 221.659384 158.311419 
L 228.101408 156.77912 
L 234.165501 155.756373 
L 239.893559 154.373338 
L 245.320877 153.794082 
L 250.477466 152.826963 
L 260.077878 150.524609 
L 264.563263 149.193106 
L 268.862134 153.823059 
L 272.989385 185.065643 
L 276.958194 203.808726 
L 280.780278 220.969008 
L 284.466099 238.256548 
L 288.025041 257.345323 
L 291.465549 280.35989 
L 294.795252 316.581847 
L 298.021064 341.151588 
L 301.149274 338.505778 
L 307.135328 332.41151 
L 310.003221 328.890537 
L 312.793709 325.109056 
L 315.510863 320.697784 
L 318.158437 315.655598 
L 320.739907 309.770236 
L 323.258492 302.710031 
L 325.717185 292.128964 
L 328.118768 288.761885 
L 330.465834 279.088552 
L 335.005936 258.976649 
L 339.355042 239.694668 
L 341.462865 231.213221 
L 353.28 195.918543 
L 370.393668 353.98924 
L 385.072943 223.273593 
L 397.924933 395.832868 
L 409.354613 363.823592 
L 419.645657 532.127452 
L 429.004519 395.219542 
L 437.586137 449.199495 
L 445.50977 542.005743 
L 452.869171 397.174588 
L 459.739384 542.430981 
L 466.181408 547.287605 
L 472.245501 399.888699 
L 477.973559 548.931572 
L 483.400877 550.660182 
L 488.557466 405.172379 
L 493.469057 551.170589 
L 498.157878 471.105128 
L 502.643263 412.322276 
L 506.942134 552.668259 
L 511.069385 379.190621 
L 515.038194 422.926179 
L 518.860278 552.140752 
L 522.546099 379.867494 
L 526.105041 437.657127 
L 529.545549 554.781117 
L 532.875252 379.725106 
L 536.101064 456.506202 
L 539.229274 553.677907 
L 542.265615 381.414616 
L 545.215328 480.091436 
L 548.083221 555.874857 
L 550.873709 383.251827 
L 553.590863 497.475212 
L 556.238437 354.685397 
L 558.819907 387.108166 
L 561.338492 513.857262 
L 563.797185 356.32697 
L 566.198768 391.024139 
L 568.545834 524.035639 
L 570.840802 356.810682 
L 573.085936 397.061913 
L 575.283354 530.390572 
L 577.435042 356.55388 
L 579.542865 406.51544 
L 591.36 462.120819 
L 608.473668 344.761224 
L 623.152943 511.726746 
L 636.004933 344.409122 
L 647.434613 537.4572 
L 657.725657 341.290257 
L 667.084519 520.383009 
L 675.666137 318.727387 
L 683.58977 417.188222 
L 690.949171 517.059934 
L 697.819384 428.420878 
L 704.261408 521.982761 
L 710.325501 439.965672 
L 716.053559 512.941184 
L 721.480877 454.413501 
L 726.637466 502.553133 
L 731.549057 471.661253 
L 736.237878 486.722063 
L 740.723263 494.047719 
L 745.022134 451.45385 
L 749.149385 526.103381 
L 753.118194 465.71854 
L 756.940278 554.166972 
L 760.626099 481.202935 
L 764.185041 556.312438 
L 767.625549 495.928856 
L 770.955252 529.758248 
L 777.309274 484.34775 
L 780.345615 510.230942 
L 783.295328 506.269929 
L 786.163221 508.527323 
L 788.953709 513.815555 
L 791.670863 501.683081 
L 794.318437 505.231933 
L 796.899907 499.82665 
L 799.418492 496.082187 
L 801.877185 509.149716 
L 804.278768 488.934886 
L 806.625834 325.782393 
L 808.920802 494.478754 
L 811.165936 335.638598 
L 813.363354 508.960745 
L 815.515042 341.394654 
L 817.622865 520.181477 
L 819.688575 348.991154 
L 821.713822 523.502823 
L 823.700162 375.316396 
L 825.64906 528.337178 
L 827.561903 435.289531 
L 827.561903 435.289531 
" style="fill:none;stroke:#ff1e1e;stroke-linecap:square;"/>
   </g>
   <g id="line2d_2">
    <path clip-path="url(#pe5bbf01f8e)" d="M 115.2 156.495951 
L 132.313668 180.540286 
L 146.992943 148.177182 
L 159.844933 160.502652 
L 171.274613 181.549379 
L 181.565657 173.590681 
L 190.924519 163.759448 
L 199.506137 195.645837 
L 207.42977 185.739291 
L 214.789171 184.935114 
L 221.659384 178.849034 
L 228.101408 186.937397 
L 234.165501 152.107 
L 239.893559 168.999062 
L 245.320877 222.065391 
L 250.477466 207.854788 
L 255.389057 166.277922 
L 260.077878 167.763544 
L 264.563263 187.439998 
L 268.862134 185.456248 
L 272.989385 173.274626 
L 276.958194 124.822469 
L 280.780278 220.322515 
L 284.466099 200.17262 
L 288.025041 160.503582 
L 291.465549 183.60761 
L 294.795252 194.77869 
L 298.021064 193.079564 
L 301.149274 202.677234 
L 304.185615 168.443126 
L 307.135328 209.368442 
L 310.003221 216.056454 
L 312.793709 212.86463 
L 315.510863 222.332191 
L 318.158437 230.624943 
L 320.739907 179.635812 
L 323.258492 164.878613 
L 325.717185 204.388162 
L 328.118768 202.555425 
L 330.465834 186.536813 
L 332.760802 167.631096 
L 335.005936 216.712484 
L 337.203354 231.01211 
L 339.355042 226.366384 
L 341.462865 214.538329 
L 353.28 222.112 
L 370.393668 288.766313 
L 385.072943 200.010857 
L 397.924933 435.069296 
L 409.354613 502.625707 
L 419.645657 267.269499 
L 429.004519 503.061533 
L 437.586137 301.853962 
L 445.50977 515.141669 
L 452.869171 483.377339 
L 459.739384 561.625318 
L 466.181408 292.779588 
L 472.245501 485.357244 
L 477.973559 484.240556 
L 483.400877 404.167418 
L 488.557466 496.835474 
L 493.469057 286.198585 
L 498.157878 552.011936 
L 502.643263 521.40608 
L 506.942134 473.327442 
L 511.069385 346.829207 
L 515.038194 289.408635 
L 518.860278 486.802795 
L 522.546099 322.18637 
L 526.105041 479.787136 
L 529.545549 419.961306 
L 532.875252 550.916955 
L 536.101064 515.734137 
L 539.229274 555.259512 
L 542.265615 453.079582 
L 545.215328 399.954143 
L 548.083221 556.441826 
L 550.873709 460.969454 
L 553.590863 497.871716 
L 556.238437 345.910037 
L 558.819907 524.334412 
L 561.338492 360.550851 
L 566.198768 539.741975 
L 568.545834 529.781883 
L 570.840802 488.033374 
L 573.085936 482.442408 
L 575.283354 378.759838 
L 577.435042 439.292628 
L 579.542865 270.741349 
L 591.36 509.816648 
L 608.473668 407.345462 
L 623.152943 394.843618 
L 636.004933 384.526791 
L 647.434613 491.486982 
L 657.725657 357.601721 
L 667.084519 552.416464 
L 675.666137 555.709331 
L 683.58977 483.142478 
L 690.949171 292.022705 
L 697.819384 279.856713 
L 704.261408 427.507377 
L 710.325501 511.632644 
L 716.053559 485.526881 
L 721.480877 552.318647 
L 726.637466 381.941098 
L 731.549057 544.126542 
L 736.237878 341.936923 
L 740.723263 422.198512 
L 745.022134 555.731588 
L 749.149385 510.621115 
L 753.118194 472.980137 
L 756.940278 524.916567 
L 760.626099 542.590418 
L 764.185041 526.371448 
L 767.625549 395.218732 
L 770.955252 535.593502 
L 774.181064 530.796777 
L 777.309274 321.116928 
L 780.345615 519.029859 
L 783.295328 455.437335 
L 786.163221 504.607457 
L 788.953709 525.156306 
L 791.670863 348.127879 
L 794.318437 350.118238 
L 796.899907 434.61298 
L 799.418492 374.915011 
L 801.877185 275.254021 
L 804.278768 513.328826 
L 806.625834 445.771037 
L 808.920802 481.120591 
L 811.165936 502.951164 
L 813.363354 266.657673 
L 815.515042 476.815986 
L 817.622865 411.486228 
L 819.688575 545.750887 
L 821.713822 471.20874 
L 823.700162 503.542401 
L 825.64906 474.238289 
L 827.561903 399.793281 
L 827.561903 399.793281 
" style="fill:none;stroke:#581845;stroke-linecap:square;"/>
   </g>
   <g id="line2d_3">
    <path clip-path="url(#pe5bbf01f8e)" d="M 115.2 140.23908 
L 132.313668 148.761388 
L 146.992943 169.661436 
L 159.844933 185.233998 
L 171.274613 179.927639 
L 181.565657 185.151136 
L 190.924519 181.041424 
L 199.506137 176.494972 
L 207.42977 166.839453 
L 214.789171 168.563775 
L 221.659384 160.755893 
L 228.101408 166.9668 
L 234.165501 184.180733 
L 239.893559 181.2091 
L 245.320877 190.408723 
L 250.477466 184.45013 
L 255.389057 185.086735 
L 260.077878 184.7642 
L 264.563263 163.702474 
L 268.862134 183.912133 
L 272.989385 198.35276 
L 276.958194 192.489563 
L 280.780278 191.788065 
L 284.466099 165.512288 
L 288.025041 197.030043 
L 291.465549 192.640385 
L 294.795252 188.096257 
L 298.021064 164.575914 
L 301.149274 198.563228 
L 304.185615 202.167135 
L 307.135328 187.172892 
L 310.003221 189.229162 
L 312.793709 190.914582 
L 315.510863 165.450503 
L 318.158437 181.351822 
L 320.739907 183.82859 
L 323.258492 204.790233 
L 325.717185 204.54531 
L 328.118768 186.980653 
L 330.465834 183.535586 
L 332.760802 205.586534 
L 335.005936 196.136867 
L 337.203354 209.604762 
L 339.355042 195.6007 
L 341.462865 203.62145 
L 353.28 205.782194 
L 370.393668 178.231109 
L 385.072943 228.447234 
L 397.924933 231.02004 
L 409.354613 243.248851 
L 419.645657 231.474987 
L 429.004519 211.61969 
L 437.586137 205.550214 
L 445.50977 217.050913 
L 452.869171 293.393384 
L 459.739384 247.619983 
L 466.181408 277.404922 
L 472.245501 168.727086 
L 477.973559 155.061159 
L 483.400877 279.221247 
L 488.557466 247.11882 
L 493.469057 312.914369 
L 498.157878 257.264963 
L 502.643263 265.60163 
L 506.942134 130.213178 
L 511.069385 229.263106 
L 515.038194 272.909345 
L 518.860278 262.752245 
L 522.546099 233.013339 
L 526.105041 312.37002 
L 529.545549 298.428123 
L 532.875252 256.314213 
L 536.101064 259.628422 
L 539.229274 444.487731 
L 542.265615 464.766902 
L 545.215328 524.532277 
L 548.083221 492.982037 
L 550.873709 295.746981 
L 553.590863 501.017335 
L 556.238437 478.037321 
L 558.819907 270.488928 
L 561.338492 293.859873 
L 563.797185 502.461559 
L 566.198768 387.66133 
L 568.545834 287.804358 
L 570.840802 375.905035 
L 573.085936 517.104967 
L 575.283354 540.943195 
L 577.435042 490.46172 
L 579.542865 402.976096 
L 591.36 275.188481 
L 608.473668 500.089007 
L 623.152943 307.072007 
L 636.004933 538.735946 
L 647.434613 480.774338 
L 657.725657 276.31926 
L 667.084519 312.218336 
L 675.666137 416.545919 
L 683.58977 392.866061 
L 690.949171 474.286157 
L 697.819384 401.884547 
L 704.261408 273.583418 
L 710.325501 408.450163 
L 716.053559 491.699996 
L 721.480877 521.893033 
L 726.637466 553.999175 
L 731.549057 434.283807 
L 736.237878 555.588471 
L 740.723263 477.561267 
L 745.022134 472.829936 
L 749.149385 555.687342 
L 753.118194 311.810174 
L 756.940278 524.953675 
L 760.626099 477.90447 
L 764.185041 489.813279 
L 767.625549 524.822434 
L 770.955252 444.636284 
L 774.181064 565.597627 
L 777.309274 515.686475 
L 780.345615 490.535396 
L 783.295328 513.954102 
L 786.163221 557.871792 
L 788.953709 315.85661 
L 791.670863 311.393144 
L 794.318437 379.106065 
L 796.899907 562.46881 
L 799.418492 495.57825 
L 801.877185 392.181748 
L 804.278768 539.656817 
L 806.625834 356.529365 
L 808.920802 511.942788 
L 811.165936 559.970298 
L 813.363354 563.252955 
L 815.515042 424.290428 
L 817.622865 339.738453 
L 819.688575 553.116228 
L 821.713822 385.012179 
L 823.700162 303.995904 
L 825.64906 317.819154 
L 827.561903 374.210126 
L 827.561903 374.210126 
" style="fill:none;stroke:#26b7d8;stroke-linecap:square;"/>
   </g>
   <g id="line2d_4">
    <path clip-path="url(#pe5bbf01f8e)" d="M 115.2 157.853778 
L 132.313668 165.91485 
L 146.992943 168.263123 
L 159.844933 159.649628 
L 171.274613 166.466595 
L 181.565657 175.029377 
L 190.924519 169.897516 
L 199.506137 167.327094 
L 207.42977 183.310965 
L 214.789171 178.849798 
L 221.659384 181.368743 
L 228.101408 186.320061 
L 234.165501 178.209859 
L 239.893559 182.178929 
L 245.320877 181.551938 
L 250.477466 182.74288 
L 255.389057 196.299089 
L 260.077878 183.864371 
L 264.563263 194.849304 
L 268.862134 178.324808 
L 272.989385 184.829698 
L 276.958194 180.212851 
L 280.780278 185.188551 
L 284.466099 184.684895 
L 288.025041 183.700761 
L 294.795252 192.092791 
L 298.021064 194.150802 
L 301.149274 186.252873 
L 304.185615 177.95785 
L 307.135328 180.088073 
L 310.003221 200.779637 
L 312.793709 181.647298 
L 315.510863 192.069997 
L 318.158437 197.946693 
L 320.739907 185.332106 
L 323.258492 189.273845 
L 325.717185 186.633545 
L 328.118768 201.507197 
L 330.465834 192.047894 
L 332.760802 190.683148 
L 335.005936 199.008199 
L 337.203354 209.40382 
L 339.355042 191.722404 
L 341.462865 207.622072 
L 353.28 190.985741 
L 370.393668 201.979186 
L 385.072943 226.868224 
L 397.924933 205.370254 
L 409.354613 220.643922 
L 419.645657 215.888287 
L 429.004519 208.521879 
L 437.586137 215.998495 
L 445.50977 205.315425 
L 452.869171 203.907043 
L 459.739384 235.605229 
L 466.181408 236.313464 
L 472.245501 226.553513 
L 477.973559 235.161599 
L 483.400877 242.3584 
L 488.557466 221.784328 
L 493.469057 239.428146 
L 498.157878 242.63672 
L 502.643263 235.369177 
L 506.942134 252.524112 
L 511.069385 265.09009 
L 515.038194 261.645998 
L 518.860278 266.593769 
L 522.546099 241.443808 
L 526.105041 263.741593 
L 529.545549 225.296045 
L 532.875252 229.713897 
L 536.101064 235.536405 
L 539.229274 266.259735 
L 542.265615 270.701119 
L 545.215328 224.831393 
L 548.083221 299.643069 
L 550.873709 264.636047 
L 553.590863 240.518189 
L 556.238437 222.473259 
L 558.819907 228.443999 
L 561.338492 285.05388 
L 563.797185 257.978527 
L 566.198768 243.470813 
L 568.545834 256.540101 
L 570.840802 276.322392 
L 573.085936 239.700236 
L 575.283354 285.465006 
L 577.435042 236.360761 
L 579.542865 265.473808 
L 591.36 275.516937 
L 608.473668 318.438188 
L 623.152943 269.974318 
L 636.004933 242.719162 
L 647.434613 288.302514 
L 657.725657 295.34 
L 667.084519 264.075053 
L 675.666137 296.198507 
L 683.58977 324.286719 
L 690.949171 275.714344 
L 697.819384 275.747992 
L 704.261408 392.813118 
L 710.325501 362.908717 
L 716.053559 345.320032 
L 721.480877 345.435023 
L 726.637466 332.425513 
L 731.549057 460.528505 
L 736.237878 515.770605 
L 740.723263 475.396271 
L 745.022134 522.836308 
L 749.149385 435.602507 
L 753.118194 414.023719 
L 756.940278 440.746051 
L 760.626099 311.642798 
L 764.185041 496.935584 
L 767.625549 476.734846 
L 770.955252 538.882761 
L 774.181064 514.470641 
L 777.309274 380.30587 
L 780.345615 437.215298 
L 783.295328 542.260543 
L 786.163221 507.825596 
L 788.953709 552.417196 
L 791.670863 542.668204 
L 794.318437 557.372295 
L 796.899907 411.001708 
L 799.418492 450.104924 
L 801.877185 380.727759 
L 804.278768 434.381874 
L 806.625834 545.220946 
L 808.920802 464.380406 
L 811.165936 512.686823 
L 813.363354 541.161581 
L 815.515042 551.648778 
L 817.622865 288.22692 
L 819.688575 274.936156 
L 821.713822 520.564692 
L 823.700162 499.176412 
L 825.64906 464.298569 
L 827.561903 389.365664 
L 827.561903 389.365664 
" style="fill:none;stroke:#8414a4;stroke-linecap:square;"/>
   </g>
   <g id="line2d_5">
    <path clip-path="url(#pe5bbf01f8e)" d="M 115.2 168.20137 
L 132.313668 160.528624 
L 146.992943 165.716659 
L 159.844933 173.443115 
L 171.274613 170.93194 
L 181.565657 179.411113 
L 190.924519 167.172851 
L 199.506137 177.643596 
L 207.42977 176.253482 
L 214.789171 182.87129 
L 221.659384 174.90083 
L 228.101408 178.43701 
L 234.165501 175.169616 
L 239.893559 176.281351 
L 245.320877 174.955766 
L 250.477466 182.029359 
L 255.389057 180.305283 
L 260.077878 184.424449 
L 264.563263 191.356922 
L 268.862134 179.496259 
L 272.989385 190.449866 
L 276.958194 177.211056 
L 280.780278 181.007699 
L 284.466099 182.449843 
L 288.025041 188.268657 
L 294.795252 193.176583 
L 298.021064 193.680011 
L 301.149274 187.942176 
L 304.185615 189.987543 
L 307.135328 182.737776 
L 310.003221 193.54635 
L 312.793709 190.92778 
L 315.510863 194.892427 
L 318.158437 191.332301 
L 320.739907 179.092671 
L 323.258492 190.862592 
L 325.717185 185.236098 
L 328.118768 190.117208 
L 330.465834 195.297423 
L 332.760802 196.64723 
L 335.005936 191.408305 
L 337.203354 190.032317 
L 339.355042 203.445297 
L 341.462865 196.031963 
L 353.28 196.406835 
L 370.393668 196.609607 
L 385.072943 205.02552 
L 397.924933 195.720799 
L 409.354613 210.047619 
L 419.645657 200.924364 
L 429.004519 206.700829 
L 437.586137 211.673111 
L 445.50977 206.378019 
L 452.869171 209.831743 
L 459.739384 226.614956 
L 466.181408 203.374216 
L 472.245501 209.466109 
L 477.973559 211.915882 
L 483.400877 228.20444 
L 488.557466 230.572644 
L 493.469057 224.932356 
L 498.157878 217.481793 
L 502.643263 232.939489 
L 506.942134 237.478629 
L 511.069385 232.948084 
L 515.038194 234.570809 
L 518.860278 260.510759 
L 522.546099 237.654884 
L 526.105041 254.658017 
L 529.545549 248.615935 
L 532.875252 244.207842 
L 536.101064 255.605854 
L 539.229274 232.911431 
L 542.265615 239.803466 
L 545.215328 269.277082 
L 548.083221 241.603632 
L 550.873709 264.357533 
L 556.238437 270.93413 
L 558.819907 250.028224 
L 561.338492 254.757081 
L 563.797185 228.912406 
L 566.198768 234.763865 
L 568.545834 236.1514 
L 570.840802 263.283958 
L 573.085936 243.563905 
L 575.283354 256.805809 
L 577.435042 236.720824 
L 579.542865 239.273187 
L 591.36 260.076166 
L 608.473668 247.008175 
L 623.152943 243.483964 
L 636.004933 269.157207 
L 647.434613 297.863232 
L 657.725657 331.225153 
L 667.084519 339.405458 
L 675.666137 341.340525 
L 683.58977 187.417785 
L 690.949171 285.001596 
L 697.819384 311.994834 
L 704.261408 377.754395 
L 710.325501 350.471571 
L 716.053559 380.599008 
L 721.480877 503.027533 
L 726.637466 332.276238 
L 731.549057 382.831755 
L 736.237878 507.310653 
L 740.723263 378.780198 
L 745.022134 368.480767 
L 749.149385 442.608084 
L 753.118194 408.807398 
L 756.940278 401.243667 
L 760.626099 360.857414 
L 764.185041 431.38244 
L 767.625549 509.424789 
L 770.955252 528.630216 
L 774.181064 370.618929 
L 777.309274 476.04161 
L 780.345615 559.691272 
L 783.295328 427.332951 
L 786.163221 343.899901 
L 788.953709 514.365731 
L 791.670863 314.795046 
L 794.318437 520.349696 
L 796.899907 511.658679 
L 799.418492 542.638465 
L 801.877185 542.364363 
L 804.278768 266.028156 
L 806.625834 305.037073 
L 808.920802 484.309091 
L 811.165936 545.759467 
L 813.363354 493.692749 
L 815.515042 467.027536 
L 817.622865 499.668061 
L 819.688575 500.301904 
L 821.713822 342.139687 
L 823.700162 338.970343 
L 825.64906 522.081085 
L 827.561903 489.831614 
L 827.561903 489.831614 
" style="fill:none;stroke:#ffd23a;stroke-linecap:square;"/>
   </g>
   <g id="line2d_6">
    <path clip-path="url(#pe5bbf01f8e)" d="M 115.2 169.901895 
L 132.313668 170.228754 
L 146.992943 170.485808 
L 159.844933 166.57014 
L 171.274613 167.467515 
L 181.565657 163.271799 
L 190.924519 166.849555 
L 199.506137 180.021563 
L 207.42977 172.594576 
L 214.789171 176.006342 
L 221.659384 176.191103 
L 228.101408 179.347376 
L 234.165501 177.744613 
L 239.893559 173.560402 
L 245.320877 173.325579 
L 250.477466 182.938077 
L 255.389057 178.587907 
L 260.077878 175.484094 
L 264.563263 173.733575 
L 268.862134 180.665186 
L 272.989385 184.831255 
L 276.958194 182.764625 
L 280.780278 190.467723 
L 284.466099 186.341012 
L 288.025041 186.521793 
L 291.465549 191.839589 
L 294.795252 188.592602 
L 298.021064 188.886186 
L 301.149274 183.606902 
L 304.185615 181.986196 
L 307.135328 180.092156 
L 310.003221 191.882532 
L 312.793709 187.796967 
L 315.510863 187.5647 
L 318.158437 188.360733 
L 320.739907 187.213038 
L 323.258492 187.454048 
L 325.717185 188.929771 
L 328.118768 186.127816 
L 330.465834 193.1608 
L 332.760802 196.703571 
L 335.005936 190.003621 
L 337.203354 192.739551 
L 339.355042 193.293253 
L 341.462865 190.57497 
L 353.28 189.447982 
L 370.393668 199.607197 
L 385.072943 198.274597 
L 397.924933 198.889111 
L 409.354613 213.022484 
L 419.645657 194.761693 
L 429.004519 201.351619 
L 437.586137 202.875182 
L 445.50977 210.496831 
L 452.869171 203.199027 
L 459.739384 207.761042 
L 466.181408 215.833101 
L 472.245501 208.450278 
L 477.973559 212.061906 
L 483.400877 207.588124 
L 488.557466 219.806133 
L 493.469057 226.971469 
L 498.157878 230.512605 
L 502.643263 220.549176 
L 506.942134 228.098415 
L 511.069385 224.983829 
L 515.038194 224.408545 
L 518.860278 226.685869 
L 522.546099 227.398974 
L 526.105041 235.587266 
L 529.545549 239.186748 
L 532.875252 239.573384 
L 536.101064 235.215224 
L 539.229274 250.696543 
L 542.265615 245.386144 
L 545.215328 237.763353 
L 548.083221 252.33778 
L 550.873709 248.463882 
L 553.590863 251.461551 
L 556.238437 248.870229 
L 558.819907 243.059294 
L 561.338492 253.32161 
L 563.797185 240.844818 
L 566.198768 270.326384 
L 568.545834 259.955584 
L 570.840802 248.902504 
L 573.085936 254.904313 
L 575.283354 235.971313 
L 577.435042 265.129193 
L 579.542865 240.747422 
L 591.36 270.141874 
L 608.473668 251.324066 
L 623.152943 267.748436 
L 636.004933 236.879597 
L 647.434613 253.278627 
L 657.725657 274.450169 
L 667.084519 315.259858 
L 675.666137 304.323529 
L 683.58977 298.825039 
L 690.949171 302.266144 
L 697.819384 264.016918 
L 704.261408 315.907961 
L 710.325501 355.732133 
L 716.053559 290.984187 
L 721.480877 381.475389 
L 726.637466 358.268626 
L 731.549057 387.381317 
L 736.237878 408.213704 
L 740.723263 316.203982 
L 745.022134 448.818896 
L 749.149385 474.948564 
L 753.118194 398.271938 
L 756.940278 391.120123 
L 760.626099 455.735604 
L 764.185041 565.497534 
L 767.625549 518.635643 
L 770.955252 398.22094 
L 774.181064 459.447901 
L 777.309274 417.63575 
L 780.345615 419.035227 
L 783.295328 300.206562 
L 786.163221 482.850362 
L 788.953709 504.586048 
L 791.670863 551.398532 
L 794.318437 487.392871 
L 799.418492 544.483342 
L 801.877185 267.334026 
L 804.278768 450.498613 
L 806.625834 540.101925 
L 808.920802 549.079478 
L 811.165936 324.07283 
L 813.363354 349.131836 
L 815.515042 404.154724 
L 817.622865 566.479328 
L 819.688575 522.414255 
L 821.713822 558.830803 
L 823.700162 519.917014 
L 825.64906 509.82341 
L 827.561903 305.290647 
L 827.561903 305.290647 
" style="fill:none;stroke:#ff9300;stroke-linecap:square;"/>
   </g>
   <g id="line2d_7">
    <path clip-path="url(#pe5bbf01f8e)" d="M 115.2 175.617846 
L 132.313668 171.980003 
L 146.992943 168.116539 
L 159.844933 168.798245 
L 171.274613 175.573377 
L 181.565657 169.5643 
L 190.924519 174.766178 
L 199.506137 175.355175 
L 207.42977 181.041598 
L 214.789171 182.748791 
L 221.659384 176.701749 
L 228.101408 171.280424 
L 234.165501 176.684911 
L 239.893559 176.383565 
L 245.320877 178.215797 
L 250.477466 182.855321 
L 255.389057 181.630084 
L 260.077878 182.909842 
L 264.563263 181.557325 
L 268.862134 181.516859 
L 276.958194 184.467354 
L 280.780278 189.468981 
L 284.466099 177.695391 
L 288.025041 184.496964 
L 291.465549 177.416715 
L 294.795252 183.798224 
L 298.021064 185.88787 
L 301.149274 183.491272 
L 304.185615 192.318632 
L 307.135328 183.574902 
L 310.003221 183.530465 
L 312.793709 188.67959 
L 315.510863 188.584858 
L 318.158437 188.823888 
L 320.739907 188.01615 
L 323.258492 188.484117 
L 325.717185 191.985723 
L 328.118768 191.593858 
L 330.465834 187.173664 
L 332.760802 185.245193 
L 335.005936 196.495934 
L 337.203354 189.785198 
L 339.355042 190.498049 
L 341.462865 189.466868 
L 353.28 190.91304 
L 370.393668 191.030084 
L 385.072943 198.508479 
L 397.924933 197.58487 
L 409.354613 202.271442 
L 419.645657 200.579878 
L 429.004519 197.792415 
L 437.586137 201.315993 
L 445.50977 203.814197 
L 452.869171 202.791845 
L 459.739384 203.857152 
L 466.181408 205.307372 
L 472.245501 204.352146 
L 477.973559 214.17427 
L 483.400877 205.338201 
L 488.557466 205.274315 
L 493.469057 213.229375 
L 498.157878 217.648945 
L 502.643263 215.81972 
L 506.942134 214.595294 
L 511.069385 221.221055 
L 515.038194 223.620502 
L 518.860278 221.041272 
L 522.546099 224.245406 
L 526.105041 227.861475 
L 529.545549 223.463115 
L 532.875252 224.394785 
L 536.101064 238.91229 
L 539.229274 236.717992 
L 542.265615 239.726931 
L 545.215328 244.143979 
L 548.083221 240.707031 
L 550.873709 244.784996 
L 553.590863 234.916749 
L 556.238437 248.395867 
L 558.819907 237.659558 
L 561.338492 253.315397 
L 563.797185 238.035132 
L 566.198768 250.621437 
L 568.545834 257.476383 
L 570.840802 250.002691 
L 573.085936 256.682187 
L 575.283354 258.646325 
L 577.435042 256.658275 
L 579.542865 253.190012 
L 591.36 252.78856 
L 608.473668 269.174386 
L 623.152943 266.738627 
L 636.004933 286.120419 
L 647.434613 260.183473 
L 657.725657 272.606913 
L 667.084519 273.936336 
L 675.666137 294.687401 
L 683.58977 339.748337 
L 690.949171 283.49527 
L 697.819384 342.099381 
L 704.261408 362.379752 
L 710.325501 341.56948 
L 716.053559 346.802391 
L 721.480877 346.92233 
L 726.637466 335.572471 
L 731.549057 322.827652 
L 736.237878 328.301059 
L 740.723263 368.983807 
L 745.022134 438.976674 
L 749.149385 364.603346 
L 753.118194 348.554298 
L 756.940278 419.495471 
L 760.626099 376.11725 
L 764.185041 434.365097 
L 767.625549 436.508634 
L 770.955252 421.716547 
L 774.181064 414.728099 
L 777.309274 520.053152 
L 780.345615 481.171816 
L 783.295328 506.331 
L 786.163221 383.399762 
L 788.953709 524.788092 
L 791.670863 279.050391 
L 794.318437 540.989606 
L 796.899907 551.296493 
L 799.418492 557.214217 
L 801.877185 566.536834 
L 804.278768 527.276249 
L 806.625834 563.58392 
L 808.920802 545.198195 
L 811.165936 550.217451 
L 813.363354 489.804174 
L 815.515042 410.403367 
L 817.622865 522.860544 
L 819.688575 307.532288 
L 821.713822 545.210234 
L 823.700162 295.1348 
L 825.64906 298.67885 
L 827.561903 516.151844 
L 827.561903 516.151844 
" style="fill:none;stroke:#f50fe6;stroke-linecap:square;"/>
   </g>
   <g id="line2d_8">
    <path clip-path="url(#pe5bbf01f8e)" d="M 115.2 164.03867 
L 132.313668 166.306681 
L 146.992943 170.244259 
L 159.844933 175.735928 
L 171.274613 169.251989 
L 181.565657 173.906743 
L 190.924519 171.344415 
L 199.506137 174.665096 
L 207.42977 181.095 
L 214.789171 174.138534 
L 221.659384 176.303181 
L 228.101408 180.720826 
L 234.165501 177.436293 
L 239.893559 172.751383 
L 245.320877 178.64185 
L 250.477466 184.584777 
L 255.389057 182.476287 
L 260.077878 181.217077 
L 268.862134 187.236443 
L 272.989385 188.882091 
L 276.958194 184.765478 
L 280.780278 182.636428 
L 284.466099 193.32806 
L 288.025041 185.902183 
L 291.465549 181.046655 
L 294.795252 186.053228 
L 298.021064 188.421967 
L 301.149274 182.246614 
L 304.185615 182.671694 
L 307.135328 185.905689 
L 310.003221 184.156121 
L 312.793709 190.440452 
L 315.510863 188.072372 
L 318.158437 192.344355 
L 320.739907 185.342869 
L 323.258492 186.433628 
L 325.717185 194.42097 
L 328.118768 188.304819 
L 330.465834 185.839491 
L 332.760802 190.669905 
L 335.005936 192.309288 
L 337.203354 188.348602 
L 339.355042 194.93036 
L 341.462865 192.061746 
L 353.28 196.333052 
L 370.393668 196.752036 
L 385.072943 197.563287 
L 397.924933 198.594087 
L 409.354613 198.692651 
L 419.645657 199.437971 
L 429.004519 200.745443 
L 437.586137 207.170684 
L 445.50977 201.860979 
L 452.869171 197.410753 
L 459.739384 203.976773 
L 466.181408 201.071474 
L 472.245501 208.241315 
L 477.973559 200.314162 
L 483.400877 199.880784 
L 488.557466 210.750413 
L 493.469057 224.741464 
L 498.157878 208.977384 
L 502.643263 210.421204 
L 506.942134 213.447674 
L 511.069385 219.963554 
L 515.038194 215.651778 
L 518.860278 219.377339 
L 522.546099 226.951148 
L 526.105041 226.183243 
L 529.545549 209.679697 
L 532.875252 228.178166 
L 536.101064 232.940298 
L 539.229274 228.235384 
L 542.265615 238.052687 
L 545.215328 235.557149 
L 548.083221 227.104918 
L 550.873709 243.490721 
L 553.590863 234.448587 
L 556.238437 240.52586 
L 558.819907 242.490728 
L 561.338492 233.066123 
L 563.797185 245.141655 
L 566.198768 242.921407 
L 568.545834 238.261872 
L 570.840802 251.196867 
L 573.085936 260.395748 
L 575.283354 246.012343 
L 577.435042 249.488404 
L 579.542865 256.632333 
L 591.36 262.266935 
L 608.473668 268.582793 
L 623.152943 256.293175 
L 636.004933 259.359135 
L 647.434613 288.091587 
L 657.725657 295.281486 
L 667.084519 296.310884 
L 675.666137 307.47399 
L 683.58977 293.253513 
L 690.949171 320.886403 
L 697.819384 319.705419 
L 704.261408 300.904818 
L 710.325501 296.547857 
L 716.053559 339.197016 
L 721.480877 332.550248 
L 726.637466 332.224942 
L 731.549057 335.411685 
L 736.237878 403.704966 
L 740.723263 389.324749 
L 745.022134 393.75538 
L 749.149385 366.896808 
L 753.118194 427.744268 
L 756.940278 419.877222 
L 760.626099 431.307868 
L 764.185041 395.128536 
L 767.625549 482.291401 
L 770.955252 418.991896 
L 774.181064 396.814067 
L 777.309274 478.328804 
L 780.345615 476.39822 
L 783.295328 470.821244 
L 786.163221 429.921319 
L 788.953709 531.714806 
L 791.670863 559.601592 
L 794.318437 507.204002 
L 796.899907 481.069781 
L 799.418492 533.937246 
L 801.877185 485.615267 
L 804.278768 467.944268 
L 806.625834 502.673714 
L 808.920802 561.536164 
L 811.165936 551.975306 
L 813.363354 510.610749 
L 815.515042 557.642165 
L 817.622865 453.752973 
L 819.688575 553.45997 
L 821.713822 536.099041 
L 823.700162 510.891117 
L 825.64906 297.958431 
L 827.561903 545.210198 
L 827.561903 545.210198 
" style="fill:none;stroke:#1000a0;stroke-linecap:square;"/>
   </g>
   <g id="line2d_9">
    <path clip-path="url(#pe5bbf01f8e)" d="M 115.2 164.556473 
L 132.313668 163.181768 
L 146.992943 172.042164 
L 159.844933 177.30386 
L 171.274613 170.869772 
L 181.565657 172.167329 
L 190.924519 171.455616 
L 199.506137 171.613308 
L 207.42977 179.002563 
L 214.789171 177.298648 
L 221.659384 173.558753 
L 228.101408 176.791232 
L 234.165501 178.668798 
L 239.893559 174.817017 
L 245.320877 173.081246 
L 250.477466 180.100379 
L 255.389057 178.84435 
L 260.077878 180.447256 
L 264.563263 181.572506 
L 268.862134 178.195508 
L 272.989385 187.098572 
L 276.958194 181.64135 
L 280.780278 186.750289 
L 284.466099 184.092686 
L 288.025041 181.266213 
L 291.465549 184.142592 
L 294.795252 179.082193 
L 298.021064 187.751192 
L 301.149274 188.033507 
L 304.185615 183.233542 
L 307.135328 183.734299 
L 310.003221 184.543467 
L 312.793709 187.036169 
L 315.510863 189.214142 
L 318.158437 189.342142 
L 320.739907 187.871734 
L 323.258492 188.135333 
L 325.717185 191.514716 
L 328.118768 187.793677 
L 330.465834 185.27138 
L 332.760802 192.628109 
L 335.005936 195.285064 
L 337.203354 196.876774 
L 339.355042 186.936488 
L 341.462865 184.664165 
L 353.28 193.792846 
L 370.393668 192.413592 
L 385.072943 192.987225 
L 397.924933 196.675823 
L 409.354613 201.08841 
L 419.645657 200.586823 
L 429.004519 198.862301 
L 437.586137 201.751768 
L 445.50977 195.962697 
L 452.869171 203.162131 
L 459.739384 201.991585 
L 466.181408 202.327325 
L 472.245501 201.562098 
L 477.973559 201.509666 
L 483.400877 208.19881 
L 488.557466 202.30346 
L 493.469057 206.152834 
L 498.157878 205.519205 
L 502.643263 209.703083 
L 506.942134 211.073809 
L 511.069385 212.870378 
L 515.038194 218.823078 
L 518.860278 219.295414 
L 522.546099 217.02825 
L 526.105041 221.099718 
L 529.545549 219.028832 
L 532.875252 214.685924 
L 536.101064 216.721047 
L 539.229274 215.999013 
L 542.265615 212.139642 
L 545.215328 220.922699 
L 548.083221 221.748921 
L 550.873709 222.823334 
L 553.590863 226.248783 
L 556.238437 222.562392 
L 558.819907 228.328378 
L 561.338492 227.294416 
L 563.797185 239.064217 
L 566.198768 229.465762 
L 568.545834 229.902515 
L 570.840802 245.186417 
L 573.085936 249.324484 
L 575.283354 239.713389 
L 577.435042 238.378279 
L 579.542865 245.3009 
L 591.36 256.783591 
L 608.473668 266.701725 
L 623.152943 269.1194 
L 636.004933 260.321191 
L 647.434613 275.471998 
L 657.725657 285.319077 
L 667.084519 257.664131 
L 675.666137 303.998224 
L 683.58977 309.361577 
L 690.949171 324.382137 
L 697.819384 310.484149 
L 704.261408 338.321552 
L 710.325501 338.683415 
L 716.053559 312.794513 
L 721.480877 319.747597 
L 726.637466 378.995799 
L 731.549057 334.044364 
L 736.237878 369.485897 
L 740.723263 379.356498 
L 745.022134 412.745225 
L 749.149385 393.082771 
L 753.118194 394.183293 
L 756.940278 436.798944 
L 760.626099 348.771481 
L 764.185041 370.983566 
L 767.625549 412.068205 
L 770.955252 386.109046 
L 774.181064 276.218057 
L 777.309274 392.030169 
L 780.345615 478.42596 
L 783.295328 450.587242 
L 786.163221 510.928116 
L 788.953709 501.779583 
L 791.670863 545.750642 
L 794.318437 526.32679 
L 796.899907 508.319201 
L 799.418492 546.958594 
L 801.877185 494.182263 
L 804.278768 557.743483 
L 806.625834 525.675617 
L 808.920802 499.134745 
L 811.165936 522.687468 
L 813.363354 516.762128 
L 815.515042 559.956435 
L 817.622865 532.248124 
L 819.688575 492.359928 
L 821.713822 536.791462 
L 823.700162 556.783534 
L 825.64906 517.324148 
L 827.561903 530.889393 
L 827.561903 530.889393 
" style="fill:none;stroke:#595866;stroke-linecap:square;"/>
   </g>
   <g id="line2d_10">
    <path clip-path="url(#pe5bbf01f8e)" d="M 115.2 166.920343 
L 132.313668 162.609642 
L 146.992943 170.847155 
L 159.844933 171.05464 
L 171.274613 173.000255 
L 181.565657 175.116144 
L 190.924519 179.51205 
L 199.506137 171.191581 
L 207.42977 173.969959 
L 214.789171 173.542873 
L 221.659384 174.966077 
L 228.101408 178.075379 
L 234.165501 179.492563 
L 239.893559 176.782628 
L 245.320877 181.660073 
L 250.477466 183.809433 
L 255.389057 180.695541 
L 260.077878 181.860496 
L 264.563263 180.161252 
L 268.862134 183.763725 
L 272.989385 179.735392 
L 276.958194 186.271101 
L 280.780278 186.958951 
L 284.466099 180.091363 
L 288.025041 183.010913 
L 291.465549 179.996989 
L 294.795252 180.300816 
L 298.021064 183.192076 
L 301.149274 190.97629 
L 304.185615 180.236488 
L 307.135328 193.905073 
L 310.003221 189.681736 
L 312.793709 187.271576 
L 315.510863 189.859366 
L 318.158437 187.711141 
L 320.739907 187.233413 
L 323.258492 188.965785 
L 325.717185 191.725537 
L 328.118768 193.089086 
L 330.465834 192.965371 
L 332.760802 189.550146 
L 335.005936 190.230157 
L 337.203354 192.636858 
L 339.355042 196.287157 
L 341.462865 189.085897 
L 353.28 194.963215 
L 370.393668 191.871192 
L 385.072943 192.794209 
L 397.924933 194.921383 
L 409.354613 200.627768 
L 419.645657 200.432893 
L 429.004519 194.336291 
L 437.586137 195.235564 
L 445.50977 199.552794 
L 452.869171 202.812044 
L 459.739384 207.285474 
L 466.181408 204.527067 
L 472.245501 200.406393 
L 477.973559 203.403216 
L 483.400877 209.751342 
L 488.557466 205.61339 
L 493.469057 206.090006 
L 498.157878 202.204605 
L 502.643263 202.762751 
L 506.942134 205.482415 
L 511.069385 202.033084 
L 515.038194 212.34002 
L 518.860278 209.437173 
L 522.546099 214.546171 
L 526.105041 215.661214 
L 529.545549 219.802056 
L 532.875252 208.127921 
L 536.101064 212.966194 
L 539.229274 219.524172 
L 542.265615 219.806691 
L 545.215328 214.057619 
L 548.083221 228.730981 
L 550.873709 230.320011 
L 553.590863 227.99187 
L 556.238437 226.698855 
L 558.819907 221.732249 
L 561.338492 227.751562 
L 563.797185 236.812253 
L 566.198768 228.731881 
L 568.545834 239.145412 
L 570.840802 240.651056 
L 573.085936 240.745965 
L 575.283354 245.050545 
L 577.435042 244.079024 
L 579.542865 235.521828 
L 591.36 269.246263 
L 608.473668 249.226325 
L 623.152943 250.781655 
L 636.004933 270.53196 
L 647.434613 270.203161 
L 657.725657 259.540411 
L 667.084519 309.049879 
L 675.666137 291.781692 
L 683.58977 282.704989 
L 690.949171 316.494702 
L 697.819384 308.686261 
L 704.261408 318.452662 
L 710.325501 337.011221 
L 716.053559 346.365145 
L 721.480877 339.760616 
L 726.637466 354.99396 
L 731.549057 359.441701 
L 736.237878 343.751735 
L 740.723263 355.279711 
L 745.022134 356.881545 
L 749.149385 399.772722 
L 753.118194 356.237067 
L 756.940278 434.829036 
L 760.626099 440.809225 
L 764.185041 441.827763 
L 767.625549 455.693595 
L 770.955252 453.552364 
L 774.181064 453.940644 
L 777.309274 408.86967 
L 780.345615 515.018546 
L 783.295328 463.665513 
L 786.163221 398.874971 
L 788.953709 369.918395 
L 791.670863 536.242198 
L 794.318437 501.569909 
L 796.899907 565.920953 
L 799.418492 525.98024 
L 801.877185 505.452127 
L 804.278768 541.065008 
L 806.625834 530.984302 
L 808.920802 551.732567 
L 811.165936 551.697989 
L 813.363354 525.7712 
L 815.515042 535.637797 
L 817.622865 528.416004 
L 819.688575 549.29131 
L 821.713822 561.895865 
L 823.700162 531.348167 
L 825.64906 516.496914 
L 827.561903 545.170171 
L 827.561903 545.170171 
" style="fill:none;stroke:#147f2a;stroke-linecap:square;"/>
   </g>
   <g id="line2d_11">
    <path clip-path="url(#pe5bbf01f8e)" d="M 115.2 164.720734 
L 132.313668 174.56255 
L 146.992943 167.770453 
L 159.844933 172.525117 
L 171.274613 175.660362 
L 181.565657 170.141996 
L 190.924519 172.541145 
L 199.506137 174.322767 
L 207.42977 172.553734 
L 214.789171 170.104202 
L 221.659384 175.144109 
L 228.101408 175.38809 
L 234.165501 175.307695 
L 239.893559 176.241058 
L 245.320877 175.859423 
L 250.477466 177.939823 
L 255.389057 179.248336 
L 260.077878 179.822616 
L 264.563263 179.855272 
L 268.862134 184.304648 
L 272.989385 179.804785 
L 276.958194 180.329168 
L 280.780278 180.069574 
L 284.466099 184.414809 
L 288.025041 185.067191 
L 291.465549 180.007273 
L 294.795252 190.791808 
L 298.021064 183.974339 
L 301.149274 183.738915 
L 304.185615 187.402938 
L 307.135328 183.852242 
L 310.003221 187.523206 
L 315.510863 191.045282 
L 318.158437 184.622457 
L 320.739907 189.192978 
L 323.258492 186.83865 
L 325.717185 197.05187 
L 328.118768 189.143968 
L 330.465834 182.474979 
L 332.760802 191.07207 
L 335.005936 188.343046 
L 337.203354 191.916075 
L 339.355042 187.89176 
L 341.462865 188.324735 
L 353.28 191.599363 
L 370.393668 191.856796 
L 385.072943 200.877339 
L 397.924933 197.210334 
L 409.354613 198.339867 
L 419.645657 195.062928 
L 429.004519 196.883722 
L 437.586137 198.930521 
L 445.50977 203.18274 
L 452.869171 202.356036 
L 459.739384 199.576822 
L 466.181408 200.343568 
L 472.245501 199.152226 
L 477.973559 205.016751 
L 483.400877 197.310452 
L 488.557466 198.302621 
L 493.469057 197.167131 
L 498.157878 204.898865 
L 502.643263 202.245698 
L 506.942134 205.016368 
L 511.069385 201.213598 
L 515.038194 201.516938 
L 518.860278 210.721946 
L 522.546099 210.169853 
L 526.105041 206.28444 
L 529.545549 205.161771 
L 532.875252 218.332465 
L 536.101064 215.412383 
L 539.229274 208.609766 
L 542.265615 214.458427 
L 545.215328 212.487304 
L 548.083221 215.91395 
L 550.873709 219.505176 
L 553.590863 218.646423 
L 556.238437 219.991161 
L 558.819907 219.123035 
L 561.338492 227.077515 
L 563.797185 224.673969 
L 566.198768 230.534336 
L 568.545834 237.082901 
L 570.840802 224.089925 
L 573.085936 219.558946 
L 575.283354 240.645094 
L 577.435042 237.25555 
L 579.542865 245.861002 
L 591.36 236.892682 
L 608.473668 253.161533 
L 623.152943 245.587768 
L 636.004933 258.552989 
L 647.434613 267.91787 
L 657.725657 285.827522 
L 667.084519 283.80782 
L 675.666137 315.399934 
L 683.58977 302.618344 
L 690.949171 313.037323 
L 697.819384 320.717109 
L 704.261408 325.862883 
L 710.325501 338.656676 
L 716.053559 326.55809 
L 721.480877 321.1569 
L 726.637466 364.842353 
L 731.549057 362.920106 
L 736.237878 357.339176 
L 740.723263 375.937237 
L 745.022134 328.341632 
L 749.149385 410.831489 
L 753.118194 380.499047 
L 756.940278 392.234614 
L 760.626099 402.416237 
L 764.185041 404.03014 
L 767.625549 378.716243 
L 770.955252 397.423046 
L 774.181064 396.252461 
L 777.309274 449.905677 
L 780.345615 480.731134 
L 783.295328 455.633447 
L 786.163221 547.903216 
L 788.953709 480.663378 
L 791.670863 520.324489 
L 794.318437 470.284777 
L 796.899907 507.332952 
L 799.418492 504.157683 
L 801.877185 555.47236 
L 804.278768 524.192713 
L 806.625834 554.632357 
L 808.920802 549.016274 
L 811.165936 510.814765 
L 813.363354 518.929776 
L 815.515042 536.866924 
L 817.622865 501.038626 
L 819.688575 531.423358 
L 821.713822 564.010633 
L 823.700162 556.773525 
L 825.64906 509.781417 
L 827.561903 519.97782 
L 827.561903 519.97782 
" style="fill:none;stroke:#00f6aa;stroke-linecap:square;"/>
   </g>
   <g id="patch_3">
    <path d="M 115.2 64.08 
L 829.44 64.08 
" style="fill:none;stroke:#000000;stroke-linecap:square;stroke-linejoin:miter;"/>
   </g>
   <g id="patch_4">
    <path d="M 829.44 576.72 
L 829.44 64.08 
" style="fill:none;stroke:#000000;stroke-linecap:square;stroke-linejoin:miter;"/>
   </g>
   <g id="patch_5">
    <path d="M 115.2 576.72 
L 829.44 576.72 
" style="fill:none;stroke:#000000;stroke-linecap:square;stroke-linejoin:miter;"/>
   </g>
   <g id="patch_6">
    <path d="M 115.2 576.72 
L 115.2 64.08 
" style="fill:none;stroke:#000000;stroke-linecap:square;stroke-linejoin:miter;"/>
   </g>
   <g id="matplotlib.axis_1">
    <g id="xtick_1">
     <g id="line2d_12">
      <defs>
       <path d="M 0 0 
L 0 -4 
" id="m8502404e6a" style="stroke:#000000;stroke-width:0.5;"/>
      </defs>
      <g>
       <use style="stroke:#000000;stroke-width:0.5;" x="115.2" xlink:href="#m8502404e6a" y="576.72"/>
      </g>
     </g>
     <g id="line2d_13">
      <defs>
       <path d="M 0 0 
L 0 4 
" id="m1785925591" style="stroke:#000000;stroke-width:0.5;"/>
      </defs>
      <g>
       <use style="stroke:#000000;stroke-width:0.5;" x="115.2" xlink:href="#m1785925591" y="64.08"/>
      </g>
     </g>
     <g id="text_1">
      <!-- $\mathdefault{10^{-3}}$ -->
      <defs>
       <path d="M 40.578125 39.3125 
Q 47.65625 37.796875 51.625 33 
Q 55.609375 28.21875 55.609375 21.1875 
Q 55.609375 10.40625 48.1875 4.484375 
Q 40.765625 -1.421875 27.09375 -1.421875 
Q 22.515625 -1.421875 17.65625 -0.515625 
Q 12.796875 0.390625 7.625 2.203125 
L 7.625 11.71875 
Q 11.71875 9.328125 16.59375 8.109375 
Q 21.484375 6.890625 26.8125 6.890625 
Q 36.078125 6.890625 40.9375 10.546875 
Q 45.796875 14.203125 45.796875 21.1875 
Q 45.796875 27.640625 41.28125 31.265625 
Q 36.765625 34.90625 28.71875 34.90625 
L 20.21875 34.90625 
L 20.21875 43.015625 
L 29.109375 43.015625 
Q 36.375 43.015625 40.234375 45.921875 
Q 44.09375 48.828125 44.09375 54.296875 
Q 44.09375 59.90625 40.109375 62.90625 
Q 36.140625 65.921875 28.71875 65.921875 
Q 24.65625 65.921875 20.015625 65.03125 
Q 15.375 64.15625 9.8125 62.3125 
L 9.8125 71.09375 
Q 15.4375 72.65625 20.34375 73.4375 
Q 25.25 74.21875 29.59375 74.21875 
Q 40.828125 74.21875 47.359375 69.109375 
Q 53.90625 64.015625 53.90625 55.328125 
Q 53.90625 49.265625 50.4375 45.09375 
Q 46.96875 40.921875 40.578125 39.3125 
" id="BitstreamVeraSans-Roman-33"/>
       <path d="M 4.890625 31.390625 
L 31.203125 31.390625 
L 31.203125 23.390625 
L 4.890625 23.390625 
z
" id="BitstreamVeraSans-Roman-2d"/>
       <path d="M 31.78125 66.40625 
Q 24.171875 66.40625 20.328125 58.90625 
Q 16.5 51.421875 16.5 36.375 
Q 16.5 21.390625 20.328125 13.890625 
Q 24.171875 6.390625 31.78125 6.390625 
Q 39.453125 6.390625 43.28125 13.890625 
Q 47.125 21.390625 47.125 36.375 
Q 47.125 51.421875 43.28125 58.90625 
Q 39.453125 66.40625 31.78125 66.40625 
M 31.78125 74.21875 
Q 44.046875 74.21875 50.515625 64.515625 
Q 56.984375 54.828125 56.984375 36.375 
Q 56.984375 17.96875 50.515625 8.265625 
Q 44.046875 -1.421875 31.78125 -1.421875 
Q 19.53125 -1.421875 13.0625 8.265625 
Q 6.59375 17.96875 6.59375 36.375 
Q 6.59375 54.828125 13.0625 64.515625 
Q 19.53125 74.21875 31.78125 74.21875 
" id="BitstreamVeraSans-Roman-30"/>
       <path d="M 12.40625 8.296875 
L 28.515625 8.296875 
L 28.515625 63.921875 
L 10.984375 60.40625 
L 10.984375 69.390625 
L 28.421875 72.90625 
L 38.28125 72.90625 
L 38.28125 8.296875 
L 54.390625 8.296875 
L 54.390625 0 
L 12.40625 0 
z
" id="BitstreamVeraSans-Roman-31"/>
      </defs>
      <g transform="translate(102.54 590.464375)scale(0.12 -0.12)">
       <use transform="translate(0.0 0.796875)" xlink:href="#BitstreamVeraSans-Roman-31"/>
       <use transform="translate(63.623046875 0.796875)" xlink:href="#BitstreamVeraSans-Roman-30"/>
       <use transform="translate(132.75859375 48.046875)scale(0.7)" xlink:href="#BitstreamVeraSans-Roman-2d"/>
       <use transform="translate(158.0173828125 48.046875)scale(0.7)" xlink:href="#BitstreamVeraSans-Roman-33"/>
      </g>
     </g>
    </g>
    <g id="xtick_2">
     <g id="line2d_14">
      <g>
       <use style="stroke:#000000;stroke-width:0.5;" x="353.28" xlink:href="#m8502404e6a" y="576.72"/>
      </g>
     </g>
     <g id="line2d_15">
      <g>
       <use style="stroke:#000000;stroke-width:0.5;" x="353.28" xlink:href="#m1785925591" y="64.08"/>
      </g>
     </g>
     <g id="text_2">
      <!-- $\mathdefault{10^{-2}}$ -->
      <defs>
       <path d="M 19.1875 8.296875 
L 53.609375 8.296875 
L 53.609375 0 
L 7.328125 0 
L 7.328125 8.296875 
Q 12.9375 14.109375 22.625 23.890625 
Q 32.328125 33.6875 34.8125 36.53125 
Q 39.546875 41.84375 41.421875 45.53125 
Q 43.3125 49.21875 43.3125 52.78125 
Q 43.3125 58.59375 39.234375 62.25 
Q 35.15625 65.921875 28.609375 65.921875 
Q 23.96875 65.921875 18.8125 64.3125 
Q 13.671875 62.703125 7.8125 59.421875 
L 7.8125 69.390625 
Q 13.765625 71.78125 18.9375 73 
Q 24.125 74.21875 28.421875 74.21875 
Q 39.75 74.21875 46.484375 68.546875 
Q 53.21875 62.890625 53.21875 53.421875 
Q 53.21875 48.921875 51.53125 44.890625 
Q 49.859375 40.875 45.40625 35.40625 
Q 44.1875 33.984375 37.640625 27.21875 
Q 31.109375 20.453125 19.1875 8.296875 
" id="BitstreamVeraSans-Roman-32"/>
      </defs>
      <g transform="translate(340.62 590.464375)scale(0.12 -0.12)">
       <use transform="translate(0.0 0.796875)" xlink:href="#BitstreamVeraSans-Roman-31"/>
       <use transform="translate(63.623046875 0.796875)" xlink:href="#BitstreamVeraSans-Roman-30"/>
       <use transform="translate(132.75859375 48.046875)scale(0.7)" xlink:href="#BitstreamVeraSans-Roman-2d"/>
       <use transform="translate(158.0173828125 48.046875)scale(0.7)" xlink:href="#BitstreamVeraSans-Roman-32"/>
      </g>
     </g>
    </g>
    <g id="xtick_3">
     <g id="line2d_16">
      <g>
       <use style="stroke:#000000;stroke-width:0.5;" x="591.36" xlink:href="#m8502404e6a" y="576.72"/>
      </g>
     </g>
     <g id="line2d_17">
      <g>
       <use style="stroke:#000000;stroke-width:0.5;" x="591.36" xlink:href="#m1785925591" y="64.08"/>
      </g>
     </g>
     <g id="text_3">
      <!-- $\mathdefault{10^{-1}}$ -->
      <g transform="translate(578.7 590.344375)scale(0.12 -0.12)">
       <use transform="translate(0.0 0.7156250000000028)" xlink:href="#BitstreamVeraSans-Roman-31"/>
       <use transform="translate(63.623046875 0.7156250000000028)" xlink:href="#BitstreamVeraSans-Roman-30"/>
       <use transform="translate(132.75859375 47.965625)scale(0.7)" xlink:href="#BitstreamVeraSans-Roman-2d"/>
       <use transform="translate(158.0173828125 47.965625)scale(0.7)" xlink:href="#BitstreamVeraSans-Roman-31"/>
      </g>
     </g>
    </g>
    <g id="xtick_4">
     <g id="line2d_18">
      <g>
       <use style="stroke:#000000;stroke-width:0.5;" x="829.44" xlink:href="#m8502404e6a" y="576.72"/>
      </g>
     </g>
     <g id="line2d_19">
      <g>
       <use style="stroke:#000000;stroke-width:0.5;" x="829.44" xlink:href="#m1785925591" y="64.08"/>
      </g>
     </g>
     <g id="text_4">
      <!-- $\mathdefault{10^{0}}$ -->
      <g transform="translate(818.28 590.464375)scale(0.12 -0.12)">
       <use transform="translate(0.0 0.796875)" xlink:href="#BitstreamVeraSans-Roman-31"/>
       <use transform="translate(63.623046875 0.796875)" xlink:href="#BitstreamVeraSans-Roman-30"/>
       <use transform="translate(132.75859375 48.046875)scale(0.7)" xlink:href="#BitstreamVeraSans-Roman-30"/>
      </g>
     </g>
    </g>
    <g id="xtick_5">
     <g id="line2d_20">
      <defs>
       <path d="M 0 0 
L 0 -2 
" id="m2bc7b9565b" style="stroke:#000000;stroke-width:0.5;"/>
      </defs>
      <g>
       <use style="stroke:#000000;stroke-width:0.5;" x="186.869221368" xlink:href="#m2bc7b9565b" y="576.72"/>
      </g>
     </g>
     <g id="line2d_21">
      <defs>
       <path d="M 0 0 
L 0 2 
" id="m7f163af8f7" style="stroke:#000000;stroke-width:0.5;"/>
      </defs>
      <g>
       <use style="stroke:#000000;stroke-width:0.5;" x="186.869221368" xlink:href="#m7f163af8f7" y="64.08"/>
      </g>
     </g>
    </g>
    <g id="xtick_6">
     <g id="line2d_22">
      <g>
       <use style="stroke:#000000;stroke-width:0.5;" x="228.793028324" xlink:href="#m2bc7b9565b" y="576.72"/>
      </g>
     </g>
     <g id="line2d_23">
      <g>
       <use style="stroke:#000000;stroke-width:0.5;" x="228.793028324" xlink:href="#m7f163af8f7" y="64.08"/>
      </g>
     </g>
    </g>
    <g id="xtick_7">
     <g id="line2d_24">
      <g>
       <use style="stroke:#000000;stroke-width:0.5;" x="258.538442735" xlink:href="#m2bc7b9565b" y="576.72"/>
      </g>
     </g>
     <g id="line2d_25">
      <g>
       <use style="stroke:#000000;stroke-width:0.5;" x="258.538442735" xlink:href="#m7f163af8f7" y="64.08"/>
      </g>
     </g>
    </g>
    <g id="xtick_8">
     <g id="line2d_26">
      <g>
       <use style="stroke:#000000;stroke-width:0.5;" x="281.610778632" xlink:href="#m2bc7b9565b" y="576.72"/>
      </g>
     </g>
     <g id="line2d_27">
      <g>
       <use style="stroke:#000000;stroke-width:0.5;" x="281.610778632" xlink:href="#m7f163af8f7" y="64.08"/>
      </g>
     </g>
    </g>
    <g id="xtick_9">
     <g id="line2d_28">
      <g>
       <use style="stroke:#000000;stroke-width:0.5;" x="300.462249691" xlink:href="#m2bc7b9565b" y="576.72"/>
      </g>
     </g>
     <g id="line2d_29">
      <g>
       <use style="stroke:#000000;stroke-width:0.5;" x="300.462249691" xlink:href="#m7f163af8f7" y="64.08"/>
      </g>
     </g>
    </g>
    <g id="xtick_10">
     <g id="line2d_30">
      <g>
       <use style="stroke:#000000;stroke-width:0.5;" x="316.400941367" xlink:href="#m2bc7b9565b" y="576.72"/>
      </g>
     </g>
     <g id="line2d_31">
      <g>
       <use style="stroke:#000000;stroke-width:0.5;" x="316.400941367" xlink:href="#m7f163af8f7" y="64.08"/>
      </g>
     </g>
    </g>
    <g id="xtick_11">
     <g id="line2d_32">
      <g>
       <use style="stroke:#000000;stroke-width:0.5;" x="330.207664103" xlink:href="#m2bc7b9565b" y="576.72"/>
      </g>
     </g>
     <g id="line2d_33">
      <g>
       <use style="stroke:#000000;stroke-width:0.5;" x="330.207664103" xlink:href="#m7f163af8f7" y="64.08"/>
      </g>
     </g>
    </g>
    <g id="xtick_12">
     <g id="line2d_34">
      <g>
       <use style="stroke:#000000;stroke-width:0.5;" x="342.386056647" xlink:href="#m2bc7b9565b" y="576.72"/>
      </g>
     </g>
     <g id="line2d_35">
      <g>
       <use style="stroke:#000000;stroke-width:0.5;" x="342.386056647" xlink:href="#m7f163af8f7" y="64.08"/>
      </g>
     </g>
    </g>
    <g id="xtick_13">
     <g id="line2d_36">
      <g>
       <use style="stroke:#000000;stroke-width:0.5;" x="424.949221368" xlink:href="#m2bc7b9565b" y="576.72"/>
      </g>
     </g>
     <g id="line2d_37">
      <g>
       <use style="stroke:#000000;stroke-width:0.5;" x="424.949221368" xlink:href="#m7f163af8f7" y="64.08"/>
      </g>
     </g>
    </g>
    <g id="xtick_14">
     <g id="line2d_38">
      <g>
       <use style="stroke:#000000;stroke-width:0.5;" x="466.873028324" xlink:href="#m2bc7b9565b" y="576.72"/>
      </g>
     </g>
     <g id="line2d_39">
      <g>
       <use style="stroke:#000000;stroke-width:0.5;" x="466.873028324" xlink:href="#m7f163af8f7" y="64.08"/>
      </g>
     </g>
    </g>
    <g id="xtick_15">
     <g id="line2d_40">
      <g>
       <use style="stroke:#000000;stroke-width:0.5;" x="496.618442735" xlink:href="#m2bc7b9565b" y="576.72"/>
      </g>
     </g>
     <g id="line2d_41">
      <g>
       <use style="stroke:#000000;stroke-width:0.5;" x="496.618442735" xlink:href="#m7f163af8f7" y="64.08"/>
      </g>
     </g>
    </g>
    <g id="xtick_16">
     <g id="line2d_42">
      <g>
       <use style="stroke:#000000;stroke-width:0.5;" x="519.690778632" xlink:href="#m2bc7b9565b" y="576.72"/>
      </g>
     </g>
     <g id="line2d_43">
      <g>
       <use style="stroke:#000000;stroke-width:0.5;" x="519.690778632" xlink:href="#m7f163af8f7" y="64.08"/>
      </g>
     </g>
    </g>
    <g id="xtick_17">
     <g id="line2d_44">
      <g>
       <use style="stroke:#000000;stroke-width:0.5;" x="538.542249691" xlink:href="#m2bc7b9565b" y="576.72"/>
      </g>
     </g>
     <g id="line2d_45">
      <g>
       <use style="stroke:#000000;stroke-width:0.5;" x="538.542249691" xlink:href="#m7f163af8f7" y="64.08"/>
      </g>
     </g>
    </g>
    <g id="xtick_18">
     <g id="line2d_46">
      <g>
       <use style="stroke:#000000;stroke-width:0.5;" x="554.480941367" xlink:href="#m2bc7b9565b" y="576.72"/>
      </g>
     </g>
     <g id="line2d_47">
      <g>
       <use style="stroke:#000000;stroke-width:0.5;" x="554.480941367" xlink:href="#m7f163af8f7" y="64.08"/>
      </g>
     </g>
    </g>
    <g id="xtick_19">
     <g id="line2d_48">
      <g>
       <use style="stroke:#000000;stroke-width:0.5;" x="568.287664103" xlink:href="#m2bc7b9565b" y="576.72"/>
      </g>
     </g>
     <g id="line2d_49">
      <g>
       <use style="stroke:#000000;stroke-width:0.5;" x="568.287664103" xlink:href="#m7f163af8f7" y="64.08"/>
      </g>
     </g>
    </g>
    <g id="xtick_20">
     <g id="line2d_50">
      <g>
       <use style="stroke:#000000;stroke-width:0.5;" x="580.466056647" xlink:href="#m2bc7b9565b" y="576.72"/>
      </g>
     </g>
     <g id="line2d_51">
      <g>
       <use style="stroke:#000000;stroke-width:0.5;" x="580.466056647" xlink:href="#m7f163af8f7" y="64.08"/>
      </g>
     </g>
    </g>
    <g id="xtick_21">
     <g id="line2d_52">
      <g>
       <use style="stroke:#000000;stroke-width:0.5;" x="663.029221368" xlink:href="#m2bc7b9565b" y="576.72"/>
      </g>
     </g>
     <g id="line2d_53">
      <g>
       <use style="stroke:#000000;stroke-width:0.5;" x="663.029221368" xlink:href="#m7f163af8f7" y="64.08"/>
      </g>
     </g>
    </g>
    <g id="xtick_22">
     <g id="line2d_54">
      <g>
       <use style="stroke:#000000;stroke-width:0.5;" x="704.953028324" xlink:href="#m2bc7b9565b" y="576.72"/>
      </g>
     </g>
     <g id="line2d_55">
      <g>
       <use style="stroke:#000000;stroke-width:0.5;" x="704.953028324" xlink:href="#m7f163af8f7" y="64.08"/>
      </g>
     </g>
    </g>
    <g id="xtick_23">
     <g id="line2d_56">
      <g>
       <use style="stroke:#000000;stroke-width:0.5;" x="734.698442735" xlink:href="#m2bc7b9565b" y="576.72"/>
      </g>
     </g>
     <g id="line2d_57">
      <g>
       <use style="stroke:#000000;stroke-width:0.5;" x="734.698442735" xlink:href="#m7f163af8f7" y="64.08"/>
      </g>
     </g>
    </g>
    <g id="xtick_24">
     <g id="line2d_58">
      <g>
       <use style="stroke:#000000;stroke-width:0.5;" x="757.770778632" xlink:href="#m2bc7b9565b" y="576.72"/>
      </g>
     </g>
     <g id="line2d_59">
      <g>
       <use style="stroke:#000000;stroke-width:0.5;" x="757.770778632" xlink:href="#m7f163af8f7" y="64.08"/>
      </g>
     </g>
    </g>
    <g id="xtick_25">
     <g id="line2d_60">
      <g>
       <use style="stroke:#000000;stroke-width:0.5;" x="776.622249691" xlink:href="#m2bc7b9565b" y="576.72"/>
      </g>
     </g>
     <g id="line2d_61">
      <g>
       <use style="stroke:#000000;stroke-width:0.5;" x="776.622249691" xlink:href="#m7f163af8f7" y="64.08"/>
      </g>
     </g>
    </g>
    <g id="xtick_26">
     <g id="line2d_62">
      <g>
       <use style="stroke:#000000;stroke-width:0.5;" x="792.560941367" xlink:href="#m2bc7b9565b" y="576.72"/>
      </g>
     </g>
     <g id="line2d_63">
      <g>
       <use style="stroke:#000000;stroke-width:0.5;" x="792.560941367" xlink:href="#m7f163af8f7" y="64.08"/>
      </g>
     </g>
    </g>
    <g id="xtick_27">
     <g id="line2d_64">
      <g>
       <use style="stroke:#000000;stroke-width:0.5;" x="806.367664103" xlink:href="#m2bc7b9565b" y="576.72"/>
      </g>
     </g>
     <g id="line2d_65">
      <g>
       <use style="stroke:#000000;stroke-width:0.5;" x="806.367664103" xlink:href="#m7f163af8f7" y="64.08"/>
      </g>
     </g>
    </g>
    <g id="xtick_28">
     <g id="line2d_66">
      <g>
       <use style="stroke:#000000;stroke-width:0.5;" x="818.546056647" xlink:href="#m2bc7b9565b" y="576.72"/>
      </g>
     </g>
     <g id="line2d_67">
      <g>
       <use style="stroke:#000000;stroke-width:0.5;" x="818.546056647" xlink:href="#m7f163af8f7" y="64.08"/>
      </g>
     </g>
    </g>
   </g>
   <g id="matplotlib.axis_2">
    <g id="ytick_1">
     <g id="line2d_68">
      <defs>
       <path d="M 0 0 
L 4 0 
" id="m2afba74206" style="stroke:#000000;stroke-width:0.5;"/>
      </defs>
      <g>
       <use style="stroke:#000000;stroke-width:0.5;" x="115.2" xlink:href="#m2afba74206" y="576.72"/>
      </g>
     </g>
     <g id="line2d_69">
      <defs>
       <path d="M 0 0 
L -4 0 
" id="m311b335378" style="stroke:#000000;stroke-width:0.5;"/>
      </defs>
      <g>
       <use style="stroke:#000000;stroke-width:0.5;" x="829.44" xlink:href="#m311b335378" y="576.72"/>
      </g>
     </g>
     <g id="text_5">
      <!-- 8 -->
      <defs>
       <path d="M 31.78125 34.625 
Q 24.75 34.625 20.71875 30.859375 
Q 16.703125 27.09375 16.703125 20.515625 
Q 16.703125 13.921875 20.71875 10.15625 
Q 24.75 6.390625 31.78125 6.390625 
Q 38.8125 6.390625 42.859375 10.171875 
Q 46.921875 13.96875 46.921875 20.515625 
Q 46.921875 27.09375 42.890625 30.859375 
Q 38.875 34.625 31.78125 34.625 
M 21.921875 38.8125 
Q 15.578125 40.375 12.03125 44.71875 
Q 8.5 49.078125 8.5 55.328125 
Q 8.5 64.0625 14.71875 69.140625 
Q 20.953125 74.21875 31.78125 74.21875 
Q 42.671875 74.21875 48.875 69.140625 
Q 55.078125 64.0625 55.078125 55.328125 
Q 55.078125 49.078125 51.53125 44.71875 
Q 48 40.375 41.703125 38.8125 
Q 48.828125 37.15625 52.796875 32.3125 
Q 56.78125 27.484375 56.78125 20.515625 
Q 56.78125 9.90625 50.3125 4.234375 
Q 43.84375 -1.421875 31.78125 -1.421875 
Q 19.734375 -1.421875 13.25 4.234375 
Q 6.78125 9.90625 6.78125 20.515625 
Q 6.78125 27.484375 10.78125 32.3125 
Q 14.796875 37.15625 21.921875 38.8125 
M 18.3125 54.390625 
Q 18.3125 48.734375 21.84375 45.5625 
Q 25.390625 42.390625 31.78125 42.390625 
Q 38.140625 42.390625 41.71875 45.5625 
Q 45.3125 48.734375 45.3125 54.390625 
Q 45.3125 60.0625 41.71875 63.234375 
Q 38.140625 66.40625 31.78125 66.40625 
Q 25.390625 66.40625 21.84375 63.234375 
Q 18.3125 60.0625 18.3125 54.390625 
" id="BitstreamVeraSans-Roman-38"/>
       <path d="M 10.59375 35.5 
L 73.1875 35.5 
L 73.1875 27.203125 
L 10.59375 27.203125 
z
" id="BitstreamVeraSans-Roman-2212"/>
      </defs>
      <g transform="translate(93.509375 580.03125)scale(0.12 -0.12)">
       <use xlink:href="#BitstreamVeraSans-Roman-2212"/>
       <use x="83.7890625" xlink:href="#BitstreamVeraSans-Roman-38"/>
      </g>
     </g>
    </g>
    <g id="ytick_2">
     <g id="line2d_70">
      <g>
       <use style="stroke:#000000;stroke-width:0.5;" x="115.2" xlink:href="#m2afba74206" y="512.64"/>
      </g>
     </g>
     <g id="line2d_71">
      <g>
       <use style="stroke:#000000;stroke-width:0.5;" x="829.44" xlink:href="#m311b335378" y="512.64"/>
      </g>
     </g>
     <g id="text_6">
      <!-- 7 -->
      <defs>
       <path d="M 8.203125 72.90625 
L 55.078125 72.90625 
L 55.078125 68.703125 
L 28.609375 0 
L 18.3125 0 
L 43.21875 64.59375 
L 8.203125 64.59375 
z
" id="BitstreamVeraSans-Roman-37"/>
      </defs>
      <g transform="translate(93.509375 515.95125)scale(0.12 -0.12)">
       <use xlink:href="#BitstreamVeraSans-Roman-2212"/>
       <use x="83.7890625" xlink:href="#BitstreamVeraSans-Roman-37"/>
      </g>
     </g>
    </g>
    <g id="ytick_3">
     <g id="line2d_72">
      <g>
       <use style="stroke:#000000;stroke-width:0.5;" x="115.2" xlink:href="#m2afba74206" y="448.56"/>
      </g>
     </g>
     <g id="line2d_73">
      <g>
       <use style="stroke:#000000;stroke-width:0.5;" x="829.44" xlink:href="#m311b335378" y="448.56"/>
      </g>
     </g>
     <g id="text_7">
      <!-- 6 -->
      <defs>
       <path d="M 33.015625 40.375 
Q 26.375 40.375 22.484375 35.828125 
Q 18.609375 31.296875 18.609375 23.390625 
Q 18.609375 15.53125 22.484375 10.953125 
Q 26.375 6.390625 33.015625 6.390625 
Q 39.65625 6.390625 43.53125 10.953125 
Q 47.40625 15.53125 47.40625 23.390625 
Q 47.40625 31.296875 43.53125 35.828125 
Q 39.65625 40.375 33.015625 40.375 
M 52.59375 71.296875 
L 52.59375 62.3125 
Q 48.875 64.0625 45.09375 64.984375 
Q 41.3125 65.921875 37.59375 65.921875 
Q 27.828125 65.921875 22.671875 59.328125 
Q 17.53125 52.734375 16.796875 39.40625 
Q 19.671875 43.65625 24.015625 45.921875 
Q 28.375 48.1875 33.59375 48.1875 
Q 44.578125 48.1875 50.953125 41.515625 
Q 57.328125 34.859375 57.328125 23.390625 
Q 57.328125 12.15625 50.6875 5.359375 
Q 44.046875 -1.421875 33.015625 -1.421875 
Q 20.359375 -1.421875 13.671875 8.265625 
Q 6.984375 17.96875 6.984375 36.375 
Q 6.984375 53.65625 15.1875 63.9375 
Q 23.390625 74.21875 37.203125 74.21875 
Q 40.921875 74.21875 44.703125 73.484375 
Q 48.484375 72.75 52.59375 71.296875 
" id="BitstreamVeraSans-Roman-36"/>
      </defs>
      <g transform="translate(93.509375 451.87125)scale(0.12 -0.12)">
       <use xlink:href="#BitstreamVeraSans-Roman-2212"/>
       <use x="83.7890625" xlink:href="#BitstreamVeraSans-Roman-36"/>
      </g>
     </g>
    </g>
    <g id="ytick_4">
     <g id="line2d_74">
      <g>
       <use style="stroke:#000000;stroke-width:0.5;" x="115.2" xlink:href="#m2afba74206" y="384.48"/>
      </g>
     </g>
     <g id="line2d_75">
      <g>
       <use style="stroke:#000000;stroke-width:0.5;" x="829.44" xlink:href="#m311b335378" y="384.48"/>
      </g>
     </g>
     <g id="text_8">
      <!-- 5 -->
      <defs>
       <path d="M 10.796875 72.90625 
L 49.515625 72.90625 
L 49.515625 64.59375 
L 19.828125 64.59375 
L 19.828125 46.734375 
Q 21.96875 47.46875 24.109375 47.828125 
Q 26.265625 48.1875 28.421875 48.1875 
Q 40.625 48.1875 47.75 41.5 
Q 54.890625 34.8125 54.890625 23.390625 
Q 54.890625 11.625 47.5625 5.09375 
Q 40.234375 -1.421875 26.90625 -1.421875 
Q 22.3125 -1.421875 17.546875 -0.640625 
Q 12.796875 0.140625 7.71875 1.703125 
L 7.71875 11.625 
Q 12.109375 9.234375 16.796875 8.0625 
Q 21.484375 6.890625 26.703125 6.890625 
Q 35.15625 6.890625 40.078125 11.328125 
Q 45.015625 15.765625 45.015625 23.390625 
Q 45.015625 31 40.078125 35.4375 
Q 35.15625 39.890625 26.703125 39.890625 
Q 22.75 39.890625 18.8125 39.015625 
Q 14.890625 38.140625 10.796875 36.28125 
z
" id="BitstreamVeraSans-Roman-35"/>
      </defs>
      <g transform="translate(93.509375 387.79125)scale(0.12 -0.12)">
       <use xlink:href="#BitstreamVeraSans-Roman-2212"/>
       <use x="83.7890625" xlink:href="#BitstreamVeraSans-Roman-35"/>
      </g>
     </g>
    </g>
    <g id="ytick_5">
     <g id="line2d_76">
      <g>
       <use style="stroke:#000000;stroke-width:0.5;" x="115.2" xlink:href="#m2afba74206" y="320.4"/>
      </g>
     </g>
     <g id="line2d_77">
      <g>
       <use style="stroke:#000000;stroke-width:0.5;" x="829.44" xlink:href="#m311b335378" y="320.4"/>
      </g>
     </g>
     <g id="text_9">
      <!-- 4 -->
      <defs>
       <path d="M 37.796875 64.3125 
L 12.890625 25.390625 
L 37.796875 25.390625 
z
M 35.203125 72.90625 
L 47.609375 72.90625 
L 47.609375 25.390625 
L 58.015625 25.390625 
L 58.015625 17.1875 
L 47.609375 17.1875 
L 47.609375 0 
L 37.796875 0 
L 37.796875 17.1875 
L 4.890625 17.1875 
L 4.890625 26.703125 
z
" id="BitstreamVeraSans-Roman-34"/>
      </defs>
      <g transform="translate(93.509375 323.71125)scale(0.12 -0.12)">
       <use xlink:href="#BitstreamVeraSans-Roman-2212"/>
       <use x="83.7890625" xlink:href="#BitstreamVeraSans-Roman-34"/>
      </g>
     </g>
    </g>
    <g id="ytick_6">
     <g id="line2d_78">
      <g>
       <use style="stroke:#000000;stroke-width:0.5;" x="115.2" xlink:href="#m2afba74206" y="256.32"/>
      </g>
     </g>
     <g id="line2d_79">
      <g>
       <use style="stroke:#000000;stroke-width:0.5;" x="829.44" xlink:href="#m311b335378" y="256.32"/>
      </g>
     </g>
     <g id="text_10">
      <!-- 3 -->
      <g transform="translate(93.509375 259.63125)scale(0.12 -0.12)">
       <use xlink:href="#BitstreamVeraSans-Roman-2212"/>
       <use x="83.7890625" xlink:href="#BitstreamVeraSans-Roman-33"/>
      </g>
     </g>
    </g>
    <g id="ytick_7">
     <g id="line2d_80">
      <g>
       <use style="stroke:#000000;stroke-width:0.5;" x="115.2" xlink:href="#m2afba74206" y="192.24"/>
      </g>
     </g>
     <g id="line2d_81">
      <g>
       <use style="stroke:#000000;stroke-width:0.5;" x="829.44" xlink:href="#m311b335378" y="192.24"/>
      </g>
     </g>
     <g id="text_11">
      <!-- 2 -->
      <g transform="translate(93.509375 195.55125)scale(0.12 -0.12)">
       <use xlink:href="#BitstreamVeraSans-Roman-2212"/>
       <use x="83.7890625" xlink:href="#BitstreamVeraSans-Roman-32"/>
      </g>
     </g>
    </g>
    <g id="ytick_8">
     <g id="line2d_82">
      <g>
       <use style="stroke:#000000;stroke-width:0.5;" x="115.2" xlink:href="#m2afba74206" y="128.16"/>
      </g>
     </g>
     <g id="line2d_83">
      <g>
       <use style="stroke:#000000;stroke-width:0.5;" x="829.44" xlink:href="#m311b335378" y="128.16"/>
      </g>
     </g>
     <g id="text_12">
      <!-- 1 -->
      <g transform="translate(93.509375 131.47125)scale(0.12 -0.12)">
       <use xlink:href="#BitstreamVeraSans-Roman-2212"/>
       <use x="83.7890625" xlink:href="#BitstreamVeraSans-Roman-31"/>
      </g>
     </g>
    </g>
    <g id="ytick_9">
     <g id="line2d_84">
      <g>
       <use style="stroke:#000000;stroke-width:0.5;" x="115.2" xlink:href="#m2afba74206" y="64.08"/>
      </g>
     </g>
     <g id="line2d_85">
      <g>
       <use style="stroke:#000000;stroke-width:0.5;" x="829.44" xlink:href="#m311b335378" y="64.08"/>
      </g>
     </g>
     <g id="text_13">
      <!-- 0 -->
      <g transform="translate(103.565 67.39125)scale(0.12 -0.12)">
       <use xlink:href="#BitstreamVeraSans-Roman-30"/>
      </g>
     </g>
    </g>
   </g>
   <g id="legend_1">
    <g id="patch_7">
     <path d="M 122.4 569.52 
L 257.98275 569.52 
L 257.98275 332.6985 
L 122.4 332.6985 
z
" style="fill:#ffffff;stroke:#000000;stroke-linejoin:miter;"/>
    </g>
    <g id="line2d_86">
     <path d="M 132.48 344.36025 
L 152.64 344.36025 
" style="fill:none;stroke:#ff1e1e;stroke-linecap:square;"/>
    </g>
    <g id="line2d_87"/>
    <g id="text_14">
     <!-- Std: 0.0 -->
     <defs>
      <path d="M 11.71875 12.40625 
L 22.015625 12.40625 
L 22.015625 0 
L 11.71875 0 
z
M 11.71875 51.703125 
L 22.015625 51.703125 
L 22.015625 39.3125 
L 11.71875 39.3125 
z
" id="BitstreamVeraSans-Roman-3a"/>
      <path id="BitstreamVeraSans-Roman-20"/>
      <path d="M 45.40625 46.390625 
L 45.40625 75.984375 
L 54.390625 75.984375 
L 54.390625 0 
L 45.40625 0 
L 45.40625 8.203125 
Q 42.578125 3.328125 38.25 0.953125 
Q 33.9375 -1.421875 27.875 -1.421875 
Q 17.96875 -1.421875 11.734375 6.484375 
Q 5.515625 14.40625 5.515625 27.296875 
Q 5.515625 40.1875 11.734375 48.09375 
Q 17.96875 56 27.875 56 
Q 33.9375 56 38.25 53.625 
Q 42.578125 51.265625 45.40625 46.390625 
M 14.796875 27.296875 
Q 14.796875 17.390625 18.875 11.75 
Q 22.953125 6.109375 30.078125 6.109375 
Q 37.203125 6.109375 41.296875 11.75 
Q 45.40625 17.390625 45.40625 27.296875 
Q 45.40625 37.203125 41.296875 42.84375 
Q 37.203125 48.484375 30.078125 48.484375 
Q 22.953125 48.484375 18.875 42.84375 
Q 14.796875 37.203125 14.796875 27.296875 
" id="BitstreamVeraSans-Roman-64"/>
      <path d="M 18.3125 70.21875 
L 18.3125 54.6875 
L 36.8125 54.6875 
L 36.8125 47.703125 
L 18.3125 47.703125 
L 18.3125 18.015625 
Q 18.3125 11.328125 20.140625 9.421875 
Q 21.96875 7.515625 27.59375 7.515625 
L 36.8125 7.515625 
L 36.8125 0 
L 27.59375 0 
Q 17.1875 0 13.234375 3.875 
Q 9.28125 7.765625 9.28125 18.015625 
L 9.28125 47.703125 
L 2.6875 47.703125 
L 2.6875 54.6875 
L 9.28125 54.6875 
L 9.28125 70.21875 
z
" id="BitstreamVeraSans-Roman-74"/>
      <path d="M 10.6875 12.40625 
L 21 12.40625 
L 21 0 
L 10.6875 0 
z
" id="BitstreamVeraSans-Roman-2e"/>
      <path d="M 53.515625 70.515625 
L 53.515625 60.890625 
Q 47.90625 63.578125 42.921875 64.890625 
Q 37.9375 66.21875 33.296875 66.21875 
Q 25.25 66.21875 20.875 63.09375 
Q 16.5 59.96875 16.5 54.203125 
Q 16.5 49.359375 19.40625 46.890625 
Q 22.3125 44.4375 30.421875 42.921875 
L 36.375 41.703125 
Q 47.40625 39.59375 52.65625 34.296875 
Q 57.90625 29 57.90625 20.125 
Q 57.90625 9.515625 50.796875 4.046875 
Q 43.703125 -1.421875 29.984375 -1.421875 
Q 24.8125 -1.421875 18.96875 -0.25 
Q 13.140625 0.921875 6.890625 3.21875 
L 6.890625 13.375 
Q 12.890625 10.015625 18.65625 8.296875 
Q 24.421875 6.59375 29.984375 6.59375 
Q 38.421875 6.59375 43.015625 9.90625 
Q 47.609375 13.234375 47.609375 19.390625 
Q 47.609375 24.75 44.3125 27.78125 
Q 41.015625 30.8125 33.5 32.328125 
L 27.484375 33.5 
Q 16.453125 35.6875 11.515625 40.375 
Q 6.59375 45.0625 6.59375 53.421875 
Q 6.59375 63.09375 13.40625 68.65625 
Q 20.21875 74.21875 32.171875 74.21875 
Q 37.3125 74.21875 42.625 73.28125 
Q 47.953125 72.359375 53.515625 70.515625 
" id="BitstreamVeraSans-Roman-53"/>
     </defs>
     <g transform="translate(168.48 349.40025)scale(0.144 -0.144)">
      <use xlink:href="#BitstreamVeraSans-Roman-53"/>
      <use x="63.4765625" xlink:href="#BitstreamVeraSans-Roman-74"/>
      <use x="102.685546875" xlink:href="#BitstreamVeraSans-Roman-64"/>
      <use x="166.162109375" xlink:href="#BitstreamVeraSans-Roman-3a"/>
      <use x="199.853515625" xlink:href="#BitstreamVeraSans-Roman-20"/>
      <use x="231.640625" xlink:href="#BitstreamVeraSans-Roman-30"/>
      <use x="295.263671875" xlink:href="#BitstreamVeraSans-Roman-2e"/>
      <use x="327.05078125" xlink:href="#BitstreamVeraSans-Roman-30"/>
     </g>
    </g>
    <g id="line2d_88">
     <path d="M 132.48 365.49675 
L 152.64 365.49675 
" style="fill:none;stroke:#581845;stroke-linecap:square;"/>
    </g>
    <g id="line2d_89"/>
    <g id="text_15">
     <!-- Std: 100.0 -->
     <g transform="translate(168.48 370.53675)scale(0.144 -0.144)">
      <use xlink:href="#BitstreamVeraSans-Roman-53"/>
      <use x="63.4765625" xlink:href="#BitstreamVeraSans-Roman-74"/>
      <use x="102.685546875" xlink:href="#BitstreamVeraSans-Roman-64"/>
      <use x="166.162109375" xlink:href="#BitstreamVeraSans-Roman-3a"/>
      <use x="199.853515625" xlink:href="#BitstreamVeraSans-Roman-20"/>
      <use x="231.640625" xlink:href="#BitstreamVeraSans-Roman-31"/>
      <use x="295.263671875" xlink:href="#BitstreamVeraSans-Roman-30"/>
      <use x="358.88671875" xlink:href="#BitstreamVeraSans-Roman-30"/>
      <use x="422.509765625" xlink:href="#BitstreamVeraSans-Roman-2e"/>
      <use x="454.296875" xlink:href="#BitstreamVeraSans-Roman-30"/>
     </g>
    </g>
    <g id="line2d_90">
     <path d="M 132.48 386.63325 
L 152.64 386.63325 
" style="fill:none;stroke:#26b7d8;stroke-linecap:square;"/>
    </g>
    <g id="line2d_91"/>
    <g id="text_16">
     <!-- Std: 200.0 -->
     <g transform="translate(168.48 391.67325)scale(0.144 -0.144)">
      <use xlink:href="#BitstreamVeraSans-Roman-53"/>
      <use x="63.4765625" xlink:href="#BitstreamVeraSans-Roman-74"/>
      <use x="102.685546875" xlink:href="#BitstreamVeraSans-Roman-64"/>
      <use x="166.162109375" xlink:href="#BitstreamVeraSans-Roman-3a"/>
      <use x="199.853515625" xlink:href="#BitstreamVeraSans-Roman-20"/>
      <use x="231.640625" xlink:href="#BitstreamVeraSans-Roman-32"/>
      <use x="295.263671875" xlink:href="#BitstreamVeraSans-Roman-30"/>
      <use x="358.88671875" xlink:href="#BitstreamVeraSans-Roman-30"/>
      <use x="422.509765625" xlink:href="#BitstreamVeraSans-Roman-2e"/>
      <use x="454.296875" xlink:href="#BitstreamVeraSans-Roman-30"/>
     </g>
    </g>
    <g id="line2d_92">
     <path d="M 132.48 407.76975 
L 152.64 407.76975 
" style="fill:none;stroke:#8414a4;stroke-linecap:square;"/>
    </g>
    <g id="line2d_93"/>
    <g id="text_17">
     <!-- Std: 300.0 -->
     <g transform="translate(168.48 412.80975)scale(0.144 -0.144)">
      <use xlink:href="#BitstreamVeraSans-Roman-53"/>
      <use x="63.4765625" xlink:href="#BitstreamVeraSans-Roman-74"/>
      <use x="102.685546875" xlink:href="#BitstreamVeraSans-Roman-64"/>
      <use x="166.162109375" xlink:href="#BitstreamVeraSans-Roman-3a"/>
      <use x="199.853515625" xlink:href="#BitstreamVeraSans-Roman-20"/>
      <use x="231.640625" xlink:href="#BitstreamVeraSans-Roman-33"/>
      <use x="295.263671875" xlink:href="#BitstreamVeraSans-Roman-30"/>
      <use x="358.88671875" xlink:href="#BitstreamVeraSans-Roman-30"/>
      <use x="422.509765625" xlink:href="#BitstreamVeraSans-Roman-2e"/>
      <use x="454.296875" xlink:href="#BitstreamVeraSans-Roman-30"/>
     </g>
    </g>
    <g id="line2d_94">
     <path d="M 132.48 428.90625 
L 152.64 428.90625 
" style="fill:none;stroke:#ffd23a;stroke-linecap:square;"/>
    </g>
    <g id="line2d_95"/>
    <g id="text_18">
     <!-- Std: 400.0 -->
     <g transform="translate(168.48 433.94625)scale(0.144 -0.144)">
      <use xlink:href="#BitstreamVeraSans-Roman-53"/>
      <use x="63.4765625" xlink:href="#BitstreamVeraSans-Roman-74"/>
      <use x="102.685546875" xlink:href="#BitstreamVeraSans-Roman-64"/>
      <use x="166.162109375" xlink:href="#BitstreamVeraSans-Roman-3a"/>
      <use x="199.853515625" xlink:href="#BitstreamVeraSans-Roman-20"/>
      <use x="231.640625" xlink:href="#BitstreamVeraSans-Roman-34"/>
      <use x="295.263671875" xlink:href="#BitstreamVeraSans-Roman-30"/>
      <use x="358.88671875" xlink:href="#BitstreamVeraSans-Roman-30"/>
      <use x="422.509765625" xlink:href="#BitstreamVeraSans-Roman-2e"/>
      <use x="454.296875" xlink:href="#BitstreamVeraSans-Roman-30"/>
     </g>
    </g>
    <g id="line2d_96">
     <path d="M 132.48 450.04275 
L 152.64 450.04275 
" style="fill:none;stroke:#ff9300;stroke-linecap:square;"/>
    </g>
    <g id="line2d_97"/>
    <g id="text_19">
     <!-- Std: 500.0 -->
     <g transform="translate(168.48 455.08275)scale(0.144 -0.144)">
      <use xlink:href="#BitstreamVeraSans-Roman-53"/>
      <use x="63.4765625" xlink:href="#BitstreamVeraSans-Roman-74"/>
      <use x="102.685546875" xlink:href="#BitstreamVeraSans-Roman-64"/>
      <use x="166.162109375" xlink:href="#BitstreamVeraSans-Roman-3a"/>
      <use x="199.853515625" xlink:href="#BitstreamVeraSans-Roman-20"/>
      <use x="231.640625" xlink:href="#BitstreamVeraSans-Roman-35"/>
      <use x="295.263671875" xlink:href="#BitstreamVeraSans-Roman-30"/>
      <use x="358.88671875" xlink:href="#BitstreamVeraSans-Roman-30"/>
      <use x="422.509765625" xlink:href="#BitstreamVeraSans-Roman-2e"/>
      <use x="454.296875" xlink:href="#BitstreamVeraSans-Roman-30"/>
     </g>
    </g>
    <g id="line2d_98">
     <path d="M 132.48 471.17925 
L 152.64 471.17925 
" style="fill:none;stroke:#f50fe6;stroke-linecap:square;"/>
    </g>
    <g id="line2d_99"/>
    <g id="text_20">
     <!-- Std: 600.0 -->
     <g transform="translate(168.48 476.21925)scale(0.144 -0.144)">
      <use xlink:href="#BitstreamVeraSans-Roman-53"/>
      <use x="63.4765625" xlink:href="#BitstreamVeraSans-Roman-74"/>
      <use x="102.685546875" xlink:href="#BitstreamVeraSans-Roman-64"/>
      <use x="166.162109375" xlink:href="#BitstreamVeraSans-Roman-3a"/>
      <use x="199.853515625" xlink:href="#BitstreamVeraSans-Roman-20"/>
      <use x="231.640625" xlink:href="#BitstreamVeraSans-Roman-36"/>
      <use x="295.263671875" xlink:href="#BitstreamVeraSans-Roman-30"/>
      <use x="358.88671875" xlink:href="#BitstreamVeraSans-Roman-30"/>
      <use x="422.509765625" xlink:href="#BitstreamVeraSans-Roman-2e"/>
      <use x="454.296875" xlink:href="#BitstreamVeraSans-Roman-30"/>
     </g>
    </g>
    <g id="line2d_100">
     <path d="M 132.48 492.31575 
L 152.64 492.31575 
" style="fill:none;stroke:#1000a0;stroke-linecap:square;"/>
    </g>
    <g id="line2d_101"/>
    <g id="text_21">
     <!-- Std: 700.0 -->
     <g transform="translate(168.48 497.35575)scale(0.144 -0.144)">
      <use xlink:href="#BitstreamVeraSans-Roman-53"/>
      <use x="63.4765625" xlink:href="#BitstreamVeraSans-Roman-74"/>
      <use x="102.685546875" xlink:href="#BitstreamVeraSans-Roman-64"/>
      <use x="166.162109375" xlink:href="#BitstreamVeraSans-Roman-3a"/>
      <use x="199.853515625" xlink:href="#BitstreamVeraSans-Roman-20"/>
      <use x="231.640625" xlink:href="#BitstreamVeraSans-Roman-37"/>
      <use x="295.263671875" xlink:href="#BitstreamVeraSans-Roman-30"/>
      <use x="358.88671875" xlink:href="#BitstreamVeraSans-Roman-30"/>
      <use x="422.509765625" xlink:href="#BitstreamVeraSans-Roman-2e"/>
      <use x="454.296875" xlink:href="#BitstreamVeraSans-Roman-30"/>
     </g>
    </g>
    <g id="line2d_102">
     <path d="M 132.48 513.45225 
L 152.64 513.45225 
" style="fill:none;stroke:#595866;stroke-linecap:square;"/>
    </g>
    <g id="line2d_103"/>
    <g id="text_22">
     <!-- Std: 800.0 -->
     <g transform="translate(168.48 518.49225)scale(0.144 -0.144)">
      <use xlink:href="#BitstreamVeraSans-Roman-53"/>
      <use x="63.4765625" xlink:href="#BitstreamVeraSans-Roman-74"/>
      <use x="102.685546875" xlink:href="#BitstreamVeraSans-Roman-64"/>
      <use x="166.162109375" xlink:href="#BitstreamVeraSans-Roman-3a"/>
      <use x="199.853515625" xlink:href="#BitstreamVeraSans-Roman-20"/>
      <use x="231.640625" xlink:href="#BitstreamVeraSans-Roman-38"/>
      <use x="295.263671875" xlink:href="#BitstreamVeraSans-Roman-30"/>
      <use x="358.88671875" xlink:href="#BitstreamVeraSans-Roman-30"/>
      <use x="422.509765625" xlink:href="#BitstreamVeraSans-Roman-2e"/>
      <use x="454.296875" xlink:href="#BitstreamVeraSans-Roman-30"/>
     </g>
    </g>
    <g id="line2d_104">
     <path d="M 132.48 534.58875 
L 152.64 534.58875 
" style="fill:none;stroke:#147f2a;stroke-linecap:square;"/>
    </g>
    <g id="line2d_105"/>
    <g id="text_23">
     <!-- Std: 900.0 -->
     <defs>
      <path d="M 10.984375 1.515625 
L 10.984375 10.5 
Q 14.703125 8.734375 18.5 7.8125 
Q 22.3125 6.890625 25.984375 6.890625 
Q 35.75 6.890625 40.890625 13.453125 
Q 46.046875 20.015625 46.78125 33.40625 
Q 43.953125 29.203125 39.59375 26.953125 
Q 35.25 24.703125 29.984375 24.703125 
Q 19.046875 24.703125 12.671875 31.3125 
Q 6.296875 37.9375 6.296875 49.421875 
Q 6.296875 60.640625 12.9375 67.421875 
Q 19.578125 74.21875 30.609375 74.21875 
Q 43.265625 74.21875 49.921875 64.515625 
Q 56.59375 54.828125 56.59375 36.375 
Q 56.59375 19.140625 48.40625 8.859375 
Q 40.234375 -1.421875 26.421875 -1.421875 
Q 22.703125 -1.421875 18.890625 -0.6875 
Q 15.09375 0.046875 10.984375 1.515625 
M 30.609375 32.421875 
Q 37.25 32.421875 41.125 36.953125 
Q 45.015625 41.5 45.015625 49.421875 
Q 45.015625 57.28125 41.125 61.84375 
Q 37.25 66.40625 30.609375 66.40625 
Q 23.96875 66.40625 20.09375 61.84375 
Q 16.21875 57.28125 16.21875 49.421875 
Q 16.21875 41.5 20.09375 36.953125 
Q 23.96875 32.421875 30.609375 32.421875 
" id="BitstreamVeraSans-Roman-39"/>
     </defs>
     <g transform="translate(168.48 539.62875)scale(0.144 -0.144)">
      <use xlink:href="#BitstreamVeraSans-Roman-53"/>
      <use x="63.4765625" xlink:href="#BitstreamVeraSans-Roman-74"/>
      <use x="102.685546875" xlink:href="#BitstreamVeraSans-Roman-64"/>
      <use x="166.162109375" xlink:href="#BitstreamVeraSans-Roman-3a"/>
      <use x="199.853515625" xlink:href="#BitstreamVeraSans-Roman-20"/>
      <use x="231.640625" xlink:href="#BitstreamVeraSans-Roman-39"/>
      <use x="295.263671875" xlink:href="#BitstreamVeraSans-Roman-30"/>
      <use x="358.88671875" xlink:href="#BitstreamVeraSans-Roman-30"/>
      <use x="422.509765625" xlink:href="#BitstreamVeraSans-Roman-2e"/>
      <use x="454.296875" xlink:href="#BitstreamVeraSans-Roman-30"/>
     </g>
    </g>
    <g id="line2d_106">
     <path d="M 132.48 555.72525 
L 152.64 555.72525 
" style="fill:none;stroke:#00f6aa;stroke-linecap:square;"/>
    </g>
    <g id="line2d_107"/>
    <g id="text_24">
     <!-- Std: 1000.0 -->
     <g transform="translate(168.48 560.76525)scale(0.144 -0.144)">
      <use xlink:href="#BitstreamVeraSans-Roman-53"/>
      <use x="63.4765625" xlink:href="#BitstreamVeraSans-Roman-74"/>
      <use x="102.685546875" xlink:href="#BitstreamVeraSans-Roman-64"/>
      <use x="166.162109375" xlink:href="#BitstreamVeraSans-Roman-3a"/>
      <use x="199.853515625" xlink:href="#BitstreamVeraSans-Roman-20"/>
      <use x="231.640625" xlink:href="#BitstreamVeraSans-Roman-31"/>
      <use x="295.263671875" xlink:href="#BitstreamVeraSans-Roman-30"/>
      <use x="358.88671875" xlink:href="#BitstreamVeraSans-Roman-30"/>
      <use x="422.509765625" xlink:href="#BitstreamVeraSans-Roman-30"/>
      <use x="486.1328125" xlink:href="#BitstreamVeraSans-Roman-2e"/>
      <use x="517.919921875" xlink:href="#BitstreamVeraSans-Roman-30"/>
     </g>
    </g>
   </g>
  </g>
 </g>
 <defs>
  <clipPath id="pe5bbf01f8e">
   <rect height="512.64" width="714.24" x="115.2" y="64.08"/>
  </clipPath>
 </defs>
</svg>
