<?xml version="1.0" encoding="utf-8" standalone="no"?>
<!DOCTYPE svg PUBLIC "-//W3C//DTD SVG 1.1//EN"
  "http://www.w3.org/Graphics/SVG/1.1/DTD/svg11.dtd">
<!-- Created with matplotlib (http://matplotlib.org/) -->
<svg height="432pt" version="1.1" viewBox="0 0 576 432" width="576pt" xmlns="http://www.w3.org/2000/svg" xmlns:xlink="http://www.w3.org/1999/xlink">
 <defs>
  <style type="text/css">
*{stroke-linecap:butt;stroke-linejoin:round;stroke-miterlimit:100000;}
  </style>
 </defs>
 <g id="figure_1">
  <g id="patch_1">
   <path d="M 0 432 
L 576 432 
L 576 0 
L 0 0 
z
" style="fill:#ffffff;"/>
  </g>
  <g id="axes_1">
   <g id="patch_2">
    <path d="M 72 388.8 
L 518.4 388.8 
L 518.4 43.2 
L 72 43.2 
z
" style="fill:#ffffff;"/>
   </g>
   <g id="line2d_1">
    <path clip-path="url(#pd74f4d3f4d)" d="M 72 81.331816 
L 82.696043 82.050747 
L 91.87059 81.598249 
L 99.903083 79.768955 
L 107.046633 82.193574 
L 113.478536 83.050001 
L 119.327824 79.879007 
L 124.691336 79.727823 
L 129.643606 81.370449 
L 134.243232 76.290691 
L 138.537115 81.562251 
L 142.56338 79.013072 
L 146.353438 81.336626 
L 149.933474 80.942863 
L 153.325548 78.870056 
L 156.548417 76.011764 
L 159.618161 87.783042 
L 162.548674 81.005492 
L 165.352039 79.287452 
L 168.038834 76.735337 
L 170.618365 73.826733 
L 173.098871 80.929112 
L 175.487673 86.172826 
L 177.791312 81.597026 
L 180.015651 79.446695 
L 182.165968 78.488728 
L 184.247032 76.594749 
L 186.263165 73.424873 
L 188.218296 69.372696 
L 190.116009 73.020458 
L 191.95958 78.593263 
L 193.752013 89.135034 
L 195.496068 89.603161 
L 197.194289 84.252958 
L 198.849023 81.57078 
L 200.462442 80.127561 
L 202.036558 76.526366 
L 203.573241 78.668825 
L 205.07423 76.936268 
L 206.541146 75.823869 
L 209.37871 71.845733 
L 210.752096 68.718418 
L 212.096901 61.03797 
L 213.41429 62.201869 
L 220.8 79.485475 
L 231.496043 81.681169 
L 240.67059 73.977933 
L 248.703083 62.697525 
L 255.846633 43.2 
L 273.491336 43.200001 
L 278.443606 69.769208 
L 287.337115 153.234381 
L 291.36338 143.411959 
L 295.153438 125.394669 
L 298.733474 106.761515 
L 302.125548 92.16251 
L 305.348417 71.43693 
L 308.418161 43.200002 
L 314.152039 43.200003 
L 316.838834 85.790135 
L 321.898871 139.594451 
L 324.287673 185.880547 
L 326.591312 175.43293 
L 328.815651 138.709702 
L 333.047032 92.453353 
L 335.063165 43.200005 
L 337.018296 43.200006 
L 338.916009 46.937238 
L 340.75958 93.954215 
L 342.552013 114.747563 
L 344.296068 133.353429 
L 345.994289 155.714248 
L 347.649023 189.337854 
L 349.262442 178.193524 
L 350.836558 142.020215 
L 352.373241 114.161184 
L 353.87423 76.030583 
L 355.341146 43.20001 
L 356.775501 69.393105 
L 358.17871 101.515906 
L 359.552096 119.299135 
L 360.896901 134.079955 
L 362.21429 150.249188 
L 369.6 43.2 
L 380.296043 123.834463 
L 389.47059 182.186715 
L 397.503083 183.981978 
L 404.646633 182.493997 
L 411.078536 186.191038 
L 416.927824 185.71665 
L 422.291336 173.425523 
L 427.243606 153.5951 
L 431.843232 123.79433 
L 436.137115 43.2 
L 440.16338 134.515163 
L 443.953438 170.65788 
L 447.533474 212.652233 
L 450.925548 271.06238 
L 454.148417 205.98207 
L 457.218161 185.115641 
L 462.952039 155.986907 
L 465.638834 132.998841 
L 468.218365 43.2 
L 470.698871 163.956022 
L 473.087673 227.382164 
L 475.391312 229.830514 
L 477.615651 204.120456 
L 479.765968 195.121861 
L 481.847032 188.379947 
L 485.818296 179.393059 
L 487.716009 172.68689 
L 489.55958 110.716061 
L 491.352013 209.687603 
L 493.096068 198.127752 
L 496.449023 201.207664 
L 498.062442 207.156106 
L 499.636558 218.363421 
L 501.173241 246.495875 
L 502.67423 245.286622 
L 504.141146 175.23771 
L 505.575501 43.200095 
L 506.97871 158.661803 
L 508.352096 181.189685 
L 509.696901 197.76846 
L 511.01429 218.915691 
L 512.305359 254.784347 
L 513.571139 244.435793 
L 514.812601 208.348122 
L 516.030663 179.968716 
L 517.226189 147.29911 
L 517.226189 147.29911 
" style="fill:none;stroke:#ff1e1e;stroke-linecap:square;"/>
   </g>
   <g id="line2d_2">
    <path clip-path="url(#pd74f4d3f4d)" d="M 72 85.92304 
L 82.696043 84.763937 
L 91.87059 84.922684 
L 99.903083 83.906196 
L 107.046633 84.736681 
L 113.478536 84.050002 
L 119.327824 84.539537 
L 124.691336 83.722696 
L 129.643606 84.974599 
L 134.243232 84.154874 
L 138.537115 84.241898 
L 142.56338 83.873996 
L 146.353438 84.631755 
L 149.933474 83.890645 
L 153.325548 84.062475 
L 156.548417 84.79319 
L 159.618161 83.504326 
L 162.548674 84.369207 
L 165.352039 83.806818 
L 168.038834 84.799484 
L 170.618365 82.653225 
L 173.098871 83.117319 
L 175.487673 84.243298 
L 177.791312 84.055023 
L 180.015651 82.737041 
L 182.165968 84.605351 
L 184.247032 82.28154 
L 186.263165 83.277424 
L 188.218296 83.528846 
L 190.116009 83.579656 
L 191.95958 83.484999 
L 193.752013 83.912246 
L 195.496068 83.380143 
L 197.194289 83.87167 
L 198.849023 83.33677 
L 200.462442 84.145763 
L 202.036558 83.626539 
L 203.573241 82.631278 
L 205.07423 84.00238 
L 207.975501 81.992455 
L 209.37871 81.928626 
L 210.752096 81.987463 
L 212.096901 82.777836 
L 213.41429 81.936458 
L 220.8 82.906389 
L 231.496043 81.669512 
L 240.67059 79.00764 
L 248.703083 77.172119 
L 255.846633 76.055182 
L 262.278536 73.27538 
L 268.127824 72.72213 
L 273.491336 76.506682 
L 278.443606 77.200586 
L 291.36338 93.968577 
L 295.153438 98.577044 
L 302.125548 105.962038 
L 311.348674 108.319391 
L 314.152039 111.351525 
L 316.838834 112.434254 
L 319.418365 110.70633 
L 321.898871 110.257976 
L 324.287673 110.775805 
L 326.591312 114.495836 
L 328.815651 116.033697 
L 330.965968 116.929123 
L 333.047032 111.835864 
L 335.063165 116.912818 
L 337.018296 111.810649 
L 338.916009 125.198912 
L 340.75958 119.332921 
L 342.552013 116.505764 
L 344.296068 122.095818 
L 345.994289 121.608084 
L 347.649023 124.633257 
L 349.262442 125.35819 
L 350.836558 123.135641 
L 352.373241 126.068253 
L 353.87423 131.655786 
L 355.341146 129.745919 
L 356.775501 132.726864 
L 358.17871 140.052275 
L 359.552096 129.301111 
L 360.896901 134.110822 
L 362.21429 132.393071 
L 369.6 134.213364 
L 380.296043 148.217653 
L 389.47059 138.929189 
L 397.503083 143.78531 
L 404.646633 145.04418 
L 411.078536 136.456392 
L 416.927824 147.264074 
L 422.291336 137.626849 
L 427.243606 162.84521 
L 431.843232 170.175626 
L 436.137115 161.968889 
L 440.16338 160.822368 
L 443.953438 180.22093 
L 447.533474 188.384573 
L 450.925548 163.299303 
L 454.148417 176.974633 
L 457.218161 192.045732 
L 460.148674 168.35037 
L 462.952039 203.038748 
L 465.638834 175.123555 
L 468.218365 166.523037 
L 470.698871 171.969106 
L 473.087673 211.382793 
L 475.391312 186.087378 
L 477.615651 159.239997 
L 479.765968 171.024591 
L 481.847032 169.321555 
L 483.863165 174.489266 
L 485.818296 183.756902 
L 487.716009 194.849411 
L 489.55958 218.140223 
L 491.352013 226.921934 
L 493.096068 211.939505 
L 494.794289 170.081843 
L 496.449023 171.100065 
L 498.062442 185.789249 
L 499.636558 221.529016 
L 501.173241 179.523997 
L 502.67423 225.487238 
L 504.141146 179.713723 
L 505.575501 187.629481 
L 506.97871 232.608943 
L 509.696901 166.159606 
L 511.01429 220.693804 
L 512.305359 216.55424 
L 513.571139 185.584006 
L 514.812601 193.759549 
L 516.030663 179.889902 
L 517.226189 185.722923 
L 517.226189 185.722923 
" style="fill:none;stroke:#581845;stroke-linecap:square;"/>
   </g>
   <g id="line2d_3">
    <path clip-path="url(#pd74f4d3f4d)" d="M 72 90.943972 
L 82.696043 91.189846 
L 91.87059 92.493475 
L 99.903083 91.138946 
L 107.046633 90.923944 
L 113.478536 91.31934 
L 119.327824 91.025983 
L 124.691336 92.004934 
L 129.643606 90.213102 
L 134.243232 91.206344 
L 138.537115 92.279314 
L 142.56338 90.731697 
L 146.353438 91.838086 
L 149.933474 89.836039 
L 153.325548 93.231154 
L 156.548417 92.140536 
L 159.618161 92.129237 
L 162.548674 93.167541 
L 165.352039 92.562635 
L 168.038834 91.830728 
L 170.618365 92.711938 
L 173.098871 93.104187 
L 175.487673 92.844692 
L 177.791312 90.996034 
L 180.015651 91.542976 
L 182.165968 91.475707 
L 184.247032 92.790763 
L 186.263165 92.069425 
L 188.218296 91.678787 
L 190.116009 90.266984 
L 191.95958 92.168282 
L 193.752013 91.667431 
L 195.496068 92.304949 
L 197.194289 93.531785 
L 198.849023 92.115556 
L 200.462442 93.606729 
L 202.036558 92.089886 
L 203.573241 91.638582 
L 205.07423 92.210726 
L 206.541146 93.328416 
L 207.975501 92.140512 
L 209.37871 92.118377 
L 210.752096 93.031743 
L 212.096901 92.233471 
L 213.41429 92.071083 
L 220.8 92.242323 
L 231.496043 95.339995 
L 240.67059 93.410195 
L 248.703083 93.348788 
L 255.846633 94.198422 
L 262.278536 91.053617 
L 268.127824 93.592682 
L 273.491336 94.033012 
L 278.443606 92.515335 
L 283.043232 93.411915 
L 287.337115 93.671203 
L 291.36338 98.127394 
L 295.153438 97.450145 
L 298.733474 97.498029 
L 302.125548 97.704268 
L 305.348417 102.647183 
L 308.418161 105.307962 
L 311.348674 103.912046 
L 314.152039 108.263207 
L 316.838834 111.215235 
L 319.418365 113.471172 
L 321.898871 114.647338 
L 324.287673 117.338261 
L 326.591312 116.852674 
L 328.815651 117.225709 
L 330.965968 120.429958 
L 333.047032 126.18067 
L 335.063165 126.19861 
L 337.018296 124.007648 
L 338.916009 121.628212 
L 340.75958 134.727674 
L 342.552013 120.751013 
L 344.296068 125.650492 
L 345.994289 132.74031 
L 347.649023 128.598178 
L 349.262442 128.258524 
L 350.836558 122.670765 
L 352.373241 127.422568 
L 353.87423 125.176293 
L 355.341146 130.741515 
L 356.775501 137.675427 
L 358.17871 126.7188 
L 359.552096 128.314762 
L 360.896901 128.411373 
L 362.21429 134.868054 
L 369.6 137.612295 
L 380.296043 138.478404 
L 389.47059 145.071159 
L 397.503083 155.70693 
L 404.646633 156.532739 
L 411.078536 147.519317 
L 416.927824 146.061111 
L 422.291336 153.649612 
L 427.243606 155.423905 
L 431.843232 160.617804 
L 436.137115 190.713075 
L 440.16338 158.920349 
L 443.953438 158.924128 
L 447.533474 232.027277 
L 450.925548 172.807162 
L 454.148417 159.53869 
L 457.218161 169.645414 
L 460.148674 193.440408 
L 462.952039 185.331935 
L 465.638834 192.290001 
L 468.218365 172.328675 
L 470.698871 186.492828 
L 473.087673 183.683584 
L 475.391312 192.881442 
L 477.615651 174.274326 
L 479.765968 193.8542 
L 481.847032 202.794433 
L 483.863165 204.377074 
L 485.818296 179.326182 
L 487.716009 190.095158 
L 489.55958 175.737723 
L 491.352013 214.85829 
L 493.096068 206.348504 
L 494.794289 176.694739 
L 496.449023 204.372699 
L 498.062442 214.616142 
L 499.636558 193.759333 
L 501.173241 200.301571 
L 502.67423 163.894766 
L 504.141146 173.686529 
L 505.575501 191.885476 
L 506.97871 197.695674 
L 508.352096 199.821006 
L 509.696901 186.615346 
L 511.01429 193.307905 
L 512.305359 185.451967 
L 513.571139 192.189344 
L 514.812601 188.990283 
L 516.030663 198.85343 
L 517.226189 183.321519 
L 517.226189 183.321519 
" style="fill:none;stroke:#26b7d8;stroke-linecap:square;"/>
   </g>
   <g id="line2d_4">
    <path clip-path="url(#pd74f4d3f4d)" d="M 72 98.958875 
L 82.696043 99.662888 
L 91.87059 98.159658 
L 99.903083 98.281819 
L 107.046633 98.838888 
L 113.478536 102.895023 
L 119.327824 98.118057 
L 124.691336 101.464432 
L 129.643606 99.672225 
L 134.243232 99.815018 
L 138.537115 103.006434 
L 142.56338 100.89845 
L 146.353438 98.241353 
L 149.933474 96.452083 
L 153.325548 97.587435 
L 156.548417 103.880439 
L 159.618161 102.085796 
L 162.548674 101.099963 
L 165.352039 96.830721 
L 168.038834 100.858226 
L 170.618365 104.371221 
L 173.098871 101.203214 
L 175.487673 101.959021 
L 180.015651 99.893913 
L 182.165968 99.490191 
L 184.247032 100.067907 
L 186.263165 101.05238 
L 188.218296 101.844742 
L 190.116009 101.5402 
L 191.95958 99.660905 
L 193.752013 101.056734 
L 195.496068 103.340317 
L 197.194289 103.431436 
L 198.849023 100.939353 
L 200.462442 105.656687 
L 202.036558 100.899752 
L 203.573241 106.107772 
L 205.07423 102.962469 
L 206.541146 101.391994 
L 207.975501 100.481038 
L 209.37871 102.561017 
L 210.752096 99.714123 
L 212.096901 100.838927 
L 213.41429 102.385235 
L 220.8 104.31304 
L 231.496043 105.774827 
L 240.67059 104.207101 
L 248.703083 103.923969 
L 255.846633 103.840634 
L 262.278536 105.368613 
L 268.127824 107.633728 
L 273.491336 106.354013 
L 278.443606 105.87549 
L 283.043232 106.072754 
L 287.337115 104.564675 
L 291.36338 104.459386 
L 295.153438 106.799479 
L 298.733474 107.641317 
L 302.125548 108.784516 
L 305.348417 107.464583 
L 308.418161 108.488185 
L 311.348674 108.071179 
L 314.152039 111.536746 
L 316.838834 112.47399 
L 319.418365 111.516238 
L 321.898871 111.986067 
L 324.287673 121.349634 
L 326.591312 117.483999 
L 328.815651 116.665359 
L 330.965968 121.483273 
L 333.047032 121.964878 
L 335.063165 120.029684 
L 337.018296 128.986454 
L 338.916009 128.827355 
L 340.75958 130.721043 
L 342.552013 128.215995 
L 344.296068 131.469006 
L 345.994289 135.450348 
L 347.649023 134.564559 
L 349.262442 129.329452 
L 350.836558 158.127235 
L 352.373241 133.070097 
L 353.87423 130.947864 
L 355.341146 132.286991 
L 356.775501 129.286248 
L 358.17871 129.791414 
L 359.552096 137.808758 
L 360.896901 137.992546 
L 362.21429 146.732329 
L 369.6 134.066951 
L 380.296043 134.658727 
L 389.47059 155.547186 
L 397.503083 150.076356 
L 404.646633 146.636771 
L 411.078536 147.997124 
L 416.927824 149.706798 
L 422.291336 154.113797 
L 427.243606 150.871301 
L 431.843232 179.625586 
L 436.137115 191.91416 
L 440.16338 140.162406 
L 443.953438 168.713983 
L 447.533474 160.372629 
L 450.925548 177.048171 
L 454.148417 183.096837 
L 457.218161 160.752229 
L 460.148674 170.247941 
L 462.952039 170.972098 
L 465.638834 229.718666 
L 468.218365 185.435699 
L 470.698871 184.129196 
L 473.087673 180.488641 
L 475.391312 162.129525 
L 477.615651 181.783017 
L 479.765968 172.386791 
L 481.847032 194.311835 
L 483.863165 170.625518 
L 485.818296 157.908135 
L 487.716009 167.211521 
L 489.55958 189.20734 
L 491.352013 195.840405 
L 493.096068 193.760201 
L 494.794289 184.754242 
L 496.449023 191.235704 
L 498.062442 198.428519 
L 499.636558 217.18172 
L 501.173241 179.450325 
L 502.67423 193.801365 
L 504.141146 243.394189 
L 505.575501 211.937221 
L 506.97871 184.331664 
L 508.352096 207.441662 
L 509.696901 194.325944 
L 511.01429 202.643338 
L 512.305359 190.7512 
L 513.571139 164.707405 
L 514.812601 194.249937 
L 516.030663 197.270215 
L 517.226189 189.812622 
L 517.226189 189.812622 
" style="fill:none;stroke:#8414a4;stroke-linecap:square;"/>
   </g>
   <g id="line2d_5">
    <path clip-path="url(#pd74f4d3f4d)" d="M 72 110.110707 
L 82.696043 105.704864 
L 91.87059 110.713743 
L 99.903083 106.699747 
L 107.046633 105.693624 
L 113.478536 108.676591 
L 119.327824 106.98716 
L 124.691336 107.804146 
L 129.643606 103.874767 
L 134.243232 105.087026 
L 138.537115 107.428366 
L 142.56338 109.097108 
L 146.353438 105.302678 
L 149.933474 102.5902 
L 153.325548 104.311555 
L 156.548417 106.874823 
L 159.618161 107.592023 
L 162.548674 106.117618 
L 165.352039 106.011461 
L 168.038834 107.965157 
L 170.618365 111.554209 
L 173.098871 107.362373 
L 175.487673 109.626426 
L 177.791312 104.432572 
L 180.015651 107.954941 
L 182.165968 109.820427 
L 184.247032 110.116676 
L 186.263165 111.764819 
L 188.218296 109.093902 
L 190.116009 107.042306 
L 191.95958 108.325521 
L 193.752013 106.976771 
L 195.496068 106.237741 
L 197.194289 109.071853 
L 198.849023 104.74211 
L 200.462442 111.266291 
L 202.036558 110.290338 
L 203.573241 109.96386 
L 205.07423 108.534731 
L 206.541146 106.281719 
L 207.975501 110.859388 
L 209.37871 109.51768 
L 210.752096 111.802575 
L 212.096901 108.823651 
L 213.41429 110.620623 
L 220.8 107.871906 
L 231.496043 109.125581 
L 240.67059 112.735724 
L 248.703083 115.125998 
L 255.846633 113.041703 
L 262.278536 115.277499 
L 268.127824 119.638548 
L 273.491336 109.432226 
L 278.443606 117.580498 
L 283.043232 115.751848 
L 287.337115 120.360343 
L 291.36338 121.611667 
L 295.153438 115.919138 
L 298.733474 115.285354 
L 302.125548 113.927146 
L 305.348417 117.620278 
L 308.418161 112.962382 
L 311.348674 111.28999 
L 314.152039 111.259389 
L 316.838834 115.442361 
L 319.418365 115.068893 
L 321.898871 119.865172 
L 324.287673 120.63247 
L 326.591312 117.429443 
L 328.815651 121.965472 
L 330.965968 119.175101 
L 333.047032 118.586602 
L 335.063165 125.468691 
L 337.018296 131.462078 
L 338.916009 123.891396 
L 340.75958 120.919907 
L 342.552013 123.421982 
L 344.296068 135.982181 
L 345.994289 136.712997 
L 347.649023 133.555743 
L 349.262442 129.109573 
L 350.836558 133.52065 
L 352.373241 152.428108 
L 353.87423 147.519375 
L 355.341146 143.134609 
L 356.775501 136.467812 
L 358.17871 135.424822 
L 360.896901 148.242575 
L 362.21429 135.657497 
L 369.6 139.372527 
L 380.296043 144.937056 
L 389.47059 155.928282 
L 397.503083 148.54787 
L 404.646633 162.885101 
L 411.078536 180.55112 
L 416.927824 152.172575 
L 422.291336 163.099445 
L 427.243606 153.966347 
L 431.843232 166.46561 
L 436.137115 155.663226 
L 440.16338 173.199585 
L 443.953438 160.929479 
L 447.533474 148.178844 
L 450.925548 162.985034 
L 454.148417 167.724425 
L 457.218161 196.388861 
L 460.148674 160.67897 
L 462.952039 252.598791 
L 465.638834 164.094335 
L 468.218365 181.200935 
L 470.698871 205.902945 
L 473.087673 176.208133 
L 475.391312 195.434498 
L 477.615651 184.963567 
L 479.765968 178.335825 
L 481.847032 180.629448 
L 483.863165 280.983719 
L 485.818296 194.235296 
L 487.716009 191.119961 
L 489.55958 202.758972 
L 491.352013 188.185354 
L 493.096068 183.267244 
L 494.794289 210.7543 
L 496.449023 195.307707 
L 498.062442 207.488059 
L 499.636558 234.208634 
L 501.173241 181.992975 
L 502.67423 198.099021 
L 504.141146 192.587066 
L 505.575501 221.623896 
L 506.97871 197.50391 
L 508.352096 223.846713 
L 509.696901 202.00014 
L 511.01429 187.097979 
L 512.305359 194.058548 
L 513.571139 207.866421 
L 514.812601 176.123335 
L 516.030663 169.696422 
L 517.226189 227.179638 
L 517.226189 227.179638 
" style="fill:none;stroke:#ffd23a;stroke-linecap:square;"/>
   </g>
   <g id="line2d_6">
    <path clip-path="url(#pd74f4d3f4d)" d="M 72 115.783277 
L 82.696043 116.13613 
L 91.87059 116.039124 
L 107.046633 119.579048 
L 113.478536 116.937252 
L 119.327824 116.0061 
L 124.691336 118.993248 
L 129.643606 122.593031 
L 134.243232 115.98609 
L 138.537115 119.845159 
L 142.56338 115.090084 
L 146.353438 114.776412 
L 149.933474 112.996146 
L 153.325548 122.868788 
L 156.548417 115.611333 
L 159.618161 115.331114 
L 162.548674 115.397242 
L 165.352039 116.493044 
L 168.038834 113.338278 
L 170.618365 117.61311 
L 173.098871 117.069016 
L 175.487673 119.314617 
L 177.791312 115.186026 
L 180.015651 117.927986 
L 182.165968 113.816065 
L 184.247032 115.780478 
L 186.263165 117.494828 
L 188.218296 118.245102 
L 190.116009 120.717434 
L 191.95958 118.19866 
L 193.752013 116.328722 
L 195.496068 118.20945 
L 197.194289 122.594468 
L 198.849023 115.962726 
L 200.462442 117.691845 
L 202.036558 114.081904 
L 203.573241 119.982205 
L 205.07423 122.700749 
L 206.541146 117.002498 
L 207.975501 119.965996 
L 209.37871 117.163108 
L 210.752096 121.937332 
L 212.096901 124.686942 
L 213.41429 119.439299 
L 220.8 118.491731 
L 231.496043 123.58212 
L 240.67059 124.511004 
L 248.703083 126.989244 
L 255.846633 126.946839 
L 262.278536 123.982485 
L 268.127824 130.318068 
L 273.491336 128.317314 
L 278.443606 128.110142 
L 283.043232 122.262637 
L 287.337115 128.474049 
L 291.36338 128.587397 
L 295.153438 126.987326 
L 298.733474 132.333829 
L 302.125548 127.865312 
L 305.348417 121.210224 
L 308.418161 133.39502 
L 311.348674 123.46708 
L 314.152039 124.074865 
L 316.838834 128.713951 
L 319.418365 123.711633 
L 321.898871 121.325327 
L 324.287673 131.204058 
L 326.591312 139.196548 
L 328.815651 126.801306 
L 330.965968 126.87475 
L 333.047032 120.094732 
L 335.063165 132.183745 
L 337.018296 123.68598 
L 338.916009 128.991931 
L 340.75958 131.559056 
L 342.552013 132.382625 
L 344.296068 132.911983 
L 345.994289 137.255353 
L 347.649023 133.712433 
L 349.262442 142.546024 
L 350.836558 133.202151 
L 352.373241 146.876463 
L 353.87423 140.73251 
L 355.341146 141.933485 
L 356.775501 166.690312 
L 358.17871 136.390923 
L 359.552096 145.147563 
L 360.896901 140.290829 
L 362.21429 146.021634 
L 369.6 152.246163 
L 380.296043 167.095625 
L 389.47059 154.173309 
L 397.503083 158.748281 
L 404.646633 169.176295 
L 411.078536 173.258883 
L 416.927824 148.848232 
L 422.291336 169.616677 
L 427.243606 197.122065 
L 431.843232 158.273139 
L 436.137115 191.235991 
L 440.16338 176.905935 
L 443.953438 174.644479 
L 447.533474 181.550085 
L 450.925548 190.966464 
L 454.148417 172.407009 
L 457.218161 196.722759 
L 460.148674 180.218063 
L 462.952039 210.63636 
L 465.638834 177.975448 
L 468.218365 202.137202 
L 470.698871 178.083174 
L 473.087673 195.098216 
L 475.391312 175.153988 
L 477.615651 187.247801 
L 479.765968 179.495323 
L 481.847032 178.39333 
L 483.863165 250.501063 
L 485.818296 186.844717 
L 487.716009 212.68171 
L 489.55958 183.509219 
L 491.352013 198.169128 
L 493.096068 184.786395 
L 494.794289 180.575423 
L 496.449023 177.307351 
L 498.062442 227.769832 
L 499.636558 190.047189 
L 501.173241 196.354492 
L 502.67423 190.254981 
L 504.141146 175.165179 
L 505.575501 206.233169 
L 506.97871 177.431911 
L 508.352096 224.335493 
L 509.696901 210.906438 
L 511.01429 314.092362 
L 512.305359 213.698907 
L 513.571139 180.455788 
L 514.812601 181.335991 
L 516.030663 212.725277 
L 517.226189 234.182364 
L 517.226189 234.182364 
" style="fill:none;stroke:#ff9300;stroke-linecap:square;"/>
   </g>
   <g id="line2d_7">
    <path clip-path="url(#pd74f4d3f4d)" d="M 72 127.947828 
L 82.696043 125.049394 
L 91.87059 122.287026 
L 99.903083 121.846934 
L 107.046633 120.171506 
L 113.478536 125.263012 
L 119.327824 126.870789 
L 124.691336 122.925542 
L 129.643606 123.32513 
L 134.243232 126.342245 
L 138.537115 123.539207 
L 142.56338 123.41926 
L 146.353438 126.683632 
L 149.933474 122.691585 
L 153.325548 126.994116 
L 156.548417 125.021364 
L 159.618161 124.298003 
L 162.548674 124.679527 
L 165.352039 122.912374 
L 168.038834 132.22244 
L 170.618365 130.11325 
L 173.098871 131.39863 
L 175.487673 126.791828 
L 177.791312 128.030756 
L 180.015651 124.396937 
L 182.165968 119.63665 
L 184.247032 124.439255 
L 186.263165 128.158312 
L 188.218296 120.938132 
L 190.116009 115.35008 
L 191.95958 122.39987 
L 193.752013 123.433077 
L 195.496068 119.378941 
L 197.194289 136.826969 
L 198.849023 128.889494 
L 200.462442 128.66818 
L 202.036558 125.675802 
L 203.573241 129.728092 
L 205.07423 125.894639 
L 206.541146 122.645231 
L 207.975501 129.7601 
L 209.37871 123.893426 
L 210.752096 129.143329 
L 212.096901 125.98699 
L 213.41429 126.496615 
L 220.8 132.004588 
L 231.496043 127.741542 
L 240.67059 132.193743 
L 248.703083 129.869111 
L 255.846633 132.703867 
L 262.278536 137.181925 
L 268.127824 136.808743 
L 273.491336 137.580097 
L 278.443606 140.525653 
L 283.043232 137.451688 
L 287.337115 139.974198 
L 291.36338 128.438797 
L 295.153438 135.050948 
L 298.733474 129.756585 
L 302.125548 135.948629 
L 305.348417 140.379853 
L 308.418161 134.176722 
L 311.348674 134.350715 
L 314.152039 143.722156 
L 316.838834 129.365497 
L 319.418365 133.993329 
L 321.898871 139.717843 
L 324.287673 128.291834 
L 326.591312 130.74911 
L 328.815651 139.111946 
L 330.965968 140.162767 
L 333.047032 148.408036 
L 335.063165 132.249517 
L 337.018296 153.814445 
L 338.916009 137.913272 
L 340.75958 136.58956 
L 342.552013 141.712981 
L 344.296068 152.030658 
L 345.994289 137.47151 
L 347.649023 130.860216 
L 349.262442 131.411867 
L 350.836558 137.479731 
L 352.373241 155.046308 
L 353.87423 134.923069 
L 355.341146 135.240602 
L 356.775501 151.492 
L 358.17871 140.847013 
L 359.552096 141.53406 
L 360.896901 145.698533 
L 362.21429 151.3963 
L 369.6 168.32961 
L 380.296043 161.720236 
L 389.47059 154.456533 
L 397.503083 167.627295 
L 404.646633 152.88693 
L 411.078536 172.549398 
L 416.927824 165.388499 
L 422.291336 167.434376 
L 427.243606 192.078611 
L 431.843232 185.998797 
L 436.137115 179.175716 
L 440.16338 167.870779 
L 443.953438 158.446653 
L 447.533474 213.684941 
L 450.925548 201.206326 
L 454.148417 182.627283 
L 457.218161 221.939988 
L 460.148674 223.494893 
L 462.952039 178.540737 
L 465.638834 203.458325 
L 468.218365 163.818769 
L 470.698871 196.2643 
L 473.087673 186.170382 
L 475.391312 177.466752 
L 477.615651 187.252129 
L 479.765968 177.13203 
L 481.847032 190.221697 
L 483.863165 199.126206 
L 485.818296 183.19993 
L 487.716009 214.112722 
L 489.55958 183.379998 
L 491.352013 183.709299 
L 493.096068 172.401021 
L 494.794289 198.549677 
L 496.449023 198.973081 
L 498.062442 173.410224 
L 499.636558 216.814713 
L 501.173241 181.482995 
L 502.67423 184.021658 
L 504.141146 165.474796 
L 505.575501 185.325467 
L 508.352096 206.853017 
L 509.696901 240.835856 
L 511.01429 179.925212 
L 512.305359 212.719662 
L 513.571139 159.334969 
L 514.812601 194.271603 
L 516.030663 188.510644 
L 517.226189 238.93202 
L 517.226189 238.93202 
" style="fill:none;stroke:#f50fe6;stroke-linecap:square;"/>
   </g>
   <g id="line2d_8">
    <path clip-path="url(#pd74f4d3f4d)" d="M 72 124.832174 
L 82.696043 141.967832 
L 91.87059 129.816535 
L 99.903083 140.390208 
L 107.046633 133.982841 
L 113.478536 126.049407 
L 119.327824 130.59495 
L 124.691336 144.157924 
L 129.643606 130.925803 
L 134.243232 132.392175 
L 138.537115 137.188023 
L 142.56338 131.194424 
L 146.353438 135.043721 
L 149.933474 134.201905 
L 153.325548 133.684669 
L 156.548417 143.437543 
L 159.618161 130.838341 
L 162.548674 131.996871 
L 165.352039 141.331627 
L 168.038834 125.042235 
L 170.618365 132.080044 
L 173.098871 135.134501 
L 175.487673 127.585725 
L 177.791312 139.489306 
L 180.015651 134.178348 
L 182.165968 136.186944 
L 184.247032 130.155432 
L 186.263165 139.497169 
L 188.218296 137.876973 
L 190.116009 134.906826 
L 191.95958 129.123211 
L 193.752013 130.786557 
L 195.496068 136.084837 
L 197.194289 131.295429 
L 198.849023 141.185446 
L 200.462442 132.244687 
L 202.036558 134.134982 
L 203.573241 136.23738 
L 205.07423 137.316267 
L 206.541146 152.350063 
L 207.975501 133.716135 
L 209.37871 139.492097 
L 210.752096 133.629108 
L 212.096901 144.843023 
L 213.41429 134.688082 
L 220.8 138.774836 
L 231.496043 132.854882 
L 240.67059 144.069706 
L 248.703083 141.515786 
L 255.846633 155.727661 
L 262.278536 137.146189 
L 268.127824 151.704325 
L 273.491336 142.729314 
L 278.443606 145.467552 
L 283.043232 144.403184 
L 287.337115 146.075342 
L 291.36338 140.896348 
L 295.153438 143.865303 
L 298.733474 143.221595 
L 302.125548 154.098933 
L 305.348417 142.236277 
L 308.418161 141.459124 
L 311.348674 140.207474 
L 314.152039 145.667396 
L 316.838834 145.281599 
L 319.418365 151.628217 
L 321.898871 147.430284 
L 324.287673 151.755976 
L 326.591312 141.368118 
L 328.815651 133.79718 
L 330.965968 135.332478 
L 333.047032 139.549928 
L 335.063165 146.578658 
L 337.018296 150.594623 
L 338.916009 148.330467 
L 340.75958 137.452726 
L 342.552013 139.505092 
L 344.296068 147.650856 
L 345.994289 146.838136 
L 347.649023 137.370897 
L 349.262442 147.405941 
L 350.836558 145.954386 
L 352.373241 156.904073 
L 353.87423 145.395224 
L 355.341146 149.53535 
L 356.775501 158.480675 
L 358.17871 144.678901 
L 359.552096 162.19834 
L 360.896901 175.760803 
L 362.21429 138.334932 
L 369.6 180.032028 
L 380.296043 166.312515 
L 389.47059 178.929944 
L 397.503083 194.391337 
L 404.646633 175.895912 
L 411.078536 177.757017 
L 416.927824 163.86768 
L 422.291336 171.141495 
L 427.243606 194.245073 
L 431.843232 166.924071 
L 436.137115 165.173877 
L 440.16338 180.164289 
L 443.953438 183.499347 
L 447.533474 170.051783 
L 450.925548 229.838563 
L 454.148417 218.257739 
L 457.218161 192.670935 
L 460.148674 183.812856 
L 462.952039 221.962162 
L 465.638834 203.910011 
L 468.218365 175.46953 
L 470.698871 206.779038 
L 473.087673 186.407221 
L 475.391312 183.118859 
L 477.615651 225.792661 
L 479.765968 228.089565 
L 481.847032 203.103257 
L 483.863165 220.120582 
L 485.818296 174.154789 
L 487.716009 192.579848 
L 489.55958 239.4862 
L 491.352013 188.215255 
L 493.096068 182.975449 
L 494.794289 214.29423 
L 496.449023 223.327271 
L 498.062442 200.42096 
L 499.636558 204.488056 
L 501.173241 211.935422 
L 502.67423 251.236452 
L 504.141146 198.129612 
L 505.575501 182.749359 
L 506.97871 177.956519 
L 508.352096 190.764486 
L 509.696901 193.560742 
L 511.01429 176.614088 
L 512.305359 246.994527 
L 513.571139 193.270759 
L 514.812601 271.555474 
L 516.030663 171.672626 
L 517.226189 175.954912 
L 517.226189 175.954912 
" style="fill:none;stroke:#1000a0;stroke-linecap:square;"/>
   </g>
   <g id="line2d_9">
    <path clip-path="url(#pd74f4d3f4d)" d="M 72 137.310549 
L 82.696043 145.489537 
L 91.87059 149.830748 
L 99.903083 133.547063 
L 107.046633 138.027267 
L 113.478536 152.750185 
L 119.327824 149.141375 
L 129.643606 142.386283 
L 134.243232 129.936153 
L 138.537115 151.454319 
L 142.56338 152.260499 
L 146.353438 154.156862 
L 149.933474 149.322948 
L 153.325548 142.811361 
L 156.548417 142.330257 
L 159.618161 140.51449 
L 162.548674 144.103832 
L 165.352039 156.940878 
L 168.038834 151.429441 
L 170.618365 133.016766 
L 173.098871 150.188164 
L 175.487673 154.640505 
L 177.791312 148.543628 
L 180.015651 135.615143 
L 182.165968 134.321972 
L 184.247032 157.866951 
L 186.263165 155.536525 
L 188.218296 139.975684 
L 190.116009 155.953877 
L 191.95958 150.192111 
L 193.752013 156.912587 
L 195.496068 149.281401 
L 197.194289 139.581117 
L 198.849023 146.660952 
L 200.462442 155.217258 
L 202.036558 155.917901 
L 203.573241 150.91989 
L 205.07423 158.931853 
L 206.541146 162.175211 
L 207.975501 147.837639 
L 209.37871 147.287576 
L 210.752096 147.063212 
L 212.096901 150.669939 
L 213.41429 139.84332 
L 220.8 151.353628 
L 231.496043 163.277045 
L 240.67059 158.987582 
L 248.703083 145.125512 
L 255.846633 153.374029 
L 262.278536 151.9272 
L 268.127824 160.058245 
L 273.491336 165.79987 
L 278.443606 152.024945 
L 283.043232 151.582191 
L 287.337115 149.586659 
L 291.36338 152.367549 
L 295.153438 157.723545 
L 298.733474 157.519193 
L 302.125548 159.627373 
L 305.348417 160.933914 
L 308.418161 145.642474 
L 311.348674 160.923367 
L 314.152039 161.324609 
L 316.838834 160.692076 
L 319.418365 155.943622 
L 321.898871 156.756143 
L 324.287673 155.750237 
L 326.591312 155.332023 
L 328.815651 158.722947 
L 330.965968 153.69572 
L 333.047032 164.828057 
L 335.063165 156.128929 
L 337.018296 176.41852 
L 338.916009 143.358852 
L 340.75958 158.756743 
L 342.552013 148.947417 
L 344.296068 154.688018 
L 345.994289 168.529281 
L 347.649023 164.863262 
L 349.262442 178.538848 
L 350.836558 164.221308 
L 352.373241 159.906352 
L 353.87423 143.692296 
L 355.341146 171.465474 
L 356.775501 141.669952 
L 358.17871 165.230048 
L 359.552096 151.360172 
L 360.896901 194.527275 
L 362.21429 153.310038 
L 369.6 163.75269 
L 380.296043 175.032793 
L 389.47059 168.28762 
L 397.503083 166.210628 
L 404.646633 189.064409 
L 411.078536 177.118306 
L 416.927824 218.551768 
L 422.291336 182.088684 
L 427.243606 166.82937 
L 431.843232 210.339691 
L 436.137115 218.586263 
L 440.16338 171.676761 
L 443.953438 195.129287 
L 447.533474 194.367403 
L 450.925548 241.202591 
L 454.148417 196.051455 
L 457.218161 213.792157 
L 460.148674 196.053681 
L 462.952039 167.828869 
L 465.638834 223.310917 
L 468.218365 175.523991 
L 470.698871 249.266723 
L 473.087673 260.170624 
L 475.391312 173.377561 
L 477.615651 275.446782 
L 479.765968 192.860945 
L 481.847032 220.064132 
L 483.863165 182.820859 
L 485.818296 176.52579 
L 487.716009 191.35229 
L 489.55958 240.650923 
L 491.352013 191.872508 
L 493.096068 198.677612 
L 494.794289 244.240741 
L 496.449023 200.438748 
L 498.062442 183.013866 
L 499.636558 198.534525 
L 501.173241 181.743966 
L 502.67423 243.398312 
L 504.141146 233.853374 
L 505.575501 239.832877 
L 506.97871 194.116661 
L 508.352096 232.466337 
L 509.696901 237.683885 
L 511.01429 214.722517 
L 513.571139 190.068902 
L 516.030663 240.590294 
L 517.226189 202.621115 
L 517.226189 202.621115 
" style="fill:none;stroke:#595866;stroke-linecap:square;"/>
   </g>
   <g id="line2d_10">
    <path clip-path="url(#pd74f4d3f4d)" d="M 72 160.30627 
L 82.696043 142.955779 
L 91.87059 167.116542 
L 99.903083 141.316253 
L 107.046633 146.777827 
L 113.478536 145.75569 
L 119.327824 177.27498 
L 124.691336 155.25364 
L 129.643606 159.680859 
L 134.243232 138.851721 
L 138.537115 152.687304 
L 142.56338 162.676085 
L 146.353438 175.441377 
L 149.933474 146.26678 
L 153.325548 156.67383 
L 156.548417 147.081349 
L 159.618161 156.006164 
L 162.548674 139.910285 
L 165.352039 198.557807 
L 168.038834 151.499344 
L 170.618365 143.805402 
L 173.098871 154.040779 
L 175.487673 184.525314 
L 177.791312 152.056065 
L 180.015651 160.929937 
L 182.165968 149.648848 
L 184.247032 160.452975 
L 186.263165 180.602832 
L 188.218296 141.344244 
L 190.116009 153.333766 
L 191.95958 151.779151 
L 193.752013 152.232704 
L 197.194289 145.271933 
L 198.849023 147.022068 
L 200.462442 160.487396 
L 202.036558 159.58196 
L 203.573241 151.369336 
L 205.07423 167.601029 
L 206.541146 154.695156 
L 207.975501 154.385582 
L 209.37871 160.980955 
L 210.752096 172.134154 
L 212.096901 150.489596 
L 213.41429 158.554721 
L 220.8 162.633612 
L 231.496043 149.970716 
L 240.67059 188.346447 
L 248.703083 151.904125 
L 255.846633 192.742094 
L 262.278536 176.222884 
L 268.127824 168.298664 
L 273.491336 170.754372 
L 278.443606 162.994547 
L 283.043232 160.395737 
L 287.337115 165.521653 
L 291.36338 167.670499 
L 295.153438 174.355781 
L 298.733474 162.352219 
L 302.125548 159.37796 
L 305.348417 164.992727 
L 308.418161 172.473741 
L 311.348674 170.319761 
L 314.152039 165.832954 
L 316.838834 168.060724 
L 319.418365 153.312447 
L 321.898871 185.274177 
L 324.287673 165.389196 
L 326.591312 171.612984 
L 328.815651 170.995708 
L 330.965968 166.330821 
L 333.047032 175.030028 
L 335.063165 164.448151 
L 337.018296 180.370269 
L 338.916009 150.352475 
L 340.75958 181.129567 
L 342.552013 173.68523 
L 344.296068 163.279003 
L 345.994289 155.918439 
L 347.649023 157.468596 
L 349.262442 166.912502 
L 350.836558 171.674291 
L 352.373241 165.178062 
L 353.87423 177.877087 
L 355.341146 208.214147 
L 356.775501 157.757717 
L 358.17871 179.989093 
L 359.552096 150.9555 
L 360.896901 179.836079 
L 362.21429 172.09131 
L 369.6 226.056666 
L 380.296043 169.141684 
L 389.47059 197.986198 
L 397.503083 185.127177 
L 404.646633 237.82705 
L 411.078536 228.248578 
L 416.927824 229.735403 
L 422.291336 169.952899 
L 427.243606 219.270196 
L 431.843232 176.320229 
L 436.137115 203.097527 
L 440.16338 232.7357 
L 443.953438 191.965477 
L 447.533474 174.501842 
L 450.925548 216.410662 
L 454.148417 173.883127 
L 457.218161 228.450808 
L 460.148674 250.864895 
L 462.952039 193.018101 
L 465.638834 175.630724 
L 468.218365 191.805806 
L 470.698871 238.48424 
L 473.087673 196.212146 
L 475.391312 208.218895 
L 477.615651 207.214974 
L 479.765968 215.915623 
L 481.847032 188.092633 
L 483.863165 226.529209 
L 485.818296 241.753416 
L 487.716009 205.667891 
L 489.55958 192.994181 
L 491.352013 204.017153 
L 493.096068 192.427231 
L 494.794289 225.622079 
L 496.449023 193.889605 
L 498.062442 212.656079 
L 499.636558 198.061721 
L 501.173241 198.377773 
L 502.67423 197.255198 
L 504.141146 196.674906 
L 505.575501 206.729304 
L 506.97871 183.078072 
L 508.352096 177.875797 
L 509.696901 203.093399 
L 511.01429 217.998498 
L 512.305359 249.473022 
L 513.571139 227.971375 
L 514.812601 214.149558 
L 516.030663 172.480363 
L 517.226189 274.9149 
L 517.226189 274.9149 
" style="fill:none;stroke:#147f2a;stroke-linecap:square;"/>
   </g>
   <g id="line2d_11">
    <path clip-path="url(#pd74f4d3f4d)" d="M 72 170.94349 
L 82.696043 147.674252 
L 91.87059 166.742971 
L 99.903083 178.728845 
L 107.046633 160.407342 
L 113.478536 174.263864 
L 119.327824 162.711426 
L 124.691336 160.489931 
L 129.643606 195.552816 
L 134.243232 158.262408 
L 138.537115 160.938382 
L 142.56338 168.6518 
L 146.353438 159.438323 
L 149.933474 173.651911 
L 153.325548 166.060294 
L 156.548417 170.545036 
L 159.618161 164.095319 
L 162.548674 180.229496 
L 165.352039 161.390201 
L 168.038834 224.376695 
L 170.618365 158.726113 
L 173.098871 194.086779 
L 175.487673 174.047681 
L 177.791312 191.106528 
L 180.015651 169.281472 
L 182.165968 158.331022 
L 184.247032 178.792563 
L 186.263165 209.193412 
L 188.218296 157.894402 
L 190.116009 183.764766 
L 191.95958 169.275287 
L 193.752013 177.204892 
L 195.496068 180.581944 
L 197.194289 184.982372 
L 198.849023 186.668859 
L 200.462442 167.71146 
L 202.036558 238.425789 
L 203.573241 196.035649 
L 205.07423 199.891703 
L 206.541146 161.286894 
L 207.975501 175.994175 
L 209.37871 157.391827 
L 210.752096 161.385985 
L 212.096901 166.923236 
L 213.41429 182.266751 
L 220.8 171.273314 
L 231.496043 197.511737 
L 240.67059 180.947318 
L 248.703083 185.951961 
L 255.846633 185.293122 
L 262.278536 189.130262 
L 268.127824 194.91347 
L 273.491336 188.96855 
L 278.443606 205.362289 
L 283.043232 207.78184 
L 287.337115 190.765012 
L 291.36338 255.50426 
L 295.153438 164.656825 
L 298.733474 193.3865 
L 302.125548 183.146134 
L 305.348417 194.873402 
L 308.418161 198.516279 
L 311.348674 165.965542 
L 314.152039 175.280328 
L 316.838834 218.851509 
L 319.418365 182.408062 
L 321.898871 164.944261 
L 324.287673 231.919693 
L 326.591312 183.347402 
L 328.815651 182.979927 
L 330.965968 191.121221 
L 333.047032 269.543186 
L 335.063165 153.52766 
L 337.018296 185.151943 
L 338.916009 160.116033 
L 340.75958 177.535344 
L 342.552013 186.893178 
L 344.296068 174.691572 
L 345.994289 201.088865 
L 347.649023 184.413047 
L 349.262442 197.596582 
L 350.836558 191.54776 
L 352.373241 204.06805 
L 353.87423 198.912601 
L 355.341146 161.08338 
L 356.775501 186.58227 
L 358.17871 164.746927 
L 359.552096 197.972638 
L 360.896901 182.008952 
L 362.21429 182.066462 
L 369.6 176.231024 
L 380.296043 176.894306 
L 389.47059 179.657033 
L 397.503083 183.422459 
L 404.646633 189.676711 
L 411.078536 183.116889 
L 416.927824 202.439528 
L 422.291336 217.692671 
L 427.243606 238.145721 
L 431.843232 230.040901 
L 436.137115 199.481091 
L 440.16338 181.520972 
L 443.953438 233.244266 
L 447.533474 205.755926 
L 450.925548 206.956695 
L 454.148417 221.021131 
L 457.218161 185.700301 
L 460.148674 174.175409 
L 462.952039 194.544142 
L 465.638834 177.560016 
L 468.218365 191.174109 
L 470.698871 191.948805 
L 473.087673 227.793235 
L 475.391312 190.352355 
L 477.615651 193.772714 
L 479.765968 198.151694 
L 481.847032 172.637166 
L 483.863165 180.71942 
L 485.818296 184.800052 
L 487.716009 193.724257 
L 489.55958 190.044348 
L 491.352013 195.125225 
L 493.096068 214.695997 
L 494.794289 263.346836 
L 496.449023 213.757547 
L 498.062442 169.093391 
L 499.636558 199.496667 
L 501.173241 205.015189 
L 502.67423 187.232603 
L 504.141146 218.412504 
L 505.575501 211.315065 
L 506.97871 208.217324 
L 508.352096 197.15883 
L 509.696901 209.176419 
L 511.01429 189.885619 
L 512.305359 249.891518 
L 513.571139 237.453351 
L 514.812601 215.498639 
L 516.030663 224.076425 
L 517.226189 240.542882 
L 517.226189 240.542882 
" style="fill:none;stroke:#00f6aa;stroke-linecap:square;"/>
   </g>
   <g id="patch_3">
    <path d="M 72 43.2 
L 518.4 43.2 
" style="fill:none;stroke:#000000;stroke-linecap:square;stroke-linejoin:miter;"/>
   </g>
   <g id="patch_4">
    <path d="M 518.4 388.8 
L 518.4 43.2 
" style="fill:none;stroke:#000000;stroke-linecap:square;stroke-linejoin:miter;"/>
   </g>
   <g id="patch_5">
    <path d="M 72 388.8 
L 518.4 388.8 
" style="fill:none;stroke:#000000;stroke-linecap:square;stroke-linejoin:miter;"/>
   </g>
   <g id="patch_6">
    <path d="M 72 388.8 
L 72 43.2 
" style="fill:none;stroke:#000000;stroke-linecap:square;stroke-linejoin:miter;"/>
   </g>
   <g id="matplotlib.axis_1">
    <g id="xtick_1">
     <g id="line2d_12">
      <defs>
       <path d="M 0 0 
L 0 -4 
" id="m11d32177cb" style="stroke:#000000;stroke-width:0.5;"/>
      </defs>
      <g>
       <use style="stroke:#000000;stroke-width:0.5;" x="72.0" xlink:href="#m11d32177cb" y="388.8"/>
      </g>
     </g>
     <g id="line2d_13">
      <defs>
       <path d="M 0 0 
L 0 4 
" id="mcad41c25f9" style="stroke:#000000;stroke-width:0.5;"/>
      </defs>
      <g>
       <use style="stroke:#000000;stroke-width:0.5;" x="72.0" xlink:href="#mcad41c25f9" y="43.2"/>
      </g>
     </g>
     <g id="text_1">
      <!-- $\mathdefault{10^{-3}}$ -->
      <defs>
       <path d="M 40.578125 39.3125 
Q 47.65625 37.796875 51.625 33 
Q 55.609375 28.21875 55.609375 21.1875 
Q 55.609375 10.40625 48.1875 4.484375 
Q 40.765625 -1.421875 27.09375 -1.421875 
Q 22.515625 -1.421875 17.65625 -0.515625 
Q 12.796875 0.390625 7.625 2.203125 
L 7.625 11.71875 
Q 11.71875 9.328125 16.59375 8.109375 
Q 21.484375 6.890625 26.8125 6.890625 
Q 36.078125 6.890625 40.9375 10.546875 
Q 45.796875 14.203125 45.796875 21.1875 
Q 45.796875 27.640625 41.28125 31.265625 
Q 36.765625 34.90625 28.71875 34.90625 
L 20.21875 34.90625 
L 20.21875 43.015625 
L 29.109375 43.015625 
Q 36.375 43.015625 40.234375 45.921875 
Q 44.09375 48.828125 44.09375 54.296875 
Q 44.09375 59.90625 40.109375 62.90625 
Q 36.140625 65.921875 28.71875 65.921875 
Q 24.65625 65.921875 20.015625 65.03125 
Q 15.375 64.15625 9.8125 62.3125 
L 9.8125 71.09375 
Q 15.4375 72.65625 20.34375 73.4375 
Q 25.25 74.21875 29.59375 74.21875 
Q 40.828125 74.21875 47.359375 69.109375 
Q 53.90625 64.015625 53.90625 55.328125 
Q 53.90625 49.265625 50.4375 45.09375 
Q 46.96875 40.921875 40.578125 39.3125 
" id="BitstreamVeraSans-Roman-33"/>
       <path d="M 4.890625 31.390625 
L 31.203125 31.390625 
L 31.203125 23.390625 
L 4.890625 23.390625 
z
" id="BitstreamVeraSans-Roman-2d"/>
       <path d="M 31.78125 66.40625 
Q 24.171875 66.40625 20.328125 58.90625 
Q 16.5 51.421875 16.5 36.375 
Q 16.5 21.390625 20.328125 13.890625 
Q 24.171875 6.390625 31.78125 6.390625 
Q 39.453125 6.390625 43.28125 13.890625 
Q 47.125 21.390625 47.125 36.375 
Q 47.125 51.421875 43.28125 58.90625 
Q 39.453125 66.40625 31.78125 66.40625 
M 31.78125 74.21875 
Q 44.046875 74.21875 50.515625 64.515625 
Q 56.984375 54.828125 56.984375 36.375 
Q 56.984375 17.96875 50.515625 8.265625 
Q 44.046875 -1.421875 31.78125 -1.421875 
Q 19.53125 -1.421875 13.0625 8.265625 
Q 6.59375 17.96875 6.59375 36.375 
Q 6.59375 54.828125 13.0625 64.515625 
Q 19.53125 74.21875 31.78125 74.21875 
" id="BitstreamVeraSans-Roman-30"/>
       <path d="M 12.40625 8.296875 
L 28.515625 8.296875 
L 28.515625 63.921875 
L 10.984375 60.40625 
L 10.984375 69.390625 
L 28.421875 72.90625 
L 38.28125 72.90625 
L 38.28125 8.296875 
L 54.390625 8.296875 
L 54.390625 0 
L 12.40625 0 
z
" id="BitstreamVeraSans-Roman-31"/>
      </defs>
      <g transform="translate(59.34 402.544375)scale(0.12 -0.12)">
       <use transform="translate(0.0 0.796875)" xlink:href="#BitstreamVeraSans-Roman-31"/>
       <use transform="translate(63.623046875 0.796875)" xlink:href="#BitstreamVeraSans-Roman-30"/>
       <use transform="translate(132.75859375 48.046875)scale(0.7)" xlink:href="#BitstreamVeraSans-Roman-2d"/>
       <use transform="translate(158.0173828125 48.046875)scale(0.7)" xlink:href="#BitstreamVeraSans-Roman-33"/>
      </g>
     </g>
    </g>
    <g id="xtick_2">
     <g id="line2d_14">
      <g>
       <use style="stroke:#000000;stroke-width:0.5;" x="220.8" xlink:href="#m11d32177cb" y="388.8"/>
      </g>
     </g>
     <g id="line2d_15">
      <g>
       <use style="stroke:#000000;stroke-width:0.5;" x="220.8" xlink:href="#mcad41c25f9" y="43.2"/>
      </g>
     </g>
     <g id="text_2">
      <!-- $\mathdefault{10^{-2}}$ -->
      <defs>
       <path d="M 19.1875 8.296875 
L 53.609375 8.296875 
L 53.609375 0 
L 7.328125 0 
L 7.328125 8.296875 
Q 12.9375 14.109375 22.625 23.890625 
Q 32.328125 33.6875 34.8125 36.53125 
Q 39.546875 41.84375 41.421875 45.53125 
Q 43.3125 49.21875 43.3125 52.78125 
Q 43.3125 58.59375 39.234375 62.25 
Q 35.15625 65.921875 28.609375 65.921875 
Q 23.96875 65.921875 18.8125 64.3125 
Q 13.671875 62.703125 7.8125 59.421875 
L 7.8125 69.390625 
Q 13.765625 71.78125 18.9375 73 
Q 24.125 74.21875 28.421875 74.21875 
Q 39.75 74.21875 46.484375 68.546875 
Q 53.21875 62.890625 53.21875 53.421875 
Q 53.21875 48.921875 51.53125 44.890625 
Q 49.859375 40.875 45.40625 35.40625 
Q 44.1875 33.984375 37.640625 27.21875 
Q 31.109375 20.453125 19.1875 8.296875 
" id="BitstreamVeraSans-Roman-32"/>
      </defs>
      <g transform="translate(208.14 402.544375)scale(0.12 -0.12)">
       <use transform="translate(0.0 0.796875)" xlink:href="#BitstreamVeraSans-Roman-31"/>
       <use transform="translate(63.623046875 0.796875)" xlink:href="#BitstreamVeraSans-Roman-30"/>
       <use transform="translate(132.75859375 48.046875)scale(0.7)" xlink:href="#BitstreamVeraSans-Roman-2d"/>
       <use transform="translate(158.0173828125 48.046875)scale(0.7)" xlink:href="#BitstreamVeraSans-Roman-32"/>
      </g>
     </g>
    </g>
    <g id="xtick_3">
     <g id="line2d_16">
      <g>
       <use style="stroke:#000000;stroke-width:0.5;" x="369.6" xlink:href="#m11d32177cb" y="388.8"/>
      </g>
     </g>
     <g id="line2d_17">
      <g>
       <use style="stroke:#000000;stroke-width:0.5;" x="369.6" xlink:href="#mcad41c25f9" y="43.2"/>
      </g>
     </g>
     <g id="text_3">
      <!-- $\mathdefault{10^{-1}}$ -->
      <g transform="translate(356.94 402.424375)scale(0.12 -0.12)">
       <use transform="translate(0.0 0.7156250000000028)" xlink:href="#BitstreamVeraSans-Roman-31"/>
       <use transform="translate(63.623046875 0.7156250000000028)" xlink:href="#BitstreamVeraSans-Roman-30"/>
       <use transform="translate(132.75859375 47.965625)scale(0.7)" xlink:href="#BitstreamVeraSans-Roman-2d"/>
       <use transform="translate(158.0173828125 47.965625)scale(0.7)" xlink:href="#BitstreamVeraSans-Roman-31"/>
      </g>
     </g>
    </g>
    <g id="xtick_4">
     <g id="line2d_18">
      <g>
       <use style="stroke:#000000;stroke-width:0.5;" x="518.4" xlink:href="#m11d32177cb" y="388.8"/>
      </g>
     </g>
     <g id="line2d_19">
      <g>
       <use style="stroke:#000000;stroke-width:0.5;" x="518.4" xlink:href="#mcad41c25f9" y="43.2"/>
      </g>
     </g>
     <g id="text_4">
      <!-- $\mathdefault{10^{0}}$ -->
      <g transform="translate(507.24 402.544375)scale(0.12 -0.12)">
       <use transform="translate(0.0 0.796875)" xlink:href="#BitstreamVeraSans-Roman-31"/>
       <use transform="translate(63.623046875 0.796875)" xlink:href="#BitstreamVeraSans-Roman-30"/>
       <use transform="translate(132.75859375 48.046875)scale(0.7)" xlink:href="#BitstreamVeraSans-Roman-30"/>
      </g>
     </g>
    </g>
    <g id="xtick_5">
     <g id="line2d_20">
      <defs>
       <path d="M 0 0 
L 0 -2 
" id="m70fdd03d26" style="stroke:#000000;stroke-width:0.5;"/>
      </defs>
      <g>
       <use style="stroke:#000000;stroke-width:0.5;" x="116.793263355" xlink:href="#m70fdd03d26" y="388.8"/>
      </g>
     </g>
     <g id="line2d_21">
      <defs>
       <path d="M 0 0 
L 0 2 
" id="m54e3eeff24" style="stroke:#000000;stroke-width:0.5;"/>
      </defs>
      <g>
       <use style="stroke:#000000;stroke-width:0.5;" x="116.793263355" xlink:href="#m54e3eeff24" y="43.2"/>
      </g>
     </g>
    </g>
    <g id="xtick_6">
     <g id="line2d_22">
      <g>
       <use style="stroke:#000000;stroke-width:0.5;" x="142.995642702" xlink:href="#m70fdd03d26" y="388.8"/>
      </g>
     </g>
     <g id="line2d_23">
      <g>
       <use style="stroke:#000000;stroke-width:0.5;" x="142.995642702" xlink:href="#m54e3eeff24" y="43.2"/>
      </g>
     </g>
    </g>
    <g id="xtick_7">
     <g id="line2d_24">
      <g>
       <use style="stroke:#000000;stroke-width:0.5;" x="161.58652671" xlink:href="#m70fdd03d26" y="388.8"/>
      </g>
     </g>
     <g id="line2d_25">
      <g>
       <use style="stroke:#000000;stroke-width:0.5;" x="161.58652671" xlink:href="#m54e3eeff24" y="43.2"/>
      </g>
     </g>
    </g>
    <g id="xtick_8">
     <g id="line2d_26">
      <g>
       <use style="stroke:#000000;stroke-width:0.5;" x="176.006736645" xlink:href="#m70fdd03d26" y="388.8"/>
      </g>
     </g>
     <g id="line2d_27">
      <g>
       <use style="stroke:#000000;stroke-width:0.5;" x="176.006736645" xlink:href="#m54e3eeff24" y="43.2"/>
      </g>
     </g>
    </g>
    <g id="xtick_9">
     <g id="line2d_28">
      <g>
       <use style="stroke:#000000;stroke-width:0.5;" x="187.788906057" xlink:href="#m70fdd03d26" y="388.8"/>
      </g>
     </g>
     <g id="line2d_29">
      <g>
       <use style="stroke:#000000;stroke-width:0.5;" x="187.788906057" xlink:href="#m54e3eeff24" y="43.2"/>
      </g>
     </g>
    </g>
    <g id="xtick_10">
     <g id="line2d_30">
      <g>
       <use style="stroke:#000000;stroke-width:0.5;" x="197.750588354" xlink:href="#m70fdd03d26" y="388.8"/>
      </g>
     </g>
     <g id="line2d_31">
      <g>
       <use style="stroke:#000000;stroke-width:0.5;" x="197.750588354" xlink:href="#m54e3eeff24" y="43.2"/>
      </g>
     </g>
    </g>
    <g id="xtick_11">
     <g id="line2d_32">
      <g>
       <use style="stroke:#000000;stroke-width:0.5;" x="206.379790064" xlink:href="#m70fdd03d26" y="388.8"/>
      </g>
     </g>
     <g id="line2d_33">
      <g>
       <use style="stroke:#000000;stroke-width:0.5;" x="206.379790064" xlink:href="#m54e3eeff24" y="43.2"/>
      </g>
     </g>
    </g>
    <g id="xtick_12">
     <g id="line2d_34">
      <g>
       <use style="stroke:#000000;stroke-width:0.5;" x="213.991285405" xlink:href="#m70fdd03d26" y="388.8"/>
      </g>
     </g>
     <g id="line2d_35">
      <g>
       <use style="stroke:#000000;stroke-width:0.5;" x="213.991285405" xlink:href="#m54e3eeff24" y="43.2"/>
      </g>
     </g>
    </g>
    <g id="xtick_13">
     <g id="line2d_36">
      <g>
       <use style="stroke:#000000;stroke-width:0.5;" x="265.593263355" xlink:href="#m70fdd03d26" y="388.8"/>
      </g>
     </g>
     <g id="line2d_37">
      <g>
       <use style="stroke:#000000;stroke-width:0.5;" x="265.593263355" xlink:href="#m54e3eeff24" y="43.2"/>
      </g>
     </g>
    </g>
    <g id="xtick_14">
     <g id="line2d_38">
      <g>
       <use style="stroke:#000000;stroke-width:0.5;" x="291.795642702" xlink:href="#m70fdd03d26" y="388.8"/>
      </g>
     </g>
     <g id="line2d_39">
      <g>
       <use style="stroke:#000000;stroke-width:0.5;" x="291.795642702" xlink:href="#m54e3eeff24" y="43.2"/>
      </g>
     </g>
    </g>
    <g id="xtick_15">
     <g id="line2d_40">
      <g>
       <use style="stroke:#000000;stroke-width:0.5;" x="310.38652671" xlink:href="#m70fdd03d26" y="388.8"/>
      </g>
     </g>
     <g id="line2d_41">
      <g>
       <use style="stroke:#000000;stroke-width:0.5;" x="310.38652671" xlink:href="#m54e3eeff24" y="43.2"/>
      </g>
     </g>
    </g>
    <g id="xtick_16">
     <g id="line2d_42">
      <g>
       <use style="stroke:#000000;stroke-width:0.5;" x="324.806736645" xlink:href="#m70fdd03d26" y="388.8"/>
      </g>
     </g>
     <g id="line2d_43">
      <g>
       <use style="stroke:#000000;stroke-width:0.5;" x="324.806736645" xlink:href="#m54e3eeff24" y="43.2"/>
      </g>
     </g>
    </g>
    <g id="xtick_17">
     <g id="line2d_44">
      <g>
       <use style="stroke:#000000;stroke-width:0.5;" x="336.588906057" xlink:href="#m70fdd03d26" y="388.8"/>
      </g>
     </g>
     <g id="line2d_45">
      <g>
       <use style="stroke:#000000;stroke-width:0.5;" x="336.588906057" xlink:href="#m54e3eeff24" y="43.2"/>
      </g>
     </g>
    </g>
    <g id="xtick_18">
     <g id="line2d_46">
      <g>
       <use style="stroke:#000000;stroke-width:0.5;" x="346.550588354" xlink:href="#m70fdd03d26" y="388.8"/>
      </g>
     </g>
     <g id="line2d_47">
      <g>
       <use style="stroke:#000000;stroke-width:0.5;" x="346.550588354" xlink:href="#m54e3eeff24" y="43.2"/>
      </g>
     </g>
    </g>
    <g id="xtick_19">
     <g id="line2d_48">
      <g>
       <use style="stroke:#000000;stroke-width:0.5;" x="355.179790064" xlink:href="#m70fdd03d26" y="388.8"/>
      </g>
     </g>
     <g id="line2d_49">
      <g>
       <use style="stroke:#000000;stroke-width:0.5;" x="355.179790064" xlink:href="#m54e3eeff24" y="43.2"/>
      </g>
     </g>
    </g>
    <g id="xtick_20">
     <g id="line2d_50">
      <g>
       <use style="stroke:#000000;stroke-width:0.5;" x="362.791285405" xlink:href="#m70fdd03d26" y="388.8"/>
      </g>
     </g>
     <g id="line2d_51">
      <g>
       <use style="stroke:#000000;stroke-width:0.5;" x="362.791285405" xlink:href="#m54e3eeff24" y="43.2"/>
      </g>
     </g>
    </g>
    <g id="xtick_21">
     <g id="line2d_52">
      <g>
       <use style="stroke:#000000;stroke-width:0.5;" x="414.393263355" xlink:href="#m70fdd03d26" y="388.8"/>
      </g>
     </g>
     <g id="line2d_53">
      <g>
       <use style="stroke:#000000;stroke-width:0.5;" x="414.393263355" xlink:href="#m54e3eeff24" y="43.2"/>
      </g>
     </g>
    </g>
    <g id="xtick_22">
     <g id="line2d_54">
      <g>
       <use style="stroke:#000000;stroke-width:0.5;" x="440.595642702" xlink:href="#m70fdd03d26" y="388.8"/>
      </g>
     </g>
     <g id="line2d_55">
      <g>
       <use style="stroke:#000000;stroke-width:0.5;" x="440.595642702" xlink:href="#m54e3eeff24" y="43.2"/>
      </g>
     </g>
    </g>
    <g id="xtick_23">
     <g id="line2d_56">
      <g>
       <use style="stroke:#000000;stroke-width:0.5;" x="459.18652671" xlink:href="#m70fdd03d26" y="388.8"/>
      </g>
     </g>
     <g id="line2d_57">
      <g>
       <use style="stroke:#000000;stroke-width:0.5;" x="459.18652671" xlink:href="#m54e3eeff24" y="43.2"/>
      </g>
     </g>
    </g>
    <g id="xtick_24">
     <g id="line2d_58">
      <g>
       <use style="stroke:#000000;stroke-width:0.5;" x="473.606736645" xlink:href="#m70fdd03d26" y="388.8"/>
      </g>
     </g>
     <g id="line2d_59">
      <g>
       <use style="stroke:#000000;stroke-width:0.5;" x="473.606736645" xlink:href="#m54e3eeff24" y="43.2"/>
      </g>
     </g>
    </g>
    <g id="xtick_25">
     <g id="line2d_60">
      <g>
       <use style="stroke:#000000;stroke-width:0.5;" x="485.388906057" xlink:href="#m70fdd03d26" y="388.8"/>
      </g>
     </g>
     <g id="line2d_61">
      <g>
       <use style="stroke:#000000;stroke-width:0.5;" x="485.388906057" xlink:href="#m54e3eeff24" y="43.2"/>
      </g>
     </g>
    </g>
    <g id="xtick_26">
     <g id="line2d_62">
      <g>
       <use style="stroke:#000000;stroke-width:0.5;" x="495.350588354" xlink:href="#m70fdd03d26" y="388.8"/>
      </g>
     </g>
     <g id="line2d_63">
      <g>
       <use style="stroke:#000000;stroke-width:0.5;" x="495.350588354" xlink:href="#m54e3eeff24" y="43.2"/>
      </g>
     </g>
    </g>
    <g id="xtick_27">
     <g id="line2d_64">
      <g>
       <use style="stroke:#000000;stroke-width:0.5;" x="503.979790064" xlink:href="#m70fdd03d26" y="388.8"/>
      </g>
     </g>
     <g id="line2d_65">
      <g>
       <use style="stroke:#000000;stroke-width:0.5;" x="503.979790064" xlink:href="#m54e3eeff24" y="43.2"/>
      </g>
     </g>
    </g>
    <g id="xtick_28">
     <g id="line2d_66">
      <g>
       <use style="stroke:#000000;stroke-width:0.5;" x="511.591285405" xlink:href="#m70fdd03d26" y="388.8"/>
      </g>
     </g>
     <g id="line2d_67">
      <g>
       <use style="stroke:#000000;stroke-width:0.5;" x="511.591285405" xlink:href="#m54e3eeff24" y="43.2"/>
      </g>
     </g>
    </g>
   </g>
   <g id="matplotlib.axis_2">
    <g id="ytick_1">
     <g id="line2d_68">
      <defs>
       <path d="M 0 0 
L 4 0 
" id="m022d1e2aae" style="stroke:#000000;stroke-width:0.5;"/>
      </defs>
      <g>
       <use style="stroke:#000000;stroke-width:0.5;" x="72.0" xlink:href="#m022d1e2aae" y="388.8"/>
      </g>
     </g>
     <g id="line2d_69">
      <defs>
       <path d="M 0 0 
L -4 0 
" id="m437d3d8515" style="stroke:#000000;stroke-width:0.5;"/>
      </defs>
      <g>
       <use style="stroke:#000000;stroke-width:0.5;" x="518.4" xlink:href="#m437d3d8515" y="388.8"/>
      </g>
     </g>
     <g id="text_5">
      <!-- $\mathdefault{10^{-4}}$ -->
      <defs>
       <path d="M 37.796875 64.3125 
L 12.890625 25.390625 
L 37.796875 25.390625 
z
M 35.203125 72.90625 
L 47.609375 72.90625 
L 47.609375 25.390625 
L 58.015625 25.390625 
L 58.015625 17.1875 
L 47.609375 17.1875 
L 47.609375 0 
L 37.796875 0 
L 37.796875 17.1875 
L 4.890625 17.1875 
L 4.890625 26.703125 
z
" id="BitstreamVeraSans-Roman-34"/>
      </defs>
      <g transform="translate(42.68 392.364375)scale(0.12 -0.12)">
       <use transform="translate(0.0 0.7156250000000028)" xlink:href="#BitstreamVeraSans-Roman-31"/>
       <use transform="translate(63.623046875 0.7156250000000028)" xlink:href="#BitstreamVeraSans-Roman-30"/>
       <use transform="translate(132.75859375 47.965625)scale(0.7)" xlink:href="#BitstreamVeraSans-Roman-2d"/>
       <use transform="translate(158.0173828125 47.965625)scale(0.7)" xlink:href="#BitstreamVeraSans-Roman-34"/>
      </g>
     </g>
    </g>
    <g id="ytick_2">
     <g id="line2d_70">
      <g>
       <use style="stroke:#000000;stroke-width:0.5;" x="72.0" xlink:href="#m022d1e2aae" y="302.4"/>
      </g>
     </g>
     <g id="line2d_71">
      <g>
       <use style="stroke:#000000;stroke-width:0.5;" x="518.4" xlink:href="#m437d3d8515" y="302.4"/>
      </g>
     </g>
     <g id="text_6">
      <!-- $\mathdefault{10^{-3}}$ -->
      <g transform="translate(42.68 306.024375)scale(0.12 -0.12)">
       <use transform="translate(0.0 0.796875)" xlink:href="#BitstreamVeraSans-Roman-31"/>
       <use transform="translate(63.623046875 0.796875)" xlink:href="#BitstreamVeraSans-Roman-30"/>
       <use transform="translate(132.75859375 48.046875)scale(0.7)" xlink:href="#BitstreamVeraSans-Roman-2d"/>
       <use transform="translate(158.0173828125 48.046875)scale(0.7)" xlink:href="#BitstreamVeraSans-Roman-33"/>
      </g>
     </g>
    </g>
    <g id="ytick_3">
     <g id="line2d_72">
      <g>
       <use style="stroke:#000000;stroke-width:0.5;" x="72.0" xlink:href="#m022d1e2aae" y="216.0"/>
      </g>
     </g>
     <g id="line2d_73">
      <g>
       <use style="stroke:#000000;stroke-width:0.5;" x="518.4" xlink:href="#m437d3d8515" y="216.0"/>
      </g>
     </g>
     <g id="text_7">
      <!-- $\mathdefault{10^{-2}}$ -->
      <g transform="translate(42.68 219.624375)scale(0.12 -0.12)">
       <use transform="translate(0.0 0.796875)" xlink:href="#BitstreamVeraSans-Roman-31"/>
       <use transform="translate(63.623046875 0.796875)" xlink:href="#BitstreamVeraSans-Roman-30"/>
       <use transform="translate(132.75859375 48.046875)scale(0.7)" xlink:href="#BitstreamVeraSans-Roman-2d"/>
       <use transform="translate(158.0173828125 48.046875)scale(0.7)" xlink:href="#BitstreamVeraSans-Roman-32"/>
      </g>
     </g>
    </g>
    <g id="ytick_4">
     <g id="line2d_74">
      <g>
       <use style="stroke:#000000;stroke-width:0.5;" x="72.0" xlink:href="#m022d1e2aae" y="129.6"/>
      </g>
     </g>
     <g id="line2d_75">
      <g>
       <use style="stroke:#000000;stroke-width:0.5;" x="518.4" xlink:href="#m437d3d8515" y="129.6"/>
      </g>
     </g>
     <g id="text_8">
      <!-- $\mathdefault{10^{-1}}$ -->
      <g transform="translate(42.68 133.164375)scale(0.12 -0.12)">
       <use transform="translate(0.0 0.7156250000000028)" xlink:href="#BitstreamVeraSans-Roman-31"/>
       <use transform="translate(63.623046875 0.7156250000000028)" xlink:href="#BitstreamVeraSans-Roman-30"/>
       <use transform="translate(132.75859375 47.965625)scale(0.7)" xlink:href="#BitstreamVeraSans-Roman-2d"/>
       <use transform="translate(158.0173828125 47.965625)scale(0.7)" xlink:href="#BitstreamVeraSans-Roman-31"/>
      </g>
     </g>
    </g>
    <g id="ytick_5">
     <g id="line2d_76">
      <defs>
       <path d="M 0 0 
L 2 0 
" id="m869507192b" style="stroke:#000000;stroke-width:0.5;"/>
      </defs>
      <g>
       <use style="stroke:#000000;stroke-width:0.5;" x="72.0" xlink:href="#m869507192b" y="362.791008375"/>
      </g>
     </g>
     <g id="line2d_77">
      <defs>
       <path d="M 0 0 
L -2 0 
" id="mbee5294e89" style="stroke:#000000;stroke-width:0.5;"/>
      </defs>
      <g>
       <use style="stroke:#000000;stroke-width:0.5;" x="518.4" xlink:href="#mbee5294e89" y="362.791008375"/>
      </g>
     </g>
    </g>
    <g id="ytick_6">
     <g id="line2d_78">
      <g>
       <use style="stroke:#000000;stroke-width:0.5;" x="72.0" xlink:href="#m869507192b" y="347.576723592"/>
      </g>
     </g>
     <g id="line2d_79">
      <g>
       <use style="stroke:#000000;stroke-width:0.5;" x="518.4" xlink:href="#mbee5294e89" y="347.576723592"/>
      </g>
     </g>
    </g>
    <g id="ytick_7">
     <g id="line2d_80">
      <g>
       <use style="stroke:#000000;stroke-width:0.5;" x="72.0" xlink:href="#m869507192b" y="336.782016749"/>
      </g>
     </g>
     <g id="line2d_81">
      <g>
       <use style="stroke:#000000;stroke-width:0.5;" x="518.4" xlink:href="#mbee5294e89" y="336.782016749"/>
      </g>
     </g>
    </g>
    <g id="ytick_8">
     <g id="line2d_82">
      <g>
       <use style="stroke:#000000;stroke-width:0.5;" x="72.0" xlink:href="#m869507192b" y="328.408991625"/>
      </g>
     </g>
     <g id="line2d_83">
      <g>
       <use style="stroke:#000000;stroke-width:0.5;" x="518.4" xlink:href="#mbee5294e89" y="328.408991625"/>
      </g>
     </g>
    </g>
    <g id="ytick_9">
     <g id="line2d_84">
      <g>
       <use style="stroke:#000000;stroke-width:0.5;" x="72.0" xlink:href="#m869507192b" y="321.567731967"/>
      </g>
     </g>
     <g id="line2d_85">
      <g>
       <use style="stroke:#000000;stroke-width:0.5;" x="518.4" xlink:href="#mbee5294e89" y="321.567731967"/>
      </g>
     </g>
    </g>
    <g id="ytick_10">
     <g id="line2d_86">
      <g>
       <use style="stroke:#000000;stroke-width:0.5;" x="72.0" xlink:href="#m869507192b" y="315.783529343"/>
      </g>
     </g>
     <g id="line2d_87">
      <g>
       <use style="stroke:#000000;stroke-width:0.5;" x="518.4" xlink:href="#mbee5294e89" y="315.783529343"/>
      </g>
     </g>
    </g>
    <g id="ytick_11">
     <g id="line2d_88">
      <g>
       <use style="stroke:#000000;stroke-width:0.5;" x="72.0" xlink:href="#m869507192b" y="310.773025124"/>
      </g>
     </g>
     <g id="line2d_89">
      <g>
       <use style="stroke:#000000;stroke-width:0.5;" x="518.4" xlink:href="#mbee5294e89" y="310.773025124"/>
      </g>
     </g>
    </g>
    <g id="ytick_12">
     <g id="line2d_90">
      <g>
       <use style="stroke:#000000;stroke-width:0.5;" x="72.0" xlink:href="#m869507192b" y="306.353447184"/>
      </g>
     </g>
     <g id="line2d_91">
      <g>
       <use style="stroke:#000000;stroke-width:0.5;" x="518.4" xlink:href="#mbee5294e89" y="306.353447184"/>
      </g>
     </g>
    </g>
    <g id="ytick_13">
     <g id="line2d_92">
      <g>
       <use style="stroke:#000000;stroke-width:0.5;" x="72.0" xlink:href="#m869507192b" y="276.391008375"/>
      </g>
     </g>
     <g id="line2d_93">
      <g>
       <use style="stroke:#000000;stroke-width:0.5;" x="518.4" xlink:href="#mbee5294e89" y="276.391008375"/>
      </g>
     </g>
    </g>
    <g id="ytick_14">
     <g id="line2d_94">
      <g>
       <use style="stroke:#000000;stroke-width:0.5;" x="72.0" xlink:href="#m869507192b" y="261.176723592"/>
      </g>
     </g>
     <g id="line2d_95">
      <g>
       <use style="stroke:#000000;stroke-width:0.5;" x="518.4" xlink:href="#mbee5294e89" y="261.176723592"/>
      </g>
     </g>
    </g>
    <g id="ytick_15">
     <g id="line2d_96">
      <g>
       <use style="stroke:#000000;stroke-width:0.5;" x="72.0" xlink:href="#m869507192b" y="250.382016749"/>
      </g>
     </g>
     <g id="line2d_97">
      <g>
       <use style="stroke:#000000;stroke-width:0.5;" x="518.4" xlink:href="#mbee5294e89" y="250.382016749"/>
      </g>
     </g>
    </g>
    <g id="ytick_16">
     <g id="line2d_98">
      <g>
       <use style="stroke:#000000;stroke-width:0.5;" x="72.0" xlink:href="#m869507192b" y="242.008991625"/>
      </g>
     </g>
     <g id="line2d_99">
      <g>
       <use style="stroke:#000000;stroke-width:0.5;" x="518.4" xlink:href="#mbee5294e89" y="242.008991625"/>
      </g>
     </g>
    </g>
    <g id="ytick_17">
     <g id="line2d_100">
      <g>
       <use style="stroke:#000000;stroke-width:0.5;" x="72.0" xlink:href="#m869507192b" y="235.167731967"/>
      </g>
     </g>
     <g id="line2d_101">
      <g>
       <use style="stroke:#000000;stroke-width:0.5;" x="518.4" xlink:href="#mbee5294e89" y="235.167731967"/>
      </g>
     </g>
    </g>
    <g id="ytick_18">
     <g id="line2d_102">
      <g>
       <use style="stroke:#000000;stroke-width:0.5;" x="72.0" xlink:href="#m869507192b" y="229.383529343"/>
      </g>
     </g>
     <g id="line2d_103">
      <g>
       <use style="stroke:#000000;stroke-width:0.5;" x="518.4" xlink:href="#mbee5294e89" y="229.383529343"/>
      </g>
     </g>
    </g>
    <g id="ytick_19">
     <g id="line2d_104">
      <g>
       <use style="stroke:#000000;stroke-width:0.5;" x="72.0" xlink:href="#m869507192b" y="224.373025124"/>
      </g>
     </g>
     <g id="line2d_105">
      <g>
       <use style="stroke:#000000;stroke-width:0.5;" x="518.4" xlink:href="#mbee5294e89" y="224.373025124"/>
      </g>
     </g>
    </g>
    <g id="ytick_20">
     <g id="line2d_106">
      <g>
       <use style="stroke:#000000;stroke-width:0.5;" x="72.0" xlink:href="#m869507192b" y="219.953447184"/>
      </g>
     </g>
     <g id="line2d_107">
      <g>
       <use style="stroke:#000000;stroke-width:0.5;" x="518.4" xlink:href="#mbee5294e89" y="219.953447184"/>
      </g>
     </g>
    </g>
    <g id="ytick_21">
     <g id="line2d_108">
      <g>
       <use style="stroke:#000000;stroke-width:0.5;" x="72.0" xlink:href="#m869507192b" y="189.991008375"/>
      </g>
     </g>
     <g id="line2d_109">
      <g>
       <use style="stroke:#000000;stroke-width:0.5;" x="518.4" xlink:href="#mbee5294e89" y="189.991008375"/>
      </g>
     </g>
    </g>
    <g id="ytick_22">
     <g id="line2d_110">
      <g>
       <use style="stroke:#000000;stroke-width:0.5;" x="72.0" xlink:href="#m869507192b" y="174.776723592"/>
      </g>
     </g>
     <g id="line2d_111">
      <g>
       <use style="stroke:#000000;stroke-width:0.5;" x="518.4" xlink:href="#mbee5294e89" y="174.776723592"/>
      </g>
     </g>
    </g>
    <g id="ytick_23">
     <g id="line2d_112">
      <g>
       <use style="stroke:#000000;stroke-width:0.5;" x="72.0" xlink:href="#m869507192b" y="163.982016749"/>
      </g>
     </g>
     <g id="line2d_113">
      <g>
       <use style="stroke:#000000;stroke-width:0.5;" x="518.4" xlink:href="#mbee5294e89" y="163.982016749"/>
      </g>
     </g>
    </g>
    <g id="ytick_24">
     <g id="line2d_114">
      <g>
       <use style="stroke:#000000;stroke-width:0.5;" x="72.0" xlink:href="#m869507192b" y="155.608991625"/>
      </g>
     </g>
     <g id="line2d_115">
      <g>
       <use style="stroke:#000000;stroke-width:0.5;" x="518.4" xlink:href="#mbee5294e89" y="155.608991625"/>
      </g>
     </g>
    </g>
    <g id="ytick_25">
     <g id="line2d_116">
      <g>
       <use style="stroke:#000000;stroke-width:0.5;" x="72.0" xlink:href="#m869507192b" y="148.767731967"/>
      </g>
     </g>
     <g id="line2d_117">
      <g>
       <use style="stroke:#000000;stroke-width:0.5;" x="518.4" xlink:href="#mbee5294e89" y="148.767731967"/>
      </g>
     </g>
    </g>
    <g id="ytick_26">
     <g id="line2d_118">
      <g>
       <use style="stroke:#000000;stroke-width:0.5;" x="72.0" xlink:href="#m869507192b" y="142.983529343"/>
      </g>
     </g>
     <g id="line2d_119">
      <g>
       <use style="stroke:#000000;stroke-width:0.5;" x="518.4" xlink:href="#mbee5294e89" y="142.983529343"/>
      </g>
     </g>
    </g>
    <g id="ytick_27">
     <g id="line2d_120">
      <g>
       <use style="stroke:#000000;stroke-width:0.5;" x="72.0" xlink:href="#m869507192b" y="137.973025124"/>
      </g>
     </g>
     <g id="line2d_121">
      <g>
       <use style="stroke:#000000;stroke-width:0.5;" x="518.4" xlink:href="#mbee5294e89" y="137.973025124"/>
      </g>
     </g>
    </g>
    <g id="ytick_28">
     <g id="line2d_122">
      <g>
       <use style="stroke:#000000;stroke-width:0.5;" x="72.0" xlink:href="#m869507192b" y="133.553447184"/>
      </g>
     </g>
     <g id="line2d_123">
      <g>
       <use style="stroke:#000000;stroke-width:0.5;" x="518.4" xlink:href="#mbee5294e89" y="133.553447184"/>
      </g>
     </g>
    </g>
    <g id="ytick_29">
     <g id="line2d_124">
      <g>
       <use style="stroke:#000000;stroke-width:0.5;" x="72.0" xlink:href="#m869507192b" y="103.591008375"/>
      </g>
     </g>
     <g id="line2d_125">
      <g>
       <use style="stroke:#000000;stroke-width:0.5;" x="518.4" xlink:href="#mbee5294e89" y="103.591008375"/>
      </g>
     </g>
    </g>
    <g id="ytick_30">
     <g id="line2d_126">
      <g>
       <use style="stroke:#000000;stroke-width:0.5;" x="72.0" xlink:href="#m869507192b" y="88.3767235922"/>
      </g>
     </g>
     <g id="line2d_127">
      <g>
       <use style="stroke:#000000;stroke-width:0.5;" x="518.4" xlink:href="#mbee5294e89" y="88.3767235922"/>
      </g>
     </g>
    </g>
    <g id="ytick_31">
     <g id="line2d_128">
      <g>
       <use style="stroke:#000000;stroke-width:0.5;" x="72.0" xlink:href="#m869507192b" y="77.5820167492"/>
      </g>
     </g>
     <g id="line2d_129">
      <g>
       <use style="stroke:#000000;stroke-width:0.5;" x="518.4" xlink:href="#mbee5294e89" y="77.5820167492"/>
      </g>
     </g>
    </g>
    <g id="ytick_32">
     <g id="line2d_130">
      <g>
       <use style="stroke:#000000;stroke-width:0.5;" x="72.0" xlink:href="#m869507192b" y="69.2089916253"/>
      </g>
     </g>
     <g id="line2d_131">
      <g>
       <use style="stroke:#000000;stroke-width:0.5;" x="518.4" xlink:href="#mbee5294e89" y="69.2089916253"/>
      </g>
     </g>
    </g>
    <g id="ytick_33">
     <g id="line2d_132">
      <g>
       <use style="stroke:#000000;stroke-width:0.5;" x="72.0" xlink:href="#m869507192b" y="62.3677319668"/>
      </g>
     </g>
     <g id="line2d_133">
      <g>
       <use style="stroke:#000000;stroke-width:0.5;" x="518.4" xlink:href="#mbee5294e89" y="62.3677319668"/>
      </g>
     </g>
    </g>
    <g id="ytick_34">
     <g id="line2d_134">
      <g>
       <use style="stroke:#000000;stroke-width:0.5;" x="72.0" xlink:href="#m869507192b" y="56.5835293427"/>
      </g>
     </g>
     <g id="line2d_135">
      <g>
       <use style="stroke:#000000;stroke-width:0.5;" x="518.4" xlink:href="#mbee5294e89" y="56.5835293427"/>
      </g>
     </g>
    </g>
    <g id="ytick_35">
     <g id="line2d_136">
      <g>
       <use style="stroke:#000000;stroke-width:0.5;" x="72.0" xlink:href="#m869507192b" y="51.5730251239"/>
      </g>
     </g>
     <g id="line2d_137">
      <g>
       <use style="stroke:#000000;stroke-width:0.5;" x="518.4" xlink:href="#mbee5294e89" y="51.5730251239"/>
      </g>
     </g>
    </g>
    <g id="ytick_36">
     <g id="line2d_138">
      <g>
       <use style="stroke:#000000;stroke-width:0.5;" x="72.0" xlink:href="#m869507192b" y="47.1534471844"/>
      </g>
     </g>
     <g id="line2d_139">
      <g>
       <use style="stroke:#000000;stroke-width:0.5;" x="518.4" xlink:href="#mbee5294e89" y="47.1534471844"/>
      </g>
     </g>
    </g>
   </g>
  </g>
 </g>
 <defs>
  <clipPath id="pd74f4d3f4d">
   <rect height="345.6" width="446.4" x="72.0" y="43.2"/>
  </clipPath>
 </defs>
</svg>
