<?xml version="1.0" encoding="utf-8" standalone="no"?>
<!DOCTYPE svg PUBLIC "-//W3C//DTD SVG 1.1//EN"
  "http://www.w3.org/Graphics/SVG/1.1/DTD/svg11.dtd">
<!-- Created with matplotlib (http://matplotlib.org/) -->
<svg height="432pt" version="1.1" viewBox="0 0 576 432" width="576pt" xmlns="http://www.w3.org/2000/svg" xmlns:xlink="http://www.w3.org/1999/xlink">
 <defs>
  <style type="text/css">
*{stroke-linecap:butt;stroke-linejoin:round;stroke-miterlimit:100000;}
  </style>
 </defs>
 <g id="figure_1">
  <g id="patch_1">
   <path d="M 0 432 
L 576 432 
L 576 0 
L 0 0 
z
" style="fill:#ffffff;"/>
  </g>
  <g id="axes_1">
   <g id="patch_2">
    <path d="M 72 388.8 
L 518.4 388.8 
L 518.4 43.2 
L 72 43.2 
z
" style="fill:#ffffff;"/>
   </g>
   <g id="line2d_1">
    <path clip-path="url(#p679bee5137)" d="M 72 107.775891 
L 82.696043 105.875616 
L 91.87059 105.482543 
L 99.903083 103.412049 
L 107.046633 106.776857 
L 113.478536 102.886119 
L 119.327824 100.158615 
L 124.691336 95.251992 
L 129.643606 82.094881 
L 134.243232 121.743518 
L 138.537115 105.257258 
L 142.56338 100.674259 
L 146.353438 97.193547 
L 149.933474 94.192426 
L 153.325548 90.399008 
L 156.548417 86.322724 
L 159.618161 81.41368 
L 162.548674 75.150506 
L 165.352039 66.198503 
L 168.038834 43.260847 
L 173.098871 43.202705 
L 184.247032 43.284193 
L 186.263165 70.778511 
L 188.218296 84.882909 
L 190.116009 95.021465 
L 191.95958 103.507337 
L 193.752013 110.829877 
L 197.194289 123.388815 
L 198.849023 128.755581 
L 202.036558 138.151617 
L 203.573241 142.015977 
L 205.07423 144.776313 
L 206.541146 146.982 
L 207.975501 148.090659 
L 209.37871 148.031635 
L 210.752096 146.635296 
L 212.096901 143.832233 
L 213.41429 139.922405 
L 220.8 65.149691 
L 231.496043 168.834183 
L 240.67059 173.597968 
L 248.703083 65.545032 
L 255.846633 217.085392 
L 262.278536 171.244152 
L 268.127824 132.060721 
L 273.491336 294.818221 
L 278.443606 164.460993 
L 283.043232 160.340954 
L 287.337115 242.670322 
L 291.36338 151.866952 
L 295.153438 180.902319 
L 298.733474 224.413286 
L 302.125548 129.568027 
L 305.348417 196.157554 
L 308.418161 212.401851 
L 311.348674 43.215932 
L 314.152039 209.959841 
L 316.838834 202.052417 
L 319.418365 131.119732 
L 321.898871 222.986191 
L 324.287673 192.919994 
L 326.591312 161.879239 
L 328.815651 231.07133 
L 330.965968 180.178215 
L 333.047032 180.095865 
L 335.063165 238.512391 
L 337.018296 162.910323 
L 338.916009 194.454629 
L 340.75958 238.366889 
L 342.552013 126.705469 
L 344.296068 206.987624 
L 345.994289 233.462404 
L 347.649023 113.237087 
L 349.262442 217.335503 
L 350.836558 223.899542 
L 352.373241 162.249187 
L 353.87423 227.593515 
L 355.341146 211.422428 
L 356.775501 184.142388 
L 358.17871 236.759595 
L 359.552096 195.647658 
L 360.896901 199.130004 
L 362.21429 247.738256 
L 369.6 257.684563 
L 380.296043 217.648317 
L 389.47059 312.2829 
L 397.503083 251.085433 
L 404.646633 243.14964 
L 411.078536 282.771642 
L 416.927824 162.728077 
L 422.291336 327.200939 
L 427.243606 203.816057 
L 431.843232 315.419475 
L 436.137115 232.705779 
L 440.16338 281.523876 
L 443.953438 250.315454 
L 447.533474 256.841503 
L 450.925548 264.495752 
L 454.148417 227.905322 
L 457.218161 277.548368 
L 460.148674 145.492417 
L 462.952039 288.422601 
L 465.638834 217.706855 
L 468.218365 294.78991 
L 470.698871 247.998855 
L 473.087673 294.97468 
L 475.391312 265.065268 
L 477.615651 291.131331 
L 479.765968 275.572599 
L 481.847032 283.027464 
L 483.863165 281.924726 
L 485.818296 163.770254 
L 487.716009 285.50389 
L 489.55958 281.906269 
L 491.352013 287.664135 
L 493.096068 295.368979 
L 494.794289 288.465516 
L 496.449023 305.667454 
L 498.062442 281.411716 
L 499.636558 315.29573 
L 501.173241 260.36312 
L 502.67423 317.736688 
L 504.141146 156.245395 
L 505.575501 315.454889 
L 506.97871 257.734551 
L 508.352096 302.732558 
L 509.696901 279.697185 
L 511.01429 283.510841 
L 512.305359 297.619432 
L 513.571139 260.433149 
L 514.812601 317.348501 
L 516.030663 226.437707 
L 517.226189 323.93847 
L 517.226189 323.93847 
" style="fill:none;stroke:#ff1e1e;stroke-linecap:square;"/>
   </g>
   <g id="line2d_2">
    <path clip-path="url(#p679bee5137)" d="M 72 186.226043 
L 82.696043 161.566751 
L 91.87059 173.153645 
L 99.903083 173.541262 
L 107.046633 175.00822 
L 113.478536 162.027329 
L 119.327824 168.155864 
L 124.691336 175.420926 
L 129.643606 178.248785 
L 134.243232 163.775144 
L 138.537115 181.698392 
L 142.56338 181.760858 
L 146.353438 172.721852 
L 149.933474 192.717971 
L 153.325548 191.504699 
L 156.548417 177.159411 
L 159.618161 164.866142 
L 162.548674 182.044499 
L 165.352039 193.7121 
L 168.038834 187.245603 
L 170.618365 172.874435 
L 173.098871 192.680801 
L 175.487673 184.510815 
L 177.791312 168.661997 
L 180.015651 176.924055 
L 182.165968 153.48962 
L 184.247032 197.395132 
L 186.263165 159.141329 
L 188.218296 162.964513 
L 190.116009 214.33506 
L 191.95958 173.10753 
L 193.752013 151.726778 
L 195.496068 172.069794 
L 197.194289 168.45714 
L 198.849023 170.044662 
L 200.462442 169.663691 
L 202.036558 157.531942 
L 203.573241 179.150245 
L 205.07423 178.741215 
L 206.541146 166.114362 
L 207.975501 255.983873 
L 209.37871 160.755432 
L 210.752096 179.328915 
L 212.096901 175.899155 
L 213.41429 170.907823 
L 220.8 179.073271 
L 231.496043 181.301992 
L 240.67059 159.667815 
L 248.703083 227.210049 
L 255.846633 201.143246 
L 262.278536 191.491003 
L 268.127824 201.898897 
L 273.491336 191.381042 
L 278.443606 192.32882 
L 283.043232 202.40733 
L 287.337115 235.382727 
L 291.36338 180.005626 
L 295.153438 190.136313 
L 298.733474 193.890786 
L 302.125548 256.196424 
L 305.348417 196.248955 
L 308.418161 214.252101 
L 311.348674 202.445648 
L 314.152039 222.710092 
L 316.838834 217.787994 
L 319.418365 166.139464 
L 321.898871 196.528369 
L 324.287673 185.107595 
L 326.591312 205.005334 
L 328.815651 209.628833 
L 330.965968 206.917581 
L 333.047032 200.635641 
L 335.063165 204.083501 
L 337.018296 187.011842 
L 338.916009 219.189181 
L 340.75958 229.651628 
L 342.552013 214.246923 
L 344.296068 195.81674 
L 345.994289 224.05729 
L 347.649023 258.363461 
L 349.262442 173.569125 
L 350.836558 192.273175 
L 352.373241 190.125524 
L 353.87423 200.237893 
L 355.341146 239.086081 
L 356.775501 204.709316 
L 358.17871 211.579182 
L 359.552096 196.277817 
L 360.896901 205.250018 
L 362.21429 196.320386 
L 369.6 224.93717 
L 380.296043 201.999873 
L 389.47059 228.060692 
L 397.503083 185.140994 
L 404.646633 196.947548 
L 411.078536 269.65447 
L 416.927824 193.270255 
L 422.291336 227.440357 
L 427.243606 252.498094 
L 431.843232 199.911657 
L 436.137115 238.399789 
L 440.16338 201.297189 
L 443.953438 225.291253 
L 447.533474 206.978123 
L 450.925548 196.191704 
L 454.148417 209.56259 
L 457.218161 289.0264 
L 460.148674 187.425803 
L 462.952039 221.886109 
L 465.638834 224.112261 
L 468.218365 203.123012 
L 470.698871 200.295401 
L 473.087673 209.621659 
L 475.391312 197.003449 
L 477.615651 240.423155 
L 479.765968 242.617982 
L 481.847032 230.153682 
L 483.863165 189.908532 
L 485.818296 179.329034 
L 487.716009 172.949819 
L 489.55958 174.022951 
L 491.352013 202.349584 
L 493.096068 213.437161 
L 494.794289 186.254042 
L 496.449023 258.659929 
L 498.062442 239.219622 
L 499.636558 183.513012 
L 501.173241 204.22026 
L 502.67423 191.417671 
L 504.141146 181.813113 
L 505.575501 217.239618 
L 508.352096 184.214689 
L 509.696901 177.585428 
L 511.01429 206.755533 
L 512.305359 223.676026 
L 513.571139 213.231988 
L 514.812601 190.636042 
L 516.030663 196.312645 
L 517.226189 198.97579 
L 517.226189 198.97579 
" style="fill:none;stroke:#581845;stroke-linecap:square;"/>
   </g>
   <g id="line2d_3">
    <path clip-path="url(#p679bee5137)" d="M 72 141.259254 
L 82.696043 151.48096 
L 91.87059 150.620517 
L 99.903083 150.541596 
L 107.046633 159.707872 
L 113.478536 157.64122 
L 119.327824 151.246219 
L 124.691336 139.82512 
L 129.643606 144.8037 
L 134.243232 147.09845 
L 138.537115 154.263906 
L 142.56338 141.116018 
L 149.933474 155.883503 
L 153.325548 147.690429 
L 156.548417 163.593008 
L 159.618161 153.2964 
L 162.548674 144.567402 
L 165.352039 165.537064 
L 168.038834 149.295403 
L 170.618365 167.082671 
L 173.098871 165.974543 
L 175.487673 156.50665 
L 177.791312 157.060744 
L 180.015651 146.871909 
L 182.165968 146.960642 
L 184.247032 150.75842 
L 186.263165 158.131231 
L 188.218296 152.347276 
L 190.116009 155.904846 
L 191.95958 141.551614 
L 193.752013 149.448639 
L 195.496068 145.505087 
L 197.194289 151.543251 
L 198.849023 146.221036 
L 200.462442 159.119747 
L 202.036558 156.718175 
L 203.573241 153.805589 
L 206.541146 165.367358 
L 207.975501 149.755867 
L 209.37871 149.382064 
L 210.752096 171.021154 
L 212.096901 152.782332 
L 213.41429 151.597768 
L 220.8 155.074614 
L 231.496043 158.438803 
L 240.67059 148.661389 
L 248.703083 170.272731 
L 255.846633 168.743898 
L 262.278536 163.712743 
L 268.127824 183.175274 
L 273.491336 193.759384 
L 278.443606 168.794914 
L 283.043232 225.965279 
L 287.337115 185.838781 
L 291.36338 186.839742 
L 295.153438 211.379371 
L 298.733474 167.572496 
L 302.125548 187.595841 
L 305.348417 181.9411 
L 308.418161 207.559599 
L 311.348674 190.218684 
L 314.152039 184.826381 
L 316.838834 251.643281 
L 319.418365 160.839054 
L 321.898871 169.103922 
L 324.287673 164.063038 
L 326.591312 211.461779 
L 328.815651 191.916291 
L 330.965968 151.282573 
L 333.047032 198.155589 
L 335.063165 202.247971 
L 337.018296 214.199169 
L 338.916009 236.287495 
L 342.552013 156.905981 
L 344.296068 217.569459 
L 345.994289 186.422458 
L 347.649023 167.950877 
L 349.262442 221.091292 
L 350.836558 204.772961 
L 352.373241 237.280195 
L 353.87423 205.076894 
L 355.341146 186.259672 
L 356.775501 179.27995 
L 358.17871 186.242308 
L 359.552096 177.790064 
L 360.896901 183.666485 
L 362.21429 182.568448 
L 369.6 203.913787 
L 380.296043 257.787565 
L 389.47059 203.7737 
L 397.503083 179.419923 
L 404.646633 193.226631 
L 411.078536 199.661284 
L 416.927824 209.712654 
L 422.291336 177.572835 
L 427.243606 187.796381 
L 431.843232 174.748364 
L 436.137115 212.114939 
L 440.16338 200.069792 
L 443.953438 218.100327 
L 447.533474 197.121457 
L 450.925548 211.617513 
L 454.148417 187.187764 
L 457.218161 173.351765 
L 460.148674 255.450659 
L 462.952039 197.572051 
L 465.638834 214.430734 
L 468.218365 219.725937 
L 470.698871 183.352436 
L 473.087673 207.671689 
L 475.391312 205.85606 
L 477.615651 208.178688 
L 479.765968 188.638332 
L 481.847032 203.566735 
L 483.863165 176.813176 
L 485.818296 206.888963 
L 487.716009 168.979104 
L 489.55958 232.023754 
L 491.352013 188.154639 
L 493.096068 223.308698 
L 494.794289 195.102497 
L 496.449023 170.212829 
L 498.062442 207.173386 
L 499.636558 206.491592 
L 501.173241 192.48227 
L 502.67423 199.881571 
L 504.141146 195.947999 
L 505.575501 216.774947 
L 506.97871 200.357783 
L 508.352096 188.872579 
L 509.696901 189.296873 
L 511.01429 209.776115 
L 512.305359 183.495785 
L 513.571139 199.81734 
L 514.812601 204.553979 
L 516.030663 262.058468 
L 517.226189 197.866423 
L 517.226189 197.866423 
" style="fill:none;stroke:#26b7d8;stroke-linecap:square;"/>
   </g>
   <g id="line2d_4">
    <path clip-path="url(#p679bee5137)" d="M 72 122.084523 
L 82.696043 116.967222 
L 91.87059 121.905253 
L 99.903083 123.073491 
L 107.046633 126.640652 
L 113.478536 120.07418 
L 119.327824 122.928879 
L 124.691336 118.265009 
L 129.643606 125.581838 
L 134.243232 131.604714 
L 138.537115 119.571252 
L 142.56338 124.855153 
L 146.353438 122.441116 
L 149.933474 122.563699 
L 153.325548 117.243656 
L 156.548417 128.372132 
L 159.618161 123.83351 
L 162.548674 126.63437 
L 165.352039 123.878768 
L 168.038834 124.495252 
L 170.618365 129.175807 
L 173.098871 119.928996 
L 175.487673 120.537055 
L 177.791312 121.28372 
L 180.015651 129.823223 
L 182.165968 121.894635 
L 184.247032 123.077709 
L 186.263165 124.501017 
L 188.218296 124.158592 
L 190.116009 128.380576 
L 193.752013 118.745698 
L 195.496068 130.250115 
L 197.194289 128.152932 
L 198.849023 129.511835 
L 200.462442 133.527672 
L 202.036558 119.522872 
L 203.573241 129.770126 
L 205.07423 124.121165 
L 207.975501 129.959122 
L 209.37871 132.779535 
L 210.752096 127.987596 
L 212.096901 133.120676 
L 213.41429 135.214133 
L 220.8 132.056333 
L 231.496043 127.872363 
L 240.67059 134.108755 
L 248.703083 131.843751 
L 255.846633 149.18335 
L 262.278536 139.215714 
L 268.127824 148.957699 
L 273.491336 137.688756 
L 278.443606 137.683861 
L 283.043232 148.717442 
L 287.337115 137.349767 
L 291.36338 149.59163 
L 295.153438 139.415452 
L 298.733474 163.504277 
L 302.125548 148.438644 
L 305.348417 149.489592 
L 308.418161 150.337809 
L 311.348674 157.045996 
L 314.152039 141.25674 
L 316.838834 154.441349 
L 319.418365 165.351582 
L 321.898871 154.754833 
L 324.287673 161.920121 
L 326.591312 162.181305 
L 328.815651 147.509232 
L 330.965968 148.976396 
L 333.047032 151.129184 
L 335.063165 168.074526 
L 337.018296 147.343767 
L 338.916009 165.39255 
L 340.75958 185.184793 
L 342.552013 161.716057 
L 344.296068 160.923922 
L 345.994289 186.469657 
L 347.649023 167.34664 
L 349.262442 161.122653 
L 350.836558 161.826493 
L 352.373241 156.381031 
L 353.87423 166.953697 
L 355.341146 187.442234 
L 356.775501 174.084039 
L 358.17871 175.265348 
L 359.552096 173.628893 
L 360.896901 169.294784 
L 362.21429 207.469365 
L 369.6 178.836166 
L 380.296043 170.285383 
L 389.47059 147.80104 
L 397.503083 177.21118 
L 404.646633 172.040249 
L 411.078536 180.704218 
L 416.927824 194.418883 
L 422.291336 217.191293 
L 427.243606 175.734852 
L 431.843232 230.971363 
L 436.137115 175.864699 
L 440.16338 218.07823 
L 443.953438 185.493946 
L 447.533474 208.253527 
L 450.925548 204.309188 
L 454.148417 206.647094 
L 457.218161 194.838661 
L 460.148674 203.767289 
L 462.952039 183.941729 
L 465.638834 197.079544 
L 468.218365 179.793137 
L 470.698871 204.246242 
L 473.087673 187.767499 
L 475.391312 190.524821 
L 477.615651 214.510327 
L 479.765968 180.299695 
L 481.847032 198.500194 
L 483.863165 183.352242 
L 485.818296 205.762405 
L 487.716009 243.203329 
L 489.55958 203.544185 
L 491.352013 186.858703 
L 493.096068 201.13248 
L 494.794289 193.12587 
L 496.449023 186.476947 
L 498.062442 206.5173 
L 499.636558 194.254279 
L 501.173241 202.62843 
L 502.67423 220.311613 
L 504.141146 192.507938 
L 505.575501 221.092125 
L 506.97871 169.173681 
L 508.352096 178.319706 
L 509.696901 260.028455 
L 511.01429 178.645745 
L 512.305359 197.843493 
L 513.571139 222.062783 
L 514.812601 188.966899 
L 516.030663 221.332516 
L 517.226189 243.089958 
L 517.226189 243.089958 
" style="fill:none;stroke:#8414a4;stroke-linecap:square;"/>
   </g>
   <g id="line2d_5">
    <path clip-path="url(#p679bee5137)" d="M 72 116.981459 
L 82.696043 111.04498 
L 91.87059 112.104972 
L 99.903083 117.355034 
L 107.046633 113.239513 
L 113.478536 112.899261 
L 119.327824 110.165676 
L 124.691336 113.595838 
L 129.643606 110.211987 
L 134.243232 109.651712 
L 138.537115 109.747627 
L 142.56338 115.132602 
L 146.353438 115.639772 
L 149.933474 113.078937 
L 153.325548 113.862479 
L 156.548417 111.811558 
L 159.618161 112.736737 
L 162.548674 113.110845 
L 165.352039 110.322596 
L 168.038834 115.760446 
L 170.618365 119.153486 
L 173.098871 112.406598 
L 175.487673 116.240419 
L 177.791312 117.498047 
L 180.015651 113.261718 
L 182.165968 112.151287 
L 184.247032 115.731346 
L 186.263165 112.40805 
L 188.218296 112.031012 
L 190.116009 112.177771 
L 191.95958 116.888338 
L 193.752013 113.845101 
L 195.496068 115.185124 
L 197.194289 116.071317 
L 198.849023 116.685902 
L 200.462442 122.950698 
L 202.036558 117.439813 
L 203.573241 114.533384 
L 205.07423 118.04994 
L 206.541146 114.842994 
L 207.975501 122.054956 
L 209.37871 114.69343 
L 210.752096 116.848007 
L 212.096901 118.173089 
L 213.41429 116.065241 
L 220.8 118.573672 
L 231.496043 121.672349 
L 240.67059 121.054471 
L 248.703083 127.015033 
L 255.846633 125.614353 
L 262.278536 127.28512 
L 268.127824 125.095812 
L 273.491336 128.435646 
L 278.443606 126.748327 
L 283.043232 132.242187 
L 287.337115 133.162411 
L 291.36338 132.615811 
L 295.153438 134.471216 
L 298.733474 132.488881 
L 302.125548 132.612646 
L 305.348417 136.745163 
L 308.418161 133.500925 
L 311.348674 130.749257 
L 314.152039 131.173234 
L 316.838834 130.021843 
L 319.418365 130.658364 
L 321.898871 132.969222 
L 324.287673 144.538833 
L 326.591312 139.449659 
L 330.965968 146.602994 
L 333.047032 141.36591 
L 335.063165 149.930696 
L 337.018296 138.776982 
L 338.916009 145.160447 
L 340.75958 150.347271 
L 342.552013 151.461195 
L 344.296068 157.870271 
L 345.994289 159.370425 
L 347.649023 148.844566 
L 349.262442 153.281856 
L 350.836558 142.171249 
L 352.373241 144.593892 
L 353.87423 151.744106 
L 355.341146 197.339843 
L 356.775501 156.033126 
L 358.17871 148.746377 
L 359.552096 150.191427 
L 360.896901 158.928484 
L 362.21429 148.651949 
L 369.6 160.274972 
L 380.296043 156.421104 
L 389.47059 173.987142 
L 397.503083 174.145677 
L 404.646633 172.981273 
L 411.078536 208.628783 
L 416.927824 182.895785 
L 422.291336 183.379334 
L 427.243606 198.541177 
L 431.843232 185.44403 
L 436.137115 190.009863 
L 440.16338 181.274982 
L 443.953438 201.520614 
L 447.533474 238.90618 
L 450.925548 206.493426 
L 454.148417 155.771994 
L 457.218161 204.662896 
L 460.148674 219.564863 
L 462.952039 182.009007 
L 465.638834 172.042194 
L 468.218365 179.255411 
L 470.698871 173.335749 
L 473.087673 194.473017 
L 475.391312 245.668487 
L 477.615651 210.097437 
L 479.765968 194.191321 
L 481.847032 194.574103 
L 483.863165 231.120803 
L 485.818296 177.08299 
L 487.716009 207.481659 
L 489.55958 191.733047 
L 491.352013 180.580296 
L 493.096068 201.487232 
L 494.794289 206.040296 
L 496.449023 190.733988 
L 498.062442 205.429757 
L 499.636558 176.516745 
L 501.173241 205.77005 
L 502.67423 222.500538 
L 504.141146 172.632042 
L 505.575501 204.699019 
L 506.97871 197.023423 
L 508.352096 187.566419 
L 509.696901 194.246704 
L 511.01429 204.120353 
L 512.305359 179.984765 
L 513.571139 237.228931 
L 514.812601 189.028232 
L 516.030663 186.766569 
L 517.226189 185.148738 
L 517.226189 185.148738 
" style="fill:none;stroke:#ffd23a;stroke-linecap:square;"/>
   </g>
   <g id="line2d_6">
    <path clip-path="url(#p679bee5137)" d="M 72 102.773642 
L 82.696043 99.098344 
L 91.87059 99.871915 
L 99.903083 101.769905 
L 107.046633 101.22577 
L 113.478536 101.147986 
L 119.327824 100.161903 
L 124.691336 99.889339 
L 129.643606 98.495611 
L 134.243232 100.453836 
L 138.537115 109.766569 
L 142.56338 100.539383 
L 146.353438 102.214248 
L 149.933474 100.626673 
L 153.325548 105.15806 
L 156.548417 105.047715 
L 159.618161 107.994789 
L 162.548674 102.576388 
L 165.352039 101.645491 
L 168.038834 103.710694 
L 170.618365 105.953605 
L 173.098871 103.104869 
L 175.487673 110.073863 
L 177.791312 103.575904 
L 180.015651 105.528099 
L 182.165968 107.58617 
L 184.247032 107.231543 
L 186.263165 105.124262 
L 188.218296 103.725988 
L 190.116009 105.01826 
L 191.95958 106.933044 
L 193.752013 101.266774 
L 195.496068 106.244991 
L 197.194289 109.679068 
L 198.849023 107.08024 
L 200.462442 110.778348 
L 202.036558 109.866215 
L 203.573241 112.715642 
L 205.07423 108.078304 
L 206.541146 107.211809 
L 207.975501 111.159172 
L 209.37871 107.681864 
L 210.752096 109.824343 
L 212.096901 109.84079 
L 213.41429 107.392151 
L 220.8 113.672558 
L 231.496043 109.989868 
L 240.67059 114.886096 
L 248.703083 114.177179 
L 255.846633 120.1914 
L 262.278536 110.528942 
L 268.127824 113.895634 
L 273.491336 119.556368 
L 278.443606 116.865792 
L 283.043232 123.961395 
L 287.337115 125.925493 
L 291.36338 123.457417 
L 295.153438 116.081604 
L 298.733474 116.424125 
L 302.125548 121.355129 
L 305.348417 129.790785 
L 308.418161 121.875403 
L 311.348674 122.275322 
L 314.152039 128.442912 
L 316.838834 126.91854 
L 319.418365 128.494765 
L 321.898871 122.19212 
L 326.591312 129.546804 
L 328.815651 136.406402 
L 330.965968 121.601263 
L 333.047032 129.456906 
L 335.063165 133.884579 
L 337.018296 133.796339 
L 338.916009 125.57808 
L 340.75958 139.435164 
L 342.552013 130.222867 
L 344.296068 135.019025 
L 345.994289 143.411682 
L 347.649023 139.162706 
L 349.262442 140.892191 
L 350.836558 136.71749 
L 352.373241 135.055138 
L 353.87423 138.334135 
L 355.341146 132.725601 
L 356.775501 147.160442 
L 358.17871 137.484941 
L 359.552096 139.550701 
L 360.896901 134.295876 
L 362.21429 154.933055 
L 369.6 149.675111 
L 380.296043 139.749452 
L 389.47059 139.982312 
L 397.503083 158.3504 
L 404.646633 179.3642 
L 411.078536 186.267855 
L 416.927824 153.010651 
L 422.291336 163.962723 
L 427.243606 159.617767 
L 431.843232 151.135656 
L 436.137115 202.703695 
L 440.16338 192.83761 
L 443.953438 190.857912 
L 447.533474 187.228663 
L 450.925548 187.740698 
L 454.148417 167.869832 
L 457.218161 183.034466 
L 460.148674 176.068184 
L 462.952039 201.065764 
L 465.638834 185.188713 
L 468.218365 183.905716 
L 470.698871 156.000861 
L 473.087673 201.818827 
L 475.391312 252.841886 
L 477.615651 220.181467 
L 479.765968 202.5905 
L 481.847032 243.222891 
L 483.863165 199.788895 
L 485.818296 202.445047 
L 487.716009 213.101318 
L 489.55958 240.558927 
L 491.352013 175.032044 
L 493.096068 196.366312 
L 494.794289 196.015862 
L 496.449023 197.709799 
L 498.062442 213.549401 
L 499.636558 195.279999 
L 501.173241 190.919715 
L 502.67423 190.595432 
L 504.141146 207.543826 
L 505.575501 178.739251 
L 506.97871 173.211641 
L 508.352096 199.505875 
L 509.696901 211.163996 
L 512.305359 194.088632 
L 513.571139 187.598467 
L 514.812601 170.779141 
L 516.030663 175.631812 
L 517.226189 218.339191 
L 517.226189 218.339191 
" style="fill:none;stroke:#ff9300;stroke-linecap:square;"/>
   </g>
   <g id="line2d_7">
    <path clip-path="url(#p679bee5137)" d="M 72 97.874935 
L 82.696043 95.848378 
L 91.87059 96.146222 
L 99.903083 96.610584 
L 107.046633 94.744176 
L 113.478536 98.344433 
L 119.327824 101.15381 
L 124.691336 98.626422 
L 129.643606 97.611114 
L 134.243232 98.204036 
L 138.537115 96.992925 
L 142.56338 100.331202 
L 146.353438 95.835896 
L 149.933474 101.758661 
L 153.325548 98.503356 
L 156.548417 97.970316 
L 159.618161 98.187919 
L 162.548674 103.116927 
L 165.352039 96.433373 
L 168.038834 104.833187 
L 170.618365 100.946069 
L 173.098871 100.280988 
L 175.487673 101.314697 
L 177.791312 104.083724 
L 180.015651 98.356931 
L 182.165968 99.69403 
L 184.247032 101.512472 
L 186.263165 100.546296 
L 188.218296 99.924067 
L 190.116009 102.918636 
L 191.95958 100.466854 
L 193.752013 106.772233 
L 195.496068 100.981758 
L 197.194289 101.763953 
L 198.849023 99.142415 
L 200.462442 100.032043 
L 202.036558 101.149367 
L 203.573241 105.449408 
L 205.07423 108.165281 
L 206.541146 103.159349 
L 207.975501 103.975088 
L 209.37871 105.387201 
L 210.752096 103.398355 
L 212.096901 103.137088 
L 213.41429 101.41225 
L 220.8 105.896744 
L 231.496043 110.046671 
L 240.67059 111.426812 
L 248.703083 111.355697 
L 255.846633 111.899391 
L 262.278536 117.948661 
L 268.127824 109.978293 
L 273.491336 120.463623 
L 278.443606 115.878069 
L 283.043232 118.152705 
L 287.337115 116.92917 
L 291.36338 116.473686 
L 295.153438 117.616818 
L 298.733474 116.364987 
L 302.125548 118.230689 
L 305.348417 118.860266 
L 308.418161 121.225083 
L 311.348674 119.121033 
L 314.152039 121.091481 
L 316.838834 114.46843 
L 319.418365 120.030884 
L 324.287673 125.051572 
L 326.591312 114.114725 
L 328.815651 123.982795 
L 330.965968 119.473145 
L 333.047032 124.319397 
L 335.063165 123.856477 
L 337.018296 128.555333 
L 338.916009 112.642989 
L 340.75958 127.582609 
L 342.552013 128.355236 
L 344.296068 128.973153 
L 345.994289 130.071685 
L 347.649023 127.921843 
L 349.262442 128.562401 
L 350.836558 131.07398 
L 352.373241 128.901289 
L 353.87423 127.535173 
L 355.341146 128.399249 
L 356.775501 128.842158 
L 358.17871 132.283567 
L 359.552096 133.112961 
L 360.896901 143.764943 
L 362.21429 130.97995 
L 369.6 143.998029 
L 380.296043 137.297885 
L 389.47059 149.196511 
L 397.503083 154.844415 
L 404.646633 156.893192 
L 411.078536 152.868696 
L 416.927824 152.016068 
L 422.291336 147.521322 
L 427.243606 157.375922 
L 436.137115 165.046961 
L 440.16338 150.386095 
L 443.953438 156.12424 
L 447.533474 159.409925 
L 450.925548 158.04112 
L 454.148417 201.024434 
L 457.218161 162.658428 
L 460.148674 179.113267 
L 462.952039 177.137696 
L 465.638834 179.065873 
L 468.218365 169.423937 
L 470.698871 167.892122 
L 473.087673 178.362847 
L 475.391312 185.610827 
L 477.615651 217.984629 
L 479.765968 178.386632 
L 481.847032 182.954369 
L 483.863165 188.034943 
L 485.818296 190.204973 
L 487.716009 176.358938 
L 489.55958 187.272323 
L 491.352013 180.486547 
L 493.096068 212.631252 
L 494.794289 221.283322 
L 498.062442 195.625822 
L 499.636558 188.93933 
L 501.173241 177.011844 
L 502.67423 158.649095 
L 504.141146 163.030095 
L 505.575501 190.863663 
L 506.97871 187.051597 
L 508.352096 205.005679 
L 509.696901 290.035019 
L 511.01429 175.014394 
L 512.305359 199.240288 
L 514.812601 173.734381 
L 516.030663 209.371866 
L 517.226189 162.850246 
L 517.226189 162.850246 
" style="fill:none;stroke:#f50fe6;stroke-linecap:square;"/>
   </g>
   <g id="line2d_8">
    <path clip-path="url(#p679bee5137)" d="M 72 92.012518 
L 82.696043 92.464859 
L 91.87059 93.579664 
L 99.903083 93.968038 
L 107.046633 93.041292 
L 113.478536 95.001104 
L 119.327824 95.586747 
L 124.691336 95.196787 
L 129.643606 92.903833 
L 134.243232 92.2166 
L 142.56338 93.691546 
L 146.353438 95.607381 
L 149.933474 93.169033 
L 156.548417 96.80313 
L 159.618161 96.043763 
L 162.548674 92.938406 
L 165.352039 93.679125 
L 170.618365 96.529517 
L 173.098871 94.936772 
L 175.487673 102.442768 
L 177.791312 96.149954 
L 180.015651 97.2489 
L 182.165968 100.619004 
L 184.247032 98.241499 
L 186.263165 98.18323 
L 188.218296 96.672546 
L 190.116009 96.169329 
L 191.95958 94.917229 
L 193.752013 96.335203 
L 195.496068 98.25155 
L 197.194289 98.252913 
L 198.849023 97.282473 
L 200.462442 99.520534 
L 202.036558 95.853199 
L 203.573241 99.510814 
L 205.07423 100.459275 
L 206.541146 98.731644 
L 207.975501 99.103804 
L 209.37871 97.303268 
L 210.752096 96.703811 
L 212.096901 98.406682 
L 213.41429 101.023448 
L 220.8 99.510388 
L 231.496043 107.096736 
L 240.67059 104.549958 
L 248.703083 106.767746 
L 255.846633 105.762428 
L 262.278536 107.940141 
L 268.127824 109.678276 
L 273.491336 110.291925 
L 278.443606 110.608656 
L 283.043232 110.717516 
L 287.337115 112.325094 
L 291.36338 111.279434 
L 295.153438 113.564504 
L 298.733474 114.302755 
L 302.125548 114.060957 
L 305.348417 114.514655 
L 308.418161 118.298023 
L 311.348674 113.010872 
L 314.152039 112.12439 
L 316.838834 112.394514 
L 319.418365 113.563805 
L 321.898871 111.606143 
L 324.287673 115.103747 
L 326.591312 118.092456 
L 328.815651 111.384511 
L 330.965968 115.596361 
L 333.047032 116.851791 
L 335.063165 118.692506 
L 337.018296 113.805306 
L 338.916009 119.847099 
L 340.75958 115.067146 
L 342.552013 119.558618 
L 344.296068 122.412428 
L 345.994289 115.169986 
L 347.649023 123.027318 
L 349.262442 121.241478 
L 350.836558 118.57388 
L 353.87423 122.920287 
L 355.341146 119.695601 
L 356.775501 120.468256 
L 358.17871 125.766765 
L 359.552096 123.199109 
L 360.896901 124.346251 
L 362.21429 129.291733 
L 369.6 125.116945 
L 380.296043 139.452352 
L 389.47059 136.278813 
L 397.503083 141.571185 
L 404.646633 145.469565 
L 411.078536 153.998096 
L 416.927824 143.637942 
L 422.291336 156.370903 
L 427.243606 148.050774 
L 431.843232 151.057806 
L 436.137115 148.39773 
L 440.16338 143.462783 
L 443.953438 168.299363 
L 447.533474 168.838908 
L 450.925548 184.553279 
L 454.148417 159.89553 
L 457.218161 182.641017 
L 460.148674 175.512861 
L 462.952039 152.615493 
L 465.638834 174.308331 
L 468.218365 161.834517 
L 470.698871 211.572223 
L 473.087673 159.872477 
L 475.391312 188.726091 
L 477.615651 185.743511 
L 479.765968 169.090124 
L 481.847032 172.290288 
L 483.863165 179.611196 
L 485.818296 187.939836 
L 487.716009 186.514393 
L 489.55958 192.243789 
L 491.352013 206.451616 
L 493.096068 201.791201 
L 494.794289 170.109304 
L 496.449023 219.72928 
L 498.062442 173.940666 
L 499.636558 169.109759 
L 501.173241 229.800201 
L 502.67423 245.357266 
L 504.141146 181.45084 
L 505.575501 167.278178 
L 506.97871 176.827519 
L 508.352096 207.680619 
L 509.696901 175.823456 
L 511.01429 230.250289 
L 512.305359 199.104381 
L 513.571139 208.311526 
L 514.812601 182.868624 
L 516.030663 202.831325 
L 517.226189 181.676638 
L 517.226189 181.676638 
" style="fill:none;stroke:#1000a0;stroke-linecap:square;"/>
   </g>
   <g id="line2d_9">
    <path clip-path="url(#p679bee5137)" d="M 72 90.775343 
L 82.696043 93.636201 
L 91.87059 88.849159 
L 99.903083 92.732836 
L 107.046633 88.469246 
L 113.478536 88.250998 
L 119.327824 91.460255 
L 124.691336 91.120262 
L 129.643606 89.120857 
L 134.243232 90.834988 
L 138.537115 91.205248 
L 142.56338 93.915138 
L 146.353438 93.415238 
L 149.933474 92.196119 
L 153.325548 87.860847 
L 156.548417 92.50523 
L 159.618161 87.562129 
L 162.548674 93.43191 
L 165.352039 90.713649 
L 168.038834 88.579597 
L 170.618365 89.964212 
L 173.098871 91.886225 
L 175.487673 93.297758 
L 177.791312 93.202439 
L 180.015651 91.620841 
L 182.165968 94.40965 
L 184.247032 91.772964 
L 186.263165 93.666376 
L 188.218296 95.666184 
L 190.116009 93.318105 
L 191.95958 93.746978 
L 193.752013 95.551931 
L 195.496068 96.488521 
L 197.194289 93.217697 
L 198.849023 96.667462 
L 200.462442 93.002967 
L 202.036558 93.413969 
L 203.573241 93.681307 
L 205.07423 96.705425 
L 206.541146 96.958514 
L 207.975501 96.08605 
L 209.37871 95.471548 
L 210.752096 97.767238 
L 212.096901 98.638956 
L 213.41429 98.571375 
L 220.8 97.441277 
L 231.496043 99.450146 
L 240.67059 104.733507 
L 248.703083 102.987668 
L 255.846633 103.517344 
L 262.278536 107.08572 
L 268.127824 105.324147 
L 273.491336 109.748769 
L 283.043232 110.122828 
L 287.337115 109.632043 
L 295.153438 110.514707 
L 298.733474 111.095775 
L 302.125548 110.024143 
L 305.348417 113.277291 
L 308.418161 110.549997 
L 311.348674 109.470006 
L 314.152039 112.282285 
L 319.418365 112.515562 
L 321.898871 110.294411 
L 324.287673 112.746618 
L 326.591312 113.86373 
L 328.815651 107.425246 
L 330.965968 110.186055 
L 333.047032 113.639266 
L 337.018296 112.152853 
L 338.916009 106.997489 
L 340.75958 113.148992 
L 342.552013 114.001129 
L 344.296068 118.281079 
L 345.994289 111.354695 
L 347.649023 112.268298 
L 349.262442 115.904613 
L 350.836558 115.695578 
L 352.373241 114.600472 
L 353.87423 118.439557 
L 355.341146 115.775641 
L 356.775501 113.858639 
L 358.17871 117.213542 
L 359.552096 121.057266 
L 360.896901 114.588312 
L 362.21429 119.653989 
L 380.296043 132.265004 
L 389.47059 131.138642 
L 397.503083 137.194418 
L 404.646633 139.13006 
L 411.078536 138.343513 
L 416.927824 138.684185 
L 422.291336 141.112716 
L 427.243606 144.00315 
L 431.843232 157.14492 
L 436.137115 159.409219 
L 440.16338 151.533646 
L 443.953438 154.441871 
L 447.533474 151.595111 
L 450.925548 161.52757 
L 454.148417 164.076404 
L 457.218161 158.121869 
L 460.148674 152.944065 
L 462.952039 168.772925 
L 465.638834 173.665573 
L 468.218365 156.360669 
L 470.698871 164.707424 
L 473.087673 158.415589 
L 475.391312 172.081508 
L 477.615651 172.317307 
L 479.765968 152.890848 
L 481.847032 231.685654 
L 483.863165 209.720244 
L 485.818296 179.480252 
L 487.716009 163.69187 
L 489.55958 166.222701 
L 491.352013 177.233731 
L 493.096068 161.09305 
L 494.794289 183.785517 
L 496.449023 191.121115 
L 498.062442 187.43847 
L 499.636558 175.541309 
L 501.173241 158.112369 
L 502.67423 174.244845 
L 504.141146 167.630636 
L 505.575501 178.727115 
L 506.97871 186.422686 
L 508.352096 169.006323 
L 509.696901 173.865215 
L 511.01429 164.267413 
L 512.305359 179.915854 
L 513.571139 188.394221 
L 514.812601 193.460069 
L 516.030663 186.063496 
L 517.226189 157.883924 
L 517.226189 157.883924 
" style="fill:none;stroke:#595866;stroke-linecap:square;"/>
   </g>
   <g id="line2d_10">
    <path clip-path="url(#p679bee5137)" d="M 72 88.392773 
L 82.696043 86.777283 
L 91.87059 85.119947 
L 99.903083 87.507142 
L 107.046633 91.575426 
L 113.478536 88.839841 
L 119.327824 87.564403 
L 124.691336 88.172548 
L 129.643606 89.59222 
L 134.243232 87.25353 
L 138.537115 86.790229 
L 142.56338 88.787256 
L 146.353438 88.179382 
L 153.325548 90.149 
L 156.548417 90.158092 
L 159.618161 88.784275 
L 162.548674 95.149493 
L 165.352039 91.283186 
L 168.038834 93.543401 
L 170.618365 92.294869 
L 173.098871 89.401557 
L 175.487673 91.779718 
L 177.791312 91.59214 
L 180.015651 90.718022 
L 182.165968 92.425724 
L 184.247032 92.658253 
L 186.263165 91.07756 
L 188.218296 90.724434 
L 190.116009 91.456478 
L 191.95958 93.750795 
L 193.752013 92.033428 
L 195.496068 91.827497 
L 198.849023 93.733153 
L 200.462442 93.00669 
L 202.036558 96.991742 
L 203.573241 92.559644 
L 205.07423 93.205598 
L 206.541146 92.814726 
L 207.975501 95.439251 
L 209.37871 94.138761 
L 210.752096 95.069353 
L 212.096901 95.109547 
L 213.41429 96.936577 
L 220.8 97.64034 
L 231.496043 98.825048 
L 240.67059 95.924739 
L 248.703083 100.768928 
L 255.846633 102.089972 
L 262.278536 110.455048 
L 268.127824 104.172803 
L 273.491336 106.463606 
L 278.443606 111.202206 
L 283.043232 105.460396 
L 287.337115 112.091847 
L 291.36338 108.628303 
L 295.153438 108.09945 
L 298.733474 108.927833 
L 302.125548 108.466548 
L 305.348417 110.209618 
L 308.418161 113.442595 
L 311.348674 111.361033 
L 314.152039 114.678828 
L 319.418365 105.080448 
L 321.898871 111.724074 
L 324.287673 112.24938 
L 326.591312 113.667412 
L 328.815651 106.478499 
L 330.965968 106.995899 
L 333.047032 111.9924 
L 335.063165 104.637888 
L 337.018296 113.739417 
L 338.916009 110.511823 
L 340.75958 113.402614 
L 342.552013 112.216056 
L 344.296068 112.582631 
L 345.994289 109.168864 
L 347.649023 112.575725 
L 350.836558 111.822573 
L 352.373241 110.63158 
L 353.87423 110.869375 
L 355.341146 111.844377 
L 356.775501 115.546913 
L 358.17871 109.052831 
L 359.552096 111.016402 
L 360.896901 116.409743 
L 362.21429 113.817185 
L 369.6 119.85679 
L 380.296043 132.318437 
L 389.47059 131.664702 
L 397.503083 131.660165 
L 404.646633 131.26607 
L 411.078536 129.081814 
L 422.291336 147.18402 
L 427.243606 145.055474 
L 431.843232 155.393854 
L 436.137115 142.01577 
L 440.16338 141.158996 
L 443.953438 165.703206 
L 447.533474 141.697408 
L 450.925548 163.75772 
L 454.148417 169.932913 
L 457.218161 155.876193 
L 460.148674 144.643294 
L 462.952039 165.080719 
L 465.638834 159.635695 
L 468.218365 153.411384 
L 470.698871 206.963413 
L 473.087673 163.326933 
L 475.391312 167.448626 
L 477.615651 169.565256 
L 479.765968 161.808663 
L 481.847032 172.849595 
L 483.863165 162.428887 
L 485.818296 195.993515 
L 487.716009 196.9855 
L 489.55958 182.85214 
L 491.352013 196.645094 
L 493.096068 233.399665 
L 494.794289 172.097272 
L 496.449023 167.690356 
L 498.062442 189.43766 
L 499.636558 165.142847 
L 501.173241 164.714967 
L 502.67423 203.520825 
L 504.141146 187.688339 
L 505.575501 161.518756 
L 506.97871 168.831999 
L 508.352096 216.432715 
L 509.696901 166.606232 
L 511.01429 161.601399 
L 512.305359 186.826842 
L 513.571139 184.890147 
L 514.812601 179.652661 
L 516.030663 160.377789 
L 517.226189 157.884847 
L 517.226189 157.884847 
" style="fill:none;stroke:#147f2a;stroke-linecap:square;"/>
   </g>
   <g id="line2d_11">
    <path clip-path="url(#p679bee5137)" d="M 72 87.418424 
L 82.696043 86.288821 
L 91.87059 85.912582 
L 99.903083 85.262715 
L 107.046633 88.893385 
L 113.478536 85.062206 
L 119.327824 84.5171 
L 124.691336 86.151394 
L 129.643606 85.973586 
L 134.243232 86.154017 
L 138.537115 88.687276 
L 142.56338 89.535732 
L 146.353438 88.084386 
L 149.933474 88.178247 
L 153.325548 89.194523 
L 156.548417 87.937143 
L 159.618161 86.598744 
L 162.548674 90.249789 
L 165.352039 85.420289 
L 168.038834 86.799406 
L 170.618365 91.588527 
L 173.098871 89.670281 
L 175.487673 89.356669 
L 177.791312 87.755508 
L 180.015651 89.153726 
L 182.165968 88.271499 
L 184.247032 90.006779 
L 186.263165 93.10299 
L 188.218296 91.966245 
L 190.116009 92.503353 
L 191.95958 86.03715 
L 193.752013 92.714161 
L 195.496068 90.562873 
L 197.194289 90.60498 
L 198.849023 95.181543 
L 200.462442 87.363912 
L 202.036558 90.391582 
L 203.573241 91.666558 
L 205.07423 91.408444 
L 206.541146 95.564061 
L 207.975501 93.484569 
L 209.37871 94.939172 
L 210.752096 89.598899 
L 212.096901 92.329581 
L 213.41429 96.005699 
L 220.8 94.628726 
L 231.496043 96.871383 
L 240.67059 100.629762 
L 248.703083 98.228833 
L 255.846633 102.365506 
L 262.278536 102.732955 
L 268.127824 102.871556 
L 273.491336 103.979971 
L 278.443606 105.755077 
L 283.043232 107.707747 
L 287.337115 104.815867 
L 291.36338 107.4839 
L 295.153438 111.9557 
L 298.733474 103.3668 
L 302.125548 106.759825 
L 305.348417 110.439939 
L 308.418161 105.188482 
L 311.348674 104.911764 
L 314.152039 106.863677 
L 316.838834 105.967472 
L 319.418365 110.855551 
L 321.898871 106.198079 
L 324.287673 112.012035 
L 326.591312 107.967592 
L 328.815651 107.250643 
L 330.965968 108.437871 
L 333.047032 104.602179 
L 335.063165 109.078852 
L 337.018296 107.805464 
L 338.916009 105.762264 
L 340.75958 110.439357 
L 342.552013 105.073928 
L 344.296068 107.742144 
L 345.994289 107.088424 
L 347.649023 110.422113 
L 349.262442 110.927793 
L 350.836558 112.991694 
L 352.373241 108.20447 
L 353.87423 114.169894 
L 355.341146 106.104068 
L 358.17871 110.097573 
L 359.552096 106.774102 
L 360.896901 111.129436 
L 362.21429 111.659934 
L 369.6 112.829768 
L 380.296043 119.963543 
L 389.47059 123.239828 
L 397.503083 120.073972 
L 404.646633 130.599191 
L 411.078536 127.271637 
L 416.927824 126.342743 
L 422.291336 132.900369 
L 427.243606 135.767381 
L 431.843232 151.112448 
L 436.137115 131.752678 
L 440.16338 144.506511 
L 443.953438 165.041463 
L 447.533474 138.620988 
L 450.925548 149.058498 
L 454.148417 143.905638 
L 457.218161 145.885067 
L 460.148674 144.395655 
L 462.952039 156.932463 
L 465.638834 174.700961 
L 468.218365 155.599293 
L 470.698871 155.060752 
L 473.087673 161.72185 
L 475.391312 159.570597 
L 477.615651 173.078788 
L 479.765968 155.738601 
L 481.847032 161.682566 
L 483.863165 176.333772 
L 485.818296 175.779171 
L 487.716009 170.385518 
L 489.55958 200.351072 
L 491.352013 171.319226 
L 493.096068 195.933715 
L 494.794289 166.602454 
L 496.449023 181.216096 
L 498.062442 188.903853 
L 499.636558 201.246304 
L 501.173241 156.860982 
L 502.67423 170.137358 
L 504.141146 161.465075 
L 505.575501 201.070984 
L 506.97871 195.380525 
L 508.352096 168.806224 
L 509.696901 150.515235 
L 511.01429 202.403049 
L 512.305359 186.530212 
L 513.571139 172.879063 
L 514.812601 163.979195 
L 516.030663 177.175174 
L 517.226189 155.325164 
L 517.226189 155.325164 
" style="fill:none;stroke:#00f6aa;stroke-linecap:square;"/>
   </g>
   <g id="patch_3">
    <path d="M 72 43.2 
L 518.4 43.2 
" style="fill:none;stroke:#000000;stroke-linecap:square;stroke-linejoin:miter;"/>
   </g>
   <g id="patch_4">
    <path d="M 518.4 388.8 
L 518.4 43.2 
" style="fill:none;stroke:#000000;stroke-linecap:square;stroke-linejoin:miter;"/>
   </g>
   <g id="patch_5">
    <path d="M 72 388.8 
L 518.4 388.8 
" style="fill:none;stroke:#000000;stroke-linecap:square;stroke-linejoin:miter;"/>
   </g>
   <g id="patch_6">
    <path d="M 72 388.8 
L 72 43.2 
" style="fill:none;stroke:#000000;stroke-linecap:square;stroke-linejoin:miter;"/>
   </g>
   <g id="matplotlib.axis_1">
    <g id="xtick_1">
     <g id="line2d_12">
      <defs>
       <path d="M 0 0 
L 0 -4 
" id="m61f1c37c64" style="stroke:#000000;stroke-width:0.5;"/>
      </defs>
      <g>
       <use style="stroke:#000000;stroke-width:0.5;" x="72.0" xlink:href="#m61f1c37c64" y="388.8"/>
      </g>
     </g>
     <g id="line2d_13">
      <defs>
       <path d="M 0 0 
L 0 4 
" id="m61b6f29801" style="stroke:#000000;stroke-width:0.5;"/>
      </defs>
      <g>
       <use style="stroke:#000000;stroke-width:0.5;" x="72.0" xlink:href="#m61b6f29801" y="43.2"/>
      </g>
     </g>
     <g id="text_1">
      <!-- $\mathdefault{10^{-3}}$ -->
      <defs>
       <path d="M 40.578125 39.3125 
Q 47.65625 37.796875 51.625 33 
Q 55.609375 28.21875 55.609375 21.1875 
Q 55.609375 10.40625 48.1875 4.484375 
Q 40.765625 -1.421875 27.09375 -1.421875 
Q 22.515625 -1.421875 17.65625 -0.515625 
Q 12.796875 0.390625 7.625 2.203125 
L 7.625 11.71875 
Q 11.71875 9.328125 16.59375 8.109375 
Q 21.484375 6.890625 26.8125 6.890625 
Q 36.078125 6.890625 40.9375 10.546875 
Q 45.796875 14.203125 45.796875 21.1875 
Q 45.796875 27.640625 41.28125 31.265625 
Q 36.765625 34.90625 28.71875 34.90625 
L 20.21875 34.90625 
L 20.21875 43.015625 
L 29.109375 43.015625 
Q 36.375 43.015625 40.234375 45.921875 
Q 44.09375 48.828125 44.09375 54.296875 
Q 44.09375 59.90625 40.109375 62.90625 
Q 36.140625 65.921875 28.71875 65.921875 
Q 24.65625 65.921875 20.015625 65.03125 
Q 15.375 64.15625 9.8125 62.3125 
L 9.8125 71.09375 
Q 15.4375 72.65625 20.34375 73.4375 
Q 25.25 74.21875 29.59375 74.21875 
Q 40.828125 74.21875 47.359375 69.109375 
Q 53.90625 64.015625 53.90625 55.328125 
Q 53.90625 49.265625 50.4375 45.09375 
Q 46.96875 40.921875 40.578125 39.3125 
" id="BitstreamVeraSans-Roman-33"/>
       <path d="M 4.890625 31.390625 
L 31.203125 31.390625 
L 31.203125 23.390625 
L 4.890625 23.390625 
z
" id="BitstreamVeraSans-Roman-2d"/>
       <path d="M 31.78125 66.40625 
Q 24.171875 66.40625 20.328125 58.90625 
Q 16.5 51.421875 16.5 36.375 
Q 16.5 21.390625 20.328125 13.890625 
Q 24.171875 6.390625 31.78125 6.390625 
Q 39.453125 6.390625 43.28125 13.890625 
Q 47.125 21.390625 47.125 36.375 
Q 47.125 51.421875 43.28125 58.90625 
Q 39.453125 66.40625 31.78125 66.40625 
M 31.78125 74.21875 
Q 44.046875 74.21875 50.515625 64.515625 
Q 56.984375 54.828125 56.984375 36.375 
Q 56.984375 17.96875 50.515625 8.265625 
Q 44.046875 -1.421875 31.78125 -1.421875 
Q 19.53125 -1.421875 13.0625 8.265625 
Q 6.59375 17.96875 6.59375 36.375 
Q 6.59375 54.828125 13.0625 64.515625 
Q 19.53125 74.21875 31.78125 74.21875 
" id="BitstreamVeraSans-Roman-30"/>
       <path d="M 12.40625 8.296875 
L 28.515625 8.296875 
L 28.515625 63.921875 
L 10.984375 60.40625 
L 10.984375 69.390625 
L 28.421875 72.90625 
L 38.28125 72.90625 
L 38.28125 8.296875 
L 54.390625 8.296875 
L 54.390625 0 
L 12.40625 0 
z
" id="BitstreamVeraSans-Roman-31"/>
      </defs>
      <g transform="translate(59.34 402.544375)scale(0.12 -0.12)">
       <use transform="translate(0.0 0.796875)" xlink:href="#BitstreamVeraSans-Roman-31"/>
       <use transform="translate(63.623046875 0.796875)" xlink:href="#BitstreamVeraSans-Roman-30"/>
       <use transform="translate(132.75859375 48.046875)scale(0.7)" xlink:href="#BitstreamVeraSans-Roman-2d"/>
       <use transform="translate(158.0173828125 48.046875)scale(0.7)" xlink:href="#BitstreamVeraSans-Roman-33"/>
      </g>
     </g>
    </g>
    <g id="xtick_2">
     <g id="line2d_14">
      <g>
       <use style="stroke:#000000;stroke-width:0.5;" x="220.8" xlink:href="#m61f1c37c64" y="388.8"/>
      </g>
     </g>
     <g id="line2d_15">
      <g>
       <use style="stroke:#000000;stroke-width:0.5;" x="220.8" xlink:href="#m61b6f29801" y="43.2"/>
      </g>
     </g>
     <g id="text_2">
      <!-- $\mathdefault{10^{-2}}$ -->
      <defs>
       <path d="M 19.1875 8.296875 
L 53.609375 8.296875 
L 53.609375 0 
L 7.328125 0 
L 7.328125 8.296875 
Q 12.9375 14.109375 22.625 23.890625 
Q 32.328125 33.6875 34.8125 36.53125 
Q 39.546875 41.84375 41.421875 45.53125 
Q 43.3125 49.21875 43.3125 52.78125 
Q 43.3125 58.59375 39.234375 62.25 
Q 35.15625 65.921875 28.609375 65.921875 
Q 23.96875 65.921875 18.8125 64.3125 
Q 13.671875 62.703125 7.8125 59.421875 
L 7.8125 69.390625 
Q 13.765625 71.78125 18.9375 73 
Q 24.125 74.21875 28.421875 74.21875 
Q 39.75 74.21875 46.484375 68.546875 
Q 53.21875 62.890625 53.21875 53.421875 
Q 53.21875 48.921875 51.53125 44.890625 
Q 49.859375 40.875 45.40625 35.40625 
Q 44.1875 33.984375 37.640625 27.21875 
Q 31.109375 20.453125 19.1875 8.296875 
" id="BitstreamVeraSans-Roman-32"/>
      </defs>
      <g transform="translate(208.14 402.544375)scale(0.12 -0.12)">
       <use transform="translate(0.0 0.796875)" xlink:href="#BitstreamVeraSans-Roman-31"/>
       <use transform="translate(63.623046875 0.796875)" xlink:href="#BitstreamVeraSans-Roman-30"/>
       <use transform="translate(132.75859375 48.046875)scale(0.7)" xlink:href="#BitstreamVeraSans-Roman-2d"/>
       <use transform="translate(158.0173828125 48.046875)scale(0.7)" xlink:href="#BitstreamVeraSans-Roman-32"/>
      </g>
     </g>
    </g>
    <g id="xtick_3">
     <g id="line2d_16">
      <g>
       <use style="stroke:#000000;stroke-width:0.5;" x="369.6" xlink:href="#m61f1c37c64" y="388.8"/>
      </g>
     </g>
     <g id="line2d_17">
      <g>
       <use style="stroke:#000000;stroke-width:0.5;" x="369.6" xlink:href="#m61b6f29801" y="43.2"/>
      </g>
     </g>
     <g id="text_3">
      <!-- $\mathdefault{10^{-1}}$ -->
      <g transform="translate(356.94 402.424375)scale(0.12 -0.12)">
       <use transform="translate(0.0 0.7156250000000028)" xlink:href="#BitstreamVeraSans-Roman-31"/>
       <use transform="translate(63.623046875 0.7156250000000028)" xlink:href="#BitstreamVeraSans-Roman-30"/>
       <use transform="translate(132.75859375 47.965625)scale(0.7)" xlink:href="#BitstreamVeraSans-Roman-2d"/>
       <use transform="translate(158.0173828125 47.965625)scale(0.7)" xlink:href="#BitstreamVeraSans-Roman-31"/>
      </g>
     </g>
    </g>
    <g id="xtick_4">
     <g id="line2d_18">
      <g>
       <use style="stroke:#000000;stroke-width:0.5;" x="518.4" xlink:href="#m61f1c37c64" y="388.8"/>
      </g>
     </g>
     <g id="line2d_19">
      <g>
       <use style="stroke:#000000;stroke-width:0.5;" x="518.4" xlink:href="#m61b6f29801" y="43.2"/>
      </g>
     </g>
     <g id="text_4">
      <!-- $\mathdefault{10^{0}}$ -->
      <g transform="translate(507.24 402.544375)scale(0.12 -0.12)">
       <use transform="translate(0.0 0.796875)" xlink:href="#BitstreamVeraSans-Roman-31"/>
       <use transform="translate(63.623046875 0.796875)" xlink:href="#BitstreamVeraSans-Roman-30"/>
       <use transform="translate(132.75859375 48.046875)scale(0.7)" xlink:href="#BitstreamVeraSans-Roman-30"/>
      </g>
     </g>
    </g>
    <g id="xtick_5">
     <g id="line2d_20">
      <defs>
       <path d="M 0 0 
L 0 -2 
" id="mc06631b62a" style="stroke:#000000;stroke-width:0.5;"/>
      </defs>
      <g>
       <use style="stroke:#000000;stroke-width:0.5;" x="116.793263355" xlink:href="#mc06631b62a" y="388.8"/>
      </g>
     </g>
     <g id="line2d_21">
      <defs>
       <path d="M 0 0 
L 0 2 
" id="m496ec132be" style="stroke:#000000;stroke-width:0.5;"/>
      </defs>
      <g>
       <use style="stroke:#000000;stroke-width:0.5;" x="116.793263355" xlink:href="#m496ec132be" y="43.2"/>
      </g>
     </g>
    </g>
    <g id="xtick_6">
     <g id="line2d_22">
      <g>
       <use style="stroke:#000000;stroke-width:0.5;" x="142.995642702" xlink:href="#mc06631b62a" y="388.8"/>
      </g>
     </g>
     <g id="line2d_23">
      <g>
       <use style="stroke:#000000;stroke-width:0.5;" x="142.995642702" xlink:href="#m496ec132be" y="43.2"/>
      </g>
     </g>
    </g>
    <g id="xtick_7">
     <g id="line2d_24">
      <g>
       <use style="stroke:#000000;stroke-width:0.5;" x="161.58652671" xlink:href="#mc06631b62a" y="388.8"/>
      </g>
     </g>
     <g id="line2d_25">
      <g>
       <use style="stroke:#000000;stroke-width:0.5;" x="161.58652671" xlink:href="#m496ec132be" y="43.2"/>
      </g>
     </g>
    </g>
    <g id="xtick_8">
     <g id="line2d_26">
      <g>
       <use style="stroke:#000000;stroke-width:0.5;" x="176.006736645" xlink:href="#mc06631b62a" y="388.8"/>
      </g>
     </g>
     <g id="line2d_27">
      <g>
       <use style="stroke:#000000;stroke-width:0.5;" x="176.006736645" xlink:href="#m496ec132be" y="43.2"/>
      </g>
     </g>
    </g>
    <g id="xtick_9">
     <g id="line2d_28">
      <g>
       <use style="stroke:#000000;stroke-width:0.5;" x="187.788906057" xlink:href="#mc06631b62a" y="388.8"/>
      </g>
     </g>
     <g id="line2d_29">
      <g>
       <use style="stroke:#000000;stroke-width:0.5;" x="187.788906057" xlink:href="#m496ec132be" y="43.2"/>
      </g>
     </g>
    </g>
    <g id="xtick_10">
     <g id="line2d_30">
      <g>
       <use style="stroke:#000000;stroke-width:0.5;" x="197.750588354" xlink:href="#mc06631b62a" y="388.8"/>
      </g>
     </g>
     <g id="line2d_31">
      <g>
       <use style="stroke:#000000;stroke-width:0.5;" x="197.750588354" xlink:href="#m496ec132be" y="43.2"/>
      </g>
     </g>
    </g>
    <g id="xtick_11">
     <g id="line2d_32">
      <g>
       <use style="stroke:#000000;stroke-width:0.5;" x="206.379790064" xlink:href="#mc06631b62a" y="388.8"/>
      </g>
     </g>
     <g id="line2d_33">
      <g>
       <use style="stroke:#000000;stroke-width:0.5;" x="206.379790064" xlink:href="#m496ec132be" y="43.2"/>
      </g>
     </g>
    </g>
    <g id="xtick_12">
     <g id="line2d_34">
      <g>
       <use style="stroke:#000000;stroke-width:0.5;" x="213.991285405" xlink:href="#mc06631b62a" y="388.8"/>
      </g>
     </g>
     <g id="line2d_35">
      <g>
       <use style="stroke:#000000;stroke-width:0.5;" x="213.991285405" xlink:href="#m496ec132be" y="43.2"/>
      </g>
     </g>
    </g>
    <g id="xtick_13">
     <g id="line2d_36">
      <g>
       <use style="stroke:#000000;stroke-width:0.5;" x="265.593263355" xlink:href="#mc06631b62a" y="388.8"/>
      </g>
     </g>
     <g id="line2d_37">
      <g>
       <use style="stroke:#000000;stroke-width:0.5;" x="265.593263355" xlink:href="#m496ec132be" y="43.2"/>
      </g>
     </g>
    </g>
    <g id="xtick_14">
     <g id="line2d_38">
      <g>
       <use style="stroke:#000000;stroke-width:0.5;" x="291.795642702" xlink:href="#mc06631b62a" y="388.8"/>
      </g>
     </g>
     <g id="line2d_39">
      <g>
       <use style="stroke:#000000;stroke-width:0.5;" x="291.795642702" xlink:href="#m496ec132be" y="43.2"/>
      </g>
     </g>
    </g>
    <g id="xtick_15">
     <g id="line2d_40">
      <g>
       <use style="stroke:#000000;stroke-width:0.5;" x="310.38652671" xlink:href="#mc06631b62a" y="388.8"/>
      </g>
     </g>
     <g id="line2d_41">
      <g>
       <use style="stroke:#000000;stroke-width:0.5;" x="310.38652671" xlink:href="#m496ec132be" y="43.2"/>
      </g>
     </g>
    </g>
    <g id="xtick_16">
     <g id="line2d_42">
      <g>
       <use style="stroke:#000000;stroke-width:0.5;" x="324.806736645" xlink:href="#mc06631b62a" y="388.8"/>
      </g>
     </g>
     <g id="line2d_43">
      <g>
       <use style="stroke:#000000;stroke-width:0.5;" x="324.806736645" xlink:href="#m496ec132be" y="43.2"/>
      </g>
     </g>
    </g>
    <g id="xtick_17">
     <g id="line2d_44">
      <g>
       <use style="stroke:#000000;stroke-width:0.5;" x="336.588906057" xlink:href="#mc06631b62a" y="388.8"/>
      </g>
     </g>
     <g id="line2d_45">
      <g>
       <use style="stroke:#000000;stroke-width:0.5;" x="336.588906057" xlink:href="#m496ec132be" y="43.2"/>
      </g>
     </g>
    </g>
    <g id="xtick_18">
     <g id="line2d_46">
      <g>
       <use style="stroke:#000000;stroke-width:0.5;" x="346.550588354" xlink:href="#mc06631b62a" y="388.8"/>
      </g>
     </g>
     <g id="line2d_47">
      <g>
       <use style="stroke:#000000;stroke-width:0.5;" x="346.550588354" xlink:href="#m496ec132be" y="43.2"/>
      </g>
     </g>
    </g>
    <g id="xtick_19">
     <g id="line2d_48">
      <g>
       <use style="stroke:#000000;stroke-width:0.5;" x="355.179790064" xlink:href="#mc06631b62a" y="388.8"/>
      </g>
     </g>
     <g id="line2d_49">
      <g>
       <use style="stroke:#000000;stroke-width:0.5;" x="355.179790064" xlink:href="#m496ec132be" y="43.2"/>
      </g>
     </g>
    </g>
    <g id="xtick_20">
     <g id="line2d_50">
      <g>
       <use style="stroke:#000000;stroke-width:0.5;" x="362.791285405" xlink:href="#mc06631b62a" y="388.8"/>
      </g>
     </g>
     <g id="line2d_51">
      <g>
       <use style="stroke:#000000;stroke-width:0.5;" x="362.791285405" xlink:href="#m496ec132be" y="43.2"/>
      </g>
     </g>
    </g>
    <g id="xtick_21">
     <g id="line2d_52">
      <g>
       <use style="stroke:#000000;stroke-width:0.5;" x="414.393263355" xlink:href="#mc06631b62a" y="388.8"/>
      </g>
     </g>
     <g id="line2d_53">
      <g>
       <use style="stroke:#000000;stroke-width:0.5;" x="414.393263355" xlink:href="#m496ec132be" y="43.2"/>
      </g>
     </g>
    </g>
    <g id="xtick_22">
     <g id="line2d_54">
      <g>
       <use style="stroke:#000000;stroke-width:0.5;" x="440.595642702" xlink:href="#mc06631b62a" y="388.8"/>
      </g>
     </g>
     <g id="line2d_55">
      <g>
       <use style="stroke:#000000;stroke-width:0.5;" x="440.595642702" xlink:href="#m496ec132be" y="43.2"/>
      </g>
     </g>
    </g>
    <g id="xtick_23">
     <g id="line2d_56">
      <g>
       <use style="stroke:#000000;stroke-width:0.5;" x="459.18652671" xlink:href="#mc06631b62a" y="388.8"/>
      </g>
     </g>
     <g id="line2d_57">
      <g>
       <use style="stroke:#000000;stroke-width:0.5;" x="459.18652671" xlink:href="#m496ec132be" y="43.2"/>
      </g>
     </g>
    </g>
    <g id="xtick_24">
     <g id="line2d_58">
      <g>
       <use style="stroke:#000000;stroke-width:0.5;" x="473.606736645" xlink:href="#mc06631b62a" y="388.8"/>
      </g>
     </g>
     <g id="line2d_59">
      <g>
       <use style="stroke:#000000;stroke-width:0.5;" x="473.606736645" xlink:href="#m496ec132be" y="43.2"/>
      </g>
     </g>
    </g>
    <g id="xtick_25">
     <g id="line2d_60">
      <g>
       <use style="stroke:#000000;stroke-width:0.5;" x="485.388906057" xlink:href="#mc06631b62a" y="388.8"/>
      </g>
     </g>
     <g id="line2d_61">
      <g>
       <use style="stroke:#000000;stroke-width:0.5;" x="485.388906057" xlink:href="#m496ec132be" y="43.2"/>
      </g>
     </g>
    </g>
    <g id="xtick_26">
     <g id="line2d_62">
      <g>
       <use style="stroke:#000000;stroke-width:0.5;" x="495.350588354" xlink:href="#mc06631b62a" y="388.8"/>
      </g>
     </g>
     <g id="line2d_63">
      <g>
       <use style="stroke:#000000;stroke-width:0.5;" x="495.350588354" xlink:href="#m496ec132be" y="43.2"/>
      </g>
     </g>
    </g>
    <g id="xtick_27">
     <g id="line2d_64">
      <g>
       <use style="stroke:#000000;stroke-width:0.5;" x="503.979790064" xlink:href="#mc06631b62a" y="388.8"/>
      </g>
     </g>
     <g id="line2d_65">
      <g>
       <use style="stroke:#000000;stroke-width:0.5;" x="503.979790064" xlink:href="#m496ec132be" y="43.2"/>
      </g>
     </g>
    </g>
    <g id="xtick_28">
     <g id="line2d_66">
      <g>
       <use style="stroke:#000000;stroke-width:0.5;" x="511.591285405" xlink:href="#mc06631b62a" y="388.8"/>
      </g>
     </g>
     <g id="line2d_67">
      <g>
       <use style="stroke:#000000;stroke-width:0.5;" x="511.591285405" xlink:href="#m496ec132be" y="43.2"/>
      </g>
     </g>
    </g>
   </g>
   <g id="matplotlib.axis_2">
    <g id="ytick_1">
     <g id="line2d_68">
      <defs>
       <path d="M 0 0 
L 4 0 
" id="m371dbb0457" style="stroke:#000000;stroke-width:0.5;"/>
      </defs>
      <g>
       <use style="stroke:#000000;stroke-width:0.5;" x="72.0" xlink:href="#m371dbb0457" y="388.8"/>
      </g>
     </g>
     <g id="line2d_69">
      <defs>
       <path d="M 0 0 
L -4 0 
" id="madba7908aa" style="stroke:#000000;stroke-width:0.5;"/>
      </defs>
      <g>
       <use style="stroke:#000000;stroke-width:0.5;" x="518.4" xlink:href="#madba7908aa" y="388.8"/>
      </g>
     </g>
     <g id="text_5">
      <!-- $\mathdefault{10^{-4}}$ -->
      <defs>
       <path d="M 37.796875 64.3125 
L 12.890625 25.390625 
L 37.796875 25.390625 
z
M 35.203125 72.90625 
L 47.609375 72.90625 
L 47.609375 25.390625 
L 58.015625 25.390625 
L 58.015625 17.1875 
L 47.609375 17.1875 
L 47.609375 0 
L 37.796875 0 
L 37.796875 17.1875 
L 4.890625 17.1875 
L 4.890625 26.703125 
z
" id="BitstreamVeraSans-Roman-34"/>
      </defs>
      <g transform="translate(42.68 392.364375)scale(0.12 -0.12)">
       <use transform="translate(0.0 0.7156250000000028)" xlink:href="#BitstreamVeraSans-Roman-31"/>
       <use transform="translate(63.623046875 0.7156250000000028)" xlink:href="#BitstreamVeraSans-Roman-30"/>
       <use transform="translate(132.75859375 47.965625)scale(0.7)" xlink:href="#BitstreamVeraSans-Roman-2d"/>
       <use transform="translate(158.0173828125 47.965625)scale(0.7)" xlink:href="#BitstreamVeraSans-Roman-34"/>
      </g>
     </g>
    </g>
    <g id="ytick_2">
     <g id="line2d_70">
      <g>
       <use style="stroke:#000000;stroke-width:0.5;" x="72.0" xlink:href="#m371dbb0457" y="302.4"/>
      </g>
     </g>
     <g id="line2d_71">
      <g>
       <use style="stroke:#000000;stroke-width:0.5;" x="518.4" xlink:href="#madba7908aa" y="302.4"/>
      </g>
     </g>
     <g id="text_6">
      <!-- $\mathdefault{10^{-3}}$ -->
      <g transform="translate(42.68 306.024375)scale(0.12 -0.12)">
       <use transform="translate(0.0 0.796875)" xlink:href="#BitstreamVeraSans-Roman-31"/>
       <use transform="translate(63.623046875 0.796875)" xlink:href="#BitstreamVeraSans-Roman-30"/>
       <use transform="translate(132.75859375 48.046875)scale(0.7)" xlink:href="#BitstreamVeraSans-Roman-2d"/>
       <use transform="translate(158.0173828125 48.046875)scale(0.7)" xlink:href="#BitstreamVeraSans-Roman-33"/>
      </g>
     </g>
    </g>
    <g id="ytick_3">
     <g id="line2d_72">
      <g>
       <use style="stroke:#000000;stroke-width:0.5;" x="72.0" xlink:href="#m371dbb0457" y="216.0"/>
      </g>
     </g>
     <g id="line2d_73">
      <g>
       <use style="stroke:#000000;stroke-width:0.5;" x="518.4" xlink:href="#madba7908aa" y="216.0"/>
      </g>
     </g>
     <g id="text_7">
      <!-- $\mathdefault{10^{-2}}$ -->
      <g transform="translate(42.68 219.624375)scale(0.12 -0.12)">
       <use transform="translate(0.0 0.796875)" xlink:href="#BitstreamVeraSans-Roman-31"/>
       <use transform="translate(63.623046875 0.796875)" xlink:href="#BitstreamVeraSans-Roman-30"/>
       <use transform="translate(132.75859375 48.046875)scale(0.7)" xlink:href="#BitstreamVeraSans-Roman-2d"/>
       <use transform="translate(158.0173828125 48.046875)scale(0.7)" xlink:href="#BitstreamVeraSans-Roman-32"/>
      </g>
     </g>
    </g>
    <g id="ytick_4">
     <g id="line2d_74">
      <g>
       <use style="stroke:#000000;stroke-width:0.5;" x="72.0" xlink:href="#m371dbb0457" y="129.6"/>
      </g>
     </g>
     <g id="line2d_75">
      <g>
       <use style="stroke:#000000;stroke-width:0.5;" x="518.4" xlink:href="#madba7908aa" y="129.6"/>
      </g>
     </g>
     <g id="text_8">
      <!-- $\mathdefault{10^{-1}}$ -->
      <g transform="translate(42.68 133.164375)scale(0.12 -0.12)">
       <use transform="translate(0.0 0.7156250000000028)" xlink:href="#BitstreamVeraSans-Roman-31"/>
       <use transform="translate(63.623046875 0.7156250000000028)" xlink:href="#BitstreamVeraSans-Roman-30"/>
       <use transform="translate(132.75859375 47.965625)scale(0.7)" xlink:href="#BitstreamVeraSans-Roman-2d"/>
       <use transform="translate(158.0173828125 47.965625)scale(0.7)" xlink:href="#BitstreamVeraSans-Roman-31"/>
      </g>
     </g>
    </g>
    <g id="ytick_5">
     <g id="line2d_76">
      <g>
       <use style="stroke:#000000;stroke-width:0.5;" x="72.0" xlink:href="#m371dbb0457" y="43.2"/>
      </g>
     </g>
     <g id="line2d_77">
      <g>
       <use style="stroke:#000000;stroke-width:0.5;" x="518.4" xlink:href="#madba7908aa" y="43.2"/>
      </g>
     </g>
     <g id="text_9">
      <!-- $\mathdefault{10^{0}}$ -->
      <g transform="translate(45.68 46.824375)scale(0.12 -0.12)">
       <use transform="translate(0.0 0.796875)" xlink:href="#BitstreamVeraSans-Roman-31"/>
       <use transform="translate(63.623046875 0.796875)" xlink:href="#BitstreamVeraSans-Roman-30"/>
       <use transform="translate(132.75859375 48.046875)scale(0.7)" xlink:href="#BitstreamVeraSans-Roman-30"/>
      </g>
     </g>
    </g>
    <g id="ytick_6">
     <g id="line2d_78">
      <defs>
       <path d="M 0 0 
L 2 0 
" id="m3d74ebaca9" style="stroke:#000000;stroke-width:0.5;"/>
      </defs>
      <g>
       <use style="stroke:#000000;stroke-width:0.5;" x="72.0" xlink:href="#m3d74ebaca9" y="362.791008375"/>
      </g>
     </g>
     <g id="line2d_79">
      <defs>
       <path d="M 0 0 
L -2 0 
" id="m7f6dde766b" style="stroke:#000000;stroke-width:0.5;"/>
      </defs>
      <g>
       <use style="stroke:#000000;stroke-width:0.5;" x="518.4" xlink:href="#m7f6dde766b" y="362.791008375"/>
      </g>
     </g>
    </g>
    <g id="ytick_7">
     <g id="line2d_80">
      <g>
       <use style="stroke:#000000;stroke-width:0.5;" x="72.0" xlink:href="#m3d74ebaca9" y="347.576723592"/>
      </g>
     </g>
     <g id="line2d_81">
      <g>
       <use style="stroke:#000000;stroke-width:0.5;" x="518.4" xlink:href="#m7f6dde766b" y="347.576723592"/>
      </g>
     </g>
    </g>
    <g id="ytick_8">
     <g id="line2d_82">
      <g>
       <use style="stroke:#000000;stroke-width:0.5;" x="72.0" xlink:href="#m3d74ebaca9" y="336.782016749"/>
      </g>
     </g>
     <g id="line2d_83">
      <g>
       <use style="stroke:#000000;stroke-width:0.5;" x="518.4" xlink:href="#m7f6dde766b" y="336.782016749"/>
      </g>
     </g>
    </g>
    <g id="ytick_9">
     <g id="line2d_84">
      <g>
       <use style="stroke:#000000;stroke-width:0.5;" x="72.0" xlink:href="#m3d74ebaca9" y="328.408991625"/>
      </g>
     </g>
     <g id="line2d_85">
      <g>
       <use style="stroke:#000000;stroke-width:0.5;" x="518.4" xlink:href="#m7f6dde766b" y="328.408991625"/>
      </g>
     </g>
    </g>
    <g id="ytick_10">
     <g id="line2d_86">
      <g>
       <use style="stroke:#000000;stroke-width:0.5;" x="72.0" xlink:href="#m3d74ebaca9" y="321.567731967"/>
      </g>
     </g>
     <g id="line2d_87">
      <g>
       <use style="stroke:#000000;stroke-width:0.5;" x="518.4" xlink:href="#m7f6dde766b" y="321.567731967"/>
      </g>
     </g>
    </g>
    <g id="ytick_11">
     <g id="line2d_88">
      <g>
       <use style="stroke:#000000;stroke-width:0.5;" x="72.0" xlink:href="#m3d74ebaca9" y="315.783529343"/>
      </g>
     </g>
     <g id="line2d_89">
      <g>
       <use style="stroke:#000000;stroke-width:0.5;" x="518.4" xlink:href="#m7f6dde766b" y="315.783529343"/>
      </g>
     </g>
    </g>
    <g id="ytick_12">
     <g id="line2d_90">
      <g>
       <use style="stroke:#000000;stroke-width:0.5;" x="72.0" xlink:href="#m3d74ebaca9" y="310.773025124"/>
      </g>
     </g>
     <g id="line2d_91">
      <g>
       <use style="stroke:#000000;stroke-width:0.5;" x="518.4" xlink:href="#m7f6dde766b" y="310.773025124"/>
      </g>
     </g>
    </g>
    <g id="ytick_13">
     <g id="line2d_92">
      <g>
       <use style="stroke:#000000;stroke-width:0.5;" x="72.0" xlink:href="#m3d74ebaca9" y="306.353447184"/>
      </g>
     </g>
     <g id="line2d_93">
      <g>
       <use style="stroke:#000000;stroke-width:0.5;" x="518.4" xlink:href="#m7f6dde766b" y="306.353447184"/>
      </g>
     </g>
    </g>
    <g id="ytick_14">
     <g id="line2d_94">
      <g>
       <use style="stroke:#000000;stroke-width:0.5;" x="72.0" xlink:href="#m3d74ebaca9" y="276.391008375"/>
      </g>
     </g>
     <g id="line2d_95">
      <g>
       <use style="stroke:#000000;stroke-width:0.5;" x="518.4" xlink:href="#m7f6dde766b" y="276.391008375"/>
      </g>
     </g>
    </g>
    <g id="ytick_15">
     <g id="line2d_96">
      <g>
       <use style="stroke:#000000;stroke-width:0.5;" x="72.0" xlink:href="#m3d74ebaca9" y="261.176723592"/>
      </g>
     </g>
     <g id="line2d_97">
      <g>
       <use style="stroke:#000000;stroke-width:0.5;" x="518.4" xlink:href="#m7f6dde766b" y="261.176723592"/>
      </g>
     </g>
    </g>
    <g id="ytick_16">
     <g id="line2d_98">
      <g>
       <use style="stroke:#000000;stroke-width:0.5;" x="72.0" xlink:href="#m3d74ebaca9" y="250.382016749"/>
      </g>
     </g>
     <g id="line2d_99">
      <g>
       <use style="stroke:#000000;stroke-width:0.5;" x="518.4" xlink:href="#m7f6dde766b" y="250.382016749"/>
      </g>
     </g>
    </g>
    <g id="ytick_17">
     <g id="line2d_100">
      <g>
       <use style="stroke:#000000;stroke-width:0.5;" x="72.0" xlink:href="#m3d74ebaca9" y="242.008991625"/>
      </g>
     </g>
     <g id="line2d_101">
      <g>
       <use style="stroke:#000000;stroke-width:0.5;" x="518.4" xlink:href="#m7f6dde766b" y="242.008991625"/>
      </g>
     </g>
    </g>
    <g id="ytick_18">
     <g id="line2d_102">
      <g>
       <use style="stroke:#000000;stroke-width:0.5;" x="72.0" xlink:href="#m3d74ebaca9" y="235.167731967"/>
      </g>
     </g>
     <g id="line2d_103">
      <g>
       <use style="stroke:#000000;stroke-width:0.5;" x="518.4" xlink:href="#m7f6dde766b" y="235.167731967"/>
      </g>
     </g>
    </g>
    <g id="ytick_19">
     <g id="line2d_104">
      <g>
       <use style="stroke:#000000;stroke-width:0.5;" x="72.0" xlink:href="#m3d74ebaca9" y="229.383529343"/>
      </g>
     </g>
     <g id="line2d_105">
      <g>
       <use style="stroke:#000000;stroke-width:0.5;" x="518.4" xlink:href="#m7f6dde766b" y="229.383529343"/>
      </g>
     </g>
    </g>
    <g id="ytick_20">
     <g id="line2d_106">
      <g>
       <use style="stroke:#000000;stroke-width:0.5;" x="72.0" xlink:href="#m3d74ebaca9" y="224.373025124"/>
      </g>
     </g>
     <g id="line2d_107">
      <g>
       <use style="stroke:#000000;stroke-width:0.5;" x="518.4" xlink:href="#m7f6dde766b" y="224.373025124"/>
      </g>
     </g>
    </g>
    <g id="ytick_21">
     <g id="line2d_108">
      <g>
       <use style="stroke:#000000;stroke-width:0.5;" x="72.0" xlink:href="#m3d74ebaca9" y="219.953447184"/>
      </g>
     </g>
     <g id="line2d_109">
      <g>
       <use style="stroke:#000000;stroke-width:0.5;" x="518.4" xlink:href="#m7f6dde766b" y="219.953447184"/>
      </g>
     </g>
    </g>
    <g id="ytick_22">
     <g id="line2d_110">
      <g>
       <use style="stroke:#000000;stroke-width:0.5;" x="72.0" xlink:href="#m3d74ebaca9" y="189.991008375"/>
      </g>
     </g>
     <g id="line2d_111">
      <g>
       <use style="stroke:#000000;stroke-width:0.5;" x="518.4" xlink:href="#m7f6dde766b" y="189.991008375"/>
      </g>
     </g>
    </g>
    <g id="ytick_23">
     <g id="line2d_112">
      <g>
       <use style="stroke:#000000;stroke-width:0.5;" x="72.0" xlink:href="#m3d74ebaca9" y="174.776723592"/>
      </g>
     </g>
     <g id="line2d_113">
      <g>
       <use style="stroke:#000000;stroke-width:0.5;" x="518.4" xlink:href="#m7f6dde766b" y="174.776723592"/>
      </g>
     </g>
    </g>
    <g id="ytick_24">
     <g id="line2d_114">
      <g>
       <use style="stroke:#000000;stroke-width:0.5;" x="72.0" xlink:href="#m3d74ebaca9" y="163.982016749"/>
      </g>
     </g>
     <g id="line2d_115">
      <g>
       <use style="stroke:#000000;stroke-width:0.5;" x="518.4" xlink:href="#m7f6dde766b" y="163.982016749"/>
      </g>
     </g>
    </g>
    <g id="ytick_25">
     <g id="line2d_116">
      <g>
       <use style="stroke:#000000;stroke-width:0.5;" x="72.0" xlink:href="#m3d74ebaca9" y="155.608991625"/>
      </g>
     </g>
     <g id="line2d_117">
      <g>
       <use style="stroke:#000000;stroke-width:0.5;" x="518.4" xlink:href="#m7f6dde766b" y="155.608991625"/>
      </g>
     </g>
    </g>
    <g id="ytick_26">
     <g id="line2d_118">
      <g>
       <use style="stroke:#000000;stroke-width:0.5;" x="72.0" xlink:href="#m3d74ebaca9" y="148.767731967"/>
      </g>
     </g>
     <g id="line2d_119">
      <g>
       <use style="stroke:#000000;stroke-width:0.5;" x="518.4" xlink:href="#m7f6dde766b" y="148.767731967"/>
      </g>
     </g>
    </g>
    <g id="ytick_27">
     <g id="line2d_120">
      <g>
       <use style="stroke:#000000;stroke-width:0.5;" x="72.0" xlink:href="#m3d74ebaca9" y="142.983529343"/>
      </g>
     </g>
     <g id="line2d_121">
      <g>
       <use style="stroke:#000000;stroke-width:0.5;" x="518.4" xlink:href="#m7f6dde766b" y="142.983529343"/>
      </g>
     </g>
    </g>
    <g id="ytick_28">
     <g id="line2d_122">
      <g>
       <use style="stroke:#000000;stroke-width:0.5;" x="72.0" xlink:href="#m3d74ebaca9" y="137.973025124"/>
      </g>
     </g>
     <g id="line2d_123">
      <g>
       <use style="stroke:#000000;stroke-width:0.5;" x="518.4" xlink:href="#m7f6dde766b" y="137.973025124"/>
      </g>
     </g>
    </g>
    <g id="ytick_29">
     <g id="line2d_124">
      <g>
       <use style="stroke:#000000;stroke-width:0.5;" x="72.0" xlink:href="#m3d74ebaca9" y="133.553447184"/>
      </g>
     </g>
     <g id="line2d_125">
      <g>
       <use style="stroke:#000000;stroke-width:0.5;" x="518.4" xlink:href="#m7f6dde766b" y="133.553447184"/>
      </g>
     </g>
    </g>
    <g id="ytick_30">
     <g id="line2d_126">
      <g>
       <use style="stroke:#000000;stroke-width:0.5;" x="72.0" xlink:href="#m3d74ebaca9" y="103.591008375"/>
      </g>
     </g>
     <g id="line2d_127">
      <g>
       <use style="stroke:#000000;stroke-width:0.5;" x="518.4" xlink:href="#m7f6dde766b" y="103.591008375"/>
      </g>
     </g>
    </g>
    <g id="ytick_31">
     <g id="line2d_128">
      <g>
       <use style="stroke:#000000;stroke-width:0.5;" x="72.0" xlink:href="#m3d74ebaca9" y="88.3767235922"/>
      </g>
     </g>
     <g id="line2d_129">
      <g>
       <use style="stroke:#000000;stroke-width:0.5;" x="518.4" xlink:href="#m7f6dde766b" y="88.3767235922"/>
      </g>
     </g>
    </g>
    <g id="ytick_32">
     <g id="line2d_130">
      <g>
       <use style="stroke:#000000;stroke-width:0.5;" x="72.0" xlink:href="#m3d74ebaca9" y="77.5820167493"/>
      </g>
     </g>
     <g id="line2d_131">
      <g>
       <use style="stroke:#000000;stroke-width:0.5;" x="518.4" xlink:href="#m7f6dde766b" y="77.5820167493"/>
      </g>
     </g>
    </g>
    <g id="ytick_33">
     <g id="line2d_132">
      <g>
       <use style="stroke:#000000;stroke-width:0.5;" x="72.0" xlink:href="#m3d74ebaca9" y="69.2089916254"/>
      </g>
     </g>
     <g id="line2d_133">
      <g>
       <use style="stroke:#000000;stroke-width:0.5;" x="518.4" xlink:href="#m7f6dde766b" y="69.2089916254"/>
      </g>
     </g>
    </g>
    <g id="ytick_34">
     <g id="line2d_134">
      <g>
       <use style="stroke:#000000;stroke-width:0.5;" x="72.0" xlink:href="#m3d74ebaca9" y="62.3677319669"/>
      </g>
     </g>
     <g id="line2d_135">
      <g>
       <use style="stroke:#000000;stroke-width:0.5;" x="518.4" xlink:href="#m7f6dde766b" y="62.3677319669"/>
      </g>
     </g>
    </g>
    <g id="ytick_35">
     <g id="line2d_136">
      <g>
       <use style="stroke:#000000;stroke-width:0.5;" x="72.0" xlink:href="#m3d74ebaca9" y="56.5835293428"/>
      </g>
     </g>
     <g id="line2d_137">
      <g>
       <use style="stroke:#000000;stroke-width:0.5;" x="518.4" xlink:href="#m7f6dde766b" y="56.5835293428"/>
      </g>
     </g>
    </g>
    <g id="ytick_36">
     <g id="line2d_138">
      <g>
       <use style="stroke:#000000;stroke-width:0.5;" x="72.0" xlink:href="#m3d74ebaca9" y="51.5730251239"/>
      </g>
     </g>
     <g id="line2d_139">
      <g>
       <use style="stroke:#000000;stroke-width:0.5;" x="518.4" xlink:href="#m7f6dde766b" y="51.5730251239"/>
      </g>
     </g>
    </g>
    <g id="ytick_37">
     <g id="line2d_140">
      <g>
       <use style="stroke:#000000;stroke-width:0.5;" x="72.0" xlink:href="#m3d74ebaca9" y="47.1534471844"/>
      </g>
     </g>
     <g id="line2d_141">
      <g>
       <use style="stroke:#000000;stroke-width:0.5;" x="518.4" xlink:href="#m7f6dde766b" y="47.1534471844"/>
      </g>
     </g>
    </g>
   </g>
  </g>
 </g>
 <defs>
  <clipPath id="p679bee5137">
   <rect height="345.6" width="446.4" x="72.0" y="43.2"/>
  </clipPath>
 </defs>
</svg>
