<?xml version="1.0" encoding="utf-8" standalone="no"?>
<!DOCTYPE svg PUBLIC "-//W3C//DTD SVG 1.1//EN"
  "http://www.w3.org/Graphics/SVG/1.1/DTD/svg11.dtd">
<!-- Created with matplotlib (http://matplotlib.org/) -->
<svg height="640pt" version="1.1" viewBox="0 0 921 640" width="921pt" xmlns="http://www.w3.org/2000/svg" xmlns:xlink="http://www.w3.org/1999/xlink">
 <defs>
  <style type="text/css">
*{stroke-linecap:butt;stroke-linejoin:round;stroke-miterlimit:100000;}
  </style>
 </defs>
 <g id="figure_1">
  <g id="patch_1">
   <path d="M 0 640.8 
L 921.6 640.8 
L 921.6 0 
L 0 0 
z
" style="fill:#ffffff;"/>
  </g>
  <g id="axes_1">
   <g id="patch_2">
    <path d="M 115.2 576.72 
L 829.44 576.72 
L 829.44 64.08 
L 115.2 64.08 
z
" style="fill:#ffffff;"/>
   </g>
   <g id="line2d_1">
    <path clip-path="url(#p1cc2c2ccd9)" d="M 115.2 117.825447 
L 132.313668 116.24924 
L 146.992943 117.392353 
L 159.844933 117.597652 
L 171.274613 116.646031 
L 181.565657 116.004637 
L 190.924519 118.599282 
L 199.506137 117.537958 
L 207.42977 118.309645 
L 221.659384 116.818038 
L 228.101408 117.005829 
L 234.165501 116.972221 
L 239.893559 117.555483 
L 245.320877 116.703598 
L 250.477466 116.900035 
L 255.389057 115.730693 
L 260.077878 118.455724 
L 264.563263 117.765405 
L 268.862134 117.515286 
L 272.989385 115.661703 
L 276.958194 117.557523 
L 280.780278 117.327029 
L 284.466099 117.266882 
L 288.025041 116.502523 
L 291.465549 116.941008 
L 294.795252 114.77067 
L 298.021064 115.812969 
L 301.149274 117.884866 
L 307.135328 117.188275 
L 310.003221 117.206608 
L 312.793709 116.209861 
L 315.510863 116.400654 
L 318.158437 116.771637 
L 320.739907 116.720202 
L 323.258492 118.063255 
L 325.717185 114.896234 
L 328.118768 115.056792 
L 330.465834 116.590302 
L 332.760802 115.166835 
L 335.005936 115.19502 
L 337.203354 115.615495 
L 339.355042 114.776799 
L 341.462865 115.581125 
L 353.28 115.343049 
L 370.393668 116.800518 
L 385.072943 115.125789 
L 397.924933 107.428426 
L 409.354613 103.554113 
L 419.645657 99.508313 
L 429.004519 100.744916 
L 437.586137 101.180523 
L 445.50977 107.916371 
L 452.869171 115.489838 
L 459.739384 121.019324 
L 466.181408 132.039127 
L 472.245501 141.197337 
L 477.973559 146.34595 
L 483.400877 157.005988 
L 488.557466 158.913798 
L 493.469057 164.178999 
L 498.157878 164.023039 
L 502.643263 164.961025 
L 506.942134 169.133776 
L 511.069385 170.927034 
L 515.038194 167.699172 
L 518.860278 171.385107 
L 522.546099 172.276336 
L 526.105041 172.708162 
L 529.545549 177.715192 
L 532.875252 173.070582 
L 536.101064 180.277357 
L 539.229274 190.781988 
L 542.265615 187.08005 
L 545.215328 187.471835 
L 548.083221 181.847135 
L 550.873709 186.733849 
L 553.590863 189.356331 
L 556.238437 189.357994 
L 558.819907 193.497 
L 561.338492 205.293753 
L 563.797185 193.779507 
L 566.198768 199.233549 
L 568.545834 197.896217 
L 570.840802 206.489535 
L 573.085936 209.279948 
L 575.283354 204.247282 
L 577.435042 215.201078 
L 579.542865 205.125626 
L 591.36 215.463438 
L 608.473668 230.060047 
L 623.152943 230.711613 
L 636.004933 246.438253 
L 647.434613 251.610402 
L 657.725657 269.457401 
L 667.084519 262.639361 
L 675.666137 268.693396 
L 683.58977 261.034378 
L 690.949171 268.283308 
L 697.819384 246.617226 
L 704.261408 282.822577 
L 710.325501 283.487387 
L 716.053559 285.230548 
L 721.480877 267.846924 
L 726.637466 286.089718 
L 731.549057 317.692584 
L 736.237878 280.233352 
L 740.723263 276.685776 
L 745.022134 318.000078 
L 749.149385 305.194271 
L 753.118194 290.301881 
L 756.940278 296.315654 
L 760.626099 357.82318 
L 764.185041 306.021813 
L 767.625549 368.385463 
L 770.955252 329.79404 
L 774.181064 303.965864 
L 777.309274 367.795779 
L 780.345615 366.36202 
L 783.295328 306.227714 
L 786.163221 322.543549 
L 788.953709 329.988367 
L 791.670863 316.059758 
L 794.318437 351.10047 
L 796.899907 415.135768 
L 799.418492 334.782682 
L 801.877185 326.328921 
L 804.278768 323.982444 
L 806.625834 315.502334 
L 808.920802 354.056622 
L 811.165936 283.945762 
L 813.363354 441.594604 
L 815.515042 386.53124 
L 817.622865 297.215528 
L 819.688575 316.430334 
L 821.713822 350.111242 
L 823.700162 344.16637 
L 825.64906 310.633228 
L 827.561903 342.929534 
L 827.561903 342.929534 
" style="fill:none;stroke:#ff1e1e;stroke-linecap:square;"/>
   </g>
   <g id="line2d_2">
    <path clip-path="url(#p1cc2c2ccd9)" d="M 115.2 130.866496 
L 132.313668 133.011071 
L 146.992943 131.662365 
L 159.844933 135.541557 
L 171.274613 132.677494 
L 181.565657 132.947115 
L 190.924519 132.927306 
L 199.506137 131.012668 
L 207.42977 131.898917 
L 214.789171 132.00991 
L 221.659384 131.064557 
L 228.101408 135.979346 
L 234.165501 130.754753 
L 239.893559 133.134381 
L 245.320877 132.641584 
L 250.477466 132.974002 
L 255.389057 136.413351 
L 260.077878 133.116045 
L 264.563263 132.26576 
L 268.862134 133.882698 
L 272.989385 132.743973 
L 276.958194 133.52315 
L 280.780278 132.928618 
L 284.466099 131.196244 
L 288.025041 135.831714 
L 291.465549 133.034267 
L 294.795252 134.012175 
L 298.021064 133.773604 
L 301.149274 132.550366 
L 304.185615 133.797375 
L 307.135328 135.538444 
L 310.003221 136.379374 
L 312.793709 130.867808 
L 315.510863 133.39819 
L 318.158437 133.679136 
L 320.739907 135.114884 
L 325.717185 132.67621 
L 328.118768 135.607952 
L 330.465834 135.454682 
L 332.760802 134.243953 
L 335.005936 134.622125 
L 337.203354 134.192548 
L 339.355042 134.897732 
L 341.462865 131.556407 
L 353.28 133.707959 
L 385.072943 135.011781 
L 397.924933 134.924238 
L 409.354613 137.73053 
L 419.645657 134.227447 
L 429.004519 135.110921 
L 437.586137 135.478218 
L 445.50977 135.143365 
L 452.869171 138.112922 
L 459.739384 136.339607 
L 466.181408 138.152955 
L 472.245501 144.026058 
L 477.973559 146.64051 
L 483.400877 146.408225 
L 488.557466 151.725069 
L 493.469057 154.951522 
L 498.157878 158.984326 
L 506.942134 165.843852 
L 511.069385 167.664865 
L 515.038194 174.004097 
L 518.860278 181.914034 
L 522.546099 183.805479 
L 526.105041 188.482761 
L 529.545549 197.401595 
L 532.875252 191.955552 
L 536.101064 197.191118 
L 539.229274 201.503645 
L 542.265615 198.66416 
L 545.215328 198.150444 
L 548.083221 201.532487 
L 550.873709 194.968057 
L 553.590863 202.280711 
L 556.238437 201.010291 
L 558.819907 204.983721 
L 561.338492 201.041932 
L 563.797185 193.985624 
L 566.198768 207.90056 
L 568.545834 202.392622 
L 570.840802 208.025887 
L 573.085936 215.424814 
L 575.283354 213.640979 
L 577.435042 207.804518 
L 579.542865 209.736633 
L 591.36 221.100615 
L 608.473668 227.579154 
L 623.152943 228.818451 
L 636.004933 250.393688 
L 647.434613 233.778543 
L 657.725657 243.89419 
L 667.084519 260.573553 
L 675.666137 261.172649 
L 683.58977 269.448336 
L 690.949171 256.737109 
L 704.261408 287.167833 
L 710.325501 293.302111 
L 716.053559 324.249254 
L 721.480877 256.866342 
L 726.637466 344.208021 
L 731.549057 290.373439 
L 736.237878 281.283901 
L 740.723263 273.159426 
L 745.022134 302.963399 
L 749.149385 289.945671 
L 753.118194 347.283312 
L 756.940278 328.133452 
L 760.626099 262.30171 
L 767.625549 331.578166 
L 770.955252 371.449624 
L 774.181064 310.012729 
L 777.309274 415.152435 
L 780.345615 351.599553 
L 783.295328 329.902457 
L 786.163221 315.653612 
L 788.953709 316.631901 
L 791.670863 332.969411 
L 794.318437 328.946875 
L 796.899907 311.876713 
L 799.418492 356.802194 
L 801.877185 292.274836 
L 804.278768 303.55162 
L 806.625834 309.657776 
L 808.920802 399.834115 
L 811.165936 319.997641 
L 813.363354 335.2591 
L 815.515042 325.693654 
L 817.622865 436.813161 
L 819.688575 320.415199 
L 821.713822 366.025501 
L 823.700162 406.45037 
L 825.64906 302.892228 
L 827.561903 311.027776 
L 827.561903 311.027776 
" style="fill:none;stroke:#581845;stroke-linecap:square;"/>
   </g>
   <g id="line2d_3">
    <path clip-path="url(#p1cc2c2ccd9)" d="M 115.2 150.093496 
L 132.313668 147.800505 
L 146.992943 146.499636 
L 159.844933 147.166167 
L 171.274613 148.99906 
L 181.565657 148.747189 
L 190.924519 145.592207 
L 199.506137 150.509698 
L 207.42977 150.808662 
L 214.789171 147.275243 
L 221.659384 143.493935 
L 228.101408 150.931813 
L 234.165501 144.790126 
L 239.893559 144.471845 
L 245.320877 149.234169 
L 250.477466 146.372395 
L 255.389057 148.311888 
L 260.077878 147.449673 
L 264.563263 146.362762 
L 268.862134 148.039347 
L 272.989385 147.028796 
L 276.958194 149.432278 
L 280.780278 147.945011 
L 284.466099 147.6795 
L 288.025041 154.842992 
L 291.465549 148.076345 
L 294.795252 152.160295 
L 298.021064 149.145297 
L 301.149274 152.232757 
L 304.185615 149.067043 
L 307.135328 153.355969 
L 310.003221 149.251389 
L 312.793709 148.464858 
L 315.510863 150.65884 
L 318.158437 149.086851 
L 320.739907 148.127204 
L 323.258492 148.87661 
L 325.717185 153.228113 
L 328.118768 150.192427 
L 330.465834 153.82691 
L 332.760802 154.473779 
L 335.005936 153.558737 
L 337.203354 153.983646 
L 339.355042 151.843658 
L 341.462865 150.581192 
L 370.393668 152.038945 
L 385.072943 157.510096 
L 397.924933 153.811292 
L 409.354613 160.203209 
L 419.645657 156.357748 
L 429.004519 160.010601 
L 437.586137 159.922214 
L 445.50977 159.646536 
L 452.869171 161.883163 
L 459.739384 161.345459 
L 466.181408 159.389903 
L 472.245501 163.565206 
L 477.973559 158.562493 
L 483.400877 159.542707 
L 488.557466 157.319051 
L 493.469057 165.263376 
L 498.157878 167.803832 
L 502.643263 163.937866 
L 506.942134 175.615606 
L 511.069385 175.973052 
L 515.038194 178.616721 
L 518.860278 174.528334 
L 522.546099 185.938693 
L 526.105041 186.344719 
L 529.545549 194.439961 
L 532.875252 184.40498 
L 536.101064 183.767943 
L 539.229274 200.948068 
L 542.265615 194.258926 
L 545.215328 205.950169 
L 548.083221 201.742952 
L 550.873709 194.532814 
L 553.590863 206.878174 
L 556.238437 203.928922 
L 558.819907 206.429966 
L 561.338492 219.106111 
L 563.797185 198.081458 
L 566.198768 210.826656 
L 568.545834 206.49596 
L 570.840802 211.354688 
L 573.085936 222.034702 
L 575.283354 214.242737 
L 577.435042 222.563635 
L 579.542865 221.664534 
L 591.36 218.519639 
L 608.473668 222.193391 
L 623.152943 251.48464 
L 636.004933 251.10623 
L 647.434613 252.903293 
L 657.725657 259.049332 
L 667.084519 250.6731 
L 675.666137 272.433603 
L 683.58977 285.855106 
L 690.949171 290.043766 
L 697.819384 306.768368 
L 704.261408 286.427784 
L 710.325501 253.172848 
L 716.053559 264.340387 
L 721.480877 334.291309 
L 726.637466 282.800573 
L 731.549057 336.173921 
L 736.237878 293.335524 
L 740.723263 300.177016 
L 745.022134 325.433082 
L 749.149385 319.12111 
L 753.118194 316.279266 
L 756.940278 316.670314 
L 760.626099 275.514714 
L 764.185041 301.697015 
L 767.625549 317.525528 
L 770.955252 280.523347 
L 774.181064 335.622587 
L 777.309274 357.866266 
L 780.345615 344.516707 
L 783.295328 333.245061 
L 786.163221 313.99306 
L 788.953709 323.008681 
L 791.670863 315.802502 
L 794.318437 374.91979 
L 796.899907 322.204815 
L 799.418492 331.885172 
L 801.877185 326.651042 
L 804.278768 311.166294 
L 806.625834 293.011983 
L 808.920802 362.337604 
L 811.165936 320.349556 
L 813.363354 311.591106 
L 815.515042 364.605354 
L 817.622865 356.855292 
L 819.688575 332.787568 
L 821.713822 383.493321 
L 823.700162 388.241785 
L 825.64906 386.517244 
L 827.561903 354.641948 
L 827.561903 354.641948 
" style="fill:none;stroke:#26b7d8;stroke-linecap:square;"/>
   </g>
   <g id="line2d_4">
    <path clip-path="url(#p1cc2c2ccd9)" d="M 115.2 162.694317 
L 132.313668 163.360172 
L 146.992943 157.970313 
L 159.844933 160.862194 
L 171.274613 160.600916 
L 181.565657 159.943512 
L 190.924519 158.74874 
L 199.506137 164.984654 
L 207.42977 166.949603 
L 214.789171 158.739684 
L 221.659384 163.319158 
L 228.101408 168.281899 
L 234.165501 164.626588 
L 239.893559 163.378842 
L 245.320877 166.313809 
L 250.477466 165.485476 
L 255.389057 161.963963 
L 260.077878 162.750817 
L 264.563263 162.312615 
L 268.862134 159.822935 
L 272.989385 161.693174 
L 276.958194 164.943175 
L 280.780278 162.427661 
L 284.466099 164.966308 
L 288.025041 160.571164 
L 291.465549 166.048996 
L 294.795252 169.338875 
L 298.021064 165.149147 
L 301.149274 163.691461 
L 304.185615 163.804761 
L 307.135328 169.676017 
L 310.003221 167.304571 
L 312.793709 162.78626 
L 315.510863 165.823456 
L 318.158437 161.728554 
L 320.739907 163.899999 
L 323.258492 165.288159 
L 325.717185 167.958088 
L 328.118768 163.863443 
L 330.465834 166.495664 
L 332.760802 170.465892 
L 335.005936 163.761745 
L 337.203354 168.305981 
L 339.355042 166.600444 
L 341.462865 166.375457 
L 353.28 173.696268 
L 370.393668 163.985937 
L 385.072943 168.6215 
L 397.924933 170.295434 
L 419.645657 179.765899 
L 429.004519 175.237884 
L 437.586137 177.2978 
L 445.50977 178.841368 
L 452.869171 178.019946 
L 459.739384 179.833669 
L 466.181408 175.350911 
L 472.245501 181.585715 
L 477.973559 173.27673 
L 483.400877 181.502108 
L 488.557466 184.073978 
L 493.469057 180.59477 
L 498.157878 186.471899 
L 502.643263 183.200231 
L 506.942134 180.303427 
L 511.069385 181.958657 
L 515.038194 184.602256 
L 518.860278 183.594174 
L 522.546099 190.189263 
L 526.105041 184.338409 
L 529.545549 189.856196 
L 532.875252 191.708188 
L 536.101064 186.018533 
L 539.229274 190.017147 
L 542.265615 194.826762 
L 545.215328 197.893724 
L 548.083221 199.016036 
L 550.873709 206.393065 
L 553.590863 212.004727 
L 556.238437 219.914209 
L 558.819907 219.332162 
L 561.338492 209.539116 
L 563.797185 220.598502 
L 566.198768 218.016058 
L 568.545834 218.290612 
L 570.840802 226.603636 
L 573.085936 240.301554 
L 575.283354 231.996756 
L 577.435042 230.751564 
L 579.542865 216.223775 
L 591.36 237.330262 
L 608.473668 231.101673 
L 623.152943 234.026619 
L 636.004933 253.612878 
L 647.434613 260.272638 
L 657.725657 251.412288 
L 667.084519 267.052719 
L 675.666137 268.2207 
L 683.58977 292.458493 
L 690.949171 297.458083 
L 697.819384 259.564456 
L 704.261408 322.333492 
L 710.325501 330.838951 
L 716.053559 278.197854 
L 721.480877 336.862926 
L 726.637466 298.842797 
L 731.549057 292.822332 
L 736.237878 295.288268 
L 740.723263 289.079519 
L 745.022134 336.787292 
L 749.149385 380.319541 
L 753.118194 301.382642 
L 756.940278 336.959828 
L 760.626099 312.801173 
L 764.185041 327.725349 
L 767.625549 307.453423 
L 770.955252 296.086189 
L 774.181064 325.649148 
L 777.309274 380.355533 
L 780.345615 311.603995 
L 783.295328 316.071083 
L 786.163221 356.889321 
L 788.953709 340.154624 
L 791.670863 327.442846 
L 794.318437 325.595961 
L 796.899907 399.971376 
L 799.418492 312.981132 
L 801.877185 335.728825 
L 804.278768 382.176949 
L 806.625834 317.224243 
L 808.920802 355.198747 
L 811.165936 339.032672 
L 813.363354 326.641969 
L 815.515042 329.470567 
L 817.622865 319.870134 
L 819.688575 327.98602 
L 821.713822 372.080444 
L 823.700162 309.287897 
L 825.64906 331.657001 
L 827.561903 328.978662 
L 827.561903 328.978662 
" style="fill:none;stroke:#8414a4;stroke-linecap:square;"/>
   </g>
   <g id="line2d_5">
    <path clip-path="url(#p1cc2c2ccd9)" d="M 115.2 170.630283 
L 132.313668 168.709683 
L 146.992943 170.615093 
L 159.844933 164.998046 
L 171.274613 165.948957 
L 181.565657 169.675158 
L 190.924519 172.150272 
L 199.506137 176.296996 
L 207.42977 173.617768 
L 214.789171 171.767676 
L 221.659384 166.399785 
L 228.101408 170.97811 
L 234.165501 172.547831 
L 239.893559 173.174221 
L 245.320877 177.0119 
L 250.477466 171.86571 
L 255.389057 177.64143 
L 260.077878 179.749239 
L 264.563263 170.372787 
L 268.862134 171.754705 
L 272.989385 174.700827 
L 276.958194 176.496142 
L 280.780278 176.946008 
L 284.466099 180.773199 
L 288.025041 176.3469 
L 291.465549 177.086275 
L 294.795252 174.483264 
L 298.021064 169.679235 
L 301.149274 173.747621 
L 304.185615 179.777859 
L 307.135328 170.296846 
L 310.003221 175.789444 
L 312.793709 175.272997 
L 315.510863 180.001186 
L 318.158437 172.565442 
L 320.739907 176.176044 
L 323.258492 177.494157 
L 325.717185 174.310444 
L 328.118768 178.121377 
L 332.760802 174.557573 
L 335.005936 182.998549 
L 337.203354 176.652426 
L 339.355042 188.465923 
L 341.462865 180.860036 
L 353.28 183.482296 
L 370.393668 183.146271 
L 385.072943 185.907051 
L 397.924933 186.288977 
L 409.354613 185.798862 
L 419.645657 186.002437 
L 429.004519 190.251475 
L 437.586137 189.278453 
L 445.50977 190.042184 
L 452.869171 193.50094 
L 459.739384 194.429322 
L 466.181408 195.578394 
L 472.245501 188.202862 
L 477.973559 190.65244 
L 483.400877 200.28268 
L 488.557466 194.448314 
L 493.469057 191.315494 
L 498.157878 191.150351 
L 502.643263 193.975478 
L 506.942134 193.811355 
L 511.069385 182.962931 
L 515.038194 182.215558 
L 518.860278 198.906383 
L 522.546099 190.169605 
L 526.105041 195.215117 
L 529.545549 188.964795 
L 532.875252 196.343988 
L 536.101064 190.49778 
L 539.229274 196.37528 
L 542.265615 212.254636 
L 545.215328 199.040032 
L 548.083221 207.604002 
L 550.873709 229.731516 
L 553.590863 208.154066 
L 556.238437 203.773169 
L 558.819907 216.845382 
L 561.338492 219.122772 
L 563.797185 224.812092 
L 566.198768 228.168106 
L 568.545834 221.66997 
L 570.840802 220.480115 
L 573.085936 224.125491 
L 575.283354 234.6658 
L 577.435042 240.513918 
L 579.542865 236.931734 
L 591.36 250.560831 
L 608.473668 252.18082 
L 623.152943 269.884842 
L 636.004933 247.827867 
L 647.434613 266.093309 
L 657.725657 260.255582 
L 667.084519 266.004854 
L 675.666137 249.165702 
L 683.58977 269.573918 
L 690.949171 275.181809 
L 697.819384 289.157284 
L 704.261408 345.101381 
L 710.325501 283.732747 
L 716.053559 281.379728 
L 721.480877 299.395092 
L 726.637466 300.531618 
L 731.549057 288.732961 
L 736.237878 325.794371 
L 740.723263 289.325111 
L 745.022134 278.565436 
L 753.118194 307.00185 
L 756.940278 343.158286 
L 760.626099 301.560108 
L 764.185041 328.367331 
L 767.625549 330.085897 
L 770.955252 322.949055 
L 774.181064 338.306873 
L 777.309274 323.160637 
L 780.345615 450.602901 
L 783.295328 356.825365 
L 786.163221 319.347241 
L 788.953709 375.329739 
L 791.670863 341.907957 
L 794.318437 331.371428 
L 796.899907 337.01664 
L 799.418492 321.926825 
L 801.877185 348.283799 
L 804.278768 329.663207 
L 806.625834 343.871131 
L 808.920802 336.708115 
L 811.165936 370.588661 
L 813.363354 309.714524 
L 815.515042 440.566186 
L 817.622865 322.056161 
L 819.688575 321.927539 
L 821.713822 355.878841 
L 823.700162 321.96803 
L 825.64906 339.29478 
L 827.561903 370.568045 
L 827.561903 370.568045 
" style="fill:none;stroke:#ffd23a;stroke-linecap:square;"/>
   </g>
   <g id="line2d_6">
    <path clip-path="url(#p1cc2c2ccd9)" d="M 115.2 182.556925 
L 132.313668 174.556973 
L 146.992943 178.047745 
L 159.844933 179.978202 
L 171.274613 180.700878 
L 181.565657 183.924375 
L 190.924519 184.269707 
L 199.506137 174.36024 
L 207.42977 176.308542 
L 214.789171 184.17151 
L 221.659384 187.5682 
L 228.101408 183.604533 
L 234.165501 176.528923 
L 239.893559 188.224397 
L 245.320877 178.450437 
L 250.477466 179.382215 
L 255.389057 185.252131 
L 260.077878 181.187945 
L 264.563263 178.500225 
L 268.862134 184.829322 
L 272.989385 186.483062 
L 276.958194 191.441883 
L 280.780278 182.770011 
L 284.466099 182.648176 
L 288.025041 175.768826 
L 291.465549 177.779956 
L 294.795252 181.637197 
L 298.021064 186.879662 
L 301.149274 184.681386 
L 304.185615 188.993043 
L 307.135328 190.229063 
L 310.003221 183.812592 
L 312.793709 192.16632 
L 315.510863 195.365825 
L 318.158437 184.750389 
L 320.739907 179.359443 
L 323.258492 186.080781 
L 325.717185 190.292725 
L 328.118768 190.60915 
L 330.465834 189.914159 
L 332.760802 191.746059 
L 335.005936 189.595327 
L 337.203354 190.951409 
L 339.355042 184.470126 
L 341.462865 189.911002 
L 353.28 189.084091 
L 370.393668 195.020227 
L 385.072943 197.156005 
L 397.924933 200.785069 
L 409.354613 197.840184 
L 419.645657 203.821896 
L 429.004519 199.782789 
L 437.586137 197.331381 
L 445.50977 204.491861 
L 452.869171 208.393224 
L 459.739384 205.326402 
L 466.181408 210.541098 
L 472.245501 210.175395 
L 477.973559 205.100001 
L 483.400877 201.998906 
L 488.557466 201.109046 
L 493.469057 199.481337 
L 498.157878 206.920101 
L 502.643263 205.68921 
L 506.942134 210.963915 
L 511.069385 208.334875 
L 515.038194 208.540098 
L 518.860278 198.030746 
L 522.546099 198.388623 
L 526.105041 198.942446 
L 529.545549 207.349357 
L 532.875252 213.273076 
L 536.101064 210.624268 
L 539.229274 208.398079 
L 542.265615 215.346373 
L 545.215328 217.443699 
L 548.083221 217.497786 
L 550.873709 207.169749 
L 553.590863 209.106463 
L 556.238437 217.766844 
L 558.819907 212.242564 
L 561.338492 220.03864 
L 563.797185 210.805015 
L 566.198768 227.469907 
L 568.545834 215.741011 
L 570.840802 235.409677 
L 573.085936 216.363129 
L 575.283354 218.310158 
L 577.435042 249.933361 
L 579.542865 223.343025 
L 591.36 245.823459 
L 608.473668 249.455131 
L 623.152943 243.946179 
L 636.004933 268.696909 
L 647.434613 265.831635 
L 657.725657 258.500619 
L 667.084519 266.565098 
L 675.666137 256.107479 
L 683.58977 281.477256 
L 690.949171 314.014197 
L 697.819384 276.622644 
L 704.261408 304.516886 
L 710.325501 286.075141 
L 716.053559 322.692999 
L 721.480877 286.124797 
L 726.637466 289.323345 
L 731.549057 282.118835 
L 736.237878 306.951349 
L 740.723263 376.429632 
L 745.022134 363.03254 
L 749.149385 292.755971 
L 753.118194 307.325446 
L 756.940278 313.997707 
L 760.626099 329.213681 
L 764.185041 312.220634 
L 767.625549 390.489276 
L 770.955252 440.706631 
L 774.181064 384.919526 
L 777.309274 402.837587 
L 780.345615 306.367021 
L 783.295328 350.321349 
L 786.163221 351.477684 
L 788.953709 363.744447 
L 791.670863 339.467177 
L 794.318437 336.061232 
L 796.899907 329.359007 
L 799.418492 310.558391 
L 801.877185 297.799063 
L 804.278768 333.144246 
L 806.625834 374.727617 
L 808.920802 304.965647 
L 811.165936 358.740559 
L 813.363354 330.93165 
L 815.515042 378.703724 
L 817.622865 309.912071 
L 819.688575 363.19924 
L 821.713822 352.978248 
L 823.700162 306.473398 
L 825.64906 341.49988 
L 827.561903 311.512683 
L 827.561903 311.512683 
" style="fill:none;stroke:#ff9300;stroke-linecap:square;"/>
   </g>
   <g id="line2d_7">
    <path clip-path="url(#p1cc2c2ccd9)" d="M 115.2 189.783214 
L 132.313668 191.903766 
L 146.992943 191.000661 
L 159.844933 191.315233 
L 171.274613 196.727417 
L 181.565657 190.118405 
L 190.924519 189.103243 
L 199.506137 190.758017 
L 207.42977 181.823596 
L 214.789171 192.2598 
L 221.659384 187.668476 
L 228.101408 183.811597 
L 234.165501 183.455382 
L 239.893559 184.945553 
L 245.320877 189.655628 
L 250.477466 189.516065 
L 255.389057 190.478294 
L 260.077878 187.589074 
L 264.563263 193.40429 
L 268.862134 192.878039 
L 272.989385 192.840549 
L 276.958194 192.092286 
L 280.780278 193.001645 
L 284.466099 193.142785 
L 288.025041 187.428347 
L 291.465549 196.706265 
L 294.795252 196.147996 
L 298.021064 186.056724 
L 301.149274 194.469997 
L 304.185615 197.637581 
L 307.135328 202.041648 
L 310.003221 186.551613 
L 312.793709 198.808289 
L 315.510863 193.178986 
L 318.158437 195.219971 
L 320.739907 203.195302 
L 323.258492 195.917126 
L 325.717185 191.575664 
L 328.118768 207.252328 
L 330.465834 200.98085 
L 332.760802 190.448292 
L 335.005936 199.611448 
L 337.203354 196.239513 
L 339.355042 198.146082 
L 341.462865 189.42356 
L 353.28 198.906796 
L 370.393668 207.260516 
L 385.072943 203.849266 
L 397.924933 215.174999 
L 409.354613 213.715033 
L 419.645657 211.580951 
L 429.004519 216.602223 
L 437.586137 211.357444 
L 445.50977 212.232866 
L 452.869171 221.155154 
L 459.739384 217.134898 
L 466.181408 215.2267 
L 472.245501 229.313399 
L 477.973559 228.496879 
L 483.400877 226.136605 
L 488.557466 218.015753 
L 493.469057 207.641444 
L 498.157878 214.044337 
L 502.643263 211.176722 
L 506.942134 224.402764 
L 511.069385 215.170161 
L 515.038194 226.682399 
L 518.860278 211.898647 
L 522.546099 219.469984 
L 526.105041 222.71874 
L 529.545549 209.52033 
L 532.875252 225.384488 
L 536.101064 212.125521 
L 539.229274 226.027838 
L 542.265615 215.718818 
L 545.215328 210.788182 
L 548.083221 199.255165 
L 550.873709 214.824519 
L 553.590863 216.176895 
L 556.238437 208.935064 
L 558.819907 223.755107 
L 561.338492 233.168964 
L 563.797185 211.996395 
L 566.198768 216.446926 
L 568.545834 230.263652 
L 570.840802 237.797731 
L 573.085936 227.292617 
L 575.283354 240.150648 
L 577.435042 224.376122 
L 579.542865 215.543201 
L 591.36 256.500348 
L 608.473668 255.566475 
L 623.152943 262.942562 
L 636.004933 257.657796 
L 647.434613 260.531486 
L 657.725657 292.702317 
L 667.084519 257.017141 
L 675.666137 269.848194 
L 683.58977 271.263823 
L 690.949171 273.050738 
L 697.819384 287.793676 
L 704.261408 283.496147 
L 710.325501 273.349845 
L 716.053559 296.733759 
L 721.480877 343.999822 
L 726.637466 330.302699 
L 731.549057 297.777837 
L 736.237878 312.249574 
L 740.723263 331.818279 
L 745.022134 338.659166 
L 749.149385 323.651175 
L 753.118194 346.33606 
L 756.940278 334.033042 
L 760.626099 298.401899 
L 764.185041 326.644378 
L 767.625549 471.158139 
L 770.955252 367.883795 
L 774.181064 325.076402 
L 777.309274 384.999217 
L 780.345615 365.834504 
L 783.295328 464.164616 
L 786.163221 312.492222 
L 788.953709 379.998548 
L 791.670863 475.296748 
L 794.318437 322.89801 
L 796.899907 346.811149 
L 799.418492 362.195149 
L 801.877185 346.52337 
L 804.278768 390.76003 
L 806.625834 347.14969 
L 808.920802 389.13103 
L 811.165936 381.958046 
L 813.363354 390.785786 
L 815.515042 361.68621 
L 817.622865 402.514092 
L 819.688575 354.95947 
L 821.713822 345.667844 
L 823.700162 437.573615 
L 825.64906 306.927811 
L 827.561903 347.529821 
L 827.561903 347.529821 
" style="fill:none;stroke:#f50fe6;stroke-linecap:square;"/>
   </g>
   <g id="line2d_8">
    <path clip-path="url(#p1cc2c2ccd9)" d="M 115.2 199.112868 
L 132.313668 190.948821 
L 146.992943 208.918141 
L 159.844933 199.710937 
L 171.274613 194.903322 
L 181.565657 191.256093 
L 190.924519 209.690024 
L 199.506137 197.538801 
L 207.42977 192.862266 
L 214.789171 187.868963 
L 221.659384 205.72469 
L 228.101408 201.876615 
L 234.165501 193.385283 
L 239.893559 200.219626 
L 245.320877 204.592746 
L 250.477466 196.045092 
L 255.389057 214.753902 
L 260.077878 203.610088 
L 264.563263 205.93042 
L 268.862134 197.067962 
L 272.989385 196.543184 
L 276.958194 199.044372 
L 280.780278 200.370543 
L 284.466099 198.123216 
L 288.025041 199.239211 
L 291.465549 209.894461 
L 294.795252 198.37079 
L 298.021064 197.424316 
L 301.149274 209.423644 
L 304.185615 210.785157 
L 307.135328 200.238898 
L 310.003221 198.17537 
L 312.793709 199.754226 
L 315.510863 203.226477 
L 318.158437 193.539049 
L 320.739907 205.271494 
L 323.258492 202.820037 
L 325.717185 196.367649 
L 328.118768 209.779364 
L 330.465834 203.041619 
L 332.760802 194.977679 
L 335.005936 199.830969 
L 337.203354 199.440636 
L 339.355042 201.784112 
L 341.462865 202.253395 
L 353.28 197.756828 
L 370.393668 213.663291 
L 385.072943 210.181886 
L 397.924933 210.84418 
L 409.354613 216.311229 
L 419.645657 222.782805 
L 429.004519 220.813999 
L 437.586137 225.386222 
L 445.50977 228.759838 
L 452.869171 212.792586 
L 459.739384 229.837903 
L 466.181408 229.61744 
L 472.245501 222.835573 
L 477.973559 228.443946 
L 483.400877 236.408443 
L 488.557466 230.235816 
L 493.469057 225.101317 
L 498.157878 232.936142 
L 502.643263 226.16301 
L 506.942134 231.497273 
L 511.069385 229.670985 
L 515.038194 232.267105 
L 518.860278 228.467524 
L 522.546099 220.605603 
L 526.105041 226.271162 
L 529.545549 217.438713 
L 532.875252 223.356748 
L 536.101064 228.7877 
L 539.229274 227.98766 
L 542.265615 228.593813 
L 545.215328 232.183655 
L 548.083221 231.91299 
L 550.873709 211.919988 
L 553.590863 209.18305 
L 556.238437 232.62707 
L 558.819907 220.379655 
L 561.338492 224.486004 
L 563.797185 227.847367 
L 566.198768 225.361744 
L 568.545834 219.394968 
L 570.840802 241.664959 
L 573.085936 225.06128 
L 575.283354 225.23148 
L 577.435042 236.912802 
L 579.542865 240.595 
L 591.36 239.684233 
L 608.473668 267.933601 
L 623.152943 263.42637 
L 636.004933 251.175199 
L 647.434613 262.42405 
L 657.725657 295.003543 
L 667.084519 289.956213 
L 675.666137 283.015048 
L 683.58977 274.310269 
L 690.949171 282.683906 
L 697.819384 280.075725 
L 704.261408 310.502547 
L 710.325501 282.735335 
L 716.053559 333.484981 
L 721.480877 328.424509 
L 726.637466 336.757513 
L 731.549057 297.688904 
L 736.237878 331.308524 
L 740.723263 450.888122 
L 745.022134 332.004732 
L 749.149385 317.78774 
L 753.118194 310.798785 
L 756.940278 365.084976 
L 760.626099 365.540682 
L 764.185041 394.319289 
L 767.625549 330.818141 
L 770.955252 322.285448 
L 774.181064 418.223502 
L 777.309274 416.19869 
L 780.345615 349.276714 
L 783.295328 290.52384 
L 786.163221 306.366642 
L 788.953709 472.391178 
L 791.670863 377.555249 
L 794.318437 355.281812 
L 796.899907 391.823548 
L 799.418492 513.161561 
L 801.877185 381.072085 
L 804.278768 337.375152 
L 806.625834 344.485988 
L 808.920802 340.076142 
L 811.165936 362.135829 
L 813.363354 412.819185 
L 815.515042 348.925114 
L 817.622865 380.454158 
L 819.688575 372.043749 
L 821.713822 449.467757 
L 823.700162 339.705788 
L 825.64906 370.134426 
L 827.561903 404.554091 
L 827.561903 404.554091 
" style="fill:none;stroke:#1000a0;stroke-linecap:square;"/>
   </g>
   <g id="line2d_9">
    <path clip-path="url(#p1cc2c2ccd9)" d="M 115.2 196.671695 
L 132.313668 205.953922 
L 146.992943 195.683544 
L 159.844933 214.782366 
L 171.274613 213.618638 
L 181.565657 193.843982 
L 190.924519 218.583226 
L 199.506137 210.343066 
L 207.42977 203.48845 
L 214.789171 207.429566 
L 221.659384 192.474034 
L 228.101408 212.728718 
L 234.165501 206.931343 
L 239.893559 211.6214 
L 245.320877 213.454594 
L 250.477466 214.267092 
L 255.389057 191.068392 
L 260.077878 207.40062 
L 264.563263 202.626856 
L 268.862134 199.335798 
L 272.989385 210.859525 
L 280.780278 202.711406 
L 284.466099 202.571995 
L 288.025041 214.776084 
L 291.465549 194.950989 
L 294.795252 201.490356 
L 298.021064 207.045234 
L 301.149274 205.397648 
L 304.185615 209.50867 
L 307.135328 217.294408 
L 310.003221 222.348571 
L 312.793709 207.543283 
L 318.158437 215.558587 
L 320.739907 208.868766 
L 323.258492 219.627999 
L 325.717185 216.280063 
L 328.118768 213.272861 
L 330.465834 220.397516 
L 332.760802 224.263633 
L 335.005936 213.287275 
L 337.203354 203.407324 
L 339.355042 219.203251 
L 341.462865 221.176228 
L 353.28 206.902046 
L 370.393668 217.108933 
L 385.072943 224.874994 
L 397.924933 223.605896 
L 409.354613 230.592375 
L 419.645657 233.465018 
L 429.004519 232.059145 
L 437.586137 232.169779 
L 445.50977 230.383831 
L 452.869171 230.10293 
L 459.739384 236.148737 
L 466.181408 246.467792 
L 472.245501 226.869715 
L 477.973559 231.562182 
L 483.400877 237.704888 
L 488.557466 238.287463 
L 493.469057 231.924321 
L 498.157878 234.022556 
L 502.643263 231.589851 
L 506.942134 236.930657 
L 511.069385 239.919177 
L 515.038194 251.504291 
L 518.860278 233.491488 
L 522.546099 232.849862 
L 526.105041 223.867292 
L 529.545549 227.886465 
L 532.875252 225.395057 
L 536.101064 230.063861 
L 539.229274 223.854878 
L 542.265615 226.560616 
L 545.215328 238.440745 
L 548.083221 227.779206 
L 550.873709 233.574687 
L 553.590863 238.476617 
L 556.238437 223.308952 
L 558.819907 249.862537 
L 561.338492 221.90006 
L 563.797185 226.809979 
L 566.198768 235.910903 
L 568.545834 236.296624 
L 570.840802 224.2864 
L 573.085936 258.651241 
L 575.283354 235.44632 
L 577.435042 235.198907 
L 579.542865 231.460161 
L 591.36 240.200308 
L 608.473668 258.086901 
L 623.152943 263.128679 
L 636.004933 250.228536 
L 647.434613 253.998756 
L 657.725657 289.714788 
L 667.084519 288.781947 
L 675.666137 328.592774 
L 683.58977 292.162005 
L 690.949171 301.954683 
L 697.819384 267.608258 
L 704.261408 291.121586 
L 710.325501 330.222683 
L 716.053559 316.434546 
L 721.480877 307.092844 
L 726.637466 328.505433 
L 731.549057 327.79512 
L 736.237878 314.088563 
L 740.723263 310.779569 
L 745.022134 306.225768 
L 749.149385 315.812551 
L 753.118194 322.818042 
L 756.940278 388.804119 
L 760.626099 326.823663 
L 764.185041 379.769815 
L 767.625549 390.15431 
L 770.955252 312.677995 
L 774.181064 351.062402 
L 777.309274 363.365193 
L 780.345615 398.928581 
L 783.295328 394.785932 
L 786.163221 422.698011 
L 788.953709 349.784687 
L 791.670863 338.72055 
L 794.318437 317.912462 
L 796.899907 339.954956 
L 799.418492 363.563717 
L 801.877185 379.473586 
L 804.278768 440.99106 
L 806.625834 365.155504 
L 808.920802 337.137974 
L 811.165936 366.062856 
L 813.363354 327.813886 
L 815.515042 340.732812 
L 817.622865 339.374262 
L 819.688575 373.15292 
L 821.713822 423.59052 
L 823.700162 364.97177 
L 825.64906 400.992291 
L 827.561903 347.941775 
L 827.561903 347.941775 
" style="fill:none;stroke:#595866;stroke-linecap:square;"/>
   </g>
   <g id="line2d_10">
    <path clip-path="url(#p1cc2c2ccd9)" d="M 115.2 209.529189 
L 132.313668 223.983118 
L 146.992943 216.219777 
L 159.844933 206.865432 
L 171.274613 208.825098 
L 181.565657 216.079797 
L 190.924519 198.124426 
L 199.506137 215.427156 
L 214.789171 209.104797 
L 221.659384 217.467102 
L 228.101408 207.709157 
L 234.165501 211.019499 
L 239.893559 220.449122 
L 245.320877 217.185933 
L 250.477466 215.669451 
L 255.389057 215.331179 
L 260.077878 210.330861 
L 264.563263 225.118611 
L 268.862134 209.763439 
L 272.989385 213.121307 
L 276.958194 205.205227 
L 280.780278 210.965116 
L 284.466099 218.193627 
L 288.025041 223.821425 
L 291.465549 227.846744 
L 294.795252 218.951392 
L 298.021064 224.386523 
L 301.149274 220.783174 
L 304.185615 209.059242 
L 307.135328 227.208795 
L 310.003221 212.62109 
L 312.793709 209.825 
L 315.510863 206.089133 
L 318.158437 206.234884 
L 320.739907 222.633878 
L 323.258492 220.304766 
L 325.717185 221.300651 
L 328.118768 221.170408 
L 330.465834 221.226806 
L 332.760802 225.165205 
L 335.005936 225.600685 
L 337.203354 218.174841 
L 339.355042 209.650546 
L 341.462865 212.782925 
L 353.28 212.559819 
L 370.393668 222.353501 
L 385.072943 212.34898 
L 397.924933 257.08706 
L 409.354613 235.863799 
L 419.645657 238.60451 
L 429.004519 238.649367 
L 437.586137 234.983257 
L 445.50977 229.859923 
L 452.869171 239.505609 
L 459.739384 239.322138 
L 466.181408 243.436598 
L 472.245501 235.827059 
L 477.973559 259.406479 
L 483.400877 241.201265 
L 488.557466 235.311765 
L 493.469057 246.796494 
L 498.157878 246.33201 
L 502.643263 242.065012 
L 506.942134 251.176616 
L 511.069385 256.146403 
L 515.038194 246.760049 
L 518.860278 253.300168 
L 522.546099 240.260442 
L 526.105041 244.796331 
L 529.545549 236.036326 
L 532.875252 234.225443 
L 536.101064 238.223335 
L 539.229274 253.512366 
L 542.265615 229.986922 
L 545.215328 240.67083 
L 548.083221 237.526646 
L 550.873709 236.783097 
L 553.590863 246.045699 
L 556.238437 224.507484 
L 558.819907 233.782751 
L 561.338492 221.92678 
L 563.797185 251.403509 
L 566.198768 225.905867 
L 568.545834 230.957734 
L 570.840802 228.836912 
L 573.085936 271.325453 
L 577.435042 239.747921 
L 579.542865 238.491351 
L 591.36 247.476183 
L 608.473668 257.84709 
L 623.152943 287.139183 
L 636.004933 293.655112 
L 647.434613 289.500237 
L 657.725657 303.090627 
L 667.084519 280.287839 
L 675.666137 290.627249 
L 683.58977 285.783656 
L 690.949171 276.95491 
L 697.819384 308.962162 
L 704.261408 304.611669 
L 710.325501 293.630854 
L 716.053559 325.105324 
L 721.480877 299.978286 
L 726.637466 308.295335 
L 731.549057 279.176447 
L 736.237878 308.140274 
L 740.723263 300.090834 
L 745.022134 338.74292 
L 749.149385 318.827753 
L 753.118194 334.924327 
L 756.940278 353.448112 
L 760.626099 384.380763 
L 764.185041 330.835788 
L 767.625549 389.204988 
L 770.955252 350.579775 
L 774.181064 346.134173 
L 777.309274 322.773998 
L 780.345615 376.447517 
L 783.295328 380.271905 
L 786.163221 377.71035 
L 788.953709 314.919544 
L 791.670863 326.902375 
L 794.318437 416.564563 
L 796.899907 446.582804 
L 799.418492 344.452229 
L 801.877185 288.918468 
L 804.278768 281.264922 
L 806.625834 341.429942 
L 808.920802 376.354393 
L 811.165936 329.480086 
L 813.363354 351.706175 
L 815.515042 413.535687 
L 817.622865 350.117582 
L 821.713822 314.112225 
L 823.700162 332.509714 
L 825.64906 340.375245 
L 827.561903 386.972501 
L 827.561903 386.972501 
" style="fill:none;stroke:#147f2a;stroke-linecap:square;"/>
   </g>
   <g id="patch_3">
    <path d="M 115.2 576.72 
L 829.44 576.72 
" style="fill:none;stroke:#000000;stroke-linecap:square;stroke-linejoin:miter;"/>
   </g>
   <g id="patch_4">
    <path d="M 115.2 576.72 
L 115.2 64.08 
" style="fill:none;stroke:#000000;stroke-linecap:square;stroke-linejoin:miter;"/>
   </g>
   <g id="patch_5">
    <path d="M 829.44 576.72 
L 829.44 64.08 
" style="fill:none;stroke:#000000;stroke-linecap:square;stroke-linejoin:miter;"/>
   </g>
   <g id="patch_6">
    <path d="M 115.2 64.08 
L 829.44 64.08 
" style="fill:none;stroke:#000000;stroke-linecap:square;stroke-linejoin:miter;"/>
   </g>
   <g id="matplotlib.axis_1">
    <g id="xtick_1">
     <g id="line2d_11">
      <defs>
       <path d="M 0 0 
L 0 -4 
" id="me6b715bf0b" style="stroke:#000000;stroke-width:0.5;"/>
      </defs>
      <g>
       <use style="stroke:#000000;stroke-width:0.5;" x="115.2" xlink:href="#me6b715bf0b" y="576.72"/>
      </g>
     </g>
     <g id="line2d_12">
      <defs>
       <path d="M 0 0 
L 0 4 
" id="mec7de60c20" style="stroke:#000000;stroke-width:0.5;"/>
      </defs>
      <g>
       <use style="stroke:#000000;stroke-width:0.5;" x="115.2" xlink:href="#mec7de60c20" y="64.08"/>
      </g>
     </g>
     <g id="text_1">
      <!-- $\mathdefault{10^{-3}}$ -->
      <defs>
       <path d="M 12.40625 8.296875 
L 28.515625 8.296875 
L 28.515625 63.921875 
L 10.984375 60.40625 
L 10.984375 69.390625 
L 28.421875 72.90625 
L 38.28125 72.90625 
L 38.28125 8.296875 
L 54.390625 8.296875 
L 54.390625 0 
L 12.40625 0 
z
" id="BitstreamVeraSans-Roman-31"/>
       <path d="M 4.890625 31.390625 
L 31.203125 31.390625 
L 31.203125 23.390625 
L 4.890625 23.390625 
z
" id="BitstreamVeraSans-Roman-2d"/>
       <path d="M 40.578125 39.3125 
Q 47.65625 37.796875 51.625 33 
Q 55.609375 28.21875 55.609375 21.1875 
Q 55.609375 10.40625 48.1875 4.484375 
Q 40.765625 -1.421875 27.09375 -1.421875 
Q 22.515625 -1.421875 17.65625 -0.515625 
Q 12.796875 0.390625 7.625 2.203125 
L 7.625 11.71875 
Q 11.71875 9.328125 16.59375 8.109375 
Q 21.484375 6.890625 26.8125 6.890625 
Q 36.078125 6.890625 40.9375 10.546875 
Q 45.796875 14.203125 45.796875 21.1875 
Q 45.796875 27.640625 41.28125 31.265625 
Q 36.765625 34.90625 28.71875 34.90625 
L 20.21875 34.90625 
L 20.21875 43.015625 
L 29.109375 43.015625 
Q 36.375 43.015625 40.234375 45.921875 
Q 44.09375 48.828125 44.09375 54.296875 
Q 44.09375 59.90625 40.109375 62.90625 
Q 36.140625 65.921875 28.71875 65.921875 
Q 24.65625 65.921875 20.015625 65.03125 
Q 15.375 64.15625 9.8125 62.3125 
L 9.8125 71.09375 
Q 15.4375 72.65625 20.34375 73.4375 
Q 25.25 74.21875 29.59375 74.21875 
Q 40.828125 74.21875 47.359375 69.109375 
Q 53.90625 64.015625 53.90625 55.328125 
Q 53.90625 49.265625 50.4375 45.09375 
Q 46.96875 40.921875 40.578125 39.3125 
" id="BitstreamVeraSans-Roman-33"/>
       <path d="M 31.78125 66.40625 
Q 24.171875 66.40625 20.328125 58.90625 
Q 16.5 51.421875 16.5 36.375 
Q 16.5 21.390625 20.328125 13.890625 
Q 24.171875 6.390625 31.78125 6.390625 
Q 39.453125 6.390625 43.28125 13.890625 
Q 47.125 21.390625 47.125 36.375 
Q 47.125 51.421875 43.28125 58.90625 
Q 39.453125 66.40625 31.78125 66.40625 
M 31.78125 74.21875 
Q 44.046875 74.21875 50.515625 64.515625 
Q 56.984375 54.828125 56.984375 36.375 
Q 56.984375 17.96875 50.515625 8.265625 
Q 44.046875 -1.421875 31.78125 -1.421875 
Q 19.53125 -1.421875 13.0625 8.265625 
Q 6.59375 17.96875 6.59375 36.375 
Q 6.59375 54.828125 13.0625 64.515625 
Q 19.53125 74.21875 31.78125 74.21875 
" id="BitstreamVeraSans-Roman-30"/>
      </defs>
      <g transform="translate(102.54 590.464375)scale(0.12 -0.12)">
       <use transform="translate(0.0 0.796875)" xlink:href="#BitstreamVeraSans-Roman-31"/>
       <use transform="translate(63.623046875 0.796875)" xlink:href="#BitstreamVeraSans-Roman-30"/>
       <use transform="translate(132.75859375 48.046875)scale(0.7)" xlink:href="#BitstreamVeraSans-Roman-2d"/>
       <use transform="translate(158.0173828125 48.046875)scale(0.7)" xlink:href="#BitstreamVeraSans-Roman-33"/>
      </g>
     </g>
    </g>
    <g id="xtick_2">
     <g id="line2d_13">
      <g>
       <use style="stroke:#000000;stroke-width:0.5;" x="353.28" xlink:href="#me6b715bf0b" y="576.72"/>
      </g>
     </g>
     <g id="line2d_14">
      <g>
       <use style="stroke:#000000;stroke-width:0.5;" x="353.28" xlink:href="#mec7de60c20" y="64.08"/>
      </g>
     </g>
     <g id="text_2">
      <!-- $\mathdefault{10^{-2}}$ -->
      <defs>
       <path d="M 19.1875 8.296875 
L 53.609375 8.296875 
L 53.609375 0 
L 7.328125 0 
L 7.328125 8.296875 
Q 12.9375 14.109375 22.625 23.890625 
Q 32.328125 33.6875 34.8125 36.53125 
Q 39.546875 41.84375 41.421875 45.53125 
Q 43.3125 49.21875 43.3125 52.78125 
Q 43.3125 58.59375 39.234375 62.25 
Q 35.15625 65.921875 28.609375 65.921875 
Q 23.96875 65.921875 18.8125 64.3125 
Q 13.671875 62.703125 7.8125 59.421875 
L 7.8125 69.390625 
Q 13.765625 71.78125 18.9375 73 
Q 24.125 74.21875 28.421875 74.21875 
Q 39.75 74.21875 46.484375 68.546875 
Q 53.21875 62.890625 53.21875 53.421875 
Q 53.21875 48.921875 51.53125 44.890625 
Q 49.859375 40.875 45.40625 35.40625 
Q 44.1875 33.984375 37.640625 27.21875 
Q 31.109375 20.453125 19.1875 8.296875 
" id="BitstreamVeraSans-Roman-32"/>
      </defs>
      <g transform="translate(340.62 590.464375)scale(0.12 -0.12)">
       <use transform="translate(0.0 0.796875)" xlink:href="#BitstreamVeraSans-Roman-31"/>
       <use transform="translate(63.623046875 0.796875)" xlink:href="#BitstreamVeraSans-Roman-30"/>
       <use transform="translate(132.75859375 48.046875)scale(0.7)" xlink:href="#BitstreamVeraSans-Roman-2d"/>
       <use transform="translate(158.0173828125 48.046875)scale(0.7)" xlink:href="#BitstreamVeraSans-Roman-32"/>
      </g>
     </g>
    </g>
    <g id="xtick_3">
     <g id="line2d_15">
      <g>
       <use style="stroke:#000000;stroke-width:0.5;" x="591.36" xlink:href="#me6b715bf0b" y="576.72"/>
      </g>
     </g>
     <g id="line2d_16">
      <g>
       <use style="stroke:#000000;stroke-width:0.5;" x="591.36" xlink:href="#mec7de60c20" y="64.08"/>
      </g>
     </g>
     <g id="text_3">
      <!-- $\mathdefault{10^{-1}}$ -->
      <g transform="translate(578.7 590.344375)scale(0.12 -0.12)">
       <use transform="translate(0.0 0.7156250000000028)" xlink:href="#BitstreamVeraSans-Roman-31"/>
       <use transform="translate(63.623046875 0.7156250000000028)" xlink:href="#BitstreamVeraSans-Roman-30"/>
       <use transform="translate(132.75859375 47.965625)scale(0.7)" xlink:href="#BitstreamVeraSans-Roman-2d"/>
       <use transform="translate(158.0173828125 47.965625)scale(0.7)" xlink:href="#BitstreamVeraSans-Roman-31"/>
      </g>
     </g>
    </g>
    <g id="xtick_4">
     <g id="line2d_17">
      <g>
       <use style="stroke:#000000;stroke-width:0.5;" x="829.44" xlink:href="#me6b715bf0b" y="576.72"/>
      </g>
     </g>
     <g id="line2d_18">
      <g>
       <use style="stroke:#000000;stroke-width:0.5;" x="829.44" xlink:href="#mec7de60c20" y="64.08"/>
      </g>
     </g>
     <g id="text_4">
      <!-- $\mathdefault{10^{0}}$ -->
      <g transform="translate(818.28 590.464375)scale(0.12 -0.12)">
       <use transform="translate(0.0 0.796875)" xlink:href="#BitstreamVeraSans-Roman-31"/>
       <use transform="translate(63.623046875 0.796875)" xlink:href="#BitstreamVeraSans-Roman-30"/>
       <use transform="translate(132.75859375 48.046875)scale(0.7)" xlink:href="#BitstreamVeraSans-Roman-30"/>
      </g>
     </g>
    </g>
    <g id="xtick_5">
     <g id="line2d_19">
      <defs>
       <path d="M 0 0 
L 0 -2 
" id="m2c93a05254" style="stroke:#000000;stroke-width:0.5;"/>
      </defs>
      <g>
       <use style="stroke:#000000;stroke-width:0.5;" x="186.869221368" xlink:href="#m2c93a05254" y="576.72"/>
      </g>
     </g>
     <g id="line2d_20">
      <defs>
       <path d="M 0 0 
L 0 2 
" id="maea6113c70" style="stroke:#000000;stroke-width:0.5;"/>
      </defs>
      <g>
       <use style="stroke:#000000;stroke-width:0.5;" x="186.869221368" xlink:href="#maea6113c70" y="64.08"/>
      </g>
     </g>
    </g>
    <g id="xtick_6">
     <g id="line2d_21">
      <g>
       <use style="stroke:#000000;stroke-width:0.5;" x="228.793028324" xlink:href="#m2c93a05254" y="576.72"/>
      </g>
     </g>
     <g id="line2d_22">
      <g>
       <use style="stroke:#000000;stroke-width:0.5;" x="228.793028324" xlink:href="#maea6113c70" y="64.08"/>
      </g>
     </g>
    </g>
    <g id="xtick_7">
     <g id="line2d_23">
      <g>
       <use style="stroke:#000000;stroke-width:0.5;" x="258.538442735" xlink:href="#m2c93a05254" y="576.72"/>
      </g>
     </g>
     <g id="line2d_24">
      <g>
       <use style="stroke:#000000;stroke-width:0.5;" x="258.538442735" xlink:href="#maea6113c70" y="64.08"/>
      </g>
     </g>
    </g>
    <g id="xtick_8">
     <g id="line2d_25">
      <g>
       <use style="stroke:#000000;stroke-width:0.5;" x="281.610778632" xlink:href="#m2c93a05254" y="576.72"/>
      </g>
     </g>
     <g id="line2d_26">
      <g>
       <use style="stroke:#000000;stroke-width:0.5;" x="281.610778632" xlink:href="#maea6113c70" y="64.08"/>
      </g>
     </g>
    </g>
    <g id="xtick_9">
     <g id="line2d_27">
      <g>
       <use style="stroke:#000000;stroke-width:0.5;" x="300.462249691" xlink:href="#m2c93a05254" y="576.72"/>
      </g>
     </g>
     <g id="line2d_28">
      <g>
       <use style="stroke:#000000;stroke-width:0.5;" x="300.462249691" xlink:href="#maea6113c70" y="64.08"/>
      </g>
     </g>
    </g>
    <g id="xtick_10">
     <g id="line2d_29">
      <g>
       <use style="stroke:#000000;stroke-width:0.5;" x="316.400941367" xlink:href="#m2c93a05254" y="576.72"/>
      </g>
     </g>
     <g id="line2d_30">
      <g>
       <use style="stroke:#000000;stroke-width:0.5;" x="316.400941367" xlink:href="#maea6113c70" y="64.08"/>
      </g>
     </g>
    </g>
    <g id="xtick_11">
     <g id="line2d_31">
      <g>
       <use style="stroke:#000000;stroke-width:0.5;" x="330.207664103" xlink:href="#m2c93a05254" y="576.72"/>
      </g>
     </g>
     <g id="line2d_32">
      <g>
       <use style="stroke:#000000;stroke-width:0.5;" x="330.207664103" xlink:href="#maea6113c70" y="64.08"/>
      </g>
     </g>
    </g>
    <g id="xtick_12">
     <g id="line2d_33">
      <g>
       <use style="stroke:#000000;stroke-width:0.5;" x="342.386056647" xlink:href="#m2c93a05254" y="576.72"/>
      </g>
     </g>
     <g id="line2d_34">
      <g>
       <use style="stroke:#000000;stroke-width:0.5;" x="342.386056647" xlink:href="#maea6113c70" y="64.08"/>
      </g>
     </g>
    </g>
    <g id="xtick_13">
     <g id="line2d_35">
      <g>
       <use style="stroke:#000000;stroke-width:0.5;" x="424.949221368" xlink:href="#m2c93a05254" y="576.72"/>
      </g>
     </g>
     <g id="line2d_36">
      <g>
       <use style="stroke:#000000;stroke-width:0.5;" x="424.949221368" xlink:href="#maea6113c70" y="64.08"/>
      </g>
     </g>
    </g>
    <g id="xtick_14">
     <g id="line2d_37">
      <g>
       <use style="stroke:#000000;stroke-width:0.5;" x="466.873028324" xlink:href="#m2c93a05254" y="576.72"/>
      </g>
     </g>
     <g id="line2d_38">
      <g>
       <use style="stroke:#000000;stroke-width:0.5;" x="466.873028324" xlink:href="#maea6113c70" y="64.08"/>
      </g>
     </g>
    </g>
    <g id="xtick_15">
     <g id="line2d_39">
      <g>
       <use style="stroke:#000000;stroke-width:0.5;" x="496.618442735" xlink:href="#m2c93a05254" y="576.72"/>
      </g>
     </g>
     <g id="line2d_40">
      <g>
       <use style="stroke:#000000;stroke-width:0.5;" x="496.618442735" xlink:href="#maea6113c70" y="64.08"/>
      </g>
     </g>
    </g>
    <g id="xtick_16">
     <g id="line2d_41">
      <g>
       <use style="stroke:#000000;stroke-width:0.5;" x="519.690778632" xlink:href="#m2c93a05254" y="576.72"/>
      </g>
     </g>
     <g id="line2d_42">
      <g>
       <use style="stroke:#000000;stroke-width:0.5;" x="519.690778632" xlink:href="#maea6113c70" y="64.08"/>
      </g>
     </g>
    </g>
    <g id="xtick_17">
     <g id="line2d_43">
      <g>
       <use style="stroke:#000000;stroke-width:0.5;" x="538.542249691" xlink:href="#m2c93a05254" y="576.72"/>
      </g>
     </g>
     <g id="line2d_44">
      <g>
       <use style="stroke:#000000;stroke-width:0.5;" x="538.542249691" xlink:href="#maea6113c70" y="64.08"/>
      </g>
     </g>
    </g>
    <g id="xtick_18">
     <g id="line2d_45">
      <g>
       <use style="stroke:#000000;stroke-width:0.5;" x="554.480941367" xlink:href="#m2c93a05254" y="576.72"/>
      </g>
     </g>
     <g id="line2d_46">
      <g>
       <use style="stroke:#000000;stroke-width:0.5;" x="554.480941367" xlink:href="#maea6113c70" y="64.08"/>
      </g>
     </g>
    </g>
    <g id="xtick_19">
     <g id="line2d_47">
      <g>
       <use style="stroke:#000000;stroke-width:0.5;" x="568.287664103" xlink:href="#m2c93a05254" y="576.72"/>
      </g>
     </g>
     <g id="line2d_48">
      <g>
       <use style="stroke:#000000;stroke-width:0.5;" x="568.287664103" xlink:href="#maea6113c70" y="64.08"/>
      </g>
     </g>
    </g>
    <g id="xtick_20">
     <g id="line2d_49">
      <g>
       <use style="stroke:#000000;stroke-width:0.5;" x="580.466056647" xlink:href="#m2c93a05254" y="576.72"/>
      </g>
     </g>
     <g id="line2d_50">
      <g>
       <use style="stroke:#000000;stroke-width:0.5;" x="580.466056647" xlink:href="#maea6113c70" y="64.08"/>
      </g>
     </g>
    </g>
    <g id="xtick_21">
     <g id="line2d_51">
      <g>
       <use style="stroke:#000000;stroke-width:0.5;" x="663.029221368" xlink:href="#m2c93a05254" y="576.72"/>
      </g>
     </g>
     <g id="line2d_52">
      <g>
       <use style="stroke:#000000;stroke-width:0.5;" x="663.029221368" xlink:href="#maea6113c70" y="64.08"/>
      </g>
     </g>
    </g>
    <g id="xtick_22">
     <g id="line2d_53">
      <g>
       <use style="stroke:#000000;stroke-width:0.5;" x="704.953028324" xlink:href="#m2c93a05254" y="576.72"/>
      </g>
     </g>
     <g id="line2d_54">
      <g>
       <use style="stroke:#000000;stroke-width:0.5;" x="704.953028324" xlink:href="#maea6113c70" y="64.08"/>
      </g>
     </g>
    </g>
    <g id="xtick_23">
     <g id="line2d_55">
      <g>
       <use style="stroke:#000000;stroke-width:0.5;" x="734.698442735" xlink:href="#m2c93a05254" y="576.72"/>
      </g>
     </g>
     <g id="line2d_56">
      <g>
       <use style="stroke:#000000;stroke-width:0.5;" x="734.698442735" xlink:href="#maea6113c70" y="64.08"/>
      </g>
     </g>
    </g>
    <g id="xtick_24">
     <g id="line2d_57">
      <g>
       <use style="stroke:#000000;stroke-width:0.5;" x="757.770778632" xlink:href="#m2c93a05254" y="576.72"/>
      </g>
     </g>
     <g id="line2d_58">
      <g>
       <use style="stroke:#000000;stroke-width:0.5;" x="757.770778632" xlink:href="#maea6113c70" y="64.08"/>
      </g>
     </g>
    </g>
    <g id="xtick_25">
     <g id="line2d_59">
      <g>
       <use style="stroke:#000000;stroke-width:0.5;" x="776.622249691" xlink:href="#m2c93a05254" y="576.72"/>
      </g>
     </g>
     <g id="line2d_60">
      <g>
       <use style="stroke:#000000;stroke-width:0.5;" x="776.622249691" xlink:href="#maea6113c70" y="64.08"/>
      </g>
     </g>
    </g>
    <g id="xtick_26">
     <g id="line2d_61">
      <g>
       <use style="stroke:#000000;stroke-width:0.5;" x="792.560941367" xlink:href="#m2c93a05254" y="576.72"/>
      </g>
     </g>
     <g id="line2d_62">
      <g>
       <use style="stroke:#000000;stroke-width:0.5;" x="792.560941367" xlink:href="#maea6113c70" y="64.08"/>
      </g>
     </g>
    </g>
    <g id="xtick_27">
     <g id="line2d_63">
      <g>
       <use style="stroke:#000000;stroke-width:0.5;" x="806.367664103" xlink:href="#m2c93a05254" y="576.72"/>
      </g>
     </g>
     <g id="line2d_64">
      <g>
       <use style="stroke:#000000;stroke-width:0.5;" x="806.367664103" xlink:href="#maea6113c70" y="64.08"/>
      </g>
     </g>
    </g>
    <g id="xtick_28">
     <g id="line2d_65">
      <g>
       <use style="stroke:#000000;stroke-width:0.5;" x="818.546056647" xlink:href="#m2c93a05254" y="576.72"/>
      </g>
     </g>
     <g id="line2d_66">
      <g>
       <use style="stroke:#000000;stroke-width:0.5;" x="818.546056647" xlink:href="#maea6113c70" y="64.08"/>
      </g>
     </g>
    </g>
   </g>
   <g id="matplotlib.axis_2">
    <g id="ytick_1">
     <g id="line2d_67">
      <defs>
       <path d="M 0 0 
L 4 0 
" id="m102a282a88" style="stroke:#000000;stroke-width:0.5;"/>
      </defs>
      <g>
       <use style="stroke:#000000;stroke-width:0.5;" x="115.2" xlink:href="#m102a282a88" y="576.72"/>
      </g>
     </g>
     <g id="line2d_68">
      <defs>
       <path d="M 0 0 
L -4 0 
" id="md1bf7a47a1" style="stroke:#000000;stroke-width:0.5;"/>
      </defs>
      <g>
       <use style="stroke:#000000;stroke-width:0.5;" x="829.44" xlink:href="#md1bf7a47a1" y="576.72"/>
      </g>
     </g>
     <g id="text_5">
      <!-- $\mathdefault{10^{-3}}$ -->
      <g transform="translate(85.88 580.344375)scale(0.12 -0.12)">
       <use transform="translate(0.0 0.796875)" xlink:href="#BitstreamVeraSans-Roman-31"/>
       <use transform="translate(63.623046875 0.796875)" xlink:href="#BitstreamVeraSans-Roman-30"/>
       <use transform="translate(132.75859375 48.046875)scale(0.7)" xlink:href="#BitstreamVeraSans-Roman-2d"/>
       <use transform="translate(158.0173828125 48.046875)scale(0.7)" xlink:href="#BitstreamVeraSans-Roman-33"/>
      </g>
     </g>
    </g>
    <g id="ytick_2">
     <g id="line2d_69">
      <g>
       <use style="stroke:#000000;stroke-width:0.5;" x="115.2" xlink:href="#m102a282a88" y="405.84"/>
      </g>
     </g>
     <g id="line2d_70">
      <g>
       <use style="stroke:#000000;stroke-width:0.5;" x="829.44" xlink:href="#md1bf7a47a1" y="405.84"/>
      </g>
     </g>
     <g id="text_6">
      <!-- $\mathdefault{10^{-2}}$ -->
      <g transform="translate(85.88 409.464375)scale(0.12 -0.12)">
       <use transform="translate(0.0 0.796875)" xlink:href="#BitstreamVeraSans-Roman-31"/>
       <use transform="translate(63.623046875 0.796875)" xlink:href="#BitstreamVeraSans-Roman-30"/>
       <use transform="translate(132.75859375 48.046875)scale(0.7)" xlink:href="#BitstreamVeraSans-Roman-2d"/>
       <use transform="translate(158.0173828125 48.046875)scale(0.7)" xlink:href="#BitstreamVeraSans-Roman-32"/>
      </g>
     </g>
    </g>
    <g id="ytick_3">
     <g id="line2d_71">
      <g>
       <use style="stroke:#000000;stroke-width:0.5;" x="115.2" xlink:href="#m102a282a88" y="234.96"/>
      </g>
     </g>
     <g id="line2d_72">
      <g>
       <use style="stroke:#000000;stroke-width:0.5;" x="829.44" xlink:href="#md1bf7a47a1" y="234.96"/>
      </g>
     </g>
     <g id="text_7">
      <!-- $\mathdefault{10^{-1}}$ -->
      <g transform="translate(85.88 238.524375)scale(0.12 -0.12)">
       <use transform="translate(0.0 0.7156250000000028)" xlink:href="#BitstreamVeraSans-Roman-31"/>
       <use transform="translate(63.623046875 0.7156250000000028)" xlink:href="#BitstreamVeraSans-Roman-30"/>
       <use transform="translate(132.75859375 47.965625)scale(0.7)" xlink:href="#BitstreamVeraSans-Roman-2d"/>
       <use transform="translate(158.0173828125 47.965625)scale(0.7)" xlink:href="#BitstreamVeraSans-Roman-31"/>
      </g>
     </g>
    </g>
    <g id="ytick_4">
     <g id="line2d_73">
      <g>
       <use style="stroke:#000000;stroke-width:0.5;" x="115.2" xlink:href="#m102a282a88" y="64.08"/>
      </g>
     </g>
     <g id="line2d_74">
      <g>
       <use style="stroke:#000000;stroke-width:0.5;" x="829.44" xlink:href="#md1bf7a47a1" y="64.08"/>
      </g>
     </g>
     <g id="text_8">
      <!-- $\mathdefault{10^{0}}$ -->
      <g transform="translate(88.88 67.704375)scale(0.12 -0.12)">
       <use transform="translate(0.0 0.796875)" xlink:href="#BitstreamVeraSans-Roman-31"/>
       <use transform="translate(63.623046875 0.796875)" xlink:href="#BitstreamVeraSans-Roman-30"/>
       <use transform="translate(132.75859375 48.046875)scale(0.7)" xlink:href="#BitstreamVeraSans-Roman-30"/>
      </g>
     </g>
    </g>
    <g id="ytick_5">
     <g id="line2d_75">
      <defs>
       <path d="M 0 0 
L 2 0 
" id="m48957e24f4" style="stroke:#000000;stroke-width:0.5;"/>
      </defs>
      <g>
       <use style="stroke:#000000;stroke-width:0.5;" x="115.2" xlink:href="#m48957e24f4" y="525.279994341"/>
      </g>
     </g>
     <g id="line2d_76">
      <defs>
       <path d="M 0 0 
L -2 0 
" id="m4dd24f2df9" style="stroke:#000000;stroke-width:0.5;"/>
      </defs>
      <g>
       <use style="stroke:#000000;stroke-width:0.5;" x="829.44" xlink:href="#m4dd24f2df9" y="525.279994341"/>
      </g>
     </g>
    </g>
    <g id="ytick_6">
     <g id="line2d_77">
      <g>
       <use style="stroke:#000000;stroke-width:0.5;" x="115.2" xlink:href="#m48957e24f4" y="495.189519994"/>
      </g>
     </g>
     <g id="line2d_78">
      <g>
       <use style="stroke:#000000;stroke-width:0.5;" x="829.44" xlink:href="#m4dd24f2df9" y="495.189519994"/>
      </g>
     </g>
    </g>
    <g id="ytick_7">
     <g id="line2d_79">
      <g>
       <use style="stroke:#000000;stroke-width:0.5;" x="115.2" xlink:href="#m48957e24f4" y="473.839988682"/>
      </g>
     </g>
     <g id="line2d_80">
      <g>
       <use style="stroke:#000000;stroke-width:0.5;" x="829.44" xlink:href="#m4dd24f2df9" y="473.839988682"/>
      </g>
     </g>
    </g>
    <g id="ytick_8">
     <g id="line2d_81">
      <g>
       <use style="stroke:#000000;stroke-width:0.5;" x="115.2" xlink:href="#m48957e24f4" y="457.280005659"/>
      </g>
     </g>
     <g id="line2d_82">
      <g>
       <use style="stroke:#000000;stroke-width:0.5;" x="829.44" xlink:href="#m4dd24f2df9" y="457.280005659"/>
      </g>
     </g>
    </g>
    <g id="ytick_9">
     <g id="line2d_83">
      <g>
       <use style="stroke:#000000;stroke-width:0.5;" x="115.2" xlink:href="#m48957e24f4" y="443.749514334"/>
      </g>
     </g>
     <g id="line2d_84">
      <g>
       <use style="stroke:#000000;stroke-width:0.5;" x="829.44" xlink:href="#m4dd24f2df9" y="443.749514334"/>
      </g>
     </g>
    </g>
    <g id="ytick_10">
     <g id="line2d_85">
      <g>
       <use style="stroke:#000000;stroke-width:0.5;" x="115.2" xlink:href="#m48957e24f4" y="432.309646922"/>
      </g>
     </g>
     <g id="line2d_86">
      <g>
       <use style="stroke:#000000;stroke-width:0.5;" x="829.44" xlink:href="#m4dd24f2df9" y="432.309646922"/>
      </g>
     </g>
    </g>
    <g id="ytick_11">
     <g id="line2d_87">
      <g>
       <use style="stroke:#000000;stroke-width:0.5;" x="115.2" xlink:href="#m48957e24f4" y="422.399983023"/>
      </g>
     </g>
     <g id="line2d_88">
      <g>
       <use style="stroke:#000000;stroke-width:0.5;" x="829.44" xlink:href="#m4dd24f2df9" y="422.399983023"/>
      </g>
     </g>
    </g>
    <g id="ytick_12">
     <g id="line2d_89">
      <g>
       <use style="stroke:#000000;stroke-width:0.5;" x="115.2" xlink:href="#m48957e24f4" y="413.659039987"/>
      </g>
     </g>
     <g id="line2d_90">
      <g>
       <use style="stroke:#000000;stroke-width:0.5;" x="829.44" xlink:href="#m4dd24f2df9" y="413.659039987"/>
      </g>
     </g>
    </g>
    <g id="ytick_13">
     <g id="line2d_91">
      <g>
       <use style="stroke:#000000;stroke-width:0.5;" x="115.2" xlink:href="#m48957e24f4" y="354.399994341"/>
      </g>
     </g>
     <g id="line2d_92">
      <g>
       <use style="stroke:#000000;stroke-width:0.5;" x="829.44" xlink:href="#m4dd24f2df9" y="354.399994341"/>
      </g>
     </g>
    </g>
    <g id="ytick_14">
     <g id="line2d_93">
      <g>
       <use style="stroke:#000000;stroke-width:0.5;" x="115.2" xlink:href="#m48957e24f4" y="324.309519994"/>
      </g>
     </g>
     <g id="line2d_94">
      <g>
       <use style="stroke:#000000;stroke-width:0.5;" x="829.44" xlink:href="#m4dd24f2df9" y="324.309519994"/>
      </g>
     </g>
    </g>
    <g id="ytick_15">
     <g id="line2d_95">
      <g>
       <use style="stroke:#000000;stroke-width:0.5;" x="115.2" xlink:href="#m48957e24f4" y="302.959988682"/>
      </g>
     </g>
     <g id="line2d_96">
      <g>
       <use style="stroke:#000000;stroke-width:0.5;" x="829.44" xlink:href="#m4dd24f2df9" y="302.959988682"/>
      </g>
     </g>
    </g>
    <g id="ytick_16">
     <g id="line2d_97">
      <g>
       <use style="stroke:#000000;stroke-width:0.5;" x="115.2" xlink:href="#m48957e24f4" y="286.400005659"/>
      </g>
     </g>
     <g id="line2d_98">
      <g>
       <use style="stroke:#000000;stroke-width:0.5;" x="829.44" xlink:href="#m4dd24f2df9" y="286.400005659"/>
      </g>
     </g>
    </g>
    <g id="ytick_17">
     <g id="line2d_99">
      <g>
       <use style="stroke:#000000;stroke-width:0.5;" x="115.2" xlink:href="#m48957e24f4" y="272.869514334"/>
      </g>
     </g>
     <g id="line2d_100">
      <g>
       <use style="stroke:#000000;stroke-width:0.5;" x="829.44" xlink:href="#m4dd24f2df9" y="272.869514334"/>
      </g>
     </g>
    </g>
    <g id="ytick_18">
     <g id="line2d_101">
      <g>
       <use style="stroke:#000000;stroke-width:0.5;" x="115.2" xlink:href="#m48957e24f4" y="261.429646922"/>
      </g>
     </g>
     <g id="line2d_102">
      <g>
       <use style="stroke:#000000;stroke-width:0.5;" x="829.44" xlink:href="#m4dd24f2df9" y="261.429646922"/>
      </g>
     </g>
    </g>
    <g id="ytick_19">
     <g id="line2d_103">
      <g>
       <use style="stroke:#000000;stroke-width:0.5;" x="115.2" xlink:href="#m48957e24f4" y="251.519983023"/>
      </g>
     </g>
     <g id="line2d_104">
      <g>
       <use style="stroke:#000000;stroke-width:0.5;" x="829.44" xlink:href="#m4dd24f2df9" y="251.519983023"/>
      </g>
     </g>
    </g>
    <g id="ytick_20">
     <g id="line2d_105">
      <g>
       <use style="stroke:#000000;stroke-width:0.5;" x="115.2" xlink:href="#m48957e24f4" y="242.779039987"/>
      </g>
     </g>
     <g id="line2d_106">
      <g>
       <use style="stroke:#000000;stroke-width:0.5;" x="829.44" xlink:href="#m4dd24f2df9" y="242.779039987"/>
      </g>
     </g>
    </g>
    <g id="ytick_21">
     <g id="line2d_107">
      <g>
       <use style="stroke:#000000;stroke-width:0.5;" x="115.2" xlink:href="#m48957e24f4" y="183.519994341"/>
      </g>
     </g>
     <g id="line2d_108">
      <g>
       <use style="stroke:#000000;stroke-width:0.5;" x="829.44" xlink:href="#m4dd24f2df9" y="183.519994341"/>
      </g>
     </g>
    </g>
    <g id="ytick_22">
     <g id="line2d_109">
      <g>
       <use style="stroke:#000000;stroke-width:0.5;" x="115.2" xlink:href="#m48957e24f4" y="153.429519994"/>
      </g>
     </g>
     <g id="line2d_110">
      <g>
       <use style="stroke:#000000;stroke-width:0.5;" x="829.44" xlink:href="#m4dd24f2df9" y="153.429519994"/>
      </g>
     </g>
    </g>
    <g id="ytick_23">
     <g id="line2d_111">
      <g>
       <use style="stroke:#000000;stroke-width:0.5;" x="115.2" xlink:href="#m48957e24f4" y="132.079988682"/>
      </g>
     </g>
     <g id="line2d_112">
      <g>
       <use style="stroke:#000000;stroke-width:0.5;" x="829.44" xlink:href="#m4dd24f2df9" y="132.079988682"/>
      </g>
     </g>
    </g>
    <g id="ytick_24">
     <g id="line2d_113">
      <g>
       <use style="stroke:#000000;stroke-width:0.5;" x="115.2" xlink:href="#m48957e24f4" y="115.520005659"/>
      </g>
     </g>
     <g id="line2d_114">
      <g>
       <use style="stroke:#000000;stroke-width:0.5;" x="829.44" xlink:href="#m4dd24f2df9" y="115.520005659"/>
      </g>
     </g>
    </g>
    <g id="ytick_25">
     <g id="line2d_115">
      <g>
       <use style="stroke:#000000;stroke-width:0.5;" x="115.2" xlink:href="#m48957e24f4" y="101.989514334"/>
      </g>
     </g>
     <g id="line2d_116">
      <g>
       <use style="stroke:#000000;stroke-width:0.5;" x="829.44" xlink:href="#m4dd24f2df9" y="101.989514334"/>
      </g>
     </g>
    </g>
    <g id="ytick_26">
     <g id="line2d_117">
      <g>
       <use style="stroke:#000000;stroke-width:0.5;" x="115.2" xlink:href="#m48957e24f4" y="90.5496469224"/>
      </g>
     </g>
     <g id="line2d_118">
      <g>
       <use style="stroke:#000000;stroke-width:0.5;" x="829.44" xlink:href="#m4dd24f2df9" y="90.5496469224"/>
      </g>
     </g>
    </g>
    <g id="ytick_27">
     <g id="line2d_119">
      <g>
       <use style="stroke:#000000;stroke-width:0.5;" x="115.2" xlink:href="#m48957e24f4" y="80.6399830228"/>
      </g>
     </g>
     <g id="line2d_120">
      <g>
       <use style="stroke:#000000;stroke-width:0.5;" x="829.44" xlink:href="#m4dd24f2df9" y="80.6399830228"/>
      </g>
     </g>
    </g>
    <g id="ytick_28">
     <g id="line2d_121">
      <g>
       <use style="stroke:#000000;stroke-width:0.5;" x="115.2" xlink:href="#m48957e24f4" y="71.899039987"/>
      </g>
     </g>
     <g id="line2d_122">
      <g>
       <use style="stroke:#000000;stroke-width:0.5;" x="829.44" xlink:href="#m4dd24f2df9" y="71.899039987"/>
      </g>
     </g>
    </g>
   </g>
  </g>
 </g>
 <defs>
  <clipPath id="p1cc2c2ccd9">
   <rect height="512.64" width="714.24" x="115.2" y="64.08"/>
  </clipPath>
 </defs>
</svg>
