<?xml version="1.0" encoding="utf-8" standalone="no"?>
<!DOCTYPE svg PUBLIC "-//W3C//DTD SVG 1.1//EN"
  "http://www.w3.org/Graphics/SVG/1.1/DTD/svg11.dtd">
<!-- Created with matplotlib (http://matplotlib.org/) -->
<svg height="640pt" version="1.1" viewBox="0 0 921 640" width="921pt" xmlns="http://www.w3.org/2000/svg" xmlns:xlink="http://www.w3.org/1999/xlink">
 <defs>
  <style type="text/css">
*{stroke-linecap:butt;stroke-linejoin:round;stroke-miterlimit:100000;}
  </style>
 </defs>
 <g id="figure_1">
  <g id="patch_1">
   <path d="M 0 640.8 
L 921.6 640.8 
L 921.6 0 
L 0 0 
z
" style="fill:#ffffff;"/>
  </g>
  <g id="axes_1">
   <g id="patch_2">
    <path d="M 115.2 576.72 
L 829.44 576.72 
L 829.44 64.08 
L 115.2 64.08 
z
" style="fill:#ffffff;"/>
   </g>
   <g id="line2d_1">
    <path clip-path="url(#p9f7b0e1f80)" d="M 115.2 84.589965 
L 132.313668 84.521929 
L 146.992943 83.858969 
L 171.274613 83.348576 
L 181.565657 84.01181 
L 199.506137 83.475541 
L 207.42977 82.985212 
L 214.789171 83.595809 
L 221.659384 83.475344 
L 228.101408 82.678471 
L 234.165501 83.257045 
L 239.893559 82.817812 
L 245.320877 83.081843 
L 250.477466 82.364765 
L 255.389057 82.793987 
L 260.077878 82.736384 
L 264.563263 83.03421 
L 268.862134 81.828681 
L 272.989385 81.97692 
L 276.958194 81.699594 
L 280.780278 81.80004 
L 284.466099 82.275185 
L 288.025041 82.368424 
L 291.465549 82.321577 
L 294.795252 81.027158 
L 298.021064 82.26453 
L 301.149274 81.448665 
L 304.185615 81.708579 
L 307.135328 81.212225 
L 310.003221 81.225788 
L 312.793709 80.433827 
L 315.510863 80.905127 
L 318.158437 80.90731 
L 320.739907 79.885644 
L 323.258492 80.904966 
L 325.717185 80.532487 
L 330.465834 79.362249 
L 332.760802 79.237653 
L 335.005936 79.518816 
L 337.203354 79.074844 
L 339.355042 78.887203 
L 341.462865 78.930356 
L 353.28 77.825146 
L 370.393668 79.577003 
L 385.072943 80.910696 
L 397.924933 83.298003 
L 409.354613 87.667376 
L 419.645657 90.688987 
L 429.004519 95.851816 
L 437.586137 101.402602 
L 445.50977 101.688666 
L 452.869171 109.435466 
L 459.739384 109.317936 
L 466.181408 111.937947 
L 472.245501 115.482427 
L 477.973559 120.344467 
L 483.400877 121.973108 
L 488.557466 124.036639 
L 493.469057 125.415429 
L 498.157878 126.949562 
L 502.643263 132.527226 
L 506.942134 132.312355 
L 511.069385 135.692143 
L 515.038194 141.694265 
L 518.860278 142.002675 
L 522.546099 145.747451 
L 526.105041 151.325215 
L 529.545549 145.80663 
L 532.875252 148.590117 
L 536.101064 144.454102 
L 539.229274 150.211949 
L 542.265615 150.015997 
L 545.215328 156.859562 
L 548.083221 152.221665 
L 550.873709 154.729222 
L 553.590863 158.042709 
L 558.819907 158.934749 
L 561.338492 161.865291 
L 563.797185 163.30458 
L 566.198768 159.484526 
L 568.545834 166.599819 
L 570.840802 166.436577 
L 573.085936 169.670155 
L 575.283354 167.586637 
L 577.435042 172.331432 
L 579.542865 170.987541 
L 591.36 175.334455 
L 623.152943 181.734361 
L 636.004933 183.437683 
L 657.725657 211.108393 
L 667.084519 193.874296 
L 675.666137 205.959543 
L 683.58977 200.51578 
L 690.949171 221.642114 
L 697.819384 214.180903 
L 704.261408 234.879999 
L 710.325501 206.829403 
L 716.053559 220.018619 
L 721.480877 250.188496 
L 726.637466 240.759874 
L 731.549057 271.924265 
L 736.237878 243.421197 
L 740.723263 236.398994 
L 745.022134 234.503417 
L 749.149385 258.54176 
L 753.118194 259.963878 
L 756.940278 271.735252 
L 760.626099 254.912904 
L 764.185041 237.792271 
L 767.625549 251.322976 
L 770.955252 275.087524 
L 774.181064 259.181371 
L 777.309274 277.189183 
L 780.345615 254.097088 
L 783.295328 295.399392 
L 786.163221 258.304469 
L 788.953709 253.445313 
L 791.670863 310.182447 
L 794.318437 251.305929 
L 799.418492 289.176853 
L 801.877185 241.925815 
L 804.278768 251.197855 
L 806.625834 325.071726 
L 808.920802 269.133437 
L 811.165936 288.974652 
L 813.363354 269.954454 
L 815.515042 335.83799 
L 817.622865 265.420814 
L 819.688575 251.292332 
L 821.713822 266.119981 
L 823.700162 302.042975 
L 825.64906 273.106784 
L 827.561903 254.363546 
L 827.561903 254.363546 
" style="fill:none;stroke:#ff1e1e;stroke-linecap:square;"/>
   </g>
   <g id="line2d_2">
    <path clip-path="url(#p9f7b0e1f80)" d="M 115.2 92.484049 
L 132.313668 93.403498 
L 146.992943 92.590479 
L 159.844933 93.027 
L 171.274613 93.580611 
L 181.565657 93.082699 
L 190.924519 93.964602 
L 199.506137 93.734125 
L 207.42977 93.372318 
L 214.789171 93.981349 
L 221.659384 92.805143 
L 228.101408 93.98753 
L 234.165501 93.250606 
L 245.320877 94.63235 
L 250.477466 93.588835 
L 255.389057 94.997888 
L 260.077878 93.117293 
L 272.989385 93.85899 
L 276.958194 93.661945 
L 280.780278 94.279736 
L 284.466099 94.209143 
L 288.025041 93.211033 
L 291.465549 94.973721 
L 298.021064 93.691108 
L 301.149274 94.900106 
L 304.185615 93.607965 
L 307.135328 94.167685 
L 310.003221 95.876761 
L 312.793709 94.417255 
L 315.510863 96.135636 
L 318.158437 94.889686 
L 320.739907 95.636854 
L 323.258492 95.068344 
L 325.717185 95.946509 
L 328.118768 95.086307 
L 330.465834 95.791483 
L 332.760802 95.889785 
L 335.005936 95.431716 
L 337.203354 96.446119 
L 339.355042 96.619975 
L 341.462865 96.598152 
L 353.28 97.472557 
L 370.393668 98.545005 
L 385.072943 99.105546 
L 397.924933 100.71781 
L 409.354613 102.595531 
L 419.645657 106.088512 
L 429.004519 108.247798 
L 437.586137 108.805589 
L 445.50977 114.779954 
L 452.869171 113.109797 
L 459.739384 119.040162 
L 466.181408 117.149371 
L 472.245501 123.557753 
L 477.973559 125.900148 
L 483.400877 126.556252 
L 488.557466 128.977174 
L 493.469057 136.7596 
L 498.157878 134.638804 
L 502.643263 139.0687 
L 506.942134 136.70549 
L 511.069385 143.916807 
L 515.038194 148.450361 
L 518.860278 147.308041 
L 522.546099 147.3003 
L 526.105041 151.307368 
L 529.545549 152.505935 
L 532.875252 151.212002 
L 536.101064 150.487527 
L 539.229274 157.101225 
L 542.265615 153.862243 
L 545.215328 159.683978 
L 548.083221 159.79331 
L 550.873709 164.61909 
L 553.590863 162.265594 
L 556.238437 156.67328 
L 558.819907 164.58585 
L 561.338492 170.314396 
L 563.797185 165.638786 
L 566.198768 165.953976 
L 568.545834 168.010645 
L 570.840802 163.860061 
L 573.085936 164.388076 
L 575.283354 176.479609 
L 577.435042 171.123085 
L 579.542865 169.631788 
L 591.36 184.076448 
L 608.473668 179.100577 
L 623.152943 197.139329 
L 636.004933 189.512345 
L 647.434613 210.809215 
L 657.725657 205.068821 
L 667.084519 206.071792 
L 675.666137 188.429421 
L 683.58977 222.393294 
L 690.949171 237.797956 
L 697.819384 225.904637 
L 704.261408 198.015003 
L 710.325501 219.358649 
L 716.053559 266.52028 
L 721.480877 214.725282 
L 726.637466 245.351982 
L 731.549057 258.932195 
L 736.237878 222.990702 
L 740.723263 235.285265 
L 745.022134 230.621299 
L 749.149385 252.791198 
L 753.118194 242.975828 
L 756.940278 246.782228 
L 760.626099 286.049546 
L 764.185041 275.162176 
L 767.625549 275.739836 
L 770.955252 229.071626 
L 774.181064 279.628471 
L 777.309274 252.787893 
L 780.345615 287.104307 
L 783.295328 313.752838 
L 786.163221 255.82573 
L 788.953709 306.621499 
L 791.670863 243.086313 
L 794.318437 298.606792 
L 799.418492 227.976181 
L 801.877185 248.039179 
L 804.278768 257.675487 
L 806.625834 265.722363 
L 808.920802 263.608882 
L 811.165936 292.875897 
L 813.363354 290.376465 
L 815.515042 223.041455 
L 817.622865 239.246623 
L 819.688575 264.594577 
L 821.713822 253.383366 
L 823.700162 243.586341 
L 825.64906 241.943549 
L 827.561903 273.514927 
L 827.561903 273.514927 
" style="fill:none;stroke:#581845;stroke-linecap:square;"/>
   </g>
   <g id="line2d_3">
    <path clip-path="url(#p9f7b0e1f80)" d="M 115.2 104.047791 
L 132.313668 103.949008 
L 146.992943 106.42804 
L 159.844933 106.188867 
L 171.274613 103.945211 
L 181.565657 105.091303 
L 190.924519 103.462429 
L 199.506137 105.963505 
L 207.42977 105.397911 
L 214.789171 104.087131 
L 221.659384 106.780023 
L 228.101408 105.428483 
L 234.165501 105.73352 
L 239.893559 104.987975 
L 245.320877 105.382438 
L 250.477466 105.989703 
L 255.389057 108.475124 
L 260.077878 106.267859 
L 264.563263 105.794941 
L 268.862134 108.270073 
L 272.989385 105.634501 
L 276.958194 105.819542 
L 280.780278 107.38144 
L 284.466099 107.405675 
L 288.025041 108.907721 
L 291.465549 105.985144 
L 298.021064 107.878037 
L 301.149274 106.580693 
L 304.185615 106.898071 
L 307.135328 108.060294 
L 310.003221 110.558108 
L 312.793709 110.433067 
L 315.510863 108.21884 
L 318.158437 110.657664 
L 320.739907 108.149251 
L 323.258492 110.81008 
L 325.717185 108.806766 
L 328.118768 110.417811 
L 330.465834 111.496435 
L 332.760802 111.297932 
L 335.005936 110.425898 
L 337.203354 111.84201 
L 339.355042 110.879698 
L 341.462865 110.283526 
L 353.28 111.670317 
L 370.393668 114.73371 
L 385.072943 117.222538 
L 397.924933 120.766398 
L 409.354613 119.914254 
L 419.645657 120.888298 
L 429.004519 122.468781 
L 437.586137 124.903915 
L 445.50977 124.777377 
L 452.869171 125.236565 
L 459.739384 128.571302 
L 466.181408 129.584273 
L 472.245501 130.19879 
L 477.973559 132.893427 
L 483.400877 134.573379 
L 488.557466 140.677387 
L 493.469057 136.278013 
L 498.157878 135.499531 
L 502.643263 142.313946 
L 506.942134 144.856088 
L 511.069385 144.987071 
L 515.038194 149.255323 
L 518.860278 142.186694 
L 522.546099 154.595671 
L 526.105041 157.656316 
L 529.545549 154.501282 
L 532.875252 164.719219 
L 536.101064 156.342558 
L 539.229274 150.949041 
L 542.265615 156.891526 
L 545.215328 159.109648 
L 548.083221 170.088077 
L 550.873709 158.840381 
L 553.590863 164.709664 
L 556.238437 173.051964 
L 558.819907 163.157673 
L 561.338492 174.076601 
L 563.797185 167.246896 
L 566.198768 169.060916 
L 568.545834 169.721584 
L 570.840802 166.47024 
L 573.085936 174.335839 
L 575.283354 173.26542 
L 577.435042 186.897768 
L 579.542865 178.844006 
L 591.36 167.040593 
L 608.473668 188.402801 
L 623.152943 192.421467 
L 636.004933 204.83564 
L 647.434613 201.608409 
L 657.725657 209.25847 
L 667.084519 225.465983 
L 675.666137 222.835122 
L 683.58977 221.398655 
L 690.949171 242.529254 
L 697.819384 231.943424 
L 704.261408 218.558262 
L 710.325501 223.461356 
L 716.053559 241.949859 
L 721.480877 223.975094 
L 726.637466 229.673322 
L 731.549057 244.329309 
L 736.237878 237.309711 
L 740.723263 262.127553 
L 745.022134 238.404322 
L 749.149385 252.94147 
L 753.118194 260.3169 
L 760.626099 276.881393 
L 764.185041 224.176651 
L 767.625549 251.591143 
L 770.955252 252.974471 
L 774.181064 235.564919 
L 777.309274 268.987062 
L 780.345615 251.099993 
L 783.295328 292.616933 
L 786.163221 239.817367 
L 788.953709 301.658744 
L 791.670863 242.310793 
L 794.318437 331.524235 
L 796.899907 265.256008 
L 799.418492 264.437105 
L 801.877185 276.769209 
L 804.278768 291.732173 
L 806.625834 263.522958 
L 808.920802 239.131184 
L 811.165936 257.983837 
L 813.363354 392.719307 
L 815.515042 240.880526 
L 817.622865 279.490214 
L 819.688575 266.070025 
L 821.713822 263.958098 
L 823.700162 282.398542 
L 825.64906 259.549556 
L 827.561903 250.934804 
L 827.561903 250.934804 
" style="fill:none;stroke:#26b7d8;stroke-linecap:square;"/>
   </g>
   <g id="line2d_4">
    <path clip-path="url(#p9f7b0e1f80)" d="M 115.2 113.859823 
L 132.313668 116.56905 
L 146.992943 114.721275 
L 159.844933 116.72218 
L 171.274613 115.878965 
L 181.565657 116.464883 
L 190.924519 116.32967 
L 199.506137 115.767362 
L 207.42977 113.216187 
L 214.789171 117.367915 
L 221.659384 113.712561 
L 228.101408 118.091043 
L 234.165501 116.098711 
L 239.893559 115.66013 
L 245.320877 118.171119 
L 250.477466 115.846368 
L 255.389057 117.28314 
L 260.077878 119.169897 
L 264.563263 118.515136 
L 268.862134 120.413897 
L 272.989385 119.47546 
L 276.958194 116.151063 
L 280.780278 115.277514 
L 284.466099 120.203616 
L 288.025041 121.135577 
L 291.465549 120.051805 
L 294.795252 119.193167 
L 298.021064 120.517901 
L 301.149274 120.552574 
L 304.185615 118.646106 
L 307.135328 118.977556 
L 310.003221 122.623932 
L 312.793709 120.727703 
L 315.510863 119.949286 
L 318.158437 123.505427 
L 323.258492 121.428894 
L 325.717185 123.486085 
L 328.118768 125.251476 
L 330.465834 124.027247 
L 332.760802 120.012171 
L 335.005936 123.342124 
L 339.355042 125.659854 
L 341.462865 125.55639 
L 353.28 126.826136 
L 370.393668 126.01489 
L 397.924933 134.229729 
L 409.354613 134.883986 
L 419.645657 135.360682 
L 429.004519 138.980267 
L 437.586137 141.131323 
L 445.50977 133.63227 
L 452.869171 138.407521 
L 459.739384 140.955453 
L 466.181408 137.560962 
L 472.245501 144.656014 
L 477.973559 142.54756 
L 483.400877 147.572608 
L 488.557466 144.934024 
L 493.469057 147.290728 
L 498.157878 148.162272 
L 502.643263 147.586527 
L 506.942134 146.832615 
L 511.069385 150.782719 
L 515.038194 158.696788 
L 518.860278 155.661843 
L 522.546099 155.407181 
L 526.105041 157.883742 
L 529.545549 157.119305 
L 532.875252 156.503013 
L 536.101064 157.083756 
L 539.229274 163.813754 
L 542.265615 166.26645 
L 545.215328 162.262759 
L 548.083221 168.608879 
L 550.873709 176.390485 
L 553.590863 167.95198 
L 556.238437 174.625785 
L 558.819907 176.17321 
L 561.338492 181.990048 
L 563.797185 173.178137 
L 566.198768 184.788751 
L 568.545834 175.120233 
L 570.840802 178.074365 
L 573.085936 185.405532 
L 575.283354 178.976444 
L 577.435042 178.193459 
L 579.542865 180.50491 
L 591.36 175.939764 
L 608.473668 185.607214 
L 623.152943 207.865072 
L 636.004933 207.537792 
L 647.434613 238.657148 
L 657.725657 225.505744 
L 667.084519 208.293147 
L 675.666137 221.842022 
L 683.58977 227.266147 
L 690.949171 285.438758 
L 697.819384 230.159552 
L 704.261408 247.995526 
L 710.325501 232.87207 
L 716.053559 216.409256 
L 721.480877 251.551398 
L 726.637466 226.717458 
L 731.549057 220.200956 
L 736.237878 216.499218 
L 740.723263 271.424238 
L 745.022134 279.403568 
L 749.149385 235.714802 
L 753.118194 297.656347 
L 756.940278 290.36687 
L 760.626099 250.632155 
L 764.185041 293.337186 
L 767.625549 270.148369 
L 770.955252 251.930066 
L 774.181064 242.911352 
L 777.309274 285.419622 
L 780.345615 275.057985 
L 783.295328 284.67883 
L 786.163221 250.980155 
L 788.953709 313.050726 
L 791.670863 272.557185 
L 794.318437 271.946554 
L 796.899907 255.28237 
L 799.418492 268.575569 
L 801.877185 231.157967 
L 804.278768 273.865549 
L 806.625834 238.431547 
L 808.920802 295.85834 
L 811.165936 245.389272 
L 813.363354 261.703885 
L 815.515042 283.012792 
L 817.622865 267.292541 
L 819.688575 241.710967 
L 821.713822 258.207661 
L 823.700162 268.388731 
L 825.64906 252.167224 
L 827.561903 280.691495 
L 827.561903 280.691495 
" style="fill:none;stroke:#8414a4;stroke-linecap:square;"/>
   </g>
   <g id="line2d_5">
    <path clip-path="url(#p9f7b0e1f80)" d="M 115.2 123.239187 
L 132.313668 127.478417 
L 146.992943 123.541804 
L 159.844933 127.744079 
L 171.274613 127.988312 
L 181.565657 127.251212 
L 190.924519 122.758085 
L 199.506137 126.399412 
L 207.42977 130.43045 
L 214.789171 127.26896 
L 221.659384 126.575519 
L 228.101408 130.396469 
L 234.165501 126.602033 
L 239.893559 125.039496 
L 245.320877 126.022727 
L 250.477466 125.737093 
L 255.389057 126.12596 
L 260.077878 129.209429 
L 264.563263 127.085635 
L 268.862134 125.696576 
L 272.989385 129.009354 
L 276.958194 131.445296 
L 280.780278 128.781771 
L 284.466099 130.194703 
L 288.025041 126.987064 
L 291.465549 127.835996 
L 294.795252 131.809337 
L 298.021064 128.233268 
L 301.149274 126.058171 
L 304.185615 131.908705 
L 307.135328 130.470419 
L 310.003221 130.119407 
L 315.510863 132.730446 
L 318.158437 130.034428 
L 320.739907 128.601772 
L 323.258492 131.68719 
L 325.717185 130.938391 
L 330.465834 131.049775 
L 332.760802 131.548009 
L 335.005936 132.99721 
L 337.203354 135.216834 
L 339.355042 135.355327 
L 341.462865 133.833395 
L 353.28 138.634817 
L 370.393668 134.72358 
L 385.072943 144.329338 
L 397.924933 139.912652 
L 409.354613 143.060925 
L 419.645657 147.576768 
L 429.004519 149.927469 
L 437.586137 149.943022 
L 445.50977 152.998413 
L 452.869171 146.180866 
L 459.739384 152.28219 
L 466.181408 151.482784 
L 472.245501 152.079926 
L 477.973559 155.347316 
L 483.400877 149.991587 
L 488.557466 150.763309 
L 493.469057 159.746908 
L 498.157878 158.793924 
L 502.643263 156.658928 
L 506.942134 158.207208 
L 511.069385 152.250695 
L 515.038194 158.954746 
L 518.860278 163.512443 
L 522.546099 161.855768 
L 526.105041 159.713093 
L 529.545549 163.470586 
L 532.875252 162.257846 
L 536.101064 176.659274 
L 539.229274 171.851116 
L 542.265615 162.683701 
L 545.215328 168.746153 
L 548.083221 173.70411 
L 550.873709 167.261355 
L 553.590863 175.494292 
L 556.238437 164.748628 
L 558.819907 179.235748 
L 561.338492 180.148926 
L 563.797185 185.446261 
L 566.198768 175.091401 
L 568.545834 179.848824 
L 570.840802 181.750267 
L 573.085936 177.24413 
L 575.283354 183.6618 
L 577.435042 179.506078 
L 579.542865 188.773489 
L 591.36 186.177716 
L 608.473668 207.191116 
L 623.152943 198.003134 
L 636.004933 203.156939 
L 647.434613 225.230572 
L 657.725657 202.116608 
L 667.084519 209.341269 
L 675.666137 219.476547 
L 683.58977 226.797724 
L 690.949171 222.117684 
L 697.819384 214.92132 
L 704.261408 226.758821 
L 710.325501 232.600369 
L 716.053559 243.133766 
L 721.480877 258.940314 
L 726.637466 214.421752 
L 731.549057 231.765742 
L 736.237878 239.360956 
L 740.723263 271.109298 
L 749.149385 235.289238 
L 753.118194 250.225989 
L 756.940278 270.083443 
L 760.626099 231.86961 
L 764.185041 258.327574 
L 767.625549 242.805251 
L 770.955252 270.041575 
L 774.181064 322.300734 
L 777.309274 249.294209 
L 780.345615 306.878972 
L 783.295328 326.947738 
L 786.163221 254.021083 
L 788.953709 300.464089 
L 791.670863 264.550623 
L 794.318437 353.006978 
L 796.899907 282.67476 
L 799.418492 263.48107 
L 801.877185 255.261418 
L 804.278768 262.196709 
L 808.920802 290.497383 
L 811.165936 299.165336 
L 813.363354 266.964249 
L 815.515042 266.185756 
L 817.622865 325.1241 
L 819.688575 235.347188 
L 821.713822 330.210278 
L 823.700162 234.375306 
L 825.64906 284.457434 
L 827.561903 397.292459 
L 827.561903 397.292459 
" style="fill:none;stroke:#ffd23a;stroke-linecap:square;"/>
   </g>
   <g id="line2d_6">
    <path clip-path="url(#p9f7b0e1f80)" d="M 115.2 131.769884 
L 132.313668 131.11995 
L 146.992943 131.72927 
L 159.844933 129.454467 
L 171.274613 133.55013 
L 181.565657 133.207669 
L 190.924519 129.754162 
L 199.506137 135.016869 
L 207.42977 132.235844 
L 214.789171 139.061539 
L 221.659384 131.187302 
L 228.101408 134.151659 
L 239.893559 134.458829 
L 245.320877 138.007917 
L 250.477466 136.431819 
L 255.389057 135.476067 
L 260.077878 127.8058 
L 264.563263 136.595748 
L 268.862134 133.616484 
L 272.989385 136.128884 
L 276.958194 137.155048 
L 280.780278 137.189517 
L 284.466099 134.088913 
L 288.025041 139.012607 
L 291.465549 136.618339 
L 294.795252 135.277054 
L 298.021064 133.290519 
L 301.149274 141.338883 
L 304.185615 137.233049 
L 307.135328 137.768443 
L 310.003221 138.756275 
L 312.793709 138.269958 
L 315.510863 138.21323 
L 318.158437 137.574986 
L 320.739907 136.387142 
L 323.258492 139.599771 
L 325.717185 142.998729 
L 328.118768 141.012743 
L 330.465834 142.392462 
L 332.760802 140.643688 
L 335.005936 144.675137 
L 337.203354 142.590593 
L 339.355042 138.86028 
L 341.462865 141.54206 
L 353.28 140.959937 
L 370.393668 147.836358 
L 385.072943 152.577321 
L 397.924933 150.703685 
L 409.354613 153.920552 
L 419.645657 157.468335 
L 429.004519 156.188411 
L 437.586137 156.081169 
L 445.50977 158.196908 
L 452.869171 163.106249 
L 459.739384 160.415148 
L 466.181408 165.187181 
L 472.245501 162.901595 
L 477.973559 157.577026 
L 483.400877 163.863947 
L 488.557466 160.941266 
L 493.469057 164.309166 
L 498.157878 162.722353 
L 502.643263 165.813792 
L 506.942134 165.44597 
L 511.069385 169.656375 
L 515.038194 159.874507 
L 518.860278 172.764392 
L 522.546099 167.596612 
L 526.105041 165.562588 
L 529.545549 166.526861 
L 532.875252 168.081983 
L 536.101064 171.25013 
L 539.229274 168.096467 
L 542.265615 173.283333 
L 545.215328 174.234393 
L 548.083221 175.025527 
L 550.873709 184.896158 
L 553.590863 177.051716 
L 556.238437 186.461507 
L 558.819907 173.181335 
L 561.338492 183.752554 
L 563.797185 176.601654 
L 566.198768 172.563355 
L 568.545834 197.900667 
L 570.840802 188.251784 
L 573.085936 186.020525 
L 575.283354 185.322368 
L 577.435042 184.147204 
L 579.542865 189.480962 
L 591.36 193.344355 
L 608.473668 201.201805 
L 623.152943 190.560962 
L 636.004933 206.11318 
L 647.434613 214.505052 
L 657.725657 200.200179 
L 667.084519 218.215688 
L 675.666137 246.175222 
L 683.58977 223.53911 
L 690.949171 236.47943 
L 697.819384 219.920876 
L 704.261408 219.629555 
L 710.325501 224.031606 
L 716.053559 261.853727 
L 721.480877 238.50722 
L 726.637466 285.18969 
L 731.549057 239.552505 
L 736.237878 276.263132 
L 740.723263 255.952331 
L 745.022134 246.516023 
L 749.149385 246.068063 
L 753.118194 243.628606 
L 756.940278 274.05923 
L 760.626099 299.107329 
L 764.185041 239.589774 
L 767.625549 236.986334 
L 770.955252 258.627899 
L 774.181064 267.288692 
L 777.309274 264.851283 
L 780.345615 275.102584 
L 783.295328 232.629591 
L 786.163221 267.860113 
L 788.953709 319.068688 
L 791.670863 331.415593 
L 794.318437 376.991721 
L 796.899907 270.996333 
L 799.418492 264.920544 
L 801.877185 271.113972 
L 804.278768 302.165378 
L 806.625834 239.715102 
L 808.920802 340.01105 
L 811.165936 288.878648 
L 813.363354 273.373902 
L 815.515042 309.228086 
L 817.622865 258.72245 
L 819.688575 310.2561 
L 821.713822 261.423085 
L 823.700162 277.529925 
L 825.64906 400.835815 
L 827.561903 289.777713 
L 827.561903 289.777713 
" style="fill:none;stroke:#ff9300;stroke-linecap:square;"/>
   </g>
   <g id="line2d_7">
    <path clip-path="url(#p9f7b0e1f80)" d="M 115.2 142.637567 
L 132.313668 139.438338 
L 146.992943 134.101292 
L 159.844933 138.313522 
L 171.274613 141.577619 
L 181.565657 136.82029 
L 190.924519 135.454302 
L 199.506137 137.36098 
L 207.42977 142.606481 
L 214.789171 138.007535 
L 221.659384 138.247829 
L 228.101408 143.734858 
L 234.165501 143.092578 
L 239.893559 139.644016 
L 245.320877 138.230409 
L 255.389057 140.950597 
L 260.077878 136.63237 
L 264.563263 141.24259 
L 268.862134 142.098201 
L 272.989385 141.007138 
L 276.958194 141.229753 
L 280.780278 142.007973 
L 284.466099 147.102932 
L 288.025041 145.441779 
L 291.465549 151.490138 
L 294.795252 143.39977 
L 298.021064 142.5249 
L 301.149274 146.019153 
L 304.185615 150.326742 
L 307.135328 141.569271 
L 310.003221 147.15181 
L 312.793709 145.760553 
L 315.510863 150.791348 
L 318.158437 143.717129 
L 320.739907 145.366067 
L 323.258492 147.888262 
L 325.717185 144.916683 
L 328.118768 143.499334 
L 330.465834 153.067986 
L 332.760802 145.134134 
L 335.005936 145.674107 
L 337.203354 151.353628 
L 339.355042 152.900355 
L 341.462865 148.609953 
L 353.28 147.295225 
L 370.393668 155.773839 
L 385.072943 159.265277 
L 397.924933 157.878221 
L 409.354613 160.831896 
L 419.645657 168.161339 
L 429.004519 164.986002 
L 437.586137 167.090848 
L 445.50977 172.973669 
L 452.869171 158.881155 
L 459.739384 171.261172 
L 466.181408 166.051585 
L 472.245501 169.522021 
L 477.973559 171.275521 
L 483.400877 174.286017 
L 488.557466 173.023147 
L 493.469057 170.03492 
L 498.157878 175.221789 
L 502.643263 169.181165 
L 506.942134 170.177718 
L 511.069385 178.765972 
L 515.038194 168.437608 
L 518.860278 172.773894 
L 522.546099 166.250469 
L 526.105041 163.56244 
L 529.545549 173.80039 
L 532.875252 175.534179 
L 536.101064 169.086104 
L 539.229274 173.85164 
L 542.265615 166.181639 
L 545.215328 180.587967 
L 548.083221 180.98076 
L 550.873709 177.396072 
L 553.590863 181.891073 
L 556.238437 207.244116 
L 558.819907 177.655086 
L 561.338492 206.321835 
L 563.797185 175.448763 
L 566.198768 186.202832 
L 568.545834 179.57112 
L 570.840802 199.821216 
L 573.085936 196.025844 
L 575.283354 191.510362 
L 577.435042 180.390912 
L 579.542865 190.981761 
L 591.36 188.83584 
L 608.473668 203.845996 
L 623.152943 218.620787 
L 636.004933 210.827733 
L 647.434613 236.842456 
L 657.725657 209.042568 
L 667.084519 229.250524 
L 675.666137 230.260928 
L 683.58977 206.519682 
L 690.949171 245.326976 
L 697.819384 215.58428 
L 704.261408 229.438705 
L 710.325501 228.813003 
L 716.053559 240.58963 
L 721.480877 235.112131 
L 726.637466 222.266034 
L 731.549057 232.190766 
L 736.237878 247.472285 
L 740.723263 297.000162 
L 745.022134 225.928101 
L 749.149385 259.173764 
L 753.118194 249.643351 
L 756.940278 237.554509 
L 760.626099 281.809056 
L 764.185041 262.580811 
L 767.625549 295.808543 
L 770.955252 285.485305 
L 774.181064 253.600691 
L 777.309274 271.000539 
L 780.345615 249.898781 
L 783.295328 249.293183 
L 786.163221 318.088852 
L 788.953709 299.180237 
L 791.670863 303.403185 
L 794.318437 256.600128 
L 796.899907 307.18254 
L 799.418492 235.460786 
L 801.877185 300.753759 
L 804.278768 264.30611 
L 806.625834 263.479819 
L 808.920802 273.889688 
L 811.165936 266.648064 
L 813.363354 253.896293 
L 815.515042 361.58237 
L 817.622865 308.867093 
L 819.688575 277.279223 
L 821.713822 285.231283 
L 823.700162 281.504457 
L 825.64906 245.869954 
L 827.561903 323.593367 
L 827.561903 323.593367 
" style="fill:none;stroke:#f50fe6;stroke-linecap:square;"/>
   </g>
   <g id="line2d_8">
    <path clip-path="url(#p9f7b0e1f80)" d="M 115.2 148.458264 
L 132.313668 146.480923 
L 146.992943 149.977498 
L 159.844933 149.679743 
L 171.274613 144.986215 
L 181.565657 147.991722 
L 190.924519 151.212064 
L 199.506137 147.972456 
L 207.42977 154.79289 
L 214.789171 146.102741 
L 221.659384 146.40874 
L 228.101408 141.89779 
L 234.165501 149.918078 
L 239.893559 145.511122 
L 245.320877 150.726397 
L 250.477466 143.806638 
L 255.389057 145.938441 
L 260.077878 148.868998 
L 264.563263 149.9048 
L 268.862134 154.596008 
L 272.989385 147.807566 
L 276.958194 148.610622 
L 280.780278 145.905532 
L 284.466099 150.452045 
L 288.025041 147.737081 
L 291.465549 151.0373 
L 294.795252 154.474017 
L 298.021064 151.441229 
L 301.149274 150.866343 
L 304.185615 147.774109 
L 307.135328 150.438301 
L 310.003221 145.467727 
L 312.793709 148.249627 
L 315.510863 152.239294 
L 318.158437 151.94491 
L 320.739907 159.325352 
L 323.258492 155.931689 
L 325.717185 158.436078 
L 328.118768 151.725094 
L 330.465834 157.281514 
L 332.760802 151.687649 
L 335.005936 155.122099 
L 337.203354 158.738464 
L 339.355042 158.545781 
L 341.462865 155.241882 
L 353.28 160.131641 
L 370.393668 159.927181 
L 385.072943 171.006388 
L 397.924933 168.955294 
L 409.354613 175.176152 
L 419.645657 169.874603 
L 429.004519 171.565864 
L 437.586137 173.790859 
L 445.50977 174.352458 
L 452.869171 172.220152 
L 459.739384 178.082974 
L 466.181408 177.77644 
L 472.245501 175.463297 
L 477.973559 176.959475 
L 483.400877 176.496156 
L 488.557466 183.64507 
L 493.469057 174.06365 
L 498.157878 182.515363 
L 502.643263 175.497836 
L 506.942134 180.122615 
L 511.069385 194.237924 
L 515.038194 178.034845 
L 518.860278 183.538601 
L 522.546099 174.531428 
L 526.105041 183.22022 
L 529.545549 189.821021 
L 532.875252 176.508083 
L 536.101064 191.789684 
L 539.229274 175.235451 
L 545.215328 192.621278 
L 548.083221 187.970747 
L 550.873709 187.501127 
L 553.590863 185.480772 
L 556.238437 182.203946 
L 558.819907 175.020463 
L 561.338492 178.357388 
L 563.797185 189.694579 
L 566.198768 173.247162 
L 568.545834 186.279639 
L 570.840802 191.947378 
L 573.085936 198.185611 
L 575.283354 202.457333 
L 577.435042 193.133152 
L 579.542865 183.258714 
L 591.36 189.996851 
L 608.473668 206.515426 
L 623.152943 215.901519 
L 636.004933 216.450557 
L 647.434613 205.099151 
L 657.725657 218.398454 
L 667.084519 236.458207 
L 675.666137 214.964802 
L 683.58977 248.703432 
L 690.949171 230.62227 
L 697.819384 237.722338 
L 704.261408 259.933332 
L 710.325501 224.756891 
L 716.053559 233.70766 
L 721.480877 259.939495 
L 726.637466 230.656004 
L 731.549057 248.680131 
L 736.237878 256.030383 
L 740.723263 273.276431 
L 745.022134 239.112386 
L 749.149385 276.274209 
L 753.118194 245.83174 
L 756.940278 258.584531 
L 760.626099 252.218341 
L 764.185041 269.529362 
L 767.625549 311.492196 
L 770.955252 325.584745 
L 774.181064 325.187435 
L 777.309274 252.358285 
L 780.345615 299.141169 
L 783.295328 267.308828 
L 786.163221 231.157173 
L 788.953709 331.54419 
L 791.670863 316.780789 
L 794.318437 275.711346 
L 796.899907 244.673893 
L 799.418492 286.922637 
L 801.877185 274.84295 
L 804.278768 284.519861 
L 806.625834 260.103739 
L 808.920802 271.09697 
L 811.165936 249.060574 
L 813.363354 290.369567 
L 815.515042 244.084695 
L 817.622865 249.221495 
L 819.688575 263.974536 
L 821.713822 264.100405 
L 823.700162 271.367178 
L 825.64906 259.740033 
L 827.561903 268.106002 
L 827.561903 268.106002 
" style="fill:none;stroke:#1000a0;stroke-linecap:square;"/>
   </g>
   <g id="line2d_9">
    <path clip-path="url(#p9f7b0e1f80)" d="M 115.2 151.720413 
L 132.313668 158.563238 
L 146.992943 163.168771 
L 159.844933 145.162378 
L 171.274613 145.06349 
L 181.565657 153.128502 
L 190.924519 154.08248 
L 199.506137 150.738331 
L 207.42977 145.45011 
L 214.789171 153.09041 
L 221.659384 158.083067 
L 228.101408 157.653377 
L 234.165501 158.92703 
L 239.893559 161.470952 
L 245.320877 151.526896 
L 250.477466 154.526347 
L 255.389057 155.386851 
L 260.077878 158.246886 
L 264.563263 149.448899 
L 268.862134 164.900457 
L 272.989385 157.176525 
L 276.958194 157.039875 
L 280.780278 157.132362 
L 284.466099 156.676578 
L 288.025041 162.908122 
L 291.465549 154.225133 
L 294.795252 168.499446 
L 298.021064 160.072981 
L 301.149274 162.450542 
L 304.185615 156.368707 
L 307.135328 159.63715 
L 310.003221 157.697648 
L 312.793709 155.370625 
L 315.510863 160.943149 
L 318.158437 151.23864 
L 320.739907 159.340713 
L 323.258492 161.081789 
L 325.717185 166.917947 
L 328.118768 162.18325 
L 330.465834 163.737544 
L 332.760802 157.473049 
L 335.005936 157.921557 
L 337.203354 164.036898 
L 339.355042 162.266109 
L 341.462865 161.095633 
L 353.28 166.417969 
L 370.393668 165.331124 
L 385.072943 174.326398 
L 397.924933 174.641148 
L 409.354613 179.598592 
L 419.645657 181.929283 
L 429.004519 177.994211 
L 437.586137 176.742778 
L 445.50977 181.714521 
L 452.869171 185.172612 
L 459.739384 180.182846 
L 466.181408 184.859947 
L 472.245501 178.838827 
L 477.973559 186.910377 
L 483.400877 184.779188 
L 488.557466 185.695478 
L 493.469057 189.878075 
L 498.157878 183.049198 
L 502.643263 178.034268 
L 506.942134 177.664355 
L 511.069385 177.168658 
L 515.038194 186.923525 
L 518.860278 188.385333 
L 522.546099 193.454164 
L 526.105041 188.65846 
L 529.545549 189.296707 
L 532.875252 185.928533 
L 536.101064 178.850158 
L 539.229274 185.232918 
L 542.265615 181.369643 
L 545.215328 189.783019 
L 548.083221 180.853479 
L 550.873709 196.39935 
L 553.590863 175.577868 
L 556.238437 181.618247 
L 558.819907 183.489768 
L 561.338492 186.290339 
L 563.797185 183.0227 
L 566.198768 191.983183 
L 568.545834 181.828535 
L 570.840802 189.167534 
L 573.085936 183.912519 
L 575.283354 190.193707 
L 577.435042 201.982126 
L 579.542865 194.824861 
L 591.36 198.348573 
L 608.473668 225.323258 
L 623.152943 198.348135 
L 636.004933 211.563414 
L 647.434613 224.145353 
L 657.725657 229.647754 
L 667.084519 208.676672 
L 675.666137 243.912973 
L 683.58977 233.241166 
L 690.949171 241.384841 
L 697.819384 223.047505 
L 704.261408 246.854497 
L 710.325501 254.195595 
L 716.053559 233.52236 
L 721.480877 249.114936 
L 726.637466 270.003908 
L 731.549057 245.791893 
L 736.237878 265.171839 
L 740.723263 319.074252 
L 745.022134 258.231563 
L 749.149385 310.577702 
L 753.118194 264.338218 
L 756.940278 300.467858 
L 760.626099 329.754175 
L 764.185041 252.86513 
L 767.625549 258.65835 
L 770.955252 305.759764 
L 774.181064 256.938114 
L 777.309274 260.852862 
L 780.345615 383.823775 
L 783.295328 329.603422 
L 786.163221 294.979581 
L 788.953709 280.401052 
L 791.670863 269.322147 
L 794.318437 262.681808 
L 796.899907 232.927918 
L 799.418492 248.736338 
L 801.877185 286.326226 
L 804.278768 330.569534 
L 806.625834 282.87442 
L 808.920802 267.567627 
L 811.165936 274.681995 
L 813.363354 264.220675 
L 815.515042 282.704778 
L 817.622865 279.910177 
L 819.688575 296.660347 
L 821.713822 271.85921 
L 823.700162 297.445396 
L 825.64906 262.312312 
L 827.561903 262.897146 
L 827.561903 262.897146 
" style="fill:none;stroke:#595866;stroke-linecap:square;"/>
   </g>
   <g id="line2d_10">
    <path clip-path="url(#p9f7b0e1f80)" d="M 115.2 160.813794 
L 132.313668 151.994394 
L 146.992943 157.682529 
L 159.844933 156.625754 
L 171.274613 152.691062 
L 181.565657 155.167054 
L 190.924519 157.179272 
L 199.506137 152.454393 
L 207.42977 154.589534 
L 214.789171 157.313955 
L 221.659384 152.373882 
L 234.165501 160.424607 
L 239.893559 163.586411 
L 245.320877 156.275682 
L 250.477466 152.905404 
L 255.389057 161.995417 
L 260.077878 153.875287 
L 264.563263 151.496117 
L 268.862134 161.361468 
L 272.989385 173.248419 
L 276.958194 160.835881 
L 280.780278 168.824486 
L 284.466099 166.078655 
L 288.025041 162.650885 
L 291.465549 160.649165 
L 294.795252 166.621673 
L 298.021064 166.512852 
L 301.149274 159.379817 
L 304.185615 159.782769 
L 307.135328 170.174371 
L 310.003221 153.625398 
L 312.793709 163.79754 
L 315.510863 155.693108 
L 318.158437 159.458575 
L 320.739907 169.152544 
L 323.258492 167.795081 
L 325.717185 166.760975 
L 328.118768 159.486107 
L 330.465834 173.334381 
L 332.760802 169.918928 
L 335.005936 162.19641 
L 337.203354 170.996773 
L 339.355042 166.124366 
L 341.462865 167.067913 
L 353.28 162.228412 
L 370.393668 168.629555 
L 385.072943 176.955648 
L 397.924933 169.450451 
L 409.354613 182.759136 
L 419.645657 173.949213 
L 429.004519 189.33236 
L 437.586137 187.26607 
L 445.50977 179.577528 
L 452.869171 195.770635 
L 459.739384 200.027837 
L 466.181408 188.375914 
L 472.245501 176.464116 
L 477.973559 196.224912 
L 483.400877 193.742039 
L 488.557466 195.890457 
L 493.469057 180.975255 
L 498.157878 189.729871 
L 502.643263 195.513058 
L 506.942134 189.511749 
L 511.069385 182.456747 
L 515.038194 197.066495 
L 518.860278 189.102645 
L 522.546099 197.619032 
L 526.105041 196.783146 
L 529.545549 192.202024 
L 532.875252 211.078091 
L 536.101064 183.619821 
L 539.229274 189.448292 
L 542.265615 190.464922 
L 545.215328 190.342001 
L 548.083221 196.999307 
L 553.590863 189.685483 
L 556.238437 194.758131 
L 558.819907 192.181911 
L 561.338492 206.084345 
L 563.797185 187.102521 
L 566.198768 197.98527 
L 568.545834 194.496351 
L 570.840802 209.010162 
L 573.085936 185.845365 
L 575.283354 196.712975 
L 577.435042 202.685369 
L 579.542865 174.359938 
L 591.36 203.381588 
L 608.473668 212.272735 
L 623.152943 224.229735 
L 636.004933 224.444276 
L 647.434613 214.321888 
L 657.725657 223.05602 
L 667.084519 237.01225 
L 675.666137 232.328796 
L 683.58977 220.63954 
L 690.949171 258.726746 
L 697.819384 234.660086 
L 704.261408 245.638609 
L 710.325501 238.997815 
L 716.053559 231.504501 
L 721.480877 239.481308 
L 726.637466 267.857041 
L 731.549057 254.031524 
L 736.237878 504.854153 
L 740.723263 259.288501 
L 745.022134 264.983266 
L 749.149385 256.939508 
L 753.118194 382.066427 
L 756.940278 278.829942 
L 760.626099 257.140198 
L 764.185041 241.896065 
L 767.625549 247.602791 
L 770.955252 298.978057 
L 774.181064 336.146388 
L 777.309274 258.155965 
L 780.345615 292.863592 
L 783.295328 254.934921 
L 786.163221 282.571023 
L 788.953709 305.760422 
L 791.670863 252.888563 
L 794.318437 264.983722 
L 796.899907 229.590542 
L 799.418492 265.349829 
L 801.877185 292.327941 
L 804.278768 291.810706 
L 806.625834 256.611787 
L 808.920802 267.193607 
L 811.165936 260.754106 
L 813.363354 377.640681 
L 815.515042 301.819684 
L 817.622865 282.671419 
L 819.688575 278.118523 
L 821.713822 237.96326 
L 823.700162 268.988924 
L 825.64906 265.958528 
L 827.561903 269.849039 
L 827.561903 269.849039 
" style="fill:none;stroke:#147f2a;stroke-linecap:square;"/>
   </g>
   <g id="patch_3">
    <path d="M 115.2 64.08 
L 829.44 64.08 
" style="fill:none;stroke:#000000;stroke-linecap:square;stroke-linejoin:miter;"/>
   </g>
   <g id="patch_4">
    <path d="M 115.2 576.72 
L 829.44 576.72 
" style="fill:none;stroke:#000000;stroke-linecap:square;stroke-linejoin:miter;"/>
   </g>
   <g id="patch_5">
    <path d="M 115.2 576.72 
L 115.2 64.08 
" style="fill:none;stroke:#000000;stroke-linecap:square;stroke-linejoin:miter;"/>
   </g>
   <g id="patch_6">
    <path d="M 829.44 576.72 
L 829.44 64.08 
" style="fill:none;stroke:#000000;stroke-linecap:square;stroke-linejoin:miter;"/>
   </g>
   <g id="matplotlib.axis_1">
    <g id="xtick_1">
     <g id="line2d_11">
      <defs>
       <path d="M 0 0 
L 0 -4 
" id="mfddbbc6700" style="stroke:#000000;stroke-width:0.5;"/>
      </defs>
      <g>
       <use style="stroke:#000000;stroke-width:0.5;" x="115.2" xlink:href="#mfddbbc6700" y="576.72"/>
      </g>
     </g>
     <g id="line2d_12">
      <defs>
       <path d="M 0 0 
L 0 4 
" id="me7ccc0809c" style="stroke:#000000;stroke-width:0.5;"/>
      </defs>
      <g>
       <use style="stroke:#000000;stroke-width:0.5;" x="115.2" xlink:href="#me7ccc0809c" y="64.08"/>
      </g>
     </g>
     <g id="text_1">
      <!-- $\mathdefault{10^{-3}}$ -->
      <defs>
       <path d="M 31.78125 66.40625 
Q 24.171875 66.40625 20.328125 58.90625 
Q 16.5 51.421875 16.5 36.375 
Q 16.5 21.390625 20.328125 13.890625 
Q 24.171875 6.390625 31.78125 6.390625 
Q 39.453125 6.390625 43.28125 13.890625 
Q 47.125 21.390625 47.125 36.375 
Q 47.125 51.421875 43.28125 58.90625 
Q 39.453125 66.40625 31.78125 66.40625 
M 31.78125 74.21875 
Q 44.046875 74.21875 50.515625 64.515625 
Q 56.984375 54.828125 56.984375 36.375 
Q 56.984375 17.96875 50.515625 8.265625 
Q 44.046875 -1.421875 31.78125 -1.421875 
Q 19.53125 -1.421875 13.0625 8.265625 
Q 6.59375 17.96875 6.59375 36.375 
Q 6.59375 54.828125 13.0625 64.515625 
Q 19.53125 74.21875 31.78125 74.21875 
" id="BitstreamVeraSans-Roman-30"/>
       <path d="M 12.40625 8.296875 
L 28.515625 8.296875 
L 28.515625 63.921875 
L 10.984375 60.40625 
L 10.984375 69.390625 
L 28.421875 72.90625 
L 38.28125 72.90625 
L 38.28125 8.296875 
L 54.390625 8.296875 
L 54.390625 0 
L 12.40625 0 
z
" id="BitstreamVeraSans-Roman-31"/>
       <path d="M 4.890625 31.390625 
L 31.203125 31.390625 
L 31.203125 23.390625 
L 4.890625 23.390625 
z
" id="BitstreamVeraSans-Roman-2d"/>
       <path d="M 40.578125 39.3125 
Q 47.65625 37.796875 51.625 33 
Q 55.609375 28.21875 55.609375 21.1875 
Q 55.609375 10.40625 48.1875 4.484375 
Q 40.765625 -1.421875 27.09375 -1.421875 
Q 22.515625 -1.421875 17.65625 -0.515625 
Q 12.796875 0.390625 7.625 2.203125 
L 7.625 11.71875 
Q 11.71875 9.328125 16.59375 8.109375 
Q 21.484375 6.890625 26.8125 6.890625 
Q 36.078125 6.890625 40.9375 10.546875 
Q 45.796875 14.203125 45.796875 21.1875 
Q 45.796875 27.640625 41.28125 31.265625 
Q 36.765625 34.90625 28.71875 34.90625 
L 20.21875 34.90625 
L 20.21875 43.015625 
L 29.109375 43.015625 
Q 36.375 43.015625 40.234375 45.921875 
Q 44.09375 48.828125 44.09375 54.296875 
Q 44.09375 59.90625 40.109375 62.90625 
Q 36.140625 65.921875 28.71875 65.921875 
Q 24.65625 65.921875 20.015625 65.03125 
Q 15.375 64.15625 9.8125 62.3125 
L 9.8125 71.09375 
Q 15.4375 72.65625 20.34375 73.4375 
Q 25.25 74.21875 29.59375 74.21875 
Q 40.828125 74.21875 47.359375 69.109375 
Q 53.90625 64.015625 53.90625 55.328125 
Q 53.90625 49.265625 50.4375 45.09375 
Q 46.96875 40.921875 40.578125 39.3125 
" id="BitstreamVeraSans-Roman-33"/>
      </defs>
      <g transform="translate(102.54 590.464375)scale(0.12 -0.12)">
       <use transform="translate(0.0 0.796875)" xlink:href="#BitstreamVeraSans-Roman-31"/>
       <use transform="translate(63.623046875 0.796875)" xlink:href="#BitstreamVeraSans-Roman-30"/>
       <use transform="translate(132.75859375 48.046875)scale(0.7)" xlink:href="#BitstreamVeraSans-Roman-2d"/>
       <use transform="translate(158.0173828125 48.046875)scale(0.7)" xlink:href="#BitstreamVeraSans-Roman-33"/>
      </g>
     </g>
    </g>
    <g id="xtick_2">
     <g id="line2d_13">
      <g>
       <use style="stroke:#000000;stroke-width:0.5;" x="353.28" xlink:href="#mfddbbc6700" y="576.72"/>
      </g>
     </g>
     <g id="line2d_14">
      <g>
       <use style="stroke:#000000;stroke-width:0.5;" x="353.28" xlink:href="#me7ccc0809c" y="64.08"/>
      </g>
     </g>
     <g id="text_2">
      <!-- $\mathdefault{10^{-2}}$ -->
      <defs>
       <path d="M 19.1875 8.296875 
L 53.609375 8.296875 
L 53.609375 0 
L 7.328125 0 
L 7.328125 8.296875 
Q 12.9375 14.109375 22.625 23.890625 
Q 32.328125 33.6875 34.8125 36.53125 
Q 39.546875 41.84375 41.421875 45.53125 
Q 43.3125 49.21875 43.3125 52.78125 
Q 43.3125 58.59375 39.234375 62.25 
Q 35.15625 65.921875 28.609375 65.921875 
Q 23.96875 65.921875 18.8125 64.3125 
Q 13.671875 62.703125 7.8125 59.421875 
L 7.8125 69.390625 
Q 13.765625 71.78125 18.9375 73 
Q 24.125 74.21875 28.421875 74.21875 
Q 39.75 74.21875 46.484375 68.546875 
Q 53.21875 62.890625 53.21875 53.421875 
Q 53.21875 48.921875 51.53125 44.890625 
Q 49.859375 40.875 45.40625 35.40625 
Q 44.1875 33.984375 37.640625 27.21875 
Q 31.109375 20.453125 19.1875 8.296875 
" id="BitstreamVeraSans-Roman-32"/>
      </defs>
      <g transform="translate(340.62 590.464375)scale(0.12 -0.12)">
       <use transform="translate(0.0 0.796875)" xlink:href="#BitstreamVeraSans-Roman-31"/>
       <use transform="translate(63.623046875 0.796875)" xlink:href="#BitstreamVeraSans-Roman-30"/>
       <use transform="translate(132.75859375 48.046875)scale(0.7)" xlink:href="#BitstreamVeraSans-Roman-2d"/>
       <use transform="translate(158.0173828125 48.046875)scale(0.7)" xlink:href="#BitstreamVeraSans-Roman-32"/>
      </g>
     </g>
    </g>
    <g id="xtick_3">
     <g id="line2d_15">
      <g>
       <use style="stroke:#000000;stroke-width:0.5;" x="591.36" xlink:href="#mfddbbc6700" y="576.72"/>
      </g>
     </g>
     <g id="line2d_16">
      <g>
       <use style="stroke:#000000;stroke-width:0.5;" x="591.36" xlink:href="#me7ccc0809c" y="64.08"/>
      </g>
     </g>
     <g id="text_3">
      <!-- $\mathdefault{10^{-1}}$ -->
      <g transform="translate(578.7 590.344375)scale(0.12 -0.12)">
       <use transform="translate(0.0 0.7156250000000028)" xlink:href="#BitstreamVeraSans-Roman-31"/>
       <use transform="translate(63.623046875 0.7156250000000028)" xlink:href="#BitstreamVeraSans-Roman-30"/>
       <use transform="translate(132.75859375 47.965625)scale(0.7)" xlink:href="#BitstreamVeraSans-Roman-2d"/>
       <use transform="translate(158.0173828125 47.965625)scale(0.7)" xlink:href="#BitstreamVeraSans-Roman-31"/>
      </g>
     </g>
    </g>
    <g id="xtick_4">
     <g id="line2d_17">
      <g>
       <use style="stroke:#000000;stroke-width:0.5;" x="829.44" xlink:href="#mfddbbc6700" y="576.72"/>
      </g>
     </g>
     <g id="line2d_18">
      <g>
       <use style="stroke:#000000;stroke-width:0.5;" x="829.44" xlink:href="#me7ccc0809c" y="64.08"/>
      </g>
     </g>
     <g id="text_4">
      <!-- $\mathdefault{10^{0}}$ -->
      <g transform="translate(818.28 590.464375)scale(0.12 -0.12)">
       <use transform="translate(0.0 0.796875)" xlink:href="#BitstreamVeraSans-Roman-31"/>
       <use transform="translate(63.623046875 0.796875)" xlink:href="#BitstreamVeraSans-Roman-30"/>
       <use transform="translate(132.75859375 48.046875)scale(0.7)" xlink:href="#BitstreamVeraSans-Roman-30"/>
      </g>
     </g>
    </g>
    <g id="xtick_5">
     <g id="line2d_19">
      <defs>
       <path d="M 0 0 
L 0 -2 
" id="m0c81bd1bb3" style="stroke:#000000;stroke-width:0.5;"/>
      </defs>
      <g>
       <use style="stroke:#000000;stroke-width:0.5;" x="186.869221368" xlink:href="#m0c81bd1bb3" y="576.72"/>
      </g>
     </g>
     <g id="line2d_20">
      <defs>
       <path d="M 0 0 
L 0 2 
" id="m5d7f31019f" style="stroke:#000000;stroke-width:0.5;"/>
      </defs>
      <g>
       <use style="stroke:#000000;stroke-width:0.5;" x="186.869221368" xlink:href="#m5d7f31019f" y="64.08"/>
      </g>
     </g>
    </g>
    <g id="xtick_6">
     <g id="line2d_21">
      <g>
       <use style="stroke:#000000;stroke-width:0.5;" x="228.793028324" xlink:href="#m0c81bd1bb3" y="576.72"/>
      </g>
     </g>
     <g id="line2d_22">
      <g>
       <use style="stroke:#000000;stroke-width:0.5;" x="228.793028324" xlink:href="#m5d7f31019f" y="64.08"/>
      </g>
     </g>
    </g>
    <g id="xtick_7">
     <g id="line2d_23">
      <g>
       <use style="stroke:#000000;stroke-width:0.5;" x="258.538442735" xlink:href="#m0c81bd1bb3" y="576.72"/>
      </g>
     </g>
     <g id="line2d_24">
      <g>
       <use style="stroke:#000000;stroke-width:0.5;" x="258.538442735" xlink:href="#m5d7f31019f" y="64.08"/>
      </g>
     </g>
    </g>
    <g id="xtick_8">
     <g id="line2d_25">
      <g>
       <use style="stroke:#000000;stroke-width:0.5;" x="281.610778632" xlink:href="#m0c81bd1bb3" y="576.72"/>
      </g>
     </g>
     <g id="line2d_26">
      <g>
       <use style="stroke:#000000;stroke-width:0.5;" x="281.610778632" xlink:href="#m5d7f31019f" y="64.08"/>
      </g>
     </g>
    </g>
    <g id="xtick_9">
     <g id="line2d_27">
      <g>
       <use style="stroke:#000000;stroke-width:0.5;" x="300.462249691" xlink:href="#m0c81bd1bb3" y="576.72"/>
      </g>
     </g>
     <g id="line2d_28">
      <g>
       <use style="stroke:#000000;stroke-width:0.5;" x="300.462249691" xlink:href="#m5d7f31019f" y="64.08"/>
      </g>
     </g>
    </g>
    <g id="xtick_10">
     <g id="line2d_29">
      <g>
       <use style="stroke:#000000;stroke-width:0.5;" x="316.400941367" xlink:href="#m0c81bd1bb3" y="576.72"/>
      </g>
     </g>
     <g id="line2d_30">
      <g>
       <use style="stroke:#000000;stroke-width:0.5;" x="316.400941367" xlink:href="#m5d7f31019f" y="64.08"/>
      </g>
     </g>
    </g>
    <g id="xtick_11">
     <g id="line2d_31">
      <g>
       <use style="stroke:#000000;stroke-width:0.5;" x="330.207664103" xlink:href="#m0c81bd1bb3" y="576.72"/>
      </g>
     </g>
     <g id="line2d_32">
      <g>
       <use style="stroke:#000000;stroke-width:0.5;" x="330.207664103" xlink:href="#m5d7f31019f" y="64.08"/>
      </g>
     </g>
    </g>
    <g id="xtick_12">
     <g id="line2d_33">
      <g>
       <use style="stroke:#000000;stroke-width:0.5;" x="342.386056647" xlink:href="#m0c81bd1bb3" y="576.72"/>
      </g>
     </g>
     <g id="line2d_34">
      <g>
       <use style="stroke:#000000;stroke-width:0.5;" x="342.386056647" xlink:href="#m5d7f31019f" y="64.08"/>
      </g>
     </g>
    </g>
    <g id="xtick_13">
     <g id="line2d_35">
      <g>
       <use style="stroke:#000000;stroke-width:0.5;" x="424.949221368" xlink:href="#m0c81bd1bb3" y="576.72"/>
      </g>
     </g>
     <g id="line2d_36">
      <g>
       <use style="stroke:#000000;stroke-width:0.5;" x="424.949221368" xlink:href="#m5d7f31019f" y="64.08"/>
      </g>
     </g>
    </g>
    <g id="xtick_14">
     <g id="line2d_37">
      <g>
       <use style="stroke:#000000;stroke-width:0.5;" x="466.873028324" xlink:href="#m0c81bd1bb3" y="576.72"/>
      </g>
     </g>
     <g id="line2d_38">
      <g>
       <use style="stroke:#000000;stroke-width:0.5;" x="466.873028324" xlink:href="#m5d7f31019f" y="64.08"/>
      </g>
     </g>
    </g>
    <g id="xtick_15">
     <g id="line2d_39">
      <g>
       <use style="stroke:#000000;stroke-width:0.5;" x="496.618442735" xlink:href="#m0c81bd1bb3" y="576.72"/>
      </g>
     </g>
     <g id="line2d_40">
      <g>
       <use style="stroke:#000000;stroke-width:0.5;" x="496.618442735" xlink:href="#m5d7f31019f" y="64.08"/>
      </g>
     </g>
    </g>
    <g id="xtick_16">
     <g id="line2d_41">
      <g>
       <use style="stroke:#000000;stroke-width:0.5;" x="519.690778632" xlink:href="#m0c81bd1bb3" y="576.72"/>
      </g>
     </g>
     <g id="line2d_42">
      <g>
       <use style="stroke:#000000;stroke-width:0.5;" x="519.690778632" xlink:href="#m5d7f31019f" y="64.08"/>
      </g>
     </g>
    </g>
    <g id="xtick_17">
     <g id="line2d_43">
      <g>
       <use style="stroke:#000000;stroke-width:0.5;" x="538.542249691" xlink:href="#m0c81bd1bb3" y="576.72"/>
      </g>
     </g>
     <g id="line2d_44">
      <g>
       <use style="stroke:#000000;stroke-width:0.5;" x="538.542249691" xlink:href="#m5d7f31019f" y="64.08"/>
      </g>
     </g>
    </g>
    <g id="xtick_18">
     <g id="line2d_45">
      <g>
       <use style="stroke:#000000;stroke-width:0.5;" x="554.480941367" xlink:href="#m0c81bd1bb3" y="576.72"/>
      </g>
     </g>
     <g id="line2d_46">
      <g>
       <use style="stroke:#000000;stroke-width:0.5;" x="554.480941367" xlink:href="#m5d7f31019f" y="64.08"/>
      </g>
     </g>
    </g>
    <g id="xtick_19">
     <g id="line2d_47">
      <g>
       <use style="stroke:#000000;stroke-width:0.5;" x="568.287664103" xlink:href="#m0c81bd1bb3" y="576.72"/>
      </g>
     </g>
     <g id="line2d_48">
      <g>
       <use style="stroke:#000000;stroke-width:0.5;" x="568.287664103" xlink:href="#m5d7f31019f" y="64.08"/>
      </g>
     </g>
    </g>
    <g id="xtick_20">
     <g id="line2d_49">
      <g>
       <use style="stroke:#000000;stroke-width:0.5;" x="580.466056647" xlink:href="#m0c81bd1bb3" y="576.72"/>
      </g>
     </g>
     <g id="line2d_50">
      <g>
       <use style="stroke:#000000;stroke-width:0.5;" x="580.466056647" xlink:href="#m5d7f31019f" y="64.08"/>
      </g>
     </g>
    </g>
    <g id="xtick_21">
     <g id="line2d_51">
      <g>
       <use style="stroke:#000000;stroke-width:0.5;" x="663.029221368" xlink:href="#m0c81bd1bb3" y="576.72"/>
      </g>
     </g>
     <g id="line2d_52">
      <g>
       <use style="stroke:#000000;stroke-width:0.5;" x="663.029221368" xlink:href="#m5d7f31019f" y="64.08"/>
      </g>
     </g>
    </g>
    <g id="xtick_22">
     <g id="line2d_53">
      <g>
       <use style="stroke:#000000;stroke-width:0.5;" x="704.953028324" xlink:href="#m0c81bd1bb3" y="576.72"/>
      </g>
     </g>
     <g id="line2d_54">
      <g>
       <use style="stroke:#000000;stroke-width:0.5;" x="704.953028324" xlink:href="#m5d7f31019f" y="64.08"/>
      </g>
     </g>
    </g>
    <g id="xtick_23">
     <g id="line2d_55">
      <g>
       <use style="stroke:#000000;stroke-width:0.5;" x="734.698442735" xlink:href="#m0c81bd1bb3" y="576.72"/>
      </g>
     </g>
     <g id="line2d_56">
      <g>
       <use style="stroke:#000000;stroke-width:0.5;" x="734.698442735" xlink:href="#m5d7f31019f" y="64.08"/>
      </g>
     </g>
    </g>
    <g id="xtick_24">
     <g id="line2d_57">
      <g>
       <use style="stroke:#000000;stroke-width:0.5;" x="757.770778632" xlink:href="#m0c81bd1bb3" y="576.72"/>
      </g>
     </g>
     <g id="line2d_58">
      <g>
       <use style="stroke:#000000;stroke-width:0.5;" x="757.770778632" xlink:href="#m5d7f31019f" y="64.08"/>
      </g>
     </g>
    </g>
    <g id="xtick_25">
     <g id="line2d_59">
      <g>
       <use style="stroke:#000000;stroke-width:0.5;" x="776.622249691" xlink:href="#m0c81bd1bb3" y="576.72"/>
      </g>
     </g>
     <g id="line2d_60">
      <g>
       <use style="stroke:#000000;stroke-width:0.5;" x="776.622249691" xlink:href="#m5d7f31019f" y="64.08"/>
      </g>
     </g>
    </g>
    <g id="xtick_26">
     <g id="line2d_61">
      <g>
       <use style="stroke:#000000;stroke-width:0.5;" x="792.560941367" xlink:href="#m0c81bd1bb3" y="576.72"/>
      </g>
     </g>
     <g id="line2d_62">
      <g>
       <use style="stroke:#000000;stroke-width:0.5;" x="792.560941367" xlink:href="#m5d7f31019f" y="64.08"/>
      </g>
     </g>
    </g>
    <g id="xtick_27">
     <g id="line2d_63">
      <g>
       <use style="stroke:#000000;stroke-width:0.5;" x="806.367664103" xlink:href="#m0c81bd1bb3" y="576.72"/>
      </g>
     </g>
     <g id="line2d_64">
      <g>
       <use style="stroke:#000000;stroke-width:0.5;" x="806.367664103" xlink:href="#m5d7f31019f" y="64.08"/>
      </g>
     </g>
    </g>
    <g id="xtick_28">
     <g id="line2d_65">
      <g>
       <use style="stroke:#000000;stroke-width:0.5;" x="818.546056647" xlink:href="#m0c81bd1bb3" y="576.72"/>
      </g>
     </g>
     <g id="line2d_66">
      <g>
       <use style="stroke:#000000;stroke-width:0.5;" x="818.546056647" xlink:href="#m5d7f31019f" y="64.08"/>
      </g>
     </g>
    </g>
   </g>
   <g id="matplotlib.axis_2">
    <g id="ytick_1">
     <g id="line2d_67">
      <defs>
       <path d="M 0 0 
L 4 0 
" id="m633b125205" style="stroke:#000000;stroke-width:0.5;"/>
      </defs>
      <g>
       <use style="stroke:#000000;stroke-width:0.5;" x="115.2" xlink:href="#m633b125205" y="576.72"/>
      </g>
     </g>
     <g id="line2d_68">
      <defs>
       <path d="M 0 0 
L -4 0 
" id="ma8bff71736" style="stroke:#000000;stroke-width:0.5;"/>
      </defs>
      <g>
       <use style="stroke:#000000;stroke-width:0.5;" x="829.44" xlink:href="#ma8bff71736" y="576.72"/>
      </g>
     </g>
     <g id="text_5">
      <!-- $\mathdefault{10^{-4}}$ -->
      <defs>
       <path d="M 37.796875 64.3125 
L 12.890625 25.390625 
L 37.796875 25.390625 
z
M 35.203125 72.90625 
L 47.609375 72.90625 
L 47.609375 25.390625 
L 58.015625 25.390625 
L 58.015625 17.1875 
L 47.609375 17.1875 
L 47.609375 0 
L 37.796875 0 
L 37.796875 17.1875 
L 4.890625 17.1875 
L 4.890625 26.703125 
z
" id="BitstreamVeraSans-Roman-34"/>
      </defs>
      <g transform="translate(85.88 580.284375)scale(0.12 -0.12)">
       <use transform="translate(0.0 0.7156250000000028)" xlink:href="#BitstreamVeraSans-Roman-31"/>
       <use transform="translate(63.623046875 0.7156250000000028)" xlink:href="#BitstreamVeraSans-Roman-30"/>
       <use transform="translate(132.75859375 47.965625)scale(0.7)" xlink:href="#BitstreamVeraSans-Roman-2d"/>
       <use transform="translate(158.0173828125 47.965625)scale(0.7)" xlink:href="#BitstreamVeraSans-Roman-34"/>
      </g>
     </g>
    </g>
    <g id="ytick_2">
     <g id="line2d_69">
      <g>
       <use style="stroke:#000000;stroke-width:0.5;" x="115.2" xlink:href="#m633b125205" y="448.56"/>
      </g>
     </g>
     <g id="line2d_70">
      <g>
       <use style="stroke:#000000;stroke-width:0.5;" x="829.44" xlink:href="#ma8bff71736" y="448.56"/>
      </g>
     </g>
     <g id="text_6">
      <!-- $\mathdefault{10^{-3}}$ -->
      <g transform="translate(85.88 452.184375)scale(0.12 -0.12)">
       <use transform="translate(0.0 0.796875)" xlink:href="#BitstreamVeraSans-Roman-31"/>
       <use transform="translate(63.623046875 0.796875)" xlink:href="#BitstreamVeraSans-Roman-30"/>
       <use transform="translate(132.75859375 48.046875)scale(0.7)" xlink:href="#BitstreamVeraSans-Roman-2d"/>
       <use transform="translate(158.0173828125 48.046875)scale(0.7)" xlink:href="#BitstreamVeraSans-Roman-33"/>
      </g>
     </g>
    </g>
    <g id="ytick_3">
     <g id="line2d_71">
      <g>
       <use style="stroke:#000000;stroke-width:0.5;" x="115.2" xlink:href="#m633b125205" y="320.4"/>
      </g>
     </g>
     <g id="line2d_72">
      <g>
       <use style="stroke:#000000;stroke-width:0.5;" x="829.44" xlink:href="#ma8bff71736" y="320.4"/>
      </g>
     </g>
     <g id="text_7">
      <!-- $\mathdefault{10^{-2}}$ -->
      <g transform="translate(85.88 324.024375)scale(0.12 -0.12)">
       <use transform="translate(0.0 0.796875)" xlink:href="#BitstreamVeraSans-Roman-31"/>
       <use transform="translate(63.623046875 0.796875)" xlink:href="#BitstreamVeraSans-Roman-30"/>
       <use transform="translate(132.75859375 48.046875)scale(0.7)" xlink:href="#BitstreamVeraSans-Roman-2d"/>
       <use transform="translate(158.0173828125 48.046875)scale(0.7)" xlink:href="#BitstreamVeraSans-Roman-32"/>
      </g>
     </g>
    </g>
    <g id="ytick_4">
     <g id="line2d_73">
      <g>
       <use style="stroke:#000000;stroke-width:0.5;" x="115.2" xlink:href="#m633b125205" y="192.24"/>
      </g>
     </g>
     <g id="line2d_74">
      <g>
       <use style="stroke:#000000;stroke-width:0.5;" x="829.44" xlink:href="#ma8bff71736" y="192.24"/>
      </g>
     </g>
     <g id="text_8">
      <!-- $\mathdefault{10^{-1}}$ -->
      <g transform="translate(85.88 195.804375)scale(0.12 -0.12)">
       <use transform="translate(0.0 0.7156250000000028)" xlink:href="#BitstreamVeraSans-Roman-31"/>
       <use transform="translate(63.623046875 0.7156250000000028)" xlink:href="#BitstreamVeraSans-Roman-30"/>
       <use transform="translate(132.75859375 47.965625)scale(0.7)" xlink:href="#BitstreamVeraSans-Roman-2d"/>
       <use transform="translate(158.0173828125 47.965625)scale(0.7)" xlink:href="#BitstreamVeraSans-Roman-31"/>
      </g>
     </g>
    </g>
    <g id="ytick_5">
     <g id="line2d_75">
      <g>
       <use style="stroke:#000000;stroke-width:0.5;" x="115.2" xlink:href="#m633b125205" y="64.08"/>
      </g>
     </g>
     <g id="line2d_76">
      <g>
       <use style="stroke:#000000;stroke-width:0.5;" x="829.44" xlink:href="#ma8bff71736" y="64.08"/>
      </g>
     </g>
     <g id="text_9">
      <!-- $\mathdefault{10^{0}}$ -->
      <g transform="translate(88.88 67.704375)scale(0.12 -0.12)">
       <use transform="translate(0.0 0.796875)" xlink:href="#BitstreamVeraSans-Roman-31"/>
       <use transform="translate(63.623046875 0.796875)" xlink:href="#BitstreamVeraSans-Roman-30"/>
       <use transform="translate(132.75859375 48.046875)scale(0.7)" xlink:href="#BitstreamVeraSans-Roman-30"/>
      </g>
     </g>
    </g>
    <g id="ytick_6">
     <g id="line2d_77">
      <defs>
       <path d="M 0 0 
L 2 0 
" id="md296af31e2" style="stroke:#000000;stroke-width:0.5;"/>
      </defs>
      <g>
       <use style="stroke:#000000;stroke-width:0.5;" x="115.2" xlink:href="#md296af31e2" y="538.139995756"/>
      </g>
     </g>
     <g id="line2d_78">
      <defs>
       <path d="M 0 0 
L -2 0 
" id="m42a67a8dcc" style="stroke:#000000;stroke-width:0.5;"/>
      </defs>
      <g>
       <use style="stroke:#000000;stroke-width:0.5;" x="829.44" xlink:href="#m42a67a8dcc" y="538.139995756"/>
      </g>
     </g>
    </g>
    <g id="ytick_7">
     <g id="line2d_79">
      <g>
       <use style="stroke:#000000;stroke-width:0.5;" x="115.2" xlink:href="#md296af31e2" y="515.572139995"/>
      </g>
     </g>
     <g id="line2d_80">
      <g>
       <use style="stroke:#000000;stroke-width:0.5;" x="829.44" xlink:href="#m42a67a8dcc" y="515.572139995"/>
      </g>
     </g>
    </g>
    <g id="ytick_8">
     <g id="line2d_81">
      <g>
       <use style="stroke:#000000;stroke-width:0.5;" x="115.2" xlink:href="#md296af31e2" y="499.559991511"/>
      </g>
     </g>
     <g id="line2d_82">
      <g>
       <use style="stroke:#000000;stroke-width:0.5;" x="829.44" xlink:href="#m42a67a8dcc" y="499.559991511"/>
      </g>
     </g>
    </g>
    <g id="ytick_9">
     <g id="line2d_83">
      <g>
       <use style="stroke:#000000;stroke-width:0.5;" x="115.2" xlink:href="#md296af31e2" y="487.140004244"/>
      </g>
     </g>
     <g id="line2d_84">
      <g>
       <use style="stroke:#000000;stroke-width:0.5;" x="829.44" xlink:href="#m42a67a8dcc" y="487.140004244"/>
      </g>
     </g>
    </g>
    <g id="ytick_10">
     <g id="line2d_85">
      <g>
       <use style="stroke:#000000;stroke-width:0.5;" x="115.2" xlink:href="#md296af31e2" y="476.992135751"/>
      </g>
     </g>
     <g id="line2d_86">
      <g>
       <use style="stroke:#000000;stroke-width:0.5;" x="829.44" xlink:href="#m42a67a8dcc" y="476.992135751"/>
      </g>
     </g>
    </g>
    <g id="ytick_11">
     <g id="line2d_87">
      <g>
       <use style="stroke:#000000;stroke-width:0.5;" x="115.2" xlink:href="#md296af31e2" y="468.412235192"/>
      </g>
     </g>
     <g id="line2d_88">
      <g>
       <use style="stroke:#000000;stroke-width:0.5;" x="829.44" xlink:href="#m42a67a8dcc" y="468.412235192"/>
      </g>
     </g>
    </g>
    <g id="ytick_12">
     <g id="line2d_89">
      <g>
       <use style="stroke:#000000;stroke-width:0.5;" x="115.2" xlink:href="#md296af31e2" y="460.979987267"/>
      </g>
     </g>
     <g id="line2d_90">
      <g>
       <use style="stroke:#000000;stroke-width:0.5;" x="829.44" xlink:href="#m42a67a8dcc" y="460.979987267"/>
      </g>
     </g>
    </g>
    <g id="ytick_13">
     <g id="line2d_91">
      <g>
       <use style="stroke:#000000;stroke-width:0.5;" x="115.2" xlink:href="#md296af31e2" y="454.42427999"/>
      </g>
     </g>
     <g id="line2d_92">
      <g>
       <use style="stroke:#000000;stroke-width:0.5;" x="829.44" xlink:href="#m42a67a8dcc" y="454.42427999"/>
      </g>
     </g>
    </g>
    <g id="ytick_14">
     <g id="line2d_93">
      <g>
       <use style="stroke:#000000;stroke-width:0.5;" x="115.2" xlink:href="#md296af31e2" y="409.979995756"/>
      </g>
     </g>
     <g id="line2d_94">
      <g>
       <use style="stroke:#000000;stroke-width:0.5;" x="829.44" xlink:href="#m42a67a8dcc" y="409.979995756"/>
      </g>
     </g>
    </g>
    <g id="ytick_15">
     <g id="line2d_95">
      <g>
       <use style="stroke:#000000;stroke-width:0.5;" x="115.2" xlink:href="#md296af31e2" y="387.412139995"/>
      </g>
     </g>
     <g id="line2d_96">
      <g>
       <use style="stroke:#000000;stroke-width:0.5;" x="829.44" xlink:href="#m42a67a8dcc" y="387.412139995"/>
      </g>
     </g>
    </g>
    <g id="ytick_16">
     <g id="line2d_97">
      <g>
       <use style="stroke:#000000;stroke-width:0.5;" x="115.2" xlink:href="#md296af31e2" y="371.399991511"/>
      </g>
     </g>
     <g id="line2d_98">
      <g>
       <use style="stroke:#000000;stroke-width:0.5;" x="829.44" xlink:href="#m42a67a8dcc" y="371.399991511"/>
      </g>
     </g>
    </g>
    <g id="ytick_17">
     <g id="line2d_99">
      <g>
       <use style="stroke:#000000;stroke-width:0.5;" x="115.2" xlink:href="#md296af31e2" y="358.980004244"/>
      </g>
     </g>
     <g id="line2d_100">
      <g>
       <use style="stroke:#000000;stroke-width:0.5;" x="829.44" xlink:href="#m42a67a8dcc" y="358.980004244"/>
      </g>
     </g>
    </g>
    <g id="ytick_18">
     <g id="line2d_101">
      <g>
       <use style="stroke:#000000;stroke-width:0.5;" x="115.2" xlink:href="#md296af31e2" y="348.832135751"/>
      </g>
     </g>
     <g id="line2d_102">
      <g>
       <use style="stroke:#000000;stroke-width:0.5;" x="829.44" xlink:href="#m42a67a8dcc" y="348.832135751"/>
      </g>
     </g>
    </g>
    <g id="ytick_19">
     <g id="line2d_103">
      <g>
       <use style="stroke:#000000;stroke-width:0.5;" x="115.2" xlink:href="#md296af31e2" y="340.252235192"/>
      </g>
     </g>
     <g id="line2d_104">
      <g>
       <use style="stroke:#000000;stroke-width:0.5;" x="829.44" xlink:href="#m42a67a8dcc" y="340.252235192"/>
      </g>
     </g>
    </g>
    <g id="ytick_20">
     <g id="line2d_105">
      <g>
       <use style="stroke:#000000;stroke-width:0.5;" x="115.2" xlink:href="#md296af31e2" y="332.819987267"/>
      </g>
     </g>
     <g id="line2d_106">
      <g>
       <use style="stroke:#000000;stroke-width:0.5;" x="829.44" xlink:href="#m42a67a8dcc" y="332.819987267"/>
      </g>
     </g>
    </g>
    <g id="ytick_21">
     <g id="line2d_107">
      <g>
       <use style="stroke:#000000;stroke-width:0.5;" x="115.2" xlink:href="#md296af31e2" y="326.26427999"/>
      </g>
     </g>
     <g id="line2d_108">
      <g>
       <use style="stroke:#000000;stroke-width:0.5;" x="829.44" xlink:href="#m42a67a8dcc" y="326.26427999"/>
      </g>
     </g>
    </g>
    <g id="ytick_22">
     <g id="line2d_109">
      <g>
       <use style="stroke:#000000;stroke-width:0.5;" x="115.2" xlink:href="#md296af31e2" y="281.819995756"/>
      </g>
     </g>
     <g id="line2d_110">
      <g>
       <use style="stroke:#000000;stroke-width:0.5;" x="829.44" xlink:href="#m42a67a8dcc" y="281.819995756"/>
      </g>
     </g>
    </g>
    <g id="ytick_23">
     <g id="line2d_111">
      <g>
       <use style="stroke:#000000;stroke-width:0.5;" x="115.2" xlink:href="#md296af31e2" y="259.252139995"/>
      </g>
     </g>
     <g id="line2d_112">
      <g>
       <use style="stroke:#000000;stroke-width:0.5;" x="829.44" xlink:href="#m42a67a8dcc" y="259.252139995"/>
      </g>
     </g>
    </g>
    <g id="ytick_24">
     <g id="line2d_113">
      <g>
       <use style="stroke:#000000;stroke-width:0.5;" x="115.2" xlink:href="#md296af31e2" y="243.239991511"/>
      </g>
     </g>
     <g id="line2d_114">
      <g>
       <use style="stroke:#000000;stroke-width:0.5;" x="829.44" xlink:href="#m42a67a8dcc" y="243.239991511"/>
      </g>
     </g>
    </g>
    <g id="ytick_25">
     <g id="line2d_115">
      <g>
       <use style="stroke:#000000;stroke-width:0.5;" x="115.2" xlink:href="#md296af31e2" y="230.820004244"/>
      </g>
     </g>
     <g id="line2d_116">
      <g>
       <use style="stroke:#000000;stroke-width:0.5;" x="829.44" xlink:href="#m42a67a8dcc" y="230.820004244"/>
      </g>
     </g>
    </g>
    <g id="ytick_26">
     <g id="line2d_117">
      <g>
       <use style="stroke:#000000;stroke-width:0.5;" x="115.2" xlink:href="#md296af31e2" y="220.672135751"/>
      </g>
     </g>
     <g id="line2d_118">
      <g>
       <use style="stroke:#000000;stroke-width:0.5;" x="829.44" xlink:href="#m42a67a8dcc" y="220.672135751"/>
      </g>
     </g>
    </g>
    <g id="ytick_27">
     <g id="line2d_119">
      <g>
       <use style="stroke:#000000;stroke-width:0.5;" x="115.2" xlink:href="#md296af31e2" y="212.092235192"/>
      </g>
     </g>
     <g id="line2d_120">
      <g>
       <use style="stroke:#000000;stroke-width:0.5;" x="829.44" xlink:href="#m42a67a8dcc" y="212.092235192"/>
      </g>
     </g>
    </g>
    <g id="ytick_28">
     <g id="line2d_121">
      <g>
       <use style="stroke:#000000;stroke-width:0.5;" x="115.2" xlink:href="#md296af31e2" y="204.659987267"/>
      </g>
     </g>
     <g id="line2d_122">
      <g>
       <use style="stroke:#000000;stroke-width:0.5;" x="829.44" xlink:href="#m42a67a8dcc" y="204.659987267"/>
      </g>
     </g>
    </g>
    <g id="ytick_29">
     <g id="line2d_123">
      <g>
       <use style="stroke:#000000;stroke-width:0.5;" x="115.2" xlink:href="#md296af31e2" y="198.10427999"/>
      </g>
     </g>
     <g id="line2d_124">
      <g>
       <use style="stroke:#000000;stroke-width:0.5;" x="829.44" xlink:href="#m42a67a8dcc" y="198.10427999"/>
      </g>
     </g>
    </g>
    <g id="ytick_30">
     <g id="line2d_125">
      <g>
       <use style="stroke:#000000;stroke-width:0.5;" x="115.2" xlink:href="#md296af31e2" y="153.659995756"/>
      </g>
     </g>
     <g id="line2d_126">
      <g>
       <use style="stroke:#000000;stroke-width:0.5;" x="829.44" xlink:href="#m42a67a8dcc" y="153.659995756"/>
      </g>
     </g>
    </g>
    <g id="ytick_31">
     <g id="line2d_127">
      <g>
       <use style="stroke:#000000;stroke-width:0.5;" x="115.2" xlink:href="#md296af31e2" y="131.092139995"/>
      </g>
     </g>
     <g id="line2d_128">
      <g>
       <use style="stroke:#000000;stroke-width:0.5;" x="829.44" xlink:href="#m42a67a8dcc" y="131.092139995"/>
      </g>
     </g>
    </g>
    <g id="ytick_32">
     <g id="line2d_129">
      <g>
       <use style="stroke:#000000;stroke-width:0.5;" x="115.2" xlink:href="#md296af31e2" y="115.079991511"/>
      </g>
     </g>
     <g id="line2d_130">
      <g>
       <use style="stroke:#000000;stroke-width:0.5;" x="829.44" xlink:href="#m42a67a8dcc" y="115.079991511"/>
      </g>
     </g>
    </g>
    <g id="ytick_33">
     <g id="line2d_131">
      <g>
       <use style="stroke:#000000;stroke-width:0.5;" x="115.2" xlink:href="#md296af31e2" y="102.660004244"/>
      </g>
     </g>
     <g id="line2d_132">
      <g>
       <use style="stroke:#000000;stroke-width:0.5;" x="829.44" xlink:href="#m42a67a8dcc" y="102.660004244"/>
      </g>
     </g>
    </g>
    <g id="ytick_34">
     <g id="line2d_133">
      <g>
       <use style="stroke:#000000;stroke-width:0.5;" x="115.2" xlink:href="#md296af31e2" y="92.5121357508"/>
      </g>
     </g>
     <g id="line2d_134">
      <g>
       <use style="stroke:#000000;stroke-width:0.5;" x="829.44" xlink:href="#m42a67a8dcc" y="92.5121357508"/>
      </g>
     </g>
    </g>
    <g id="ytick_35">
     <g id="line2d_135">
      <g>
       <use style="stroke:#000000;stroke-width:0.5;" x="115.2" xlink:href="#md296af31e2" y="83.9322351918"/>
      </g>
     </g>
     <g id="line2d_136">
      <g>
       <use style="stroke:#000000;stroke-width:0.5;" x="829.44" xlink:href="#m42a67a8dcc" y="83.9322351918"/>
      </g>
     </g>
    </g>
    <g id="ytick_36">
     <g id="line2d_137">
      <g>
       <use style="stroke:#000000;stroke-width:0.5;" x="115.2" xlink:href="#md296af31e2" y="76.4999872671"/>
      </g>
     </g>
     <g id="line2d_138">
      <g>
       <use style="stroke:#000000;stroke-width:0.5;" x="829.44" xlink:href="#m42a67a8dcc" y="76.4999872671"/>
      </g>
     </g>
    </g>
    <g id="ytick_37">
     <g id="line2d_139">
      <g>
       <use style="stroke:#000000;stroke-width:0.5;" x="115.2" xlink:href="#md296af31e2" y="69.9442799903"/>
      </g>
     </g>
     <g id="line2d_140">
      <g>
       <use style="stroke:#000000;stroke-width:0.5;" x="829.44" xlink:href="#m42a67a8dcc" y="69.9442799903"/>
      </g>
     </g>
    </g>
   </g>
  </g>
 </g>
 <defs>
  <clipPath id="p9f7b0e1f80">
   <rect height="512.64" width="714.24" x="115.2" y="64.08"/>
  </clipPath>
 </defs>
</svg>
