<?xml version="1.0" encoding="utf-8" standalone="no"?>
<!DOCTYPE svg PUBLIC "-//W3C//DTD SVG 1.1//EN"
  "http://www.w3.org/Graphics/SVG/1.1/DTD/svg11.dtd">
<!-- Created with matplotlib (http://matplotlib.org/) -->
<svg height="432pt" version="1.1" viewBox="0 0 576 432" width="576pt" xmlns="http://www.w3.org/2000/svg" xmlns:xlink="http://www.w3.org/1999/xlink">
 <defs>
  <style type="text/css">
*{stroke-linecap:butt;stroke-linejoin:round;stroke-miterlimit:100000;}
  </style>
 </defs>
 <g id="figure_1">
  <g id="patch_1">
   <path d="M 0 432 
L 576 432 
L 576 0 
L 0 0 
z
" style="fill:#ffffff;"/>
  </g>
  <g id="axes_1">
   <g id="patch_2">
    <path d="M 72 388.8 
L 518.4 388.8 
L 518.4 43.2 
L 72 43.2 
z
" style="fill:#ffffff;"/>
   </g>
   <g id="line2d_1">
    <path clip-path="url(#pc87a0f14fa)" d="M 72 54.082567 
L 82.696043 57.43695 
L 91.87059 52.457531 
L 99.903083 59.376003 
L 107.046633 55.041257 
L 113.478536 52.095341 
L 119.327824 55.23484 
L 124.691336 50.73596 
L 129.643606 52.521421 
L 134.243232 55.291866 
L 138.537115 68.940076 
L 142.56338 50.006973 
L 146.353438 51.180158 
L 149.933474 52.73801 
L 153.325548 54.954412 
L 156.548417 59.056481 
L 159.618161 47.161066 
L 165.352039 48.052976 
L 170.618365 49.204327 
L 173.098871 49.922391 
L 175.487673 50.774559 
L 177.791312 51.833442 
L 180.015651 53.149456 
L 182.165968 54.878332 
L 184.247032 57.436264 
L 186.263165 61.912963 
L 188.218296 77.89305 
L 190.116009 63.607705 
L 191.95958 43.2 
L 240.67059 43.2 
L 248.703083 64.431459 
L 255.846633 43.2 
L 262.278536 43.200001 
L 268.127824 57.58959 
L 273.491336 43.200001 
L 287.337115 43.200001 
L 291.36338 88.580637 
L 295.153438 43.200002 
L 298.733474 69.823363 
L 302.125548 43.200002 
L 305.348417 43.200002 
L 308.418161 126.412358 
L 311.348674 43.200003 
L 314.152039 59.849045 
L 316.838834 74.771887 
L 319.418365 43.200003 
L 321.898871 114.183837 
L 324.287673 43.200004 
L 326.591312 43.200004 
L 328.815651 106.207432 
L 330.965968 43.200005 
L 333.047032 86.824493 
L 335.063165 79.212645 
L 337.018296 43.200006 
L 338.916009 121.125637 
L 340.75958 43.2 
L 342.552013 60.495418 
L 344.296068 118.248931 
L 345.994289 43.200007 
L 347.649023 89.731206 
L 349.262442 102.914585 
L 350.836558 43.200009 
L 352.373241 110.105779 
L 353.87423 72.505274 
L 355.341146 61.027553 
L 356.775501 114.460686 
L 358.17871 43.200011 
L 360.896901 129.228121 
L 362.21429 43.200012 
L 369.6 80.869786 
L 380.296043 128.629933 
L 389.47059 127.572536 
L 397.503083 43.200037 
L 404.646633 162.709182 
L 411.078536 122.988277 
L 416.927824 159.261761 
L 422.291336 150.614799 
L 427.243606 119.999519 
L 431.843232 174.207727 
L 436.137115 43.200118 
L 440.16338 200.835012 
L 443.953438 94.233392 
L 447.533474 192.994491 
L 450.925548 125.061898 
L 454.148417 162.217108 
L 457.218161 142.022614 
L 460.148674 132.44094 
L 462.952039 154.839303 
L 465.638834 68.062965 
L 468.218365 163.908106 
L 470.698871 95.063903 
L 473.087673 174.105533 
L 475.391312 130.676569 
L 477.615651 180.280916 
L 479.765968 147.81873 
L 481.847032 181.242049 
L 483.863165 159.131678 
L 485.818296 167.376902 
L 487.716009 167.175264 
L 489.55958 79.228257 
L 491.352013 171.461334 
L 493.096068 179.135584 
L 494.794289 170.86185 
L 496.449023 197.961381 
L 498.062442 164.246772 
L 499.636558 204.74004 
L 501.173241 148.857356 
L 502.67423 202.31201 
L 504.141146 113.127181 
L 505.575501 193.831038 
L 506.97871 92.536555 
L 508.352096 183.742086 
L 509.696901 143.393862 
L 511.01429 170.288753 
L 512.305359 163.974783 
L 513.571139 153.624398 
L 514.812601 177.776342 
L 516.030663 130.154261 
L 517.226189 186.698739 
L 517.226189 186.698739 
" style="fill:none;stroke:#ff1e1e;stroke-linecap:square;"/>
   </g>
   <g id="line2d_2">
    <path clip-path="url(#pc87a0f14fa)" d="M 72 57.026943 
L 82.696043 56.981076 
L 91.87059 56.534136 
L 107.046633 56.190051 
L 113.478536 56.637175 
L 124.691336 56.275646 
L 129.643606 55.945087 
L 134.243232 56.356725 
L 138.537115 56.275513 
L 142.56338 55.738295 
L 146.353438 56.128345 
L 149.933474 55.832233 
L 153.325548 56.010231 
L 156.548417 55.526808 
L 159.618161 55.816171 
L 162.548674 55.777337 
L 165.352039 55.978119 
L 168.038834 55.165403 
L 170.618365 55.265339 
L 173.098871 55.078378 
L 175.487673 55.146095 
L 177.791312 55.466417 
L 182.165968 55.497692 
L 184.247032 54.625051 
L 186.263165 55.459234 
L 188.218296 54.909212 
L 190.116009 55.084435 
L 191.95958 54.749814 
L 193.752013 54.758958 
L 195.496068 54.225052 
L 197.194289 54.542783 
L 198.849023 54.544254 
L 200.462442 53.855491 
L 202.036558 54.542674 
L 203.573241 54.291564 
L 206.541146 53.50264 
L 207.975501 53.418643 
L 209.37871 53.608191 
L 210.752096 53.308883 
L 212.096901 53.182384 
L 213.41429 53.211476 
L 220.8 52.466391 
L 231.496043 53.647418 
L 240.67059 54.546537 
L 248.703083 56.155957 
L 255.846633 59.101601 
L 262.278536 61.138643 
L 268.127824 64.619202 
L 273.491336 68.361305 
L 278.443606 68.554157 
L 283.043232 73.776719 
L 287.337115 73.697485 
L 291.36338 75.463785 
L 295.153438 77.853322 
L 298.733474 81.131101 
L 302.125548 82.229061 
L 305.348417 83.620206 
L 308.418161 84.549727 
L 311.348674 85.583975 
L 314.152039 89.344197 
L 316.838834 89.199341 
L 319.418365 91.47785 
L 321.898871 95.524224 
L 324.287673 95.732141 
L 326.591312 98.256709 
L 328.815651 102.016999 
L 330.965968 98.296605 
L 333.047032 100.173113 
L 335.063165 97.384788 
L 337.018296 101.266482 
L 338.916009 101.13438 
L 340.75958 105.74802 
L 342.552013 102.621347 
L 344.296068 104.311835 
L 345.994289 106.545646 
L 349.262442 107.147022 
L 350.836558 109.122668 
L 352.373241 110.092975 
L 353.87423 107.517658 
L 355.341146 112.314485 
L 356.775501 112.204434 
L 358.17871 114.384374 
L 359.552096 112.979755 
L 360.896901 116.178494 
L 362.21429 115.272499 
L 369.6 118.203004 
L 389.47059 122.517547 
L 397.503083 123.665854 
L 411.078536 142.320265 
L 416.927824 130.701772 
L 422.291336 138.84913 
L 427.243606 135.179178 
L 431.843232 149.42165 
L 436.137115 144.39162 
L 440.16338 158.346067 
L 443.953438 139.435553 
L 447.533474 148.327159 
L 450.925548 168.666402 
L 454.148417 162.310027 
L 457.218161 183.319729 
L 460.148674 164.104178 
L 462.952039 159.370108 
L 465.638834 158.092191 
L 468.218365 174.297816 
L 470.698871 175.256547 
L 473.087673 183.192305 
L 475.391312 171.851396 
L 477.615651 160.309396 
L 479.765968 169.43122 
L 481.847032 185.452263 
L 483.863165 174.729014 
L 485.818296 186.869112 
L 487.716009 171.301408 
L 489.55958 199.145658 
L 491.352013 174.137844 
L 493.096068 170.862009 
L 494.794289 209.111762 
L 496.449023 169.419728 
L 499.636558 194.950688 
L 501.173241 163.096055 
L 502.67423 169.346869 
L 504.141146 219.149478 
L 505.575501 181.438272 
L 506.97871 194.814372 
L 508.352096 181.991767 
L 509.696901 226.407634 
L 511.01429 178.93538 
L 512.305359 169.410561 
L 513.571139 179.406728 
L 514.812601 203.624478 
L 516.030663 184.116933 
L 517.226189 171.481042 
L 517.226189 171.481042 
" style="fill:none;stroke:#581845;stroke-linecap:square;"/>
   </g>
   <g id="line2d_3">
    <path clip-path="url(#pc87a0f14fa)" d="M 72 62.348797 
L 82.696043 62.96865 
L 91.87059 62.420548 
L 99.903083 62.714831 
L 107.046633 63.088053 
L 113.478536 62.752382 
L 119.327824 63.346923 
L 129.643606 62.94763 
L 134.243232 63.358213 
L 138.537115 62.565265 
L 142.56338 63.36238 
L 146.353438 62.865577 
L 153.325548 63.79709 
L 156.548417 63.093596 
L 159.618161 64.04352 
L 162.548674 62.775703 
L 170.618365 63.275724 
L 173.098871 63.142884 
L 175.487673 63.559372 
L 177.791312 63.511782 
L 180.015651 62.838899 
L 182.165968 64.027228 
L 186.263165 63.162545 
L 188.218296 63.977599 
L 190.116009 63.106493 
L 191.95958 63.483832 
L 193.752013 64.636019 
L 195.496068 63.652082 
L 197.194289 64.810541 
L 198.849023 63.970575 
L 200.462442 64.474283 
L 202.036558 64.091019 
L 203.573241 64.68304 
L 205.07423 64.103128 
L 206.541146 64.578528 
L 207.975501 64.644799 
L 209.37871 64.335988 
L 210.752096 65.019855 
L 212.096901 65.137062 
L 213.41429 65.12235 
L 220.8 65.711836 
L 231.496043 66.434835 
L 240.67059 66.812727 
L 248.703083 67.899647 
L 255.846633 69.165527 
L 262.278536 71.520345 
L 268.127824 72.976043 
L 273.491336 73.352082 
L 278.443606 77.379744 
L 283.043232 76.253795 
L 287.337115 80.251795 
L 291.36338 78.977104 
L 295.153438 83.297362 
L 298.733474 84.876504 
L 302.125548 85.318822 
L 305.348417 86.950904 
L 308.418161 92.197483 
L 311.348674 90.767733 
L 314.152039 93.75418 
L 316.838834 92.161005 
L 319.418365 97.022567 
L 321.898871 100.078895 
L 324.287673 99.308792 
L 326.591312 99.303573 
L 328.815651 102.004967 
L 330.965968 102.81299 
L 333.047032 101.940675 
L 335.063165 101.452266 
L 337.018296 105.910938 
L 338.916009 103.727355 
L 340.75958 107.65212 
L 342.552013 107.725827 
L 344.296068 110.979162 
L 345.994289 109.392535 
L 347.649023 105.622436 
L 349.262442 110.956753 
L 350.836558 114.818694 
L 352.373241 111.666597 
L 353.87423 111.879085 
L 355.341146 113.265603 
L 356.775501 110.467457 
L 358.17871 110.823422 
L 359.552096 118.975017 
L 360.896901 115.363877 
L 362.21429 114.358509 
L 369.6 124.096482 
L 380.296043 120.741962 
L 389.47059 132.902918 
L 397.503083 127.761131 
L 404.646633 142.118572 
L 411.078536 138.248643 
L 416.927824 138.924804 
L 422.291336 127.03107 
L 427.243606 149.928064 
L 431.843232 160.313228 
L 436.137115 152.295261 
L 440.16338 133.493261 
L 443.953438 147.882235 
L 447.533474 179.676593 
L 450.925548 144.758617 
L 454.148417 165.405831 
L 457.218161 174.56103 
L 460.148674 150.33081 
L 462.952039 158.61928 
L 465.638834 155.475033 
L 468.218365 170.421032 
L 470.698871 163.803929 
L 473.087673 166.370041 
L 475.391312 192.842391 
L 477.615651 185.50259 
L 479.765968 185.892024 
L 481.847032 154.43031 
L 483.863165 188.513576 
L 485.818296 170.418804 
L 487.716009 193.553465 
L 489.55958 211.518767 
L 491.352013 172.466784 
L 493.096068 206.711123 
L 494.794289 163.878413 
L 496.449023 201.30795 
L 499.636558 153.691807 
L 501.173241 167.217424 
L 502.67423 173.713811 
L 504.141146 179.138672 
L 505.575501 177.713853 
L 506.97871 197.444425 
L 508.352096 195.759415 
L 509.696901 150.365026 
L 511.01429 161.289858 
L 512.305359 178.378367 
L 513.571139 170.820247 
L 514.812601 164.215511 
L 516.030663 163.108011 
L 517.226189 184.392086 
L 517.226189 184.392086 
" style="fill:none;stroke:#26b7d8;stroke-linecap:square;"/>
   </g>
   <g id="line2d_4">
    <path clip-path="url(#pc87a0f14fa)" d="M 72 70.144578 
L 82.696043 70.077983 
L 91.87059 71.74924 
L 99.903083 71.588 
L 107.046633 70.075423 
L 113.478536 70.848069 
L 119.327824 69.749952 
L 124.691336 71.436071 
L 129.643606 71.054772 
L 134.243232 70.171099 
L 138.537115 71.986532 
L 142.56338 71.075382 
L 146.353438 71.281025 
L 149.933474 70.77841 
L 153.325548 71.04434 
L 156.548417 71.453732 
L 159.618161 73.129297 
L 162.548674 71.641253 
L 165.352039 71.322432 
L 168.038834 72.99106 
L 170.618365 71.21427 
L 173.098871 71.339017 
L 175.487673 72.391982 
L 177.791312 72.40832 
L 180.015651 73.420935 
L 182.165968 71.450659 
L 186.263165 72.726767 
L 188.218296 71.852152 
L 190.116009 72.066115 
L 191.95958 72.849636 
L 193.752013 74.533556 
L 195.496068 74.449258 
L 197.194289 72.956521 
L 198.849023 74.600673 
L 200.462442 72.909607 
L 202.036558 74.703425 
L 203.573241 73.352876 
L 205.07423 74.438974 
L 206.541146 75.166136 
L 207.975501 75.032314 
L 209.37871 74.444426 
L 210.752096 75.399108 
L 212.096901 74.750358 
L 213.41429 74.348445 
L 220.8 75.28336 
L 240.67059 79.02643 
L 248.703083 81.415549 
L 255.846633 80.84107 
L 262.278536 81.497729 
L 268.127824 82.563223 
L 273.491336 84.204887 
L 278.443606 84.11958 
L 283.043232 84.429145 
L 287.337115 86.677283 
L 291.36338 87.360184 
L 295.153438 87.774465 
L 298.733474 89.591075 
L 302.125548 90.723627 
L 305.348417 94.838688 
L 308.418161 91.872818 
L 311.348674 91.347998 
L 314.152039 95.941986 
L 316.838834 97.65579 
L 319.418365 97.744093 
L 321.898871 100.621566 
L 324.287673 95.856198 
L 326.591312 104.221801 
L 328.815651 106.285157 
L 330.965968 104.158168 
L 333.047032 111.046665 
L 335.063165 105.399477 
L 337.018296 101.763398 
L 338.916009 105.769568 
L 340.75958 107.264931 
L 342.552013 114.666119 
L 344.296068 107.083403 
L 345.994289 111.040223 
L 347.649023 116.664246 
L 349.262442 109.993937 
L 350.836558 117.355012 
L 352.373241 112.750717 
L 353.87423 113.973651 
L 355.341146 114.419045 
L 356.775501 112.227128 
L 358.17871 117.529779 
L 359.552096 116.808148 
L 360.896901 125.998496 
L 362.21429 120.568993 
L 369.6 112.611636 
L 380.296043 127.013124 
L 389.47059 129.722337 
L 397.503083 138.091442 
L 404.646633 135.915781 
L 411.078536 141.073126 
L 416.927824 151.999539 
L 422.291336 150.225925 
L 427.243606 149.257521 
L 431.843232 163.502868 
L 436.137115 156.366354 
L 440.16338 147.342649 
L 443.953438 150.648105 
L 447.533474 163.112265 
L 450.925548 150.994446 
L 454.148417 154.835947 
L 457.218161 164.716388 
L 460.148674 159.984075 
L 462.952039 176.715204 
L 465.638834 160.722015 
L 468.218365 170.522339 
L 470.698871 175.494539 
L 475.391312 186.661613 
L 477.615651 151.130327 
L 479.765968 169.612007 
L 481.847032 170.544587 
L 483.863165 158.807811 
L 485.818296 181.339593 
L 487.716009 169.280894 
L 489.55958 197.269843 
L 491.352013 161.674629 
L 493.096068 203.365446 
L 494.794289 163.355591 
L 496.449023 223.499485 
L 498.062442 178.824275 
L 499.636558 178.272206 
L 501.173241 186.585984 
L 502.67423 196.673375 
L 504.141146 177.655927 
L 505.575501 161.212034 
L 506.97871 173.921688 
L 508.352096 264.754589 
L 509.696901 162.391366 
L 511.01429 188.420369 
L 512.305359 179.37305 
L 513.571139 177.94928 
L 514.812601 190.381039 
L 516.030663 174.977229 
L 517.226189 169.169531 
L 517.226189 169.169531 
" style="fill:none;stroke:#8414a4;stroke-linecap:square;"/>
   </g>
   <g id="line2d_5">
    <path clip-path="url(#pc87a0f14fa)" d="M 72 76.759431 
L 82.696043 78.585876 
L 91.87059 77.340185 
L 99.903083 78.68911 
L 107.046633 78.120651 
L 113.478536 78.515652 
L 119.327824 78.424496 
L 124.691336 78.045413 
L 129.643606 76.32552 
L 134.243232 79.124437 
L 138.537115 76.660153 
L 142.56338 79.611939 
L 146.353438 78.268794 
L 149.933474 77.973122 
L 153.325548 79.665923 
L 156.548417 78.098675 
L 159.618161 79.067286 
L 162.548674 80.339256 
L 165.352039 79.897845 
L 168.038834 81.177908 
L 170.618365 80.545254 
L 173.098871 78.304087 
L 175.487673 77.715178 
L 177.791312 81.036146 
L 180.015651 81.664434 
L 182.165968 80.933801 
L 184.247032 80.354944 
L 186.263165 81.248023 
L 188.218296 81.271398 
L 190.116009 79.986139 
L 191.95958 80.209588 
L 193.752013 82.667819 
L 195.496068 81.389463 
L 197.194289 80.864687 
L 198.849023 83.262086 
L 202.036558 81.862176 
L 203.573241 83.249046 
L 205.07423 84.439197 
L 206.541146 83.613874 
L 207.975501 80.907081 
L 209.37871 83.151994 
L 212.096901 84.714509 
L 213.41429 84.644757 
L 220.8 85.500766 
L 231.496043 84.953858 
L 248.703083 90.491952 
L 262.278536 91.254392 
L 268.127824 93.694562 
L 273.491336 95.144712 
L 278.443606 90.089171 
L 283.043232 93.308441 
L 287.337115 95.026148 
L 291.36338 92.737727 
L 295.153438 97.520909 
L 298.733474 96.099479 
L 302.125548 99.487151 
L 305.348417 97.708331 
L 308.418161 99.29712 
L 311.348674 99.884678 
L 314.152039 99.496535 
L 316.838834 98.98828 
L 319.418365 101.651271 
L 321.898871 106.986598 
L 324.287673 104.940568 
L 326.591312 104.768886 
L 328.815651 106.438477 
L 333.047032 105.507649 
L 335.063165 105.899162 
L 337.018296 110.436238 
L 338.916009 112.089741 
L 340.75958 109.390624 
L 342.552013 113.668907 
L 344.296068 118.914933 
L 345.994289 113.226054 
L 347.649023 117.725248 
L 349.262442 118.768456 
L 350.836558 122.68992 
L 352.373241 116.749306 
L 353.87423 124.576686 
L 355.341146 118.058584 
L 356.775501 120.050134 
L 358.17871 124.992494 
L 359.552096 120.658277 
L 360.896901 120.130422 
L 362.21429 121.688704 
L 369.6 118.611077 
L 380.296043 125.128459 
L 389.47059 140.133757 
L 397.503083 139.913118 
L 404.646633 160.89246 
L 411.078536 152.026344 
L 416.927824 140.422346 
L 422.291336 149.556419 
L 427.243606 153.213133 
L 431.843232 192.430623 
L 436.137115 155.163743 
L 440.16338 167.187995 
L 443.953438 156.992407 
L 447.533474 145.89388 
L 450.925548 169.585212 
L 454.148417 152.84323 
L 457.218161 148.450082 
L 460.148674 145.954529 
L 462.952039 182.982633 
L 465.638834 188.361956 
L 468.218365 158.908855 
L 470.698871 200.6672 
L 473.087673 195.752946 
L 475.391312 168.965497 
L 477.615651 197.755406 
L 479.765968 182.122496 
L 481.847032 169.840494 
L 483.863165 163.760462 
L 485.818296 192.417723 
L 487.716009 185.432349 
L 489.55958 191.918312 
L 491.352013 169.200105 
L 493.096068 211.045433 
L 494.794289 183.746417 
L 496.449023 183.334756 
L 498.062442 172.100474 
L 499.636558 181.062181 
L 501.173241 155.836832 
L 502.67423 184.62846 
L 504.141146 160.740369 
L 505.575501 199.455061 
L 506.97871 165.43097 
L 508.352096 176.429586 
L 509.696901 190.795141 
L 511.01429 180.197219 
L 512.305359 162.951214 
L 513.571139 174.07258 
L 514.812601 180.936223 
L 516.030663 170.000375 
L 517.226189 189.230221 
L 517.226189 189.230221 
" style="fill:none;stroke:#ffd23a;stroke-linecap:square;"/>
   </g>
   <g id="line2d_6">
    <path clip-path="url(#pc87a0f14fa)" d="M 72 83.082598 
L 82.696043 85.940506 
L 91.87059 83.286609 
L 99.903083 86.119604 
L 107.046633 86.284255 
L 113.478536 85.787334 
L 119.327824 82.75826 
L 124.691336 85.213087 
L 129.643606 87.930641 
L 134.243232 85.799299 
L 138.537115 85.33181 
L 142.56338 87.907732 
L 146.353438 85.349685 
L 149.933474 84.296289 
L 153.325548 84.959142 
L 156.548417 84.76658 
L 159.618161 85.028737 
L 162.548674 87.10748 
L 165.352039 85.675709 
L 168.038834 84.739265 
L 170.618365 86.972598 
L 173.098871 88.614806 
L 175.487673 86.819171 
L 177.791312 87.77171 
L 180.015651 85.609257 
L 182.165968 86.181571 
L 184.247032 88.860227 
L 186.263165 86.449394 
L 188.218296 84.983037 
L 190.116009 88.927217 
L 191.95958 87.957586 
L 193.752013 87.720949 
L 197.194289 89.481199 
L 198.849023 87.663659 
L 200.462442 86.697824 
L 202.036558 88.777881 
L 203.573241 88.273073 
L 206.541146 88.348163 
L 207.975501 88.684051 
L 209.37871 89.661041 
L 210.752096 91.157416 
L 212.096901 91.250782 
L 213.41429 90.22476 
L 220.8 93.461675 
L 231.496043 90.824885 
L 240.67059 97.300678 
L 248.703083 94.323136 
L 255.846633 96.445567 
L 262.278536 99.489956 
L 268.127824 101.074698 
L 273.491336 101.085183 
L 278.443606 103.144997 
L 283.043232 98.548899 
L 287.337115 102.662151 
L 291.36338 102.123225 
L 295.153438 102.525793 
L 298.733474 104.728527 
L 302.125548 101.117924 
L 305.348417 101.638186 
L 308.418161 107.694545 
L 311.348674 107.052084 
L 314.152039 105.612761 
L 316.838834 106.656545 
L 319.418365 102.640918 
L 321.898871 107.160503 
L 324.287673 110.233107 
L 326.591312 109.116248 
L 328.815651 107.671748 
L 330.965968 110.204889 
L 333.047032 109.387312 
L 335.063165 119.096139 
L 337.018296 115.854685 
L 338.916009 109.674405 
L 340.75958 113.761451 
L 342.552013 117.103894 
L 344.296068 112.760464 
L 345.994289 118.310759 
L 347.649023 111.066491 
L 349.262442 120.833089 
L 350.836558 121.448714 
L 352.373241 125.019951 
L 353.87423 118.039147 
L 355.341146 121.246398 
L 356.775501 122.52827 
L 358.17871 119.490425 
L 359.552096 123.816944 
L 360.896901 121.015334 
L 362.21429 127.263027 
L 369.6 125.513067 
L 380.296043 139.679404 
L 389.47059 133.485259 
L 397.503083 136.959734 
L 404.646633 151.840835 
L 411.078536 136.258387 
L 416.927824 141.128945 
L 422.291336 147.961717 
L 427.243606 152.897342 
L 431.843232 149.742259 
L 436.137115 144.890778 
L 440.16338 152.871115 
L 443.953438 156.809238 
L 447.533474 163.910404 
L 450.925548 174.566504 
L 454.148417 144.55399 
L 457.218161 156.246567 
L 460.148674 161.366937 
L 462.952039 182.770313 
L 468.218365 158.621958 
L 470.698871 168.691678 
L 473.087673 182.078726 
L 475.391312 156.316591 
L 477.615651 174.153421 
L 479.765968 163.688933 
L 481.847032 182.0505 
L 483.863165 217.281394 
L 485.818296 168.063512 
L 487.716009 206.884701 
L 489.55958 220.414206 
L 491.352013 171.250168 
L 493.096068 202.56006 
L 494.794289 178.348735 
L 496.449023 237.982233 
L 498.062442 190.567254 
L 499.636558 177.627688 
L 501.173241 172.086349 
L 502.67423 176.761827 
L 505.575501 195.840932 
L 506.97871 201.684496 
L 508.352096 179.975898 
L 509.696901 179.451071 
L 511.01429 219.184786 
L 512.305359 158.661026 
L 513.571139 222.613671 
L 514.812601 158.005824 
L 516.030663 191.769057 
L 517.226189 267.837613 
L 517.226189 267.837613 
" style="fill:none;stroke:#ff9300;stroke-linecap:square;"/>
   </g>
   <g id="line2d_7">
    <path clip-path="url(#pc87a0f14fa)" d="M 72 88.833629 
L 82.696043 88.395472 
L 91.87059 88.806249 
L 99.903083 87.272675 
L 107.046633 90.033795 
L 113.478536 89.802923 
L 119.327824 87.474716 
L 124.691336 91.022608 
L 129.643606 89.14776 
L 134.243232 93.749352 
L 138.537115 88.440878 
L 142.56338 90.439321 
L 149.933474 90.646401 
L 153.325548 93.039045 
L 156.548417 91.976507 
L 159.618161 91.33218 
L 162.548674 86.161213 
L 165.352039 92.087021 
L 168.038834 90.078528 
L 170.618365 91.772281 
L 173.098871 92.464077 
L 175.487673 92.487315 
L 177.791312 90.39702 
L 180.015651 93.716364 
L 182.165968 92.102251 
L 184.247032 91.198014 
L 186.263165 89.858777 
L 188.218296 95.28464 
L 190.116009 92.516662 
L 191.95958 92.877602 
L 193.752013 93.543556 
L 195.496068 93.215702 
L 197.194289 93.177458 
L 198.849023 92.747181 
L 200.462442 91.946388 
L 203.573241 96.403637 
L 205.07423 95.06477 
L 206.541146 95.994918 
L 207.975501 94.81597 
L 209.37871 97.5338 
L 210.752096 96.128489 
L 212.096901 93.613672 
L 213.41429 95.421613 
L 220.8 95.029171 
L 231.496043 99.664961 
L 240.67059 102.861116 
L 248.703083 101.59799 
L 255.846633 103.766665 
L 262.278536 106.158428 
L 268.127824 105.295558 
L 273.491336 105.22326 
L 278.443606 106.649601 
L 283.043232 109.959269 
L 287.337115 108.145043 
L 291.36338 111.362144 
L 295.153438 109.8213 
L 298.733474 106.231703 
L 302.125548 110.470076 
L 305.348417 108.49973 
L 308.418161 110.770224 
L 311.348674 109.700462 
L 314.152039 111.784579 
L 316.838834 111.536609 
L 319.418365 114.375084 
L 321.898871 107.780566 
L 324.287673 116.470377 
L 326.591312 112.98648 
L 328.815651 111.615228 
L 330.965968 112.2653 
L 333.047032 113.313696 
L 335.063165 115.449526 
L 337.018296 113.323461 
L 338.916009 116.820225 
L 342.552013 117.994737 
L 344.296068 124.649095 
L 345.994289 119.360707 
L 347.649023 125.704387 
L 349.262442 116.751462 
L 350.836558 123.878126 
L 352.373241 119.057295 
L 353.87423 116.334846 
L 355.341146 133.41618 
L 356.775501 126.911315 
L 358.17871 125.407095 
L 359.552096 124.936428 
L 360.896901 124.144183 
L 362.21429 127.739974 
L 369.6 130.344509 
L 380.296043 135.641666 
L 389.47059 128.468064 
L 397.503083 138.952706 
L 404.646633 144.610147 
L 411.078536 134.966413 
L 416.927824 147.1117 
L 422.291336 165.960824 
L 427.243606 150.700524 
L 431.843232 159.424335 
L 436.137115 148.261265 
L 440.16338 148.064869 
L 443.953438 151.032543 
L 447.533474 176.530602 
L 450.925548 160.791384 
L 454.148417 192.262712 
L 457.218161 161.496071 
L 460.148674 186.244808 
L 462.952039 172.552133 
L 465.638834 166.190577 
L 468.218365 165.888582 
L 470.698871 164.244004 
L 473.087673 184.759031 
L 475.391312 201.64539 
L 477.615651 161.521196 
L 479.765968 159.766068 
L 481.847032 174.355887 
L 483.863165 180.194624 
L 485.818296 178.551427 
L 487.716009 185.462416 
L 489.55958 156.828937 
L 491.352013 180.579852 
L 493.096068 215.102486 
L 494.794289 223.426242 
L 496.449023 254.151722 
L 498.062442 182.694157 
L 499.636558 178.598119 
L 501.173241 182.773464 
L 502.67423 203.706996 
L 504.141146 161.605687 
L 505.575501 229.220933 
L 506.97871 194.74965 
L 508.352096 184.297013 
L 509.696901 208.468372 
L 511.01429 174.419629 
L 512.305359 209.161416 
L 513.571139 176.240282 
L 514.812601 187.098826 
L 516.030663 270.226392 
L 517.226189 195.355761 
L 517.226189 195.355761 
" style="fill:none;stroke:#f50fe6;stroke-linecap:square;"/>
   </g>
   <g id="line2d_8">
    <path clip-path="url(#pc87a0f14fa)" d="M 72 96.160158 
L 82.696043 94.003374 
L 91.87059 90.405365 
L 99.903083 93.245071 
L 107.046633 95.445586 
L 113.478536 92.238398 
L 119.327824 91.317507 
L 124.691336 92.602908 
L 129.643606 96.1392 
L 134.243232 93.038788 
L 138.537115 93.200783 
L 142.56338 96.899904 
L 146.353438 96.466907 
L 149.933474 94.142033 
L 153.325548 93.18904 
L 159.618161 95.022874 
L 162.548674 92.11171 
L 165.352039 95.219724 
L 168.038834 95.79654 
L 170.618365 95.060992 
L 173.098871 95.211069 
L 175.487673 95.735712 
L 177.791312 99.170516 
L 180.015651 98.050637 
L 182.165968 102.128183 
L 184.247032 96.674002 
L 186.263165 96.084202 
L 188.218296 98.439878 
L 190.116009 101.343871 
L 191.95958 95.439958 
L 193.752013 99.203468 
L 195.496068 98.265542 
L 197.194289 101.657088 
L 198.849023 96.887952 
L 200.462442 97.999596 
L 202.036558 99.699952 
L 203.573241 97.69664 
L 205.07423 96.741124 
L 206.541146 103.1919 
L 207.975501 97.843236 
L 209.37871 98.207263 
L 210.752096 102.036154 
L 212.096901 103.078891 
L 213.41429 100.186485 
L 220.8 99.300152 
L 231.496043 105.016071 
L 240.67059 107.36985 
L 248.703083 106.434756 
L 255.846633 108.425997 
L 262.278536 113.367195 
L 268.127824 111.226518 
L 273.491336 112.645515 
L 278.443606 116.611462 
L 283.043232 107.110891 
L 287.337115 115.45697 
L 291.36338 111.944889 
L 295.153438 114.284509 
L 298.733474 115.466643 
L 302.125548 117.496191 
L 305.348417 116.644818 
L 308.418161 114.630283 
L 311.348674 118.127049 
L 314.152039 114.054718 
L 316.838834 114.726552 
L 319.418365 120.516386 
L 321.898871 113.553443 
L 324.287673 116.476783 
L 326.591312 112.078968 
L 328.815651 110.266814 
L 330.965968 117.168803 
L 333.047032 118.337649 
L 335.063165 113.990632 
L 337.018296 117.203353 
L 338.916009 112.032566 
L 340.75958 121.744697 
L 342.552013 122.009501 
L 344.296068 119.592858 
L 345.994289 122.623195 
L 347.649023 139.715134 
L 349.262442 119.767474 
L 350.836558 139.093372 
L 352.373241 118.280065 
L 353.87423 125.529999 
L 355.341146 121.059182 
L 356.775501 134.710932 
L 358.17871 132.152254 
L 359.552096 129.108109 
L 360.896901 121.611851 
L 362.21429 128.751749 
L 369.6 127.305061 
L 380.296043 137.424267 
L 389.47059 147.3848 
L 397.503083 142.131056 
L 404.646633 159.669072 
L 411.078536 140.927574 
L 416.927824 154.550915 
L 422.291336 155.232086 
L 427.243606 139.226752 
L 431.843232 165.388973 
L 436.137115 145.337717 
L 440.16338 154.677779 
L 443.953438 154.255957 
L 447.533474 162.195256 
L 450.925548 158.50256 
L 454.148417 149.84227 
L 457.218161 156.533101 
L 460.148674 166.835249 
L 462.952039 200.224828 
L 465.638834 152.311079 
L 468.218365 174.723886 
L 470.698871 168.298888 
L 473.087673 160.149107 
L 475.391312 189.983633 
L 477.615651 177.020771 
L 479.765968 199.42149 
L 481.847032 192.462003 
L 483.863165 170.966758 
L 485.818296 182.696993 
L 487.716009 168.471088 
L 489.55958 168.06282 
L 491.352013 214.441923 
L 493.096068 201.694542 
L 494.794289 204.541473 
L 496.449023 172.98885 
L 498.062442 207.089353 
L 499.636558 158.737609 
L 501.173241 202.755343 
L 502.67423 178.183894 
L 504.141146 177.626844 
L 505.575501 184.644733 
L 506.97871 179.76274 
L 508.352096 171.16604 
L 509.696901 243.763396 
L 511.01429 208.225006 
L 512.305359 186.929813 
L 513.571139 192.290752 
L 514.812601 189.778285 
L 516.030663 165.755025 
L 517.226189 218.152831 
L 517.226189 218.152831 
" style="fill:none;stroke:#1000a0;stroke-linecap:square;"/>
   </g>
   <g id="line2d_9">
    <path clip-path="url(#pc87a0f14fa)" d="M 72 100.084223 
L 82.696043 98.751184 
L 91.87059 101.108426 
L 99.903083 100.907692 
L 107.046633 97.743516 
L 113.478536 99.7697 
L 119.327824 101.940717 
L 124.691336 99.756712 
L 129.643606 104.354757 
L 134.243232 98.49623 
L 138.537115 98.702521 
L 142.56338 95.661431 
L 146.353438 101.068367 
L 149.933474 98.097386 
L 153.325548 101.613301 
L 156.548417 96.948295 
L 159.618161 98.385466 
L 162.548674 100.361122 
L 165.352039 101.059415 
L 168.038834 104.222028 
L 170.618365 99.64555 
L 173.098871 100.186936 
L 175.487673 98.36328 
L 177.791312 101.428345 
L 180.015651 99.598032 
L 182.165968 101.822899 
L 184.247032 104.139786 
L 186.263165 102.09521 
L 188.218296 101.707647 
L 190.116009 99.622995 
L 191.95958 101.41908 
L 193.752013 98.068131 
L 195.496068 99.943569 
L 197.194289 102.633232 
L 198.849023 102.434771 
L 200.462442 107.410349 
L 202.036558 105.122487 
L 203.573241 106.810839 
L 205.07423 102.28658 
L 206.541146 106.032482 
L 207.975501 102.261337 
L 210.752096 107.014695 
L 212.096901 106.884796 
L 213.41429 104.657449 
L 220.8 107.953916 
L 231.496043 107.816077 
L 240.67059 115.285206 
L 248.703083 113.902445 
L 255.846633 118.096282 
L 262.278536 114.522204 
L 268.127824 115.66238 
L 273.491336 117.162377 
L 278.443606 117.540983 
L 283.043232 116.103473 
L 287.337115 120.055937 
L 291.36338 119.849285 
L 295.153438 118.289863 
L 298.733474 119.298523 
L 302.125548 118.986173 
L 305.348417 123.805665 
L 308.418161 117.346281 
L 311.348674 123.044065 
L 314.152039 118.313148 
L 316.838834 121.430977 
L 319.418365 130.946915 
L 321.898871 120.023491 
L 324.287673 123.733888 
L 326.591312 117.661637 
L 328.815651 123.51925 
L 330.965968 127.969228 
L 333.047032 118.994213 
L 335.063165 129.296416 
L 337.018296 118.136259 
L 340.75958 129.857041 
L 342.552013 126.721852 
L 344.296068 126.405254 
L 345.994289 125.043217 
L 347.649023 122.834121 
L 349.262442 117.991323 
L 350.836558 120.240936 
L 352.373241 127.883986 
L 353.87423 116.79584 
L 355.341146 125.581779 
L 356.775501 129.402727 
L 358.17871 133.608277 
L 359.552096 136.48809 
L 362.21429 123.545201 
L 369.6 128.087765 
L 380.296043 139.223882 
L 389.47059 145.551586 
L 397.503083 145.921724 
L 404.646633 138.26909 
L 411.078536 147.234913 
L 416.927824 159.410027 
L 422.291336 144.920091 
L 427.243606 167.665235 
L 431.843232 155.475688 
L 436.137115 160.26225 
L 440.16338 175.235954 
L 443.953438 151.521499 
L 447.533474 157.555726 
L 450.925548 175.240109 
L 454.148417 155.49843 
L 457.218161 167.649527 
L 460.148674 172.604753 
L 462.952039 184.231302 
L 465.638834 161.199361 
L 468.218365 186.252276 
L 470.698871 165.729263 
L 473.087673 174.32665 
L 475.391312 170.034837 
L 477.615651 181.705188 
L 479.765968 209.994739 
L 481.847032 219.495334 
L 483.863165 219.227484 
L 485.818296 170.129181 
L 487.716009 201.668204 
L 489.55958 180.208198 
L 491.352013 155.836296 
L 493.096068 223.512937 
L 494.794289 213.560083 
L 496.449023 185.872818 
L 498.062442 164.948692 
L 499.636558 193.430991 
L 501.173241 185.287382 
L 502.67423 191.811142 
L 504.141146 175.350835 
L 505.575501 182.762002 
L 506.97871 167.906005 
L 508.352096 195.754764 
L 509.696901 164.551479 
L 511.01429 168.014491 
L 512.305359 177.960362 
L 513.571139 178.045217 
L 514.812601 182.944165 
L 516.030663 175.10564 
L 517.226189 180.745619 
L 517.226189 180.745619 
" style="fill:none;stroke:#595866;stroke-linecap:square;"/>
   </g>
   <g id="line2d_10">
    <path clip-path="url(#pc87a0f14fa)" d="M 72 102.283424 
L 82.696043 106.896565 
L 91.87059 110.001419 
L 99.903083 97.862277 
L 107.046633 97.795611 
L 113.478536 103.232698 
L 119.327824 103.875829 
L 124.691336 101.621347 
L 129.643606 98.056254 
L 134.243232 103.207018 
L 138.537115 106.572854 
L 142.56338 106.283176 
L 146.353438 107.141818 
L 149.933474 108.856822 
L 153.325548 102.152963 
L 156.548417 104.175066 
L 159.618161 104.755181 
L 162.548674 106.683294 
L 165.352039 100.752067 
L 168.038834 111.168847 
L 170.618365 105.961702 
L 173.098871 105.869578 
L 175.487673 105.93193 
L 177.791312 105.62466 
L 180.015651 109.825701 
L 182.165968 103.972 
L 184.247032 113.595132 
L 186.263165 107.914369 
L 188.218296 109.517219 
L 190.116009 105.417106 
L 191.95958 107.620551 
L 193.752013 106.313021 
L 195.496068 104.744241 
L 197.194289 108.501 
L 198.849023 101.958634 
L 200.462442 107.420705 
L 202.036558 108.594465 
L 203.573241 112.528953 
L 205.07423 109.337023 
L 206.541146 110.384861 
L 207.975501 106.161606 
L 209.37871 106.463971 
L 210.752096 110.586673 
L 212.096901 109.392883 
L 213.41429 108.603797 
L 220.8 112.191889 
L 231.496043 111.459184 
L 240.67059 117.523415 
L 248.703083 117.735605 
L 255.846633 121.077702 
L 262.278536 122.648955 
L 268.127824 119.996097 
L 273.491336 119.152435 
L 278.443606 122.504171 
L 283.043232 124.835468 
L 287.337115 121.471582 
L 291.36338 124.624684 
L 295.153438 120.565501 
L 298.733474 126.006996 
L 302.125548 124.570239 
L 305.348417 125.187963 
L 308.418161 128.007691 
L 311.348674 123.403954 
L 314.152039 120.023102 
L 319.418365 119.439545 
L 321.898871 126.015859 
L 324.287673 127.001348 
L 326.591312 130.418538 
L 328.815651 127.185479 
L 330.965968 127.615758 
L 333.047032 125.345078 
L 335.063165 120.57314 
L 337.018296 124.876124 
L 338.916009 122.27167 
L 340.75958 127.943608 
L 342.552013 121.923694 
L 344.296068 132.404056 
L 345.994289 118.367102 
L 347.649023 122.439268 
L 349.262442 123.700967 
L 350.836558 125.588992 
L 352.373241 123.38609 
L 353.87423 129.426865 
L 355.341146 122.581035 
L 356.775501 127.528675 
L 358.17871 123.985968 
L 359.552096 128.220477 
L 360.896901 136.167726 
L 362.21429 131.342603 
L 369.6 133.718139 
L 380.296043 151.90332 
L 389.47059 133.717844 
L 397.503083 142.62702 
L 404.646633 151.109226 
L 411.078536 154.818711 
L 416.927824 140.680902 
L 422.291336 164.435712 
L 427.243606 157.241235 
L 431.843232 162.731353 
L 436.137115 150.369104 
L 440.16338 166.418762 
L 443.953438 171.367817 
L 447.533474 157.430804 
L 450.925548 167.942654 
L 454.148417 182.025106 
L 457.218161 165.7024 
L 460.148674 178.767532 
L 462.952039 215.106237 
L 465.638834 174.088694 
L 468.218365 209.378226 
L 470.698871 178.20554 
L 473.087673 202.562601 
L 475.391312 222.306185 
L 477.615651 170.470874 
L 479.765968 174.376416 
L 481.847032 206.130178 
L 483.863165 173.216706 
L 485.818296 175.855862 
L 487.716009 258.757601 
L 489.55958 222.204554 
L 491.352013 198.862639 
L 493.096068 189.034417 
L 494.794289 181.565492 
L 496.449023 177.088859 
L 498.062442 157.030057 
L 499.636558 167.687419 
L 501.173241 193.028916 
L 502.67423 222.855865 
L 504.141146 190.701856 
L 505.575501 180.38267 
L 506.97871 185.178873 
L 508.352096 178.126298 
L 509.696901 190.587491 
L 511.01429 188.70349 
L 512.305359 199.99574 
L 513.571139 183.275872 
L 514.812601 200.524986 
L 516.030663 176.839761 
L 517.226189 177.234031 
L 517.226189 177.234031 
" style="fill:none;stroke:#147f2a;stroke-linecap:square;"/>
   </g>
   <g id="line2d_11">
    <path clip-path="url(#pc87a0f14fa)" d="M 72 108.413793 
L 82.696043 102.468131 
L 91.87059 106.302829 
L 99.903083 105.590396 
L 107.046633 102.937795 
L 113.478536 104.607002 
L 119.327824 105.963554 
L 124.691336 102.778242 
L 129.643606 104.217663 
L 134.243232 106.054351 
L 138.537115 102.723965 
L 146.353438 108.15142 
L 149.933474 110.282974 
L 153.325548 105.354392 
L 156.548417 103.082295 
L 159.618161 109.210394 
L 162.548674 103.736149 
L 165.352039 102.132214 
L 168.038834 108.783012 
L 170.618365 116.796687 
L 173.098871 108.428684 
L 175.487673 113.81426 
L 177.791312 111.963138 
L 180.015651 109.652282 
L 182.165968 108.302808 
L 184.247032 112.329218 
L 186.263165 112.255855 
L 188.218296 107.447068 
L 190.116009 107.71872 
L 191.95958 114.724295 
L 193.752013 103.567684 
L 195.496068 110.425308 
L 197.194289 104.961646 
L 198.849023 107.500163 
L 200.462442 114.035423 
L 202.036558 113.12028 
L 203.573241 112.423129 
L 205.07423 107.518724 
L 206.541146 116.854639 
L 207.975501 114.552086 
L 209.37871 109.345895 
L 210.752096 115.278723 
L 212.096901 111.993955 
L 213.41429 112.630054 
L 220.8 109.367469 
L 231.496043 113.682846 
L 240.67059 119.295943 
L 248.703083 114.236259 
L 255.846633 123.208406 
L 262.278536 117.269133 
L 268.127824 127.639793 
L 273.491336 126.246789 
L 278.443606 121.063502 
L 283.043232 131.980204 
L 287.337115 134.850227 
L 291.36338 126.994998 
L 295.153438 118.964572 
L 298.733474 132.286457 
L 302.125548 130.612611 
L 305.348417 132.060982 
L 308.418161 122.00579 
L 311.348674 127.907778 
L 314.152039 131.806556 
L 316.838834 127.76073 
L 319.418365 123.004548 
L 321.898871 132.853817 
L 324.287673 127.484929 
L 326.591312 133.226313 
L 328.815651 132.662795 
L 330.965968 129.574398 
L 333.047032 142.299837 
L 335.063165 123.788644 
L 337.018296 127.717949 
L 338.916009 128.403318 
L 340.75958 128.32045 
L 342.552013 132.808521 
L 345.994289 127.877853 
L 347.649023 131.297616 
L 349.262442 129.560839 
L 350.836558 138.933266 
L 352.373241 126.136531 
L 353.87423 133.473216 
L 355.341146 131.121136 
L 356.775501 140.905727 
L 358.17871 125.28901 
L 359.552096 132.615489 
L 360.896901 136.641822 
L 362.21429 117.546026 
L 369.6 137.111183 
L 380.296043 143.105215 
L 389.47059 151.166114 
L 397.503083 151.310748 
L 404.646633 144.486666 
L 411.078536 150.374845 
L 416.927824 159.78354 
L 422.291336 156.626154 
L 427.243606 148.745758 
L 431.843232 174.422525 
L 436.137115 158.19781 
L 440.16338 165.599062 
L 443.953438 161.122122 
L 447.533474 156.07045 
L 450.925548 161.448073 
L 454.148417 180.57778 
L 457.218161 171.257207 
L 460.148674 340.351114 
L 462.952039 174.801237 
L 465.638834 178.640404 
L 468.218365 173.217646 
L 470.698871 257.572872 
L 473.087673 187.975242 
L 475.391312 173.352942 
L 477.615651 163.075999 
L 479.765968 166.92323 
L 481.847032 201.558241 
L 483.863165 226.615542 
L 485.818296 174.037729 
L 487.716009 197.43613 
L 489.55958 171.866239 
L 491.352013 190.497319 
L 493.096068 206.130622 
L 494.794289 170.486671 
L 496.449023 178.640711 
L 498.062442 154.780141 
L 499.636558 178.887525 
L 501.173241 197.075017 
L 502.67423 196.726319 
L 504.141146 172.99671 
L 505.575501 180.130522 
L 506.97871 175.789285 
L 508.352096 254.589223 
L 509.696901 203.473944 
L 511.01429 190.565002 
L 512.305359 187.495633 
L 513.571139 160.42467 
L 514.812601 181.340847 
L 516.030663 179.297884 
L 517.226189 181.920701 
L 517.226189 181.920701 
" style="fill:none;stroke:#00f6aa;stroke-linecap:square;"/>
   </g>
   <g id="patch_3">
    <path d="M 518.4 388.8 
L 518.4 43.2 
" style="fill:none;stroke:#000000;stroke-linecap:square;stroke-linejoin:miter;"/>
   </g>
   <g id="patch_4">
    <path d="M 72 388.8 
L 518.4 388.8 
" style="fill:none;stroke:#000000;stroke-linecap:square;stroke-linejoin:miter;"/>
   </g>
   <g id="patch_5">
    <path d="M 72 388.8 
L 72 43.2 
" style="fill:none;stroke:#000000;stroke-linecap:square;stroke-linejoin:miter;"/>
   </g>
   <g id="patch_6">
    <path d="M 72 43.2 
L 518.4 43.2 
" style="fill:none;stroke:#000000;stroke-linecap:square;stroke-linejoin:miter;"/>
   </g>
   <g id="matplotlib.axis_1">
    <g id="xtick_1">
     <g id="line2d_12">
      <defs>
       <path d="M 0 0 
L 0 -4 
" id="m6c293e09a7" style="stroke:#000000;stroke-width:0.5;"/>
      </defs>
      <g>
       <use style="stroke:#000000;stroke-width:0.5;" x="72.0" xlink:href="#m6c293e09a7" y="388.8"/>
      </g>
     </g>
     <g id="line2d_13">
      <defs>
       <path d="M 0 0 
L 0 4 
" id="md9e736ace6" style="stroke:#000000;stroke-width:0.5;"/>
      </defs>
      <g>
       <use style="stroke:#000000;stroke-width:0.5;" x="72.0" xlink:href="#md9e736ace6" y="43.2"/>
      </g>
     </g>
     <g id="text_1">
      <!-- $\mathdefault{10^{-3}}$ -->
      <defs>
       <path d="M 31.78125 66.40625 
Q 24.171875 66.40625 20.328125 58.90625 
Q 16.5 51.421875 16.5 36.375 
Q 16.5 21.390625 20.328125 13.890625 
Q 24.171875 6.390625 31.78125 6.390625 
Q 39.453125 6.390625 43.28125 13.890625 
Q 47.125 21.390625 47.125 36.375 
Q 47.125 51.421875 43.28125 58.90625 
Q 39.453125 66.40625 31.78125 66.40625 
M 31.78125 74.21875 
Q 44.046875 74.21875 50.515625 64.515625 
Q 56.984375 54.828125 56.984375 36.375 
Q 56.984375 17.96875 50.515625 8.265625 
Q 44.046875 -1.421875 31.78125 -1.421875 
Q 19.53125 -1.421875 13.0625 8.265625 
Q 6.59375 17.96875 6.59375 36.375 
Q 6.59375 54.828125 13.0625 64.515625 
Q 19.53125 74.21875 31.78125 74.21875 
" id="BitstreamVeraSans-Roman-30"/>
       <path d="M 4.890625 31.390625 
L 31.203125 31.390625 
L 31.203125 23.390625 
L 4.890625 23.390625 
z
" id="BitstreamVeraSans-Roman-2d"/>
       <path d="M 12.40625 8.296875 
L 28.515625 8.296875 
L 28.515625 63.921875 
L 10.984375 60.40625 
L 10.984375 69.390625 
L 28.421875 72.90625 
L 38.28125 72.90625 
L 38.28125 8.296875 
L 54.390625 8.296875 
L 54.390625 0 
L 12.40625 0 
z
" id="BitstreamVeraSans-Roman-31"/>
       <path d="M 40.578125 39.3125 
Q 47.65625 37.796875 51.625 33 
Q 55.609375 28.21875 55.609375 21.1875 
Q 55.609375 10.40625 48.1875 4.484375 
Q 40.765625 -1.421875 27.09375 -1.421875 
Q 22.515625 -1.421875 17.65625 -0.515625 
Q 12.796875 0.390625 7.625 2.203125 
L 7.625 11.71875 
Q 11.71875 9.328125 16.59375 8.109375 
Q 21.484375 6.890625 26.8125 6.890625 
Q 36.078125 6.890625 40.9375 10.546875 
Q 45.796875 14.203125 45.796875 21.1875 
Q 45.796875 27.640625 41.28125 31.265625 
Q 36.765625 34.90625 28.71875 34.90625 
L 20.21875 34.90625 
L 20.21875 43.015625 
L 29.109375 43.015625 
Q 36.375 43.015625 40.234375 45.921875 
Q 44.09375 48.828125 44.09375 54.296875 
Q 44.09375 59.90625 40.109375 62.90625 
Q 36.140625 65.921875 28.71875 65.921875 
Q 24.65625 65.921875 20.015625 65.03125 
Q 15.375 64.15625 9.8125 62.3125 
L 9.8125 71.09375 
Q 15.4375 72.65625 20.34375 73.4375 
Q 25.25 74.21875 29.59375 74.21875 
Q 40.828125 74.21875 47.359375 69.109375 
Q 53.90625 64.015625 53.90625 55.328125 
Q 53.90625 49.265625 50.4375 45.09375 
Q 46.96875 40.921875 40.578125 39.3125 
" id="BitstreamVeraSans-Roman-33"/>
      </defs>
      <g transform="translate(59.34 402.544375)scale(0.12 -0.12)">
       <use transform="translate(0.0 0.796875)" xlink:href="#BitstreamVeraSans-Roman-31"/>
       <use transform="translate(63.623046875 0.796875)" xlink:href="#BitstreamVeraSans-Roman-30"/>
       <use transform="translate(132.75859375 48.046875)scale(0.7)" xlink:href="#BitstreamVeraSans-Roman-2d"/>
       <use transform="translate(158.0173828125 48.046875)scale(0.7)" xlink:href="#BitstreamVeraSans-Roman-33"/>
      </g>
     </g>
    </g>
    <g id="xtick_2">
     <g id="line2d_14">
      <g>
       <use style="stroke:#000000;stroke-width:0.5;" x="220.8" xlink:href="#m6c293e09a7" y="388.8"/>
      </g>
     </g>
     <g id="line2d_15">
      <g>
       <use style="stroke:#000000;stroke-width:0.5;" x="220.8" xlink:href="#md9e736ace6" y="43.2"/>
      </g>
     </g>
     <g id="text_2">
      <!-- $\mathdefault{10^{-2}}$ -->
      <defs>
       <path d="M 19.1875 8.296875 
L 53.609375 8.296875 
L 53.609375 0 
L 7.328125 0 
L 7.328125 8.296875 
Q 12.9375 14.109375 22.625 23.890625 
Q 32.328125 33.6875 34.8125 36.53125 
Q 39.546875 41.84375 41.421875 45.53125 
Q 43.3125 49.21875 43.3125 52.78125 
Q 43.3125 58.59375 39.234375 62.25 
Q 35.15625 65.921875 28.609375 65.921875 
Q 23.96875 65.921875 18.8125 64.3125 
Q 13.671875 62.703125 7.8125 59.421875 
L 7.8125 69.390625 
Q 13.765625 71.78125 18.9375 73 
Q 24.125 74.21875 28.421875 74.21875 
Q 39.75 74.21875 46.484375 68.546875 
Q 53.21875 62.890625 53.21875 53.421875 
Q 53.21875 48.921875 51.53125 44.890625 
Q 49.859375 40.875 45.40625 35.40625 
Q 44.1875 33.984375 37.640625 27.21875 
Q 31.109375 20.453125 19.1875 8.296875 
" id="BitstreamVeraSans-Roman-32"/>
      </defs>
      <g transform="translate(208.14 402.544375)scale(0.12 -0.12)">
       <use transform="translate(0.0 0.796875)" xlink:href="#BitstreamVeraSans-Roman-31"/>
       <use transform="translate(63.623046875 0.796875)" xlink:href="#BitstreamVeraSans-Roman-30"/>
       <use transform="translate(132.75859375 48.046875)scale(0.7)" xlink:href="#BitstreamVeraSans-Roman-2d"/>
       <use transform="translate(158.0173828125 48.046875)scale(0.7)" xlink:href="#BitstreamVeraSans-Roman-32"/>
      </g>
     </g>
    </g>
    <g id="xtick_3">
     <g id="line2d_16">
      <g>
       <use style="stroke:#000000;stroke-width:0.5;" x="369.6" xlink:href="#m6c293e09a7" y="388.8"/>
      </g>
     </g>
     <g id="line2d_17">
      <g>
       <use style="stroke:#000000;stroke-width:0.5;" x="369.6" xlink:href="#md9e736ace6" y="43.2"/>
      </g>
     </g>
     <g id="text_3">
      <!-- $\mathdefault{10^{-1}}$ -->
      <g transform="translate(356.94 402.424375)scale(0.12 -0.12)">
       <use transform="translate(0.0 0.7156250000000028)" xlink:href="#BitstreamVeraSans-Roman-31"/>
       <use transform="translate(63.623046875 0.7156250000000028)" xlink:href="#BitstreamVeraSans-Roman-30"/>
       <use transform="translate(132.75859375 47.965625)scale(0.7)" xlink:href="#BitstreamVeraSans-Roman-2d"/>
       <use transform="translate(158.0173828125 47.965625)scale(0.7)" xlink:href="#BitstreamVeraSans-Roman-31"/>
      </g>
     </g>
    </g>
    <g id="xtick_4">
     <g id="line2d_18">
      <g>
       <use style="stroke:#000000;stroke-width:0.5;" x="518.4" xlink:href="#m6c293e09a7" y="388.8"/>
      </g>
     </g>
     <g id="line2d_19">
      <g>
       <use style="stroke:#000000;stroke-width:0.5;" x="518.4" xlink:href="#md9e736ace6" y="43.2"/>
      </g>
     </g>
     <g id="text_4">
      <!-- $\mathdefault{10^{0}}$ -->
      <g transform="translate(507.24 402.544375)scale(0.12 -0.12)">
       <use transform="translate(0.0 0.796875)" xlink:href="#BitstreamVeraSans-Roman-31"/>
       <use transform="translate(63.623046875 0.796875)" xlink:href="#BitstreamVeraSans-Roman-30"/>
       <use transform="translate(132.75859375 48.046875)scale(0.7)" xlink:href="#BitstreamVeraSans-Roman-30"/>
      </g>
     </g>
    </g>
    <g id="xtick_5">
     <g id="line2d_20">
      <defs>
       <path d="M 0 0 
L 0 -2 
" id="m27ad65f121" style="stroke:#000000;stroke-width:0.5;"/>
      </defs>
      <g>
       <use style="stroke:#000000;stroke-width:0.5;" x="116.793263355" xlink:href="#m27ad65f121" y="388.8"/>
      </g>
     </g>
     <g id="line2d_21">
      <defs>
       <path d="M 0 0 
L 0 2 
" id="m55ee898d17" style="stroke:#000000;stroke-width:0.5;"/>
      </defs>
      <g>
       <use style="stroke:#000000;stroke-width:0.5;" x="116.793263355" xlink:href="#m55ee898d17" y="43.2"/>
      </g>
     </g>
    </g>
    <g id="xtick_6">
     <g id="line2d_22">
      <g>
       <use style="stroke:#000000;stroke-width:0.5;" x="142.995642702" xlink:href="#m27ad65f121" y="388.8"/>
      </g>
     </g>
     <g id="line2d_23">
      <g>
       <use style="stroke:#000000;stroke-width:0.5;" x="142.995642702" xlink:href="#m55ee898d17" y="43.2"/>
      </g>
     </g>
    </g>
    <g id="xtick_7">
     <g id="line2d_24">
      <g>
       <use style="stroke:#000000;stroke-width:0.5;" x="161.58652671" xlink:href="#m27ad65f121" y="388.8"/>
      </g>
     </g>
     <g id="line2d_25">
      <g>
       <use style="stroke:#000000;stroke-width:0.5;" x="161.58652671" xlink:href="#m55ee898d17" y="43.2"/>
      </g>
     </g>
    </g>
    <g id="xtick_8">
     <g id="line2d_26">
      <g>
       <use style="stroke:#000000;stroke-width:0.5;" x="176.006736645" xlink:href="#m27ad65f121" y="388.8"/>
      </g>
     </g>
     <g id="line2d_27">
      <g>
       <use style="stroke:#000000;stroke-width:0.5;" x="176.006736645" xlink:href="#m55ee898d17" y="43.2"/>
      </g>
     </g>
    </g>
    <g id="xtick_9">
     <g id="line2d_28">
      <g>
       <use style="stroke:#000000;stroke-width:0.5;" x="187.788906057" xlink:href="#m27ad65f121" y="388.8"/>
      </g>
     </g>
     <g id="line2d_29">
      <g>
       <use style="stroke:#000000;stroke-width:0.5;" x="187.788906057" xlink:href="#m55ee898d17" y="43.2"/>
      </g>
     </g>
    </g>
    <g id="xtick_10">
     <g id="line2d_30">
      <g>
       <use style="stroke:#000000;stroke-width:0.5;" x="197.750588354" xlink:href="#m27ad65f121" y="388.8"/>
      </g>
     </g>
     <g id="line2d_31">
      <g>
       <use style="stroke:#000000;stroke-width:0.5;" x="197.750588354" xlink:href="#m55ee898d17" y="43.2"/>
      </g>
     </g>
    </g>
    <g id="xtick_11">
     <g id="line2d_32">
      <g>
       <use style="stroke:#000000;stroke-width:0.5;" x="206.379790064" xlink:href="#m27ad65f121" y="388.8"/>
      </g>
     </g>
     <g id="line2d_33">
      <g>
       <use style="stroke:#000000;stroke-width:0.5;" x="206.379790064" xlink:href="#m55ee898d17" y="43.2"/>
      </g>
     </g>
    </g>
    <g id="xtick_12">
     <g id="line2d_34">
      <g>
       <use style="stroke:#000000;stroke-width:0.5;" x="213.991285405" xlink:href="#m27ad65f121" y="388.8"/>
      </g>
     </g>
     <g id="line2d_35">
      <g>
       <use style="stroke:#000000;stroke-width:0.5;" x="213.991285405" xlink:href="#m55ee898d17" y="43.2"/>
      </g>
     </g>
    </g>
    <g id="xtick_13">
     <g id="line2d_36">
      <g>
       <use style="stroke:#000000;stroke-width:0.5;" x="265.593263355" xlink:href="#m27ad65f121" y="388.8"/>
      </g>
     </g>
     <g id="line2d_37">
      <g>
       <use style="stroke:#000000;stroke-width:0.5;" x="265.593263355" xlink:href="#m55ee898d17" y="43.2"/>
      </g>
     </g>
    </g>
    <g id="xtick_14">
     <g id="line2d_38">
      <g>
       <use style="stroke:#000000;stroke-width:0.5;" x="291.795642702" xlink:href="#m27ad65f121" y="388.8"/>
      </g>
     </g>
     <g id="line2d_39">
      <g>
       <use style="stroke:#000000;stroke-width:0.5;" x="291.795642702" xlink:href="#m55ee898d17" y="43.2"/>
      </g>
     </g>
    </g>
    <g id="xtick_15">
     <g id="line2d_40">
      <g>
       <use style="stroke:#000000;stroke-width:0.5;" x="310.38652671" xlink:href="#m27ad65f121" y="388.8"/>
      </g>
     </g>
     <g id="line2d_41">
      <g>
       <use style="stroke:#000000;stroke-width:0.5;" x="310.38652671" xlink:href="#m55ee898d17" y="43.2"/>
      </g>
     </g>
    </g>
    <g id="xtick_16">
     <g id="line2d_42">
      <g>
       <use style="stroke:#000000;stroke-width:0.5;" x="324.806736645" xlink:href="#m27ad65f121" y="388.8"/>
      </g>
     </g>
     <g id="line2d_43">
      <g>
       <use style="stroke:#000000;stroke-width:0.5;" x="324.806736645" xlink:href="#m55ee898d17" y="43.2"/>
      </g>
     </g>
    </g>
    <g id="xtick_17">
     <g id="line2d_44">
      <g>
       <use style="stroke:#000000;stroke-width:0.5;" x="336.588906057" xlink:href="#m27ad65f121" y="388.8"/>
      </g>
     </g>
     <g id="line2d_45">
      <g>
       <use style="stroke:#000000;stroke-width:0.5;" x="336.588906057" xlink:href="#m55ee898d17" y="43.2"/>
      </g>
     </g>
    </g>
    <g id="xtick_18">
     <g id="line2d_46">
      <g>
       <use style="stroke:#000000;stroke-width:0.5;" x="346.550588354" xlink:href="#m27ad65f121" y="388.8"/>
      </g>
     </g>
     <g id="line2d_47">
      <g>
       <use style="stroke:#000000;stroke-width:0.5;" x="346.550588354" xlink:href="#m55ee898d17" y="43.2"/>
      </g>
     </g>
    </g>
    <g id="xtick_19">
     <g id="line2d_48">
      <g>
       <use style="stroke:#000000;stroke-width:0.5;" x="355.179790064" xlink:href="#m27ad65f121" y="388.8"/>
      </g>
     </g>
     <g id="line2d_49">
      <g>
       <use style="stroke:#000000;stroke-width:0.5;" x="355.179790064" xlink:href="#m55ee898d17" y="43.2"/>
      </g>
     </g>
    </g>
    <g id="xtick_20">
     <g id="line2d_50">
      <g>
       <use style="stroke:#000000;stroke-width:0.5;" x="362.791285405" xlink:href="#m27ad65f121" y="388.8"/>
      </g>
     </g>
     <g id="line2d_51">
      <g>
       <use style="stroke:#000000;stroke-width:0.5;" x="362.791285405" xlink:href="#m55ee898d17" y="43.2"/>
      </g>
     </g>
    </g>
    <g id="xtick_21">
     <g id="line2d_52">
      <g>
       <use style="stroke:#000000;stroke-width:0.5;" x="414.393263355" xlink:href="#m27ad65f121" y="388.8"/>
      </g>
     </g>
     <g id="line2d_53">
      <g>
       <use style="stroke:#000000;stroke-width:0.5;" x="414.393263355" xlink:href="#m55ee898d17" y="43.2"/>
      </g>
     </g>
    </g>
    <g id="xtick_22">
     <g id="line2d_54">
      <g>
       <use style="stroke:#000000;stroke-width:0.5;" x="440.595642702" xlink:href="#m27ad65f121" y="388.8"/>
      </g>
     </g>
     <g id="line2d_55">
      <g>
       <use style="stroke:#000000;stroke-width:0.5;" x="440.595642702" xlink:href="#m55ee898d17" y="43.2"/>
      </g>
     </g>
    </g>
    <g id="xtick_23">
     <g id="line2d_56">
      <g>
       <use style="stroke:#000000;stroke-width:0.5;" x="459.18652671" xlink:href="#m27ad65f121" y="388.8"/>
      </g>
     </g>
     <g id="line2d_57">
      <g>
       <use style="stroke:#000000;stroke-width:0.5;" x="459.18652671" xlink:href="#m55ee898d17" y="43.2"/>
      </g>
     </g>
    </g>
    <g id="xtick_24">
     <g id="line2d_58">
      <g>
       <use style="stroke:#000000;stroke-width:0.5;" x="473.606736645" xlink:href="#m27ad65f121" y="388.8"/>
      </g>
     </g>
     <g id="line2d_59">
      <g>
       <use style="stroke:#000000;stroke-width:0.5;" x="473.606736645" xlink:href="#m55ee898d17" y="43.2"/>
      </g>
     </g>
    </g>
    <g id="xtick_25">
     <g id="line2d_60">
      <g>
       <use style="stroke:#000000;stroke-width:0.5;" x="485.388906057" xlink:href="#m27ad65f121" y="388.8"/>
      </g>
     </g>
     <g id="line2d_61">
      <g>
       <use style="stroke:#000000;stroke-width:0.5;" x="485.388906057" xlink:href="#m55ee898d17" y="43.2"/>
      </g>
     </g>
    </g>
    <g id="xtick_26">
     <g id="line2d_62">
      <g>
       <use style="stroke:#000000;stroke-width:0.5;" x="495.350588354" xlink:href="#m27ad65f121" y="388.8"/>
      </g>
     </g>
     <g id="line2d_63">
      <g>
       <use style="stroke:#000000;stroke-width:0.5;" x="495.350588354" xlink:href="#m55ee898d17" y="43.2"/>
      </g>
     </g>
    </g>
    <g id="xtick_27">
     <g id="line2d_64">
      <g>
       <use style="stroke:#000000;stroke-width:0.5;" x="503.979790064" xlink:href="#m27ad65f121" y="388.8"/>
      </g>
     </g>
     <g id="line2d_65">
      <g>
       <use style="stroke:#000000;stroke-width:0.5;" x="503.979790064" xlink:href="#m55ee898d17" y="43.2"/>
      </g>
     </g>
    </g>
    <g id="xtick_28">
     <g id="line2d_66">
      <g>
       <use style="stroke:#000000;stroke-width:0.5;" x="511.591285405" xlink:href="#m27ad65f121" y="388.8"/>
      </g>
     </g>
     <g id="line2d_67">
      <g>
       <use style="stroke:#000000;stroke-width:0.5;" x="511.591285405" xlink:href="#m55ee898d17" y="43.2"/>
      </g>
     </g>
    </g>
   </g>
   <g id="matplotlib.axis_2">
    <g id="ytick_1">
     <g id="line2d_68">
      <defs>
       <path d="M 0 0 
L 4 0 
" id="m0fedb456de" style="stroke:#000000;stroke-width:0.5;"/>
      </defs>
      <g>
       <use style="stroke:#000000;stroke-width:0.5;" x="72.0" xlink:href="#m0fedb456de" y="388.8"/>
      </g>
     </g>
     <g id="line2d_69">
      <defs>
       <path d="M 0 0 
L -4 0 
" id="m895b111606" style="stroke:#000000;stroke-width:0.5;"/>
      </defs>
      <g>
       <use style="stroke:#000000;stroke-width:0.5;" x="518.4" xlink:href="#m895b111606" y="388.8"/>
      </g>
     </g>
     <g id="text_5">
      <!-- $\mathdefault{10^{-4}}$ -->
      <defs>
       <path d="M 37.796875 64.3125 
L 12.890625 25.390625 
L 37.796875 25.390625 
z
M 35.203125 72.90625 
L 47.609375 72.90625 
L 47.609375 25.390625 
L 58.015625 25.390625 
L 58.015625 17.1875 
L 47.609375 17.1875 
L 47.609375 0 
L 37.796875 0 
L 37.796875 17.1875 
L 4.890625 17.1875 
L 4.890625 26.703125 
z
" id="BitstreamVeraSans-Roman-34"/>
      </defs>
      <g transform="translate(42.68 392.364375)scale(0.12 -0.12)">
       <use transform="translate(0.0 0.7156250000000028)" xlink:href="#BitstreamVeraSans-Roman-31"/>
       <use transform="translate(63.623046875 0.7156250000000028)" xlink:href="#BitstreamVeraSans-Roman-30"/>
       <use transform="translate(132.75859375 47.965625)scale(0.7)" xlink:href="#BitstreamVeraSans-Roman-2d"/>
       <use transform="translate(158.0173828125 47.965625)scale(0.7)" xlink:href="#BitstreamVeraSans-Roman-34"/>
      </g>
     </g>
    </g>
    <g id="ytick_2">
     <g id="line2d_70">
      <g>
       <use style="stroke:#000000;stroke-width:0.5;" x="72.0" xlink:href="#m0fedb456de" y="302.4"/>
      </g>
     </g>
     <g id="line2d_71">
      <g>
       <use style="stroke:#000000;stroke-width:0.5;" x="518.4" xlink:href="#m895b111606" y="302.4"/>
      </g>
     </g>
     <g id="text_6">
      <!-- $\mathdefault{10^{-3}}$ -->
      <g transform="translate(42.68 306.024375)scale(0.12 -0.12)">
       <use transform="translate(0.0 0.796875)" xlink:href="#BitstreamVeraSans-Roman-31"/>
       <use transform="translate(63.623046875 0.796875)" xlink:href="#BitstreamVeraSans-Roman-30"/>
       <use transform="translate(132.75859375 48.046875)scale(0.7)" xlink:href="#BitstreamVeraSans-Roman-2d"/>
       <use transform="translate(158.0173828125 48.046875)scale(0.7)" xlink:href="#BitstreamVeraSans-Roman-33"/>
      </g>
     </g>
    </g>
    <g id="ytick_3">
     <g id="line2d_72">
      <g>
       <use style="stroke:#000000;stroke-width:0.5;" x="72.0" xlink:href="#m0fedb456de" y="216.0"/>
      </g>
     </g>
     <g id="line2d_73">
      <g>
       <use style="stroke:#000000;stroke-width:0.5;" x="518.4" xlink:href="#m895b111606" y="216.0"/>
      </g>
     </g>
     <g id="text_7">
      <!-- $\mathdefault{10^{-2}}$ -->
      <g transform="translate(42.68 219.624375)scale(0.12 -0.12)">
       <use transform="translate(0.0 0.796875)" xlink:href="#BitstreamVeraSans-Roman-31"/>
       <use transform="translate(63.623046875 0.796875)" xlink:href="#BitstreamVeraSans-Roman-30"/>
       <use transform="translate(132.75859375 48.046875)scale(0.7)" xlink:href="#BitstreamVeraSans-Roman-2d"/>
       <use transform="translate(158.0173828125 48.046875)scale(0.7)" xlink:href="#BitstreamVeraSans-Roman-32"/>
      </g>
     </g>
    </g>
    <g id="ytick_4">
     <g id="line2d_74">
      <g>
       <use style="stroke:#000000;stroke-width:0.5;" x="72.0" xlink:href="#m0fedb456de" y="129.6"/>
      </g>
     </g>
     <g id="line2d_75">
      <g>
       <use style="stroke:#000000;stroke-width:0.5;" x="518.4" xlink:href="#m895b111606" y="129.6"/>
      </g>
     </g>
     <g id="text_8">
      <!-- $\mathdefault{10^{-1}}$ -->
      <g transform="translate(42.68 133.164375)scale(0.12 -0.12)">
       <use transform="translate(0.0 0.7156250000000028)" xlink:href="#BitstreamVeraSans-Roman-31"/>
       <use transform="translate(63.623046875 0.7156250000000028)" xlink:href="#BitstreamVeraSans-Roman-30"/>
       <use transform="translate(132.75859375 47.965625)scale(0.7)" xlink:href="#BitstreamVeraSans-Roman-2d"/>
       <use transform="translate(158.0173828125 47.965625)scale(0.7)" xlink:href="#BitstreamVeraSans-Roman-31"/>
      </g>
     </g>
    </g>
    <g id="ytick_5">
     <g id="line2d_76">
      <defs>
       <path d="M 0 0 
L 2 0 
" id="m9018ee50a6" style="stroke:#000000;stroke-width:0.5;"/>
      </defs>
      <g>
       <use style="stroke:#000000;stroke-width:0.5;" x="72.0" xlink:href="#m9018ee50a6" y="362.791008375"/>
      </g>
     </g>
     <g id="line2d_77">
      <defs>
       <path d="M 0 0 
L -2 0 
" id="m00a79293a2" style="stroke:#000000;stroke-width:0.5;"/>
      </defs>
      <g>
       <use style="stroke:#000000;stroke-width:0.5;" x="518.4" xlink:href="#m00a79293a2" y="362.791008375"/>
      </g>
     </g>
    </g>
    <g id="ytick_6">
     <g id="line2d_78">
      <g>
       <use style="stroke:#000000;stroke-width:0.5;" x="72.0" xlink:href="#m9018ee50a6" y="347.576723592"/>
      </g>
     </g>
     <g id="line2d_79">
      <g>
       <use style="stroke:#000000;stroke-width:0.5;" x="518.4" xlink:href="#m00a79293a2" y="347.576723592"/>
      </g>
     </g>
    </g>
    <g id="ytick_7">
     <g id="line2d_80">
      <g>
       <use style="stroke:#000000;stroke-width:0.5;" x="72.0" xlink:href="#m9018ee50a6" y="336.782016749"/>
      </g>
     </g>
     <g id="line2d_81">
      <g>
       <use style="stroke:#000000;stroke-width:0.5;" x="518.4" xlink:href="#m00a79293a2" y="336.782016749"/>
      </g>
     </g>
    </g>
    <g id="ytick_8">
     <g id="line2d_82">
      <g>
       <use style="stroke:#000000;stroke-width:0.5;" x="72.0" xlink:href="#m9018ee50a6" y="328.408991625"/>
      </g>
     </g>
     <g id="line2d_83">
      <g>
       <use style="stroke:#000000;stroke-width:0.5;" x="518.4" xlink:href="#m00a79293a2" y="328.408991625"/>
      </g>
     </g>
    </g>
    <g id="ytick_9">
     <g id="line2d_84">
      <g>
       <use style="stroke:#000000;stroke-width:0.5;" x="72.0" xlink:href="#m9018ee50a6" y="321.567731967"/>
      </g>
     </g>
     <g id="line2d_85">
      <g>
       <use style="stroke:#000000;stroke-width:0.5;" x="518.4" xlink:href="#m00a79293a2" y="321.567731967"/>
      </g>
     </g>
    </g>
    <g id="ytick_10">
     <g id="line2d_86">
      <g>
       <use style="stroke:#000000;stroke-width:0.5;" x="72.0" xlink:href="#m9018ee50a6" y="315.783529343"/>
      </g>
     </g>
     <g id="line2d_87">
      <g>
       <use style="stroke:#000000;stroke-width:0.5;" x="518.4" xlink:href="#m00a79293a2" y="315.783529343"/>
      </g>
     </g>
    </g>
    <g id="ytick_11">
     <g id="line2d_88">
      <g>
       <use style="stroke:#000000;stroke-width:0.5;" x="72.0" xlink:href="#m9018ee50a6" y="310.773025124"/>
      </g>
     </g>
     <g id="line2d_89">
      <g>
       <use style="stroke:#000000;stroke-width:0.5;" x="518.4" xlink:href="#m00a79293a2" y="310.773025124"/>
      </g>
     </g>
    </g>
    <g id="ytick_12">
     <g id="line2d_90">
      <g>
       <use style="stroke:#000000;stroke-width:0.5;" x="72.0" xlink:href="#m9018ee50a6" y="306.353447184"/>
      </g>
     </g>
     <g id="line2d_91">
      <g>
       <use style="stroke:#000000;stroke-width:0.5;" x="518.4" xlink:href="#m00a79293a2" y="306.353447184"/>
      </g>
     </g>
    </g>
    <g id="ytick_13">
     <g id="line2d_92">
      <g>
       <use style="stroke:#000000;stroke-width:0.5;" x="72.0" xlink:href="#m9018ee50a6" y="276.391008375"/>
      </g>
     </g>
     <g id="line2d_93">
      <g>
       <use style="stroke:#000000;stroke-width:0.5;" x="518.4" xlink:href="#m00a79293a2" y="276.391008375"/>
      </g>
     </g>
    </g>
    <g id="ytick_14">
     <g id="line2d_94">
      <g>
       <use style="stroke:#000000;stroke-width:0.5;" x="72.0" xlink:href="#m9018ee50a6" y="261.176723592"/>
      </g>
     </g>
     <g id="line2d_95">
      <g>
       <use style="stroke:#000000;stroke-width:0.5;" x="518.4" xlink:href="#m00a79293a2" y="261.176723592"/>
      </g>
     </g>
    </g>
    <g id="ytick_15">
     <g id="line2d_96">
      <g>
       <use style="stroke:#000000;stroke-width:0.5;" x="72.0" xlink:href="#m9018ee50a6" y="250.382016749"/>
      </g>
     </g>
     <g id="line2d_97">
      <g>
       <use style="stroke:#000000;stroke-width:0.5;" x="518.4" xlink:href="#m00a79293a2" y="250.382016749"/>
      </g>
     </g>
    </g>
    <g id="ytick_16">
     <g id="line2d_98">
      <g>
       <use style="stroke:#000000;stroke-width:0.5;" x="72.0" xlink:href="#m9018ee50a6" y="242.008991625"/>
      </g>
     </g>
     <g id="line2d_99">
      <g>
       <use style="stroke:#000000;stroke-width:0.5;" x="518.4" xlink:href="#m00a79293a2" y="242.008991625"/>
      </g>
     </g>
    </g>
    <g id="ytick_17">
     <g id="line2d_100">
      <g>
       <use style="stroke:#000000;stroke-width:0.5;" x="72.0" xlink:href="#m9018ee50a6" y="235.167731967"/>
      </g>
     </g>
     <g id="line2d_101">
      <g>
       <use style="stroke:#000000;stroke-width:0.5;" x="518.4" xlink:href="#m00a79293a2" y="235.167731967"/>
      </g>
     </g>
    </g>
    <g id="ytick_18">
     <g id="line2d_102">
      <g>
       <use style="stroke:#000000;stroke-width:0.5;" x="72.0" xlink:href="#m9018ee50a6" y="229.383529343"/>
      </g>
     </g>
     <g id="line2d_103">
      <g>
       <use style="stroke:#000000;stroke-width:0.5;" x="518.4" xlink:href="#m00a79293a2" y="229.383529343"/>
      </g>
     </g>
    </g>
    <g id="ytick_19">
     <g id="line2d_104">
      <g>
       <use style="stroke:#000000;stroke-width:0.5;" x="72.0" xlink:href="#m9018ee50a6" y="224.373025124"/>
      </g>
     </g>
     <g id="line2d_105">
      <g>
       <use style="stroke:#000000;stroke-width:0.5;" x="518.4" xlink:href="#m00a79293a2" y="224.373025124"/>
      </g>
     </g>
    </g>
    <g id="ytick_20">
     <g id="line2d_106">
      <g>
       <use style="stroke:#000000;stroke-width:0.5;" x="72.0" xlink:href="#m9018ee50a6" y="219.953447184"/>
      </g>
     </g>
     <g id="line2d_107">
      <g>
       <use style="stroke:#000000;stroke-width:0.5;" x="518.4" xlink:href="#m00a79293a2" y="219.953447184"/>
      </g>
     </g>
    </g>
    <g id="ytick_21">
     <g id="line2d_108">
      <g>
       <use style="stroke:#000000;stroke-width:0.5;" x="72.0" xlink:href="#m9018ee50a6" y="189.991008375"/>
      </g>
     </g>
     <g id="line2d_109">
      <g>
       <use style="stroke:#000000;stroke-width:0.5;" x="518.4" xlink:href="#m00a79293a2" y="189.991008375"/>
      </g>
     </g>
    </g>
    <g id="ytick_22">
     <g id="line2d_110">
      <g>
       <use style="stroke:#000000;stroke-width:0.5;" x="72.0" xlink:href="#m9018ee50a6" y="174.776723592"/>
      </g>
     </g>
     <g id="line2d_111">
      <g>
       <use style="stroke:#000000;stroke-width:0.5;" x="518.4" xlink:href="#m00a79293a2" y="174.776723592"/>
      </g>
     </g>
    </g>
    <g id="ytick_23">
     <g id="line2d_112">
      <g>
       <use style="stroke:#000000;stroke-width:0.5;" x="72.0" xlink:href="#m9018ee50a6" y="163.982016749"/>
      </g>
     </g>
     <g id="line2d_113">
      <g>
       <use style="stroke:#000000;stroke-width:0.5;" x="518.4" xlink:href="#m00a79293a2" y="163.982016749"/>
      </g>
     </g>
    </g>
    <g id="ytick_24">
     <g id="line2d_114">
      <g>
       <use style="stroke:#000000;stroke-width:0.5;" x="72.0" xlink:href="#m9018ee50a6" y="155.608991625"/>
      </g>
     </g>
     <g id="line2d_115">
      <g>
       <use style="stroke:#000000;stroke-width:0.5;" x="518.4" xlink:href="#m00a79293a2" y="155.608991625"/>
      </g>
     </g>
    </g>
    <g id="ytick_25">
     <g id="line2d_116">
      <g>
       <use style="stroke:#000000;stroke-width:0.5;" x="72.0" xlink:href="#m9018ee50a6" y="148.767731967"/>
      </g>
     </g>
     <g id="line2d_117">
      <g>
       <use style="stroke:#000000;stroke-width:0.5;" x="518.4" xlink:href="#m00a79293a2" y="148.767731967"/>
      </g>
     </g>
    </g>
    <g id="ytick_26">
     <g id="line2d_118">
      <g>
       <use style="stroke:#000000;stroke-width:0.5;" x="72.0" xlink:href="#m9018ee50a6" y="142.983529343"/>
      </g>
     </g>
     <g id="line2d_119">
      <g>
       <use style="stroke:#000000;stroke-width:0.5;" x="518.4" xlink:href="#m00a79293a2" y="142.983529343"/>
      </g>
     </g>
    </g>
    <g id="ytick_27">
     <g id="line2d_120">
      <g>
       <use style="stroke:#000000;stroke-width:0.5;" x="72.0" xlink:href="#m9018ee50a6" y="137.973025124"/>
      </g>
     </g>
     <g id="line2d_121">
      <g>
       <use style="stroke:#000000;stroke-width:0.5;" x="518.4" xlink:href="#m00a79293a2" y="137.973025124"/>
      </g>
     </g>
    </g>
    <g id="ytick_28">
     <g id="line2d_122">
      <g>
       <use style="stroke:#000000;stroke-width:0.5;" x="72.0" xlink:href="#m9018ee50a6" y="133.553447184"/>
      </g>
     </g>
     <g id="line2d_123">
      <g>
       <use style="stroke:#000000;stroke-width:0.5;" x="518.4" xlink:href="#m00a79293a2" y="133.553447184"/>
      </g>
     </g>
    </g>
    <g id="ytick_29">
     <g id="line2d_124">
      <g>
       <use style="stroke:#000000;stroke-width:0.5;" x="72.0" xlink:href="#m9018ee50a6" y="103.591008375"/>
      </g>
     </g>
     <g id="line2d_125">
      <g>
       <use style="stroke:#000000;stroke-width:0.5;" x="518.4" xlink:href="#m00a79293a2" y="103.591008375"/>
      </g>
     </g>
    </g>
    <g id="ytick_30">
     <g id="line2d_126">
      <g>
       <use style="stroke:#000000;stroke-width:0.5;" x="72.0" xlink:href="#m9018ee50a6" y="88.3767235922"/>
      </g>
     </g>
     <g id="line2d_127">
      <g>
       <use style="stroke:#000000;stroke-width:0.5;" x="518.4" xlink:href="#m00a79293a2" y="88.3767235922"/>
      </g>
     </g>
    </g>
    <g id="ytick_31">
     <g id="line2d_128">
      <g>
       <use style="stroke:#000000;stroke-width:0.5;" x="72.0" xlink:href="#m9018ee50a6" y="77.5820167493"/>
      </g>
     </g>
     <g id="line2d_129">
      <g>
       <use style="stroke:#000000;stroke-width:0.5;" x="518.4" xlink:href="#m00a79293a2" y="77.5820167493"/>
      </g>
     </g>
    </g>
    <g id="ytick_32">
     <g id="line2d_130">
      <g>
       <use style="stroke:#000000;stroke-width:0.5;" x="72.0" xlink:href="#m9018ee50a6" y="69.2089916254"/>
      </g>
     </g>
     <g id="line2d_131">
      <g>
       <use style="stroke:#000000;stroke-width:0.5;" x="518.4" xlink:href="#m00a79293a2" y="69.2089916254"/>
      </g>
     </g>
    </g>
    <g id="ytick_33">
     <g id="line2d_132">
      <g>
       <use style="stroke:#000000;stroke-width:0.5;" x="72.0" xlink:href="#m9018ee50a6" y="62.3677319669"/>
      </g>
     </g>
     <g id="line2d_133">
      <g>
       <use style="stroke:#000000;stroke-width:0.5;" x="518.4" xlink:href="#m00a79293a2" y="62.3677319669"/>
      </g>
     </g>
    </g>
    <g id="ytick_34">
     <g id="line2d_134">
      <g>
       <use style="stroke:#000000;stroke-width:0.5;" x="72.0" xlink:href="#m9018ee50a6" y="56.5835293428"/>
      </g>
     </g>
     <g id="line2d_135">
      <g>
       <use style="stroke:#000000;stroke-width:0.5;" x="518.4" xlink:href="#m00a79293a2" y="56.5835293428"/>
      </g>
     </g>
    </g>
    <g id="ytick_35">
     <g id="line2d_136">
      <g>
       <use style="stroke:#000000;stroke-width:0.5;" x="72.0" xlink:href="#m9018ee50a6" y="51.5730251239"/>
      </g>
     </g>
     <g id="line2d_137">
      <g>
       <use style="stroke:#000000;stroke-width:0.5;" x="518.4" xlink:href="#m00a79293a2" y="51.5730251239"/>
      </g>
     </g>
    </g>
    <g id="ytick_36">
     <g id="line2d_138">
      <g>
       <use style="stroke:#000000;stroke-width:0.5;" x="72.0" xlink:href="#m9018ee50a6" y="47.1534471844"/>
      </g>
     </g>
     <g id="line2d_139">
      <g>
       <use style="stroke:#000000;stroke-width:0.5;" x="518.4" xlink:href="#m00a79293a2" y="47.1534471844"/>
      </g>
     </g>
    </g>
   </g>
  </g>
 </g>
 <defs>
  <clipPath id="pc87a0f14fa">
   <rect height="345.6" width="446.4" x="72.0" y="43.2"/>
  </clipPath>
 </defs>
</svg>
