<?xml version="1.0" encoding="utf-8" standalone="no"?>
<!DOCTYPE svg PUBLIC "-//W3C//DTD SVG 1.1//EN"
  "http://www.w3.org/Graphics/SVG/1.1/DTD/svg11.dtd">
<!-- Created with matplotlib (http://matplotlib.org/) -->
<svg height="747pt" version="1.1" viewBox="0 0 1512 747" width="1512pt" xmlns="http://www.w3.org/2000/svg" xmlns:xlink="http://www.w3.org/1999/xlink">
 <defs>
  <style type="text/css">
*{stroke-linecap:butt;stroke-linejoin:round;stroke-miterlimit:100000;}
  </style>
 </defs>
 <g id="figure_1">
  <g id="patch_1">
   <path d="M 0 747 
L 1512 747 
L 1512 0 
L 0 0 
z
" style="fill:#ffffff;"/>
  </g>
  <g id="axes_1">
   <g id="patch_2">
    <path d="M 189 672.3 
L 1360.8 672.3 
L 1360.8 74.7 
L 189 74.7 
z
" style="fill:#ffffff;"/>
   </g>
   <g id="line2d_1">
    <path clip-path="url(#pdacbaff51c)" d="M 189 672.3 
L 208.53 672.3 
L 228.06 672.3 
L 247.59 672.3 
L 267.12 672.3 
L 286.65 672.3 
L 306.18 672.3 
L 325.71 672.3 
L 345.24 672.3 
L 364.77 672.3 
L 384.3 672.3 
L 403.83 672.3 
L 423.36 672.3 
L 442.89 672.3 
L 462.42 672.3 
L 481.95 672.3 
L 501.48 672.3 
L 521.01 672.3 
L 540.54 672.3 
L 560.07 672.3 
L 579.6 672.3 
L 599.13 672.3 
L 618.66 672.3 
L 638.19 672.3 
L 657.72 672.3 
L 677.25 672.3 
L 696.78 672.3 
L 716.31 672.3 
L 735.84 672.3 
L 755.37 672.3 
L 774.9 672.3 
L 794.43 672.3 
L 813.96 672.3 
L 833.49 672.3 
L 853.02 672.3 
L 872.55 672.3 
L 892.08 672.3 
L 911.61 672.3 
L 931.14 672.3 
L 950.67 672.3 
L 970.2 610.240941 
L 989.73 560.89138 
L 1009.26 522.661047 
L 1028.79 489.08071 
L 1048.32 458.272288 
L 1067.85 429.389698 
L 1087.38 401.968534 
L 1106.91 375.721823 
L 1126.44 350.457331 
L 1145.97 326.038435 
L 1165.5 302.363554 
L 1185.03 279.354399 
L 1204.56 256.948779 
L 1224.09 235.096176 
L 1243.62 213.754401 
L 1263.15 192.888621 
L 1282.68 172.467876 
L 1302.21 152.465975 
L 1321.74 132.859775 
L 1341.27 113.628739 
L 1360.8 94.754486 
" style="fill:none;stroke:#ff1e1e;stroke-linecap:square;"/>
   </g>
   <g id="line2d_2">
    <path clip-path="url(#pdacbaff51c)" d="M 189 672.3 
L 208.53 672.3 
L 228.06 672.3 
L 247.59 672.3 
L 267.12 672.3 
L 286.65 672.3 
L 306.18 672.3 
L 325.71 672.3 
L 345.24 672.3 
L 364.77 672.3 
L 384.3 672.3 
L 403.83 672.3 
L 423.36 672.3 
L 442.89 672.3 
L 462.42 672.3 
L 481.95 672.3 
L 501.48 672.3 
L 521.01 672.3 
L 540.54 672.3 
L 560.07 672.3 
L 579.6 672.3 
L 599.13 672.3 
L 618.66 672.3 
L 638.19 672.3 
L 657.72 672.3 
L 677.25 672.3 
L 696.78 672.3 
L 716.31 672.3 
L 735.84 672.3 
L 755.37 672.3 
L 774.9 672.3 
L 794.43 672.3 
L 813.96 672.3 
L 833.49 672.3 
L 853.02 671.195136 
L 872.55 670.989281 
L 892.08 668.179789 
L 911.61 660.24175 
L 931.14 642.225238 
L 950.67 614.292838 
L 970.2 583.077978 
L 989.73 550.355451 
L 1009.26 518.154505 
L 1028.79 487.948083 
L 1048.32 458.076141 
L 1067.85 428.651029 
L 1087.38 402.929376 
L 1106.91 377.525201 
L 1126.44 352.456366 
L 1145.97 328.478331 
L 1165.5 304.773345 
L 1185.03 281.770336 
L 1204.56 259.300497 
L 1224.09 237.445806 
L 1243.62 216.122143 
L 1263.15 195.377738 
L 1282.68 174.979085 
L 1302.21 154.631207 
L 1321.74 135.406673 
L 1341.27 116.078624 
L 1360.8 97.497142 
" style="fill:none;stroke:#581845;stroke-linecap:square;"/>
   </g>
   <g id="line2d_3">
    <path clip-path="url(#pdacbaff51c)" d="M 189 672.3 
L 208.53 672.3 
L 228.06 672.3 
L 247.59 672.3 
L 267.12 672.3 
L 286.65 672.3 
L 306.18 672.3 
L 325.71 672.3 
L 345.24 672.3 
L 364.77 672.3 
L 384.3 672.3 
L 403.83 672.3 
L 423.36 672.3 
L 442.89 672.3 
L 462.42 672.3 
L 481.95 672.3 
L 501.48 672.3 
L 521.01 672.3 
L 540.54 672.3 
L 560.07 672.3 
L 579.6 672.3 
L 599.13 672.3 
L 618.66 672.3 
L 638.19 672.3 
L 657.72 672.3 
L 677.25 672.3 
L 696.78 672.098773 
L 716.31 671.964626 
L 735.84 671.457241 
L 755.37 670.544138 
L 774.9 669.354971 
L 794.43 666.986668 
L 813.96 663.327416 
L 833.49 658.415054 
L 853.02 650.907851 
L 872.55 638.092478 
L 892.08 623.956462 
L 911.61 607.286605 
L 931.14 588.794268 
L 950.67 569.510114 
L 970.2 545.663012 
L 989.73 521.576997 
L 1009.26 496.912699 
L 1028.79 473.125325 
L 1048.32 448.340148 
L 1067.85 425.108129 
L 1087.38 399.336061 
L 1106.91 377.119888 
L 1126.44 353.974321 
L 1145.97 330.673554 
L 1165.5 307.962808 
L 1185.03 286.037952 
L 1204.56 264.575357 
L 1224.09 243.119581 
L 1243.62 223.094825 
L 1263.15 203.027413 
L 1282.68 181.982435 
L 1302.21 161.955887 
L 1321.74 143.424251 
L 1341.27 124.288949 
L 1360.8 105.127625 
" style="fill:none;stroke:#26b7d8;stroke-linecap:square;"/>
   </g>
   <g id="line2d_4">
    <path clip-path="url(#pdacbaff51c)" d="M 189 672.3 
L 208.53 672.3 
L 228.06 672.3 
L 247.59 672.3 
L 267.12 672.3 
L 286.65 672.3 
L 306.18 672.3 
L 325.71 672.3 
L 345.24 672.3 
L 364.77 672.3 
L 384.3 672.3 
L 403.83 672.3 
L 423.36 672.3 
L 442.89 672.3 
L 462.42 672.3 
L 481.95 672.3 
L 501.48 672.118596 
L 521.01 672.057609 
L 540.54 671.858608 
L 560.07 671.828944 
L 579.6 671.569499 
L 599.13 671.204248 
L 618.66 670.534632 
L 638.19 669.887898 
L 657.72 669.415985 
L 677.25 667.324139 
L 696.78 664.49936 
L 716.31 661.1333 
L 735.84 657.386414 
L 755.37 651.824371 
L 774.9 645.188063 
L 794.43 638.42046 
L 813.96 629.800652 
L 833.49 619.586325 
L 853.02 607.329466 
L 872.55 593.777416 
L 892.08 578.331924 
L 911.61 562.339151 
L 931.14 544.951001 
L 950.67 527.71225 
L 970.2 509.663998 
L 989.73 491.0817 
L 1009.26 470.906741 
L 1028.79 450.932218 
L 1048.32 431.056163 
L 1067.85 409.736196 
L 1087.38 389.811067 
L 1106.91 368.391556 
L 1126.44 347.320703 
L 1145.97 326.498306 
L 1165.5 306.426393 
L 1185.03 285.902178 
L 1204.56 266.528102 
L 1224.09 247.950153 
L 1243.62 228.875658 
L 1263.15 209.1085 
L 1282.68 189.531744 
L 1302.21 170.444372 
L 1321.74 151.528323 
L 1341.27 132.955636 
L 1360.8 115.951535 
" style="fill:none;stroke:#8414a4;stroke-linecap:square;"/>
   </g>
   <g id="line2d_5">
    <path clip-path="url(#pdacbaff51c)" d="M 189 672.3 
L 208.53 672.3 
L 228.06 672.3 
L 247.59 672.3 
L 267.12 672.3 
L 286.65 672.082449 
L 306.18 672.082452 
L 325.71 672.082454 
L 345.24 672.082456 
L 364.77 672.018351 
L 384.3 671.736707 
L 403.83 671.651917 
L 423.36 671.273868 
L 442.89 671.003829 
L 462.42 669.990038 
L 481.95 669.512414 
L 501.48 668.879014 
L 521.01 667.738755 
L 540.54 666.486254 
L 560.07 664.716848 
L 579.6 662.795792 
L 599.13 660.050585 
L 618.66 656.471688 
L 638.19 652.526936 
L 657.72 647.944913 
L 677.25 642.404932 
L 696.78 636.315969 
L 716.31 629.877723 
L 735.84 622.591102 
L 755.37 614.479141 
L 774.9 604.748135 
L 794.43 595.268166 
L 813.96 584.46694 
L 833.49 572.744217 
L 853.02 561.518872 
L 872.55 547.80021 
L 892.08 533.932028 
L 911.61 519.58598 
L 931.14 504.049376 
L 950.67 488.193452 
L 970.2 472.045444 
L 989.73 455.548029 
L 1009.26 437.157982 
L 1028.79 420.449821 
L 1048.32 403.36114 
L 1067.85 385.479805 
L 1087.38 367.996633 
L 1106.91 350.080166 
L 1126.44 332.044406 
L 1145.97 314.368177 
L 1165.5 296.88509 
L 1185.03 278.503721 
L 1204.56 260.024352 
L 1224.09 242.342252 
L 1243.62 224.859209 
L 1263.15 206.429633 
L 1282.68 189.305878 
L 1302.21 170.507435 
L 1321.74 152.093001 
L 1341.27 135.821527 
L 1360.8 117.892339 
" style="fill:none;stroke:#ffd23a;stroke-linecap:square;"/>
   </g>
   <g id="line2d_6">
    <path clip-path="url(#pdacbaff51c)" d="M 189 671.769112 
L 208.53 671.533163 
L 228.06 671.238228 
L 247.59 671.179242 
L 267.12 671.061269 
L 286.65 670.825321 
L 306.18 670.575526 
L 325.71 669.978072 
L 345.24 669.473279 
L 364.77 668.867581 
L 384.3 667.689274 
L 403.83 666.957933 
L 423.36 665.609935 
L 442.89 664.162079 
L 462.42 662.06515 
L 481.95 660.117953 
L 501.48 657.521663 
L 521.01 654.926051 
L 540.54 651.481175 
L 560.07 648.285954 
L 579.6 643.820287 
L 599.13 639.580975 
L 618.66 633.945046 
L 638.19 628.757941 
L 657.72 621.974806 
L 677.25 615.341327 
L 696.78 608.009799 
L 716.31 600.230182 
L 735.84 591.064573 
L 755.37 581.601058 
L 774.9 572.137666 
L 794.43 561.478895 
L 813.96 550.571052 
L 833.49 539.56364 
L 853.02 527.659702 
L 872.55 514.659983 
L 892.08 502.407347 
L 911.61 487.813734 
L 931.14 473.020841 
L 950.67 458.77558 
L 970.2 445.329562 
L 989.73 429.490685 
L 1009.26 413.851588 
L 1028.79 398.312116 
L 1048.32 383.220903 
L 1067.85 366.73411 
L 1087.38 351.342759 
L 1106.91 334.15907 
L 1126.44 317.396905 
L 1145.97 301.590348 
L 1165.5 285.95016 
L 1185.03 267.91976 
L 1204.56 251.683195 
L 1224.09 235.642896 
L 1243.62 219.05879 
L 1263.15 203.173497 
L 1282.68 186.428461 
L 1302.21 169.521022 
L 1321.74 153.03844 
L 1341.27 136.697829 
L 1360.8 121.952723 
" style="fill:none;stroke:#ff9300;stroke-linecap:square;"/>
   </g>
   <g id="line2d_7">
    <path clip-path="url(#pdacbaff51c)" d="M 189 669.051436 
L 208.53 668.696124 
L 228.06 667.833232 
L 247.59 666.818075 
L 267.12 665.863407 
L 286.65 664.596443 
L 306.18 663.309307 
L 325.71 661.752278 
L 345.24 659.994333 
L 364.77 657.78434 
L 384.3 655.736624 
L 403.83 653.076622 
L 423.36 650.56724 
L 442.89 647.053904 
L 462.42 643.230461 
L 481.95 639.621166 
L 501.48 635.690313 
L 521.01 630.945368 
L 540.54 624.965227 
L 560.07 620.070812 
L 579.6 615.273826 
L 599.13 609.034777 
L 618.66 602.948365 
L 638.19 596.162815 
L 657.72 588.429351 
L 677.25 581.644143 
L 696.78 573.162663 
L 716.31 564.281859 
L 735.84 554.672711 
L 755.37 545.446272 
L 774.9 536.011517 
L 794.43 524.992118 
L 813.96 513.872335 
L 833.49 503.230594 
L 853.02 491.513662 
L 872.55 481.029321 
L 892.08 468.268958 
L 911.61 454.16253 
L 931.14 442.249598 
L 950.67 430.037426 
L 970.2 416.981228 
L 989.73 403.029339 
L 1009.26 388.874908 
L 1028.79 374.470241 
L 1048.32 360.05555 
L 1067.85 345.159504 
L 1087.38 330.460253 
L 1106.91 315.981842 
L 1126.44 301.330864 
L 1145.97 286.643834 
L 1165.5 270.904006 
L 1185.03 256.011354 
L 1204.56 241.821254 
L 1224.09 226.236945 
L 1243.62 210.618499 
L 1263.15 195.128033 
L 1282.68 180.733174 
L 1302.21 166.73606 
L 1321.74 151.491973 
L 1341.27 135.895795 
L 1360.8 120.158829 
" style="fill:none;stroke:#f50fe6;stroke-linecap:square;"/>
   </g>
   <g id="line2d_8">
    <path clip-path="url(#pdacbaff51c)" d="M 189 662.984638 
L 208.53 662.083189 
L 228.06 660.831136 
L 247.59 658.627515 
L 267.12 656.774467 
L 286.65 654.520761 
L 306.18 652.868043 
L 325.71 650.16324 
L 345.24 647.01312 
L 364.77 643.56461 
L 384.3 639.266686 
L 403.83 635.018757 
L 423.36 631.489061 
L 442.89 627.392696 
L 462.42 623.088352 
L 481.95 618.352252 
L 501.48 612.269382 
L 521.01 606.585367 
L 540.54 601.69885 
L 560.07 594.718987 
L 579.6 588.686116 
L 599.13 581.755757 
L 618.66 574.526234 
L 638.19 567.944789 
L 657.72 560.166788 
L 677.25 551.292105 
L 696.78 543.065719 
L 716.31 532.546813 
L 735.84 523.073931 
L 755.37 514.348746 
L 774.9 505.524817 
L 794.43 494.518799 
L 813.96 483.959666 
L 833.49 474.327093 
L 853.02 462.469697 
L 872.55 451.861004 
L 892.08 439.409652 
L 911.61 426.061858 
L 931.14 414.009091 
L 950.67 400.960784 
L 970.2 388.90801 
L 989.73 376.107981 
L 1009.26 363.706258 
L 1028.79 350.009493 
L 1048.32 337.458136 
L 1067.85 324.607932 
L 1087.38 311.807536 
L 1106.91 297.164366 
L 1126.44 284.065144 
L 1145.97 269.67091 
L 1165.5 257.119408 
L 1185.03 243.472267 
L 1204.56 229.928248 
L 1224.09 216.280405 
L 1243.62 201.588657 
L 1263.15 186.646444 
L 1282.68 172.950596 
L 1302.21 158.257777 
L 1321.74 144.361947 
L 1341.27 129.868594 
L 1360.8 114.677952 
" style="fill:none;stroke:#1000a0;stroke-linecap:square;"/>
   </g>
   <g id="line2d_9">
    <path clip-path="url(#pdacbaff51c)" d="M 189 648.609702 
L 208.53 646.460552 
L 228.06 643.761624 
L 247.59 641.162644 
L 267.12 638.163785 
L 286.65 635.014962 
L 306.18 631.766225 
L 325.71 628.267604 
L 345.24 623.969307 
L 364.77 619.720993 
L 384.3 614.872918 
L 403.83 609.724962 
L 423.36 605.976447 
L 442.89 600.278706 
L 462.42 594.170446 
L 481.95 589.379743 
L 501.48 584.089882 
L 521.01 578.551387 
L 540.54 571.463064 
L 560.07 565.07817 
L 579.6 558.125227 
L 599.13 551.050765 
L 618.66 543.777426 
L 638.19 535.856661 
L 657.72 526.690655 
L 677.25 518.222094 
L 696.78 509.903009 
L 716.31 500.936338 
L 735.84 491.521349 
L 755.37 482.60454 
L 774.9 473.189615 
L 794.43 464.073626 
L 813.96 454.011216 
L 833.49 443.451003 
L 853.02 432.890895 
L 872.55 421.683036 
L 892.08 410.375793 
L 911.61 398.221729 
L 931.14 386.963969 
L 950.67 375.208006 
L 970.2 364.697387 
L 989.73 352.194218 
L 1009.26 340.587735 
L 1028.79 327.885421 
L 1048.32 316.179623 
L 1067.85 303.491833 
L 1087.38 289.245236 
L 1106.91 276.941733 
L 1126.44 264.389035 
L 1145.97 251.538562 
L 1165.5 238.63877 
L 1185.03 226.635591 
L 1204.56 213.13827 
L 1224.09 200.738003 
L 1243.62 187.6905 
L 1263.15 175.040684 
L 1282.68 162.639684 
L 1302.21 148.246335 
L 1321.74 135.147907 
L 1341.27 119.509442 
L 1360.8 106.211956 
" style="fill:none;stroke:#595866;stroke-linecap:square;"/>
   </g>
   <g id="line2d_10">
    <path clip-path="url(#pdacbaff51c)" d="M 189 633.587616 
L 208.53 629.986476 
L 228.06 625.735128 
L 247.59 622.734181 
L 267.12 619.14025 
L 286.65 614.797498 
L 306.18 611.00383 
L 325.71 606.66843 
L 345.24 602.678406 
L 364.77 597.391878 
L 384.3 592.055515 
L 403.83 587.068282 
L 423.36 581.033749 
L 442.89 575.647576 
L 462.42 569.613121 
L 481.95 563.681973 
L 501.48 557.600098 
L 521.01 551.169657 
L 540.54 544.539896 
L 560.07 537.262785 
L 579.6 530.441939 
L 599.13 521.968512 
L 618.66 513.64432 
L 638.19 506.366865 
L 657.72 497.245085 
L 677.25 488.67121 
L 696.78 479.655732 
L 716.31 471.354686 
L 735.84 462.433622 
L 755.37 453.861463 
L 774.9 443.943723 
L 794.43 433.228644 
L 813.96 423.958963 
L 833.49 414.25739 
L 853.02 405.094526 
L 872.55 394.884847 
L 892.08 384.42596 
L 911.61 372.92102 
L 931.14 361.565254 
L 950.67 351.901276 
L 970.2 340.341821 
L 989.73 328.796239 
L 1009.26 317.638707 
L 1028.79 306.681574 
L 1048.32 295.272225 
L 1067.85 283.169917 
L 1087.38 271.216376 
L 1106.91 260.35747 
L 1126.44 248.544029 
L 1145.97 236.46615 
L 1165.5 223.856471 
L 1185.03 212.550765 
L 1204.56 200.09957 
L 1224.09 188.345658 
L 1243.62 176.093711 
L 1263.15 163.692321 
L 1282.68 151.19129 
L 1302.21 138.590663 
L 1321.74 126.687441 
L 1341.27 114.436045 
L 1360.8 101.537036 
" style="fill:none;stroke:#147f2a;stroke-linecap:square;"/>
   </g>
   <g id="line2d_11">
    <path clip-path="url(#pdacbaff51c)" d="M 189 614.234999 
L 208.53 609.942824 
L 228.06 606.350487 
L 247.59 602.209793 
L 267.12 597.96944 
L 286.65 593.585085 
L 306.18 588.752525 
L 325.71 583.770523 
L 345.24 579.386353 
L 364.77 574.005819 
L 384.3 569.073694 
L 403.83 564.091784 
L 423.36 558.362757 
L 442.89 551.229535 
L 462.42 545.450516 
L 481.95 538.826502 
L 501.48 532.252373 
L 521.01 525.080624 
L 540.54 518.357116 
L 560.07 509.790879 
L 579.6 501.573267 
L 599.13 493.953297 
L 618.66 485.785489 
L 638.19 477.518073 
L 657.72 469.947904 
L 677.25 461.331842 
L 696.78 453.811437 
L 716.31 445.394517 
L 735.84 436.629228 
L 755.37 426.967487 
L 774.9 417.903407 
L 794.43 408.191921 
L 813.96 399.327143 
L 833.49 388.470184 
L 853.02 377.71278 
L 872.55 369.495349 
L 892.08 360.232061 
L 911.61 350.171941 
L 931.14 340.809061 
L 950.67 330.848519 
L 970.2 319.991504 
L 989.73 308.188228 
L 1009.26 297.480654 
L 1028.79 286.075833 
L 1048.32 275.467851 
L 1067.85 264.810056 
L 1087.38 253.60441 
L 1106.91 241.95048 
L 1126.44 231.442025 
L 1145.97 219.887682 
L 1165.5 208.980774 
L 1185.03 198.372679 
L 1204.56 186.37007 
L 1224.09 176.010946 
L 1243.62 164.456479 
L 1263.15 152.652932 
L 1282.68 141.54649 
L 1302.21 129.144768 
L 1321.74 117.341196 
L 1341.27 105.68789 
L 1360.8 94.151847 
" style="fill:none;stroke:#00f6aa;stroke-linecap:square;"/>
   </g>
   <g id="patch_3">
    <path d="M 189 672.3 
L 1360.8 672.3 
" style="fill:none;stroke:#000000;stroke-linecap:square;stroke-linejoin:miter;"/>
   </g>
   <g id="patch_4">
    <path d="M 1360.8 672.3 
L 1360.8 74.7 
" style="fill:none;stroke:#000000;stroke-linecap:square;stroke-linejoin:miter;"/>
   </g>
   <g id="patch_5">
    <path d="M 189 74.7 
L 1360.8 74.7 
" style="fill:none;stroke:#000000;stroke-linecap:square;stroke-linejoin:miter;"/>
   </g>
   <g id="patch_6">
    <path d="M 189 672.3 
L 189 74.7 
" style="fill:none;stroke:#000000;stroke-linecap:square;stroke-linejoin:miter;"/>
   </g>
   <g id="matplotlib.axis_1">
    <g id="xtick_1">
     <g id="line2d_12">
      <defs>
       <path d="M 0 0 
L 0 -4 
" id="m6e6144f713" style="stroke:#000000;stroke-width:0.5;"/>
      </defs>
      <g>
       <use style="stroke:#000000;stroke-width:0.5;" x="189.0" xlink:href="#m6e6144f713" y="672.3"/>
      </g>
     </g>
     <g id="line2d_13">
      <defs>
       <path d="M 0 0 
L 0 4 
" id="m5aa4159991" style="stroke:#000000;stroke-width:0.5;"/>
      </defs>
      <g>
       <use style="stroke:#000000;stroke-width:0.5;" x="189.0" xlink:href="#m5aa4159991" y="74.7"/>
      </g>
     </g>
     <g id="text_1">
      <!-- −400 -->
      <defs>
       <path d="M 10.59375 35.5 
L 73.1875 35.5 
L 73.1875 27.203125 
L 10.59375 27.203125 
z
" id="BitstreamVeraSans-Roman-2212"/>
       <path d="M 37.796875 64.3125 
L 12.890625 25.390625 
L 37.796875 25.390625 
z
M 35.203125 72.90625 
L 47.609375 72.90625 
L 47.609375 25.390625 
L 58.015625 25.390625 
L 58.015625 17.1875 
L 47.609375 17.1875 
L 47.609375 0 
L 37.796875 0 
L 37.796875 17.1875 
L 4.890625 17.1875 
L 4.890625 26.703125 
z
" id="BitstreamVeraSans-Roman-34"/>
       <path d="M 31.78125 66.40625 
Q 24.171875 66.40625 20.328125 58.90625 
Q 16.5 51.421875 16.5 36.375 
Q 16.5 21.390625 20.328125 13.890625 
Q 24.171875 6.390625 31.78125 6.390625 
Q 39.453125 6.390625 43.28125 13.890625 
Q 47.125 21.390625 47.125 36.375 
Q 47.125 51.421875 43.28125 58.90625 
Q 39.453125 66.40625 31.78125 66.40625 
M 31.78125 74.21875 
Q 44.046875 74.21875 50.515625 64.515625 
Q 56.984375 54.828125 56.984375 36.375 
Q 56.984375 17.96875 50.515625 8.265625 
Q 44.046875 -1.421875 31.78125 -1.421875 
Q 19.53125 -1.421875 13.0625 8.265625 
Q 6.59375 17.96875 6.59375 36.375 
Q 6.59375 54.828125 13.0625 64.515625 
Q 19.53125 74.21875 31.78125 74.21875 
" id="BitstreamVeraSans-Roman-30"/>
      </defs>
      <g transform="translate(172.5196875 685.418125)scale(0.12 -0.12)">
       <use xlink:href="#BitstreamVeraSans-Roman-2212"/>
       <use x="83.7890625" xlink:href="#BitstreamVeraSans-Roman-34"/>
       <use x="147.412109375" xlink:href="#BitstreamVeraSans-Roman-30"/>
       <use x="211.03515625" xlink:href="#BitstreamVeraSans-Roman-30"/>
      </g>
     </g>
    </g>
    <g id="xtick_2">
     <g id="line2d_14">
      <g>
       <use style="stroke:#000000;stroke-width:0.5;" x="384.3" xlink:href="#m6e6144f713" y="672.3"/>
      </g>
     </g>
     <g id="line2d_15">
      <g>
       <use style="stroke:#000000;stroke-width:0.5;" x="384.3" xlink:href="#m5aa4159991" y="74.7"/>
      </g>
     </g>
     <g id="text_2">
      <!-- −300 -->
      <defs>
       <path d="M 40.578125 39.3125 
Q 47.65625 37.796875 51.625 33 
Q 55.609375 28.21875 55.609375 21.1875 
Q 55.609375 10.40625 48.1875 4.484375 
Q 40.765625 -1.421875 27.09375 -1.421875 
Q 22.515625 -1.421875 17.65625 -0.515625 
Q 12.796875 0.390625 7.625 2.203125 
L 7.625 11.71875 
Q 11.71875 9.328125 16.59375 8.109375 
Q 21.484375 6.890625 26.8125 6.890625 
Q 36.078125 6.890625 40.9375 10.546875 
Q 45.796875 14.203125 45.796875 21.1875 
Q 45.796875 27.640625 41.28125 31.265625 
Q 36.765625 34.90625 28.71875 34.90625 
L 20.21875 34.90625 
L 20.21875 43.015625 
L 29.109375 43.015625 
Q 36.375 43.015625 40.234375 45.921875 
Q 44.09375 48.828125 44.09375 54.296875 
Q 44.09375 59.90625 40.109375 62.90625 
Q 36.140625 65.921875 28.71875 65.921875 
Q 24.65625 65.921875 20.015625 65.03125 
Q 15.375 64.15625 9.8125 62.3125 
L 9.8125 71.09375 
Q 15.4375 72.65625 20.34375 73.4375 
Q 25.25 74.21875 29.59375 74.21875 
Q 40.828125 74.21875 47.359375 69.109375 
Q 53.90625 64.015625 53.90625 55.328125 
Q 53.90625 49.265625 50.4375 45.09375 
Q 46.96875 40.921875 40.578125 39.3125 
" id="BitstreamVeraSans-Roman-33"/>
      </defs>
      <g transform="translate(367.8196875 685.418125)scale(0.12 -0.12)">
       <use xlink:href="#BitstreamVeraSans-Roman-2212"/>
       <use x="83.7890625" xlink:href="#BitstreamVeraSans-Roman-33"/>
       <use x="147.412109375" xlink:href="#BitstreamVeraSans-Roman-30"/>
       <use x="211.03515625" xlink:href="#BitstreamVeraSans-Roman-30"/>
      </g>
     </g>
    </g>
    <g id="xtick_3">
     <g id="line2d_16">
      <g>
       <use style="stroke:#000000;stroke-width:0.5;" x="579.6" xlink:href="#m6e6144f713" y="672.3"/>
      </g>
     </g>
     <g id="line2d_17">
      <g>
       <use style="stroke:#000000;stroke-width:0.5;" x="579.6" xlink:href="#m5aa4159991" y="74.7"/>
      </g>
     </g>
     <g id="text_3">
      <!-- −200 -->
      <defs>
       <path d="M 19.1875 8.296875 
L 53.609375 8.296875 
L 53.609375 0 
L 7.328125 0 
L 7.328125 8.296875 
Q 12.9375 14.109375 22.625 23.890625 
Q 32.328125 33.6875 34.8125 36.53125 
Q 39.546875 41.84375 41.421875 45.53125 
Q 43.3125 49.21875 43.3125 52.78125 
Q 43.3125 58.59375 39.234375 62.25 
Q 35.15625 65.921875 28.609375 65.921875 
Q 23.96875 65.921875 18.8125 64.3125 
Q 13.671875 62.703125 7.8125 59.421875 
L 7.8125 69.390625 
Q 13.765625 71.78125 18.9375 73 
Q 24.125 74.21875 28.421875 74.21875 
Q 39.75 74.21875 46.484375 68.546875 
Q 53.21875 62.890625 53.21875 53.421875 
Q 53.21875 48.921875 51.53125 44.890625 
Q 49.859375 40.875 45.40625 35.40625 
Q 44.1875 33.984375 37.640625 27.21875 
Q 31.109375 20.453125 19.1875 8.296875 
" id="BitstreamVeraSans-Roman-32"/>
      </defs>
      <g transform="translate(563.1196875 685.418125)scale(0.12 -0.12)">
       <use xlink:href="#BitstreamVeraSans-Roman-2212"/>
       <use x="83.7890625" xlink:href="#BitstreamVeraSans-Roman-32"/>
       <use x="147.412109375" xlink:href="#BitstreamVeraSans-Roman-30"/>
       <use x="211.03515625" xlink:href="#BitstreamVeraSans-Roman-30"/>
      </g>
     </g>
    </g>
    <g id="xtick_4">
     <g id="line2d_18">
      <g>
       <use style="stroke:#000000;stroke-width:0.5;" x="774.9" xlink:href="#m6e6144f713" y="672.3"/>
      </g>
     </g>
     <g id="line2d_19">
      <g>
       <use style="stroke:#000000;stroke-width:0.5;" x="774.9" xlink:href="#m5aa4159991" y="74.7"/>
      </g>
     </g>
     <g id="text_4">
      <!-- −100 -->
      <defs>
       <path d="M 12.40625 8.296875 
L 28.515625 8.296875 
L 28.515625 63.921875 
L 10.984375 60.40625 
L 10.984375 69.390625 
L 28.421875 72.90625 
L 38.28125 72.90625 
L 38.28125 8.296875 
L 54.390625 8.296875 
L 54.390625 0 
L 12.40625 0 
z
" id="BitstreamVeraSans-Roman-31"/>
      </defs>
      <g transform="translate(758.4196875 685.418125)scale(0.12 -0.12)">
       <use xlink:href="#BitstreamVeraSans-Roman-2212"/>
       <use x="83.7890625" xlink:href="#BitstreamVeraSans-Roman-31"/>
       <use x="147.412109375" xlink:href="#BitstreamVeraSans-Roman-30"/>
       <use x="211.03515625" xlink:href="#BitstreamVeraSans-Roman-30"/>
      </g>
     </g>
    </g>
    <g id="xtick_5">
     <g id="line2d_20">
      <g>
       <use style="stroke:#000000;stroke-width:0.5;" x="970.2" xlink:href="#m6e6144f713" y="672.3"/>
      </g>
     </g>
     <g id="line2d_21">
      <g>
       <use style="stroke:#000000;stroke-width:0.5;" x="970.2" xlink:href="#m5aa4159991" y="74.7"/>
      </g>
     </g>
     <g id="text_5">
      <!-- 0 -->
      <g transform="translate(966.3825 685.418125)scale(0.12 -0.12)">
       <use xlink:href="#BitstreamVeraSans-Roman-30"/>
      </g>
     </g>
    </g>
    <g id="xtick_6">
     <g id="line2d_22">
      <g>
       <use style="stroke:#000000;stroke-width:0.5;" x="1165.5" xlink:href="#m6e6144f713" y="672.3"/>
      </g>
     </g>
     <g id="line2d_23">
      <g>
       <use style="stroke:#000000;stroke-width:0.5;" x="1165.5" xlink:href="#m5aa4159991" y="74.7"/>
      </g>
     </g>
     <g id="text_6">
      <!-- 100 -->
      <g transform="translate(1154.0475 685.418125)scale(0.12 -0.12)">
       <use xlink:href="#BitstreamVeraSans-Roman-31"/>
       <use x="63.623046875" xlink:href="#BitstreamVeraSans-Roman-30"/>
       <use x="127.24609375" xlink:href="#BitstreamVeraSans-Roman-30"/>
      </g>
     </g>
    </g>
    <g id="xtick_7">
     <g id="line2d_24">
      <g>
       <use style="stroke:#000000;stroke-width:0.5;" x="1360.8" xlink:href="#m6e6144f713" y="672.3"/>
      </g>
     </g>
     <g id="line2d_25">
      <g>
       <use style="stroke:#000000;stroke-width:0.5;" x="1360.8" xlink:href="#m5aa4159991" y="74.7"/>
      </g>
     </g>
     <g id="text_7">
      <!-- 200 -->
      <g transform="translate(1349.3475 685.418125)scale(0.12 -0.12)">
       <use xlink:href="#BitstreamVeraSans-Roman-32"/>
       <use x="63.623046875" xlink:href="#BitstreamVeraSans-Roman-30"/>
       <use x="127.24609375" xlink:href="#BitstreamVeraSans-Roman-30"/>
      </g>
     </g>
    </g>
    <g id="text_8">
     <!-- Input current DC current (in pA) -->
     <defs>
      <path d="M 64.40625 67.28125 
L 64.40625 56.890625 
Q 59.421875 61.53125 53.78125 63.8125 
Q 48.140625 66.109375 41.796875 66.109375 
Q 29.296875 66.109375 22.65625 58.46875 
Q 16.015625 50.828125 16.015625 36.375 
Q 16.015625 21.96875 22.65625 14.328125 
Q 29.296875 6.6875 41.796875 6.6875 
Q 48.140625 6.6875 53.78125 8.984375 
Q 59.421875 11.28125 64.40625 15.921875 
L 64.40625 5.609375 
Q 59.234375 2.09375 53.4375 0.328125 
Q 47.65625 -1.421875 41.21875 -1.421875 
Q 24.65625 -1.421875 15.125 8.703125 
Q 5.609375 18.84375 5.609375 36.375 
Q 5.609375 53.953125 15.125 64.078125 
Q 24.65625 74.21875 41.21875 74.21875 
Q 47.75 74.21875 53.53125 72.484375 
Q 59.328125 70.75 64.40625 67.28125 
" id="BitstreamVeraSans-Roman-43"/>
      <path d="M 8.015625 75.875 
L 15.828125 75.875 
Q 23.140625 64.359375 26.78125 53.3125 
Q 30.421875 42.28125 30.421875 31.390625 
Q 30.421875 20.453125 26.78125 9.375 
Q 23.140625 -1.703125 15.828125 -13.1875 
L 8.015625 -13.1875 
Q 14.5 -2 17.703125 9.0625 
Q 20.90625 20.125 20.90625 31.390625 
Q 20.90625 42.671875 17.703125 53.65625 
Q 14.5 64.65625 8.015625 75.875 
" id="BitstreamVeraSans-Roman-29"/>
      <path d="M 9.8125 72.90625 
L 19.671875 72.90625 
L 19.671875 0 
L 9.8125 0 
z
" id="BitstreamVeraSans-Roman-49"/>
      <path d="M 56.203125 29.59375 
L 56.203125 25.203125 
L 14.890625 25.203125 
Q 15.484375 15.921875 20.484375 11.0625 
Q 25.484375 6.203125 34.421875 6.203125 
Q 39.59375 6.203125 44.453125 7.46875 
Q 49.3125 8.734375 54.109375 11.28125 
L 54.109375 2.78125 
Q 49.265625 0.734375 44.1875 -0.34375 
Q 39.109375 -1.421875 33.890625 -1.421875 
Q 20.796875 -1.421875 13.15625 6.1875 
Q 5.515625 13.8125 5.515625 26.8125 
Q 5.515625 40.234375 12.765625 48.109375 
Q 20.015625 56 32.328125 56 
Q 43.359375 56 49.78125 48.890625 
Q 56.203125 41.796875 56.203125 29.59375 
M 47.21875 32.234375 
Q 47.125 39.59375 43.09375 43.984375 
Q 39.0625 48.390625 32.421875 48.390625 
Q 24.90625 48.390625 20.390625 44.140625 
Q 15.875 39.890625 15.1875 32.171875 
z
" id="BitstreamVeraSans-Roman-65"/>
      <path d="M 9.421875 54.6875 
L 18.40625 54.6875 
L 18.40625 0 
L 9.421875 0 
z
M 9.421875 75.984375 
L 18.40625 75.984375 
L 18.40625 64.59375 
L 9.421875 64.59375 
z
" id="BitstreamVeraSans-Roman-69"/>
      <path id="BitstreamVeraSans-Roman-20"/>
      <path d="M 18.3125 70.21875 
L 18.3125 54.6875 
L 36.8125 54.6875 
L 36.8125 47.703125 
L 18.3125 47.703125 
L 18.3125 18.015625 
Q 18.3125 11.328125 20.140625 9.421875 
Q 21.96875 7.515625 27.59375 7.515625 
L 36.8125 7.515625 
L 36.8125 0 
L 27.59375 0 
Q 17.1875 0 13.234375 3.875 
Q 9.28125 7.765625 9.28125 18.015625 
L 9.28125 47.703125 
L 2.6875 47.703125 
L 2.6875 54.6875 
L 9.28125 54.6875 
L 9.28125 70.21875 
z
" id="BitstreamVeraSans-Roman-74"/>
      <path d="M 8.5 21.578125 
L 8.5 54.6875 
L 17.484375 54.6875 
L 17.484375 21.921875 
Q 17.484375 14.15625 20.5 10.265625 
Q 23.53125 6.390625 29.59375 6.390625 
Q 36.859375 6.390625 41.078125 11.03125 
Q 45.3125 15.671875 45.3125 23.6875 
L 45.3125 54.6875 
L 54.296875 54.6875 
L 54.296875 0 
L 45.3125 0 
L 45.3125 8.40625 
Q 42.046875 3.421875 37.71875 1 
Q 33.40625 -1.421875 27.6875 -1.421875 
Q 18.265625 -1.421875 13.375 4.4375 
Q 8.5 10.296875 8.5 21.578125 
" id="BitstreamVeraSans-Roman-75"/>
      <path d="M 31 75.875 
Q 24.46875 64.65625 21.28125 53.65625 
Q 18.109375 42.671875 18.109375 31.390625 
Q 18.109375 20.125 21.3125 9.0625 
Q 24.515625 -2 31 -13.1875 
L 23.1875 -13.1875 
Q 15.875 -1.703125 12.234375 9.375 
Q 8.59375 20.453125 8.59375 31.390625 
Q 8.59375 42.28125 12.203125 53.3125 
Q 15.828125 64.359375 23.1875 75.875 
z
" id="BitstreamVeraSans-Roman-28"/>
      <path d="M 19.671875 64.796875 
L 19.671875 8.109375 
L 31.59375 8.109375 
Q 46.6875 8.109375 53.6875 14.9375 
Q 60.6875 21.78125 60.6875 36.53125 
Q 60.6875 51.171875 53.6875 57.984375 
Q 46.6875 64.796875 31.59375 64.796875 
z
M 9.8125 72.90625 
L 30.078125 72.90625 
Q 51.265625 72.90625 61.171875 64.09375 
Q 71.09375 55.28125 71.09375 36.53125 
Q 71.09375 17.671875 61.125 8.828125 
Q 51.171875 0 30.078125 0 
L 9.8125 0 
z
" id="BitstreamVeraSans-Roman-44"/>
      <path d="M 41.109375 46.296875 
Q 39.59375 47.171875 37.8125 47.578125 
Q 36.03125 48 33.890625 48 
Q 26.265625 48 22.1875 43.046875 
Q 18.109375 38.09375 18.109375 28.8125 
L 18.109375 0 
L 9.078125 0 
L 9.078125 54.6875 
L 18.109375 54.6875 
L 18.109375 46.1875 
Q 20.953125 51.171875 25.484375 53.578125 
Q 30.03125 56 36.53125 56 
Q 37.453125 56 38.578125 55.875 
Q 39.703125 55.765625 41.0625 55.515625 
z
" id="BitstreamVeraSans-Roman-72"/>
      <path d="M 18.109375 8.203125 
L 18.109375 -20.796875 
L 9.078125 -20.796875 
L 9.078125 54.6875 
L 18.109375 54.6875 
L 18.109375 46.390625 
Q 20.953125 51.265625 25.265625 53.625 
Q 29.59375 56 35.59375 56 
Q 45.5625 56 51.78125 48.09375 
Q 58.015625 40.1875 58.015625 27.296875 
Q 58.015625 14.40625 51.78125 6.484375 
Q 45.5625 -1.421875 35.59375 -1.421875 
Q 29.59375 -1.421875 25.265625 0.953125 
Q 20.953125 3.328125 18.109375 8.203125 
M 48.6875 27.296875 
Q 48.6875 37.203125 44.609375 42.84375 
Q 40.53125 48.484375 33.40625 48.484375 
Q 26.265625 48.484375 22.1875 42.84375 
Q 18.109375 37.203125 18.109375 27.296875 
Q 18.109375 17.390625 22.1875 11.75 
Q 26.265625 6.109375 33.40625 6.109375 
Q 40.53125 6.109375 44.609375 11.75 
Q 48.6875 17.390625 48.6875 27.296875 
" id="BitstreamVeraSans-Roman-70"/>
      <path d="M 54.890625 33.015625 
L 54.890625 0 
L 45.90625 0 
L 45.90625 32.71875 
Q 45.90625 40.484375 42.875 44.328125 
Q 39.84375 48.1875 33.796875 48.1875 
Q 26.515625 48.1875 22.3125 43.546875 
Q 18.109375 38.921875 18.109375 30.90625 
L 18.109375 0 
L 9.078125 0 
L 9.078125 54.6875 
L 18.109375 54.6875 
L 18.109375 46.1875 
Q 21.34375 51.125 25.703125 53.5625 
Q 30.078125 56 35.796875 56 
Q 45.21875 56 50.046875 50.171875 
Q 54.890625 44.34375 54.890625 33.015625 
" id="BitstreamVeraSans-Roman-6e"/>
      <path d="M 48.78125 52.59375 
L 48.78125 44.1875 
Q 44.96875 46.296875 41.140625 47.34375 
Q 37.3125 48.390625 33.40625 48.390625 
Q 24.65625 48.390625 19.8125 42.84375 
Q 14.984375 37.3125 14.984375 27.296875 
Q 14.984375 17.28125 19.8125 11.734375 
Q 24.65625 6.203125 33.40625 6.203125 
Q 37.3125 6.203125 41.140625 7.25 
Q 44.96875 8.296875 48.78125 10.40625 
L 48.78125 2.09375 
Q 45.015625 0.34375 40.984375 -0.53125 
Q 36.96875 -1.421875 32.421875 -1.421875 
Q 20.0625 -1.421875 12.78125 6.34375 
Q 5.515625 14.109375 5.515625 27.296875 
Q 5.515625 40.671875 12.859375 48.328125 
Q 20.21875 56 33.015625 56 
Q 37.15625 56 41.109375 55.140625 
Q 45.0625 54.296875 48.78125 52.59375 
" id="BitstreamVeraSans-Roman-63"/>
      <path d="M 34.1875 63.1875 
L 20.796875 26.90625 
L 47.609375 26.90625 
z
M 28.609375 72.90625 
L 39.796875 72.90625 
L 67.578125 0 
L 57.328125 0 
L 50.6875 18.703125 
L 17.828125 18.703125 
L 11.1875 0 
L 0.78125 0 
z
" id="BitstreamVeraSans-Roman-41"/>
     </defs>
     <g transform="translate(679.198125 702.031875)scale(0.12 -0.12)">
      <use xlink:href="#BitstreamVeraSans-Roman-49"/>
      <use x="29.4921875" xlink:href="#BitstreamVeraSans-Roman-6e"/>
      <use x="92.87109375" xlink:href="#BitstreamVeraSans-Roman-70"/>
      <use x="156.34765625" xlink:href="#BitstreamVeraSans-Roman-75"/>
      <use x="219.7265625" xlink:href="#BitstreamVeraSans-Roman-74"/>
      <use x="258.935546875" xlink:href="#BitstreamVeraSans-Roman-20"/>
      <use x="290.72265625" xlink:href="#BitstreamVeraSans-Roman-63"/>
      <use x="345.703125" xlink:href="#BitstreamVeraSans-Roman-75"/>
      <use x="409.08203125" xlink:href="#BitstreamVeraSans-Roman-72"/>
      <use x="450.1796875" xlink:href="#BitstreamVeraSans-Roman-72"/>
      <use x="491.26171875" xlink:href="#BitstreamVeraSans-Roman-65"/>
      <use x="552.78515625" xlink:href="#BitstreamVeraSans-Roman-6e"/>
      <use x="616.1640625" xlink:href="#BitstreamVeraSans-Roman-74"/>
      <use x="655.373046875" xlink:href="#BitstreamVeraSans-Roman-20"/>
      <use x="687.16015625" xlink:href="#BitstreamVeraSans-Roman-44"/>
      <use x="764.162109375" xlink:href="#BitstreamVeraSans-Roman-43"/>
      <use x="833.986328125" xlink:href="#BitstreamVeraSans-Roman-20"/>
      <use x="865.7734375" xlink:href="#BitstreamVeraSans-Roman-63"/>
      <use x="920.75390625" xlink:href="#BitstreamVeraSans-Roman-75"/>
      <use x="984.1328125" xlink:href="#BitstreamVeraSans-Roman-72"/>
      <use x="1025.23046875" xlink:href="#BitstreamVeraSans-Roman-72"/>
      <use x="1066.3125" xlink:href="#BitstreamVeraSans-Roman-65"/>
      <use x="1127.8359375" xlink:href="#BitstreamVeraSans-Roman-6e"/>
      <use x="1191.21484375" xlink:href="#BitstreamVeraSans-Roman-74"/>
      <use x="1230.423828125" xlink:href="#BitstreamVeraSans-Roman-20"/>
      <use x="1262.2109375" xlink:href="#BitstreamVeraSans-Roman-28"/>
      <use x="1301.224609375" xlink:href="#BitstreamVeraSans-Roman-69"/>
      <use x="1329.0078125" xlink:href="#BitstreamVeraSans-Roman-6e"/>
      <use x="1392.38671875" xlink:href="#BitstreamVeraSans-Roman-20"/>
      <use x="1424.173828125" xlink:href="#BitstreamVeraSans-Roman-70"/>
      <use x="1487.650390625" xlink:href="#BitstreamVeraSans-Roman-41"/>
      <use x="1556.05859375" xlink:href="#BitstreamVeraSans-Roman-29"/>
     </g>
    </g>
   </g>
   <g id="matplotlib.axis_2">
    <g id="ytick_1">
     <g id="line2d_26">
      <defs>
       <path d="M 0 0 
L 4 0 
" id="m67e3f0492f" style="stroke:#000000;stroke-width:0.5;"/>
      </defs>
      <g>
       <use style="stroke:#000000;stroke-width:0.5;" x="189.0" xlink:href="#m67e3f0492f" y="672.3"/>
      </g>
     </g>
     <g id="line2d_27">
      <defs>
       <path d="M 0 0 
L -4 0 
" id="m867e57c0be" style="stroke:#000000;stroke-width:0.5;"/>
      </defs>
      <g>
       <use style="stroke:#000000;stroke-width:0.5;" x="1360.8" xlink:href="#m867e57c0be" y="672.3"/>
      </g>
     </g>
     <g id="text_9">
      <!-- 0 -->
      <g transform="translate(177.365 675.61125)scale(0.12 -0.12)">
       <use xlink:href="#BitstreamVeraSans-Roman-30"/>
      </g>
     </g>
    </g>
    <g id="ytick_2">
     <g id="line2d_28">
      <g>
       <use style="stroke:#000000;stroke-width:0.5;" x="189.0" xlink:href="#m67e3f0492f" y="572.7"/>
      </g>
     </g>
     <g id="line2d_29">
      <g>
       <use style="stroke:#000000;stroke-width:0.5;" x="1360.8" xlink:href="#m867e57c0be" y="572.7"/>
      </g>
     </g>
     <g id="text_10">
      <!-- 5 -->
      <defs>
       <path d="M 10.796875 72.90625 
L 49.515625 72.90625 
L 49.515625 64.59375 
L 19.828125 64.59375 
L 19.828125 46.734375 
Q 21.96875 47.46875 24.109375 47.828125 
Q 26.265625 48.1875 28.421875 48.1875 
Q 40.625 48.1875 47.75 41.5 
Q 54.890625 34.8125 54.890625 23.390625 
Q 54.890625 11.625 47.5625 5.09375 
Q 40.234375 -1.421875 26.90625 -1.421875 
Q 22.3125 -1.421875 17.546875 -0.640625 
Q 12.796875 0.140625 7.71875 1.703125 
L 7.71875 11.625 
Q 12.109375 9.234375 16.796875 8.0625 
Q 21.484375 6.890625 26.703125 6.890625 
Q 35.15625 6.890625 40.078125 11.328125 
Q 45.015625 15.765625 45.015625 23.390625 
Q 45.015625 31 40.078125 35.4375 
Q 35.15625 39.890625 26.703125 39.890625 
Q 22.75 39.890625 18.8125 39.015625 
Q 14.890625 38.140625 10.796875 36.28125 
z
" id="BitstreamVeraSans-Roman-35"/>
      </defs>
      <g transform="translate(177.365 576.01125)scale(0.12 -0.12)">
       <use xlink:href="#BitstreamVeraSans-Roman-35"/>
      </g>
     </g>
    </g>
    <g id="ytick_3">
     <g id="line2d_30">
      <g>
       <use style="stroke:#000000;stroke-width:0.5;" x="189.0" xlink:href="#m67e3f0492f" y="473.1"/>
      </g>
     </g>
     <g id="line2d_31">
      <g>
       <use style="stroke:#000000;stroke-width:0.5;" x="1360.8" xlink:href="#m867e57c0be" y="473.1"/>
      </g>
     </g>
     <g id="text_11">
      <!-- 10 -->
      <g transform="translate(169.73 476.41125)scale(0.12 -0.12)">
       <use xlink:href="#BitstreamVeraSans-Roman-31"/>
       <use x="63.623046875" xlink:href="#BitstreamVeraSans-Roman-30"/>
      </g>
     </g>
    </g>
    <g id="ytick_4">
     <g id="line2d_32">
      <g>
       <use style="stroke:#000000;stroke-width:0.5;" x="189.0" xlink:href="#m67e3f0492f" y="373.5"/>
      </g>
     </g>
     <g id="line2d_33">
      <g>
       <use style="stroke:#000000;stroke-width:0.5;" x="1360.8" xlink:href="#m867e57c0be" y="373.5"/>
      </g>
     </g>
     <g id="text_12">
      <!-- 15 -->
      <g transform="translate(169.73 376.81125)scale(0.12 -0.12)">
       <use xlink:href="#BitstreamVeraSans-Roman-31"/>
       <use x="63.623046875" xlink:href="#BitstreamVeraSans-Roman-35"/>
      </g>
     </g>
    </g>
    <g id="ytick_5">
     <g id="line2d_34">
      <g>
       <use style="stroke:#000000;stroke-width:0.5;" x="189.0" xlink:href="#m67e3f0492f" y="273.9"/>
      </g>
     </g>
     <g id="line2d_35">
      <g>
       <use style="stroke:#000000;stroke-width:0.5;" x="1360.8" xlink:href="#m867e57c0be" y="273.9"/>
      </g>
     </g>
     <g id="text_13">
      <!-- 20 -->
      <g transform="translate(169.73 277.21125)scale(0.12 -0.12)">
       <use xlink:href="#BitstreamVeraSans-Roman-32"/>
       <use x="63.623046875" xlink:href="#BitstreamVeraSans-Roman-30"/>
      </g>
     </g>
    </g>
    <g id="ytick_6">
     <g id="line2d_36">
      <g>
       <use style="stroke:#000000;stroke-width:0.5;" x="189.0" xlink:href="#m67e3f0492f" y="174.3"/>
      </g>
     </g>
     <g id="line2d_37">
      <g>
       <use style="stroke:#000000;stroke-width:0.5;" x="1360.8" xlink:href="#m867e57c0be" y="174.3"/>
      </g>
     </g>
     <g id="text_14">
      <!-- 25 -->
      <g transform="translate(169.73 177.61125)scale(0.12 -0.12)">
       <use xlink:href="#BitstreamVeraSans-Roman-32"/>
       <use x="63.623046875" xlink:href="#BitstreamVeraSans-Roman-35"/>
      </g>
     </g>
    </g>
    <g id="ytick_7">
     <g id="line2d_38">
      <g>
       <use style="stroke:#000000;stroke-width:0.5;" x="189.0" xlink:href="#m67e3f0492f" y="74.7"/>
      </g>
     </g>
     <g id="line2d_39">
      <g>
       <use style="stroke:#000000;stroke-width:0.5;" x="1360.8" xlink:href="#m867e57c0be" y="74.7"/>
      </g>
     </g>
     <g id="text_15">
      <!-- 30 -->
      <g transform="translate(169.73 78.01125)scale(0.12 -0.12)">
       <use xlink:href="#BitstreamVeraSans-Roman-33"/>
       <use x="63.623046875" xlink:href="#BitstreamVeraSans-Roman-30"/>
      </g>
     </g>
    </g>
    <g id="text_16">
     <!-- Frequency (in Hz) -->
     <defs>
      <path d="M 9.8125 72.90625 
L 51.703125 72.90625 
L 51.703125 64.59375 
L 19.671875 64.59375 
L 19.671875 43.109375 
L 48.578125 43.109375 
L 48.578125 34.8125 
L 19.671875 34.8125 
L 19.671875 0 
L 9.8125 0 
z
" id="BitstreamVeraSans-Roman-46"/>
      <path d="M 14.796875 27.296875 
Q 14.796875 17.390625 18.875 11.75 
Q 22.953125 6.109375 30.078125 6.109375 
Q 37.203125 6.109375 41.296875 11.75 
Q 45.40625 17.390625 45.40625 27.296875 
Q 45.40625 37.203125 41.296875 42.84375 
Q 37.203125 48.484375 30.078125 48.484375 
Q 22.953125 48.484375 18.875 42.84375 
Q 14.796875 37.203125 14.796875 27.296875 
M 45.40625 8.203125 
Q 42.578125 3.328125 38.25 0.953125 
Q 33.9375 -1.421875 27.875 -1.421875 
Q 17.96875 -1.421875 11.734375 6.484375 
Q 5.515625 14.40625 5.515625 27.296875 
Q 5.515625 40.1875 11.734375 48.09375 
Q 17.96875 56 27.875 56 
Q 33.9375 56 38.25 53.625 
Q 42.578125 51.265625 45.40625 46.390625 
L 45.40625 54.6875 
L 54.390625 54.6875 
L 54.390625 -20.796875 
L 45.40625 -20.796875 
z
" id="BitstreamVeraSans-Roman-71"/>
      <path d="M 9.8125 72.90625 
L 19.671875 72.90625 
L 19.671875 43.015625 
L 55.515625 43.015625 
L 55.515625 72.90625 
L 65.375 72.90625 
L 65.375 0 
L 55.515625 0 
L 55.515625 34.71875 
L 19.671875 34.71875 
L 19.671875 0 
L 9.8125 0 
z
" id="BitstreamVeraSans-Roman-48"/>
      <path d="M 32.171875 -5.078125 
Q 28.375 -14.84375 24.75 -17.8125 
Q 21.140625 -20.796875 15.09375 -20.796875 
L 7.90625 -20.796875 
L 7.90625 -13.28125 
L 13.1875 -13.28125 
Q 16.890625 -13.28125 18.9375 -11.515625 
Q 21 -9.765625 23.484375 -3.21875 
L 25.09375 0.875 
L 2.984375 54.6875 
L 12.5 54.6875 
L 29.59375 11.921875 
L 46.6875 54.6875 
L 56.203125 54.6875 
z
" id="BitstreamVeraSans-Roman-79"/>
      <path d="M 5.515625 54.6875 
L 48.1875 54.6875 
L 48.1875 46.484375 
L 14.40625 7.171875 
L 48.1875 7.171875 
L 48.1875 0 
L 4.296875 0 
L 4.296875 8.203125 
L 38.09375 47.515625 
L 5.515625 47.515625 
z
" id="BitstreamVeraSans-Roman-7a"/>
     </defs>
     <g transform="translate(162.234375 426.6834375)rotate(-90.0)scale(0.12 -0.12)">
      <use xlink:href="#BitstreamVeraSans-Roman-46"/>
      <use x="57.41015625" xlink:href="#BitstreamVeraSans-Roman-72"/>
      <use x="98.4921875" xlink:href="#BitstreamVeraSans-Roman-65"/>
      <use x="160.015625" xlink:href="#BitstreamVeraSans-Roman-71"/>
      <use x="223.4921875" xlink:href="#BitstreamVeraSans-Roman-75"/>
      <use x="286.87109375" xlink:href="#BitstreamVeraSans-Roman-65"/>
      <use x="348.39453125" xlink:href="#BitstreamVeraSans-Roman-6e"/>
      <use x="411.7734375" xlink:href="#BitstreamVeraSans-Roman-63"/>
      <use x="466.75390625" xlink:href="#BitstreamVeraSans-Roman-79"/>
      <use x="525.93359375" xlink:href="#BitstreamVeraSans-Roman-20"/>
      <use x="557.720703125" xlink:href="#BitstreamVeraSans-Roman-28"/>
      <use x="596.734375" xlink:href="#BitstreamVeraSans-Roman-69"/>
      <use x="624.517578125" xlink:href="#BitstreamVeraSans-Roman-6e"/>
      <use x="687.896484375" xlink:href="#BitstreamVeraSans-Roman-20"/>
      <use x="719.68359375" xlink:href="#BitstreamVeraSans-Roman-48"/>
      <use x="794.87890625" xlink:href="#BitstreamVeraSans-Roman-7a"/>
      <use x="847.369140625" xlink:href="#BitstreamVeraSans-Roman-29"/>
     </g>
    </g>
   </g>
   <g id="text_17">
    <!-- FI Curve -->
    <defs>
     <path d="M 2.984375 54.6875 
L 12.5 54.6875 
L 29.59375 8.796875 
L 46.6875 54.6875 
L 56.203125 54.6875 
L 35.6875 0 
L 23.484375 0 
z
" id="BitstreamVeraSans-Roman-76"/>
    </defs>
    <g transform="translate(745.104375 69.7)scale(0.144 -0.144)">
     <use xlink:href="#BitstreamVeraSans-Roman-46"/>
     <use x="57.51953125" xlink:href="#BitstreamVeraSans-Roman-49"/>
     <use x="87.01171875" xlink:href="#BitstreamVeraSans-Roman-20"/>
     <use x="118.798828125" xlink:href="#BitstreamVeraSans-Roman-43"/>
     <use x="188.623046875" xlink:href="#BitstreamVeraSans-Roman-75"/>
     <use x="252.001953125" xlink:href="#BitstreamVeraSans-Roman-72"/>
     <use x="293.115234375" xlink:href="#BitstreamVeraSans-Roman-76"/>
     <use x="352.294921875" xlink:href="#BitstreamVeraSans-Roman-65"/>
    </g>
   </g>
   <g id="legend_1">
    <g id="patch_7">
     <path d="M 199.08 318.7215 
L 328.90275 318.7215 
Q 331.78275 318.7215 331.78275 315.8415 
L 331.78275 84.78 
Q 331.78275 81.9 328.90275 81.9 
L 199.08 81.9 
Q 196.2 81.9 196.2 84.78 
L 196.2 315.8415 
Q 196.2 318.7215 199.08 318.7215 
z
" style="fill:#ffffff;stroke:#000000;stroke-linejoin:miter;"/>
    </g>
    <g id="line2d_40">
     <path d="M 206.28 93.56175 
L 226.44 93.56175 
" style="fill:none;stroke:#ff1e1e;stroke-linecap:square;"/>
    </g>
    <g id="line2d_41"/>
    <g id="text_18">
     <!-- Std: 0.0 -->
     <defs>
      <path d="M 53.515625 70.515625 
L 53.515625 60.890625 
Q 47.90625 63.578125 42.921875 64.890625 
Q 37.9375 66.21875 33.296875 66.21875 
Q 25.25 66.21875 20.875 63.09375 
Q 16.5 59.96875 16.5 54.203125 
Q 16.5 49.359375 19.40625 46.890625 
Q 22.3125 44.4375 30.421875 42.921875 
L 36.375 41.703125 
Q 47.40625 39.59375 52.65625 34.296875 
Q 57.90625 29 57.90625 20.125 
Q 57.90625 9.515625 50.796875 4.046875 
Q 43.703125 -1.421875 29.984375 -1.421875 
Q 24.8125 -1.421875 18.96875 -0.25 
Q 13.140625 0.921875 6.890625 3.21875 
L 6.890625 13.375 
Q 12.890625 10.015625 18.65625 8.296875 
Q 24.421875 6.59375 29.984375 6.59375 
Q 38.421875 6.59375 43.015625 9.90625 
Q 47.609375 13.234375 47.609375 19.390625 
Q 47.609375 24.75 44.3125 27.78125 
Q 41.015625 30.8125 33.5 32.328125 
L 27.484375 33.5 
Q 16.453125 35.6875 11.515625 40.375 
Q 6.59375 45.0625 6.59375 53.421875 
Q 6.59375 63.09375 13.40625 68.65625 
Q 20.21875 74.21875 32.171875 74.21875 
Q 37.3125 74.21875 42.625 73.28125 
Q 47.953125 72.359375 53.515625 70.515625 
" id="BitstreamVeraSans-Roman-53"/>
      <path d="M 10.6875 12.40625 
L 21 12.40625 
L 21 0 
L 10.6875 0 
z
" id="BitstreamVeraSans-Roman-2e"/>
      <path d="M 11.71875 12.40625 
L 22.015625 12.40625 
L 22.015625 0 
L 11.71875 0 
z
M 11.71875 51.703125 
L 22.015625 51.703125 
L 22.015625 39.3125 
L 11.71875 39.3125 
z
" id="BitstreamVeraSans-Roman-3a"/>
      <path d="M 45.40625 46.390625 
L 45.40625 75.984375 
L 54.390625 75.984375 
L 54.390625 0 
L 45.40625 0 
L 45.40625 8.203125 
Q 42.578125 3.328125 38.25 0.953125 
Q 33.9375 -1.421875 27.875 -1.421875 
Q 17.96875 -1.421875 11.734375 6.484375 
Q 5.515625 14.40625 5.515625 27.296875 
Q 5.515625 40.1875 11.734375 48.09375 
Q 17.96875 56 27.875 56 
Q 33.9375 56 38.25 53.625 
Q 42.578125 51.265625 45.40625 46.390625 
M 14.796875 27.296875 
Q 14.796875 17.390625 18.875 11.75 
Q 22.953125 6.109375 30.078125 6.109375 
Q 37.203125 6.109375 41.296875 11.75 
Q 45.40625 17.390625 45.40625 27.296875 
Q 45.40625 37.203125 41.296875 42.84375 
Q 37.203125 48.484375 30.078125 48.484375 
Q 22.953125 48.484375 18.875 42.84375 
Q 14.796875 37.203125 14.796875 27.296875 
" id="BitstreamVeraSans-Roman-64"/>
     </defs>
     <g transform="translate(242.28 98.60175)scale(0.144 -0.144)">
      <use xlink:href="#BitstreamVeraSans-Roman-53"/>
      <use x="63.4765625" xlink:href="#BitstreamVeraSans-Roman-74"/>
      <use x="102.685546875" xlink:href="#BitstreamVeraSans-Roman-64"/>
      <use x="166.162109375" xlink:href="#BitstreamVeraSans-Roman-3a"/>
      <use x="199.853515625" xlink:href="#BitstreamVeraSans-Roman-20"/>
      <use x="231.640625" xlink:href="#BitstreamVeraSans-Roman-30"/>
      <use x="295.263671875" xlink:href="#BitstreamVeraSans-Roman-2e"/>
      <use x="327.05078125" xlink:href="#BitstreamVeraSans-Roman-30"/>
     </g>
    </g>
    <g id="line2d_42">
     <path d="M 206.28 114.69825 
L 226.44 114.69825 
" style="fill:none;stroke:#581845;stroke-linecap:square;"/>
    </g>
    <g id="line2d_43"/>
    <g id="text_19">
     <!-- Std: 100.0 -->
     <g transform="translate(242.28 119.73825)scale(0.144 -0.144)">
      <use xlink:href="#BitstreamVeraSans-Roman-53"/>
      <use x="63.4765625" xlink:href="#BitstreamVeraSans-Roman-74"/>
      <use x="102.685546875" xlink:href="#BitstreamVeraSans-Roman-64"/>
      <use x="166.162109375" xlink:href="#BitstreamVeraSans-Roman-3a"/>
      <use x="199.853515625" xlink:href="#BitstreamVeraSans-Roman-20"/>
      <use x="231.640625" xlink:href="#BitstreamVeraSans-Roman-31"/>
      <use x="295.263671875" xlink:href="#BitstreamVeraSans-Roman-30"/>
      <use x="358.88671875" xlink:href="#BitstreamVeraSans-Roman-30"/>
      <use x="422.509765625" xlink:href="#BitstreamVeraSans-Roman-2e"/>
      <use x="454.296875" xlink:href="#BitstreamVeraSans-Roman-30"/>
     </g>
    </g>
    <g id="line2d_44">
     <path d="M 206.28 135.83475 
L 226.44 135.83475 
" style="fill:none;stroke:#26b7d8;stroke-linecap:square;"/>
    </g>
    <g id="line2d_45"/>
    <g id="text_20">
     <!-- Std: 200.0 -->
     <g transform="translate(242.28 140.87475)scale(0.144 -0.144)">
      <use xlink:href="#BitstreamVeraSans-Roman-53"/>
      <use x="63.4765625" xlink:href="#BitstreamVeraSans-Roman-74"/>
      <use x="102.685546875" xlink:href="#BitstreamVeraSans-Roman-64"/>
      <use x="166.162109375" xlink:href="#BitstreamVeraSans-Roman-3a"/>
      <use x="199.853515625" xlink:href="#BitstreamVeraSans-Roman-20"/>
      <use x="231.640625" xlink:href="#BitstreamVeraSans-Roman-32"/>
      <use x="295.263671875" xlink:href="#BitstreamVeraSans-Roman-30"/>
      <use x="358.88671875" xlink:href="#BitstreamVeraSans-Roman-30"/>
      <use x="422.509765625" xlink:href="#BitstreamVeraSans-Roman-2e"/>
      <use x="454.296875" xlink:href="#BitstreamVeraSans-Roman-30"/>
     </g>
    </g>
    <g id="line2d_46">
     <path d="M 206.28 156.97125 
L 226.44 156.97125 
" style="fill:none;stroke:#8414a4;stroke-linecap:square;"/>
    </g>
    <g id="line2d_47"/>
    <g id="text_21">
     <!-- Std: 300.0 -->
     <g transform="translate(242.28 162.01125)scale(0.144 -0.144)">
      <use xlink:href="#BitstreamVeraSans-Roman-53"/>
      <use x="63.4765625" xlink:href="#BitstreamVeraSans-Roman-74"/>
      <use x="102.685546875" xlink:href="#BitstreamVeraSans-Roman-64"/>
      <use x="166.162109375" xlink:href="#BitstreamVeraSans-Roman-3a"/>
      <use x="199.853515625" xlink:href="#BitstreamVeraSans-Roman-20"/>
      <use x="231.640625" xlink:href="#BitstreamVeraSans-Roman-33"/>
      <use x="295.263671875" xlink:href="#BitstreamVeraSans-Roman-30"/>
      <use x="358.88671875" xlink:href="#BitstreamVeraSans-Roman-30"/>
      <use x="422.509765625" xlink:href="#BitstreamVeraSans-Roman-2e"/>
      <use x="454.296875" xlink:href="#BitstreamVeraSans-Roman-30"/>
     </g>
    </g>
    <g id="line2d_48">
     <path d="M 206.28 178.10775 
L 226.44 178.10775 
" style="fill:none;stroke:#ffd23a;stroke-linecap:square;"/>
    </g>
    <g id="line2d_49"/>
    <g id="text_22">
     <!-- Std: 400.0 -->
     <g transform="translate(242.28 183.14775)scale(0.144 -0.144)">
      <use xlink:href="#BitstreamVeraSans-Roman-53"/>
      <use x="63.4765625" xlink:href="#BitstreamVeraSans-Roman-74"/>
      <use x="102.685546875" xlink:href="#BitstreamVeraSans-Roman-64"/>
      <use x="166.162109375" xlink:href="#BitstreamVeraSans-Roman-3a"/>
      <use x="199.853515625" xlink:href="#BitstreamVeraSans-Roman-20"/>
      <use x="231.640625" xlink:href="#BitstreamVeraSans-Roman-34"/>
      <use x="295.263671875" xlink:href="#BitstreamVeraSans-Roman-30"/>
      <use x="358.88671875" xlink:href="#BitstreamVeraSans-Roman-30"/>
      <use x="422.509765625" xlink:href="#BitstreamVeraSans-Roman-2e"/>
      <use x="454.296875" xlink:href="#BitstreamVeraSans-Roman-30"/>
     </g>
    </g>
    <g id="line2d_50">
     <path d="M 206.28 199.24425 
L 226.44 199.24425 
" style="fill:none;stroke:#ff9300;stroke-linecap:square;"/>
    </g>
    <g id="line2d_51"/>
    <g id="text_23">
     <!-- Std: 500.0 -->
     <g transform="translate(242.28 204.28425)scale(0.144 -0.144)">
      <use xlink:href="#BitstreamVeraSans-Roman-53"/>
      <use x="63.4765625" xlink:href="#BitstreamVeraSans-Roman-74"/>
      <use x="102.685546875" xlink:href="#BitstreamVeraSans-Roman-64"/>
      <use x="166.162109375" xlink:href="#BitstreamVeraSans-Roman-3a"/>
      <use x="199.853515625" xlink:href="#BitstreamVeraSans-Roman-20"/>
      <use x="231.640625" xlink:href="#BitstreamVeraSans-Roman-35"/>
      <use x="295.263671875" xlink:href="#BitstreamVeraSans-Roman-30"/>
      <use x="358.88671875" xlink:href="#BitstreamVeraSans-Roman-30"/>
      <use x="422.509765625" xlink:href="#BitstreamVeraSans-Roman-2e"/>
      <use x="454.296875" xlink:href="#BitstreamVeraSans-Roman-30"/>
     </g>
    </g>
    <g id="line2d_52">
     <path d="M 206.28 220.38075 
L 226.44 220.38075 
" style="fill:none;stroke:#f50fe6;stroke-linecap:square;"/>
    </g>
    <g id="line2d_53"/>
    <g id="text_24">
     <!-- Std: 600.0 -->
     <defs>
      <path d="M 33.015625 40.375 
Q 26.375 40.375 22.484375 35.828125 
Q 18.609375 31.296875 18.609375 23.390625 
Q 18.609375 15.53125 22.484375 10.953125 
Q 26.375 6.390625 33.015625 6.390625 
Q 39.65625 6.390625 43.53125 10.953125 
Q 47.40625 15.53125 47.40625 23.390625 
Q 47.40625 31.296875 43.53125 35.828125 
Q 39.65625 40.375 33.015625 40.375 
M 52.59375 71.296875 
L 52.59375 62.3125 
Q 48.875 64.0625 45.09375 64.984375 
Q 41.3125 65.921875 37.59375 65.921875 
Q 27.828125 65.921875 22.671875 59.328125 
Q 17.53125 52.734375 16.796875 39.40625 
Q 19.671875 43.65625 24.015625 45.921875 
Q 28.375 48.1875 33.59375 48.1875 
Q 44.578125 48.1875 50.953125 41.515625 
Q 57.328125 34.859375 57.328125 23.390625 
Q 57.328125 12.15625 50.6875 5.359375 
Q 44.046875 -1.421875 33.015625 -1.421875 
Q 20.359375 -1.421875 13.671875 8.265625 
Q 6.984375 17.96875 6.984375 36.375 
Q 6.984375 53.65625 15.1875 63.9375 
Q 23.390625 74.21875 37.203125 74.21875 
Q 40.921875 74.21875 44.703125 73.484375 
Q 48.484375 72.75 52.59375 71.296875 
" id="BitstreamVeraSans-Roman-36"/>
     </defs>
     <g transform="translate(242.28 225.42075)scale(0.144 -0.144)">
      <use xlink:href="#BitstreamVeraSans-Roman-53"/>
      <use x="63.4765625" xlink:href="#BitstreamVeraSans-Roman-74"/>
      <use x="102.685546875" xlink:href="#BitstreamVeraSans-Roman-64"/>
      <use x="166.162109375" xlink:href="#BitstreamVeraSans-Roman-3a"/>
      <use x="199.853515625" xlink:href="#BitstreamVeraSans-Roman-20"/>
      <use x="231.640625" xlink:href="#BitstreamVeraSans-Roman-36"/>
      <use x="295.263671875" xlink:href="#BitstreamVeraSans-Roman-30"/>
      <use x="358.88671875" xlink:href="#BitstreamVeraSans-Roman-30"/>
      <use x="422.509765625" xlink:href="#BitstreamVeraSans-Roman-2e"/>
      <use x="454.296875" xlink:href="#BitstreamVeraSans-Roman-30"/>
     </g>
    </g>
    <g id="line2d_54">
     <path d="M 206.28 241.51725 
L 226.44 241.51725 
" style="fill:none;stroke:#1000a0;stroke-linecap:square;"/>
    </g>
    <g id="line2d_55"/>
    <g id="text_25">
     <!-- Std: 700.0 -->
     <defs>
      <path d="M 8.203125 72.90625 
L 55.078125 72.90625 
L 55.078125 68.703125 
L 28.609375 0 
L 18.3125 0 
L 43.21875 64.59375 
L 8.203125 64.59375 
z
" id="BitstreamVeraSans-Roman-37"/>
     </defs>
     <g transform="translate(242.28 246.55725)scale(0.144 -0.144)">
      <use xlink:href="#BitstreamVeraSans-Roman-53"/>
      <use x="63.4765625" xlink:href="#BitstreamVeraSans-Roman-74"/>
      <use x="102.685546875" xlink:href="#BitstreamVeraSans-Roman-64"/>
      <use x="166.162109375" xlink:href="#BitstreamVeraSans-Roman-3a"/>
      <use x="199.853515625" xlink:href="#BitstreamVeraSans-Roman-20"/>
      <use x="231.640625" xlink:href="#BitstreamVeraSans-Roman-37"/>
      <use x="295.263671875" xlink:href="#BitstreamVeraSans-Roman-30"/>
      <use x="358.88671875" xlink:href="#BitstreamVeraSans-Roman-30"/>
      <use x="422.509765625" xlink:href="#BitstreamVeraSans-Roman-2e"/>
      <use x="454.296875" xlink:href="#BitstreamVeraSans-Roman-30"/>
     </g>
    </g>
    <g id="line2d_56">
     <path d="M 206.28 262.65375 
L 226.44 262.65375 
" style="fill:none;stroke:#595866;stroke-linecap:square;"/>
    </g>
    <g id="line2d_57"/>
    <g id="text_26">
     <!-- Std: 800.0 -->
     <defs>
      <path d="M 31.78125 34.625 
Q 24.75 34.625 20.71875 30.859375 
Q 16.703125 27.09375 16.703125 20.515625 
Q 16.703125 13.921875 20.71875 10.15625 
Q 24.75 6.390625 31.78125 6.390625 
Q 38.8125 6.390625 42.859375 10.171875 
Q 46.921875 13.96875 46.921875 20.515625 
Q 46.921875 27.09375 42.890625 30.859375 
Q 38.875 34.625 31.78125 34.625 
M 21.921875 38.8125 
Q 15.578125 40.375 12.03125 44.71875 
Q 8.5 49.078125 8.5 55.328125 
Q 8.5 64.0625 14.71875 69.140625 
Q 20.953125 74.21875 31.78125 74.21875 
Q 42.671875 74.21875 48.875 69.140625 
Q 55.078125 64.0625 55.078125 55.328125 
Q 55.078125 49.078125 51.53125 44.71875 
Q 48 40.375 41.703125 38.8125 
Q 48.828125 37.15625 52.796875 32.3125 
Q 56.78125 27.484375 56.78125 20.515625 
Q 56.78125 9.90625 50.3125 4.234375 
Q 43.84375 -1.421875 31.78125 -1.421875 
Q 19.734375 -1.421875 13.25 4.234375 
Q 6.78125 9.90625 6.78125 20.515625 
Q 6.78125 27.484375 10.78125 32.3125 
Q 14.796875 37.15625 21.921875 38.8125 
M 18.3125 54.390625 
Q 18.3125 48.734375 21.84375 45.5625 
Q 25.390625 42.390625 31.78125 42.390625 
Q 38.140625 42.390625 41.71875 45.5625 
Q 45.3125 48.734375 45.3125 54.390625 
Q 45.3125 60.0625 41.71875 63.234375 
Q 38.140625 66.40625 31.78125 66.40625 
Q 25.390625 66.40625 21.84375 63.234375 
Q 18.3125 60.0625 18.3125 54.390625 
" id="BitstreamVeraSans-Roman-38"/>
     </defs>
     <g transform="translate(242.28 267.69375)scale(0.144 -0.144)">
      <use xlink:href="#BitstreamVeraSans-Roman-53"/>
      <use x="63.4765625" xlink:href="#BitstreamVeraSans-Roman-74"/>
      <use x="102.685546875" xlink:href="#BitstreamVeraSans-Roman-64"/>
      <use x="166.162109375" xlink:href="#BitstreamVeraSans-Roman-3a"/>
      <use x="199.853515625" xlink:href="#BitstreamVeraSans-Roman-20"/>
      <use x="231.640625" xlink:href="#BitstreamVeraSans-Roman-38"/>
      <use x="295.263671875" xlink:href="#BitstreamVeraSans-Roman-30"/>
      <use x="358.88671875" xlink:href="#BitstreamVeraSans-Roman-30"/>
      <use x="422.509765625" xlink:href="#BitstreamVeraSans-Roman-2e"/>
      <use x="454.296875" xlink:href="#BitstreamVeraSans-Roman-30"/>
     </g>
    </g>
    <g id="line2d_58">
     <path d="M 206.28 283.79025 
L 226.44 283.79025 
" style="fill:none;stroke:#147f2a;stroke-linecap:square;"/>
    </g>
    <g id="line2d_59"/>
    <g id="text_27">
     <!-- Std: 900.0 -->
     <defs>
      <path d="M 10.984375 1.515625 
L 10.984375 10.5 
Q 14.703125 8.734375 18.5 7.8125 
Q 22.3125 6.890625 25.984375 6.890625 
Q 35.75 6.890625 40.890625 13.453125 
Q 46.046875 20.015625 46.78125 33.40625 
Q 43.953125 29.203125 39.59375 26.953125 
Q 35.25 24.703125 29.984375 24.703125 
Q 19.046875 24.703125 12.671875 31.3125 
Q 6.296875 37.9375 6.296875 49.421875 
Q 6.296875 60.640625 12.9375 67.421875 
Q 19.578125 74.21875 30.609375 74.21875 
Q 43.265625 74.21875 49.921875 64.515625 
Q 56.59375 54.828125 56.59375 36.375 
Q 56.59375 19.140625 48.40625 8.859375 
Q 40.234375 -1.421875 26.421875 -1.421875 
Q 22.703125 -1.421875 18.890625 -0.6875 
Q 15.09375 0.046875 10.984375 1.515625 
M 30.609375 32.421875 
Q 37.25 32.421875 41.125 36.953125 
Q 45.015625 41.5 45.015625 49.421875 
Q 45.015625 57.28125 41.125 61.84375 
Q 37.25 66.40625 30.609375 66.40625 
Q 23.96875 66.40625 20.09375 61.84375 
Q 16.21875 57.28125 16.21875 49.421875 
Q 16.21875 41.5 20.09375 36.953125 
Q 23.96875 32.421875 30.609375 32.421875 
" id="BitstreamVeraSans-Roman-39"/>
     </defs>
     <g transform="translate(242.28 288.83025)scale(0.144 -0.144)">
      <use xlink:href="#BitstreamVeraSans-Roman-53"/>
      <use x="63.4765625" xlink:href="#BitstreamVeraSans-Roman-74"/>
      <use x="102.685546875" xlink:href="#BitstreamVeraSans-Roman-64"/>
      <use x="166.162109375" xlink:href="#BitstreamVeraSans-Roman-3a"/>
      <use x="199.853515625" xlink:href="#BitstreamVeraSans-Roman-20"/>
      <use x="231.640625" xlink:href="#BitstreamVeraSans-Roman-39"/>
      <use x="295.263671875" xlink:href="#BitstreamVeraSans-Roman-30"/>
      <use x="358.88671875" xlink:href="#BitstreamVeraSans-Roman-30"/>
      <use x="422.509765625" xlink:href="#BitstreamVeraSans-Roman-2e"/>
      <use x="454.296875" xlink:href="#BitstreamVeraSans-Roman-30"/>
     </g>
    </g>
    <g id="line2d_60">
     <path d="M 206.28 304.92675 
L 226.44 304.92675 
" style="fill:none;stroke:#00f6aa;stroke-linecap:square;"/>
    </g>
    <g id="line2d_61"/>
    <g id="text_28">
     <!-- Std: 1000.0 -->
     <g transform="translate(242.28 309.96675)scale(0.144 -0.144)">
      <use xlink:href="#BitstreamVeraSans-Roman-53"/>
      <use x="63.4765625" xlink:href="#BitstreamVeraSans-Roman-74"/>
      <use x="102.685546875" xlink:href="#BitstreamVeraSans-Roman-64"/>
      <use x="166.162109375" xlink:href="#BitstreamVeraSans-Roman-3a"/>
      <use x="199.853515625" xlink:href="#BitstreamVeraSans-Roman-20"/>
      <use x="231.640625" xlink:href="#BitstreamVeraSans-Roman-31"/>
      <use x="295.263671875" xlink:href="#BitstreamVeraSans-Roman-30"/>
      <use x="358.88671875" xlink:href="#BitstreamVeraSans-Roman-30"/>
      <use x="422.509765625" xlink:href="#BitstreamVeraSans-Roman-30"/>
      <use x="486.1328125" xlink:href="#BitstreamVeraSans-Roman-2e"/>
      <use x="517.919921875" xlink:href="#BitstreamVeraSans-Roman-30"/>
     </g>
    </g>
   </g>
  </g>
 </g>
 <defs>
  <clipPath id="pdacbaff51c">
   <rect height="597.6" width="1171.8" x="189.0" y="74.7"/>
  </clipPath>
 </defs>
</svg>
