<?xml version="1.0" encoding="utf-8" standalone="no"?>
<!DOCTYPE svg PUBLIC "-//W3C//DTD SVG 1.1//EN"
  "http://www.w3.org/Graphics/SVG/1.1/DTD/svg11.dtd">
<!-- Created with matplotlib (http://matplotlib.org/) -->
<svg height="640pt" version="1.1" viewBox="0 0 921 640" width="921pt" xmlns="http://www.w3.org/2000/svg" xmlns:xlink="http://www.w3.org/1999/xlink">
 <defs>
  <style type="text/css">
*{stroke-linecap:butt;stroke-linejoin:round;stroke-miterlimit:100000;}
  </style>
 </defs>
 <g id="figure_1">
  <g id="patch_1">
   <path d="M 0 640.8 
L 921.6 640.8 
L 921.6 0 
L 0 0 
z
" style="fill:#ffffff;"/>
  </g>
  <g id="axes_1">
   <g id="patch_2">
    <path d="M 115.2 576.72 
L 829.44 576.72 
L 829.44 64.08 
L 115.2 64.08 
z
" style="fill:#ffffff;"/>
   </g>
   <g id="line2d_1">
    <path clip-path="url(#p6d0c861466)" d="M 115.2 122.690523 
L 132.313668 122.798016 
L 146.992943 123.283845 
L 159.844933 123.903286 
L 171.274613 124.645485 
L 181.565657 124.343578 
L 190.924519 124.582598 
L 199.506137 125.215219 
L 207.42977 125.442926 
L 214.789171 124.762859 
L 221.659384 126.595067 
L 228.101408 125.784197 
L 234.165501 125.510063 
L 239.893559 126.531894 
L 245.320877 126.657868 
L 250.477466 128.024496 
L 255.389057 127.482834 
L 260.077878 128.107828 
L 264.563263 127.620031 
L 268.862134 128.518702 
L 272.989385 127.707026 
L 276.958194 129.376779 
L 280.780278 128.165372 
L 284.466099 129.399869 
L 288.025041 129.705185 
L 291.465549 130.90553 
L 294.795252 128.893393 
L 298.021064 130.214769 
L 304.185615 130.629428 
L 307.135328 130.338187 
L 310.003221 131.39517 
L 312.793709 131.175846 
L 315.510863 132.051982 
L 318.158437 131.809941 
L 320.739907 132.147834 
L 323.258492 132.625525 
L 325.717185 132.792676 
L 328.118768 132.017493 
L 330.465834 133.337544 
L 332.760802 132.973794 
L 335.005936 134.244326 
L 337.203354 135.024752 
L 339.355042 134.226981 
L 341.462865 135.148888 
L 353.28 137.215965 
L 370.393668 138.295303 
L 385.072943 136.675789 
L 397.924933 140.615615 
L 409.354613 147.502427 
L 419.645657 155.455751 
L 429.004519 168.50943 
L 437.586137 177.74317 
L 445.50977 187.514103 
L 452.869171 193.378104 
L 459.739384 198.016339 
L 466.181408 199.863195 
L 472.245501 199.705809 
L 477.973559 202.551884 
L 483.400877 200.64438 
L 488.557466 204.161999 
L 493.469057 200.422443 
L 498.157878 195.287643 
L 502.643263 198.077952 
L 506.942134 198.327145 
L 511.069385 195.780964 
L 515.038194 197.911862 
L 518.860278 202.003114 
L 522.546099 199.852698 
L 526.105041 206.599894 
L 529.545549 201.669461 
L 532.875252 204.002491 
L 536.101064 205.135043 
L 539.229274 207.622527 
L 542.265615 211.605078 
L 545.215328 212.034664 
L 548.083221 212.650438 
L 550.873709 213.556832 
L 553.590863 211.007625 
L 556.238437 220.542362 
L 558.819907 210.409762 
L 561.338492 214.124224 
L 563.797185 213.915291 
L 566.198768 216.51805 
L 568.545834 209.827349 
L 570.840802 219.007587 
L 573.085936 220.489306 
L 575.283354 210.049112 
L 577.435042 217.127892 
L 579.542865 214.41787 
L 591.36 222.673844 
L 608.473668 231.407513 
L 623.152943 224.864154 
L 636.004933 232.153167 
L 647.434613 244.690008 
L 657.725657 249.269099 
L 667.084519 243.402421 
L 675.666137 244.591158 
L 683.58977 260.08326 
L 690.949171 279.641509 
L 697.819384 265.991271 
L 704.261408 283.503807 
L 710.325501 293.660933 
L 716.053559 292.795215 
L 721.480877 299.737729 
L 726.637466 321.140415 
L 731.549057 336.283772 
L 736.237878 310.870109 
L 740.723263 333.289044 
L 745.022134 348.556741 
L 749.149385 333.197801 
L 753.118194 359.300434 
L 756.940278 353.069585 
L 760.626099 354.835657 
L 764.185041 373.820781 
L 767.625549 438.433229 
L 770.955252 438.846086 
L 774.181064 406.096439 
L 777.309274 380.768785 
L 780.345615 414.251425 
L 783.295328 385.937092 
L 786.163221 425.722271 
L 788.953709 453.054501 
L 791.670863 444.745701 
L 794.318437 503.537509 
L 796.899907 483.652749 
L 799.418492 438.274505 
L 801.877185 499.865531 
L 804.278768 526.713798 
L 806.625834 459.248984 
L 808.920802 509.006374 
L 811.165936 505.676556 
L 813.363354 399.043974 
L 815.515042 570.930879 
L 817.622865 490.115641 
L 819.688575 519.833124 
L 821.713822 552.563459 
L 823.700162 563.310098 
L 825.64906 548.229248 
L 827.561903 563.318032 
L 827.561903 563.318032 
" style="fill:none;stroke:#ff1e1e;stroke-linecap:square;"/>
   </g>
   <g id="line2d_2">
    <path clip-path="url(#p6d0c861466)" d="M 115.2 122.633528 
L 132.313668 124.423223 
L 146.992943 122.163638 
L 159.844933 123.427264 
L 171.274613 125.302234 
L 181.565657 123.133534 
L 190.924519 125.241631 
L 199.506137 124.210048 
L 207.42977 126.028104 
L 214.789171 127.152785 
L 221.659384 125.153894 
L 228.101408 127.43814 
L 234.165501 127.153433 
L 239.893559 127.34127 
L 245.320877 128.292778 
L 250.477466 129.766041 
L 255.389057 127.839172 
L 260.077878 130.119423 
L 264.563263 128.486457 
L 268.862134 130.187619 
L 272.989385 128.785224 
L 276.958194 129.118385 
L 280.780278 129.082162 
L 284.466099 130.818028 
L 288.025041 132.225298 
L 291.465549 131.90309 
L 294.795252 131.400328 
L 298.021064 132.218833 
L 301.149274 132.448174 
L 304.185615 131.863828 
L 307.135328 133.307364 
L 310.003221 131.225749 
L 312.793709 133.700254 
L 315.510863 133.219167 
L 318.158437 133.799802 
L 320.739907 133.322816 
L 323.258492 134.806553 
L 325.717185 133.683644 
L 328.118768 132.750285 
L 330.465834 134.656504 
L 332.760802 136.884122 
L 335.005936 136.427641 
L 337.203354 136.249423 
L 339.355042 136.928788 
L 341.462865 137.364254 
L 353.28 138.05526 
L 370.393668 138.686889 
L 385.072943 142.277626 
L 397.924933 146.819746 
L 409.354613 149.998857 
L 419.645657 151.79552 
L 429.004519 153.934868 
L 437.586137 157.16704 
L 445.50977 162.281439 
L 452.869171 162.082354 
L 459.739384 170.240462 
L 466.181408 175.374438 
L 472.245501 179.052725 
L 477.973559 180.459466 
L 483.400877 187.269298 
L 488.557466 191.866915 
L 493.469057 191.62073 
L 498.157878 194.503125 
L 502.643263 194.560795 
L 506.942134 201.999455 
L 511.069385 195.2869 
L 515.038194 193.804598 
L 518.860278 202.968914 
L 522.546099 202.297845 
L 526.105041 204.484889 
L 529.545549 197.885471 
L 532.875252 204.187518 
L 536.101064 200.318534 
L 539.229274 205.497404 
L 542.265615 202.350499 
L 545.215328 197.453842 
L 548.083221 198.42187 
L 550.873709 195.895729 
L 553.590863 207.424435 
L 556.238437 198.23175 
L 558.819907 204.141215 
L 561.338492 205.627595 
L 563.797185 204.984468 
L 566.198768 199.750723 
L 568.545834 202.856555 
L 570.840802 209.84388 
L 573.085936 208.816715 
L 575.283354 204.792884 
L 577.435042 207.397027 
L 579.542865 208.299392 
L 591.36 213.145908 
L 608.473668 217.34252 
L 623.152943 221.515912 
L 636.004933 232.963664 
L 647.434613 236.380858 
L 657.725657 250.004341 
L 667.084519 236.589139 
L 675.666137 257.04838 
L 683.58977 263.114143 
L 690.949171 272.32211 
L 697.819384 265.047987 
L 704.261408 281.413453 
L 710.325501 289.266221 
L 716.053559 319.090776 
L 721.480877 296.81456 
L 726.637466 294.869017 
L 731.549057 328.457748 
L 736.237878 317.329285 
L 740.723263 301.545091 
L 745.022134 320.753645 
L 749.149385 350.726809 
L 753.118194 293.613522 
L 756.940278 356.790577 
L 760.626099 339.631706 
L 764.185041 378.213967 
L 767.625549 370.202977 
L 770.955252 387.52347 
L 774.181064 405.395207 
L 777.309274 407.627868 
L 780.345615 371.773004 
L 783.295328 403.022815 
L 786.163221 425.24701 
L 788.953709 445.208048 
L 791.670863 400.364998 
L 794.318437 510.181808 
L 796.899907 474.364197 
L 799.418492 389.177237 
L 801.877185 463.9229 
L 804.278768 462.449999 
L 806.625834 522.847587 
L 808.920802 525.262544 
L 811.165936 504.669878 
L 813.363354 512.447209 
L 815.515042 507.285161 
L 817.622865 459.524728 
L 819.688575 455.164172 
L 821.713822 489.487583 
L 823.700162 489.240178 
L 825.64906 492.38564 
L 827.561903 487.84915 
L 827.561903 487.84915 
" style="fill:none;stroke:#581845;stroke-linecap:square;"/>
   </g>
   <g id="line2d_3">
    <path clip-path="url(#p6d0c861466)" d="M 115.2 121.695633 
L 132.313668 123.167723 
L 146.992943 125.954706 
L 159.844933 123.953268 
L 171.274613 125.838505 
L 181.565657 125.451096 
L 190.924519 124.519917 
L 199.506137 125.255126 
L 207.42977 123.860603 
L 214.789171 125.693837 
L 221.659384 127.080842 
L 228.101408 125.964388 
L 234.165501 128.193894 
L 239.893559 129.092686 
L 245.320877 125.334568 
L 250.477466 128.68799 
L 255.389057 127.593265 
L 260.077878 130.607375 
L 264.563263 128.01702 
L 268.862134 127.889905 
L 272.989385 132.285616 
L 276.958194 132.933052 
L 280.780278 130.523625 
L 284.466099 127.135 
L 288.025041 129.289113 
L 291.465549 131.118879 
L 294.795252 132.533079 
L 298.021064 130.696513 
L 301.149274 136.189438 
L 304.185615 133.533956 
L 307.135328 133.568682 
L 310.003221 132.422594 
L 312.793709 135.792855 
L 315.510863 135.244763 
L 318.158437 135.570738 
L 320.739907 137.098719 
L 323.258492 135.077771 
L 325.717185 136.124602 
L 328.118768 137.703591 
L 330.465834 136.728051 
L 332.760802 134.188021 
L 335.005936 136.621634 
L 337.203354 138.507613 
L 339.355042 134.935262 
L 341.462865 137.257356 
L 353.28 140.469487 
L 370.393668 140.802163 
L 397.924933 144.324759 
L 409.354613 148.264184 
L 419.645657 149.511351 
L 429.004519 151.426572 
L 437.586137 153.405395 
L 445.50977 155.937365 
L 452.869171 157.463306 
L 459.739384 160.657179 
L 466.181408 165.355095 
L 472.245501 162.731036 
L 477.973559 171.116595 
L 483.400877 171.474149 
L 488.557466 170.558401 
L 493.469057 170.509009 
L 498.157878 178.659179 
L 502.643263 183.722395 
L 506.942134 182.850361 
L 511.069385 190.37196 
L 515.038194 196.1202 
L 518.860278 193.749446 
L 522.546099 193.394297 
L 526.105041 198.832701 
L 529.545549 201.318681 
L 532.875252 196.231306 
L 536.101064 192.075914 
L 539.229274 198.968824 
L 542.265615 206.031921 
L 545.215328 200.604672 
L 548.083221 202.486778 
L 550.873709 198.309097 
L 553.590863 208.915767 
L 556.238437 202.919621 
L 558.819907 198.567529 
L 561.338492 196.55974 
L 563.797185 204.516394 
L 566.198768 200.533844 
L 568.545834 197.445103 
L 570.840802 199.447506 
L 573.085936 197.149484 
L 575.283354 204.529903 
L 577.435042 202.407445 
L 579.542865 210.621154 
L 591.36 197.110439 
L 608.473668 212.977379 
L 623.152943 218.038427 
L 636.004933 223.085801 
L 647.434613 222.572653 
L 657.725657 231.534598 
L 667.084519 237.216938 
L 675.666137 268.298496 
L 683.58977 270.233493 
L 690.949171 252.583882 
L 697.819384 267.697368 
L 704.261408 283.209809 
L 710.325501 281.622237 
L 716.053559 284.99949 
L 721.480877 307.297904 
L 726.637466 256.850256 
L 731.549057 298.847121 
L 736.237878 297.20054 
L 740.723263 349.895272 
L 745.022134 339.319644 
L 749.149385 329.559001 
L 753.118194 346.083454 
L 756.940278 347.560245 
L 760.626099 327.271228 
L 764.185041 355.835219 
L 767.625549 377.111525 
L 770.955252 383.130543 
L 774.181064 385.930402 
L 777.309274 390.958151 
L 780.345615 417.318597 
L 783.295328 366.268171 
L 786.163221 433.598292 
L 788.953709 368.30149 
L 791.670863 378.084902 
L 794.318437 425.167528 
L 796.899907 513.049884 
L 799.418492 488.092773 
L 801.877185 482.537345 
L 804.278768 444.452332 
L 806.625834 466.722526 
L 808.920802 442.734184 
L 813.363354 493.748937 
L 815.515042 490.570384 
L 817.622865 552.693179 
L 819.688575 478.906654 
L 821.713822 539.274391 
L 823.700162 458.081817 
L 825.64906 483.275499 
L 827.561903 502.940969 
L 827.561903 502.940969 
" style="fill:none;stroke:#26b7d8;stroke-linecap:square;"/>
   </g>
   <g id="line2d_4">
    <path clip-path="url(#p6d0c861466)" d="M 115.2 122.929836 
L 132.313668 122.341621 
L 146.992943 125.644496 
L 159.844933 123.498954 
L 171.274613 126.060991 
L 181.565657 124.890685 
L 190.924519 125.108846 
L 199.506137 125.688903 
L 207.42977 127.812238 
L 214.789171 126.535631 
L 221.659384 124.581723 
L 228.101408 134.783018 
L 234.165501 126.978036 
L 239.893559 130.310871 
L 245.320877 127.597801 
L 250.477466 129.82144 
L 255.389057 126.393934 
L 260.077878 131.276873 
L 264.563263 131.812881 
L 268.862134 131.278339 
L 272.989385 131.570673 
L 276.958194 133.064692 
L 280.780278 133.61973 
L 284.466099 128.753656 
L 288.025041 132.85586 
L 291.465549 133.789302 
L 294.795252 135.331814 
L 298.021064 130.791082 
L 301.149274 133.140126 
L 304.185615 134.685641 
L 307.135328 131.412182 
L 310.003221 131.329193 
L 312.793709 133.742198 
L 315.510863 134.491348 
L 318.158437 135.390612 
L 320.739907 135.53193 
L 323.258492 136.607894 
L 325.717185 137.91285 
L 328.118768 133.476832 
L 330.465834 137.116923 
L 332.760802 138.45065 
L 337.203354 137.678619 
L 339.355042 136.638057 
L 341.462865 135.031414 
L 353.28 140.62588 
L 370.393668 145.744483 
L 385.072943 145.476375 
L 397.924933 143.538338 
L 409.354613 145.750309 
L 419.645657 147.226121 
L 429.004519 149.265976 
L 437.586137 147.912121 
L 445.50977 147.203561 
L 452.869171 152.995028 
L 459.739384 150.623008 
L 466.181408 161.817236 
L 472.245501 155.075467 
L 477.973559 154.330889 
L 483.400877 161.676386 
L 488.557466 164.028542 
L 493.469057 171.967186 
L 498.157878 163.621361 
L 502.643263 167.235049 
L 506.942134 165.077925 
L 511.069385 173.162062 
L 515.038194 171.199121 
L 518.860278 173.743745 
L 522.546099 186.039825 
L 526.105041 189.094627 
L 529.545549 193.752646 
L 532.875252 197.107233 
L 536.101064 194.294126 
L 539.229274 195.932945 
L 542.265615 192.297722 
L 545.215328 189.008735 
L 548.083221 200.49575 
L 550.873709 201.662404 
L 553.590863 196.584064 
L 556.238437 202.756494 
L 558.819907 203.886502 
L 561.338492 206.435402 
L 563.797185 207.037476 
L 566.198768 200.586315 
L 568.545834 199.333341 
L 570.840802 207.710979 
L 573.085936 209.147364 
L 575.283354 198.42422 
L 577.435042 203.198152 
L 579.542865 214.81401 
L 591.36 202.842344 
L 608.473668 197.615778 
L 623.152943 210.730454 
L 636.004933 212.735279 
L 647.434613 222.243431 
L 657.725657 235.108137 
L 667.084519 257.143919 
L 675.666137 218.67406 
L 683.58977 226.483439 
L 690.949171 210.04467 
L 697.819384 259.032646 
L 704.261408 262.810288 
L 710.325501 266.650454 
L 716.053559 266.332565 
L 721.480877 329.646 
L 726.637466 335.954788 
L 731.549057 313.703192 
L 736.237878 307.634842 
L 740.723263 306.837778 
L 745.022134 367.618892 
L 749.149385 323.779978 
L 753.118194 301.501924 
L 756.940278 295.312889 
L 760.626099 327.983891 
L 764.185041 334.055992 
L 767.625549 342.29425 
L 770.955252 364.399767 
L 774.181064 368.668536 
L 777.309274 387.578724 
L 780.345615 325.891254 
L 783.295328 360.648999 
L 786.163221 433.068191 
L 788.953709 402.353211 
L 791.670863 427.997028 
L 794.318437 424.005085 
L 796.899907 499.778009 
L 799.418492 446.826818 
L 801.877185 416.075239 
L 804.278768 438.647085 
L 806.625834 521.241762 
L 808.920802 520.071716 
L 811.165936 446.801091 
L 813.363354 428.979015 
L 815.515042 452.06391 
L 817.622865 497.162093 
L 819.688575 525.323817 
L 821.713822 571.534849 
L 823.700162 455.753412 
L 825.64906 471.41426 
L 827.561903 558.805855 
L 827.561903 558.805855 
" style="fill:none;stroke:#8414a4;stroke-linecap:square;"/>
   </g>
   <g id="line2d_5">
    <path clip-path="url(#p6d0c861466)" d="M 115.2 123.546761 
L 132.313668 120.91406 
L 146.992943 126.189293 
L 159.844933 127.951803 
L 171.274613 126.46332 
L 181.565657 123.965587 
L 190.924519 126.611696 
L 199.506137 126.881838 
L 214.789171 124.882407 
L 221.659384 125.758688 
L 228.101408 125.326573 
L 234.165501 128.650609 
L 239.893559 130.442748 
L 245.320877 131.704306 
L 250.477466 127.339252 
L 255.389057 131.999065 
L 260.077878 134.274497 
L 264.563263 131.309588 
L 268.862134 131.406416 
L 272.989385 130.130133 
L 276.958194 131.550169 
L 280.780278 134.591584 
L 284.466099 132.62157 
L 288.025041 131.982811 
L 291.465549 132.538237 
L 294.795252 131.035476 
L 298.021064 132.945405 
L 301.149274 133.101662 
L 304.185615 135.073387 
L 307.135328 134.17281 
L 310.003221 126.980256 
L 312.793709 135.000545 
L 315.510863 129.861172 
L 318.158437 138.064101 
L 320.739907 136.580846 
L 323.258492 135.446138 
L 325.717185 138.177201 
L 328.118768 139.187682 
L 330.465834 141.618214 
L 332.760802 134.939935 
L 335.005936 134.742441 
L 337.203354 141.352658 
L 339.355042 136.202854 
L 341.462865 138.18216 
L 353.28 140.784739 
L 370.393668 148.848265 
L 385.072943 139.525837 
L 397.924933 146.606956 
L 409.354613 145.73027 
L 419.645657 141.266413 
L 429.004519 146.875128 
L 437.586137 147.484643 
L 445.50977 145.913499 
L 452.869171 157.273551 
L 459.739384 147.369789 
L 466.181408 154.884925 
L 472.245501 153.806794 
L 477.973559 156.979762 
L 483.400877 160.244659 
L 488.557466 159.797025 
L 493.469057 152.281881 
L 498.157878 157.575159 
L 502.643263 162.833446 
L 506.942134 164.243243 
L 511.069385 159.940863 
L 515.038194 162.288687 
L 518.860278 171.201923 
L 522.546099 169.534055 
L 526.105041 174.133952 
L 529.545549 180.444066 
L 532.875252 187.619063 
L 536.101064 187.5035 
L 539.229274 181.711058 
L 542.265615 187.800879 
L 545.215328 188.07586 
L 548.083221 190.583435 
L 550.873709 187.645206 
L 553.590863 180.873067 
L 556.238437 196.10094 
L 558.819907 183.225106 
L 561.338492 187.98735 
L 563.797185 198.457199 
L 566.198768 183.372837 
L 568.545834 195.743829 
L 570.840802 193.235074 
L 573.085936 197.54549 
L 575.283354 199.12527 
L 577.435042 193.144991 
L 579.542865 204.016253 
L 591.36 208.404141 
L 608.473668 209.020376 
L 623.152943 214.223967 
L 636.004933 224.401763 
L 647.434613 216.212876 
L 657.725657 231.847329 
L 667.084519 237.565991 
L 675.666137 242.012762 
L 683.58977 253.878686 
L 690.949171 258.06419 
L 697.819384 271.05649 
L 704.261408 314.891468 
L 710.325501 273.614924 
L 716.053559 295.071786 
L 721.480877 297.5658 
L 726.637466 333.73769 
L 731.549057 323.48951 
L 736.237878 296.863525 
L 740.723263 268.308418 
L 745.022134 306.109497 
L 749.149385 298.193632 
L 753.118194 317.471135 
L 756.940278 326.165914 
L 760.626099 328.16396 
L 764.185041 353.223641 
L 767.625549 363.063928 
L 770.955252 383.589723 
L 774.181064 348.794803 
L 777.309274 386.127502 
L 780.345615 360.09615 
L 783.295328 402.78187 
L 786.163221 392.653743 
L 788.953709 433.305393 
L 791.670863 431.735886 
L 794.318437 478.211965 
L 796.899907 427.136379 
L 799.418492 437.949968 
L 801.877185 464.05507 
L 804.278768 464.626981 
L 806.625834 452.958559 
L 808.920802 526.582143 
L 811.165936 397.708704 
L 813.363354 507.728344 
L 815.515042 376.617099 
L 817.622865 474.730468 
L 819.688575 500.093889 
L 821.713822 499.145404 
L 823.700162 476.047509 
L 825.64906 549.765484 
L 827.561903 538.964593 
L 827.561903 538.964593 
" style="fill:none;stroke:#ffd23a;stroke-linecap:square;"/>
   </g>
   <g id="line2d_6">
    <path clip-path="url(#p6d0c861466)" d="M 115.2 122.045262 
L 132.313668 125.768545 
L 146.992943 121.840457 
L 159.844933 123.863054 
L 171.274613 125.459344 
L 181.565657 126.490084 
L 190.924519 125.258548 
L 199.506137 126.992442 
L 207.42977 121.264988 
L 214.789171 129.472916 
L 221.659384 127.807003 
L 228.101408 123.648289 
L 234.165501 125.833489 
L 239.893559 129.501056 
L 245.320877 124.118471 
L 250.477466 130.568633 
L 255.389057 133.699355 
L 260.077878 133.206393 
L 264.563263 125.56137 
L 268.862134 131.318336 
L 272.989385 130.751062 
L 276.958194 135.663906 
L 280.780278 128.425107 
L 284.466099 135.36854 
L 288.025041 130.772714 
L 291.465549 135.970176 
L 294.795252 137.387183 
L 298.021064 128.436877 
L 301.149274 136.114719 
L 304.185615 133.955437 
L 307.135328 132.445297 
L 310.003221 130.418773 
L 312.793709 137.490234 
L 315.510863 132.667061 
L 318.158437 134.793273 
L 320.739907 138.047041 
L 323.258492 136.207072 
L 325.717185 130.767847 
L 328.118768 134.159036 
L 330.465834 136.981965 
L 332.760802 141.003484 
L 335.005936 131.813965 
L 337.203354 138.082685 
L 339.355042 137.381077 
L 341.462865 137.815374 
L 353.28 138.093938 
L 370.393668 139.350269 
L 385.072943 144.821311 
L 397.924933 143.679682 
L 409.354613 146.503659 
L 419.645657 145.833174 
L 429.004519 146.535266 
L 437.586137 151.801494 
L 445.50977 139.396507 
L 452.869171 151.073693 
L 459.739384 139.094076 
L 466.181408 147.965068 
L 472.245501 151.119101 
L 477.973559 157.781272 
L 483.400877 153.704863 
L 488.557466 153.495373 
L 493.469057 157.09841 
L 498.157878 152.977294 
L 502.643263 158.190763 
L 506.942134 167.002353 
L 511.069385 157.155538 
L 515.038194 160.957207 
L 518.860278 164.060184 
L 522.546099 162.560302 
L 526.105041 165.403236 
L 529.545549 176.831877 
L 532.875252 168.117215 
L 536.101064 171.07034 
L 539.229274 168.332365 
L 542.265615 187.23682 
L 545.215328 173.580878 
L 548.083221 184.660943 
L 550.873709 171.456909 
L 553.590863 190.736594 
L 556.238437 186.808046 
L 558.819907 189.556628 
L 561.338492 189.46122 
L 563.797185 181.679489 
L 566.198768 194.248259 
L 568.545834 190.48046 
L 570.840802 196.603754 
L 573.085936 190.418274 
L 575.283354 203.101447 
L 577.435042 205.542867 
L 579.542865 200.294805 
L 591.36 182.660839 
L 608.473668 212.422089 
L 623.152943 213.895134 
L 636.004933 219.108418 
L 647.434613 230.738447 
L 657.725657 222.251067 
L 667.084519 242.443548 
L 675.666137 223.72914 
L 683.58977 232.745447 
L 690.949171 251.150446 
L 697.819384 271.906255 
L 704.261408 250.448806 
L 710.325501 283.321141 
L 716.053559 259.257395 
L 721.480877 304.166384 
L 726.637466 290.664855 
L 731.549057 269.163843 
L 736.237878 300.428893 
L 740.723263 276.375354 
L 745.022134 340.719718 
L 749.149385 284.150295 
L 753.118194 333.70627 
L 756.940278 340.553619 
L 760.626099 355.005326 
L 764.185041 350.628657 
L 767.625549 294.467082 
L 770.955252 374.0625 
L 774.181064 374.700875 
L 777.309274 453.660003 
L 780.345615 383.977351 
L 783.295328 404.943183 
L 786.163221 411.965767 
L 788.953709 405.432557 
L 791.670863 452.275395 
L 794.318437 447.76763 
L 796.899907 403.901925 
L 799.418492 437.882558 
L 801.877185 468.759887 
L 804.278768 473.667656 
L 806.625834 491.34484 
L 808.920802 463.404252 
L 811.165936 394.250442 
L 813.363354 477.952532 
L 815.515042 512.924882 
L 817.622865 491.99606 
L 819.688575 512.406181 
L 821.713822 492.674883 
L 823.700162 494.725846 
L 825.64906 530.131813 
L 827.561903 528.334954 
L 827.561903 528.334954 
" style="fill:none;stroke:#ff9300;stroke-linecap:square;"/>
   </g>
   <g id="line2d_7">
    <path clip-path="url(#p6d0c861466)" d="M 115.2 125.483619 
L 132.313668 126.504173 
L 146.992943 120.634473 
L 159.844933 125.662083 
L 171.274613 127.42167 
L 181.565657 128.425182 
L 190.924519 122.346432 
L 199.506137 123.776239 
L 207.42977 127.662445 
L 214.789171 126.120284 
L 221.659384 128.430875 
L 228.101408 126.58098 
L 234.165501 131.87313 
L 239.893559 127.72575 
L 245.320877 127.657574 
L 250.477466 123.709495 
L 255.389057 126.666948 
L 260.077878 128.115113 
L 264.563263 126.978849 
L 268.862134 129.907436 
L 272.989385 133.287301 
L 276.958194 131.310631 
L 280.780278 128.523337 
L 284.466099 131.141965 
L 288.025041 136.293812 
L 291.465549 139.599228 
L 294.795252 141.20129 
L 298.021064 133.695411 
L 301.149274 132.743859 
L 304.185615 140.006268 
L 307.135328 135.029103 
L 310.003221 142.119951 
L 312.793709 139.821246 
L 315.510863 136.110292 
L 318.158437 139.777465 
L 320.739907 139.780135 
L 323.258492 140.412104 
L 325.717185 136.18176 
L 328.118768 141.226099 
L 330.465834 139.911199 
L 332.760802 140.093575 
L 335.005936 133.092178 
L 337.203354 142.317941 
L 339.355042 134.33763 
L 341.462865 143.504183 
L 353.28 140.532947 
L 370.393668 144.549216 
L 385.072943 142.897823 
L 397.924933 139.766069 
L 409.354613 143.774472 
L 419.645657 148.464778 
L 429.004519 144.906996 
L 437.586137 145.423893 
L 445.50977 149.531725 
L 452.869171 144.297298 
L 459.739384 144.794031 
L 466.181408 147.011457 
L 472.245501 150.50536 
L 477.973559 148.66201 
L 483.400877 148.760455 
L 488.557466 153.130395 
L 493.469057 154.07099 
L 498.157878 155.986344 
L 502.643263 146.678225 
L 506.942134 151.977603 
L 511.069385 155.764127 
L 515.038194 156.473185 
L 518.860278 160.48035 
L 522.546099 152.289846 
L 526.105041 169.676458 
L 529.545549 157.026112 
L 532.875252 172.378506 
L 536.101064 163.620327 
L 539.229274 160.596231 
L 542.265615 165.580277 
L 545.215328 168.806985 
L 548.083221 172.959459 
L 550.873709 178.05471 
L 553.590863 180.057426 
L 556.238437 173.793492 
L 558.819907 176.271155 
L 561.338492 166.915648 
L 563.797185 192.876068 
L 566.198768 189.835601 
L 568.545834 186.294504 
L 570.840802 193.082544 
L 573.085936 188.914368 
L 575.283354 197.729731 
L 577.435042 183.88737 
L 579.542865 196.057604 
L 591.36 201.712613 
L 608.473668 197.765847 
L 623.152943 202.545614 
L 636.004933 225.070635 
L 647.434613 241.591169 
L 657.725657 217.433824 
L 667.084519 214.160184 
L 675.666137 249.403222 
L 683.58977 234.58059 
L 690.949171 244.453891 
L 697.819384 237.757417 
L 704.261408 264.973748 
L 710.325501 242.798828 
L 716.053559 258.203277 
L 721.480877 261.029379 
L 726.637466 260.2644 
L 736.237878 324.583789 
L 740.723263 296.207101 
L 745.022134 316.302326 
L 749.149385 323.871571 
L 753.118194 324.968578 
L 756.940278 337.119879 
L 760.626099 341.203272 
L 764.185041 308.144964 
L 767.625549 343.16998 
L 770.955252 445.97871 
L 774.181064 322.603314 
L 777.309274 480.447962 
L 780.345615 423.9537 
L 783.295328 516.209677 
L 786.163221 384.8937 
L 788.953709 421.911457 
L 791.670863 412.278029 
L 794.318437 446.119225 
L 796.899907 462.246189 
L 799.418492 430.937993 
L 801.877185 412.198682 
L 804.278768 462.8225 
L 806.625834 469.988192 
L 808.920802 571.697965 
L 811.165936 442.748593 
L 813.363354 475.001142 
L 815.515042 484.813404 
L 817.622865 463.532905 
L 819.688575 438.032995 
L 821.713822 458.832982 
L 823.700162 425.132518 
L 825.64906 521.285522 
L 827.561903 543.963139 
L 827.561903 543.963139 
" style="fill:none;stroke:#f50fe6;stroke-linecap:square;"/>
   </g>
   <g id="line2d_8">
    <path clip-path="url(#p6d0c861466)" d="M 115.2 120.068034 
L 132.313668 124.825946 
L 146.992943 126.479747 
L 159.844933 122.851567 
L 171.274613 131.375271 
L 181.565657 121.899945 
L 190.924519 125.279113 
L 199.506137 126.360132 
L 207.42977 128.052013 
L 214.789171 130.766268 
L 221.659384 128.101589 
L 228.101408 125.459957 
L 234.165501 130.347036 
L 239.893559 129.092028 
L 245.320877 130.219042 
L 250.477466 134.762432 
L 255.389057 136.259509 
L 260.077878 135.974944 
L 264.563263 132.296238 
L 268.862134 129.976039 
L 272.989385 136.150665 
L 276.958194 139.792517 
L 280.780278 137.108546 
L 284.466099 130.131366 
L 288.025041 132.625495 
L 291.465549 129.772042 
L 294.795252 139.386323 
L 298.021064 135.466973 
L 301.149274 130.613235 
L 304.185615 139.560344 
L 307.135328 132.133375 
L 310.003221 134.452322 
L 312.793709 140.614614 
L 315.510863 130.571595 
L 318.158437 129.749228 
L 320.739907 129.623761 
L 323.258492 134.001025 
L 325.717185 137.794492 
L 328.118768 146.009996 
L 330.465834 133.169155 
L 332.760802 140.117295 
L 335.005936 139.874992 
L 337.203354 143.337021 
L 339.355042 139.246238 
L 341.462865 139.468442 
L 353.28 136.884656 
L 370.393668 141.628815 
L 385.072943 139.135207 
L 397.924933 147.00769 
L 409.354613 138.33903 
L 419.645657 144.136641 
L 429.004519 147.390362 
L 437.586137 140.41389 
L 445.50977 148.020731 
L 452.869171 149.619699 
L 459.739384 145.557684 
L 466.181408 143.969896 
L 472.245501 146.195924 
L 477.973559 149.081604 
L 483.400877 141.488497 
L 488.557466 147.068215 
L 493.469057 155.505594 
L 498.157878 153.323224 
L 502.643263 143.649098 
L 506.942134 150.184824 
L 511.069385 156.237965 
L 515.038194 162.426331 
L 518.860278 151.520045 
L 522.546099 152.42344 
L 526.105041 167.125376 
L 529.545549 163.655725 
L 532.875252 160.948378 
L 536.101064 163.66912 
L 539.229274 161.62388 
L 542.265615 164.653726 
L 545.215328 177.112282 
L 548.083221 179.575233 
L 550.873709 163.677482 
L 553.590863 169.902685 
L 556.238437 188.133797 
L 558.819907 175.556257 
L 561.338492 182.288573 
L 563.797185 178.637946 
L 566.198768 176.318241 
L 568.545834 185.271914 
L 570.840802 178.01905 
L 573.085936 189.743035 
L 575.283354 196.320812 
L 577.435042 190.272819 
L 579.542865 186.028124 
L 591.36 188.134167 
L 608.473668 208.429511 
L 623.152943 206.979842 
L 636.004933 213.205692 
L 647.434613 207.123409 
L 657.725657 223.821492 
L 667.084519 233.607389 
L 675.666137 240.633261 
L 683.58977 241.886141 
L 690.949171 250.571204 
L 697.819384 292.112218 
L 704.261408 241.519608 
L 710.325501 251.089922 
L 716.053559 305.688795 
L 721.480877 307.640336 
L 726.637466 264.008769 
L 731.549057 350.311949 
L 736.237878 273.550606 
L 740.723263 259.809968 
L 745.022134 285.092125 
L 749.149385 316.418104 
L 753.118194 322.779841 
L 756.940278 335.41965 
L 760.626099 268.35486 
L 764.185041 361.290288 
L 767.625549 328.22241 
L 770.955252 328.391472 
L 774.181064 375.171116 
L 777.309274 312.260535 
L 780.345615 374.597227 
L 783.295328 385.869008 
L 786.163221 416.24181 
L 788.953709 401.395774 
L 791.670863 277.822626 
L 794.318437 433.609328 
L 796.899907 458.519894 
L 799.418492 282.654015 
L 801.877185 433.996757 
L 804.278768 466.239754 
L 806.625834 463.317367 
L 808.920802 413.757709 
L 811.165936 443.546897 
L 813.363354 340.647944 
L 815.515042 502.800324 
L 817.622865 242.979591 
L 819.688575 410.196886 
L 821.713822 467.994234 
L 823.700162 508.080783 
L 825.64906 532.989313 
L 827.561903 513.072085 
L 827.561903 513.072085 
" style="fill:none;stroke:#1000a0;stroke-linecap:square;"/>
   </g>
   <g id="line2d_9">
    <path clip-path="url(#p6d0c861466)" d="M 115.2 126.387573 
L 132.313668 126.490349 
L 146.992943 122.433391 
L 159.844933 127.943254 
L 171.274613 131.626592 
L 181.565657 125.140422 
L 190.924519 124.687382 
L 199.506137 115.841292 
L 207.42977 130.732908 
L 214.789171 125.774574 
L 221.659384 125.219947 
L 228.101408 126.143841 
L 234.165501 133.150427 
L 239.893559 130.448185 
L 245.320877 128.409137 
L 250.477466 126.87218 
L 255.389057 134.74568 
L 260.077878 139.369453 
L 264.563263 125.880378 
L 268.862134 131.147287 
L 272.989385 135.483719 
L 276.958194 137.85913 
L 280.780278 130.304073 
L 284.466099 130.885856 
L 288.025041 136.780048 
L 291.465549 136.632349 
L 294.795252 140.647064 
L 298.021064 137.555018 
L 301.149274 137.857969 
L 304.185615 134.92841 
L 307.135328 137.428784 
L 310.003221 139.061329 
L 312.793709 128.178267 
L 315.510863 129.297946 
L 318.158437 133.631368 
L 320.739907 139.708657 
L 323.258492 148.110665 
L 325.717185 135.874696 
L 328.118768 139.213204 
L 330.465834 132.460267 
L 332.760802 144.720345 
L 335.005936 142.78145 
L 337.203354 137.24237 
L 339.355042 134.967953 
L 341.462865 132.476348 
L 353.28 141.736052 
L 370.393668 140.356878 
L 385.072943 141.431908 
L 397.924933 138.36771 
L 409.354613 137.91861 
L 419.645657 135.667384 
L 429.004519 144.634402 
L 437.586137 143.9241 
L 445.50977 139.865132 
L 452.869171 151.330496 
L 459.739384 149.799794 
L 466.181408 144.49261 
L 472.245501 153.047323 
L 477.973559 148.969114 
L 483.400877 148.463973 
L 488.557466 141.653914 
L 493.469057 150.574198 
L 498.157878 148.512496 
L 502.643263 144.908632 
L 506.942134 152.244113 
L 511.069385 140.359597 
L 515.038194 151.084522 
L 518.860278 155.844498 
L 522.546099 143.727194 
L 526.105041 155.452905 
L 529.545549 158.265297 
L 532.875252 152.730423 
L 536.101064 158.986858 
L 539.229274 171.658975 
L 542.265615 159.218695 
L 545.215328 161.175795 
L 548.083221 166.613415 
L 550.873709 162.71047 
L 553.590863 173.506935 
L 556.238437 168.890885 
L 558.819907 172.172496 
L 561.338492 165.650649 
L 563.797185 187.948192 
L 566.198768 181.727613 
L 568.545834 166.34713 
L 570.840802 176.109946 
L 573.085936 188.96957 
L 575.283354 162.598437 
L 577.435042 182.635757 
L 579.542865 194.596519 
L 591.36 199.005279 
L 608.473668 200.976258 
L 623.152943 200.719107 
L 636.004933 203.300816 
L 647.434613 214.232744 
L 657.725657 217.588319 
L 667.084519 231.595329 
L 675.666137 215.025929 
L 683.58977 253.908798 
L 690.949171 245.016608 
L 697.819384 257.714143 
L 704.261408 257.352871 
L 710.325501 305.671165 
L 716.053559 252.04139 
L 721.480877 234.133388 
L 726.637466 294.91781 
L 731.549057 258.380272 
L 736.237878 295.772774 
L 740.723263 314.116679 
L 745.022134 290.243738 
L 749.149385 260.453624 
L 753.118194 353.932659 
L 756.940278 284.203699 
L 760.626099 322.771626 
L 764.185041 324.623374 
L 767.625549 302.330457 
L 770.955252 370.234984 
L 774.181064 394.186955 
L 777.309274 318.935787 
L 780.345615 371.495438 
L 783.295328 392.036621 
L 786.163221 391.090727 
L 788.953709 474.775339 
L 791.670863 390.172683 
L 794.318437 411.101558 
L 796.899907 420.05294 
L 799.418492 539.833414 
L 801.877185 430.148092 
L 804.278768 362.674751 
L 806.625834 408.773537 
L 808.920802 435.702955 
L 811.165936 474.527594 
L 813.363354 502.342034 
L 815.515042 461.188235 
L 817.622865 449.108145 
L 819.688575 467.088684 
L 821.713822 451.916415 
L 823.700162 473.05761 
L 825.64906 399.757496 
L 827.561903 515.023085 
L 827.561903 515.023085 
" style="fill:none;stroke:#595866;stroke-linecap:square;"/>
   </g>
   <g id="line2d_10">
    <path clip-path="url(#p6d0c861466)" d="M 115.2 127.529172 
L 132.313668 130.005327 
L 146.992943 121.206154 
L 159.844933 117.645053 
L 171.274613 124.486272 
L 181.565657 123.236988 
L 190.924519 131.616278 
L 199.506137 132.198462 
L 207.42977 121.731194 
L 214.789171 125.582967 
L 221.659384 125.045558 
L 228.101408 134.68837 
L 234.165501 127.163966 
L 239.893559 117.744893 
L 245.320877 135.388699 
L 250.477466 127.265517 
L 255.389057 128.899645 
L 260.077878 139.499548 
L 264.563263 121.853955 
L 268.862134 127.190467 
L 272.989385 138.972089 
L 276.958194 135.16867 
L 280.780278 128.889253 
L 284.466099 127.177265 
L 288.025041 131.716463 
L 291.465549 126.583082 
L 294.795252 133.619838 
L 298.021064 123.17434 
L 301.149274 134.88876 
L 304.185615 140.016752 
L 307.135328 144.339381 
L 310.003221 138.015823 
L 312.793709 140.390307 
L 315.510863 139.472605 
L 318.158437 130.222261 
L 320.739907 128.556855 
L 323.258492 135.519886 
L 325.717185 147.946064 
L 328.118768 150.682843 
L 330.465834 133.327278 
L 332.760802 142.20072 
L 335.005936 150.166363 
L 337.203354 142.658753 
L 339.355042 144.048585 
L 341.462865 140.963341 
L 353.28 136.650638 
L 370.393668 138.370842 
L 385.072943 148.862544 
L 397.924933 142.592054 
L 409.354613 144.890359 
L 419.645657 143.163158 
L 429.004519 135.184653 
L 437.586137 144.75298 
L 445.50977 141.907043 
L 452.869171 153.543366 
L 466.181408 134.798679 
L 472.245501 154.157915 
L 477.973559 153.548303 
L 483.400877 145.178402 
L 488.557466 148.099352 
L 493.469057 147.878288 
L 498.157878 153.667394 
L 502.643263 144.925363 
L 506.942134 148.067106 
L 511.069385 149.920062 
L 515.038194 144.449531 
L 518.860278 161.172486 
L 522.546099 141.011408 
L 526.105041 157.572029 
L 529.545549 150.601717 
L 532.875252 152.485499 
L 536.101064 160.795944 
L 539.229274 153.440699 
L 542.265615 148.131056 
L 545.215328 149.429349 
L 548.083221 160.250761 
L 550.873709 161.597278 
L 553.590863 160.701668 
L 556.238437 171.462592 
L 558.819907 177.906052 
L 561.338492 165.099515 
L 563.797185 176.744701 
L 566.198768 179.10621 
L 568.545834 175.462764 
L 570.840802 173.484017 
L 573.085936 159.995734 
L 575.283354 178.656647 
L 577.435042 179.483951 
L 579.542865 187.584895 
L 591.36 198.78985 
L 608.473668 200.652497 
L 623.152943 192.541601 
L 636.004933 202.091771 
L 647.434613 241.180351 
L 657.725657 208.825236 
L 667.084519 229.448767 
L 683.58977 247.637982 
L 690.949171 248.339784 
L 697.819384 243.256054 
L 704.261408 238.343728 
L 710.325501 261.574829 
L 716.053559 267.58005 
L 721.480877 231.915488 
L 726.637466 281.796582 
L 731.549057 292.357114 
L 740.723263 316.483094 
L 745.022134 345.24214 
L 749.149385 324.701931 
L 753.118194 340.26075 
L 756.940278 293.409877 
L 760.626099 505.07262 
L 764.185041 351.496311 
L 767.625549 340.900786 
L 770.955252 318.955106 
L 774.181064 338.277738 
L 777.309274 351.366351 
L 780.345615 353.250573 
L 783.295328 445.91871 
L 786.163221 522.946374 
L 788.953709 389.603303 
L 791.670863 445.395705 
L 794.318437 373.148493 
L 796.899907 412.684657 
L 799.418492 458.880116 
L 801.877185 456.476951 
L 804.278768 422.281902 
L 806.625834 432.8089 
L 808.920802 430.976421 
L 813.363354 517.799503 
L 815.515042 500.919299 
L 817.622865 453.388199 
L 819.688575 544.816215 
L 821.713822 448.393478 
L 823.700162 428.387975 
L 825.64906 500.325538 
L 827.561903 491.028976 
L 827.561903 491.028976 
" style="fill:none;stroke:#147f2a;stroke-linecap:square;"/>
   </g>
   <g id="patch_3">
    <path d="M 115.2 576.72 
L 829.44 576.72 
" style="fill:none;stroke:#000000;stroke-linecap:square;stroke-linejoin:miter;"/>
   </g>
   <g id="patch_4">
    <path d="M 115.2 576.72 
L 115.2 64.08 
" style="fill:none;stroke:#000000;stroke-linecap:square;stroke-linejoin:miter;"/>
   </g>
   <g id="patch_5">
    <path d="M 829.44 576.72 
L 829.44 64.08 
" style="fill:none;stroke:#000000;stroke-linecap:square;stroke-linejoin:miter;"/>
   </g>
   <g id="patch_6">
    <path d="M 115.2 64.08 
L 829.44 64.08 
" style="fill:none;stroke:#000000;stroke-linecap:square;stroke-linejoin:miter;"/>
   </g>
   <g id="matplotlib.axis_1">
    <g id="xtick_1">
     <g id="line2d_11">
      <defs>
       <path d="M 0 0 
L 0 -4 
" id="mffed83f6cc" style="stroke:#000000;stroke-width:0.5;"/>
      </defs>
      <g>
       <use style="stroke:#000000;stroke-width:0.5;" x="115.2" xlink:href="#mffed83f6cc" y="576.72"/>
      </g>
     </g>
     <g id="line2d_12">
      <defs>
       <path d="M 0 0 
L 0 4 
" id="mc0da172b2e" style="stroke:#000000;stroke-width:0.5;"/>
      </defs>
      <g>
       <use style="stroke:#000000;stroke-width:0.5;" x="115.2" xlink:href="#mc0da172b2e" y="64.08"/>
      </g>
     </g>
     <g id="text_1">
      <!-- $\mathdefault{10^{-3}}$ -->
      <defs>
       <path d="M 12.40625 8.296875 
L 28.515625 8.296875 
L 28.515625 63.921875 
L 10.984375 60.40625 
L 10.984375 69.390625 
L 28.421875 72.90625 
L 38.28125 72.90625 
L 38.28125 8.296875 
L 54.390625 8.296875 
L 54.390625 0 
L 12.40625 0 
z
" id="BitstreamVeraSans-Roman-31"/>
       <path d="M 4.890625 31.390625 
L 31.203125 31.390625 
L 31.203125 23.390625 
L 4.890625 23.390625 
z
" id="BitstreamVeraSans-Roman-2d"/>
       <path d="M 40.578125 39.3125 
Q 47.65625 37.796875 51.625 33 
Q 55.609375 28.21875 55.609375 21.1875 
Q 55.609375 10.40625 48.1875 4.484375 
Q 40.765625 -1.421875 27.09375 -1.421875 
Q 22.515625 -1.421875 17.65625 -0.515625 
Q 12.796875 0.390625 7.625 2.203125 
L 7.625 11.71875 
Q 11.71875 9.328125 16.59375 8.109375 
Q 21.484375 6.890625 26.8125 6.890625 
Q 36.078125 6.890625 40.9375 10.546875 
Q 45.796875 14.203125 45.796875 21.1875 
Q 45.796875 27.640625 41.28125 31.265625 
Q 36.765625 34.90625 28.71875 34.90625 
L 20.21875 34.90625 
L 20.21875 43.015625 
L 29.109375 43.015625 
Q 36.375 43.015625 40.234375 45.921875 
Q 44.09375 48.828125 44.09375 54.296875 
Q 44.09375 59.90625 40.109375 62.90625 
Q 36.140625 65.921875 28.71875 65.921875 
Q 24.65625 65.921875 20.015625 65.03125 
Q 15.375 64.15625 9.8125 62.3125 
L 9.8125 71.09375 
Q 15.4375 72.65625 20.34375 73.4375 
Q 25.25 74.21875 29.59375 74.21875 
Q 40.828125 74.21875 47.359375 69.109375 
Q 53.90625 64.015625 53.90625 55.328125 
Q 53.90625 49.265625 50.4375 45.09375 
Q 46.96875 40.921875 40.578125 39.3125 
" id="BitstreamVeraSans-Roman-33"/>
       <path d="M 31.78125 66.40625 
Q 24.171875 66.40625 20.328125 58.90625 
Q 16.5 51.421875 16.5 36.375 
Q 16.5 21.390625 20.328125 13.890625 
Q 24.171875 6.390625 31.78125 6.390625 
Q 39.453125 6.390625 43.28125 13.890625 
Q 47.125 21.390625 47.125 36.375 
Q 47.125 51.421875 43.28125 58.90625 
Q 39.453125 66.40625 31.78125 66.40625 
M 31.78125 74.21875 
Q 44.046875 74.21875 50.515625 64.515625 
Q 56.984375 54.828125 56.984375 36.375 
Q 56.984375 17.96875 50.515625 8.265625 
Q 44.046875 -1.421875 31.78125 -1.421875 
Q 19.53125 -1.421875 13.0625 8.265625 
Q 6.59375 17.96875 6.59375 36.375 
Q 6.59375 54.828125 13.0625 64.515625 
Q 19.53125 74.21875 31.78125 74.21875 
" id="BitstreamVeraSans-Roman-30"/>
      </defs>
      <g transform="translate(102.54 590.464375)scale(0.12 -0.12)">
       <use transform="translate(0.0 0.796875)" xlink:href="#BitstreamVeraSans-Roman-31"/>
       <use transform="translate(63.623046875 0.796875)" xlink:href="#BitstreamVeraSans-Roman-30"/>
       <use transform="translate(132.75859375 48.046875)scale(0.7)" xlink:href="#BitstreamVeraSans-Roman-2d"/>
       <use transform="translate(158.0173828125 48.046875)scale(0.7)" xlink:href="#BitstreamVeraSans-Roman-33"/>
      </g>
     </g>
    </g>
    <g id="xtick_2">
     <g id="line2d_13">
      <g>
       <use style="stroke:#000000;stroke-width:0.5;" x="353.28" xlink:href="#mffed83f6cc" y="576.72"/>
      </g>
     </g>
     <g id="line2d_14">
      <g>
       <use style="stroke:#000000;stroke-width:0.5;" x="353.28" xlink:href="#mc0da172b2e" y="64.08"/>
      </g>
     </g>
     <g id="text_2">
      <!-- $\mathdefault{10^{-2}}$ -->
      <defs>
       <path d="M 19.1875 8.296875 
L 53.609375 8.296875 
L 53.609375 0 
L 7.328125 0 
L 7.328125 8.296875 
Q 12.9375 14.109375 22.625 23.890625 
Q 32.328125 33.6875 34.8125 36.53125 
Q 39.546875 41.84375 41.421875 45.53125 
Q 43.3125 49.21875 43.3125 52.78125 
Q 43.3125 58.59375 39.234375 62.25 
Q 35.15625 65.921875 28.609375 65.921875 
Q 23.96875 65.921875 18.8125 64.3125 
Q 13.671875 62.703125 7.8125 59.421875 
L 7.8125 69.390625 
Q 13.765625 71.78125 18.9375 73 
Q 24.125 74.21875 28.421875 74.21875 
Q 39.75 74.21875 46.484375 68.546875 
Q 53.21875 62.890625 53.21875 53.421875 
Q 53.21875 48.921875 51.53125 44.890625 
Q 49.859375 40.875 45.40625 35.40625 
Q 44.1875 33.984375 37.640625 27.21875 
Q 31.109375 20.453125 19.1875 8.296875 
" id="BitstreamVeraSans-Roman-32"/>
      </defs>
      <g transform="translate(340.62 590.464375)scale(0.12 -0.12)">
       <use transform="translate(0.0 0.796875)" xlink:href="#BitstreamVeraSans-Roman-31"/>
       <use transform="translate(63.623046875 0.796875)" xlink:href="#BitstreamVeraSans-Roman-30"/>
       <use transform="translate(132.75859375 48.046875)scale(0.7)" xlink:href="#BitstreamVeraSans-Roman-2d"/>
       <use transform="translate(158.0173828125 48.046875)scale(0.7)" xlink:href="#BitstreamVeraSans-Roman-32"/>
      </g>
     </g>
    </g>
    <g id="xtick_3">
     <g id="line2d_15">
      <g>
       <use style="stroke:#000000;stroke-width:0.5;" x="591.36" xlink:href="#mffed83f6cc" y="576.72"/>
      </g>
     </g>
     <g id="line2d_16">
      <g>
       <use style="stroke:#000000;stroke-width:0.5;" x="591.36" xlink:href="#mc0da172b2e" y="64.08"/>
      </g>
     </g>
     <g id="text_3">
      <!-- $\mathdefault{10^{-1}}$ -->
      <g transform="translate(578.7 590.344375)scale(0.12 -0.12)">
       <use transform="translate(0.0 0.7156250000000028)" xlink:href="#BitstreamVeraSans-Roman-31"/>
       <use transform="translate(63.623046875 0.7156250000000028)" xlink:href="#BitstreamVeraSans-Roman-30"/>
       <use transform="translate(132.75859375 47.965625)scale(0.7)" xlink:href="#BitstreamVeraSans-Roman-2d"/>
       <use transform="translate(158.0173828125 47.965625)scale(0.7)" xlink:href="#BitstreamVeraSans-Roman-31"/>
      </g>
     </g>
    </g>
    <g id="xtick_4">
     <g id="line2d_17">
      <g>
       <use style="stroke:#000000;stroke-width:0.5;" x="829.44" xlink:href="#mffed83f6cc" y="576.72"/>
      </g>
     </g>
     <g id="line2d_18">
      <g>
       <use style="stroke:#000000;stroke-width:0.5;" x="829.44" xlink:href="#mc0da172b2e" y="64.08"/>
      </g>
     </g>
     <g id="text_4">
      <!-- $\mathdefault{10^{0}}$ -->
      <g transform="translate(818.28 590.464375)scale(0.12 -0.12)">
       <use transform="translate(0.0 0.796875)" xlink:href="#BitstreamVeraSans-Roman-31"/>
       <use transform="translate(63.623046875 0.796875)" xlink:href="#BitstreamVeraSans-Roman-30"/>
       <use transform="translate(132.75859375 48.046875)scale(0.7)" xlink:href="#BitstreamVeraSans-Roman-30"/>
      </g>
     </g>
    </g>
    <g id="xtick_5">
     <g id="line2d_19">
      <defs>
       <path d="M 0 0 
L 0 -2 
" id="mdc045cc4e7" style="stroke:#000000;stroke-width:0.5;"/>
      </defs>
      <g>
       <use style="stroke:#000000;stroke-width:0.5;" x="186.869221368" xlink:href="#mdc045cc4e7" y="576.72"/>
      </g>
     </g>
     <g id="line2d_20">
      <defs>
       <path d="M 0 0 
L 0 2 
" id="m50b31228b9" style="stroke:#000000;stroke-width:0.5;"/>
      </defs>
      <g>
       <use style="stroke:#000000;stroke-width:0.5;" x="186.869221368" xlink:href="#m50b31228b9" y="64.08"/>
      </g>
     </g>
    </g>
    <g id="xtick_6">
     <g id="line2d_21">
      <g>
       <use style="stroke:#000000;stroke-width:0.5;" x="228.793028324" xlink:href="#mdc045cc4e7" y="576.72"/>
      </g>
     </g>
     <g id="line2d_22">
      <g>
       <use style="stroke:#000000;stroke-width:0.5;" x="228.793028324" xlink:href="#m50b31228b9" y="64.08"/>
      </g>
     </g>
    </g>
    <g id="xtick_7">
     <g id="line2d_23">
      <g>
       <use style="stroke:#000000;stroke-width:0.5;" x="258.538442735" xlink:href="#mdc045cc4e7" y="576.72"/>
      </g>
     </g>
     <g id="line2d_24">
      <g>
       <use style="stroke:#000000;stroke-width:0.5;" x="258.538442735" xlink:href="#m50b31228b9" y="64.08"/>
      </g>
     </g>
    </g>
    <g id="xtick_8">
     <g id="line2d_25">
      <g>
       <use style="stroke:#000000;stroke-width:0.5;" x="281.610778632" xlink:href="#mdc045cc4e7" y="576.72"/>
      </g>
     </g>
     <g id="line2d_26">
      <g>
       <use style="stroke:#000000;stroke-width:0.5;" x="281.610778632" xlink:href="#m50b31228b9" y="64.08"/>
      </g>
     </g>
    </g>
    <g id="xtick_9">
     <g id="line2d_27">
      <g>
       <use style="stroke:#000000;stroke-width:0.5;" x="300.462249691" xlink:href="#mdc045cc4e7" y="576.72"/>
      </g>
     </g>
     <g id="line2d_28">
      <g>
       <use style="stroke:#000000;stroke-width:0.5;" x="300.462249691" xlink:href="#m50b31228b9" y="64.08"/>
      </g>
     </g>
    </g>
    <g id="xtick_10">
     <g id="line2d_29">
      <g>
       <use style="stroke:#000000;stroke-width:0.5;" x="316.400941367" xlink:href="#mdc045cc4e7" y="576.72"/>
      </g>
     </g>
     <g id="line2d_30">
      <g>
       <use style="stroke:#000000;stroke-width:0.5;" x="316.400941367" xlink:href="#m50b31228b9" y="64.08"/>
      </g>
     </g>
    </g>
    <g id="xtick_11">
     <g id="line2d_31">
      <g>
       <use style="stroke:#000000;stroke-width:0.5;" x="330.207664103" xlink:href="#mdc045cc4e7" y="576.72"/>
      </g>
     </g>
     <g id="line2d_32">
      <g>
       <use style="stroke:#000000;stroke-width:0.5;" x="330.207664103" xlink:href="#m50b31228b9" y="64.08"/>
      </g>
     </g>
    </g>
    <g id="xtick_12">
     <g id="line2d_33">
      <g>
       <use style="stroke:#000000;stroke-width:0.5;" x="342.386056647" xlink:href="#mdc045cc4e7" y="576.72"/>
      </g>
     </g>
     <g id="line2d_34">
      <g>
       <use style="stroke:#000000;stroke-width:0.5;" x="342.386056647" xlink:href="#m50b31228b9" y="64.08"/>
      </g>
     </g>
    </g>
    <g id="xtick_13">
     <g id="line2d_35">
      <g>
       <use style="stroke:#000000;stroke-width:0.5;" x="424.949221368" xlink:href="#mdc045cc4e7" y="576.72"/>
      </g>
     </g>
     <g id="line2d_36">
      <g>
       <use style="stroke:#000000;stroke-width:0.5;" x="424.949221368" xlink:href="#m50b31228b9" y="64.08"/>
      </g>
     </g>
    </g>
    <g id="xtick_14">
     <g id="line2d_37">
      <g>
       <use style="stroke:#000000;stroke-width:0.5;" x="466.873028324" xlink:href="#mdc045cc4e7" y="576.72"/>
      </g>
     </g>
     <g id="line2d_38">
      <g>
       <use style="stroke:#000000;stroke-width:0.5;" x="466.873028324" xlink:href="#m50b31228b9" y="64.08"/>
      </g>
     </g>
    </g>
    <g id="xtick_15">
     <g id="line2d_39">
      <g>
       <use style="stroke:#000000;stroke-width:0.5;" x="496.618442735" xlink:href="#mdc045cc4e7" y="576.72"/>
      </g>
     </g>
     <g id="line2d_40">
      <g>
       <use style="stroke:#000000;stroke-width:0.5;" x="496.618442735" xlink:href="#m50b31228b9" y="64.08"/>
      </g>
     </g>
    </g>
    <g id="xtick_16">
     <g id="line2d_41">
      <g>
       <use style="stroke:#000000;stroke-width:0.5;" x="519.690778632" xlink:href="#mdc045cc4e7" y="576.72"/>
      </g>
     </g>
     <g id="line2d_42">
      <g>
       <use style="stroke:#000000;stroke-width:0.5;" x="519.690778632" xlink:href="#m50b31228b9" y="64.08"/>
      </g>
     </g>
    </g>
    <g id="xtick_17">
     <g id="line2d_43">
      <g>
       <use style="stroke:#000000;stroke-width:0.5;" x="538.542249691" xlink:href="#mdc045cc4e7" y="576.72"/>
      </g>
     </g>
     <g id="line2d_44">
      <g>
       <use style="stroke:#000000;stroke-width:0.5;" x="538.542249691" xlink:href="#m50b31228b9" y="64.08"/>
      </g>
     </g>
    </g>
    <g id="xtick_18">
     <g id="line2d_45">
      <g>
       <use style="stroke:#000000;stroke-width:0.5;" x="554.480941367" xlink:href="#mdc045cc4e7" y="576.72"/>
      </g>
     </g>
     <g id="line2d_46">
      <g>
       <use style="stroke:#000000;stroke-width:0.5;" x="554.480941367" xlink:href="#m50b31228b9" y="64.08"/>
      </g>
     </g>
    </g>
    <g id="xtick_19">
     <g id="line2d_47">
      <g>
       <use style="stroke:#000000;stroke-width:0.5;" x="568.287664103" xlink:href="#mdc045cc4e7" y="576.72"/>
      </g>
     </g>
     <g id="line2d_48">
      <g>
       <use style="stroke:#000000;stroke-width:0.5;" x="568.287664103" xlink:href="#m50b31228b9" y="64.08"/>
      </g>
     </g>
    </g>
    <g id="xtick_20">
     <g id="line2d_49">
      <g>
       <use style="stroke:#000000;stroke-width:0.5;" x="580.466056647" xlink:href="#mdc045cc4e7" y="576.72"/>
      </g>
     </g>
     <g id="line2d_50">
      <g>
       <use style="stroke:#000000;stroke-width:0.5;" x="580.466056647" xlink:href="#m50b31228b9" y="64.08"/>
      </g>
     </g>
    </g>
    <g id="xtick_21">
     <g id="line2d_51">
      <g>
       <use style="stroke:#000000;stroke-width:0.5;" x="663.029221368" xlink:href="#mdc045cc4e7" y="576.72"/>
      </g>
     </g>
     <g id="line2d_52">
      <g>
       <use style="stroke:#000000;stroke-width:0.5;" x="663.029221368" xlink:href="#m50b31228b9" y="64.08"/>
      </g>
     </g>
    </g>
    <g id="xtick_22">
     <g id="line2d_53">
      <g>
       <use style="stroke:#000000;stroke-width:0.5;" x="704.953028324" xlink:href="#mdc045cc4e7" y="576.72"/>
      </g>
     </g>
     <g id="line2d_54">
      <g>
       <use style="stroke:#000000;stroke-width:0.5;" x="704.953028324" xlink:href="#m50b31228b9" y="64.08"/>
      </g>
     </g>
    </g>
    <g id="xtick_23">
     <g id="line2d_55">
      <g>
       <use style="stroke:#000000;stroke-width:0.5;" x="734.698442735" xlink:href="#mdc045cc4e7" y="576.72"/>
      </g>
     </g>
     <g id="line2d_56">
      <g>
       <use style="stroke:#000000;stroke-width:0.5;" x="734.698442735" xlink:href="#m50b31228b9" y="64.08"/>
      </g>
     </g>
    </g>
    <g id="xtick_24">
     <g id="line2d_57">
      <g>
       <use style="stroke:#000000;stroke-width:0.5;" x="757.770778632" xlink:href="#mdc045cc4e7" y="576.72"/>
      </g>
     </g>
     <g id="line2d_58">
      <g>
       <use style="stroke:#000000;stroke-width:0.5;" x="757.770778632" xlink:href="#m50b31228b9" y="64.08"/>
      </g>
     </g>
    </g>
    <g id="xtick_25">
     <g id="line2d_59">
      <g>
       <use style="stroke:#000000;stroke-width:0.5;" x="776.622249691" xlink:href="#mdc045cc4e7" y="576.72"/>
      </g>
     </g>
     <g id="line2d_60">
      <g>
       <use style="stroke:#000000;stroke-width:0.5;" x="776.622249691" xlink:href="#m50b31228b9" y="64.08"/>
      </g>
     </g>
    </g>
    <g id="xtick_26">
     <g id="line2d_61">
      <g>
       <use style="stroke:#000000;stroke-width:0.5;" x="792.560941367" xlink:href="#mdc045cc4e7" y="576.72"/>
      </g>
     </g>
     <g id="line2d_62">
      <g>
       <use style="stroke:#000000;stroke-width:0.5;" x="792.560941367" xlink:href="#m50b31228b9" y="64.08"/>
      </g>
     </g>
    </g>
    <g id="xtick_27">
     <g id="line2d_63">
      <g>
       <use style="stroke:#000000;stroke-width:0.5;" x="806.367664103" xlink:href="#mdc045cc4e7" y="576.72"/>
      </g>
     </g>
     <g id="line2d_64">
      <g>
       <use style="stroke:#000000;stroke-width:0.5;" x="806.367664103" xlink:href="#m50b31228b9" y="64.08"/>
      </g>
     </g>
    </g>
    <g id="xtick_28">
     <g id="line2d_65">
      <g>
       <use style="stroke:#000000;stroke-width:0.5;" x="818.546056647" xlink:href="#mdc045cc4e7" y="576.72"/>
      </g>
     </g>
     <g id="line2d_66">
      <g>
       <use style="stroke:#000000;stroke-width:0.5;" x="818.546056647" xlink:href="#m50b31228b9" y="64.08"/>
      </g>
     </g>
    </g>
   </g>
   <g id="matplotlib.axis_2">
    <g id="ytick_1">
     <g id="line2d_67">
      <defs>
       <path d="M 0 0 
L 4 0 
" id="m5ad72ba312" style="stroke:#000000;stroke-width:0.5;"/>
      </defs>
      <g>
       <use style="stroke:#000000;stroke-width:0.5;" x="115.2" xlink:href="#m5ad72ba312" y="576.72"/>
      </g>
     </g>
     <g id="line2d_68">
      <defs>
       <path d="M 0 0 
L -4 0 
" id="mabb9a96470" style="stroke:#000000;stroke-width:0.5;"/>
      </defs>
      <g>
       <use style="stroke:#000000;stroke-width:0.5;" x="829.44" xlink:href="#mabb9a96470" y="576.72"/>
      </g>
     </g>
     <g id="text_5">
      <!-- 8 -->
      <defs>
       <path d="M 10.59375 35.5 
L 73.1875 35.5 
L 73.1875 27.203125 
L 10.59375 27.203125 
z
" id="BitstreamVeraSans-Roman-2212"/>
       <path d="M 31.78125 34.625 
Q 24.75 34.625 20.71875 30.859375 
Q 16.703125 27.09375 16.703125 20.515625 
Q 16.703125 13.921875 20.71875 10.15625 
Q 24.75 6.390625 31.78125 6.390625 
Q 38.8125 6.390625 42.859375 10.171875 
Q 46.921875 13.96875 46.921875 20.515625 
Q 46.921875 27.09375 42.890625 30.859375 
Q 38.875 34.625 31.78125 34.625 
M 21.921875 38.8125 
Q 15.578125 40.375 12.03125 44.71875 
Q 8.5 49.078125 8.5 55.328125 
Q 8.5 64.0625 14.71875 69.140625 
Q 20.953125 74.21875 31.78125 74.21875 
Q 42.671875 74.21875 48.875 69.140625 
Q 55.078125 64.0625 55.078125 55.328125 
Q 55.078125 49.078125 51.53125 44.71875 
Q 48 40.375 41.703125 38.8125 
Q 48.828125 37.15625 52.796875 32.3125 
Q 56.78125 27.484375 56.78125 20.515625 
Q 56.78125 9.90625 50.3125 4.234375 
Q 43.84375 -1.421875 31.78125 -1.421875 
Q 19.734375 -1.421875 13.25 4.234375 
Q 6.78125 9.90625 6.78125 20.515625 
Q 6.78125 27.484375 10.78125 32.3125 
Q 14.796875 37.15625 21.921875 38.8125 
M 18.3125 54.390625 
Q 18.3125 48.734375 21.84375 45.5625 
Q 25.390625 42.390625 31.78125 42.390625 
Q 38.140625 42.390625 41.71875 45.5625 
Q 45.3125 48.734375 45.3125 54.390625 
Q 45.3125 60.0625 41.71875 63.234375 
Q 38.140625 66.40625 31.78125 66.40625 
Q 25.390625 66.40625 21.84375 63.234375 
Q 18.3125 60.0625 18.3125 54.390625 
" id="BitstreamVeraSans-Roman-38"/>
      </defs>
      <g transform="translate(93.509375 580.03125)scale(0.12 -0.12)">
       <use xlink:href="#BitstreamVeraSans-Roman-2212"/>
       <use x="83.7890625" xlink:href="#BitstreamVeraSans-Roman-38"/>
      </g>
     </g>
    </g>
    <g id="ytick_2">
     <g id="line2d_69">
      <g>
       <use style="stroke:#000000;stroke-width:0.5;" x="115.2" xlink:href="#m5ad72ba312" y="519.76"/>
      </g>
     </g>
     <g id="line2d_70">
      <g>
       <use style="stroke:#000000;stroke-width:0.5;" x="829.44" xlink:href="#mabb9a96470" y="519.76"/>
      </g>
     </g>
     <g id="text_6">
      <!-- 7 -->
      <defs>
       <path d="M 8.203125 72.90625 
L 55.078125 72.90625 
L 55.078125 68.703125 
L 28.609375 0 
L 18.3125 0 
L 43.21875 64.59375 
L 8.203125 64.59375 
z
" id="BitstreamVeraSans-Roman-37"/>
      </defs>
      <g transform="translate(93.509375 523.07125)scale(0.12 -0.12)">
       <use xlink:href="#BitstreamVeraSans-Roman-2212"/>
       <use x="83.7890625" xlink:href="#BitstreamVeraSans-Roman-37"/>
      </g>
     </g>
    </g>
    <g id="ytick_3">
     <g id="line2d_71">
      <g>
       <use style="stroke:#000000;stroke-width:0.5;" x="115.2" xlink:href="#m5ad72ba312" y="462.8"/>
      </g>
     </g>
     <g id="line2d_72">
      <g>
       <use style="stroke:#000000;stroke-width:0.5;" x="829.44" xlink:href="#mabb9a96470" y="462.8"/>
      </g>
     </g>
     <g id="text_7">
      <!-- 6 -->
      <defs>
       <path d="M 33.015625 40.375 
Q 26.375 40.375 22.484375 35.828125 
Q 18.609375 31.296875 18.609375 23.390625 
Q 18.609375 15.53125 22.484375 10.953125 
Q 26.375 6.390625 33.015625 6.390625 
Q 39.65625 6.390625 43.53125 10.953125 
Q 47.40625 15.53125 47.40625 23.390625 
Q 47.40625 31.296875 43.53125 35.828125 
Q 39.65625 40.375 33.015625 40.375 
M 52.59375 71.296875 
L 52.59375 62.3125 
Q 48.875 64.0625 45.09375 64.984375 
Q 41.3125 65.921875 37.59375 65.921875 
Q 27.828125 65.921875 22.671875 59.328125 
Q 17.53125 52.734375 16.796875 39.40625 
Q 19.671875 43.65625 24.015625 45.921875 
Q 28.375 48.1875 33.59375 48.1875 
Q 44.578125 48.1875 50.953125 41.515625 
Q 57.328125 34.859375 57.328125 23.390625 
Q 57.328125 12.15625 50.6875 5.359375 
Q 44.046875 -1.421875 33.015625 -1.421875 
Q 20.359375 -1.421875 13.671875 8.265625 
Q 6.984375 17.96875 6.984375 36.375 
Q 6.984375 53.65625 15.1875 63.9375 
Q 23.390625 74.21875 37.203125 74.21875 
Q 40.921875 74.21875 44.703125 73.484375 
Q 48.484375 72.75 52.59375 71.296875 
" id="BitstreamVeraSans-Roman-36"/>
      </defs>
      <g transform="translate(93.509375 466.11125)scale(0.12 -0.12)">
       <use xlink:href="#BitstreamVeraSans-Roman-2212"/>
       <use x="83.7890625" xlink:href="#BitstreamVeraSans-Roman-36"/>
      </g>
     </g>
    </g>
    <g id="ytick_4">
     <g id="line2d_73">
      <g>
       <use style="stroke:#000000;stroke-width:0.5;" x="115.2" xlink:href="#m5ad72ba312" y="405.84"/>
      </g>
     </g>
     <g id="line2d_74">
      <g>
       <use style="stroke:#000000;stroke-width:0.5;" x="829.44" xlink:href="#mabb9a96470" y="405.84"/>
      </g>
     </g>
     <g id="text_8">
      <!-- 5 -->
      <defs>
       <path d="M 10.796875 72.90625 
L 49.515625 72.90625 
L 49.515625 64.59375 
L 19.828125 64.59375 
L 19.828125 46.734375 
Q 21.96875 47.46875 24.109375 47.828125 
Q 26.265625 48.1875 28.421875 48.1875 
Q 40.625 48.1875 47.75 41.5 
Q 54.890625 34.8125 54.890625 23.390625 
Q 54.890625 11.625 47.5625 5.09375 
Q 40.234375 -1.421875 26.90625 -1.421875 
Q 22.3125 -1.421875 17.546875 -0.640625 
Q 12.796875 0.140625 7.71875 1.703125 
L 7.71875 11.625 
Q 12.109375 9.234375 16.796875 8.0625 
Q 21.484375 6.890625 26.703125 6.890625 
Q 35.15625 6.890625 40.078125 11.328125 
Q 45.015625 15.765625 45.015625 23.390625 
Q 45.015625 31 40.078125 35.4375 
Q 35.15625 39.890625 26.703125 39.890625 
Q 22.75 39.890625 18.8125 39.015625 
Q 14.890625 38.140625 10.796875 36.28125 
z
" id="BitstreamVeraSans-Roman-35"/>
      </defs>
      <g transform="translate(93.509375 409.15125)scale(0.12 -0.12)">
       <use xlink:href="#BitstreamVeraSans-Roman-2212"/>
       <use x="83.7890625" xlink:href="#BitstreamVeraSans-Roman-35"/>
      </g>
     </g>
    </g>
    <g id="ytick_5">
     <g id="line2d_75">
      <g>
       <use style="stroke:#000000;stroke-width:0.5;" x="115.2" xlink:href="#m5ad72ba312" y="348.88"/>
      </g>
     </g>
     <g id="line2d_76">
      <g>
       <use style="stroke:#000000;stroke-width:0.5;" x="829.44" xlink:href="#mabb9a96470" y="348.88"/>
      </g>
     </g>
     <g id="text_9">
      <!-- 4 -->
      <defs>
       <path d="M 37.796875 64.3125 
L 12.890625 25.390625 
L 37.796875 25.390625 
z
M 35.203125 72.90625 
L 47.609375 72.90625 
L 47.609375 25.390625 
L 58.015625 25.390625 
L 58.015625 17.1875 
L 47.609375 17.1875 
L 47.609375 0 
L 37.796875 0 
L 37.796875 17.1875 
L 4.890625 17.1875 
L 4.890625 26.703125 
z
" id="BitstreamVeraSans-Roman-34"/>
      </defs>
      <g transform="translate(93.509375 352.19125)scale(0.12 -0.12)">
       <use xlink:href="#BitstreamVeraSans-Roman-2212"/>
       <use x="83.7890625" xlink:href="#BitstreamVeraSans-Roman-34"/>
      </g>
     </g>
    </g>
    <g id="ytick_6">
     <g id="line2d_77">
      <g>
       <use style="stroke:#000000;stroke-width:0.5;" x="115.2" xlink:href="#m5ad72ba312" y="291.92"/>
      </g>
     </g>
     <g id="line2d_78">
      <g>
       <use style="stroke:#000000;stroke-width:0.5;" x="829.44" xlink:href="#mabb9a96470" y="291.92"/>
      </g>
     </g>
     <g id="text_10">
      <!-- 3 -->
      <g transform="translate(93.509375 295.23125)scale(0.12 -0.12)">
       <use xlink:href="#BitstreamVeraSans-Roman-2212"/>
       <use x="83.7890625" xlink:href="#BitstreamVeraSans-Roman-33"/>
      </g>
     </g>
    </g>
    <g id="ytick_7">
     <g id="line2d_79">
      <g>
       <use style="stroke:#000000;stroke-width:0.5;" x="115.2" xlink:href="#m5ad72ba312" y="234.96"/>
      </g>
     </g>
     <g id="line2d_80">
      <g>
       <use style="stroke:#000000;stroke-width:0.5;" x="829.44" xlink:href="#mabb9a96470" y="234.96"/>
      </g>
     </g>
     <g id="text_11">
      <!-- 2 -->
      <g transform="translate(93.509375 238.27125)scale(0.12 -0.12)">
       <use xlink:href="#BitstreamVeraSans-Roman-2212"/>
       <use x="83.7890625" xlink:href="#BitstreamVeraSans-Roman-32"/>
      </g>
     </g>
    </g>
    <g id="ytick_8">
     <g id="line2d_81">
      <g>
       <use style="stroke:#000000;stroke-width:0.5;" x="115.2" xlink:href="#m5ad72ba312" y="178.0"/>
      </g>
     </g>
     <g id="line2d_82">
      <g>
       <use style="stroke:#000000;stroke-width:0.5;" x="829.44" xlink:href="#mabb9a96470" y="178.0"/>
      </g>
     </g>
     <g id="text_12">
      <!-- 1 -->
      <g transform="translate(93.509375 181.31125)scale(0.12 -0.12)">
       <use xlink:href="#BitstreamVeraSans-Roman-2212"/>
       <use x="83.7890625" xlink:href="#BitstreamVeraSans-Roman-31"/>
      </g>
     </g>
    </g>
    <g id="ytick_9">
     <g id="line2d_83">
      <g>
       <use style="stroke:#000000;stroke-width:0.5;" x="115.2" xlink:href="#m5ad72ba312" y="121.04"/>
      </g>
     </g>
     <g id="line2d_84">
      <g>
       <use style="stroke:#000000;stroke-width:0.5;" x="829.44" xlink:href="#mabb9a96470" y="121.04"/>
      </g>
     </g>
     <g id="text_13">
      <!-- 0 -->
      <g transform="translate(103.565 124.35125)scale(0.12 -0.12)">
       <use xlink:href="#BitstreamVeraSans-Roman-30"/>
      </g>
     </g>
    </g>
    <g id="ytick_10">
     <g id="line2d_85">
      <g>
       <use style="stroke:#000000;stroke-width:0.5;" x="115.2" xlink:href="#m5ad72ba312" y="64.08"/>
      </g>
     </g>
     <g id="line2d_86">
      <g>
       <use style="stroke:#000000;stroke-width:0.5;" x="829.44" xlink:href="#mabb9a96470" y="64.08"/>
      </g>
     </g>
     <g id="text_14">
      <!-- 1 -->
      <g transform="translate(103.565 67.39125)scale(0.12 -0.12)">
       <use xlink:href="#BitstreamVeraSans-Roman-31"/>
      </g>
     </g>
    </g>
   </g>
   <g id="legend_1">
    <g id="patch_7">
     <path d="M 122.4 569.52 
L 257.98275 569.52 
L 257.98275 353.835 
L 122.4 353.835 
z
" style="fill:#ffffff;stroke:#000000;stroke-linejoin:miter;"/>
    </g>
    <g id="line2d_87">
     <path d="M 132.48 365.49675 
L 152.64 365.49675 
" style="fill:none;stroke:#ff1e1e;stroke-linecap:square;"/>
    </g>
    <g id="line2d_88"/>
    <g id="text_15">
     <!-- Std: 100.0 -->
     <defs>
      <path d="M 18.3125 70.21875 
L 18.3125 54.6875 
L 36.8125 54.6875 
L 36.8125 47.703125 
L 18.3125 47.703125 
L 18.3125 18.015625 
Q 18.3125 11.328125 20.140625 9.421875 
Q 21.96875 7.515625 27.59375 7.515625 
L 36.8125 7.515625 
L 36.8125 0 
L 27.59375 0 
Q 17.1875 0 13.234375 3.875 
Q 9.28125 7.765625 9.28125 18.015625 
L 9.28125 47.703125 
L 2.6875 47.703125 
L 2.6875 54.6875 
L 9.28125 54.6875 
L 9.28125 70.21875 
z
" id="BitstreamVeraSans-Roman-74"/>
      <path d="M 10.6875 12.40625 
L 21 12.40625 
L 21 0 
L 10.6875 0 
z
" id="BitstreamVeraSans-Roman-2e"/>
      <path d="M 45.40625 46.390625 
L 45.40625 75.984375 
L 54.390625 75.984375 
L 54.390625 0 
L 45.40625 0 
L 45.40625 8.203125 
Q 42.578125 3.328125 38.25 0.953125 
Q 33.9375 -1.421875 27.875 -1.421875 
Q 17.96875 -1.421875 11.734375 6.484375 
Q 5.515625 14.40625 5.515625 27.296875 
Q 5.515625 40.1875 11.734375 48.09375 
Q 17.96875 56 27.875 56 
Q 33.9375 56 38.25 53.625 
Q 42.578125 51.265625 45.40625 46.390625 
M 14.796875 27.296875 
Q 14.796875 17.390625 18.875 11.75 
Q 22.953125 6.109375 30.078125 6.109375 
Q 37.203125 6.109375 41.296875 11.75 
Q 45.40625 17.390625 45.40625 27.296875 
Q 45.40625 37.203125 41.296875 42.84375 
Q 37.203125 48.484375 30.078125 48.484375 
Q 22.953125 48.484375 18.875 42.84375 
Q 14.796875 37.203125 14.796875 27.296875 
" id="BitstreamVeraSans-Roman-64"/>
      <path id="BitstreamVeraSans-Roman-20"/>
      <path d="M 53.515625 70.515625 
L 53.515625 60.890625 
Q 47.90625 63.578125 42.921875 64.890625 
Q 37.9375 66.21875 33.296875 66.21875 
Q 25.25 66.21875 20.875 63.09375 
Q 16.5 59.96875 16.5 54.203125 
Q 16.5 49.359375 19.40625 46.890625 
Q 22.3125 44.4375 30.421875 42.921875 
L 36.375 41.703125 
Q 47.40625 39.59375 52.65625 34.296875 
Q 57.90625 29 57.90625 20.125 
Q 57.90625 9.515625 50.796875 4.046875 
Q 43.703125 -1.421875 29.984375 -1.421875 
Q 24.8125 -1.421875 18.96875 -0.25 
Q 13.140625 0.921875 6.890625 3.21875 
L 6.890625 13.375 
Q 12.890625 10.015625 18.65625 8.296875 
Q 24.421875 6.59375 29.984375 6.59375 
Q 38.421875 6.59375 43.015625 9.90625 
Q 47.609375 13.234375 47.609375 19.390625 
Q 47.609375 24.75 44.3125 27.78125 
Q 41.015625 30.8125 33.5 32.328125 
L 27.484375 33.5 
Q 16.453125 35.6875 11.515625 40.375 
Q 6.59375 45.0625 6.59375 53.421875 
Q 6.59375 63.09375 13.40625 68.65625 
Q 20.21875 74.21875 32.171875 74.21875 
Q 37.3125 74.21875 42.625 73.28125 
Q 47.953125 72.359375 53.515625 70.515625 
" id="BitstreamVeraSans-Roman-53"/>
      <path d="M 11.71875 12.40625 
L 22.015625 12.40625 
L 22.015625 0 
L 11.71875 0 
z
M 11.71875 51.703125 
L 22.015625 51.703125 
L 22.015625 39.3125 
L 11.71875 39.3125 
z
" id="BitstreamVeraSans-Roman-3a"/>
     </defs>
     <g transform="translate(168.48 370.53675)scale(0.144 -0.144)">
      <use xlink:href="#BitstreamVeraSans-Roman-53"/>
      <use x="63.4765625" xlink:href="#BitstreamVeraSans-Roman-74"/>
      <use x="102.685546875" xlink:href="#BitstreamVeraSans-Roman-64"/>
      <use x="166.162109375" xlink:href="#BitstreamVeraSans-Roman-3a"/>
      <use x="199.853515625" xlink:href="#BitstreamVeraSans-Roman-20"/>
      <use x="231.640625" xlink:href="#BitstreamVeraSans-Roman-31"/>
      <use x="295.263671875" xlink:href="#BitstreamVeraSans-Roman-30"/>
      <use x="358.88671875" xlink:href="#BitstreamVeraSans-Roman-30"/>
      <use x="422.509765625" xlink:href="#BitstreamVeraSans-Roman-2e"/>
      <use x="454.296875" xlink:href="#BitstreamVeraSans-Roman-30"/>
     </g>
    </g>
    <g id="line2d_89">
     <path d="M 132.48 386.63325 
L 152.64 386.63325 
" style="fill:none;stroke:#581845;stroke-linecap:square;"/>
    </g>
    <g id="line2d_90"/>
    <g id="text_16">
     <!-- Std: 200.0 -->
     <g transform="translate(168.48 391.67325)scale(0.144 -0.144)">
      <use xlink:href="#BitstreamVeraSans-Roman-53"/>
      <use x="63.4765625" xlink:href="#BitstreamVeraSans-Roman-74"/>
      <use x="102.685546875" xlink:href="#BitstreamVeraSans-Roman-64"/>
      <use x="166.162109375" xlink:href="#BitstreamVeraSans-Roman-3a"/>
      <use x="199.853515625" xlink:href="#BitstreamVeraSans-Roman-20"/>
      <use x="231.640625" xlink:href="#BitstreamVeraSans-Roman-32"/>
      <use x="295.263671875" xlink:href="#BitstreamVeraSans-Roman-30"/>
      <use x="358.88671875" xlink:href="#BitstreamVeraSans-Roman-30"/>
      <use x="422.509765625" xlink:href="#BitstreamVeraSans-Roman-2e"/>
      <use x="454.296875" xlink:href="#BitstreamVeraSans-Roman-30"/>
     </g>
    </g>
    <g id="line2d_91">
     <path d="M 132.48 407.76975 
L 152.64 407.76975 
" style="fill:none;stroke:#26b7d8;stroke-linecap:square;"/>
    </g>
    <g id="line2d_92"/>
    <g id="text_17">
     <!-- Std: 300.0 -->
     <g transform="translate(168.48 412.80975)scale(0.144 -0.144)">
      <use xlink:href="#BitstreamVeraSans-Roman-53"/>
      <use x="63.4765625" xlink:href="#BitstreamVeraSans-Roman-74"/>
      <use x="102.685546875" xlink:href="#BitstreamVeraSans-Roman-64"/>
      <use x="166.162109375" xlink:href="#BitstreamVeraSans-Roman-3a"/>
      <use x="199.853515625" xlink:href="#BitstreamVeraSans-Roman-20"/>
      <use x="231.640625" xlink:href="#BitstreamVeraSans-Roman-33"/>
      <use x="295.263671875" xlink:href="#BitstreamVeraSans-Roman-30"/>
      <use x="358.88671875" xlink:href="#BitstreamVeraSans-Roman-30"/>
      <use x="422.509765625" xlink:href="#BitstreamVeraSans-Roman-2e"/>
      <use x="454.296875" xlink:href="#BitstreamVeraSans-Roman-30"/>
     </g>
    </g>
    <g id="line2d_93">
     <path d="M 132.48 428.90625 
L 152.64 428.90625 
" style="fill:none;stroke:#8414a4;stroke-linecap:square;"/>
    </g>
    <g id="line2d_94"/>
    <g id="text_18">
     <!-- Std: 400.0 -->
     <g transform="translate(168.48 433.94625)scale(0.144 -0.144)">
      <use xlink:href="#BitstreamVeraSans-Roman-53"/>
      <use x="63.4765625" xlink:href="#BitstreamVeraSans-Roman-74"/>
      <use x="102.685546875" xlink:href="#BitstreamVeraSans-Roman-64"/>
      <use x="166.162109375" xlink:href="#BitstreamVeraSans-Roman-3a"/>
      <use x="199.853515625" xlink:href="#BitstreamVeraSans-Roman-20"/>
      <use x="231.640625" xlink:href="#BitstreamVeraSans-Roman-34"/>
      <use x="295.263671875" xlink:href="#BitstreamVeraSans-Roman-30"/>
      <use x="358.88671875" xlink:href="#BitstreamVeraSans-Roman-30"/>
      <use x="422.509765625" xlink:href="#BitstreamVeraSans-Roman-2e"/>
      <use x="454.296875" xlink:href="#BitstreamVeraSans-Roman-30"/>
     </g>
    </g>
    <g id="line2d_95">
     <path d="M 132.48 450.04275 
L 152.64 450.04275 
" style="fill:none;stroke:#ffd23a;stroke-linecap:square;"/>
    </g>
    <g id="line2d_96"/>
    <g id="text_19">
     <!-- Std: 500.0 -->
     <g transform="translate(168.48 455.08275)scale(0.144 -0.144)">
      <use xlink:href="#BitstreamVeraSans-Roman-53"/>
      <use x="63.4765625" xlink:href="#BitstreamVeraSans-Roman-74"/>
      <use x="102.685546875" xlink:href="#BitstreamVeraSans-Roman-64"/>
      <use x="166.162109375" xlink:href="#BitstreamVeraSans-Roman-3a"/>
      <use x="199.853515625" xlink:href="#BitstreamVeraSans-Roman-20"/>
      <use x="231.640625" xlink:href="#BitstreamVeraSans-Roman-35"/>
      <use x="295.263671875" xlink:href="#BitstreamVeraSans-Roman-30"/>
      <use x="358.88671875" xlink:href="#BitstreamVeraSans-Roman-30"/>
      <use x="422.509765625" xlink:href="#BitstreamVeraSans-Roman-2e"/>
      <use x="454.296875" xlink:href="#BitstreamVeraSans-Roman-30"/>
     </g>
    </g>
    <g id="line2d_97">
     <path d="M 132.48 471.17925 
L 152.64 471.17925 
" style="fill:none;stroke:#ff9300;stroke-linecap:square;"/>
    </g>
    <g id="line2d_98"/>
    <g id="text_20">
     <!-- Std: 600.0 -->
     <g transform="translate(168.48 476.21925)scale(0.144 -0.144)">
      <use xlink:href="#BitstreamVeraSans-Roman-53"/>
      <use x="63.4765625" xlink:href="#BitstreamVeraSans-Roman-74"/>
      <use x="102.685546875" xlink:href="#BitstreamVeraSans-Roman-64"/>
      <use x="166.162109375" xlink:href="#BitstreamVeraSans-Roman-3a"/>
      <use x="199.853515625" xlink:href="#BitstreamVeraSans-Roman-20"/>
      <use x="231.640625" xlink:href="#BitstreamVeraSans-Roman-36"/>
      <use x="295.263671875" xlink:href="#BitstreamVeraSans-Roman-30"/>
      <use x="358.88671875" xlink:href="#BitstreamVeraSans-Roman-30"/>
      <use x="422.509765625" xlink:href="#BitstreamVeraSans-Roman-2e"/>
      <use x="454.296875" xlink:href="#BitstreamVeraSans-Roman-30"/>
     </g>
    </g>
    <g id="line2d_99">
     <path d="M 132.48 492.31575 
L 152.64 492.31575 
" style="fill:none;stroke:#f50fe6;stroke-linecap:square;"/>
    </g>
    <g id="line2d_100"/>
    <g id="text_21">
     <!-- Std: 700.0 -->
     <g transform="translate(168.48 497.35575)scale(0.144 -0.144)">
      <use xlink:href="#BitstreamVeraSans-Roman-53"/>
      <use x="63.4765625" xlink:href="#BitstreamVeraSans-Roman-74"/>
      <use x="102.685546875" xlink:href="#BitstreamVeraSans-Roman-64"/>
      <use x="166.162109375" xlink:href="#BitstreamVeraSans-Roman-3a"/>
      <use x="199.853515625" xlink:href="#BitstreamVeraSans-Roman-20"/>
      <use x="231.640625" xlink:href="#BitstreamVeraSans-Roman-37"/>
      <use x="295.263671875" xlink:href="#BitstreamVeraSans-Roman-30"/>
      <use x="358.88671875" xlink:href="#BitstreamVeraSans-Roman-30"/>
      <use x="422.509765625" xlink:href="#BitstreamVeraSans-Roman-2e"/>
      <use x="454.296875" xlink:href="#BitstreamVeraSans-Roman-30"/>
     </g>
    </g>
    <g id="line2d_101">
     <path d="M 132.48 513.45225 
L 152.64 513.45225 
" style="fill:none;stroke:#1000a0;stroke-linecap:square;"/>
    </g>
    <g id="line2d_102"/>
    <g id="text_22">
     <!-- Std: 800.0 -->
     <g transform="translate(168.48 518.49225)scale(0.144 -0.144)">
      <use xlink:href="#BitstreamVeraSans-Roman-53"/>
      <use x="63.4765625" xlink:href="#BitstreamVeraSans-Roman-74"/>
      <use x="102.685546875" xlink:href="#BitstreamVeraSans-Roman-64"/>
      <use x="166.162109375" xlink:href="#BitstreamVeraSans-Roman-3a"/>
      <use x="199.853515625" xlink:href="#BitstreamVeraSans-Roman-20"/>
      <use x="231.640625" xlink:href="#BitstreamVeraSans-Roman-38"/>
      <use x="295.263671875" xlink:href="#BitstreamVeraSans-Roman-30"/>
      <use x="358.88671875" xlink:href="#BitstreamVeraSans-Roman-30"/>
      <use x="422.509765625" xlink:href="#BitstreamVeraSans-Roman-2e"/>
      <use x="454.296875" xlink:href="#BitstreamVeraSans-Roman-30"/>
     </g>
    </g>
    <g id="line2d_103">
     <path d="M 132.48 534.58875 
L 152.64 534.58875 
" style="fill:none;stroke:#595866;stroke-linecap:square;"/>
    </g>
    <g id="line2d_104"/>
    <g id="text_23">
     <!-- Std: 900.0 -->
     <defs>
      <path d="M 10.984375 1.515625 
L 10.984375 10.5 
Q 14.703125 8.734375 18.5 7.8125 
Q 22.3125 6.890625 25.984375 6.890625 
Q 35.75 6.890625 40.890625 13.453125 
Q 46.046875 20.015625 46.78125 33.40625 
Q 43.953125 29.203125 39.59375 26.953125 
Q 35.25 24.703125 29.984375 24.703125 
Q 19.046875 24.703125 12.671875 31.3125 
Q 6.296875 37.9375 6.296875 49.421875 
Q 6.296875 60.640625 12.9375 67.421875 
Q 19.578125 74.21875 30.609375 74.21875 
Q 43.265625 74.21875 49.921875 64.515625 
Q 56.59375 54.828125 56.59375 36.375 
Q 56.59375 19.140625 48.40625 8.859375 
Q 40.234375 -1.421875 26.421875 -1.421875 
Q 22.703125 -1.421875 18.890625 -0.6875 
Q 15.09375 0.046875 10.984375 1.515625 
M 30.609375 32.421875 
Q 37.25 32.421875 41.125 36.953125 
Q 45.015625 41.5 45.015625 49.421875 
Q 45.015625 57.28125 41.125 61.84375 
Q 37.25 66.40625 30.609375 66.40625 
Q 23.96875 66.40625 20.09375 61.84375 
Q 16.21875 57.28125 16.21875 49.421875 
Q 16.21875 41.5 20.09375 36.953125 
Q 23.96875 32.421875 30.609375 32.421875 
" id="BitstreamVeraSans-Roman-39"/>
     </defs>
     <g transform="translate(168.48 539.62875)scale(0.144 -0.144)">
      <use xlink:href="#BitstreamVeraSans-Roman-53"/>
      <use x="63.4765625" xlink:href="#BitstreamVeraSans-Roman-74"/>
      <use x="102.685546875" xlink:href="#BitstreamVeraSans-Roman-64"/>
      <use x="166.162109375" xlink:href="#BitstreamVeraSans-Roman-3a"/>
      <use x="199.853515625" xlink:href="#BitstreamVeraSans-Roman-20"/>
      <use x="231.640625" xlink:href="#BitstreamVeraSans-Roman-39"/>
      <use x="295.263671875" xlink:href="#BitstreamVeraSans-Roman-30"/>
      <use x="358.88671875" xlink:href="#BitstreamVeraSans-Roman-30"/>
      <use x="422.509765625" xlink:href="#BitstreamVeraSans-Roman-2e"/>
      <use x="454.296875" xlink:href="#BitstreamVeraSans-Roman-30"/>
     </g>
    </g>
    <g id="line2d_105">
     <path d="M 132.48 555.72525 
L 152.64 555.72525 
" style="fill:none;stroke:#147f2a;stroke-linecap:square;"/>
    </g>
    <g id="line2d_106"/>
    <g id="text_24">
     <!-- Std: 1000.0 -->
     <g transform="translate(168.48 560.76525)scale(0.144 -0.144)">
      <use xlink:href="#BitstreamVeraSans-Roman-53"/>
      <use x="63.4765625" xlink:href="#BitstreamVeraSans-Roman-74"/>
      <use x="102.685546875" xlink:href="#BitstreamVeraSans-Roman-64"/>
      <use x="166.162109375" xlink:href="#BitstreamVeraSans-Roman-3a"/>
      <use x="199.853515625" xlink:href="#BitstreamVeraSans-Roman-20"/>
      <use x="231.640625" xlink:href="#BitstreamVeraSans-Roman-31"/>
      <use x="295.263671875" xlink:href="#BitstreamVeraSans-Roman-30"/>
      <use x="358.88671875" xlink:href="#BitstreamVeraSans-Roman-30"/>
      <use x="422.509765625" xlink:href="#BitstreamVeraSans-Roman-30"/>
      <use x="486.1328125" xlink:href="#BitstreamVeraSans-Roman-2e"/>
      <use x="517.919921875" xlink:href="#BitstreamVeraSans-Roman-30"/>
     </g>
    </g>
   </g>
  </g>
 </g>
 <defs>
  <clipPath id="p6d0c861466">
   <rect height="512.64" width="714.24" x="115.2" y="64.08"/>
  </clipPath>
 </defs>
</svg>
