<?xml version="1.0" encoding="utf-8" standalone="no"?>
<!DOCTYPE svg PUBLIC "-//W3C//DTD SVG 1.1//EN"
  "http://www.w3.org/Graphics/SVG/1.1/DTD/svg11.dtd">
<!-- Created with matplotlib (http://matplotlib.org/) -->
<svg height="640pt" version="1.1" viewBox="0 0 921 640" width="921pt" xmlns="http://www.w3.org/2000/svg" xmlns:xlink="http://www.w3.org/1999/xlink">
 <defs>
  <style type="text/css">
*{stroke-linecap:butt;stroke-linejoin:round;stroke-miterlimit:100000;}
  </style>
 </defs>
 <g id="figure_1">
  <g id="patch_1">
   <path d="M 0 640.8 
L 921.6 640.8 
L 921.6 0 
L 0 0 
z
" style="fill:#ffffff;"/>
  </g>
  <g id="axes_1">
   <g id="patch_2">
    <path d="M 115.2 576.72 
L 829.44 576.72 
L 829.44 64.08 
L 115.2 64.08 
z
" style="fill:#ffffff;"/>
   </g>
   <g id="line2d_1">
    <path clip-path="url(#p38d214f1fd)" d="M 115.2 164.092527 
L 132.313668 165.131485 
L 146.992943 163.947259 
L 159.844933 163.404561 
L 171.274613 166.365429 
L 181.565657 166.354681 
L 190.924519 166.906613 
L 199.506137 162.999724 
L 207.42977 163.330919 
L 214.789171 162.974816 
L 221.659384 163.255729 
L 228.101408 162.422464 
L 234.165501 171.201211 
L 239.893559 162.927517 
L 245.320877 162.116787 
L 250.477466 169.020564 
L 255.389057 171.56224 
L 260.077878 162.725011 
L 264.563263 161.991701 
L 268.862134 161.113627 
L 276.958194 178.903607 
L 280.780278 163.912382 
L 284.466099 162.590842 
L 288.025041 162.233558 
L 291.465549 161.377182 
L 294.795252 160.772749 
L 298.021064 159.678898 
L 304.185615 179.431664 
L 307.135328 187.415629 
L 310.003221 192.087541 
L 312.793709 164.389894 
L 315.510863 162.998675 
L 318.158437 162.411861 
L 320.739907 161.968084 
L 323.258492 162.935188 
L 325.717185 160.408171 
L 328.118768 160.366679 
L 330.465834 159.657013 
L 332.760802 159.470991 
L 337.203354 157.678953 
L 339.355042 161.21521 
L 341.462865 172.701942 
L 353.28 218.63825 
L 370.393668 161.894284 
L 397.924933 155.131228 
L 409.354613 179.235205 
L 419.645657 214.742836 
L 429.004519 248.792155 
L 437.586137 289.621301 
L 445.50977 355.471214 
L 452.869171 341.83594 
L 459.739384 297.450227 
L 466.181408 202.782563 
L 472.245501 187.380867 
L 477.973559 176.594721 
L 483.400877 174.234423 
L 488.557466 172.339444 
L 493.469057 225.48249 
L 498.157878 271.063435 
L 502.643263 322.616136 
L 506.942134 368.74261 
L 511.069385 370.199046 
L 515.038194 374.361013 
L 518.860278 397.719764 
L 522.546099 538.467082 
L 526.105041 554.478345 
L 529.545549 558.503116 
L 532.875252 560.159271 
L 536.101064 543.705232 
L 539.229274 470.909952 
L 542.265615 356.96986 
L 545.215328 360.383978 
L 548.083221 362.355806 
L 550.873709 365.537053 
L 553.590863 373.052764 
L 556.238437 405.04627 
L 558.819907 519.522941 
L 561.338492 540.719994 
L 563.797185 546.920731 
L 566.198768 549.825862 
L 568.545834 485.788697 
L 570.840802 348.984803 
L 573.085936 350.495574 
L 575.283354 351.395311 
L 577.435042 352.798268 
L 579.542865 354.739941 
L 591.36 502.741616 
L 608.473668 549.446542 
L 623.152943 534.434814 
L 636.004933 271.065974 
L 647.434613 294.621082 
L 657.725657 317.599257 
L 667.084519 352.614776 
L 675.666137 386.222234 
L 683.58977 406.952586 
L 690.949171 419.72955 
L 697.819384 310.406822 
L 704.261408 499.820899 
L 710.325501 494.790378 
L 716.053559 491.980043 
L 721.480877 454.959764 
L 726.637466 452.59916 
L 731.549057 455.282658 
L 736.237878 458.565759 
L 740.723263 462.028029 
L 745.022134 463.378326 
L 749.149385 339.476405 
L 753.118194 470.053389 
L 756.940278 497.597487 
L 760.626099 508.213562 
L 764.185041 497.400255 
L 767.625549 495.655374 
L 770.955252 496.78811 
L 774.181064 497.494247 
L 777.309274 502.608861 
L 780.345615 505.220147 
L 783.295328 320.004574 
L 786.163221 493.94316 
L 788.953709 502.132822 
L 791.670863 508.391898 
L 794.318437 510.395675 
L 796.899907 517.463413 
L 799.418492 521.364646 
L 801.877185 539.219474 
L 804.278768 278.722932 
L 806.625834 302.900483 
L 808.920802 551.124407 
L 811.165936 513.242537 
L 813.363354 513.836877 
L 815.515042 514.59284 
L 817.622865 508.912071 
L 819.688575 488.645596 
L 821.713822 359.424609 
L 823.700162 338.15798 
L 827.561903 332.140298 
L 827.561903 332.140298 
" style="fill:none;stroke:#ff1e1e;stroke-linecap:square;"/>
   </g>
   <g id="line2d_2">
    <path clip-path="url(#p38d214f1fd)" d="M 115.2 165.853479 
L 132.313668 165.641129 
L 146.992943 166.23149 
L 159.844933 167.368871 
L 171.274613 165.309509 
L 181.565657 166.300264 
L 190.924519 166.08302 
L 199.506137 169.748858 
L 207.42977 168.942443 
L 214.789171 166.539638 
L 221.659384 167.720767 
L 228.101408 169.815813 
L 234.165501 168.754591 
L 239.893559 169.500964 
L 245.320877 169.463007 
L 250.477466 169.285476 
L 255.389057 170.453008 
L 260.077878 168.394417 
L 264.563263 169.753384 
L 268.862134 170.369261 
L 272.989385 171.327519 
L 276.958194 169.756891 
L 280.780278 171.226262 
L 284.466099 172.076665 
L 288.025041 170.856408 
L 291.465549 170.995037 
L 294.795252 171.844195 
L 298.021064 172.495371 
L 301.149274 171.777 
L 304.185615 173.873332 
L 310.003221 172.306484 
L 312.793709 173.614461 
L 315.510863 173.670967 
L 318.158437 174.554979 
L 320.739907 174.5946 
L 323.258492 176.068672 
L 325.717185 173.137904 
L 328.118768 177.123822 
L 330.465834 177.421816 
L 332.760802 175.63948 
L 335.005936 175.931329 
L 337.203354 177.042408 
L 339.355042 176.548889 
L 341.462865 176.795744 
L 353.28 180.065652 
L 370.393668 180.594408 
L 385.072943 181.734229 
L 397.924933 186.377159 
L 409.354613 195.866298 
L 419.645657 205.919096 
L 429.004519 216.734615 
L 437.586137 230.948254 
L 445.50977 241.257358 
L 452.869171 249.493959 
L 459.739384 255.107653 
L 466.181408 254.076103 
L 472.245501 256.176678 
L 477.973559 258.729994 
L 483.400877 247.337533 
L 488.557466 252.843451 
L 493.469057 242.871893 
L 498.157878 248.021426 
L 502.643263 253.333105 
L 506.942134 243.980235 
L 511.069385 252.482568 
L 515.038194 253.587106 
L 518.860278 254.947356 
L 522.546099 255.076911 
L 526.105041 260.969513 
L 529.545549 258.202017 
L 532.875252 265.844562 
L 536.101064 268.26332 
L 539.229274 261.95773 
L 542.265615 270.916817 
L 545.215328 258.544742 
L 548.083221 269.494248 
L 550.873709 273.627965 
L 553.590863 258.7773 
L 556.238437 267.064784 
L 558.819907 268.41073 
L 561.338492 279.4768 
L 563.797185 263.173255 
L 566.198768 268.264686 
L 568.545834 261.970204 
L 570.840802 278.746484 
L 573.085936 257.218667 
L 575.283354 262.929984 
L 577.435042 275.940556 
L 579.542865 277.270133 
L 591.36 271.27102 
L 608.473668 264.657561 
L 623.152943 289.231352 
L 636.004933 274.882808 
L 647.434613 322.04913 
L 657.725657 291.256968 
L 667.084519 301.559053 
L 675.666137 342.373862 
L 683.58977 310.872079 
L 690.949171 291.065298 
L 697.819384 303.583506 
L 704.261408 311.719942 
L 710.325501 321.97933 
L 716.053559 365.571875 
L 721.480877 356.192409 
L 726.637466 401.416513 
L 731.549057 379.645709 
L 736.237878 394.361443 
L 740.723263 360.5849 
L 745.022134 423.091449 
L 749.149385 422.748133 
L 753.118194 420.038177 
L 756.940278 506.375583 
L 760.626099 400.311524 
L 764.185041 462.442506 
L 767.625549 494.579184 
L 770.955252 456.768002 
L 774.181064 435.784917 
L 777.309274 462.350297 
L 780.345615 528.090511 
L 783.295328 347.858944 
L 786.163221 552.212988 
L 788.953709 509.799666 
L 791.670863 523.510136 
L 794.318437 490.90397 
L 796.899907 526.029213 
L 799.418492 541.189891 
L 801.877185 531.605072 
L 804.278768 535.502045 
L 806.625834 505.692135 
L 808.920802 530.236895 
L 811.165936 551.407638 
L 813.363354 488.463514 
L 815.515042 554.301019 
L 817.622865 407.536598 
L 819.688575 495.879278 
L 821.713822 509.536654 
L 823.700162 477.646105 
L 825.64906 273.208157 
L 827.561903 334.086021 
L 827.561903 334.086021 
" style="fill:none;stroke:#581845;stroke-linecap:square;"/>
   </g>
   <g id="line2d_3">
    <path clip-path="url(#p38d214f1fd)" d="M 115.2 168.125209 
L 132.313668 164.870932 
L 146.992943 170.722207 
L 159.844933 164.714517 
L 171.274613 166.346674 
L 181.565657 169.399725 
L 190.924519 169.490049 
L 199.506137 169.461498 
L 207.42977 172.883503 
L 214.789171 171.542429 
L 221.659384 169.859873 
L 228.101408 172.020878 
L 234.165501 172.620986 
L 239.893559 169.73749 
L 245.320877 174.164592 
L 250.477466 169.226449 
L 255.389057 175.154022 
L 260.077878 170.52061 
L 264.563263 176.265534 
L 268.862134 174.043509 
L 272.989385 172.628991 
L 276.958194 172.133408 
L 280.780278 175.401807 
L 284.466099 172.438097 
L 288.025041 174.194063 
L 291.465549 176.393265 
L 294.795252 177.781811 
L 298.021064 176.841939 
L 301.149274 178.430838 
L 304.185615 174.813449 
L 307.135328 177.979409 
L 310.003221 177.130013 
L 312.793709 177.058729 
L 315.510863 178.21956 
L 318.158437 180.163728 
L 320.739907 178.608446 
L 323.258492 180.449493 
L 325.717185 181.036027 
L 328.118768 175.661238 
L 330.465834 179.53871 
L 332.760802 182.443772 
L 335.005936 180.146326 
L 337.203354 184.125449 
L 339.355042 182.228664 
L 341.462865 184.59285 
L 353.28 184.740687 
L 370.393668 186.878843 
L 385.072943 189.524506 
L 397.924933 194.708797 
L 409.354613 192.465915 
L 419.645657 197.325228 
L 429.004519 203.888928 
L 437.586137 199.771475 
L 445.50977 213.051778 
L 452.869171 216.108057 
L 459.739384 218.276593 
L 466.181408 219.950459 
L 472.245501 231.231153 
L 477.973559 228.072864 
L 483.400877 232.805408 
L 488.557466 241.392449 
L 493.469057 244.62865 
L 498.157878 252.279982 
L 502.643263 257.4537 
L 506.942134 254.572445 
L 511.069385 250.715595 
L 515.038194 248.540245 
L 518.860278 245.993982 
L 522.546099 253.562567 
L 526.105041 249.77908 
L 529.545549 250.502688 
L 532.875252 255.269828 
L 536.101064 253.637367 
L 539.229274 261.624626 
L 542.265615 252.409005 
L 545.215328 258.733685 
L 548.083221 249.283997 
L 550.873709 250.90948 
L 553.590863 260.115527 
L 556.238437 259.054425 
L 558.819907 252.692882 
L 561.338492 261.126898 
L 563.797185 248.068047 
L 566.198768 254.946905 
L 568.545834 248.556628 
L 570.840802 272.163729 
L 573.085936 265.585317 
L 575.283354 265.474884 
L 577.435042 263.414681 
L 579.542865 268.974338 
L 591.36 256.928045 
L 608.473668 287.587371 
L 623.152943 285.910353 
L 636.004933 284.32454 
L 647.434613 278.109866 
L 657.725657 317.504198 
L 667.084519 303.226194 
L 675.666137 305.283671 
L 683.58977 308.594945 
L 690.949171 350.920079 
L 697.819384 305.17207 
L 704.261408 348.443099 
L 710.325501 362.666555 
L 716.053559 389.857179 
L 721.480877 389.723458 
L 726.637466 376.462693 
L 731.549057 370.376966 
L 736.237878 367.259302 
L 740.723263 468.996186 
L 745.022134 424.002591 
L 749.149385 404.213909 
L 753.118194 463.306732 
L 756.940278 433.428958 
L 760.626099 413.60469 
L 764.185041 412.894003 
L 767.625549 462.519366 
L 770.955252 423.597281 
L 774.181064 519.413731 
L 777.309274 428.480507 
L 780.345615 519.703852 
L 783.295328 523.373647 
L 786.163221 487.095851 
L 788.953709 308.213517 
L 791.670863 495.028829 
L 794.318437 503.417165 
L 796.899907 482.177015 
L 799.418492 548.902394 
L 801.877185 539.438149 
L 804.278768 554.76009 
L 806.625834 536.862391 
L 808.920802 524.808588 
L 811.165936 531.370735 
L 813.363354 547.113075 
L 817.622865 536.489213 
L 819.688575 501.936995 
L 821.713822 526.773383 
L 823.700162 518.743599 
L 825.64906 483.267548 
L 827.561903 530.943755 
L 827.561903 530.943755 
" style="fill:none;stroke:#26b7d8;stroke-linecap:square;"/>
   </g>
   <g id="line2d_4">
    <path clip-path="url(#p38d214f1fd)" d="M 115.2 167.611065 
L 132.313668 168.116594 
L 146.992943 166.541568 
L 159.844933 168.920083 
L 171.274613 167.435777 
L 181.565657 169.843732 
L 190.924519 164.028118 
L 199.506137 172.691145 
L 207.42977 174.088286 
L 214.789171 172.57767 
L 221.659384 167.455376 
L 228.101408 169.201311 
L 234.165501 172.200764 
L 239.893559 175.978126 
L 245.320877 172.124936 
L 250.477466 168.95899 
L 255.389057 173.492059 
L 260.077878 178.316818 
L 264.563263 175.787286 
L 268.862134 176.68539 
L 272.989385 175.092595 
L 276.958194 174.858147 
L 280.780278 175.228733 
L 284.466099 178.99218 
L 288.025041 178.787375 
L 291.465549 177.607412 
L 294.795252 175.60774 
L 298.021064 177.788357 
L 301.149274 174.310509 
L 304.185615 180.332695 
L 307.135328 179.743053 
L 310.003221 179.858804 
L 312.793709 182.40045 
L 315.510863 180.912962 
L 318.158437 184.467112 
L 320.739907 179.619038 
L 323.258492 184.595446 
L 325.717185 181.19767 
L 328.118768 180.861101 
L 330.465834 182.801447 
L 332.760802 186.955292 
L 335.005936 181.904822 
L 337.203354 180.458531 
L 339.355042 179.315021 
L 341.462865 184.032086 
L 353.28 187.590115 
L 370.393668 190.128616 
L 385.072943 194.801826 
L 397.924933 191.925814 
L 409.354613 196.688985 
L 419.645657 194.696398 
L 429.004519 197.768623 
L 437.586137 197.032379 
L 445.50977 204.83783 
L 452.869171 207.686118 
L 459.739384 215.779117 
L 466.181408 208.431156 
L 472.245501 220.525998 
L 477.973559 211.545285 
L 483.400877 213.397601 
L 488.557466 217.894415 
L 493.469057 221.34578 
L 498.157878 228.177945 
L 502.643263 235.967296 
L 506.942134 237.360227 
L 511.069385 241.307072 
L 515.038194 248.35305 
L 518.860278 248.839065 
L 522.546099 246.636314 
L 526.105041 242.816397 
L 529.545549 241.069436 
L 532.875252 253.97456 
L 536.101064 254.222653 
L 539.229274 253.710671 
L 542.265615 242.792822 
L 545.215328 253.894473 
L 548.083221 255.052733 
L 550.873709 255.390184 
L 553.590863 252.005525 
L 556.238437 239.824864 
L 558.819907 257.546426 
L 561.338492 256.321037 
L 563.797185 246.608589 
L 566.198768 249.975046 
L 568.545834 247.90206 
L 570.840802 259.538812 
L 573.085936 264.117279 
L 575.283354 250.4568 
L 577.435042 257.663863 
L 579.542865 257.684257 
L 591.36 269.711178 
L 608.473668 268.446974 
L 623.152943 269.638035 
L 636.004933 271.814944 
L 647.434613 290.108265 
L 657.725657 276.538866 
L 667.084519 294.77868 
L 675.666137 321.708431 
L 683.58977 319.95043 
L 690.949171 316.839724 
L 697.819384 303.71462 
L 704.261408 330.519254 
L 710.325501 353.845155 
L 716.053559 357.401007 
L 721.480877 355.383766 
L 726.637466 389.403969 
L 731.549057 417.622408 
L 736.237878 331.600093 
L 740.723263 386.580356 
L 745.022134 381.119301 
L 749.149385 402.94835 
L 753.118194 463.978017 
L 756.940278 417.848459 
L 760.626099 452.147157 
L 764.185041 411.098217 
L 767.625549 414.820982 
L 770.955252 466.221888 
L 774.181064 455.593603 
L 777.309274 502.615425 
L 780.345615 465.319886 
L 783.295328 486.583311 
L 786.163221 479.436305 
L 788.953709 519.446066 
L 791.670863 528.014089 
L 794.318437 523.855078 
L 796.899907 512.518698 
L 799.418492 488.225279 
L 801.877185 552.703355 
L 804.278768 482.494436 
L 806.625834 549.894433 
L 808.920802 492.000395 
L 811.165936 538.90931 
L 813.363354 492.407116 
L 815.515042 527.041176 
L 817.622865 333.944482 
L 819.688575 507.62578 
L 821.713822 496.36164 
L 823.700162 546.703176 
L 825.64906 490.721835 
L 827.561903 565.900084 
L 827.561903 565.900084 
" style="fill:none;stroke:#8414a4;stroke-linecap:square;"/>
   </g>
   <g id="line2d_5">
    <path clip-path="url(#p38d214f1fd)" d="M 115.2 168.22353 
L 132.313668 170.883355 
L 146.992943 169.194605 
L 159.844933 165.009509 
L 171.274613 177.324204 
L 181.565657 174.589328 
L 190.924519 170.982182 
L 199.506137 174.635027 
L 207.42977 160.8496 
L 214.789171 170.383161 
L 221.659384 176.765644 
L 228.101408 172.124654 
L 234.165501 179.262818 
L 239.893559 172.167854 
L 245.320877 165.174514 
L 250.477466 169.119014 
L 255.389057 170.701899 
L 260.077878 174.570562 
L 264.563263 174.25983 
L 272.989385 180.216895 
L 276.958194 175.581587 
L 280.780278 179.072231 
L 284.466099 181.190944 
L 288.025041 178.103601 
L 291.465549 173.100607 
L 294.795252 174.946278 
L 298.021064 180.812625 
L 301.149274 175.773799 
L 304.185615 181.043843 
L 307.135328 180.009664 
L 310.003221 182.336702 
L 312.793709 179.755299 
L 315.510863 179.964228 
L 318.158437 183.358755 
L 320.739907 179.655758 
L 323.258492 182.45968 
L 325.717185 183.541875 
L 328.118768 182.314273 
L 330.465834 181.274887 
L 332.760802 178.145048 
L 335.005936 187.196752 
L 337.203354 183.169701 
L 339.355042 184.402584 
L 341.462865 183.343203 
L 353.28 189.018775 
L 370.393668 188.713513 
L 385.072943 189.229395 
L 397.924933 190.631875 
L 409.354613 190.9461 
L 419.645657 191.763346 
L 429.004519 200.325324 
L 437.586137 194.595692 
L 445.50977 197.586718 
L 452.869171 206.494203 
L 459.739384 203.284018 
L 466.181408 206.713313 
L 472.245501 204.396057 
L 477.973559 212.20847 
L 483.400877 206.146428 
L 488.557466 211.087324 
L 493.469057 211.437131 
L 498.157878 215.051887 
L 502.643263 213.623503 
L 506.942134 228.797483 
L 511.069385 220.373155 
L 515.038194 228.56074 
L 518.860278 224.081683 
L 522.546099 229.40634 
L 526.105041 235.165913 
L 529.545549 241.165332 
L 532.875252 231.266174 
L 536.101064 235.12371 
L 539.229274 237.6366 
L 545.215328 251.494528 
L 548.083221 243.692132 
L 550.873709 246.932728 
L 553.590863 247.854386 
L 556.238437 256.393201 
L 558.819907 267.105006 
L 561.338492 246.223596 
L 563.797185 262.250158 
L 566.198768 258.796551 
L 568.545834 251.089056 
L 570.840802 245.391263 
L 573.085936 248.548939 
L 575.283354 267.479884 
L 577.435042 262.006144 
L 579.542865 237.868525 
L 591.36 256.77459 
L 608.473668 253.75056 
L 623.152943 267.285864 
L 636.004933 269.318004 
L 647.434613 254.412619 
L 657.725657 273.029521 
L 667.084519 293.213793 
L 675.666137 326.343942 
L 683.58977 287.827721 
L 690.949171 374.148863 
L 697.819384 301.307974 
L 704.261408 318.641019 
L 710.325501 349.030764 
L 716.053559 342.105782 
L 721.480877 366.13322 
L 726.637466 347.644316 
L 731.549057 424.113548 
L 736.237878 301.036666 
L 740.723263 410.41728 
L 745.022134 366.656018 
L 749.149385 391.108213 
L 753.118194 476.239146 
L 756.940278 457.251608 
L 760.626099 432.845233 
L 764.185041 560.053719 
L 767.625549 489.725658 
L 770.955252 485.562147 
L 774.181064 559.40747 
L 777.309274 465.153981 
L 780.345615 541.18143 
L 783.295328 481.824671 
L 786.163221 563.672305 
L 788.953709 511.159157 
L 791.670863 564.574872 
L 794.318437 539.155602 
L 796.899907 566.298632 
L 799.418492 518.475746 
L 801.877185 547.581873 
L 804.278768 505.856786 
L 806.625834 563.713703 
L 808.920802 554.131539 
L 811.165936 549.384408 
L 813.363354 405.33849 
L 815.515042 481.807731 
L 817.622865 503.254707 
L 819.688575 534.254923 
L 821.713822 492.664087 
L 823.700162 526.52861 
L 825.64906 533.269132 
L 827.561903 466.594325 
L 827.561903 466.594325 
" style="fill:none;stroke:#ffd23a;stroke-linecap:square;"/>
   </g>
   <g id="line2d_6">
    <path clip-path="url(#p38d214f1fd)" d="M 115.2 169.891943 
L 132.313668 164.77585 
L 146.992943 167.792068 
L 159.844933 171.924433 
L 171.274613 171.999786 
L 181.565657 167.897599 
L 190.924519 169.72313 
L 199.506137 177.983461 
L 207.42977 164.907592 
L 214.789171 169.588457 
L 221.659384 176.518958 
L 228.101408 176.850175 
L 239.893559 172.346065 
L 245.320877 170.777811 
L 250.477466 179.416655 
L 255.389057 171.799938 
L 260.077878 170.853251 
L 264.563263 177.429217 
L 268.862134 179.600364 
L 272.989385 178.395578 
L 276.958194 174.738902 
L 280.780278 175.148006 
L 284.466099 169.44251 
L 288.025041 181.025466 
L 291.465549 180.027747 
L 294.795252 180.031154 
L 298.021064 186.505248 
L 301.149274 181.492384 
L 304.185615 186.407175 
L 307.135328 195.764451 
L 310.003221 181.398958 
L 312.793709 183.778056 
L 315.510863 175.81862 
L 318.158437 185.109455 
L 320.739907 187.893143 
L 323.258492 177.306467 
L 325.717185 184.363452 
L 328.118768 189.454886 
L 330.465834 184.868708 
L 332.760802 173.429836 
L 335.005936 178.040804 
L 337.203354 193.41698 
L 339.355042 183.472505 
L 341.462865 175.566856 
L 353.28 186.17448 
L 370.393668 193.925912 
L 397.924933 192.929723 
L 409.354613 192.854353 
L 429.004519 193.473056 
L 437.586137 182.658173 
L 445.50977 196.021179 
L 452.869171 189.295871 
L 459.739384 201.12706 
L 466.181408 195.921888 
L 472.245501 202.988537 
L 477.973559 206.72079 
L 483.400877 210.463266 
L 488.557466 208.06483 
L 493.469057 202.872521 
L 498.157878 209.617433 
L 502.643263 219.027883 
L 506.942134 217.192432 
L 511.069385 214.735562 
L 515.038194 214.236174 
L 518.860278 229.778465 
L 522.546099 224.09334 
L 526.105041 224.622481 
L 529.545549 224.555338 
L 532.875252 236.533619 
L 536.101064 229.528066 
L 539.229274 231.731005 
L 542.265615 230.188175 
L 545.215328 260.07184 
L 550.873709 236.172551 
L 553.590863 251.067958 
L 556.238437 252.375228 
L 558.819907 225.171356 
L 561.338492 239.583547 
L 563.797185 266.974821 
L 566.198768 267.522986 
L 568.545834 231.242502 
L 570.840802 224.082446 
L 573.085936 253.669936 
L 575.283354 278.395742 
L 577.435042 258.542407 
L 579.542865 250.568531 
L 591.36 266.53117 
L 608.473668 243.935466 
L 623.152943 292.730336 
L 636.004933 260.614765 
L 647.434613 260.698928 
L 657.725657 255.376061 
L 667.084519 314.74283 
L 675.666137 285.192799 
L 683.58977 313.587089 
L 690.949171 334.977889 
L 697.819384 324.832406 
L 704.261408 307.782513 
L 710.325501 343.968802 
L 716.053559 309.656623 
L 721.480877 337.047264 
L 726.637466 365.765667 
L 731.549057 364.0093 
L 736.237878 409.559449 
L 740.723263 529.940025 
L 745.022134 444.411195 
L 749.149385 346.777399 
L 753.118194 394.944779 
L 756.940278 339.837213 
L 760.626099 428.100182 
L 764.185041 413.8476 
L 767.625549 469.929804 
L 770.955252 459.812002 
L 774.181064 366.821339 
L 777.309274 488.035582 
L 783.295328 399.913919 
L 786.163221 500.450971 
L 788.953709 457.241914 
L 791.670863 544.534914 
L 794.318437 483.87587 
L 796.899907 450.321092 
L 799.418492 273.486243 
L 801.877185 489.04387 
L 804.278768 515.377171 
L 806.625834 559.274901 
L 808.920802 271.047325 
L 811.165936 567.14089 
L 813.363354 515.487589 
L 815.515042 392.916493 
L 817.622865 305.853872 
L 819.688575 565.685979 
L 821.713822 557.031828 
L 823.700162 546.243183 
L 825.64906 552.794768 
L 827.561903 400.040165 
L 827.561903 400.040165 
" style="fill:none;stroke:#ff9300;stroke-linecap:square;"/>
   </g>
   <g id="line2d_7">
    <path clip-path="url(#p38d214f1fd)" d="M 115.2 174.646641 
L 132.313668 158.087098 
L 146.992943 176.951274 
L 159.844933 162.855661 
L 171.274613 162.552125 
L 181.565657 169.518818 
L 190.924519 163.542398 
L 199.506137 163.383996 
L 207.42977 162.053506 
L 214.789171 171.219769 
L 221.659384 184.170722 
L 228.101408 166.128532 
L 234.165501 186.081215 
L 239.893559 170.109625 
L 245.320877 173.226061 
L 250.477466 179.431922 
L 255.389057 177.328265 
L 260.077878 174.739691 
L 264.563263 169.335253 
L 268.862134 175.836997 
L 272.989385 178.023365 
L 276.958194 183.141832 
L 280.780278 189.130001 
L 284.466099 183.150785 
L 288.025041 173.278759 
L 291.465549 181.483469 
L 294.795252 185.544152 
L 298.021064 182.726983 
L 301.149274 183.842985 
L 304.185615 169.044704 
L 307.135328 181.183137 
L 310.003221 174.239124 
L 312.793709 183.260042 
L 315.510863 184.59918 
L 318.158437 177.523162 
L 320.739907 180.635198 
L 323.258492 196.580456 
L 325.717185 166.940208 
L 328.118768 185.372332 
L 330.465834 187.07583 
L 332.760802 180.754551 
L 335.005936 186.79727 
L 337.203354 170.737863 
L 339.355042 180.204785 
L 341.462865 177.841505 
L 353.28 180.592881 
L 370.393668 189.052133 
L 385.072943 186.043901 
L 397.924933 192.907932 
L 409.354613 185.321511 
L 419.645657 204.57425 
L 429.004519 191.501569 
L 437.586137 191.736377 
L 445.50977 199.256002 
L 452.869171 194.580236 
L 459.739384 181.495755 
L 466.181408 196.472978 
L 472.245501 195.321902 
L 477.973559 200.573513 
L 483.400877 202.340406 
L 488.557466 197.510911 
L 493.469057 182.292327 
L 498.157878 193.639808 
L 502.643263 224.935258 
L 506.942134 193.345464 
L 511.069385 214.101317 
L 515.038194 213.484024 
L 518.860278 211.473859 
L 522.546099 197.960085 
L 526.105041 218.960558 
L 529.545549 198.172109 
L 532.875252 217.697618 
L 536.101064 221.014905 
L 539.229274 222.882034 
L 542.265615 228.699625 
L 545.215328 235.338287 
L 548.083221 227.465004 
L 550.873709 226.51162 
L 553.590863 232.219011 
L 556.238437 228.337736 
L 558.819907 241.105352 
L 561.338492 246.637489 
L 563.797185 222.69979 
L 566.198768 251.831639 
L 568.545834 233.780241 
L 570.840802 245.809917 
L 573.085936 242.276622 
L 575.283354 247.600366 
L 577.435042 232.803079 
L 579.542865 246.264229 
L 591.36 253.212991 
L 608.473668 262.357419 
L 623.152943 271.444285 
L 636.004933 314.773287 
L 647.434613 266.214301 
L 657.725657 300.925677 
L 667.084519 329.263206 
L 675.666137 308.36222 
L 683.58977 273.435472 
L 690.949171 320.511815 
L 697.819384 287.009697 
L 704.261408 332.01755 
L 710.325501 350.353091 
L 716.053559 376.761071 
L 721.480877 358.714117 
L 726.637466 343.959357 
L 731.549057 393.376533 
L 736.237878 344.765413 
L 740.723263 422.424325 
L 745.022134 384.57368 
L 749.149385 399.167206 
L 753.118194 343.634062 
L 756.940278 350.015356 
L 760.626099 434.871956 
L 764.185041 360.736321 
L 767.625549 403.349215 
L 770.955252 403.786957 
L 774.181064 502.949817 
L 777.309274 480.741764 
L 780.345615 480.810215 
L 783.295328 513.945611 
L 786.163221 494.035777 
L 788.953709 515.187363 
L 791.670863 462.210492 
L 794.318437 483.836263 
L 796.899907 553.97873 
L 799.418492 278.350081 
L 801.877185 490.395651 
L 804.278768 478.403364 
L 806.625834 486.506182 
L 808.920802 507.212885 
L 811.165936 549.115764 
L 813.363354 308.45108 
L 815.515042 421.564247 
L 817.622865 509.69118 
L 819.688575 541.626541 
L 821.713822 519.767481 
L 823.700162 495.022477 
L 825.64906 501.43245 
L 827.561903 541.059314 
L 827.561903 541.059314 
" style="fill:none;stroke:#f50fe6;stroke-linecap:square;"/>
   </g>
   <g id="line2d_8">
    <path clip-path="url(#p38d214f1fd)" d="M 115.2 162.949863 
L 132.313668 167.659368 
L 146.992943 175.581481 
L 159.844933 160.436471 
L 171.274613 174.444815 
L 181.565657 159.531845 
L 190.924519 179.208261 
L 199.506137 174.716558 
L 207.42977 169.946745 
L 214.789171 167.375871 
L 221.659384 177.118566 
L 228.101408 168.804454 
L 234.165501 169.433154 
L 239.893559 176.768345 
L 245.320877 199.081215 
L 250.477466 189.479328 
L 255.389057 164.508407 
L 260.077878 175.835726 
L 264.563263 164.931313 
L 268.862134 172.722934 
L 272.989385 167.031686 
L 276.958194 180.807311 
L 280.780278 172.0118 
L 284.466099 185.091793 
L 288.025041 189.377825 
L 291.465549 190.321083 
L 294.795252 172.853172 
L 298.021064 184.550499 
L 301.149274 193.860761 
L 304.185615 178.913569 
L 307.135328 188.182094 
L 310.003221 173.906126 
L 312.793709 167.18454 
L 315.510863 185.582921 
L 318.158437 176.154019 
L 320.739907 200.3985 
L 323.258492 190.690513 
L 325.717185 183.319646 
L 328.118768 189.563106 
L 330.465834 174.138183 
L 332.760802 171.598092 
L 335.005936 187.888381 
L 337.203354 191.222191 
L 339.355042 170.517073 
L 341.462865 190.748687 
L 353.28 197.774937 
L 370.393668 193.600219 
L 385.072943 191.06251 
L 397.924933 193.011691 
L 409.354613 181.853817 
L 419.645657 190.041026 
L 429.004519 191.75535 
L 437.586137 195.540715 
L 445.50977 185.98387 
L 452.869171 187.586866 
L 459.739384 201.76718 
L 466.181408 183.927601 
L 472.245501 201.222832 
L 477.973559 191.28714 
L 483.400877 197.223375 
L 488.557466 200.093613 
L 493.469057 192.841335 
L 498.157878 209.931333 
L 502.643263 185.711156 
L 506.942134 178.665717 
L 511.069385 193.843179 
L 515.038194 186.045007 
L 518.860278 198.948448 
L 522.546099 213.870715 
L 526.105041 212.133717 
L 529.545549 208.766399 
L 532.875252 198.424222 
L 536.101064 228.23412 
L 539.229274 227.851452 
L 542.265615 218.945425 
L 545.215328 242.547007 
L 548.083221 226.708946 
L 550.873709 226.387638 
L 553.590863 229.658264 
L 556.238437 237.496779 
L 558.819907 235.78758 
L 561.338492 238.357848 
L 563.797185 264.243047 
L 566.198768 226.072531 
L 568.545834 261.518441 
L 570.840802 256.545585 
L 573.085936 242.399322 
L 575.283354 246.385633 
L 577.435042 252.298697 
L 579.542865 251.122368 
L 591.36 266.003813 
L 608.473668 236.230826 
L 623.152943 270.093405 
L 636.004933 315.76312 
L 647.434613 302.849297 
L 657.725657 332.839393 
L 667.084519 276.736293 
L 675.666137 281.559879 
L 683.58977 341.896084 
L 690.949171 312.699992 
L 697.819384 344.588574 
L 704.261408 340.919781 
L 710.325501 299.698026 
L 716.053559 353.01109 
L 721.480877 301.473883 
L 726.637466 304.462109 
L 731.549057 379.880178 
L 736.237878 334.018593 
L 740.723263 338.801819 
L 745.022134 333.052769 
L 749.149385 366.383379 
L 753.118194 410.782703 
L 756.940278 325.359939 
L 760.626099 365.28762 
L 764.185041 422.791049 
L 767.625549 375.716159 
L 770.955252 503.78656 
L 774.181064 501.145713 
L 777.309274 409.088778 
L 780.345615 492.518693 
L 783.295328 539.560574 
L 786.163221 459.651884 
L 788.953709 461.880868 
L 791.670863 516.135529 
L 794.318437 400.240595 
L 796.899907 471.724811 
L 799.418492 326.013458 
L 801.877185 562.753148 
L 804.278768 565.141969 
L 806.625834 516.599687 
L 808.920802 546.694502 
L 811.165936 567.166898 
L 813.363354 448.249736 
L 815.515042 501.037118 
L 817.622865 549.920347 
L 819.688575 566.036278 
L 821.713822 313.440212 
L 823.700162 465.626966 
L 825.64906 297.111458 
L 827.561903 532.914809 
L 827.561903 532.914809 
" style="fill:none;stroke:#1000a0;stroke-linecap:square;"/>
   </g>
   <g id="line2d_9">
    <path clip-path="url(#p38d214f1fd)" d="M 115.2 179.114906 
L 132.313668 170.868802 
L 146.992943 185.38871 
L 159.844933 160.529634 
L 171.274613 179.071456 
L 181.565657 195.401104 
L 190.924519 137.46724 
L 199.506137 148.626697 
L 207.42977 169.315063 
L 214.789171 169.98793 
L 221.659384 157.21346 
L 228.101408 180.088049 
L 234.165501 167.557155 
L 239.893559 199.341338 
L 245.320877 165.9445 
L 250.477466 190.784511 
L 255.389057 202.389187 
L 260.077878 164.982672 
L 264.563263 206.283511 
L 268.862134 198.343519 
L 272.989385 188.334811 
L 276.958194 200.462266 
L 280.780278 183.02529 
L 284.466099 153.852088 
L 288.025041 188.079122 
L 291.465549 184.092626 
L 294.795252 187.290578 
L 298.021064 190.187486 
L 301.149274 176.648338 
L 304.185615 173.533327 
L 307.135328 168.386398 
L 310.003221 190.545331 
L 312.793709 178.989903 
L 315.510863 180.371528 
L 318.158437 177.847787 
L 320.739907 166.50862 
L 323.258492 166.207045 
L 325.717185 177.798359 
L 328.118768 183.484138 
L 330.465834 159.630938 
L 332.760802 199.578664 
L 335.005936 185.495302 
L 337.203354 173.200594 
L 339.355042 196.093137 
L 341.462865 169.524127 
L 353.28 179.07984 
L 370.393668 171.702738 
L 385.072943 208.708666 
L 397.924933 194.386318 
L 409.354613 192.894171 
L 419.645657 191.130228 
L 429.004519 198.581987 
L 437.586137 203.200366 
L 445.50977 198.62333 
L 452.869171 181.948076 
L 459.739384 209.615684 
L 466.181408 196.400911 
L 472.245501 213.569428 
L 477.973559 209.283355 
L 483.400877 198.47223 
L 488.557466 183.333722 
L 493.469057 196.532414 
L 498.157878 183.874041 
L 502.643263 199.062703 
L 506.942134 211.485024 
L 511.069385 197.368549 
L 515.038194 187.863058 
L 518.860278 193.835664 
L 522.546099 189.056479 
L 526.105041 223.267963 
L 529.545549 172.45623 
L 532.875252 210.260323 
L 536.101064 209.797428 
L 539.229274 222.224641 
L 542.265615 228.948588 
L 545.215328 211.019711 
L 548.083221 207.247961 
L 550.873709 205.330319 
L 553.590863 214.045195 
L 556.238437 245.652626 
L 558.819907 212.871814 
L 561.338492 253.625049 
L 563.797185 190.302783 
L 566.198768 267.1796 
L 568.545834 245.339298 
L 570.840802 229.395345 
L 573.085936 199.260333 
L 575.283354 267.684682 
L 577.435042 203.916455 
L 579.542865 233.490032 
L 591.36 263.298799 
L 608.473668 293.853391 
L 623.152943 271.762955 
L 636.004933 270.07061 
L 647.434613 298.942695 
L 657.725657 303.066605 
L 667.084519 240.649957 
L 675.666137 255.773541 
L 683.58977 298.743912 
L 690.949171 281.431482 
L 697.819384 264.763016 
L 704.261408 322.078988 
L 710.325501 259.019769 
L 716.053559 328.493632 
L 721.480877 330.187387 
L 726.637466 443.828792 
L 731.549057 420.946429 
L 736.237878 361.795428 
L 740.723263 375.039981 
L 745.022134 524.025704 
L 749.149385 360.714456 
L 753.118194 356.674265 
L 756.940278 445.234272 
L 760.626099 459.810321 
L 764.185041 272.372932 
L 767.625549 431.84085 
L 770.955252 299.324554 
L 774.181064 358.902124 
L 777.309274 469.007217 
L 780.345615 527.224718 
L 783.295328 272.934452 
L 786.163221 466.880602 
L 788.953709 304.430652 
L 791.670863 566.96299 
L 794.318437 488.515376 
L 796.899907 540.621312 
L 799.418492 521.356503 
L 801.877185 443.623939 
L 804.278768 478.145216 
L 806.625834 546.007761 
L 808.920802 391.793176 
L 811.165936 385.656122 
L 813.363354 485.937241 
L 815.515042 479.019422 
L 817.622865 442.763577 
L 819.688575 496.442132 
L 821.713822 486.010776 
L 823.700162 538.098988 
L 825.64906 533.367805 
L 827.561903 280.249393 
L 827.561903 280.249393 
" style="fill:none;stroke:#595866;stroke-linecap:square;"/>
   </g>
   <g id="line2d_10">
    <path clip-path="url(#p38d214f1fd)" d="M 115.2 163.057493 
L 132.313668 171.605621 
L 146.992943 162.781507 
L 159.844933 177.363277 
L 171.274613 174.742275 
L 181.565657 163.204567 
L 190.924519 149.215771 
L 199.506137 217.125544 
L 207.42977 123.294201 
L 214.789171 158.509385 
L 221.659384 166.184086 
L 228.101408 197.115108 
L 234.165501 152.428653 
L 239.893559 160.625778 
L 245.320877 160.156923 
L 250.477466 157.149848 
L 255.389057 197.687034 
L 260.077878 194.751638 
L 264.563263 154.801734 
L 268.862134 187.264784 
L 272.989385 172.116473 
L 276.958194 155.186902 
L 280.780278 204.20386 
L 284.466099 171.682127 
L 288.025041 180.881981 
L 291.465549 190.81623 
L 294.795252 177.421357 
L 298.021064 151.395175 
L 301.149274 168.148912 
L 304.185615 170.722858 
L 307.135328 182.131279 
L 310.003221 180.800251 
L 312.793709 172.7929 
L 315.510863 179.91187 
L 318.158437 191.837115 
L 320.739907 189.915659 
L 323.258492 165.193281 
L 325.717185 192.991682 
L 328.118768 171.027238 
L 330.465834 177.481156 
L 332.760802 159.629255 
L 335.005936 186.015803 
L 337.203354 192.184553 
L 339.355042 202.482755 
L 341.462865 214.063638 
L 353.28 165.046401 
L 370.393668 191.625592 
L 385.072943 180.191887 
L 397.924933 203.187015 
L 409.354613 198.020199 
L 419.645657 173.911637 
L 429.004519 166.794041 
L 437.586137 218.187189 
L 445.50977 159.885164 
L 452.869171 185.567488 
L 459.739384 177.921585 
L 466.181408 199.328116 
L 472.245501 198.965685 
L 477.973559 209.372529 
L 483.400877 202.467988 
L 488.557466 167.863908 
L 493.469057 168.676161 
L 498.157878 190.993725 
L 502.643263 190.878343 
L 506.942134 185.697969 
L 511.069385 209.111169 
L 515.038194 173.80314 
L 518.860278 212.596578 
L 522.546099 192.895119 
L 526.105041 217.59433 
L 529.545549 210.898928 
L 532.875252 224.917791 
L 536.101064 192.989534 
L 539.229274 258.308672 
L 542.265615 250.908221 
L 545.215328 250.817024 
L 548.083221 227.612014 
L 550.873709 180.73912 
L 553.590863 212.019756 
L 556.238437 218.405469 
L 558.819907 225.227095 
L 561.338492 258.348147 
L 563.797185 222.156603 
L 566.198768 282.876242 
L 568.545834 240.154966 
L 570.840802 213.539894 
L 573.085936 278.499841 
L 575.283354 223.309243 
L 577.435042 273.969347 
L 579.542865 234.801205 
L 591.36 252.676692 
L 608.473668 264.07157 
L 623.152943 272.63014 
L 636.004933 276.061131 
L 647.434613 149.512645 
L 657.725657 247.131157 
L 667.084519 224.234185 
L 675.666137 286.804191 
L 683.58977 180.58196 
L 690.949171 345.3968 
L 697.819384 283.726727 
L 704.261408 411.650614 
L 710.325501 467.405616 
L 716.053559 274.202751 
L 721.480877 558.956357 
L 726.637466 359.193299 
L 731.549057 558.00083 
L 736.237878 363.458906 
L 740.723263 532.586764 
L 745.022134 363.61397 
L 749.149385 446.843901 
L 753.118194 407.725147 
L 756.940278 334.63227 
L 760.626099 332.244521 
L 764.185041 442.656239 
L 767.625549 502.847941 
L 770.955252 360.643631 
L 774.181064 302.426731 
L 777.309274 561.519267 
L 780.345615 478.442642 
L 783.295328 521.577919 
L 786.163221 458.287583 
L 788.953709 491.011501 
L 791.670863 501.197587 
L 794.318437 503.623877 
L 796.899907 481.440904 
L 799.418492 453.340374 
L 801.877185 507.91651 
L 804.278768 415.609964 
L 806.625834 553.278306 
L 808.920802 553.054416 
L 811.165936 514.090175 
L 813.363354 495.542513 
L 815.515042 463.390442 
L 817.622865 532.501389 
L 819.688575 306.543721 
L 821.713822 314.621067 
L 823.700162 269.225896 
L 825.64906 501.839642 
L 827.561903 382.486245 
L 827.561903 382.486245 
" style="fill:none;stroke:#147f2a;stroke-linecap:square;"/>
   </g>
   <g id="line2d_11">
    <path clip-path="url(#p38d214f1fd)" d="M 115.2 172.194405 
L 132.313668 144.866686 
L 146.992943 176.288465 
L 159.844933 163.929706 
L 171.274613 164.846715 
L 181.565657 148.443622 
L 190.924519 141.144428 
L 199.506137 223.392281 
L 207.42977 435.058595 
L 214.789171 545.523989 
L 221.659384 566.558895 
L 228.101408 567.232629 
L 234.165501 567.251274 
L 239.893559 561.80109 
L 245.320877 553.418349 
L 250.477466 535.657918 
L 255.389057 558.03563 
L 260.077878 513.178365 
L 264.563263 565.66027 
L 268.862134 491.96905 
L 272.989385 547.53194 
L 276.958194 496.746797 
L 280.780278 549.947654 
L 284.466099 536.076197 
L 288.025041 525.41026 
L 291.465549 543.395349 
L 294.795252 538.115812 
L 298.021064 562.297936 
L 301.149274 551.730024 
L 304.185615 562.458323 
L 307.135328 479.890136 
L 310.003221 539.507851 
L 312.793709 518.525921 
L 315.510863 521.211206 
L 318.158437 530.467434 
L 320.739907 491.200441 
L 323.258492 411.119853 
L 325.717185 525.779842 
L 328.118768 566.790907 
L 330.465834 557.455396 
L 332.760802 534.964622 
L 335.005936 523.562115 
L 337.203354 508.794743 
L 339.355042 552.666906 
L 341.462865 557.205581 
L 353.28 563.143313 
L 370.393668 506.046524 
L 385.072943 548.723888 
L 397.924933 526.939904 
L 409.354613 504.936048 
L 419.645657 546.087689 
L 429.004519 528.376914 
L 437.586137 561.631751 
L 445.50977 496.881474 
L 452.869171 553.266849 
L 459.739384 560.448424 
L 466.181408 459.784258 
L 472.245501 541.412827 
L 477.973559 501.615851 
L 483.400877 556.437604 
L 488.557466 540.696546 
L 493.469057 561.475787 
L 498.157878 534.493645 
L 502.643263 533.116167 
L 506.942134 536.917563 
L 511.069385 526.167737 
L 515.038194 488.423985 
L 518.860278 537.205731 
L 522.546099 534.285413 
L 526.105041 560.128431 
L 529.545549 280.586194 
L 532.875252 468.093195 
L 536.101064 536.344635 
L 539.229274 486.812225 
L 542.265615 511.043411 
L 545.215328 548.510153 
L 548.083221 534.241892 
L 550.873709 525.444055 
L 553.590863 288.830599 
L 556.238437 496.214845 
L 558.819907 504.942961 
L 561.338492 506.016858 
L 563.797185 556.325749 
L 566.198768 508.680315 
L 568.545834 517.791621 
L 570.840802 499.879793 
L 573.085936 535.046578 
L 575.283354 504.752312 
L 577.435042 479.926183 
L 579.542865 274.970643 
L 591.36 538.11719 
L 608.473668 505.211092 
L 623.152943 501.426069 
L 636.004933 504.506647 
L 647.434613 326.73272 
L 657.725657 286.446167 
L 667.084519 266.864972 
L 675.666137 326.122441 
L 683.58977 433.548161 
L 690.949171 548.062125 
L 697.819384 373.970176 
L 704.261408 354.005376 
L 710.325501 457.525659 
L 716.053559 313.167499 
L 721.480877 539.092307 
L 726.637466 410.351469 
L 731.549057 306.55506 
L 736.237878 285.628639 
L 740.723263 555.156778 
L 745.022134 324.043601 
L 749.149385 373.181 
L 753.118194 373.142641 
L 756.940278 299.946422 
L 760.626099 406.55863 
L 764.185041 486.23474 
L 767.625549 353.044642 
L 770.955252 408.919381 
L 774.181064 470.202789 
L 777.309274 493.470201 
L 780.345615 371.38589 
L 783.295328 301.414049 
L 786.163221 551.430433 
L 788.953709 533.828297 
L 791.670863 444.918403 
L 794.318437 559.489838 
L 796.899907 552.949642 
L 799.418492 502.540354 
L 801.877185 304.127478 
L 804.278768 461.170154 
L 806.625834 340.010908 
L 808.920802 559.96641 
L 811.165936 317.842124 
L 813.363354 487.945412 
L 815.515042 517.473277 
L 817.622865 453.96288 
L 819.688575 538.761819 
L 821.713822 530.640769 
L 823.700162 498.332228 
L 825.64906 397.526893 
L 827.561903 331.823386 
L 827.561903 331.823386 
" style="fill:none;stroke:#00f6aa;stroke-linecap:square;"/>
   </g>
   <g id="patch_3">
    <path d="M 115.2 64.08 
L 829.44 64.08 
" style="fill:none;stroke:#000000;stroke-linecap:square;stroke-linejoin:miter;"/>
   </g>
   <g id="patch_4">
    <path d="M 829.44 576.72 
L 829.44 64.08 
" style="fill:none;stroke:#000000;stroke-linecap:square;stroke-linejoin:miter;"/>
   </g>
   <g id="patch_5">
    <path d="M 115.2 576.72 
L 829.44 576.72 
" style="fill:none;stroke:#000000;stroke-linecap:square;stroke-linejoin:miter;"/>
   </g>
   <g id="patch_6">
    <path d="M 115.2 576.72 
L 115.2 64.08 
" style="fill:none;stroke:#000000;stroke-linecap:square;stroke-linejoin:miter;"/>
   </g>
   <g id="matplotlib.axis_1">
    <g id="xtick_1">
     <g id="line2d_12">
      <defs>
       <path d="M 0 0 
L 0 -4 
" id="m4f9785f569" style="stroke:#000000;stroke-width:0.5;"/>
      </defs>
      <g>
       <use style="stroke:#000000;stroke-width:0.5;" x="115.2" xlink:href="#m4f9785f569" y="576.72"/>
      </g>
     </g>
     <g id="line2d_13">
      <defs>
       <path d="M 0 0 
L 0 4 
" id="mbc9b9ee552" style="stroke:#000000;stroke-width:0.5;"/>
      </defs>
      <g>
       <use style="stroke:#000000;stroke-width:0.5;" x="115.2" xlink:href="#mbc9b9ee552" y="64.08"/>
      </g>
     </g>
     <g id="text_1">
      <!-- $\mathdefault{10^{-3}}$ -->
      <defs>
       <path d="M 40.578125 39.3125 
Q 47.65625 37.796875 51.625 33 
Q 55.609375 28.21875 55.609375 21.1875 
Q 55.609375 10.40625 48.1875 4.484375 
Q 40.765625 -1.421875 27.09375 -1.421875 
Q 22.515625 -1.421875 17.65625 -0.515625 
Q 12.796875 0.390625 7.625 2.203125 
L 7.625 11.71875 
Q 11.71875 9.328125 16.59375 8.109375 
Q 21.484375 6.890625 26.8125 6.890625 
Q 36.078125 6.890625 40.9375 10.546875 
Q 45.796875 14.203125 45.796875 21.1875 
Q 45.796875 27.640625 41.28125 31.265625 
Q 36.765625 34.90625 28.71875 34.90625 
L 20.21875 34.90625 
L 20.21875 43.015625 
L 29.109375 43.015625 
Q 36.375 43.015625 40.234375 45.921875 
Q 44.09375 48.828125 44.09375 54.296875 
Q 44.09375 59.90625 40.109375 62.90625 
Q 36.140625 65.921875 28.71875 65.921875 
Q 24.65625 65.921875 20.015625 65.03125 
Q 15.375 64.15625 9.8125 62.3125 
L 9.8125 71.09375 
Q 15.4375 72.65625 20.34375 73.4375 
Q 25.25 74.21875 29.59375 74.21875 
Q 40.828125 74.21875 47.359375 69.109375 
Q 53.90625 64.015625 53.90625 55.328125 
Q 53.90625 49.265625 50.4375 45.09375 
Q 46.96875 40.921875 40.578125 39.3125 
" id="BitstreamVeraSans-Roman-33"/>
       <path d="M 4.890625 31.390625 
L 31.203125 31.390625 
L 31.203125 23.390625 
L 4.890625 23.390625 
z
" id="BitstreamVeraSans-Roman-2d"/>
       <path d="M 31.78125 66.40625 
Q 24.171875 66.40625 20.328125 58.90625 
Q 16.5 51.421875 16.5 36.375 
Q 16.5 21.390625 20.328125 13.890625 
Q 24.171875 6.390625 31.78125 6.390625 
Q 39.453125 6.390625 43.28125 13.890625 
Q 47.125 21.390625 47.125 36.375 
Q 47.125 51.421875 43.28125 58.90625 
Q 39.453125 66.40625 31.78125 66.40625 
M 31.78125 74.21875 
Q 44.046875 74.21875 50.515625 64.515625 
Q 56.984375 54.828125 56.984375 36.375 
Q 56.984375 17.96875 50.515625 8.265625 
Q 44.046875 -1.421875 31.78125 -1.421875 
Q 19.53125 -1.421875 13.0625 8.265625 
Q 6.59375 17.96875 6.59375 36.375 
Q 6.59375 54.828125 13.0625 64.515625 
Q 19.53125 74.21875 31.78125 74.21875 
" id="BitstreamVeraSans-Roman-30"/>
       <path d="M 12.40625 8.296875 
L 28.515625 8.296875 
L 28.515625 63.921875 
L 10.984375 60.40625 
L 10.984375 69.390625 
L 28.421875 72.90625 
L 38.28125 72.90625 
L 38.28125 8.296875 
L 54.390625 8.296875 
L 54.390625 0 
L 12.40625 0 
z
" id="BitstreamVeraSans-Roman-31"/>
      </defs>
      <g transform="translate(102.54 590.464375)scale(0.12 -0.12)">
       <use transform="translate(0.0 0.796875)" xlink:href="#BitstreamVeraSans-Roman-31"/>
       <use transform="translate(63.623046875 0.796875)" xlink:href="#BitstreamVeraSans-Roman-30"/>
       <use transform="translate(132.75859375 48.046875)scale(0.7)" xlink:href="#BitstreamVeraSans-Roman-2d"/>
       <use transform="translate(158.0173828125 48.046875)scale(0.7)" xlink:href="#BitstreamVeraSans-Roman-33"/>
      </g>
     </g>
    </g>
    <g id="xtick_2">
     <g id="line2d_14">
      <g>
       <use style="stroke:#000000;stroke-width:0.5;" x="353.28" xlink:href="#m4f9785f569" y="576.72"/>
      </g>
     </g>
     <g id="line2d_15">
      <g>
       <use style="stroke:#000000;stroke-width:0.5;" x="353.28" xlink:href="#mbc9b9ee552" y="64.08"/>
      </g>
     </g>
     <g id="text_2">
      <!-- $\mathdefault{10^{-2}}$ -->
      <defs>
       <path d="M 19.1875 8.296875 
L 53.609375 8.296875 
L 53.609375 0 
L 7.328125 0 
L 7.328125 8.296875 
Q 12.9375 14.109375 22.625 23.890625 
Q 32.328125 33.6875 34.8125 36.53125 
Q 39.546875 41.84375 41.421875 45.53125 
Q 43.3125 49.21875 43.3125 52.78125 
Q 43.3125 58.59375 39.234375 62.25 
Q 35.15625 65.921875 28.609375 65.921875 
Q 23.96875 65.921875 18.8125 64.3125 
Q 13.671875 62.703125 7.8125 59.421875 
L 7.8125 69.390625 
Q 13.765625 71.78125 18.9375 73 
Q 24.125 74.21875 28.421875 74.21875 
Q 39.75 74.21875 46.484375 68.546875 
Q 53.21875 62.890625 53.21875 53.421875 
Q 53.21875 48.921875 51.53125 44.890625 
Q 49.859375 40.875 45.40625 35.40625 
Q 44.1875 33.984375 37.640625 27.21875 
Q 31.109375 20.453125 19.1875 8.296875 
" id="BitstreamVeraSans-Roman-32"/>
      </defs>
      <g transform="translate(340.62 590.464375)scale(0.12 -0.12)">
       <use transform="translate(0.0 0.796875)" xlink:href="#BitstreamVeraSans-Roman-31"/>
       <use transform="translate(63.623046875 0.796875)" xlink:href="#BitstreamVeraSans-Roman-30"/>
       <use transform="translate(132.75859375 48.046875)scale(0.7)" xlink:href="#BitstreamVeraSans-Roman-2d"/>
       <use transform="translate(158.0173828125 48.046875)scale(0.7)" xlink:href="#BitstreamVeraSans-Roman-32"/>
      </g>
     </g>
    </g>
    <g id="xtick_3">
     <g id="line2d_16">
      <g>
       <use style="stroke:#000000;stroke-width:0.5;" x="591.36" xlink:href="#m4f9785f569" y="576.72"/>
      </g>
     </g>
     <g id="line2d_17">
      <g>
       <use style="stroke:#000000;stroke-width:0.5;" x="591.36" xlink:href="#mbc9b9ee552" y="64.08"/>
      </g>
     </g>
     <g id="text_3">
      <!-- $\mathdefault{10^{-1}}$ -->
      <g transform="translate(578.7 590.344375)scale(0.12 -0.12)">
       <use transform="translate(0.0 0.7156250000000028)" xlink:href="#BitstreamVeraSans-Roman-31"/>
       <use transform="translate(63.623046875 0.7156250000000028)" xlink:href="#BitstreamVeraSans-Roman-30"/>
       <use transform="translate(132.75859375 47.965625)scale(0.7)" xlink:href="#BitstreamVeraSans-Roman-2d"/>
       <use transform="translate(158.0173828125 47.965625)scale(0.7)" xlink:href="#BitstreamVeraSans-Roman-31"/>
      </g>
     </g>
    </g>
    <g id="xtick_4">
     <g id="line2d_18">
      <g>
       <use style="stroke:#000000;stroke-width:0.5;" x="829.44" xlink:href="#m4f9785f569" y="576.72"/>
      </g>
     </g>
     <g id="line2d_19">
      <g>
       <use style="stroke:#000000;stroke-width:0.5;" x="829.44" xlink:href="#mbc9b9ee552" y="64.08"/>
      </g>
     </g>
     <g id="text_4">
      <!-- $\mathdefault{10^{0}}$ -->
      <g transform="translate(818.28 590.464375)scale(0.12 -0.12)">
       <use transform="translate(0.0 0.796875)" xlink:href="#BitstreamVeraSans-Roman-31"/>
       <use transform="translate(63.623046875 0.796875)" xlink:href="#BitstreamVeraSans-Roman-30"/>
       <use transform="translate(132.75859375 48.046875)scale(0.7)" xlink:href="#BitstreamVeraSans-Roman-30"/>
      </g>
     </g>
    </g>
    <g id="xtick_5">
     <g id="line2d_20">
      <defs>
       <path d="M 0 0 
L 0 -2 
" id="mfae6baddbf" style="stroke:#000000;stroke-width:0.5;"/>
      </defs>
      <g>
       <use style="stroke:#000000;stroke-width:0.5;" x="186.869221368" xlink:href="#mfae6baddbf" y="576.72"/>
      </g>
     </g>
     <g id="line2d_21">
      <defs>
       <path d="M 0 0 
L 0 2 
" id="m279ec8f810" style="stroke:#000000;stroke-width:0.5;"/>
      </defs>
      <g>
       <use style="stroke:#000000;stroke-width:0.5;" x="186.869221368" xlink:href="#m279ec8f810" y="64.08"/>
      </g>
     </g>
    </g>
    <g id="xtick_6">
     <g id="line2d_22">
      <g>
       <use style="stroke:#000000;stroke-width:0.5;" x="228.793028324" xlink:href="#mfae6baddbf" y="576.72"/>
      </g>
     </g>
     <g id="line2d_23">
      <g>
       <use style="stroke:#000000;stroke-width:0.5;" x="228.793028324" xlink:href="#m279ec8f810" y="64.08"/>
      </g>
     </g>
    </g>
    <g id="xtick_7">
     <g id="line2d_24">
      <g>
       <use style="stroke:#000000;stroke-width:0.5;" x="258.538442735" xlink:href="#mfae6baddbf" y="576.72"/>
      </g>
     </g>
     <g id="line2d_25">
      <g>
       <use style="stroke:#000000;stroke-width:0.5;" x="258.538442735" xlink:href="#m279ec8f810" y="64.08"/>
      </g>
     </g>
    </g>
    <g id="xtick_8">
     <g id="line2d_26">
      <g>
       <use style="stroke:#000000;stroke-width:0.5;" x="281.610778632" xlink:href="#mfae6baddbf" y="576.72"/>
      </g>
     </g>
     <g id="line2d_27">
      <g>
       <use style="stroke:#000000;stroke-width:0.5;" x="281.610778632" xlink:href="#m279ec8f810" y="64.08"/>
      </g>
     </g>
    </g>
    <g id="xtick_9">
     <g id="line2d_28">
      <g>
       <use style="stroke:#000000;stroke-width:0.5;" x="300.462249691" xlink:href="#mfae6baddbf" y="576.72"/>
      </g>
     </g>
     <g id="line2d_29">
      <g>
       <use style="stroke:#000000;stroke-width:0.5;" x="300.462249691" xlink:href="#m279ec8f810" y="64.08"/>
      </g>
     </g>
    </g>
    <g id="xtick_10">
     <g id="line2d_30">
      <g>
       <use style="stroke:#000000;stroke-width:0.5;" x="316.400941367" xlink:href="#mfae6baddbf" y="576.72"/>
      </g>
     </g>
     <g id="line2d_31">
      <g>
       <use style="stroke:#000000;stroke-width:0.5;" x="316.400941367" xlink:href="#m279ec8f810" y="64.08"/>
      </g>
     </g>
    </g>
    <g id="xtick_11">
     <g id="line2d_32">
      <g>
       <use style="stroke:#000000;stroke-width:0.5;" x="330.207664103" xlink:href="#mfae6baddbf" y="576.72"/>
      </g>
     </g>
     <g id="line2d_33">
      <g>
       <use style="stroke:#000000;stroke-width:0.5;" x="330.207664103" xlink:href="#m279ec8f810" y="64.08"/>
      </g>
     </g>
    </g>
    <g id="xtick_12">
     <g id="line2d_34">
      <g>
       <use style="stroke:#000000;stroke-width:0.5;" x="342.386056647" xlink:href="#mfae6baddbf" y="576.72"/>
      </g>
     </g>
     <g id="line2d_35">
      <g>
       <use style="stroke:#000000;stroke-width:0.5;" x="342.386056647" xlink:href="#m279ec8f810" y="64.08"/>
      </g>
     </g>
    </g>
    <g id="xtick_13">
     <g id="line2d_36">
      <g>
       <use style="stroke:#000000;stroke-width:0.5;" x="424.949221368" xlink:href="#mfae6baddbf" y="576.72"/>
      </g>
     </g>
     <g id="line2d_37">
      <g>
       <use style="stroke:#000000;stroke-width:0.5;" x="424.949221368" xlink:href="#m279ec8f810" y="64.08"/>
      </g>
     </g>
    </g>
    <g id="xtick_14">
     <g id="line2d_38">
      <g>
       <use style="stroke:#000000;stroke-width:0.5;" x="466.873028324" xlink:href="#mfae6baddbf" y="576.72"/>
      </g>
     </g>
     <g id="line2d_39">
      <g>
       <use style="stroke:#000000;stroke-width:0.5;" x="466.873028324" xlink:href="#m279ec8f810" y="64.08"/>
      </g>
     </g>
    </g>
    <g id="xtick_15">
     <g id="line2d_40">
      <g>
       <use style="stroke:#000000;stroke-width:0.5;" x="496.618442735" xlink:href="#mfae6baddbf" y="576.72"/>
      </g>
     </g>
     <g id="line2d_41">
      <g>
       <use style="stroke:#000000;stroke-width:0.5;" x="496.618442735" xlink:href="#m279ec8f810" y="64.08"/>
      </g>
     </g>
    </g>
    <g id="xtick_16">
     <g id="line2d_42">
      <g>
       <use style="stroke:#000000;stroke-width:0.5;" x="519.690778632" xlink:href="#mfae6baddbf" y="576.72"/>
      </g>
     </g>
     <g id="line2d_43">
      <g>
       <use style="stroke:#000000;stroke-width:0.5;" x="519.690778632" xlink:href="#m279ec8f810" y="64.08"/>
      </g>
     </g>
    </g>
    <g id="xtick_17">
     <g id="line2d_44">
      <g>
       <use style="stroke:#000000;stroke-width:0.5;" x="538.542249691" xlink:href="#mfae6baddbf" y="576.72"/>
      </g>
     </g>
     <g id="line2d_45">
      <g>
       <use style="stroke:#000000;stroke-width:0.5;" x="538.542249691" xlink:href="#m279ec8f810" y="64.08"/>
      </g>
     </g>
    </g>
    <g id="xtick_18">
     <g id="line2d_46">
      <g>
       <use style="stroke:#000000;stroke-width:0.5;" x="554.480941367" xlink:href="#mfae6baddbf" y="576.72"/>
      </g>
     </g>
     <g id="line2d_47">
      <g>
       <use style="stroke:#000000;stroke-width:0.5;" x="554.480941367" xlink:href="#m279ec8f810" y="64.08"/>
      </g>
     </g>
    </g>
    <g id="xtick_19">
     <g id="line2d_48">
      <g>
       <use style="stroke:#000000;stroke-width:0.5;" x="568.287664103" xlink:href="#mfae6baddbf" y="576.72"/>
      </g>
     </g>
     <g id="line2d_49">
      <g>
       <use style="stroke:#000000;stroke-width:0.5;" x="568.287664103" xlink:href="#m279ec8f810" y="64.08"/>
      </g>
     </g>
    </g>
    <g id="xtick_20">
     <g id="line2d_50">
      <g>
       <use style="stroke:#000000;stroke-width:0.5;" x="580.466056647" xlink:href="#mfae6baddbf" y="576.72"/>
      </g>
     </g>
     <g id="line2d_51">
      <g>
       <use style="stroke:#000000;stroke-width:0.5;" x="580.466056647" xlink:href="#m279ec8f810" y="64.08"/>
      </g>
     </g>
    </g>
    <g id="xtick_21">
     <g id="line2d_52">
      <g>
       <use style="stroke:#000000;stroke-width:0.5;" x="663.029221368" xlink:href="#mfae6baddbf" y="576.72"/>
      </g>
     </g>
     <g id="line2d_53">
      <g>
       <use style="stroke:#000000;stroke-width:0.5;" x="663.029221368" xlink:href="#m279ec8f810" y="64.08"/>
      </g>
     </g>
    </g>
    <g id="xtick_22">
     <g id="line2d_54">
      <g>
       <use style="stroke:#000000;stroke-width:0.5;" x="704.953028324" xlink:href="#mfae6baddbf" y="576.72"/>
      </g>
     </g>
     <g id="line2d_55">
      <g>
       <use style="stroke:#000000;stroke-width:0.5;" x="704.953028324" xlink:href="#m279ec8f810" y="64.08"/>
      </g>
     </g>
    </g>
    <g id="xtick_23">
     <g id="line2d_56">
      <g>
       <use style="stroke:#000000;stroke-width:0.5;" x="734.698442735" xlink:href="#mfae6baddbf" y="576.72"/>
      </g>
     </g>
     <g id="line2d_57">
      <g>
       <use style="stroke:#000000;stroke-width:0.5;" x="734.698442735" xlink:href="#m279ec8f810" y="64.08"/>
      </g>
     </g>
    </g>
    <g id="xtick_24">
     <g id="line2d_58">
      <g>
       <use style="stroke:#000000;stroke-width:0.5;" x="757.770778632" xlink:href="#mfae6baddbf" y="576.72"/>
      </g>
     </g>
     <g id="line2d_59">
      <g>
       <use style="stroke:#000000;stroke-width:0.5;" x="757.770778632" xlink:href="#m279ec8f810" y="64.08"/>
      </g>
     </g>
    </g>
    <g id="xtick_25">
     <g id="line2d_60">
      <g>
       <use style="stroke:#000000;stroke-width:0.5;" x="776.622249691" xlink:href="#mfae6baddbf" y="576.72"/>
      </g>
     </g>
     <g id="line2d_61">
      <g>
       <use style="stroke:#000000;stroke-width:0.5;" x="776.622249691" xlink:href="#m279ec8f810" y="64.08"/>
      </g>
     </g>
    </g>
    <g id="xtick_26">
     <g id="line2d_62">
      <g>
       <use style="stroke:#000000;stroke-width:0.5;" x="792.560941367" xlink:href="#mfae6baddbf" y="576.72"/>
      </g>
     </g>
     <g id="line2d_63">
      <g>
       <use style="stroke:#000000;stroke-width:0.5;" x="792.560941367" xlink:href="#m279ec8f810" y="64.08"/>
      </g>
     </g>
    </g>
    <g id="xtick_27">
     <g id="line2d_64">
      <g>
       <use style="stroke:#000000;stroke-width:0.5;" x="806.367664103" xlink:href="#mfae6baddbf" y="576.72"/>
      </g>
     </g>
     <g id="line2d_65">
      <g>
       <use style="stroke:#000000;stroke-width:0.5;" x="806.367664103" xlink:href="#m279ec8f810" y="64.08"/>
      </g>
     </g>
    </g>
    <g id="xtick_28">
     <g id="line2d_66">
      <g>
       <use style="stroke:#000000;stroke-width:0.5;" x="818.546056647" xlink:href="#mfae6baddbf" y="576.72"/>
      </g>
     </g>
     <g id="line2d_67">
      <g>
       <use style="stroke:#000000;stroke-width:0.5;" x="818.546056647" xlink:href="#m279ec8f810" y="64.08"/>
      </g>
     </g>
    </g>
   </g>
   <g id="matplotlib.axis_2">
    <g id="ytick_1">
     <g id="line2d_68">
      <defs>
       <path d="M 0 0 
L 4 0 
" id="mb199acc343" style="stroke:#000000;stroke-width:0.5;"/>
      </defs>
      <g>
       <use style="stroke:#000000;stroke-width:0.5;" x="115.2" xlink:href="#mb199acc343" y="576.72"/>
      </g>
     </g>
     <g id="line2d_69">
      <defs>
       <path d="M 0 0 
L -4 0 
" id="mdf6fe8fbe1" style="stroke:#000000;stroke-width:0.5;"/>
      </defs>
      <g>
       <use style="stroke:#000000;stroke-width:0.5;" x="829.44" xlink:href="#mdf6fe8fbe1" y="576.72"/>
      </g>
     </g>
     <g id="text_5">
      <!-- 8 -->
      <defs>
       <path d="M 31.78125 34.625 
Q 24.75 34.625 20.71875 30.859375 
Q 16.703125 27.09375 16.703125 20.515625 
Q 16.703125 13.921875 20.71875 10.15625 
Q 24.75 6.390625 31.78125 6.390625 
Q 38.8125 6.390625 42.859375 10.171875 
Q 46.921875 13.96875 46.921875 20.515625 
Q 46.921875 27.09375 42.890625 30.859375 
Q 38.875 34.625 31.78125 34.625 
M 21.921875 38.8125 
Q 15.578125 40.375 12.03125 44.71875 
Q 8.5 49.078125 8.5 55.328125 
Q 8.5 64.0625 14.71875 69.140625 
Q 20.953125 74.21875 31.78125 74.21875 
Q 42.671875 74.21875 48.875 69.140625 
Q 55.078125 64.0625 55.078125 55.328125 
Q 55.078125 49.078125 51.53125 44.71875 
Q 48 40.375 41.703125 38.8125 
Q 48.828125 37.15625 52.796875 32.3125 
Q 56.78125 27.484375 56.78125 20.515625 
Q 56.78125 9.90625 50.3125 4.234375 
Q 43.84375 -1.421875 31.78125 -1.421875 
Q 19.734375 -1.421875 13.25 4.234375 
Q 6.78125 9.90625 6.78125 20.515625 
Q 6.78125 27.484375 10.78125 32.3125 
Q 14.796875 37.15625 21.921875 38.8125 
M 18.3125 54.390625 
Q 18.3125 48.734375 21.84375 45.5625 
Q 25.390625 42.390625 31.78125 42.390625 
Q 38.140625 42.390625 41.71875 45.5625 
Q 45.3125 48.734375 45.3125 54.390625 
Q 45.3125 60.0625 41.71875 63.234375 
Q 38.140625 66.40625 31.78125 66.40625 
Q 25.390625 66.40625 21.84375 63.234375 
Q 18.3125 60.0625 18.3125 54.390625 
" id="BitstreamVeraSans-Roman-38"/>
       <path d="M 10.59375 35.5 
L 73.1875 35.5 
L 73.1875 27.203125 
L 10.59375 27.203125 
z
" id="BitstreamVeraSans-Roman-2212"/>
      </defs>
      <g transform="translate(93.509375 580.03125)scale(0.12 -0.12)">
       <use xlink:href="#BitstreamVeraSans-Roman-2212"/>
       <use x="83.7890625" xlink:href="#BitstreamVeraSans-Roman-38"/>
      </g>
     </g>
    </g>
    <g id="ytick_2">
     <g id="line2d_70">
      <g>
       <use style="stroke:#000000;stroke-width:0.5;" x="115.2" xlink:href="#mb199acc343" y="512.64"/>
      </g>
     </g>
     <g id="line2d_71">
      <g>
       <use style="stroke:#000000;stroke-width:0.5;" x="829.44" xlink:href="#mdf6fe8fbe1" y="512.64"/>
      </g>
     </g>
     <g id="text_6">
      <!-- 7 -->
      <defs>
       <path d="M 8.203125 72.90625 
L 55.078125 72.90625 
L 55.078125 68.703125 
L 28.609375 0 
L 18.3125 0 
L 43.21875 64.59375 
L 8.203125 64.59375 
z
" id="BitstreamVeraSans-Roman-37"/>
      </defs>
      <g transform="translate(93.509375 515.95125)scale(0.12 -0.12)">
       <use xlink:href="#BitstreamVeraSans-Roman-2212"/>
       <use x="83.7890625" xlink:href="#BitstreamVeraSans-Roman-37"/>
      </g>
     </g>
    </g>
    <g id="ytick_3">
     <g id="line2d_72">
      <g>
       <use style="stroke:#000000;stroke-width:0.5;" x="115.2" xlink:href="#mb199acc343" y="448.56"/>
      </g>
     </g>
     <g id="line2d_73">
      <g>
       <use style="stroke:#000000;stroke-width:0.5;" x="829.44" xlink:href="#mdf6fe8fbe1" y="448.56"/>
      </g>
     </g>
     <g id="text_7">
      <!-- 6 -->
      <defs>
       <path d="M 33.015625 40.375 
Q 26.375 40.375 22.484375 35.828125 
Q 18.609375 31.296875 18.609375 23.390625 
Q 18.609375 15.53125 22.484375 10.953125 
Q 26.375 6.390625 33.015625 6.390625 
Q 39.65625 6.390625 43.53125 10.953125 
Q 47.40625 15.53125 47.40625 23.390625 
Q 47.40625 31.296875 43.53125 35.828125 
Q 39.65625 40.375 33.015625 40.375 
M 52.59375 71.296875 
L 52.59375 62.3125 
Q 48.875 64.0625 45.09375 64.984375 
Q 41.3125 65.921875 37.59375 65.921875 
Q 27.828125 65.921875 22.671875 59.328125 
Q 17.53125 52.734375 16.796875 39.40625 
Q 19.671875 43.65625 24.015625 45.921875 
Q 28.375 48.1875 33.59375 48.1875 
Q 44.578125 48.1875 50.953125 41.515625 
Q 57.328125 34.859375 57.328125 23.390625 
Q 57.328125 12.15625 50.6875 5.359375 
Q 44.046875 -1.421875 33.015625 -1.421875 
Q 20.359375 -1.421875 13.671875 8.265625 
Q 6.984375 17.96875 6.984375 36.375 
Q 6.984375 53.65625 15.1875 63.9375 
Q 23.390625 74.21875 37.203125 74.21875 
Q 40.921875 74.21875 44.703125 73.484375 
Q 48.484375 72.75 52.59375 71.296875 
" id="BitstreamVeraSans-Roman-36"/>
      </defs>
      <g transform="translate(93.509375 451.87125)scale(0.12 -0.12)">
       <use xlink:href="#BitstreamVeraSans-Roman-2212"/>
       <use x="83.7890625" xlink:href="#BitstreamVeraSans-Roman-36"/>
      </g>
     </g>
    </g>
    <g id="ytick_4">
     <g id="line2d_74">
      <g>
       <use style="stroke:#000000;stroke-width:0.5;" x="115.2" xlink:href="#mb199acc343" y="384.48"/>
      </g>
     </g>
     <g id="line2d_75">
      <g>
       <use style="stroke:#000000;stroke-width:0.5;" x="829.44" xlink:href="#mdf6fe8fbe1" y="384.48"/>
      </g>
     </g>
     <g id="text_8">
      <!-- 5 -->
      <defs>
       <path d="M 10.796875 72.90625 
L 49.515625 72.90625 
L 49.515625 64.59375 
L 19.828125 64.59375 
L 19.828125 46.734375 
Q 21.96875 47.46875 24.109375 47.828125 
Q 26.265625 48.1875 28.421875 48.1875 
Q 40.625 48.1875 47.75 41.5 
Q 54.890625 34.8125 54.890625 23.390625 
Q 54.890625 11.625 47.5625 5.09375 
Q 40.234375 -1.421875 26.90625 -1.421875 
Q 22.3125 -1.421875 17.546875 -0.640625 
Q 12.796875 0.140625 7.71875 1.703125 
L 7.71875 11.625 
Q 12.109375 9.234375 16.796875 8.0625 
Q 21.484375 6.890625 26.703125 6.890625 
Q 35.15625 6.890625 40.078125 11.328125 
Q 45.015625 15.765625 45.015625 23.390625 
Q 45.015625 31 40.078125 35.4375 
Q 35.15625 39.890625 26.703125 39.890625 
Q 22.75 39.890625 18.8125 39.015625 
Q 14.890625 38.140625 10.796875 36.28125 
z
" id="BitstreamVeraSans-Roman-35"/>
      </defs>
      <g transform="translate(93.509375 387.79125)scale(0.12 -0.12)">
       <use xlink:href="#BitstreamVeraSans-Roman-2212"/>
       <use x="83.7890625" xlink:href="#BitstreamVeraSans-Roman-35"/>
      </g>
     </g>
    </g>
    <g id="ytick_5">
     <g id="line2d_76">
      <g>
       <use style="stroke:#000000;stroke-width:0.5;" x="115.2" xlink:href="#mb199acc343" y="320.4"/>
      </g>
     </g>
     <g id="line2d_77">
      <g>
       <use style="stroke:#000000;stroke-width:0.5;" x="829.44" xlink:href="#mdf6fe8fbe1" y="320.4"/>
      </g>
     </g>
     <g id="text_9">
      <!-- 4 -->
      <defs>
       <path d="M 37.796875 64.3125 
L 12.890625 25.390625 
L 37.796875 25.390625 
z
M 35.203125 72.90625 
L 47.609375 72.90625 
L 47.609375 25.390625 
L 58.015625 25.390625 
L 58.015625 17.1875 
L 47.609375 17.1875 
L 47.609375 0 
L 37.796875 0 
L 37.796875 17.1875 
L 4.890625 17.1875 
L 4.890625 26.703125 
z
" id="BitstreamVeraSans-Roman-34"/>
      </defs>
      <g transform="translate(93.509375 323.71125)scale(0.12 -0.12)">
       <use xlink:href="#BitstreamVeraSans-Roman-2212"/>
       <use x="83.7890625" xlink:href="#BitstreamVeraSans-Roman-34"/>
      </g>
     </g>
    </g>
    <g id="ytick_6">
     <g id="line2d_78">
      <g>
       <use style="stroke:#000000;stroke-width:0.5;" x="115.2" xlink:href="#mb199acc343" y="256.32"/>
      </g>
     </g>
     <g id="line2d_79">
      <g>
       <use style="stroke:#000000;stroke-width:0.5;" x="829.44" xlink:href="#mdf6fe8fbe1" y="256.32"/>
      </g>
     </g>
     <g id="text_10">
      <!-- 3 -->
      <g transform="translate(93.509375 259.63125)scale(0.12 -0.12)">
       <use xlink:href="#BitstreamVeraSans-Roman-2212"/>
       <use x="83.7890625" xlink:href="#BitstreamVeraSans-Roman-33"/>
      </g>
     </g>
    </g>
    <g id="ytick_7">
     <g id="line2d_80">
      <g>
       <use style="stroke:#000000;stroke-width:0.5;" x="115.2" xlink:href="#mb199acc343" y="192.24"/>
      </g>
     </g>
     <g id="line2d_81">
      <g>
       <use style="stroke:#000000;stroke-width:0.5;" x="829.44" xlink:href="#mdf6fe8fbe1" y="192.24"/>
      </g>
     </g>
     <g id="text_11">
      <!-- 2 -->
      <g transform="translate(93.509375 195.55125)scale(0.12 -0.12)">
       <use xlink:href="#BitstreamVeraSans-Roman-2212"/>
       <use x="83.7890625" xlink:href="#BitstreamVeraSans-Roman-32"/>
      </g>
     </g>
    </g>
    <g id="ytick_8">
     <g id="line2d_82">
      <g>
       <use style="stroke:#000000;stroke-width:0.5;" x="115.2" xlink:href="#mb199acc343" y="128.16"/>
      </g>
     </g>
     <g id="line2d_83">
      <g>
       <use style="stroke:#000000;stroke-width:0.5;" x="829.44" xlink:href="#mdf6fe8fbe1" y="128.16"/>
      </g>
     </g>
     <g id="text_12">
      <!-- 1 -->
      <g transform="translate(93.509375 131.47125)scale(0.12 -0.12)">
       <use xlink:href="#BitstreamVeraSans-Roman-2212"/>
       <use x="83.7890625" xlink:href="#BitstreamVeraSans-Roman-31"/>
      </g>
     </g>
    </g>
    <g id="ytick_9">
     <g id="line2d_84">
      <g>
       <use style="stroke:#000000;stroke-width:0.5;" x="115.2" xlink:href="#mb199acc343" y="64.08"/>
      </g>
     </g>
     <g id="line2d_85">
      <g>
       <use style="stroke:#000000;stroke-width:0.5;" x="829.44" xlink:href="#mdf6fe8fbe1" y="64.08"/>
      </g>
     </g>
     <g id="text_13">
      <!-- 0 -->
      <g transform="translate(103.565 67.39125)scale(0.12 -0.12)">
       <use xlink:href="#BitstreamVeraSans-Roman-30"/>
      </g>
     </g>
    </g>
   </g>
   <g id="legend_1">
    <g id="patch_7">
     <path d="M 122.4 438.81075 
L 257.98275 438.81075 
L 257.98275 201.98925 
L 122.4 201.98925 
z
" style="fill:#ffffff;stroke:#000000;stroke-linejoin:miter;"/>
    </g>
    <g id="line2d_86">
     <path d="M 132.48 213.651 
L 152.64 213.651 
" style="fill:none;stroke:#ff1e1e;stroke-linecap:square;"/>
    </g>
    <g id="line2d_87"/>
    <g id="text_14">
     <!-- Std: 0.0 -->
     <defs>
      <path d="M 11.71875 12.40625 
L 22.015625 12.40625 
L 22.015625 0 
L 11.71875 0 
z
M 11.71875 51.703125 
L 22.015625 51.703125 
L 22.015625 39.3125 
L 11.71875 39.3125 
z
" id="BitstreamVeraSans-Roman-3a"/>
      <path id="BitstreamVeraSans-Roman-20"/>
      <path d="M 45.40625 46.390625 
L 45.40625 75.984375 
L 54.390625 75.984375 
L 54.390625 0 
L 45.40625 0 
L 45.40625 8.203125 
Q 42.578125 3.328125 38.25 0.953125 
Q 33.9375 -1.421875 27.875 -1.421875 
Q 17.96875 -1.421875 11.734375 6.484375 
Q 5.515625 14.40625 5.515625 27.296875 
Q 5.515625 40.1875 11.734375 48.09375 
Q 17.96875 56 27.875 56 
Q 33.9375 56 38.25 53.625 
Q 42.578125 51.265625 45.40625 46.390625 
M 14.796875 27.296875 
Q 14.796875 17.390625 18.875 11.75 
Q 22.953125 6.109375 30.078125 6.109375 
Q 37.203125 6.109375 41.296875 11.75 
Q 45.40625 17.390625 45.40625 27.296875 
Q 45.40625 37.203125 41.296875 42.84375 
Q 37.203125 48.484375 30.078125 48.484375 
Q 22.953125 48.484375 18.875 42.84375 
Q 14.796875 37.203125 14.796875 27.296875 
" id="BitstreamVeraSans-Roman-64"/>
      <path d="M 18.3125 70.21875 
L 18.3125 54.6875 
L 36.8125 54.6875 
L 36.8125 47.703125 
L 18.3125 47.703125 
L 18.3125 18.015625 
Q 18.3125 11.328125 20.140625 9.421875 
Q 21.96875 7.515625 27.59375 7.515625 
L 36.8125 7.515625 
L 36.8125 0 
L 27.59375 0 
Q 17.1875 0 13.234375 3.875 
Q 9.28125 7.765625 9.28125 18.015625 
L 9.28125 47.703125 
L 2.6875 47.703125 
L 2.6875 54.6875 
L 9.28125 54.6875 
L 9.28125 70.21875 
z
" id="BitstreamVeraSans-Roman-74"/>
      <path d="M 10.6875 12.40625 
L 21 12.40625 
L 21 0 
L 10.6875 0 
z
" id="BitstreamVeraSans-Roman-2e"/>
      <path d="M 53.515625 70.515625 
L 53.515625 60.890625 
Q 47.90625 63.578125 42.921875 64.890625 
Q 37.9375 66.21875 33.296875 66.21875 
Q 25.25 66.21875 20.875 63.09375 
Q 16.5 59.96875 16.5 54.203125 
Q 16.5 49.359375 19.40625 46.890625 
Q 22.3125 44.4375 30.421875 42.921875 
L 36.375 41.703125 
Q 47.40625 39.59375 52.65625 34.296875 
Q 57.90625 29 57.90625 20.125 
Q 57.90625 9.515625 50.796875 4.046875 
Q 43.703125 -1.421875 29.984375 -1.421875 
Q 24.8125 -1.421875 18.96875 -0.25 
Q 13.140625 0.921875 6.890625 3.21875 
L 6.890625 13.375 
Q 12.890625 10.015625 18.65625 8.296875 
Q 24.421875 6.59375 29.984375 6.59375 
Q 38.421875 6.59375 43.015625 9.90625 
Q 47.609375 13.234375 47.609375 19.390625 
Q 47.609375 24.75 44.3125 27.78125 
Q 41.015625 30.8125 33.5 32.328125 
L 27.484375 33.5 
Q 16.453125 35.6875 11.515625 40.375 
Q 6.59375 45.0625 6.59375 53.421875 
Q 6.59375 63.09375 13.40625 68.65625 
Q 20.21875 74.21875 32.171875 74.21875 
Q 37.3125 74.21875 42.625 73.28125 
Q 47.953125 72.359375 53.515625 70.515625 
" id="BitstreamVeraSans-Roman-53"/>
     </defs>
     <g transform="translate(168.48 218.691)scale(0.144 -0.144)">
      <use xlink:href="#BitstreamVeraSans-Roman-53"/>
      <use x="63.4765625" xlink:href="#BitstreamVeraSans-Roman-74"/>
      <use x="102.685546875" xlink:href="#BitstreamVeraSans-Roman-64"/>
      <use x="166.162109375" xlink:href="#BitstreamVeraSans-Roman-3a"/>
      <use x="199.853515625" xlink:href="#BitstreamVeraSans-Roman-20"/>
      <use x="231.640625" xlink:href="#BitstreamVeraSans-Roman-30"/>
      <use x="295.263671875" xlink:href="#BitstreamVeraSans-Roman-2e"/>
      <use x="327.05078125" xlink:href="#BitstreamVeraSans-Roman-30"/>
     </g>
    </g>
    <g id="line2d_88">
     <path d="M 132.48 234.7875 
L 152.64 234.7875 
" style="fill:none;stroke:#581845;stroke-linecap:square;"/>
    </g>
    <g id="line2d_89"/>
    <g id="text_15">
     <!-- Std: 100.0 -->
     <g transform="translate(168.48 239.8275)scale(0.144 -0.144)">
      <use xlink:href="#BitstreamVeraSans-Roman-53"/>
      <use x="63.4765625" xlink:href="#BitstreamVeraSans-Roman-74"/>
      <use x="102.685546875" xlink:href="#BitstreamVeraSans-Roman-64"/>
      <use x="166.162109375" xlink:href="#BitstreamVeraSans-Roman-3a"/>
      <use x="199.853515625" xlink:href="#BitstreamVeraSans-Roman-20"/>
      <use x="231.640625" xlink:href="#BitstreamVeraSans-Roman-31"/>
      <use x="295.263671875" xlink:href="#BitstreamVeraSans-Roman-30"/>
      <use x="358.88671875" xlink:href="#BitstreamVeraSans-Roman-30"/>
      <use x="422.509765625" xlink:href="#BitstreamVeraSans-Roman-2e"/>
      <use x="454.296875" xlink:href="#BitstreamVeraSans-Roman-30"/>
     </g>
    </g>
    <g id="line2d_90">
     <path d="M 132.48 255.924 
L 152.64 255.924 
" style="fill:none;stroke:#26b7d8;stroke-linecap:square;"/>
    </g>
    <g id="line2d_91"/>
    <g id="text_16">
     <!-- Std: 200.0 -->
     <g transform="translate(168.48 260.964)scale(0.144 -0.144)">
      <use xlink:href="#BitstreamVeraSans-Roman-53"/>
      <use x="63.4765625" xlink:href="#BitstreamVeraSans-Roman-74"/>
      <use x="102.685546875" xlink:href="#BitstreamVeraSans-Roman-64"/>
      <use x="166.162109375" xlink:href="#BitstreamVeraSans-Roman-3a"/>
      <use x="199.853515625" xlink:href="#BitstreamVeraSans-Roman-20"/>
      <use x="231.640625" xlink:href="#BitstreamVeraSans-Roman-32"/>
      <use x="295.263671875" xlink:href="#BitstreamVeraSans-Roman-30"/>
      <use x="358.88671875" xlink:href="#BitstreamVeraSans-Roman-30"/>
      <use x="422.509765625" xlink:href="#BitstreamVeraSans-Roman-2e"/>
      <use x="454.296875" xlink:href="#BitstreamVeraSans-Roman-30"/>
     </g>
    </g>
    <g id="line2d_92">
     <path d="M 132.48 277.0605 
L 152.64 277.0605 
" style="fill:none;stroke:#8414a4;stroke-linecap:square;"/>
    </g>
    <g id="line2d_93"/>
    <g id="text_17">
     <!-- Std: 300.0 -->
     <g transform="translate(168.48 282.1005)scale(0.144 -0.144)">
      <use xlink:href="#BitstreamVeraSans-Roman-53"/>
      <use x="63.4765625" xlink:href="#BitstreamVeraSans-Roman-74"/>
      <use x="102.685546875" xlink:href="#BitstreamVeraSans-Roman-64"/>
      <use x="166.162109375" xlink:href="#BitstreamVeraSans-Roman-3a"/>
      <use x="199.853515625" xlink:href="#BitstreamVeraSans-Roman-20"/>
      <use x="231.640625" xlink:href="#BitstreamVeraSans-Roman-33"/>
      <use x="295.263671875" xlink:href="#BitstreamVeraSans-Roman-30"/>
      <use x="358.88671875" xlink:href="#BitstreamVeraSans-Roman-30"/>
      <use x="422.509765625" xlink:href="#BitstreamVeraSans-Roman-2e"/>
      <use x="454.296875" xlink:href="#BitstreamVeraSans-Roman-30"/>
     </g>
    </g>
    <g id="line2d_94">
     <path d="M 132.48 298.197 
L 152.64 298.197 
" style="fill:none;stroke:#ffd23a;stroke-linecap:square;"/>
    </g>
    <g id="line2d_95"/>
    <g id="text_18">
     <!-- Std: 400.0 -->
     <g transform="translate(168.48 303.237)scale(0.144 -0.144)">
      <use xlink:href="#BitstreamVeraSans-Roman-53"/>
      <use x="63.4765625" xlink:href="#BitstreamVeraSans-Roman-74"/>
      <use x="102.685546875" xlink:href="#BitstreamVeraSans-Roman-64"/>
      <use x="166.162109375" xlink:href="#BitstreamVeraSans-Roman-3a"/>
      <use x="199.853515625" xlink:href="#BitstreamVeraSans-Roman-20"/>
      <use x="231.640625" xlink:href="#BitstreamVeraSans-Roman-34"/>
      <use x="295.263671875" xlink:href="#BitstreamVeraSans-Roman-30"/>
      <use x="358.88671875" xlink:href="#BitstreamVeraSans-Roman-30"/>
      <use x="422.509765625" xlink:href="#BitstreamVeraSans-Roman-2e"/>
      <use x="454.296875" xlink:href="#BitstreamVeraSans-Roman-30"/>
     </g>
    </g>
    <g id="line2d_96">
     <path d="M 132.48 319.3335 
L 152.64 319.3335 
" style="fill:none;stroke:#ff9300;stroke-linecap:square;"/>
    </g>
    <g id="line2d_97"/>
    <g id="text_19">
     <!-- Std: 500.0 -->
     <g transform="translate(168.48 324.3735)scale(0.144 -0.144)">
      <use xlink:href="#BitstreamVeraSans-Roman-53"/>
      <use x="63.4765625" xlink:href="#BitstreamVeraSans-Roman-74"/>
      <use x="102.685546875" xlink:href="#BitstreamVeraSans-Roman-64"/>
      <use x="166.162109375" xlink:href="#BitstreamVeraSans-Roman-3a"/>
      <use x="199.853515625" xlink:href="#BitstreamVeraSans-Roman-20"/>
      <use x="231.640625" xlink:href="#BitstreamVeraSans-Roman-35"/>
      <use x="295.263671875" xlink:href="#BitstreamVeraSans-Roman-30"/>
      <use x="358.88671875" xlink:href="#BitstreamVeraSans-Roman-30"/>
      <use x="422.509765625" xlink:href="#BitstreamVeraSans-Roman-2e"/>
      <use x="454.296875" xlink:href="#BitstreamVeraSans-Roman-30"/>
     </g>
    </g>
    <g id="line2d_98">
     <path d="M 132.48 340.47 
L 152.64 340.47 
" style="fill:none;stroke:#f50fe6;stroke-linecap:square;"/>
    </g>
    <g id="line2d_99"/>
    <g id="text_20">
     <!-- Std: 600.0 -->
     <g transform="translate(168.48 345.51)scale(0.144 -0.144)">
      <use xlink:href="#BitstreamVeraSans-Roman-53"/>
      <use x="63.4765625" xlink:href="#BitstreamVeraSans-Roman-74"/>
      <use x="102.685546875" xlink:href="#BitstreamVeraSans-Roman-64"/>
      <use x="166.162109375" xlink:href="#BitstreamVeraSans-Roman-3a"/>
      <use x="199.853515625" xlink:href="#BitstreamVeraSans-Roman-20"/>
      <use x="231.640625" xlink:href="#BitstreamVeraSans-Roman-36"/>
      <use x="295.263671875" xlink:href="#BitstreamVeraSans-Roman-30"/>
      <use x="358.88671875" xlink:href="#BitstreamVeraSans-Roman-30"/>
      <use x="422.509765625" xlink:href="#BitstreamVeraSans-Roman-2e"/>
      <use x="454.296875" xlink:href="#BitstreamVeraSans-Roman-30"/>
     </g>
    </g>
    <g id="line2d_100">
     <path d="M 132.48 361.6065 
L 152.64 361.6065 
" style="fill:none;stroke:#1000a0;stroke-linecap:square;"/>
    </g>
    <g id="line2d_101"/>
    <g id="text_21">
     <!-- Std: 700.0 -->
     <g transform="translate(168.48 366.6465)scale(0.144 -0.144)">
      <use xlink:href="#BitstreamVeraSans-Roman-53"/>
      <use x="63.4765625" xlink:href="#BitstreamVeraSans-Roman-74"/>
      <use x="102.685546875" xlink:href="#BitstreamVeraSans-Roman-64"/>
      <use x="166.162109375" xlink:href="#BitstreamVeraSans-Roman-3a"/>
      <use x="199.853515625" xlink:href="#BitstreamVeraSans-Roman-20"/>
      <use x="231.640625" xlink:href="#BitstreamVeraSans-Roman-37"/>
      <use x="295.263671875" xlink:href="#BitstreamVeraSans-Roman-30"/>
      <use x="358.88671875" xlink:href="#BitstreamVeraSans-Roman-30"/>
      <use x="422.509765625" xlink:href="#BitstreamVeraSans-Roman-2e"/>
      <use x="454.296875" xlink:href="#BitstreamVeraSans-Roman-30"/>
     </g>
    </g>
    <g id="line2d_102">
     <path d="M 132.48 382.743 
L 152.64 382.743 
" style="fill:none;stroke:#595866;stroke-linecap:square;"/>
    </g>
    <g id="line2d_103"/>
    <g id="text_22">
     <!-- Std: 800.0 -->
     <g transform="translate(168.48 387.783)scale(0.144 -0.144)">
      <use xlink:href="#BitstreamVeraSans-Roman-53"/>
      <use x="63.4765625" xlink:href="#BitstreamVeraSans-Roman-74"/>
      <use x="102.685546875" xlink:href="#BitstreamVeraSans-Roman-64"/>
      <use x="166.162109375" xlink:href="#BitstreamVeraSans-Roman-3a"/>
      <use x="199.853515625" xlink:href="#BitstreamVeraSans-Roman-20"/>
      <use x="231.640625" xlink:href="#BitstreamVeraSans-Roman-38"/>
      <use x="295.263671875" xlink:href="#BitstreamVeraSans-Roman-30"/>
      <use x="358.88671875" xlink:href="#BitstreamVeraSans-Roman-30"/>
      <use x="422.509765625" xlink:href="#BitstreamVeraSans-Roman-2e"/>
      <use x="454.296875" xlink:href="#BitstreamVeraSans-Roman-30"/>
     </g>
    </g>
    <g id="line2d_104">
     <path d="M 132.48 403.8795 
L 152.64 403.8795 
" style="fill:none;stroke:#147f2a;stroke-linecap:square;"/>
    </g>
    <g id="line2d_105"/>
    <g id="text_23">
     <!-- Std: 900.0 -->
     <defs>
      <path d="M 10.984375 1.515625 
L 10.984375 10.5 
Q 14.703125 8.734375 18.5 7.8125 
Q 22.3125 6.890625 25.984375 6.890625 
Q 35.75 6.890625 40.890625 13.453125 
Q 46.046875 20.015625 46.78125 33.40625 
Q 43.953125 29.203125 39.59375 26.953125 
Q 35.25 24.703125 29.984375 24.703125 
Q 19.046875 24.703125 12.671875 31.3125 
Q 6.296875 37.9375 6.296875 49.421875 
Q 6.296875 60.640625 12.9375 67.421875 
Q 19.578125 74.21875 30.609375 74.21875 
Q 43.265625 74.21875 49.921875 64.515625 
Q 56.59375 54.828125 56.59375 36.375 
Q 56.59375 19.140625 48.40625 8.859375 
Q 40.234375 -1.421875 26.421875 -1.421875 
Q 22.703125 -1.421875 18.890625 -0.6875 
Q 15.09375 0.046875 10.984375 1.515625 
M 30.609375 32.421875 
Q 37.25 32.421875 41.125 36.953125 
Q 45.015625 41.5 45.015625 49.421875 
Q 45.015625 57.28125 41.125 61.84375 
Q 37.25 66.40625 30.609375 66.40625 
Q 23.96875 66.40625 20.09375 61.84375 
Q 16.21875 57.28125 16.21875 49.421875 
Q 16.21875 41.5 20.09375 36.953125 
Q 23.96875 32.421875 30.609375 32.421875 
" id="BitstreamVeraSans-Roman-39"/>
     </defs>
     <g transform="translate(168.48 408.9195)scale(0.144 -0.144)">
      <use xlink:href="#BitstreamVeraSans-Roman-53"/>
      <use x="63.4765625" xlink:href="#BitstreamVeraSans-Roman-74"/>
      <use x="102.685546875" xlink:href="#BitstreamVeraSans-Roman-64"/>
      <use x="166.162109375" xlink:href="#BitstreamVeraSans-Roman-3a"/>
      <use x="199.853515625" xlink:href="#BitstreamVeraSans-Roman-20"/>
      <use x="231.640625" xlink:href="#BitstreamVeraSans-Roman-39"/>
      <use x="295.263671875" xlink:href="#BitstreamVeraSans-Roman-30"/>
      <use x="358.88671875" xlink:href="#BitstreamVeraSans-Roman-30"/>
      <use x="422.509765625" xlink:href="#BitstreamVeraSans-Roman-2e"/>
      <use x="454.296875" xlink:href="#BitstreamVeraSans-Roman-30"/>
     </g>
    </g>
    <g id="line2d_106">
     <path d="M 132.48 425.016 
L 152.64 425.016 
" style="fill:none;stroke:#00f6aa;stroke-linecap:square;"/>
    </g>
    <g id="line2d_107"/>
    <g id="text_24">
     <!-- Std: 1000.0 -->
     <g transform="translate(168.48 430.056)scale(0.144 -0.144)">
      <use xlink:href="#BitstreamVeraSans-Roman-53"/>
      <use x="63.4765625" xlink:href="#BitstreamVeraSans-Roman-74"/>
      <use x="102.685546875" xlink:href="#BitstreamVeraSans-Roman-64"/>
      <use x="166.162109375" xlink:href="#BitstreamVeraSans-Roman-3a"/>
      <use x="199.853515625" xlink:href="#BitstreamVeraSans-Roman-20"/>
      <use x="231.640625" xlink:href="#BitstreamVeraSans-Roman-31"/>
      <use x="295.263671875" xlink:href="#BitstreamVeraSans-Roman-30"/>
      <use x="358.88671875" xlink:href="#BitstreamVeraSans-Roman-30"/>
      <use x="422.509765625" xlink:href="#BitstreamVeraSans-Roman-30"/>
      <use x="486.1328125" xlink:href="#BitstreamVeraSans-Roman-2e"/>
      <use x="517.919921875" xlink:href="#BitstreamVeraSans-Roman-30"/>
     </g>
    </g>
   </g>
  </g>
 </g>
 <defs>
  <clipPath id="p38d214f1fd">
   <rect height="512.64" width="714.24" x="115.2" y="64.08"/>
  </clipPath>
 </defs>
</svg>
